<svg width="138" height="18" viewBox="0 0 138 18" fill="none" xmlns="http://www.w3.org/2000/svg">
<g clip-path="url(#clip0_1744_13200)">
<path d="M6.2905 0.241916C7.36728 0.388298 8.29271 0.884507 9.08168 1.73054C9.87065 2.5741 10.2627 3.52434 10.2552 4.57878C10.2552 4.92365 10.156 5.43226 9.95997 6.10214C9.76396 6.76706 9.27768 7.44687 8.50607 8.13164C9.29753 8.57823 9.90539 9.19601 10.3396 9.97754C10.7738 10.7615 10.9871 11.5902 10.9846 12.4611C10.9846 13.1682 10.8308 13.8554 10.5331 14.5253C10.2403 15.1927 9.86569 15.7187 9.40918 16.1008C8.95266 16.4878 8.52344 16.7632 8.12151 16.9344C7.71958 17.1056 7.26307 17.242 6.75694 17.3413L2.52428 17.3214C1.83951 17.2371 1.28127 16.9518 0.849571 16.463C0.41787 15.9767 0.162322 15.3664 0.0878906 14.6369L0.137512 2.71304C0.139993 2.02331 0.405464 1.4353 0.933927 0.953976C1.46239 0.467691 2.08265 0.22703 2.79223 0.229511L6.2905 0.241916ZM3.4249 9.99739L3.40753 14.2226L6.06969 14.2325C6.58327 14.0713 7.00008 13.8108 7.33006 13.4361C7.65756 13.059 7.82131 12.6422 7.82627 12.1733C7.82627 11.8284 7.74936 11.4711 7.58561 11.1064C7.21841 10.4961 6.63537 10.1314 5.84143 10.0048L3.4249 9.99739ZM4.39002 3.40029L3.56632 3.48712L3.55639 6.8018L5.62558 6.81172C6.01014 6.72985 6.31035 6.53385 6.52372 6.22123C6.73709 5.90862 6.84378 5.56872 6.84626 5.20401C6.84874 4.83681 6.7619 4.50187 6.59319 4.20166C6.422 3.8965 6.15156 3.68064 5.78685 3.55907C5.56604 3.51938 5.35763 3.48216 5.16411 3.44991C4.97059 3.42013 4.71504 3.40029 4.38754 3.40029H4.39002Z" fill="#E20177"/>
<path d="M15.0503 0.338419L18.6081 0.353305L18.5511 14.1281L23.6025 14.1504L23.5901 17.4055L17.2014 17.3807C16.6704 17.3807 16.2412 17.2021 15.8963 16.8572C15.554 16.5099 15.2488 16.0434 14.9883 15.4529L15.0503 0.335938V0.338419Z" fill="#E20177"/>
<path d="M32.7955 0.165039H33.0361C33.6862 0.16752 34.2643 0.388333 34.7679 0.824997C35.2716 1.26662 35.6164 1.80005 35.7975 2.43023L40.1791 17.4406L36.4749 17.453L35.5569 14.1978L30.6047 14.173L29.6346 17.4207L25.9453 17.4133L30.627 2.22431C30.8106 1.61893 31.1282 1.08303 31.5773 0.616589C31.9643 0.418106 32.3663 0.266762 32.7955 0.165039ZM33.1453 3.57399L31.5053 11.0196L34.6066 11.0295L33.1453 3.57151V3.57399Z" fill="#E20177"/>
<path d="M52.3558 0.425619L52.3434 3.7403H51.5817C50.2023 3.73533 48.989 4.01569 47.9445 4.57641C46.8975 5.14209 46.1606 6.03774 45.7289 7.2733C45.585 7.88364 45.5106 8.43939 45.5081 8.94553C45.5032 9.99997 45.7934 10.9651 46.379 11.8384C46.9645 12.7118 47.7832 13.3543 48.8352 13.7637C49.7259 14.0341 50.5571 14.1656 51.3287 14.1706H52.2094L52.1945 17.5473C51.9712 17.5647 51.7579 17.5796 51.5569 17.5895C51.3535 17.5994 51.1202 17.6019 50.8548 17.6019C48.4432 17.592 46.3145 16.7707 44.481 15.1407C42.6425 13.5082 41.7245 11.5159 41.7345 9.15642V8.42451C41.7469 6.57613 42.3919 4.91879 43.6697 3.45001C44.9499 1.98123 46.5402 1.02851 48.4407 0.589368C48.9072 0.552153 49.3959 0.512456 49.9095 0.472759C50.4181 0.435544 50.8771 0.415695 51.2865 0.418176H52.3558V0.425619Z" fill="#E20177"/>
<path d="M56.1041 0.44043L59.6619 0.455316L59.5949 17.5497L56.0371 17.5348L56.1016 0.44043H56.1041ZM64.619 0.564482L68.9385 0.581849L63.4008 8.77178L69.1767 17.5844L64.7357 17.5671L60.2921 10.578C60.1507 10.315 60.0192 10.047 59.8976 9.78652C59.7785 9.52105 59.7215 9.19852 59.7215 8.81147L59.8331 8.07957L64.619 0.564482Z" fill="#E20177"/>
<path d="M76.8223 0.281778H77.4277C78.239 0.284259 78.9932 0.346285 79.6954 0.460413C80.395 0.57206 81.0475 0.775506 81.6529 1.05834L81.638 4.76999C81.0699 4.38046 80.4694 4.07529 79.8343 3.84952C79.1942 3.62374 78.569 3.50962 77.9636 3.50714C77.5393 3.50714 77.1473 3.55676 76.7925 3.65352C76.4353 3.75524 76.0854 3.94876 75.7406 4.22912C75.4528 4.61368 75.3114 5.02802 75.3114 5.4746C75.3114 5.77729 75.4031 6.07998 75.5967 6.37274C75.7877 6.66799 76.0557 6.87391 76.4005 6.99548L79.4671 7.98046C80.3404 8.43201 81.0178 9.07956 81.514 9.92064C82.0077 10.7642 82.2533 11.6623 82.2484 12.615C82.2459 13.2824 82.1392 13.9151 81.9333 14.518C81.7298 15.1135 81.3949 15.6742 80.9235 16.1977C80.3355 16.746 79.6482 17.143 78.8692 17.3911C78.0827 17.6416 77.2664 17.7657 76.4154 17.7632C75.7034 17.7632 74.959 17.6764 74.18 17.5102C73.4009 17.3439 72.6269 17.1206 71.8553 16.8328L71.8701 13.1857L74.3934 14.126C74.7358 14.2128 75.0732 14.2873 75.4081 14.3518C75.7431 14.4163 76.083 14.451 76.4278 14.451C77.0754 14.451 77.6311 14.327 78.1025 14.0764C78.5665 13.8233 78.8468 13.404 78.9287 12.8135V12.5679C78.9287 12.2032 78.7476 11.8509 78.3878 11.5159C78.0206 11.1785 77.6559 10.98 77.2962 10.9155C75.9366 10.6079 74.8375 10.1985 73.9989 9.69982C73.1603 9.19617 72.5003 8.42953 72.0141 7.38749C71.7734 6.73994 71.6543 6.0775 71.6543 5.40513C71.6642 3.92395 72.0835 2.81492 72.9147 2.07557C73.7533 1.33622 74.443 0.872266 74.9913 0.678745C75.5396 0.490186 76.1475 0.353728 76.8198 0.279297L76.8223 0.281778Z" fill="#E20177"/>
<path d="M94.9672 0.41277C97.0984 0.688166 98.8922 1.68058 100.356 3.39499C101.82 5.11187 102.544 7.05453 102.542 9.23288L102.537 9.65962C102.537 9.80352 102.537 9.93502 102.537 10.0591C102.497 10.2451 102.388 10.8158 102.207 11.7809C102.033 12.7485 101.276 13.989 99.9342 15.5124C98.5969 17.0333 97.0587 17.79 95.3219 17.7826L93.5033 17.8371L92.4415 17.7702C90.2805 17.4377 88.4916 16.4329 87.075 14.7582C85.6558 13.0835 84.9487 11.1433 84.9611 8.93516V8.3273C84.9685 6.11917 85.884 4.24846 87.6927 2.70526C89.5064 1.16453 91.5632 0.397884 93.878 0.405327L94.9721 0.410289L94.9672 0.41277ZM92.9476 4.02517C91.6525 4.22365 90.5807 4.84392 89.7446 5.87851C88.9084 6.91807 88.4891 8.06679 88.4842 9.32964C88.4842 9.94246 88.5958 10.5354 88.8241 11.1036C89.0573 11.6767 89.4195 12.2225 89.9133 12.746C90.407 13.2695 90.99 13.6715 91.6574 13.9618C92.3224 14.2496 93.0121 14.3959 93.7242 14.3959C94.5156 14.3984 95.2847 14.2247 96.034 13.87C96.7882 13.5176 97.4284 12.9966 97.9568 12.3044L98.4158 11.5427C98.5796 11.2177 98.7061 10.8456 98.7855 10.4263C98.8698 10.0094 98.9095 9.61496 98.912 9.25025C98.917 8.12882 98.5771 7.08926 97.8898 6.12662C97.2051 5.16645 96.2846 4.49657 95.1309 4.12689C94.6645 4.02517 94.2179 3.97059 93.7911 3.96811C93.3867 3.96811 93.1014 3.98796 92.9401 4.02765L92.9476 4.02517Z" fill="#E20177"/>
<path d="M111.088 0.475586H111.334C111.981 0.478067 112.562 0.69888 113.065 1.13802C113.571 1.57717 113.911 2.11308 114.092 2.74078L118.474 17.7511L114.772 17.766L113.854 14.5133L108.902 14.4885L107.93 17.7362L104.24 17.7288L108.924 2.53733C109.108 1.92948 109.426 1.39357 109.872 0.924655C110.259 0.728652 110.669 0.574828 111.09 0.475586H111.088ZM111.44 3.88206L109.798 11.3277L112.904 11.3376L111.44 3.87958V3.88206Z" fill="#E20177"/>
<path d="M123.814 0.710938L127.375 0.725824C128.63 0.914383 129.632 1.49991 130.379 2.47992C131.121 3.4649 131.496 4.5764 131.488 5.807C131.486 6.77709 131.235 7.68763 130.731 8.53367C130.233 9.37971 129.511 9.99997 128.568 10.392C127.623 10.7815 126.573 10.9725 125.417 10.9676H124.901L124.874 17.8103L121.318 17.7954L121.373 3.62368C121.373 2.81238 121.589 2.14498 122.006 1.61652C122.422 1.09054 123.025 0.790331 123.817 0.713419L123.814 0.710938ZM125.779 4.03306C125.395 4.03306 125.109 4.03058 124.928 4.03058L124.913 7.59087L126.253 7.59584C126.779 7.51892 127.193 7.32044 127.489 7.00783C127.784 6.69274 127.933 6.29577 127.935 5.80948C127.935 5.64822 127.928 5.47951 127.908 5.30831C127.886 5.13216 127.794 4.94856 127.638 4.75504C127.474 4.564 127.216 4.39529 126.861 4.25139C126.509 4.10997 126.151 4.03554 125.782 4.03306H125.779Z" fill="#E20177"/>
<path d="M133.513 0.621551V3.51445H133.004V0.621551H132.084V0.165039H134.436V0.621551H133.516H133.513Z" fill="#E20177"/>
<path d="M137.404 3.51445V1.27655L136.632 2.90659H136.255L135.464 1.27655V3.51445H134.955V0.165039H135.464L136.441 2.24912L137.401 0.165039H137.91V3.51445H137.401H137.404Z" fill="#E20177"/>
</g>
<defs>
<clipPath id="clip0_1744_13200">
<rect width="137.82" height="17.67" fill="white" transform="translate(0.0898438 0.165039)"/>
</clipPath>
</defs>
</svg>
