<svg width="122" height="40" viewBox="0 0 122 40" fill="none" xmlns="http://www.w3.org/2000/svg">
<g clip-path="url(#clip0_2246_5319)">
<path d="M77.806 2.51542C77.806 2.51542 77.3491 1.1172 77.4387 0.463781C77.4387 0.463781 74.9647 0.562052 72.5838 2.51542C70.2046 4.47223 69.9822 7.63761 70.3218 9.96682C66.434 11.0064 63.9083 15.8355 64.9289 20.8612C64.9289 20.8612 64.1652 21.7025 62.9756 21.237C61.786 20.7715 62.1429 16.489 62.0515 13.4132C61.986 10.9771 60.0981 7.26521 57.0379 7.26521C53.9777 7.26521 48.7141 8.49102 48.6986 10.6047C48.69 11.9978 51.764 11.084 53.4639 10.803C55.1621 10.5254 57.05 11.7374 57.2224 13.0408C53.9053 14.0632 48.9417 17.4199 48.6003 21.6129C46.1349 22.7301 45.8832 20.775 45.797 19.4716C45.7194 18.1665 45.9108 9.69097 45.7349 6.80144C45.5694 3.91708 44.085 2.23957 42.6316 2.33094C41.1869 2.42577 38.2163 3.63089 37.7025 5.31185C37.1974 6.99109 39.149 6.61696 39.9179 6.43077C40.6834 6.24629 41.2782 7.17384 41.2782 8.29275C41.2782 9.41167 41.292 18.5389 41.2076 19.7492C41.1196 20.9594 40.1904 21.7973 39.3438 21.7973C38.4973 21.7973 38.4077 20.0302 38.4077 18.9113C38.4077 17.7923 38.3146 12.7839 38.2784 11.3668C38.2473 9.97716 36.4422 7.78071 33.7337 7.57554C32.4269 7.479 26.7133 8.24448 25.9444 9.82545C24.6307 12.5477 28.546 11.1047 29.4856 10.9202C30.4184 10.7289 33.2579 10.7151 33.5975 12.2012C33.9406 13.696 30.6011 13.6649 27.5047 16.489C24.2738 19.4405 17.8792 22.237 14.7983 21.8904C9.97614 21.3508 6.97799 17.9803 6.88834 13.7873C6.79007 8.95479 10.0261 6.21698 11.8623 5.40667C14.5915 4.1981 18.0344 4.0119 19.4792 4.94117C20.9257 5.87389 20.755 7.36004 19.5637 7.82898C18.3741 8.29448 15.1397 7.92208 14.2018 7.82898C13.2691 7.73761 12.164 8.29448 12.4174 9.40995C12.6708 10.5306 14.1156 11.9305 17.6017 11.5564C21.0929 11.184 24.41 9.32202 24.6686 5.97044C24.9238 2.60852 19.7636 -0.00516453 14.1225 7.66304e-06C8.24863 0.00517985 2.55232 4.56533 1.10928 8.56688C-0.340658 12.5719 1.01963 16.9855 2.6368 19.8819C5.91769 25.7627 13.8139 26.2092 16.5483 26.0127C20.0343 25.7644 23.4256 23.38 25.1238 21.7008C24.9565 23.4697 26.1548 25.4679 28.5305 25.823C30.2563 26.0816 32.701 24.8662 33.3803 24.0266C33.3803 24.0266 34.7492 25.7937 36.9664 25.7937C39.1835 25.7937 40.7541 24.3093 41.5231 23.749C41.5231 23.749 42.6971 25.7937 44.7919 25.7937C46.4073 25.7937 47.7486 24.68 49.2744 23.38C50.4313 24.792 51.8864 25.6799 53.2915 25.7558C55.3 25.8592 57.2069 24.6265 57.9586 23.749C57.9586 23.749 60.1654 25.6386 61.8705 25.7299C63.5721 25.8248 65.3565 24.5834 66.291 23.749C67.3995 24.8662 70.6304 26.6333 74.7113 25.5179C78.7973 24.399 80.3593 20.9543 80.3593 18.3475C80.3593 15.7407 75.9371 9.12893 74.4872 7.16866C74.0648 5.39978 76.6146 2.69989 77.8077 2.51369M32.5424 21.9784C31.2649 23.0059 28.7857 22.5387 28.5305 21.7008C28.2736 20.8595 28.8684 19.4681 30.2304 18.2527C31.5942 17.0389 33.7561 16.4872 33.7561 16.4872C33.8389 17.4165 33.8199 20.9543 32.5424 21.9784ZM56.3052 21.9784C55.0328 23.0059 52.5967 22.5387 52.3398 21.7008C52.0847 20.8595 52.6777 19.4681 54.0398 18.2527C55.4052 17.0389 57.2965 16.4872 57.2965 16.4872C57.3844 17.4165 57.5862 20.9543 56.3034 21.9784M73.6889 22.6283C71.5614 23.1921 69.0977 20.8595 68.415 17.882C67.7305 14.9011 70.3701 12.5719 71.4787 12.4822C71.4787 12.4822 73.5165 16.1166 74.8768 17.9751C76.2422 19.8405 75.8164 22.0732 73.6889 22.6283ZM81.9972 5.49632C81.8248 6.33422 81.4041 7.73071 81.4041 7.73071C82.592 7.26349 85.316 7.07729 85.316 4.74808C85.316 2.41887 84.4557 2.15509 82.8506 2.42059C81.1455 2.69989 79.6145 4.28603 79.6145 4.28603C80.6369 4.19293 82.1679 4.65325 81.9972 5.49632ZM114.813 23.2973C111.33 24.6938 109.032 19.7595 108.863 17.8975C110.055 18.082 113.711 16.4993 115.073 15.4735C116.428 14.4511 119.835 10.5375 116.942 7.9307C114.054 5.32219 109.032 8.1169 106.225 11.4685C103.42 14.8218 104.274 19.0906 105.207 21.4232C102.569 22.6266 102.248 20.2991 102.16 17.5992C102.081 14.8994 101.664 9.33581 100.303 8.0307C98.9464 6.72903 94.9294 8.19448 93.5708 9.1272C93.657 8.47206 92.9726 7.07212 91.4433 7.26176C89.9106 7.44624 87.2763 9.21685 86.6763 10.2427C88.2107 10.3323 89.1469 10.7082 89.1469 11.734C89.1469 12.7598 89.4003 17.8803 89.2313 20.2095C89.2313 20.2095 88.04 21.5129 86.6763 22.1663C85.3194 22.8145 85.6556 15.6424 85.6556 13.5011C85.6556 11.3599 85.3988 9.6858 84.0419 9.03065C82.6816 8.38241 80.0438 9.9651 79.1094 10.6133C79.1094 10.6133 79.5352 11.2685 80.13 11.5478C80.7231 11.8254 81.3196 12.0133 81.3196 13.6891C81.3196 15.3649 81.4075 18.9026 81.3196 21.4232C81.2334 23.93 82.5954 25.6644 84.466 25.7558C86.3384 25.8489 88.2107 24.0248 89.2313 23.1887C89.2313 23.5611 90.7589 25.823 92.1209 25.7317C93.4812 25.6368 95.4414 22.9094 96.119 21.606C94.1604 21.8818 93.8277 21.2319 93.8277 20.0198C93.8277 18.8078 93.5708 17.1303 93.657 15.639C93.738 14.1494 93.7277 11.5719 95.4414 11.5443C98.474 11.4874 97.3948 15.4545 97.7379 18.9009C98.0775 22.3456 99.9481 25.2765 101.903 25.742C103.86 26.2092 105.798 24.0231 106.567 23.1869C108.691 25.0489 112.604 26.1816 114.732 25.7161C116.858 25.2506 120.092 22.3611 119.58 21.3387C119.07 20.3146 118.303 21.8991 114.813 23.2938M113.625 9.69442C115.839 10.7185 112.861 13.8856 112.096 14.2597C111.33 14.6304 108.608 15.4683 108.608 15.4683C108.525 14.5373 110.703 8.34103 113.625 9.69269M120.337 5.10841V5.08944C120.514 5.036 120.642 4.90497 120.642 4.73256C120.642 4.59291 120.578 4.47395 120.497 4.40844C120.389 4.33603 120.263 4.28948 119.987 4.28948C119.742 4.28948 119.556 4.31706 119.42 4.34465V5.84803H119.763V5.24806H119.921C120.111 5.24806 120.199 5.32219 120.228 5.48598C120.273 5.66183 120.299 5.78941 120.346 5.84803H120.713C120.678 5.79803 120.651 5.70838 120.608 5.47736C120.561 5.27564 120.48 5.15496 120.337 5.10841ZM119.933 4.99807H119.77V4.56533C119.806 4.55671 119.87 4.54636 119.958 4.54636C120.175 4.54636 120.271 4.63946 120.271 4.77739C120.271 4.93428 120.12 4.99634 119.932 4.99634M120.002 3.55158H119.994C119.149 3.55158 118.478 4.22224 118.478 5.06186C118.478 5.91872 119.151 6.57903 119.996 6.57903C120.84 6.57903 121.508 5.91699 121.506 5.06186C121.506 4.22224 120.849 3.55158 120.004 3.55158M120.004 6.26698C119.34 6.26698 118.854 5.73424 118.854 5.06186C118.854 4.39637 119.34 3.85674 119.987 3.85674H119.994C120.649 3.85674 121.128 4.39809 121.128 5.06186C121.128 5.73424 120.651 6.2756 120.004 6.26698Z" fill="#231F20"/>
<path d="M2.90118 35.2246H3.55115C3.94596 35.2246 4.22353 35.2591 4.3856 35.3281C4.58559 35.4143 4.73903 35.5332 4.84247 35.6849C4.94592 35.8367 4.99764 36.016 4.99764 36.2211C4.99764 36.4452 4.9373 36.6504 4.81489 36.8314C4.6942 37.0142 4.53042 37.1469 4.32698 37.2297C4.12181 37.3125 3.78217 37.3573 3.30633 37.3642L3.09082 38.9279H2.39258L2.89945 35.2246H2.90118ZM3.39253 36.7108C3.7701 36.7108 4.01492 36.6694 4.13043 36.5918C4.24595 36.5142 4.30284 36.4004 4.30284 36.247C4.30284 36.1608 4.28043 36.0884 4.2356 36.0297C4.19078 35.9711 4.12354 35.9298 4.03561 35.9056C3.94768 35.8815 3.77355 35.8711 3.5115 35.8711L3.39081 36.709L3.39253 36.7108Z" fill="#231F20"/>
<path d="M7.27129 38.126L7.86264 38.4328C7.72989 38.607 7.55404 38.7449 7.33508 38.8466C7.11612 38.9483 6.87303 38.9983 6.6058 38.9983C6.18858 38.9983 5.85928 38.8811 5.61791 38.6466C5.37654 38.4121 5.25586 38.1001 5.25586 37.7105C5.25586 37.2656 5.40585 36.8898 5.70756 36.5812C6.00928 36.2726 6.37305 36.1191 6.7989 36.1191C7.05578 36.1191 7.28508 36.176 7.48507 36.2881C7.68507 36.4002 7.84368 36.5639 7.95919 36.7795C8.0747 36.995 8.13332 37.2277 8.13332 37.4794C8.13332 37.5587 8.1247 37.6501 8.10746 37.757H5.92307C5.92997 37.9466 5.99203 38.0984 6.111 38.2122C6.22996 38.3242 6.39202 38.3811 6.60063 38.3811C6.85234 38.3811 7.07475 38.2966 7.26957 38.1277L7.27129 38.126ZM7.44197 37.2605C7.39197 37.0932 7.3075 36.9657 7.19026 36.8795C7.07302 36.7933 6.93165 36.7501 6.76441 36.7501C6.59718 36.7501 6.45064 36.795 6.31961 36.8829C6.18685 36.9726 6.08686 37.0984 6.0179 37.2605H7.44197Z" fill="#231F20"/>
<path d="M8.73695 36.1879H9.33519L9.28692 36.5603C9.46622 36.2655 9.68173 36.1172 9.93345 36.1172C9.99379 36.1172 10.0576 36.1327 10.1214 36.1655L9.87483 36.7758C9.82311 36.7568 9.7869 36.7482 9.76276 36.7482C9.63173 36.7482 9.5145 36.8241 9.41105 36.9758C9.30761 37.1275 9.22658 37.4344 9.16796 37.8964L9.03521 38.9257H8.35938L8.7335 36.1861L8.73695 36.1879Z" fill="#231F20"/>
<path d="M12.5538 36.1881H13.2262L12.8452 38.9276H12.1797L12.2194 38.6328C12.0728 38.769 11.9366 38.8638 11.809 38.9173C11.6815 38.9707 11.5401 38.9983 11.3815 38.9983C11.0194 38.9983 10.7298 38.8656 10.516 38.5983C10.3022 38.3311 10.1953 38.0208 10.1953 37.6673C10.1953 37.3967 10.2643 37.1398 10.4005 36.895C10.5384 36.6502 10.7212 36.4605 10.9522 36.3243C11.1832 36.1881 11.4246 36.1191 11.6763 36.1191C11.8452 36.1191 12.0021 36.1588 12.1452 36.2364C12.2883 36.314 12.4056 36.4277 12.4987 36.576L12.5521 36.1898L12.5538 36.1881ZM11.5435 38.3984C11.709 38.3984 11.8539 38.3621 11.9763 38.288C12.1004 38.2139 12.2021 38.0984 12.2866 37.9415C12.3694 37.7846 12.4125 37.6225 12.4125 37.4587C12.4125 37.2415 12.3504 37.0674 12.2245 36.9346C12.0987 36.8019 11.9332 36.7364 11.7263 36.7364C11.4866 36.7364 11.2832 36.8243 11.116 37.0001C10.9487 37.176 10.866 37.4036 10.866 37.6829C10.866 37.8984 10.9298 38.0708 11.0556 38.2018C11.1815 38.3328 11.3453 38.3984 11.5453 38.3984H11.5435Z" fill="#231F20"/>
<path d="M13.5877 36.1885H14.2359L14.6135 37.6557L15.41 36.1885H15.6755L16.0582 37.6557L16.853 36.1885H17.5668L16.0772 38.928H15.7531L15.3807 37.4798L14.5997 38.928H14.2825L13.5859 36.1885H13.5877Z" fill="#231F20"/>
<path d="M20.0812 36.1881H20.7536L20.3725 38.9276H19.7071L19.7467 38.6328C19.6002 38.769 19.464 38.8638 19.3364 38.9173C19.2088 38.9707 19.0674 38.9983 18.9088 38.9983C18.5468 38.9983 18.2571 38.8656 18.0433 38.5983C17.8295 38.3311 17.7227 38.0208 17.7227 37.6673C17.7227 37.3967 17.7916 37.1398 17.9278 36.895C18.0657 36.6502 18.2485 36.4605 18.4795 36.3243C18.7105 36.1881 18.9519 36.1191 19.2036 36.1191C19.3726 36.1191 19.5295 36.1588 19.6726 36.2364C19.8157 36.314 19.9329 36.4277 20.026 36.576L20.0795 36.1898L20.0812 36.1881ZM19.0709 38.3984C19.2364 38.3984 19.3812 38.3621 19.5036 38.288C19.6277 38.2139 19.7295 38.0984 19.8139 37.9415C19.8967 37.7846 19.9398 37.6225 19.9398 37.4587C19.9398 37.2415 19.8777 37.0674 19.7519 36.9346C19.626 36.8019 19.4605 36.7364 19.2536 36.7364C19.014 36.7364 18.8105 36.8243 18.6433 37.0001C18.4761 37.176 18.3933 37.4036 18.3933 37.6829C18.3933 37.8984 18.4571 38.0708 18.583 38.2018C18.7088 38.3328 18.8726 38.3984 19.0726 38.3984H19.0709Z" fill="#231F20"/>
<path d="M21.6071 35.1709H22.276L22.1381 36.1881H22.5639L22.4829 36.7674H22.0588L21.7657 38.9276H21.095L21.3898 36.7674H21.0605L21.1381 36.1881H21.4692L21.6088 35.1709H21.6071Z" fill="#231F20"/>
<path d="M25.0304 36.1881H25.7028L25.3218 38.9276H24.6563L24.6959 38.6328C24.5494 38.769 24.4132 38.8638 24.2856 38.9173C24.158 38.9707 24.0166 38.9983 23.858 38.9983C23.496 38.9983 23.2063 38.8656 22.9926 38.5983C22.7788 38.3311 22.6719 38.0208 22.6719 37.6673C22.6719 37.3967 22.7408 37.1398 22.877 36.895C23.015 36.6502 23.1977 36.4605 23.4287 36.3243C23.6598 36.1881 23.9011 36.1191 24.1528 36.1191C24.3218 36.1191 24.4787 36.1588 24.6218 36.2364C24.7649 36.314 24.8821 36.4277 24.9752 36.576L25.0287 36.1898L25.0304 36.1881ZM24.0201 38.3984C24.1856 38.3984 24.3304 38.3621 24.4528 38.288C24.577 38.2139 24.6787 38.0984 24.7632 37.9415C24.8459 37.7846 24.889 37.6225 24.889 37.4587C24.889 37.2415 24.827 37.0674 24.7011 36.9346C24.5752 36.8019 24.4097 36.7364 24.2028 36.7364C23.9632 36.7364 23.7598 36.8243 23.5925 37.0001C23.4253 37.176 23.3425 37.4036 23.3425 37.6829C23.3425 37.8984 23.4063 38.0708 23.5322 38.2018C23.658 38.3328 23.8218 38.3984 24.0218 38.3984H24.0201Z" fill="#231F20"/>
<path d="M26.4232 36.1879H27.0938L27.0559 36.4654C27.3128 36.2327 27.58 36.1172 27.8576 36.1172C28.0938 36.1172 28.2886 36.193 28.4403 36.343C28.5921 36.493 28.6679 36.6827 28.6679 36.912C28.6679 37.0189 28.6541 37.1792 28.6248 37.393L28.4145 38.9274H27.7438L27.949 37.4292C27.9697 37.274 27.98 37.1585 27.98 37.0827C27.98 36.9723 27.949 36.8861 27.8852 36.8275C27.8214 36.7689 27.7317 36.7378 27.6162 36.7378C27.5007 36.7378 27.3904 36.7775 27.2783 36.8551C27.1663 36.9327 27.0783 37.0413 27.018 37.1792C26.9576 37.3171 26.9025 37.5775 26.8507 37.9585L26.7214 38.9274H26.0508L26.4249 36.1879H26.4232Z" fill="#231F20"/>
<path d="M34.3475 35.9153L33.7682 36.2912C33.6009 36.0998 33.4389 35.967 33.282 35.8929C33.1251 35.8188 32.9492 35.7808 32.751 35.7808C32.3234 35.7808 31.9751 35.9532 31.7062 36.2963C31.4924 36.5705 31.3872 36.8739 31.3872 37.2084C31.3872 37.5428 31.4976 37.8135 31.7165 38.0359C31.9355 38.2583 32.2044 38.3704 32.5251 38.3704C32.763 38.3704 32.9803 38.3135 33.1751 38.198C33.3699 38.0825 33.5303 37.91 33.6544 37.679H32.4993L32.5855 37.0222H34.4578C34.4302 37.6342 34.2388 38.1204 33.882 38.4807C33.5251 38.841 33.0717 39.0203 32.5182 39.0203C31.9183 39.0203 31.4441 38.8117 31.101 38.3962C30.8235 38.0618 30.6855 37.6652 30.6855 37.2032C30.6855 36.6411 30.889 36.155 31.2941 35.7446C31.6993 35.3343 32.182 35.1309 32.7424 35.1309C32.951 35.1309 33.1527 35.1619 33.351 35.2222C33.5492 35.2826 33.7285 35.3671 33.8871 35.4774C34.0457 35.5877 34.1992 35.7326 34.3457 35.917L34.3475 35.9153Z" fill="#231F20"/>
<path d="M37.3019 36.1881H37.9743L37.5932 38.9276H36.9278L36.9674 38.6328C36.8209 38.769 36.6847 38.8638 36.5571 38.9173C36.4295 38.9707 36.2881 38.9983 36.1295 38.9983C35.7675 38.9983 35.4778 38.8656 35.264 38.5983C35.0503 38.3311 34.9434 38.0208 34.9434 37.6673C34.9434 37.3967 35.0123 37.1398 35.1485 36.895C35.2864 36.6502 35.4692 36.4605 35.7002 36.3243C35.9312 36.1881 36.1726 36.1191 36.4243 36.1191C36.5933 36.1191 36.7502 36.1588 36.8933 36.2364C37.0364 36.314 37.1536 36.4277 37.2467 36.576L37.3002 36.1898L37.3019 36.1881ZM36.2916 38.3984C36.4571 38.3984 36.6019 38.3621 36.7243 38.288C36.8485 38.2139 36.9502 38.0984 37.0346 37.9415C37.1174 37.7846 37.1605 37.6225 37.1605 37.4587C37.1605 37.2415 37.0984 37.0674 36.9726 36.9346C36.8467 36.8019 36.6812 36.7364 36.4743 36.7364C36.2347 36.7364 36.0312 36.8243 35.864 37.0001C35.6968 37.176 35.614 37.4036 35.614 37.6829C35.614 37.8984 35.6778 38.0708 35.8037 38.2018C35.9295 38.3328 36.0933 38.3984 36.2933 38.3984H36.2916Z" fill="#231F20"/>
<path d="M38.8278 35.1709H39.4967L39.3588 36.1881H39.7846L39.7036 36.7674H39.2795L38.9864 38.9276H38.3157L38.6105 36.7674H38.2812L38.3588 36.1881H38.6899L38.8295 35.1709H38.8278Z" fill="#231F20"/>
<path d="M42.2491 36.1881H42.9215L42.5405 38.9276H41.875L41.9147 38.6328C41.7681 38.769 41.6319 38.8638 41.5043 38.9173C41.3768 38.9707 41.2354 38.9983 41.0768 38.9983C40.7147 38.9983 40.4251 38.8656 40.2113 38.5983C39.9975 38.3311 39.8906 38.0208 39.8906 37.6673C39.8906 37.3967 39.9596 37.1398 40.0958 36.895C40.2337 36.6502 40.4165 36.4605 40.6475 36.3243C40.8785 36.1881 41.1199 36.1191 41.3716 36.1191C41.5406 36.1191 41.6974 36.1588 41.8405 36.2364C41.9836 36.314 42.1009 36.4277 42.194 36.576L42.2474 36.1898L42.2491 36.1881ZM41.2388 38.3984C41.4044 38.3984 41.5492 38.3621 41.6716 38.288C41.7957 38.2139 41.8974 38.0984 41.9819 37.9415C42.0647 37.7846 42.1078 37.6225 42.1078 37.4587C42.1078 37.2415 42.0457 37.0674 41.9198 36.9346C41.794 36.8019 41.6285 36.7364 41.4216 36.7364C41.1819 36.7364 40.9785 36.8243 40.8113 37.0001C40.644 37.176 40.5613 37.4036 40.5613 37.6829C40.5613 37.8984 40.6251 38.0708 40.7509 38.2018C40.8768 38.3328 41.0406 38.3984 41.2406 38.3984H41.2388Z" fill="#231F20"/>
<path d="M43.7064 35.1309H44.3771L43.8582 38.9272H43.1875L43.7064 35.1309Z" fill="#231F20"/>
<path d="M48.476 35.1309H49.1484L48.6225 38.9272H47.9571L47.9967 38.6324C47.8502 38.7686 47.714 38.8635 47.5864 38.9169C47.4588 38.9703 47.3174 38.9979 47.1588 38.9979C46.7968 38.9979 46.5071 38.8652 46.2933 38.598C46.0795 38.3307 45.9727 38.0204 45.9727 37.667C45.9727 37.3963 46.0416 37.1394 46.1778 36.8946C46.3157 36.6498 46.4985 36.4601 46.7295 36.3239C46.9605 36.1877 47.2019 36.1187 47.4536 36.1187C47.6226 36.1187 47.7795 36.1584 47.9226 36.236C48.0657 36.3136 48.1829 36.4274 48.276 36.5756L48.4725 35.1326L48.476 35.1309ZM47.3209 38.398C47.4864 38.398 47.6295 38.3618 47.7536 38.2876C47.8777 38.2135 47.9795 38.098 48.0639 37.9411C48.1467 37.7842 48.1898 37.6221 48.1898 37.4583C48.1898 37.2411 48.1277 37.067 48.0019 36.9342C47.876 36.8015 47.7105 36.736 47.5053 36.736C47.2657 36.736 47.0623 36.8239 46.895 36.9997C46.7278 37.1756 46.645 37.4032 46.645 37.6825C46.645 37.898 46.7088 38.0704 46.8347 38.2014C46.9605 38.3324 47.1243 38.398 47.3226 38.398H47.3209Z" fill="#231F20"/>
<path d="M51.7355 36.1881H52.4079L52.0268 38.9276H51.3614L51.401 38.6328C51.2545 38.769 51.1183 38.8638 50.9907 38.9173C50.8631 38.9707 50.7217 38.9983 50.5631 38.9983C50.2011 38.9983 49.9114 38.8656 49.6976 38.5983C49.4838 38.3311 49.377 38.0208 49.377 37.6673C49.377 37.3967 49.4459 37.1398 49.5821 36.895C49.72 36.6502 49.9028 36.4605 50.1338 36.3243C50.3648 36.1881 50.6062 36.1191 50.8579 36.1191C51.0269 36.1191 51.1838 36.1588 51.3269 36.2364C51.47 36.314 51.5872 36.4277 51.6803 36.576L51.7338 36.1898L51.7355 36.1881ZM50.7252 38.3984C50.8907 38.3984 51.0355 38.3621 51.1579 38.288C51.282 38.2139 51.3838 38.0984 51.4682 37.9415C51.551 37.7846 51.5941 37.6225 51.5941 37.4587C51.5941 37.2415 51.532 37.0674 51.4062 36.9346C51.2803 36.8019 51.1148 36.7364 50.9079 36.7364C50.6683 36.7364 50.4648 36.8243 50.2976 37.0001C50.1304 37.176 50.0476 37.4036 50.0476 37.6829C50.0476 37.8984 50.1114 38.0708 50.2373 38.2018C50.3631 38.3328 50.5269 38.3984 50.7269 38.3984H50.7252Z" fill="#231F20"/>
<path d="M53.1283 36.1879H53.7989L53.761 36.4654C54.0179 36.2327 54.2851 36.1172 54.5627 36.1172C54.7989 36.1172 54.9937 36.193 55.1454 36.343C55.2971 36.493 55.373 36.6827 55.373 36.912C55.373 37.0189 55.3592 37.1792 55.3299 37.393L55.1195 38.9274H54.4489L54.6541 37.4292C54.6747 37.274 54.6851 37.1585 54.6851 37.0827C54.6851 36.9723 54.6541 36.8861 54.5903 36.8275C54.5265 36.7689 54.4368 36.7378 54.3213 36.7378C54.2058 36.7378 54.0955 36.7775 53.9834 36.8551C53.8713 36.9327 53.7834 37.0413 53.7231 37.1792C53.6627 37.3171 53.6075 37.5775 53.5558 37.9585L53.4265 38.9274H52.7559L53.13 36.1879H53.1283Z" fill="#231F20"/>
<path d="M57.8665 35.2246H58.5647L58.3923 36.4711L59.5733 35.2246H60.4353L58.8216 36.9176L60.0974 38.9279H59.3199L58.2785 37.2866L58.051 38.9279H57.3613L57.8682 35.2246H57.8665Z" fill="#231F20"/>
<path d="M62.5389 38.126L63.1302 38.4328C62.9975 38.607 62.8216 38.7449 62.6027 38.8466C62.3837 38.9483 62.1406 38.9983 61.8734 38.9983C61.4562 38.9983 61.1269 38.8811 60.8855 38.6466C60.6441 38.4121 60.5234 38.1001 60.5234 37.7105C60.5234 37.2656 60.6734 36.8898 60.9751 36.5812C61.2769 36.2726 61.6406 36.1191 62.0665 36.1191C62.3234 36.1191 62.5527 36.176 62.7527 36.2881C62.9526 36.4002 63.1113 36.5639 63.2268 36.7795C63.3423 36.995 63.4009 37.2277 63.4009 37.4794C63.4009 37.5587 63.3923 37.6501 63.375 37.757H61.1906C61.1975 37.9466 61.2596 38.0984 61.3786 38.2122C61.4975 38.3242 61.6596 38.3811 61.8682 38.3811C62.1199 38.3811 62.3423 38.2966 62.5371 38.1277L62.5389 38.126ZM62.7095 37.2605C62.6596 37.0932 62.5751 36.9657 62.4578 36.8795C62.3406 36.7933 62.1992 36.7501 62.032 36.7501C61.8648 36.7501 61.7182 36.795 61.5872 36.8829C61.4544 36.9726 61.3544 37.0984 61.2855 37.2605H62.7095Z" fill="#231F20"/>
<path d="M65.6599 36.5708L65.3392 37.0846C65.2564 36.9622 65.1702 36.8726 65.0789 36.8139C64.9875 36.7553 64.903 36.7277 64.8237 36.7277C64.7634 36.7277 64.7116 36.745 64.6703 36.7777C64.6289 36.8105 64.6065 36.8484 64.6065 36.8915C64.6065 36.9346 64.6237 36.9726 64.6565 37.0122C64.6892 37.0519 64.7858 37.1312 64.9461 37.2467C65.203 37.4312 65.3737 37.5898 65.4547 37.7208C65.5357 37.8518 65.5771 37.9949 65.5771 38.1501C65.5771 38.3535 65.4944 38.5449 65.3271 38.7259C65.1599 38.907 64.9185 38.9983 64.6013 38.9983C64.4185 38.9983 64.2513 38.9621 64.1013 38.888C63.9513 38.8139 63.7841 38.6794 63.5996 38.4828L64.0151 38.0001C64.203 38.2484 64.4082 38.3725 64.6323 38.3725C64.722 38.3725 64.7927 38.3518 64.8444 38.3087C64.8961 38.2656 64.9237 38.2156 64.9237 38.157C64.9237 38.1104 64.903 38.0622 64.8633 38.0122C64.8237 37.9622 64.7134 37.8742 64.5341 37.7467C64.3254 37.5984 64.1823 37.4725 64.103 37.3674C63.9927 37.2191 63.9375 37.0639 63.9375 36.8984C63.9375 36.6691 64.0237 36.4812 64.1979 36.3364C64.372 36.1916 64.5772 36.1191 64.8134 36.1191C64.9789 36.1191 65.1375 36.1588 65.2875 36.2381C65.4375 36.3174 65.5616 36.4295 65.6599 36.5726V36.5708Z" fill="#231F20"/>
<path d="M68.1072 38.126L68.6986 38.4328C68.5658 38.607 68.39 38.7449 68.171 38.8466C67.9521 38.9483 67.709 38.9983 67.4417 38.9983C67.0245 38.9983 66.6952 38.8811 66.4538 38.6466C66.2125 38.4121 66.0918 38.1001 66.0918 37.7105C66.0918 37.2656 66.2418 36.8898 66.5435 36.5812C66.8452 36.2726 67.209 36.1191 67.6348 36.1191C67.8917 36.1191 68.121 36.176 68.321 36.2881C68.521 36.4002 68.6796 36.5639 68.7951 36.7795C68.9106 36.995 68.9693 37.2277 68.9693 37.4794C68.9693 37.5587 68.9606 37.6501 68.9434 37.757H66.759C66.7659 37.9466 66.828 38.0984 66.9469 38.2122C67.0659 38.3242 67.228 38.3811 67.4366 38.3811C67.6883 38.3811 67.9107 38.2966 68.1055 38.1277L68.1072 38.126ZM68.2779 37.2605C68.2279 37.0932 68.1434 36.9657 68.0262 36.8795C67.909 36.7933 67.7676 36.7501 67.6004 36.7501C67.4331 36.7501 67.2866 36.795 67.1555 36.8829C67.0228 36.9726 66.9228 37.0984 66.8538 37.2605H68.2779Z" fill="#231F20"/>
<path d="M69.8746 35.1309H70.5436L70.3625 36.4653C70.6194 36.2325 70.8867 36.117 71.1642 36.117C71.4022 36.117 71.5953 36.1929 71.747 36.3429C71.8987 36.4929 71.9745 36.6825 71.9745 36.9118C71.9745 37.0187 71.9608 37.179 71.9314 37.3928L71.7211 38.9272H71.0504L71.2556 37.429C71.2763 37.2739 71.2866 37.1584 71.2866 37.0825C71.2866 36.9722 71.2556 36.886 71.1918 36.8273C71.128 36.7687 71.0401 36.7377 70.9229 36.7377C70.8056 36.7377 70.697 36.7773 70.585 36.8549C70.4729 36.9325 70.385 37.0411 70.3246 37.179C70.2643 37.317 70.2091 37.5773 70.1591 37.9583L70.0281 38.9272H69.3574L69.8764 35.1309H69.8746Z" fill="#231F20"/>
<path d="M74.8351 36.1881H75.5075L75.1265 38.9276H74.461L74.5006 38.6328C74.3541 38.769 74.2179 38.8638 74.0903 38.9173C73.9627 38.9707 73.8213 38.9983 73.6627 38.9983C73.2989 38.9983 73.011 38.8656 72.7972 38.5983C72.5835 38.3311 72.4766 38.0208 72.4766 37.6673C72.4766 37.3967 72.5455 37.1398 72.6817 36.895C72.8179 36.6502 73.0024 36.4605 73.2334 36.3243C73.4645 36.1881 73.7058 36.1191 73.9593 36.1191C74.1282 36.1191 74.2851 36.1588 74.4282 36.2364C74.5713 36.314 74.6885 36.4277 74.7816 36.576L74.8334 36.1898L74.8351 36.1881ZM73.8265 38.3984C73.992 38.3984 74.1368 38.3621 74.2592 38.288C74.3817 38.2139 74.4851 38.0984 74.5696 37.9415C74.6523 37.7846 74.6954 37.6225 74.6954 37.4587C74.6954 37.2415 74.6316 37.0674 74.5075 36.9346C74.3817 36.8019 74.2161 36.7364 74.0093 36.7364C73.7696 36.7364 73.5662 36.8243 73.3989 37.0001C73.2317 37.176 73.149 37.4036 73.149 37.6829C73.149 37.8984 73.2127 38.0708 73.3386 38.2018C73.4645 38.3328 73.6282 38.3984 73.8282 38.3984H73.8265Z" fill="#231F20"/>
<path d="M76.361 35.1709H77.0299L76.892 36.1881H77.3178L77.2368 36.7674H76.8127L76.5196 38.9276H75.8489L76.1437 36.7674H75.8145L75.892 36.1881H76.2231L76.3627 35.1709H76.361Z" fill="#231F20"/>
<path d="M79.7843 36.1881H80.4567L80.0757 38.9276H79.4102L79.4498 38.6328C79.3033 38.769 79.1671 38.8638 79.0395 38.9173C78.9119 38.9707 78.7706 38.9983 78.6119 38.9983C78.2482 38.9983 77.9602 38.8656 77.7465 38.5983C77.5327 38.3311 77.4258 38.0208 77.4258 37.6673C77.4258 37.3967 77.4947 37.1398 77.6309 36.895C77.7671 36.6502 77.9516 36.4605 78.1826 36.3243C78.4137 36.1881 78.655 36.1191 78.9085 36.1191C79.0774 36.1191 79.2343 36.1588 79.3774 36.2364C79.5205 36.314 79.6378 36.4277 79.7309 36.576L79.7826 36.1898L79.7843 36.1881ZM78.7757 38.3984C78.9412 38.3984 79.0861 38.3621 79.2085 38.288C79.3309 38.2139 79.4343 38.0984 79.5188 37.9415C79.6015 37.7846 79.6447 37.6225 79.6447 37.4587C79.6447 37.2415 79.5809 37.0674 79.4567 36.9346C79.3309 36.8019 79.1654 36.7364 78.9585 36.7364C78.7188 36.7364 78.5154 36.8243 78.3482 37.0001C78.1809 37.176 78.0982 37.4036 78.0982 37.6829C78.0982 37.8984 78.162 38.0708 78.2878 38.2018C78.4137 38.3328 78.5775 38.3984 78.7774 38.3984H78.7757Z" fill="#231F20"/>
<path d="M81.1771 36.1879H81.8477L81.8098 36.4654C82.0667 36.2327 82.3339 36.1172 82.6115 36.1172C82.8477 36.1172 83.0425 36.193 83.1942 36.343C83.346 36.493 83.4218 36.6827 83.4218 36.912C83.4218 37.0189 83.408 37.1792 83.3787 37.393L83.1684 38.9274H82.4977L82.7029 37.4292C82.7236 37.274 82.7339 37.1585 82.7339 37.0827C82.7339 36.9723 82.7029 36.8861 82.6391 36.8275C82.5753 36.7689 82.4856 36.7378 82.3701 36.7378C82.2546 36.7378 82.1443 36.7775 82.0322 36.8551C81.9202 36.9327 81.8322 37.0413 81.7719 37.1792C81.7115 37.3171 81.6564 37.5775 81.6047 37.9585L81.4753 38.9274H80.8047L81.1788 36.1879H81.1771Z" fill="#231F20"/>
<path d="M85.9153 35.2246H86.6136L86.4411 36.4711L87.6221 35.2246H88.4842L86.8704 36.9176L88.1462 38.9279H87.3687L86.3274 37.2866L86.0998 38.9279H85.4102L85.917 35.2246H85.9153Z" fill="#231F20"/>
<path d="M88.9179 36.1885H89.5834L89.3921 37.5884C89.3714 37.7436 89.361 37.8591 89.361 37.9367C89.361 38.0574 89.4024 38.1591 89.4869 38.2418C89.5714 38.3246 89.68 38.366 89.8145 38.366C89.9869 38.366 90.1213 38.3125 90.2144 38.2074C90.3075 38.1022 90.3765 37.8867 90.4196 37.5626L90.6075 36.1902H91.273L91.0765 37.6626C91.0317 37.9953 90.9541 38.2522 90.8489 38.4332C90.742 38.616 90.6006 38.7556 90.423 38.8522C90.2455 38.9487 90.0386 38.9987 89.7989 38.9987C89.4627 38.9987 89.1955 38.9022 88.9955 38.7073C88.7973 38.5142 88.6973 38.2625 88.6973 37.9556C88.6973 37.7677 88.7197 37.5264 88.7628 37.2315L88.9162 36.1902L88.9179 36.1885Z" fill="#231F20"/>
<path d="M92.0678 35.1309H92.7384L92.2195 38.9272H91.5488L92.0678 35.1309Z" fill="#231F20"/>
<path d="M93.1495 36.188H93.815L93.4461 38.9276H92.7754L93.1495 36.188ZM93.6116 35.0674C93.7253 35.0674 93.8236 35.1088 93.9047 35.1898C93.9857 35.2708 94.0271 35.3691 94.0271 35.4829C94.0271 35.5967 93.9857 35.6949 93.9047 35.776C93.8236 35.857 93.7253 35.8984 93.6116 35.8984C93.4978 35.8984 93.3995 35.857 93.3185 35.776C93.2374 35.6949 93.1961 35.5967 93.1961 35.4829C93.1961 35.3691 93.2374 35.2708 93.3185 35.1898C93.3995 35.1088 93.4978 35.0674 93.6116 35.0674Z" fill="#231F20"/>
<path d="M94.611 35.1709H95.2799L95.142 36.1881H95.5678L95.4868 36.7674H95.0627L94.7696 38.9276H94.0989L94.3938 36.7674H94.0645L94.142 36.1881H94.4731L94.6127 35.1709H94.611Z" fill="#231F20"/>
<path d="M97.6673 35.2246H98.3655L98.1931 36.4711L99.3741 35.2246H100.236L98.6224 36.9176L99.8982 38.9279H99.1206L98.0793 37.2866L97.8517 38.9279H97.1621L97.669 35.2246H97.6673Z" fill="#231F20"/>
<path d="M102.34 38.126L102.931 38.4328C102.798 38.607 102.622 38.7449 102.403 38.8466C102.184 38.9483 101.941 38.9983 101.674 38.9983C101.257 38.9983 100.928 38.8811 100.686 38.6466C100.445 38.4121 100.324 38.1001 100.324 37.7105C100.324 37.2656 100.474 36.8898 100.776 36.5812C101.078 36.2726 101.441 36.1191 101.867 36.1191C102.124 36.1191 102.353 36.176 102.553 36.2881C102.753 36.4002 102.912 36.5639 103.028 36.7795C103.143 36.995 103.202 37.2277 103.202 37.4794C103.202 37.5587 103.193 37.6501 103.176 37.757H100.991C100.998 37.9466 101.06 38.0984 101.179 38.2122C101.298 38.3242 101.46 38.3811 101.669 38.3811C101.921 38.3811 102.143 38.2966 102.338 38.1277L102.34 38.126ZM102.51 37.2605C102.46 37.0932 102.376 36.9657 102.259 36.8795C102.141 36.7933 102 36.7501 101.833 36.7501C101.666 36.7501 101.519 36.795 101.388 36.8829C101.255 36.9726 101.155 37.0984 101.086 37.2605H102.51Z" fill="#231F20"/>
<path d="M104.027 35.1309H104.697L104.178 38.9272H103.508L104.027 35.1309Z" fill="#231F20"/>
<path d="M105.205 36.1885H105.871L105.679 37.5884C105.658 37.7436 105.648 37.8591 105.648 37.9367C105.648 38.0574 105.69 38.1591 105.774 38.2418C105.858 38.3246 105.967 38.366 106.102 38.366C106.274 38.366 106.408 38.3125 106.502 38.2074C106.595 38.1022 106.664 37.8867 106.707 37.5626L106.895 36.1902H107.56L107.364 37.6626C107.319 37.9953 107.241 38.2522 107.136 38.4332C107.029 38.616 106.888 38.7556 106.71 38.8522C106.533 38.9487 106.326 38.9987 106.086 38.9987C105.75 38.9987 105.483 38.9022 105.283 38.7073C105.084 38.5142 104.984 38.2625 104.984 37.9556C104.984 37.7677 105.007 37.5264 105.05 37.2315L105.203 36.1902L105.205 36.1885Z" fill="#231F20"/>
<path d="M110.304 36.1881H110.976L110.595 38.9276H109.93L109.969 38.6328C109.823 38.769 109.687 38.8638 109.559 38.9173C109.431 38.9707 109.29 38.9983 109.131 38.9983C108.768 38.9983 108.48 38.8656 108.266 38.5983C108.052 38.3311 107.945 38.0208 107.945 37.6673C107.945 37.3967 108.014 37.1398 108.15 36.895C108.287 36.6502 108.471 36.4605 108.702 36.3243C108.933 36.1881 109.175 36.1191 109.428 36.1191C109.597 36.1191 109.754 36.1588 109.897 36.2364C110.04 36.314 110.157 36.4277 110.25 36.576L110.302 36.1898L110.304 36.1881ZM109.295 38.3984C109.461 38.3984 109.606 38.3621 109.728 38.288C109.85 38.2139 109.954 38.0984 110.038 37.9415C110.121 37.7846 110.164 37.6225 110.164 37.4587C110.164 37.2415 110.1 37.0674 109.976 36.9346C109.85 36.8019 109.685 36.7364 109.478 36.7364C109.238 36.7364 109.035 36.8243 108.868 37.0001C108.7 37.176 108.618 37.4036 108.618 37.6829C108.618 37.8984 108.681 38.0708 108.807 38.2018C108.933 38.3328 109.097 38.3984 109.297 38.3984H109.295Z" fill="#231F20"/>
<path d="M111.54 36.1879H112.138L112.09 36.5603C112.269 36.2655 112.484 36.1172 112.736 36.1172C112.797 36.1172 112.859 36.1327 112.924 36.1655L112.678 36.7758C112.626 36.7568 112.59 36.7482 112.565 36.7482C112.434 36.7482 112.317 36.8241 112.214 36.9758C112.11 37.1275 112.029 37.4344 111.971 37.8964L111.838 38.9257H111.162L111.536 36.1861L111.54 36.1879Z" fill="#231F20"/>
<path d="M115.389 36.1884H116.063L115.749 38.3866C115.689 38.8176 115.628 39.1038 115.565 39.2434C115.466 39.4607 115.299 39.6417 115.066 39.7831C114.834 39.9262 114.54 39.9969 114.187 39.9969C113.894 39.9969 113.639 39.9417 113.422 39.8296C113.204 39.7176 113.042 39.5745 112.934 39.3986L113.522 39.0969C113.697 39.2796 113.927 39.371 114.209 39.371C114.373 39.371 114.516 39.3417 114.635 39.2831C114.756 39.2245 114.849 39.1452 114.915 39.0452C114.98 38.9452 115.028 38.7969 115.056 38.6004C114.808 38.8176 114.525 38.9245 114.211 38.9245C113.992 38.9245 113.789 38.871 113.603 38.7624C113.416 38.6538 113.27 38.5021 113.165 38.3055C113.058 38.109 113.006 37.8918 113.006 37.6504C113.006 37.3797 113.075 37.1263 113.215 36.8884C113.354 36.6504 113.542 36.4625 113.782 36.3229C114.021 36.1832 114.271 36.1143 114.532 36.1143C114.69 36.1143 114.834 36.1453 114.961 36.2074C115.089 36.2694 115.216 36.3729 115.34 36.5177L115.385 36.1849L115.389 36.1884ZM114.563 36.7522C114.313 36.7522 114.101 36.8384 113.928 37.009C113.756 37.1797 113.67 37.3901 113.67 37.6418C113.67 37.8452 113.734 38.0073 113.861 38.1297C113.989 38.2521 114.161 38.3142 114.375 38.3142C114.535 38.3142 114.684 38.2762 114.821 38.2021C114.958 38.128 115.066 38.0193 115.146 37.8797C115.225 37.7401 115.265 37.5883 115.265 37.428C115.265 37.2349 115.199 37.0746 115.068 36.947C114.937 36.8194 114.768 36.7556 114.563 36.7556V36.7522Z" fill="#231F20"/>
<path d="M118.761 36.1881H119.433L119.052 38.9276H118.387L118.426 38.6328C118.28 38.769 118.144 38.8638 118.016 38.9173C117.888 38.9707 117.747 38.9983 117.589 38.9983C117.225 38.9983 116.937 38.8656 116.723 38.5983C116.509 38.3311 116.402 38.0208 116.402 37.6673C116.402 37.3967 116.471 37.1398 116.608 36.895C116.744 36.6502 116.928 36.4605 117.159 36.3243C117.39 36.1881 117.632 36.1191 117.885 36.1191C118.054 36.1191 118.211 36.1588 118.354 36.2364C118.497 36.314 118.614 36.4277 118.707 36.576L118.759 36.1898L118.761 36.1881ZM117.752 38.3984C117.918 38.3984 118.063 38.3621 118.185 38.288C118.307 38.2139 118.411 38.0984 118.495 37.9415C118.578 37.7846 118.621 37.6225 118.621 37.4587C118.621 37.2415 118.557 37.0674 118.433 36.9346C118.307 36.8019 118.142 36.7364 117.935 36.7364C117.695 36.7364 117.492 36.8243 117.325 37.0001C117.157 37.176 117.075 37.4036 117.075 37.6829C117.075 37.8984 117.139 38.0708 117.264 38.2018C117.39 38.3328 117.554 38.3984 117.754 38.3984H117.752Z" fill="#231F20"/>
</g>
<defs>
<clipPath id="clip0_2246_5319">
<rect width="121.012" height="40" fill="white" transform="translate(0.494141)"/>
</clipPath>
</defs>
</svg>
