<svg width="96" height="48" viewBox="0 0 96 48" fill="none" xmlns="http://www.w3.org/2000/svg">
<g clip-path="url(#clip0_1492_28843)">
<path d="M92.0926 3.72952C90.3931 3.72209 89.0094 5.09465 89.002 6.79224C88.9946 8.49168 90.3671 9.87724 92.0666 9.88467C93.7679 9.8921 95.1516 8.51954 95.159 6.8201C95.1646 5.1188 93.7957 3.73881 92.0926 3.72952ZM92.0684 9.48535C90.59 9.47792 89.3939 8.27438 89.4013 6.7941C89.4069 5.31567 90.6141 4.12513 92.0888 4.1307C93.5691 4.13627 94.7615 5.33982 94.756 6.81824C94.7504 8.29852 93.5468 9.49092 92.0684 9.48535Z" fill="#004990"/>
<path d="M90.748 8.50671L90.7629 5.09668L92.2636 5.10225C92.5664 5.10225 92.7967 5.13383 92.9527 5.19883C93.1106 5.26198 93.235 5.36971 93.326 5.52386C93.4189 5.67988 93.4653 5.85075 93.4653 6.03834C93.4653 6.28165 93.3873 6.4841 93.2313 6.65125C93.0734 6.81284 92.8301 6.92057 92.5069 6.96328C92.6239 7.02272 92.7149 7.07844 92.7781 7.13416C92.9081 7.25488 93.0307 7.40532 93.1458 7.58734L93.729 8.51972H93.1681L92.7205 7.80465C92.5924 7.60034 92.4846 7.44433 92.4011 7.33475C92.3193 7.22517 92.2432 7.14716 92.1763 7.1063C92.1113 7.05986 92.0426 7.032 91.9739 7.01343C91.92 7.00414 91.8383 6.99857 91.7213 6.99857L91.2031 6.99486L91.1957 8.50857H90.748V8.50671ZM91.2049 6.60111L92.167 6.60854C92.3732 6.61039 92.5348 6.58811 92.6481 6.54724C92.7651 6.50453 92.8524 6.43581 92.9137 6.3448C92.9713 6.24822 93.0028 6.14606 93.0028 6.03648C93.0028 5.87118 92.9471 5.74303 92.8301 5.63716C92.7168 5.52943 92.5348 5.47557 92.2822 5.47557H91.2105L91.2068 6.60296L91.2049 6.60111Z" fill="#004990"/>
<path d="M4.12165 22.0511C5.40877 22.8219 7.21223 23.4311 9.23485 23.4311C11.0049 23.4311 12.6449 22.5953 12.6449 20.9237C12.6449 19.67 11.7107 18.8992 9.71775 17.8369C7.43511 16.6147 5.2509 14.8782 5.2509 12.0829C5.2509 7.70705 9.04355 5.03809 13.7704 5.03809C16.3744 5.03809 17.9178 5.61757 18.8502 6.10047L17.4052 9.95626C16.6957 9.5718 15.1876 8.99417 13.3841 9.02575C11.2315 9.02575 10.1041 10.0863 10.1041 11.2787C10.1041 12.5639 11.4228 13.3347 13.2541 14.3637C15.8915 15.7455 17.5334 17.5155 17.5334 20.1195C17.5334 24.943 13.5438 27.4188 8.75381 27.4188C5.76352 27.3872 3.57746 26.6145 2.58008 25.8753L4.12165 22.0511Z" fill="#004990"/>
<path d="M31.6083 26.1654C29.7789 27.0996 27.4944 27.4191 25.7578 27.4191C21.2556 27.4191 18.9414 24.8801 18.9414 20.7625C18.9414 15.9724 22.4146 10.9893 28.1073 10.9893C31.2907 10.9893 33.5715 12.789 33.5715 15.7143C33.5715 19.7019 29.6823 21.1469 23.3823 20.9872C23.3823 21.4367 23.542 22.1424 23.8633 22.5956C24.4744 23.3999 25.5349 23.8159 26.887 23.8159C28.5902 23.8159 30.037 23.4314 31.2926 22.8222L31.612 26.1654H31.6083ZM29.231 15.6846C29.231 14.9138 28.5865 14.3659 27.5259 14.3659C25.3714 14.3659 24.1493 16.1675 23.828 17.6125C27.4256 17.6459 29.231 17.163 29.231 15.7161V15.6846Z" fill="#004990"/>
<path d="M33.8789 27.0647L38.2529 4.23828H42.8832L38.5111 27.0647H33.8789Z" fill="#004990"/>
<path d="M55.1396 26.1654C53.3064 27.0996 51.0219 27.4191 49.289 27.4191C44.7869 27.4191 42.4727 24.8801 42.4727 20.7625C42.4727 15.9724 45.944 10.9893 51.6348 10.9893C54.8183 10.9893 57.1009 12.789 57.1009 15.7143C57.1009 19.7019 53.208 21.1469 46.9079 20.9872C46.9079 21.4367 47.0677 22.1424 47.389 22.5956C48.0019 23.3999 49.0606 23.8159 50.4127 23.8159C52.1159 23.8159 53.5608 23.4314 54.8183 22.8222L55.1396 26.1654ZM52.7585 15.6846C52.7585 14.9138 52.1159 14.3659 51.0553 14.3659C48.9008 14.3659 47.6787 16.1675 47.3593 17.6125C50.9606 17.6459 52.7603 17.163 52.7603 15.7161V15.6846H52.7585Z" fill="#004990"/>
<path d="M69.7139 7.77106C69.4316 7.70791 69.127 7.67634 68.7852 7.67634C67.2752 7.67634 66.3428 8.99689 66.0531 10.57L65.9249 11.3408H69.0118L68.3357 14.8772H65.2823L62.9681 27.063H58.3359L60.6539 14.8772H58.6257L59.2702 11.3408H61.3281L61.4562 10.5366C61.8128 8.64028 62.5521 6.68081 64.1252 5.36212C65.4123 4.29973 67.0839 3.88184 68.6273 3.88184C69.3888 3.88184 70.0203 3.95799 70.5088 4.08243L69.7139 7.77106Z" fill="#004990"/>
<path d="M68.6758 27.064L71.6661 11.3418H76.2648L73.3061 27.064H68.6758Z" fill="#004990"/>
<path d="M86.0713 7.09854L85.2633 11.3425H88.6418L87.9342 14.8788H84.591L83.5304 20.1833C83.4023 20.826 83.2723 21.6302 83.2723 22.1762C83.2723 22.9489 83.5936 23.4931 84.6226 23.4931C85.0107 23.4931 85.4918 23.4931 85.8762 23.4299L85.3618 27.0628C84.7507 27.2876 83.5917 27.4176 82.6297 27.4176C79.8307 27.4176 78.5157 26.0005 78.5157 24.0094C78.5157 23.1755 78.6123 22.3044 78.8686 21.1176L80.0573 14.877H78.0625L78.707 11.3407H80.7315L81.3128 8.3838L86.0713 7.09668V7.09854Z" fill="#004990"/>
<path opacity="0.6" d="M84.1329 0.961721C75.0655 -0.0263718 73.5239 5.67188 73.2676 7.76693C74.72 6.32008 77.5914 3.84799 81.3692 2.50701C81.3692 2.50701 76.9228 4.63364 73.7951 8.66773C83.0742 10.9987 84.1329 0.959864 84.1329 0.959864V0.961721Z" fill="#231F20"/>
<path d="M81.4646 0.0478516C72.3991 1.05637 72.1372 6.9515 72.3396 9.05398C73.441 7.32854 75.7107 4.28811 79.1021 2.15962C79.1021 2.15962 75.2259 5.20191 73.051 9.82106C82.6162 10.0755 81.4628 0.0497089 81.4628 0.0497089L81.4646 0.0478516Z" fill="#C1D82F"/>
<path opacity="0.6" d="M44.8899 43.7653C38.627 41.8226 14.1717 31.8191 0.5 45.8139C0.5 45.8139 11.0106 25.8088 45.2558 34.306L48.7866 35.3981C55.8165 37.7736 78.4442 40.8716 95.5 30.3369C95.5 30.3369 88.5165 56.3356 48.9946 45.1602L44.8899 43.7635V43.7653Z" fill="#231F20"/>
<path d="M45.0848 41.1689C38.7328 39.4862 13.8113 30.4986 0.837891 45.0414C0.837891 45.0414 10.3548 24.6239 44.9882 31.7078L48.5673 32.6587C55.7068 34.7426 78.4627 36.9101 94.9835 25.6826C94.9835 25.6826 89.2853 51.9414 49.2545 42.3966L45.0848 41.1689Z" fill="#FBB034"/>
<path d="M59.5866 36.0318C60.0472 35.9463 60.7697 35.9296 61.4587 35.9779C62.0401 36.0206 62.7421 36.1506 63.2473 36.5239C63.7265 36.8657 64.0051 37.3894 63.955 38.0785C63.8918 38.9533 63.4609 39.5644 62.8703 39.9358C62.2908 40.3092 61.4996 40.4485 60.6619 40.3872C60.4353 40.3723 60.2422 40.3277 60.1233 40.3092L59.5271 42.5491L57.8945 42.4284L59.5847 36.0299L59.5866 36.0318ZM60.4799 38.9719C60.5969 38.9997 60.7325 39.0295 60.9795 39.0462C61.7058 39.1 62.2239 38.6524 62.263 38.1119C62.3038 37.5418 61.9026 37.3449 61.442 37.3114C61.2061 37.2947 61.0278 37.3022 60.9275 37.3133L60.4799 38.9719Z" fill="white"/>
<path d="M64.0547 42.792L65.2917 35.775L66.967 35.749L65.73 42.7678L64.0547 42.792Z" fill="white"/>
<path d="M72.1928 37.3408L71.9625 40.5837C71.9105 41.2449 71.8975 41.8021 71.8715 42.2627L70.4023 42.4317L70.3949 41.6888H70.3745C69.9287 42.3779 69.3864 42.6602 68.8273 42.7233C67.9953 42.8199 67.5551 42.3649 67.4566 41.5328C67.4251 41.2579 67.4195 40.9514 67.4492 40.6004L67.6387 37.8683L69.3121 37.6751L69.1282 40.268C69.1115 40.4685 69.1097 40.7174 69.1301 40.8827C69.1561 41.1075 69.2768 41.3025 69.5406 41.2709C69.9715 41.2208 70.2928 40.6487 70.3633 39.7163L70.5175 37.5358L72.1909 37.3408H72.1928Z" fill="white"/>
<path d="M73.2892 40.528C73.6087 40.5874 74.2086 40.6562 74.6915 40.5187C75.0165 40.4351 75.1168 40.2754 75.076 40.1231C75.0314 39.9522 74.8531 39.8557 74.3962 39.7814C73.7925 39.6644 73.1778 39.4062 73.0162 38.7859C72.745 37.7458 73.4935 36.858 74.7899 36.5199C75.3917 36.3639 75.869 36.3602 76.1513 36.4308L76.0715 37.6547C75.8393 37.6232 75.466 37.599 75.0277 37.7123C74.7212 37.7922 74.5448 37.9389 74.5949 38.1302C74.6302 38.2658 74.8401 38.3624 75.2431 38.4311C75.8096 38.537 76.5228 38.7283 76.7085 39.4341C76.9983 40.5503 76.1903 41.4028 74.8438 41.7427C74.2086 41.8876 73.5585 41.8931 73.1963 41.7538L73.2855 40.528H73.2892Z" fill="white"/>
</g>
<defs>
<clipPath id="clip0_1492_28843">
<rect width="95" height="47.9039" fill="white" transform="translate(0.5 0.0478516)"/>
</clipPath>
</defs>
</svg>
