<svg width="130" height="24" viewBox="0 0 130 24" fill="none" xmlns="http://www.w3.org/2000/svg">
<g clip-path="url(#clip0_1760_8357)">
<path d="M21.8164 14.924V1.79199H24.9152V15.7685C24.9152 16.6336 25.0456 17.3591 25.3065 17.9473C25.5697 18.5332 25.9016 19.0092 26.3089 19.3777C26.7117 19.7484 27.1695 20.0139 27.673 20.1764C28.1765 20.3389 28.6731 20.4304 29.1583 20.4465V22.0302C26.8353 21.9775 25.0296 21.3184 23.7457 20.0597C22.4595 18.7964 21.8164 17.0868 21.8164 14.924Z" fill="#850C70"/>
<path d="M22.6955 14.924V1.79191L21.8167 2.67074H24.9154L24.0366 1.79191V15.7685C24.0366 16.7549 24.1945 17.6085 24.5058 18.3042C24.817 19.0023 25.2267 19.5836 25.721 20.0299C26.2085 20.4784 26.7784 20.8103 27.4032 21.014C27.989 21.2016 28.5681 21.3069 29.1265 21.3275L28.2797 20.4487V22.0324L29.1791 21.1536C27.0965 21.1055 25.4762 20.5265 24.3616 19.4325C23.2425 18.3317 22.6978 16.8601 22.6978 14.9263L22.6955 14.924ZM23.1303 20.6844C24.5722 22.1011 26.593 22.8471 29.1379 22.9066L30.0374 22.9272V19.5973L29.1883 19.5676C28.7901 19.5538 28.3712 19.476 27.941 19.3387C27.5588 19.2151 27.2086 19.0114 26.902 18.7299C26.5838 18.4439 26.3207 18.0594 26.1078 17.5879C25.8973 17.1187 25.792 16.5077 25.792 15.7685V0.913086H20.9355V14.924C20.9355 17.3201 21.6725 19.2586 23.128 20.6844H23.1303Z" fill="#850C70"/>
<path d="M61.695 12.5877C61.5508 11.9858 61.3334 11.5029 61.0473 11.1413C60.7589 10.7843 60.3974 10.5257 59.9648 10.3724C59.5345 10.219 59.0379 10.1527 58.4795 10.1687C57.9211 10.1527 57.4084 10.2145 56.937 10.3609C56.4678 10.5028 56.0696 10.7591 55.7354 11.1162C55.4036 11.4801 55.145 11.9675 54.9665 12.5763C54.7857 13.1896 54.6964 13.9472 54.6964 14.8489C54.6964 14.9221 54.701 15.0297 54.7147 15.1739C54.7239 15.3181 54.7307 15.6224 54.7307 16.0916V22.0672H51.6343V14.9015C51.6343 14.0158 51.5564 13.2789 51.4008 12.6839C51.2452 12.0865 51.0255 11.6082 50.7371 11.2489C50.4488 10.8896 50.0894 10.631 49.6638 10.4776C49.2404 10.3243 48.746 10.2556 48.1853 10.274C47.6223 10.2534 47.1074 10.3197 46.6382 10.4639C46.1668 10.6081 45.7663 10.8621 45.4275 11.2214C45.0934 11.5808 44.8371 12.0682 44.6563 12.6816C44.4755 13.2926 44.3839 14.0502 44.3839 14.9519V22.0649H41.2852V15.7964C41.2852 13.5993 41.8665 11.8668 43.0291 10.5944C44.1917 9.32418 45.8601 8.69024 48.0411 8.69024C49.2678 8.69024 50.3023 8.85502 51.1491 9.19144C51.9959 9.52329 52.6824 10.0062 53.2042 10.6356C53.781 9.96728 54.4973 9.45921 55.351 9.10905C56.2092 8.75661 57.2047 8.58496 58.3399 8.58496C59.546 8.58496 60.5736 8.74974 61.4204 9.08388C62.2694 9.41344 62.956 9.88947 63.487 10.5005C64.0202 11.1116 64.407 11.8554 64.6473 12.7296C64.8922 13.6039 65.0158 14.588 65.0158 15.6842V22.0626H61.917V14.8443C61.917 13.9426 61.846 13.1874 61.7019 12.5855L61.695 12.5877Z" fill="#850C70"/>
<path d="M62.5505 12.3817C62.3766 11.6585 62.102 11.0566 61.7358 10.5943C61.3376 10.0999 60.8432 9.7475 60.2596 9.54152C59.7264 9.35157 59.1199 9.26918 58.4516 9.28749C57.8474 9.26689 57.2341 9.3447 56.6757 9.51863C56.0715 9.69943 55.5382 10.0359 55.0919 10.5142C54.6594 10.9833 54.3367 11.5921 54.1216 12.3268C53.9179 13.0225 53.8172 13.8487 53.8172 14.8465C53.8172 14.9541 53.8218 15.0868 53.8332 15.2402C53.8378 15.2882 53.8515 15.4873 53.8515 16.0892V22.0648L54.7303 21.186H51.6338L52.5104 22.0648V14.8992C52.5104 13.9288 52.4234 13.1301 52.2495 12.4595C52.0664 11.7432 51.7849 11.1504 51.421 10.6973C51.0228 10.2075 50.533 9.85506 49.9586 9.64909C49.4322 9.45684 48.8234 9.36988 48.1506 9.39505C47.5601 9.37216 46.9422 9.44998 46.3769 9.62391C45.7658 9.80929 45.2303 10.1457 44.784 10.6195C44.3561 11.0795 44.0288 11.6882 43.8091 12.4343C43.6054 13.1209 43.5001 13.97 43.5001 14.9518V22.0648L44.3789 21.186H41.2802L42.159 22.0648V15.7963C42.159 13.8098 42.6533 12.3016 43.6718 11.187C44.6673 10.0977 46.0977 9.56898 48.0361 9.56898C49.1461 9.56898 50.0845 9.71546 50.8191 10.0084C51.5286 10.2876 52.0984 10.6858 52.5195 11.1962L53.1832 11.9995L53.863 11.2122C54.3527 10.6469 54.9455 10.2258 55.6778 9.92372C56.4216 9.61933 57.3142 9.466 58.3326 9.466C59.4266 9.466 60.3535 9.61247 61.0904 9.90312C61.7999 10.18 62.3766 10.576 62.816 11.0795C63.26 11.5898 63.5873 12.2238 63.791 12.9676C64.0107 13.764 64.1251 14.6772 64.1251 15.691V22.0694L65.0062 21.1906H61.9074L62.784 22.0694V14.8511C62.784 13.8601 62.7062 13.0545 62.5459 12.3863L62.5505 12.3817ZM61.0309 14.8465V22.9436H65.8873V15.6864C65.8873 14.5147 65.7523 13.439 65.4914 12.4938C65.2168 11.5006 64.7659 10.6332 64.148 9.92372C63.5209 9.20281 62.7084 8.64439 61.7358 8.26676C60.7997 7.89601 59.6554 7.70605 58.3372 7.70605C57.0189 7.70605 55.9685 7.90516 55.0141 8.29652C54.0346 8.69931 53.2015 9.29206 52.5378 10.061L53.879 10.0771C53.2656 9.33326 52.4555 8.75882 51.4691 8.37204C50.5147 7.99442 49.3956 7.80904 48.0407 7.80904C45.6148 7.80904 43.7107 8.54598 42.381 9.99924C41.0719 11.4319 40.4082 13.3818 40.4082 15.794V22.9413H45.2646V14.9518C45.2646 14.1393 45.3447 13.4596 45.5004 12.9332C45.6423 12.4481 45.8345 12.075 46.0725 11.821C46.306 11.5715 46.576 11.4022 46.8964 11.3038C47.2763 11.187 47.6997 11.1367 48.1552 11.1527C48.6609 11.1367 49.0477 11.1893 49.3658 11.3038C49.6405 11.4022 49.8647 11.5647 50.0547 11.8004C50.263 12.0567 50.43 12.4297 50.5536 12.9035C50.6886 13.4207 50.7573 14.0936 50.7573 14.8992V22.9459H55.6137V16.0915C55.6137 15.6132 55.6069 15.2814 55.5909 15.1028C55.5794 14.9564 55.5794 14.8763 55.5794 14.8488C55.5794 14.0318 55.6572 13.3521 55.8128 12.8257C55.9525 12.3496 56.147 11.9743 56.3873 11.7088C56.6184 11.464 56.8816 11.2946 57.1975 11.2008C57.5751 11.084 57.9962 11.0314 58.4585 11.0474C58.9574 11.0337 59.351 11.084 59.676 11.2008C59.9529 11.2992 60.1795 11.4617 60.3672 11.6951C60.5686 11.9491 60.7334 12.3222 60.8455 12.7959C60.9714 13.32 61.0355 14.0112 61.0355 14.8511L61.0309 14.8465Z" fill="#850C70"/>
<path d="M71.7146 18.0923C71.8588 18.7011 72.074 19.1817 72.3669 19.5433C72.6553 19.9049 73.0191 20.1612 73.4494 20.3146C73.8865 20.4679 74.3832 20.5343 74.9484 20.516C75.5069 20.5343 76.0218 20.4725 76.4933 20.326C76.9624 20.1841 77.3652 19.9301 77.7016 19.5708C78.0381 19.2092 78.2944 18.7194 78.4775 18.1061C78.6583 17.4927 78.7475 16.7375 78.7475 15.8312V8.54883H81.8463V14.9844C81.8463 17.1838 81.2627 18.9208 80.1001 20.1933C78.9352 21.4658 77.2622 22.0997 75.0812 22.0997C73.8751 22.0997 72.8452 21.9349 71.9961 21.6008C71.1493 21.2689 70.4605 20.7929 69.9295 20.1796C69.394 19.5662 69.0095 18.8224 68.7646 17.9482C68.5197 17.0739 68.3984 16.0875 68.3984 14.9867V8.55112H71.4972V15.8335C71.4972 16.7375 71.5682 17.4904 71.7123 18.0923H71.7146Z" fill="#850C70"/>
<path d="M70.8586 18.2956C71.0348 19.0371 71.3049 19.6253 71.6802 20.0922C72.0693 20.5774 72.5659 20.9298 73.1564 21.1426C73.6965 21.3326 74.3053 21.4173 74.9781 21.3944C75.58 21.4173 76.1934 21.3395 76.7541 21.1655C77.3651 20.9802 77.903 20.646 78.3447 20.17C78.7726 19.7123 79.0976 19.1012 79.3196 18.3551C79.5279 17.6571 79.6286 16.8309 79.6286 15.8331V8.5507L78.7475 9.42953H81.8462L80.9697 8.5507V14.9863C80.9697 16.9499 80.4593 18.5016 79.4546 19.6001C78.4568 20.6895 77.0264 21.2205 75.0834 21.2205C73.9872 21.2205 73.058 21.074 72.3233 20.7833C71.6116 20.5064 71.0326 20.1105 70.5977 19.607C70.1491 19.0898 69.8287 18.4718 69.6159 17.712C69.3962 16.9202 69.2818 16.0024 69.2818 14.9886V8.55299L68.4029 9.43182H71.5017L70.6206 8.55299V15.8354C70.6206 16.8011 70.7007 17.6296 70.8609 18.2979L70.8586 18.2956ZM72.376 15.8331V7.67188H67.5195V14.9863C67.5195 16.1603 67.6546 17.2383 67.92 18.1835C68.1992 19.1882 68.6524 20.0533 69.268 20.7582C69.8905 21.4768 70.703 22.0352 71.6779 22.4174C72.6163 22.7882 73.7629 22.9781 75.0811 22.9781C77.5116 22.9781 79.418 22.2389 80.75 20.7879C82.0591 19.3529 82.7274 17.4008 82.7274 14.9863V7.67188H77.8709V15.8331C77.8709 16.6501 77.7931 17.3298 77.6352 17.8562C77.4933 18.3391 77.2988 18.7144 77.0608 18.9708C76.8273 19.2202 76.5573 19.3873 76.2369 19.4857C75.8615 19.6024 75.4404 19.655 74.9781 19.6367C74.4678 19.6505 74.0741 19.6001 73.7423 19.4857C73.4653 19.3873 73.2365 19.2248 73.0511 18.9936C72.8451 18.735 72.6826 18.3643 72.5705 17.8905C72.4423 17.355 72.376 16.6638 72.376 15.8354V15.8331Z" fill="#850C70"/>
<path d="M95.3442 12.6955C95.2001 12.089 94.9826 11.6084 94.692 11.2491C94.399 10.8898 94.042 10.6312 93.6049 10.4778C93.1701 10.3245 92.6734 10.2558 92.1104 10.2741C91.5497 10.2536 91.0348 10.3199 90.5633 10.4641C90.0919 10.6083 89.6868 10.8623 89.3549 11.2216C89.0208 11.5809 88.7622 12.0684 88.5814 12.6818C88.4006 13.2928 88.309 14.0504 88.309 14.9521V22.0651H85.2148V15.7966C85.2148 13.5995 85.7939 11.867 86.9542 10.5946C88.1191 9.32438 89.7944 8.69043 91.9754 8.69043C93.1838 8.69043 94.2114 8.85521 95.0604 9.19164C95.9095 9.52349 96.5961 9.99494 97.1271 10.6083C97.6626 11.2216 98.0471 11.9654 98.292 12.8397C98.5346 13.7116 98.6559 14.698 98.6559 15.7989V22.0674H95.5594V14.9544C95.5594 14.0526 95.4861 13.2997 95.3419 12.6955H95.3442Z" fill="#850C70"/>
<path d="M96.2001 12.4894C96.0239 11.7571 95.747 11.1529 95.3762 10.6952C94.9757 10.2031 94.4791 9.85068 93.8932 9.64928C93.3645 9.45932 92.7512 9.37236 92.0852 9.39753C91.4947 9.37465 90.8768 9.45246 90.3092 9.62639C89.6936 9.81406 89.1558 10.1505 88.7141 10.6265C88.2861 11.0888 87.9588 11.6976 87.7437 12.4368C87.5377 13.1234 87.4347 13.9725 87.4347 14.9566V22.0696L88.3113 21.1907H85.2171L86.0936 22.0696V15.8011C86.0936 13.81 86.5879 12.3041 87.6064 11.1918C88.6042 10.1024 90.0346 9.57147 91.9776 9.57147C93.0739 9.57147 94.003 9.71794 94.7377 10.0109C95.4586 10.2947 96.0239 10.6769 96.4679 11.1872C96.9142 11.7022 97.2346 12.3224 97.4474 13.0799C97.6671 13.8718 97.7815 14.7872 97.7815 15.8011V22.0696L98.6581 21.1907H95.5616L96.4404 22.0696V14.9566C96.4404 13.9885 96.358 13.16 96.2001 12.494V12.4894ZM94.6827 14.952V22.9438H99.5392V15.7965C99.5392 14.6224 99.4042 13.5468 99.1387 12.6016C98.8595 11.6015 98.4063 10.7364 97.793 10.0315C97.1682 9.31285 96.3557 8.75443 95.3831 8.37223C94.4424 8.00148 93.2959 7.81152 91.9776 7.81152C89.5471 7.81152 87.6407 8.54846 86.3087 10.0017C84.9996 11.4321 84.3359 13.382 84.3359 15.7988V22.9461H89.1901V14.952C89.1901 14.1372 89.2679 13.4575 89.4258 12.9334C89.5677 12.4528 89.7599 12.0798 90.0003 11.8189C90.2291 11.5717 90.4992 11.4024 90.8196 11.3039C91.2018 11.1872 91.6275 11.1369 92.0829 11.1529C92.5887 11.1369 92.98 11.1895 93.3096 11.3062C93.5911 11.4046 93.8199 11.5671 94.0122 11.8029C94.2159 12.0546 94.3761 12.4254 94.4928 12.8991C94.621 13.4324 94.685 14.1235 94.685 14.9543L94.6827 14.952Z" fill="#850C70"/>
<path d="M112.089 9.18672C112.92 9.56434 113.604 10.0655 114.146 10.6858C114.686 11.3083 115.091 12.0223 115.364 12.8348C115.634 13.6472 115.785 14.4917 115.821 15.3751C115.785 16.2929 115.636 17.1625 115.373 17.9818C115.112 18.8012 114.714 19.5129 114.169 20.1148C113.629 20.719 112.94 21.1973 112.102 21.5612C111.263 21.9228 110.249 22.0991 109.056 22.0991C107.864 22.0991 106.754 21.9206 105.88 21.5612C105.003 21.1996 104.289 20.7122 103.728 20.0897C103.168 19.4649 102.753 18.7508 102.483 17.9407C102.211 17.1305 102.062 16.2745 102.023 15.3751C102.042 14.4917 102.188 13.6472 102.458 12.8348C102.728 12.0223 103.145 11.3083 103.703 10.6858C104.262 10.0655 104.983 9.56434 105.866 9.18672C106.752 8.8091 107.816 8.61914 109.059 8.61914C110.301 8.61914 111.26 8.80681 112.089 9.18672ZM105.395 18.0917C105.573 18.7005 105.832 19.1834 106.166 19.5427C106.502 19.9043 106.905 20.1606 107.372 20.3139C107.846 20.4673 108.363 20.5337 108.921 20.5153C109.482 20.5337 109.997 20.4719 110.471 20.3254C110.942 20.1835 111.34 19.9295 111.677 19.5701C112.013 19.2085 112.27 18.7211 112.453 18.1077C112.633 17.4944 112.723 16.7368 112.723 15.8351V14.8854C112.723 13.9836 112.633 13.2261 112.453 12.6128C112.272 11.9994 112.013 11.5119 111.677 11.1503C111.34 10.791 110.942 10.537 110.471 10.3928C109.997 10.2486 109.482 10.1846 108.921 10.2029C108.363 10.1846 107.846 10.2509 107.372 10.4043C106.903 10.5576 106.502 10.8162 106.166 11.1755C105.829 11.5348 105.573 12.02 105.395 12.6265C105.214 13.2307 105.122 13.9814 105.122 14.8854V15.8351C105.122 16.7368 105.214 17.4898 105.395 18.0917Z" fill="#850C70"/>
<path d="M111.727 9.98765C112.437 10.3103 113.029 10.7406 113.485 11.2647C113.945 11.7957 114.299 12.4204 114.531 13.1139C114.773 13.8417 114.913 14.6129 114.945 15.4117C114.913 16.1738 114.775 16.9725 114.537 17.714C114.313 18.412 113.972 19.0208 113.517 19.5266C113.059 20.0369 112.482 20.4397 111.755 20.7556C111.036 21.0645 110.127 21.2202 109.056 21.2202C107.93 21.2202 106.971 21.06 106.212 20.7487C105.449 20.4329 104.85 20.0232 104.381 19.5014C103.898 18.9636 103.55 18.3617 103.316 17.6637C103.074 16.9427 102.934 16.1623 102.9 15.3384C102.918 14.6084 103.046 13.8417 103.291 13.1116C103.525 12.4136 103.873 11.8117 104.355 11.2739C104.827 10.752 105.452 10.3218 106.212 9.99681C106.978 9.66725 107.937 9.50247 109.059 9.50247C110.12 9.50247 111.018 9.66496 111.727 9.98994V9.98765ZM109.059 7.74252C107.697 7.74252 106.507 7.95765 105.52 8.37876C104.525 8.80444 103.694 9.38117 103.051 10.0975C102.408 10.8116 101.93 11.6377 101.623 12.5578C101.323 13.4549 101.165 14.3955 101.145 15.3567C101.186 16.4003 101.355 17.3455 101.65 18.2198C101.957 19.1375 102.438 19.9637 103.076 20.6778C103.715 21.3895 104.548 21.9594 105.546 22.3736C106.518 22.7741 107.701 22.9801 109.059 22.9801C110.416 22.9801 111.507 22.7741 112.453 22.369C113.407 21.9571 114.206 21.3941 114.826 20.7006C115.448 20.0095 115.918 19.1833 116.213 18.2473C116.499 17.3593 116.661 16.4026 116.7 15.4094C116.661 14.3749 116.492 13.4389 116.199 12.5555C115.892 11.64 115.428 10.8184 114.81 10.1089C114.185 9.39261 113.393 8.81359 112.455 8.38562C111.519 7.95765 110.377 7.74023 109.059 7.74023V7.74252Z" fill="#850C70"/>
<path d="M104.553 18.3414C104.768 19.076 105.097 19.6825 105.525 20.1425C105.96 20.6117 106.491 20.9504 107.1 21.1518C107.672 21.3372 108.292 21.4196 108.954 21.3967C109.551 21.4196 110.169 21.3418 110.732 21.1701C111.345 20.9825 111.883 20.6483 112.323 20.1723C112.751 19.7168 113.078 19.1058 113.298 18.3597C113.504 17.6617 113.604 16.8378 113.604 15.8377V14.8879C113.604 13.89 113.504 13.0661 113.298 12.3658C113.078 11.6197 112.748 11.011 112.323 10.5532C111.881 10.0795 111.348 9.74308 110.732 9.55541C110.169 9.38148 109.553 9.30595 108.899 9.32655C108.29 9.30595 107.668 9.38834 107.105 9.57372C106.496 9.77054 105.967 10.1115 105.528 10.5807C105.097 11.043 104.77 11.6472 104.555 12.3796C104.349 13.0707 104.246 13.8923 104.246 14.8879V15.8377C104.246 16.8195 104.351 17.6663 104.555 18.3437L104.553 18.3414ZM106.001 15.8354V14.8856C106.001 14.0754 106.079 13.4003 106.237 12.8785C106.377 12.4047 106.571 12.034 106.812 11.7754C107.047 11.5236 107.322 11.3474 107.649 11.2398C108.018 11.1208 108.437 11.0659 108.897 11.0796C109.414 11.0659 109.837 11.114 110.215 11.2307C110.533 11.3291 110.803 11.4984 111.036 11.7479C111.274 12.0042 111.467 12.3796 111.611 12.8602C111.769 13.3865 111.847 14.0686 111.847 14.8833V15.8331C111.847 16.6501 111.769 17.3298 111.611 17.8562C111.469 18.3391 111.274 18.7144 111.036 18.9685C110.803 19.2179 110.535 19.3873 110.215 19.4834C109.837 19.6001 109.414 19.6528 108.951 19.6345C108.437 19.6505 108.018 19.5978 107.645 19.4743C107.32 19.3667 107.045 19.1905 106.809 18.9387C106.569 18.6801 106.375 18.3094 106.235 17.8402C106.079 17.3184 105.999 16.6432 105.999 15.8331L106.001 15.8354Z" fill="#850C70"/>
<path d="M33.8184 8.69043V22.0307H36.9148V8.90098C36.9148 8.82546 36.9011 8.76138 36.8988 8.69043H33.8184Z" fill="#850C70"/>
<path d="M32.9395 8.69001V22.9092H37.7936V8.90057C37.7936 8.8136 37.7844 8.74036 37.7799 8.69459C37.7776 8.66484 37.7776 8.66942 37.7776 8.67628L37.7638 7.81348H32.9395V8.6923V8.69001ZM36.0222 8.70375C36.0222 8.77698 36.0291 8.83649 36.0337 8.87997C36.0359 8.90972 36.0359 8.90514 36.0359 8.89828V22.028L36.9148 21.1492H33.8183L34.6971 22.028V8.69001L33.8183 9.56884H36.8988L36.0199 8.70375H36.0222Z" fill="#850C70"/>
<path d="M128.742 16.488C128.49 16.0486 128.16 15.671 127.755 15.3575C127.355 15.0439 126.897 14.7761 126.394 14.5496C125.888 14.3253 125.389 14.117 124.883 13.9179C124.485 13.7554 124.105 13.5998 123.734 13.4465C123.366 13.2954 123.041 13.1192 122.75 12.9201C122.464 12.7255 122.233 12.5081 122.061 12.2747C121.892 12.0413 121.805 11.7643 121.805 11.4416C121.805 11.1189 121.887 10.8718 122.048 10.6452C122.208 10.4209 122.416 10.2333 122.668 10.0776C122.917 9.92658 123.21 9.80986 123.544 9.72747C123.876 9.64737 124.215 9.64279 124.556 9.60617C126.597 9.38875 128.762 11.0915 128.762 11.0915C128.762 10.9793 128.76 9.68856 128.703 9.41622C128.344 9.19651 128.012 9.01342 127.707 8.86008C127.401 8.70675 127.08 8.58774 126.737 8.49619C126.394 8.40236 126.027 8.34057 125.634 8.30624C125.236 8.26733 124.787 8.24902 124.286 8.24902C123.638 8.24902 123.018 8.32913 122.425 8.49162C121.835 8.65411 121.308 8.89212 120.848 9.20566C120.393 9.5192 120.027 9.9014 119.757 10.35C119.487 10.7985 119.352 11.302 119.352 11.8582C119.352 12.5219 119.475 13.0849 119.729 13.5426C119.981 14.0026 120.308 14.3871 120.713 14.7006C121.118 15.0142 121.574 15.2796 122.077 15.4948C122.583 15.7099 123.096 15.909 123.618 16.0875C124.011 16.2317 124.389 16.3759 124.753 16.5178C125.112 16.662 125.432 16.829 125.712 17.0167C125.989 17.2066 126.215 17.4195 126.387 17.6621C126.556 17.9047 126.643 18.1862 126.643 18.5112C126.643 18.8705 126.563 19.184 126.4 19.4541C126.24 19.7218 126.016 19.953 125.728 20.1429C125.439 20.3306 125.11 20.4748 124.739 20.5732C124.373 20.6716 123.984 20.722 123.572 20.722C123.267 20.722 122.75 20.6396 122.75 20.6396C122.75 20.6396 120.837 20.3787 119.505 19.9393L119.61 21.8823C120.4 21.8823 121.134 21.9143 121.819 21.9761C122.501 22.0402 123.185 22.0791 123.869 22.0974C124.478 22.0974 125.098 22.0219 125.728 21.8708C126.355 21.7175 126.92 21.4795 127.421 21.1568C127.925 20.8341 128.332 20.4153 128.643 19.9049C128.959 19.39 129.117 18.7858 129.117 18.0855C129.117 17.4561 128.991 16.9229 128.739 16.4834L128.742 16.488Z" fill="#850C70"/>
<path d="M129.503 16.0508C129.194 15.513 128.787 15.0461 128.295 14.6639C127.842 14.3114 127.325 14.0048 126.755 13.7484C126.238 13.5196 125.718 13.3022 125.205 13.1008C125.217 13.1053 124.823 12.9429 124.823 12.9429L124.075 12.6362C123.764 12.508 123.494 12.3661 123.251 12.1968C123.047 12.0595 122.889 11.913 122.773 11.7574C122.736 11.7047 122.686 11.6178 122.686 11.4438C122.686 11.2905 122.725 11.215 122.763 11.1623C122.857 11.0319 122.974 10.9243 123.127 10.8328C123.297 10.7298 123.51 10.6474 123.757 10.5856C123.922 10.5467 124.118 10.5307 124.331 10.5124C124.434 10.5055 124.539 10.4963 124.647 10.4849C126.022 10.3384 127.695 11.3752 128.222 11.7871L129.602 12.865L129.643 11.1165C129.643 11.1028 129.648 9.65412 129.565 9.24446L129.49 8.87142L129.165 8.67231C128.819 8.45947 128.474 8.26722 128.107 8.08185C127.746 7.90105 127.364 7.75686 126.965 7.65159C126.579 7.54631 126.167 7.47536 125.713 7.43646C125.304 7.39755 124.821 7.37695 124.288 7.37695C123.567 7.37695 122.864 7.4685 122.196 7.6493C121.512 7.83696 120.891 8.11846 120.354 8.48693C119.793 8.87371 119.34 9.34974 119.006 9.90358C118.653 10.4918 118.475 11.1509 118.475 11.8672C118.475 12.6797 118.639 13.3891 118.962 13.975C119.271 14.5357 119.681 15.0163 120.18 15.4031C120.649 15.7647 121.175 16.0691 121.738 16.3094C122.269 16.5383 122.807 16.7442 123.333 16.925C123.67 17.0463 124.034 17.1859 124.432 17.3416C124.727 17.4606 124.995 17.5979 125.224 17.7512C125.414 17.8817 125.56 18.0213 125.672 18.1792C125.713 18.2387 125.764 18.3348 125.764 18.5179C125.764 18.7147 125.727 18.8749 125.647 19.01C125.556 19.1633 125.421 19.3006 125.244 19.4173C125.038 19.5501 124.793 19.6554 124.519 19.7309C124.224 19.8087 123.905 19.8499 123.574 19.8499C123.413 19.8499 123.077 19.8087 122.889 19.7789C122.853 19.7744 121.022 19.5203 119.781 19.1107L118.559 18.7079L118.628 19.9941L118.733 21.9371L118.777 22.7702H119.61C120.365 22.7702 121.081 22.7999 121.738 22.8617C122.443 22.9258 123.153 22.967 123.846 22.983C124.546 22.983 125.24 22.9006 125.933 22.7312C126.65 22.5573 127.309 22.2781 127.895 21.9051C128.508 21.5091 129.009 20.9942 129.394 20.3717C129.794 19.7217 129.998 18.9528 129.998 18.0945C129.998 17.3118 129.831 16.6229 129.501 16.0531L129.503 16.0508ZM128.24 18.0922C128.24 18.6301 128.128 19.074 127.897 19.4517C127.652 19.8522 127.341 20.1703 126.947 20.4243C126.528 20.6921 126.045 20.8958 125.519 21.0217C124.965 21.1544 124.409 21.2231 123.869 21.2231C123.235 21.207 122.564 21.1681 121.901 21.1063C121.189 21.0423 120.418 21.0079 119.61 21.0079L120.489 21.8387L120.383 19.8957L119.23 20.7768C120.624 21.2368 122.551 21.5046 122.631 21.5137C122.672 21.5206 123.21 21.6053 123.571 21.6053C124.054 21.6053 124.526 21.5457 124.967 21.4245C125.421 21.3054 125.839 21.1224 126.206 20.8821C126.611 20.6143 126.929 20.287 127.155 19.9071C127.398 19.502 127.519 19.0329 127.519 18.5156C127.519 17.9984 127.38 17.5544 127.105 17.1608C126.872 16.8335 126.569 16.5428 126.208 16.2934C125.874 16.0691 125.496 15.8723 125.082 15.7052C124.661 15.5404 124.283 15.3962 123.917 15.2635C123.413 15.0896 122.917 14.8996 122.425 14.6891C121.994 14.506 121.601 14.2771 121.253 14.0071C120.944 13.7668 120.697 13.4761 120.5 13.1214C120.322 12.7964 120.23 12.373 120.23 11.8603C120.23 11.4621 120.322 11.1165 120.509 10.803C120.713 10.4666 120.994 10.1713 121.345 9.93104C121.72 9.67472 122.162 9.47561 122.656 9.34058C123.171 9.20098 123.718 9.13003 124.283 9.13003C124.761 9.13003 125.185 9.14834 125.546 9.18267C125.903 9.21471 126.212 9.26735 126.505 9.34516C126.801 9.42297 127.061 9.52138 127.316 9.64726C127.631 9.80975 127.938 9.9791 128.245 10.1668L127.844 9.59462C127.876 9.79373 127.888 10.874 127.885 11.0754L129.307 10.4025C129.206 10.3247 126.833 8.48235 124.462 8.7341C124.375 8.74326 124.288 8.75012 124.192 8.75699C123.935 8.77758 123.642 8.80047 123.338 8.87371C122.912 8.97669 122.535 9.13003 122.212 9.32685C121.857 9.54198 121.562 9.81204 121.331 10.1324C121.061 10.5055 120.923 10.9472 120.923 11.4392C120.923 11.9313 121.068 12.4073 121.351 12.7918C121.587 13.1122 121.894 13.3983 122.258 13.6455C122.592 13.8766 122.979 14.0826 123.397 14.2565C123.395 14.2565 124.148 14.5655 124.148 14.5655L124.542 14.728C125.043 14.9271 125.542 15.1331 126.032 15.3505C126.469 15.5473 126.867 15.7853 127.21 16.0508C127.524 16.2934 127.771 16.5795 127.97 16.925C128.144 17.2271 128.233 17.6185 128.233 18.0899L128.24 18.0922Z" fill="#850C70"/>
<path d="M14.3262 20.191V22.2438H17.4227V11.8741H14.3262V19.2549C13.7266 19.6142 13.1155 19.8614 12.4793 19.9964C11.8499 20.1292 11.1542 20.1978 10.3943 20.1978C9.49034 20.1978 8.67331 20.0147 7.94324 19.644C7.21088 19.2732 6.58609 18.7377 6.07115 18.0305C5.55622 17.3302 5.15342 16.472 4.86506 15.4604C4.57669 14.4488 4.43022 13.3045 4.43022 12.0229C4.43022 9.31319 4.98178 7.22369 6.0826 5.7544C7.18571 4.28511 8.67788 3.54818 10.5568 3.54818C11.4791 3.5848 12.2367 3.65574 12.834 3.7656C13.429 3.87087 13.9417 4.00819 14.3651 4.16839C14.7885 4.33088 15.1775 4.50024 15.5185 4.68104C15.8595 4.85955 16.2486 5.03806 16.6834 5.21886C16.6468 4.51626 16.6354 3.93724 16.6422 3.48639C16.6514 3.03553 16.5919 2.80896 16.466 2.80896C16.0884 2.7197 15.6398 2.61214 15.1272 2.48397C14.61 2.3581 14.0744 2.24138 13.5183 2.13153C12.9553 2.02396 12.3831 1.93242 11.795 1.86147C11.2091 1.79052 10.6598 1.75391 10.1563 1.75391C8.80376 1.75391 7.56104 2.00794 6.43504 2.51144C5.30676 3.01722 4.32723 3.7244 3.49647 4.63527C2.6657 5.54614 2.02031 6.64009 1.5603 7.91027C1.10029 9.18503 0.869141 10.5834 0.869141 12.1167C0.869141 13.6501 1.08656 15.0668 1.51911 16.3141C1.95165 17.5591 2.56729 18.6187 3.35915 19.4952C4.1533 20.3672 5.10765 21.0469 6.22678 21.5206C7.34362 21.999 7.87458 22.2393 9.26377 22.2393C10.923 22.2393 13.0903 21.4108 14.317 20.1864L14.3262 20.191Z" fill="#850C70"/>
<path d="M13.4479 20.1905V23.1223H18.302V10.9949H13.4479V19.2545L13.8736 18.5016C13.3518 18.8151 12.8345 19.0234 12.2967 19.1378C11.7268 19.2591 11.0883 19.3186 10.3949 19.3186C9.62132 19.3186 8.95076 19.1675 8.34199 18.8586C7.72864 18.5496 7.21828 18.1079 6.78344 17.5129C6.33259 16.8995 5.97328 16.1283 5.71237 15.2197C5.44689 14.2905 5.31187 13.2171 5.31187 12.0248C5.31187 9.52333 5.8085 7.58945 6.78802 6.28265C7.72406 5.03536 8.95762 4.42888 10.5574 4.42888C11.3996 4.46321 12.1228 4.52958 12.6789 4.63028C13.219 4.7264 13.6813 4.84769 14.0567 4.98959C14.4572 5.14064 14.8119 5.30084 15.1117 5.45875C15.4733 5.64642 15.8875 5.83638 16.3475 6.03091L17.6383 6.57102L17.5651 5.17497C17.5285 4.5044 17.517 3.94369 17.5262 3.50657C17.5353 3.03969 17.4987 2.56366 17.1714 2.22952L16.9128 1.96633C16.8419 1.93429 16.4711 1.93429 16.4711 1.93429L16.6702 1.95718L15.3428 1.63448C14.8027 1.50403 14.2489 1.38274 13.6928 1.27288C13.1023 1.16074 12.5027 1.06462 11.9076 0.991384C11.2829 0.91586 10.697 0.876953 10.1637 0.876953C8.69443 0.876953 7.32127 1.15845 6.08313 1.71001C4.85186 2.26385 3.76477 3.04885 2.85619 4.0421C1.95219 5.03536 1.24272 6.23459 0.743799 7.61234C0.251747 8.98093 0 10.496 0 12.1186C0 13.7412 0.235727 15.2655 0.698026 16.6043C1.16948 17.9546 1.8492 19.1263 2.71887 20.0876C3.59999 21.0556 4.66877 21.8109 5.89317 22.3327C7.06723 22.8362 7.73551 23.1223 9.27345 23.1223C11.2233 23.1223 13.6081 22.1496 14.9469 20.8131L13.4479 20.1905ZM9.27345 21.3646C8.09482 21.3646 7.70347 21.1975 6.65528 20.749C5.58879 20.2958 4.72827 19.6871 4.02109 18.9089C3.31162 18.1262 2.75091 17.1558 2.35956 16.0299C1.96134 14.881 1.75765 13.565 1.75765 12.1232C1.75765 10.6814 1.97278 9.39059 2.39618 8.21424C2.81499 7.05621 3.40774 6.05379 4.15612 5.23218C4.9022 4.41515 5.79247 3.77205 6.80175 3.3189C7.81103 2.86576 8.9416 2.63918 10.1637 2.63918C10.626 2.63918 11.1432 2.67122 11.6948 2.73988C12.2509 2.80854 12.8116 2.89551 13.3586 3.00307C13.8873 3.10606 14.416 3.22278 14.9263 3.34408C14.9217 3.34408 16.2743 3.67135 16.2743 3.67135L16.375 3.69652H16.4734C16.0455 3.69652 15.7937 3.36925 15.7594 3.20218C15.7594 3.20676 15.7731 3.27542 15.7708 3.47453C15.7617 3.95285 15.7754 4.55704 15.812 5.27109L17.0296 4.41515C16.613 4.24121 16.2446 4.07186 15.9287 3.90708C15.5694 3.71941 15.1506 3.53174 14.6837 3.35323C14.2077 3.17243 13.6401 3.02138 12.9947 2.90695C12.3516 2.79023 11.5644 2.71471 10.594 2.67809C8.40149 2.67809 6.65757 3.53632 5.3851 5.23447C4.17214 6.85481 3.5565 9.14113 3.5565 12.0316C3.5565 13.3865 3.71442 14.6246 4.02567 15.7094C4.3415 16.8194 4.79464 17.7784 5.36679 18.5588C5.95954 19.3712 6.69419 20.0029 7.55013 20.4354C8.39692 20.8657 9.35584 21.0831 10.3972 21.0831C11.2119 21.0831 11.974 21.0076 12.6652 20.8634C13.3861 20.7101 14.0978 20.424 14.7799 20.0143L15.2078 19.758V11.8737L14.329 12.7526H17.4255L16.5467 11.8737V22.2411L17.4255 21.3623H14.329L15.2078 22.2411V18.0667L13.7065 19.5658C12.6835 20.5888 10.7771 21.36 9.27345 21.36V21.3646Z" fill="#850C70"/>
</g>
<defs>
<clipPath id="clip0_1760_8357">
<rect width="130" height="22.2453" fill="white" transform="translate(0 0.876953)"/>
</clipPath>
</defs>
</svg>
