<svg width="108" height="58" viewBox="0 0 108 58" fill="none" xmlns="http://www.w3.org/2000/svg">
<g filter="url(#filter0_d_1492_28848)">
<path d="M17.7375 51.3435C13.3917 51.211 9.42772 48.6748 7.61616 44.8881C7.21099 44.0095 6.52922 42.2291 6.5 40.1098C6.50779 39.1378 6.64609 38.3314 6.92854 37.5697C7.37267 36.3503 8.21612 35.3238 9.29916 34.6965C10.4582 34.0498 11.4652 33.9427 12.299 33.9232H12.4762C13.345 33.9485 14.317 34.0557 15.4332 34.6673C15.4916 34.7004 15.5539 34.7374 15.6143 34.7784C16.9175 35.6218 17.4122 36.7068 17.6499 37.2269L17.6849 37.3087C17.8466 37.6905 17.9616 38.0548 18.0512 38.382C18.057 38.1892 18.059 37.9788 18.057 37.7548C18.059 36.8724 18.0161 35.9276 17.9752 35.0141C17.9343 34.1063 17.8914 33.1791 17.8914 32.324V27.534C17.8914 27.2574 17.8778 26.9555 17.8661 26.6283V26.5562C17.8447 26.0926 17.8271 25.5861 17.8194 25.0855C17.8291 24.2576 17.8603 23.2993 18.1525 22.2415C18.6316 20.4319 19.8686 19.0372 21.5282 18.4295C22.3561 18.1314 23.1313 17.9834 23.8969 17.9834C25.2487 17.9834 26.5188 18.4567 27.4771 19.3138C28.2173 19.9605 28.79 20.8527 29.1251 21.8909C29.5458 23.2058 29.5556 24.4427 29.5634 25.4342C29.5634 25.5978 29.5575 26.8971 29.5575 26.8971C29.5575 28.3327 29.5887 29.8073 29.6198 31.2273V31.276C29.651 32.6532 29.6841 34.2174 29.6841 35.7426C29.6841 37.5015 29.6413 38.9703 29.5478 40.3591C29.3471 43.3102 28.1784 46.0217 26.2461 48.0047C24.1598 50.1591 21.2555 51.3512 18.0706 51.3512L17.7356 51.3454L17.7375 51.3435Z" fill="white"/>
<path d="M37.1336 51.2811C30.8515 51.2402 25.7344 45.9477 25.7305 39.4884C25.7305 37.7957 26.0869 36.1653 26.794 34.64C28.0797 31.837 31.2314 28.6872 36.2142 28.2567C36.5804 28.2255 36.9505 28.21 37.3167 28.21C41.7735 28.21 45.7103 30.602 47.5959 34.4511C48.4003 36.099 48.8036 37.8268 48.8036 39.5975C48.7685 44.2705 45.909 48.593 41.7015 50.3558C40.2035 50.9733 38.6744 51.285 37.1472 51.285H37.1336V51.2811Z" fill="white"/>
<path d="M55.0788 51.2869C53.3841 51.281 51.8511 50.5739 50.6103 49.2454C49.7746 48.3475 49.2233 47.3618 48.8357 46.6041C48.3663 45.673 47.9786 44.701 47.6923 43.9997C47.5403 43.6257 47.3592 43.1777 47.2735 43.018C47.0573 42.5894 46.8332 42.157 46.5917 41.6973C46.2606 41.0622 45.908 40.3824 45.5612 39.6792C45.4911 39.5429 45.3976 39.3734 45.2924 39.1825L45.2671 39.1358C45.0723 38.7793 44.8542 38.3897 44.6574 37.9904L44.5464 37.7605C44.1821 37.0047 43.6873 35.9743 43.6367 34.5172L43.6309 34.412L43.6367 34.2601C43.6387 34.19 43.6387 34.1315 43.6445 34.079C43.6464 34.038 43.6503 33.9816 43.6581 33.9173C43.7731 32.6414 44.2717 31.4785 45.1756 30.3896C46.3911 28.9696 48.0137 28.1904 49.7629 28.1787C50.5655 28.1787 51.3758 28.3501 52.1082 28.6715C52.155 28.693 52.19 28.7105 52.229 28.7261C53.4698 29.3338 54.0425 30.1188 54.3853 30.5883C54.3853 30.5883 54.545 30.8065 54.5665 30.8454C54.7282 31.0733 54.8762 31.3168 55.034 31.5778C55.369 31.0363 55.7664 30.5084 56.2806 29.9961C57.2994 28.9968 58.4623 28.4086 59.7421 28.2469C59.9622 28.2157 60.2193 28.2001 60.4726 28.2001C62.0231 28.2079 63.5074 28.7981 64.6625 29.8559C65.8605 30.9662 66.554 32.433 66.626 33.9932C66.628 34.04 66.628 34.0809 66.628 34.1257C66.6299 34.1978 66.6299 34.2699 66.628 34.3419C66.5501 35.8477 66.0047 36.8742 65.6384 37.5599C65.6326 37.5618 65.4573 37.9066 65.4359 37.9319C65.2683 38.2319 65.093 38.5163 64.9352 38.7812C64.8028 39.0013 64.6411 39.2663 64.5944 39.3598L64.2028 40.1604C63.2522 42.0713 62.2919 44.0192 61.2576 45.9554C61.1991 46.0625 61.0803 46.3528 61.0082 46.5242C60.9167 46.7424 60.8154 46.9761 60.7063 47.2157C60.2914 48.102 59.7635 49.1188 58.6454 50.0285C57.6754 50.8233 56.3741 51.283 55.0963 51.2869H55.0807H55.0788Z" fill="white"/>
<path d="M68.6336 51.4249C68.3005 51.4249 67.946 51.3995 67.5934 51.3489C65.4663 51.084 63.5729 49.4906 62.8989 47.3849C62.4529 46.0954 62.4061 44.8701 62.4042 43.7267C62.4042 43.1852 62.4139 42.6592 62.4314 42.1372V42.0885C62.447 41.6366 62.4568 41.1905 62.4529 40.7639C62.4587 40.2068 62.4353 39.6458 62.4042 39.0556C62.3788 38.4576 62.3535 37.8498 62.3535 37.2401C62.3613 36.2292 62.41 35.0526 62.8872 33.7962C63.5184 32.0548 65.0825 30.6192 66.8668 30.1575C67.498 29.9802 68.1077 29.8926 68.7232 29.8926C70.0303 29.8926 71.3373 30.3464 72.3054 31.1431C73.106 31.7821 73.7235 32.645 74.1287 33.7027C74.678 35.1598 74.7208 36.5389 74.7306 37.7174C74.7306 38.3816 74.7053 39.0556 74.6897 39.5426L74.6838 39.6341C74.6702 40.0373 74.6546 40.4191 74.6546 40.7522C74.6546 41.1399 74.676 41.5606 74.6897 41.995V42.0827C74.7111 42.6592 74.7364 43.2436 74.7364 43.8494C74.7364 44.687 74.7014 45.6844 74.4365 46.7382C73.9436 48.7231 72.8314 49.8373 71.9821 50.4178C71.0198 51.0762 69.8686 51.4229 68.6492 51.4229H68.6336V51.4249Z" fill="white"/>
<path d="M87.3008 51.3645C86.5372 51.3626 85.7892 51.2009 85.0782 50.8834C84.0964 51.1678 83.0777 51.3139 82.0472 51.3139C76.2638 51.2671 71.2148 46.8804 70.5467 41.3289C70.5058 40.9179 70.4824 40.5283 70.4824 40.1289C70.4824 37.2889 71.5148 34.5228 73.3887 32.3334C75.4905 29.8673 78.5604 28.4512 81.8057 28.4512C82.2849 28.4512 82.7407 28.4765 83.1945 28.531C83.8296 28.6051 84.4451 28.7395 85.0684 28.944C85.758 28.6518 86.4729 28.5038 87.1936 28.5038H87.2696C88.4968 28.5038 89.6928 28.8622 90.6414 29.5225C91.5199 30.1244 92.2368 31.0068 92.6945 32.0665C93.314 33.543 93.3822 34.9377 93.3899 36.2351C93.388 36.8759 93.3666 37.5012 93.3432 38.1265C93.3198 38.7596 93.3003 39.3322 93.3042 39.8718C93.2984 40.3841 93.3198 40.9237 93.3374 41.4691C93.3568 42.1158 93.3802 42.7333 93.3841 43.3411C93.3822 44.2157 93.3451 45.2442 93.1231 46.298C92.7764 47.9011 92.0868 49.1264 91.0115 50.0361C90.0532 50.8542 88.8084 51.3236 87.5072 51.3665C87.4722 51.3665 87.3358 51.3684 87.3027 51.3684H87.3008V51.3645Z" fill="white"/>
<path d="M95.3803 51.4274C93.931 51.4274 92.5188 50.8761 91.5117 49.9197C90.6955 49.1678 90.1306 48.2036 89.7995 46.9862C89.4333 45.5992 89.4294 44.3311 89.4274 43.0962V29.8308C89.4294 29.4802 89.4021 29.003 89.3807 28.5004C89.3456 27.8089 89.3086 27.0726 89.3066 26.3265C89.3066 26.3012 89.3164 26.0188 89.3164 26.0188C89.3553 24.478 89.4138 22.3703 90.9487 20.4321C90.9721 20.4049 90.9974 20.3756 91.0208 20.3484C91.7844 19.4406 92.9025 18.7764 94.0829 18.5388C94.3498 18.4803 94.6595 18.4472 94.9615 18.4472C95.1543 18.4297 95.3335 18.4219 95.5186 18.4219C96.8315 18.4219 98.0898 18.8543 99.0599 19.6374C99.8644 20.2724 100.488 21.1353 100.893 22.1892C101.446 23.6462 101.499 25.0429 101.501 26.2389C101.501 26.9421 101.473 27.6161 101.45 28.2686C101.43 28.8432 101.407 29.3614 101.407 29.8328V43.3124C101.407 44.2221 101.399 45.1142 101.263 46.0356C101.092 47.14 100.735 48.5523 99.5137 49.797C98.6157 50.6989 97.3632 51.2813 96.0698 51.4001C95.8458 51.4177 95.6296 51.4313 95.4231 51.4313H95.3803V51.4274Z" fill="white"/>
<path d="M68.6948 34.2909C63.5601 34.2909 59.1072 30.3639 58.5656 25.346C57.9676 19.7886 61.6395 15.0221 67.1112 14.2546C67.6274 14.1825 68.1475 14.1436 68.6578 14.1436C71.2758 14.1436 73.8003 15.1273 75.5885 16.8473C78.339 19.5003 79.2759 23.6845 77.9864 27.5043C76.7241 31.2268 73.6133 33.8019 69.8558 34.2208C69.472 34.2597 69.0844 34.287 68.6968 34.287L68.6948 34.2909Z" fill="white"/>
<path d="M55.7464 27.8536C54.8231 27.8536 54.005 27.7621 53.2395 27.5673C51.7824 27.1933 50.8455 25.7908 51.0597 24.2967C51.3656 22.154 53.1537 19.8613 57.26 19.8613C58.5592 19.8613 59.7319 20.0795 60.4799 20.2645C61.8006 20.5821 62.7239 21.7586 62.7239 23.1221V24.7194C62.7239 25.5006 62.4044 26.268 61.8473 26.8193C61.2883 27.3608 60.5656 27.6569 59.7942 27.6569H59.5195C58.9858 27.655 58.4112 27.6978 57.8093 27.7485C57.1256 27.8049 56.4496 27.8536 55.7484 27.8536H55.7464Z" fill="white"/>
<path d="M79.8176 27.83C78.6937 27.83 77.4977 27.641 76.4438 27.2943C75.2439 26.895 74.4336 25.7691 74.4336 24.499V23.0128C74.4336 21.4544 75.6491 20.161 77.1977 20.0753C77.6029 20.0519 78.084 19.9993 78.5495 19.9467C79.3988 19.8494 80.2676 19.7539 81.187 19.7539C82.3694 19.7539 83.3706 19.9234 84.2628 20.2721C85.6088 20.8077 86.3802 22.2745 86.0412 23.6868C85.4335 26.2833 83.0999 27.83 79.8157 27.83H79.8176Z" fill="white"/>
<path d="M61.062 21.4892C60.2283 21.4892 59.4335 21.1327 58.8803 20.5152C58.5414 20.1412 58.0875 19.7594 57.6064 19.3543C56.574 18.4874 55.2864 17.4102 54.4352 15.7526C54.0456 15.0065 53.9989 14.1319 54.2969 13.3449C54.5969 12.5638 55.2163 11.9444 56.0013 11.6483C56.7337 11.3736 57.472 11.2314 58.2005 11.2314C61.5977 11.2314 63.5008 14.1046 64.5254 15.6435L64.6618 15.8519C65.4292 16.9973 65.3046 18.503 64.3598 19.5101C64.3248 19.5491 64.2839 19.59 64.2527 19.6328C63.8729 20.0886 63.2223 20.8756 62.0944 21.3022C61.7613 21.4307 61.4126 21.4911 61.064 21.4911L61.062 21.4892Z" fill="white"/>
<path d="M75.6761 21.2753C75.0099 21.2753 74.3632 21.0513 73.8489 20.6403L73.7788 20.6014C73.1613 20.2313 71.7081 19.3683 71.5815 17.5996C71.4919 15.9439 72.538 14.931 73.8664 13.6492L73.9638 13.5499C74.0768 13.4428 74.1684 13.3571 74.2229 13.2986C74.3515 13.1525 74.48 13.0045 74.595 12.8584L74.6437 12.8038C75.3994 11.902 76.2546 10.8793 77.9512 10.4021C78.2103 10.3319 78.4733 10.2949 78.7401 10.2949C80.0296 10.2949 81.1789 11.1559 81.5529 12.3948C82.9652 17.1282 79.1687 19.5787 77.5461 20.6247L77.2714 20.8039C76.7942 21.1137 76.241 21.2792 75.6761 21.2792V21.2753Z" fill="white"/>
<path d="M67.5194 18.3026C65.9708 18.3026 64.6832 17.0852 64.5897 15.5366C64.5722 15.1957 64.5352 14.8256 64.5079 14.4418C64.3521 12.5913 64.1768 10.5343 64.7027 8.69938C65.0592 7.44297 66.2182 6.56836 67.5175 6.56836C67.6811 6.56836 67.8408 6.58394 67.9986 6.60732C69.4186 6.84496 70.6322 7.67283 71.3958 8.93703C72.732 11.1518 72.4438 14.2763 71.7912 16.2768C71.3958 17.4845 70.2738 18.3026 69.0018 18.3026H67.5194Z" fill="white"/>
</g>
<path d="M18.0942 48.5171C18.0046 48.5171 17.9053 48.5171 17.8157 48.5152C14.2724 48.408 11.52 46.2439 10.322 43.7525C9.88568 42.8214 9.51753 41.5416 9.49805 40.2346C9.50584 39.7495 9.55259 39.2586 9.74154 38.7561C9.9188 38.2633 10.2792 37.7276 10.8343 37.4101C11.4245 37.0828 11.9271 37.0439 12.4336 37.0341C12.9868 37.0497 13.4737 37.0828 14.0873 37.4218C14.6639 37.7938 14.8646 38.2379 15.0379 38.6197C15.2074 39.0113 15.3048 39.4008 15.3847 39.7787C15.5093 40.3631 15.5814 40.9845 15.6145 41.2085C16.0275 42.0734 17.0443 42.6169 18.1624 42.6169C19.2902 42.6032 20.2369 42.1085 20.6596 41.0975C20.9109 40.5365 21.0473 39.2898 21.0434 37.9029C21.0434 36.1459 20.8739 34.1473 20.8739 32.513C20.8719 31.1826 20.8719 29.5074 20.8719 27.7542C20.8739 27.0997 20.8077 26.2056 20.8057 25.3077C20.8077 24.6337 20.8388 23.9539 21.0258 23.2701C21.1972 22.6215 21.6511 21.7858 22.5803 21.4469C23.0361 21.2794 23.4822 21.1781 23.9438 21.1781C24.5126 21.1683 25.1301 21.3729 25.5606 21.7605C26.0008 22.1384 26.2326 22.6059 26.3729 23.0442C26.6592 23.9227 26.6631 24.807 26.6709 25.707C26.6709 26.1881 26.6631 26.6634 26.6631 27.1173C26.6631 30.0742 26.7936 32.9941 26.7936 35.9219C26.7936 37.3867 26.7625 38.8496 26.6612 40.3222C26.5131 42.5097 25.6736 44.5609 24.1931 46.0744C22.7225 47.5899 20.6012 48.521 18.1254 48.521H18.0942V48.5171Z" fill="#78278B"/>
<path d="M28.7012 39.6439C28.7012 38.4498 28.9525 37.2246 29.4901 36.0597C30.5186 33.8352 32.9554 31.6886 36.4928 31.3867C36.7753 31.3652 37.0616 31.3555 37.3382 31.3555C40.9205 31.3458 43.7079 33.3424 44.9702 35.9214C45.6013 37.2012 45.8857 38.5063 45.8838 39.7491C45.8506 43.53 43.4021 46.5824 40.5815 47.7589C39.4284 48.2342 38.2752 48.4621 37.1727 48.4621C32.2659 48.4271 28.7051 44.1903 28.7012 39.6458V39.6439ZM34.1943 39.1472C34.1476 39.4199 34.13 39.6731 34.13 39.901C34.1378 40.9568 34.5021 41.5879 35.0533 42.0768C35.6104 42.5541 36.4208 42.8287 37.2525 42.8287C38.0823 42.8287 38.8907 42.5541 39.4362 42.073C39.9874 41.586 40.3556 40.9295 40.3712 39.8114V39.7082C40.3283 38.2648 39.0933 36.7551 37.2915 36.7746C37.0753 36.7746 36.861 36.7921 36.6273 36.8331C35.2306 37.1097 34.3969 37.9745 34.1943 39.1394" fill="#78278B"/>
<path d="M55.0594 48.4643C54.0679 48.4623 53.2926 47.9188 52.7628 47.3559C52.2174 46.7774 51.82 46.0995 51.4635 45.4021C50.7662 44.0211 50.2402 42.4822 49.8993 41.8238C49.4124 40.8537 48.7988 39.7337 48.2066 38.5338C48.0118 38.15 47.6281 37.5092 47.2969 36.841C46.9638 36.1495 46.621 35.5087 46.5859 34.5931C46.5859 34.5775 46.5859 34.56 46.5879 34.5308C46.5898 34.4996 46.5898 34.4568 46.5937 34.4022C46.6522 33.6562 46.9736 33.0348 47.4469 32.4621C47.9553 31.8758 48.752 31.3265 49.7883 31.3265C50.1721 31.3206 50.5733 31.4005 50.9473 31.568C51.6291 31.9011 51.8473 32.2829 52.155 32.69C52.4375 33.101 52.6966 33.5588 52.9323 34.0282C53.4134 34.9515 53.8478 35.943 54.0367 36.3073C54.4107 37.0611 54.736 37.7371 55.0399 38.3896C55.3672 37.6942 55.7139 36.9404 56.1366 36.0969C56.3158 35.7405 56.5924 35.0704 56.9411 34.3672C57.2975 33.662 57.7183 32.9062 58.3533 32.2693C58.7819 31.8563 59.3565 31.4589 60.1025 31.3635C60.2233 31.346 60.348 31.3362 60.4746 31.3362C61.3531 31.344 62.1186 31.7024 62.6777 32.2206C63.2367 32.7348 63.6594 33.438 63.6945 34.3126V34.3828C63.6439 35.3665 63.2426 35.9586 62.89 36.6443C62.5219 37.2852 62.1186 37.9104 61.9706 38.2163C60.9168 40.3298 59.8357 42.5309 58.6728 44.7028C58.4916 45.0437 58.2929 45.5638 58.0339 46.1287C57.7767 46.6878 57.4592 47.3267 56.8008 47.8624C56.3723 48.2169 55.747 48.4623 55.0828 48.4643H55.0594Z" fill="#78278B"/>
<path d="M68.6258 48.5943C68.4154 48.5943 68.1973 48.5787 67.983 48.5514C66.8376 48.415 65.9533 47.4723 65.6806 46.5898C65.367 45.7035 65.3377 44.79 65.3299 43.8413C65.3299 42.8615 65.3923 41.8525 65.3864 40.9058C65.3923 39.7215 65.2793 38.5294 65.2793 37.4093C65.2851 36.5892 65.326 35.7964 65.626 35.0095C65.9124 34.2167 66.6545 33.4356 67.6071 33.194C67.983 33.0869 68.3473 33.0265 68.7115 33.0265C69.3271 33.0206 69.9679 33.2232 70.4335 33.6089C70.9049 33.9849 71.1951 34.4699 71.3802 34.9471C71.7366 35.9036 71.7756 36.899 71.7795 37.9041C71.7795 38.993 71.7035 40.0799 71.7035 40.9058C71.7035 41.8311 71.7873 42.92 71.7873 43.9874C71.7873 44.7198 71.7542 45.4406 71.5769 46.1438C71.4035 46.8353 71.0568 47.6028 70.3127 48.1131C69.8316 48.4384 69.2336 48.5943 68.6414 48.5943H68.6258Z" fill="#78278B"/>
<path d="M85.7249 48.0157C85.5983 47.9261 85.4814 47.8423 85.3665 47.7488C84.2795 48.2494 83.1361 48.4851 82.0277 48.4851C77.8163 48.452 73.9517 45.3217 73.451 41.1298C73.4179 40.8532 73.4023 40.5707 73.4023 40.2805C73.4043 38.2137 74.1698 36.0964 75.5976 34.4328C77.0235 32.7713 79.1877 31.585 81.7959 31.5889C82.1368 31.5889 82.4719 31.6103 82.8342 31.6512C83.7906 31.7622 84.5795 32.072 85.2885 32.4167C85.3606 32.3622 85.4288 32.3057 85.5262 32.2375C85.8203 31.9921 86.4807 31.6278 87.2033 31.6395C87.2131 31.6395 87.2248 31.6376 87.2365 31.6376C87.8364 31.6356 88.4461 31.7934 88.9389 32.1323C89.4396 32.4732 89.7668 32.9563 89.9713 33.4238C90.3746 34.3802 90.4096 35.3756 90.4233 36.4295C90.4233 37.6079 90.3337 38.8644 90.3337 40.0331C90.3337 41.0967 90.4116 42.3141 90.4174 43.4848C90.4096 44.2815 90.3765 45.0665 90.2207 45.8126C90.0609 46.543 89.7746 47.3144 89.085 47.9046C88.6253 48.2884 88 48.5124 87.3689 48.5377H87.2715C86.6404 48.5377 86.1028 48.2786 85.7229 48.0137L85.7249 48.0157ZM79.7584 41.0032C80.148 41.8739 80.8395 42.2148 81.7453 42.242C82.7504 42.2479 83.7302 41.6713 84.0088 40.9214C84.1159 40.635 84.1646 40.3701 84.1646 40.113C84.1665 39.5344 83.9036 38.954 83.4692 38.5215C83.0445 38.0832 82.4641 37.8417 81.9693 37.8456C81.9264 37.8456 81.8816 37.8475 81.8329 37.8514C80.5122 37.9644 79.548 39.0007 79.5617 40.0896C79.5617 40.3759 79.6182 40.672 79.7565 40.9973" fill="#78278B"/>
<path d="M93.4888 47.8987C92.9862 47.4371 92.7349 46.8683 92.5888 46.3267C92.3025 45.2398 92.3278 44.0905 92.3219 42.8945V42.8361V30.0363C92.3278 29.1578 92.207 27.8449 92.2051 26.5437C92.246 25.1392 92.2323 23.7367 93.2102 22.5057C93.5491 22.1063 94.0595 21.783 94.6283 21.668C94.753 21.6408 94.8698 21.6349 94.9536 21.6349C94.9964 21.6349 95.0237 21.6349 95.0529 21.6369C95.1932 21.6194 95.3315 21.6116 95.4815 21.6116C96.0814 21.6038 96.7087 21.7927 97.1781 22.1726C97.6476 22.5388 97.93 23.0219 98.1131 23.4913C98.4715 24.4399 98.5183 25.4353 98.5202 26.4697C98.5183 27.6969 98.4248 28.9805 98.4248 30.0363V42.5147C98.4248 42.8341 98.4306 43.1497 98.4306 43.4536C98.4248 44.2542 98.4209 45.0158 98.3118 45.7404C98.1969 46.4553 98.004 47.2092 97.371 47.8481C96.958 48.2669 96.3541 48.5279 95.7639 48.5785C95.6334 48.5922 95.5048 48.6 95.3802 48.6H95.3373C94.6731 48.6 93.9718 48.3565 93.4888 47.9007V47.8987Z" fill="#78278B"/>
<path d="M67.9199 33.7143C67.3141 33.7415 66.8972 34.3493 66.5797 35.1655C66.2213 36.0673 70.5788 33.5935 67.9199 33.7143Z" fill="url(#paint0_linear_1492_28848)"/>
<path d="M94.7252 22.4027C94.1155 22.43 93.7006 23.0416 93.387 23.8559C93.0227 24.7617 97.39 22.282 94.7252 22.4027Z" fill="url(#paint1_linear_1492_28848)"/>
<path d="M23.2348 21.8518C22.627 21.8791 22.2121 22.4927 21.8907 23.305C21.5284 24.2107 25.8898 21.733 23.2348 21.8518Z" fill="url(#paint2_linear_1492_28848)"/>
<path d="M11.7584 38.1499C11.1487 38.1772 10.7299 38.785 10.4124 39.6031C10.0481 40.503 14.4173 38.0272 11.7584 38.1499Z" fill="url(#paint3_linear_1492_28848)"/>
<path d="M48.988 32.1347C48.4933 32.2127 48.2108 32.7444 48.0238 33.4379C47.8076 34.2073 51.1385 31.7997 48.988 32.1347Z" fill="url(#paint4_linear_1492_28848)"/>
<path d="M59.8179 32.0622C59.3134 32.0408 58.9355 32.5102 58.616 33.1511C58.2595 33.8641 61.9918 32.1538 59.8179 32.0622Z" fill="url(#paint5_linear_1492_28848)"/>
<path d="M87.3836 32.3084C86.8966 32.1895 86.435 32.583 85.9986 33.144C85.5117 33.779 89.5029 32.8051 87.3836 32.3084Z" fill="url(#paint6_linear_1492_28848)"/>
<path d="M39.9929 32.5637C39.1475 32.0591 38.6313 31.9014 37.2405 31.9014C33.6661 31.9014 31.6889 34.1551 30.9546 35.8654C30.4695 37.0088 32.5285 35.6453 32.7447 35.1193C33.7362 32.7351 36.7535 32.4039 39.0365 33.15C40.25 33.5415 40.6104 32.9279 39.9929 32.5637Z" fill="url(#paint7_linear_1492_28848)"/>
<path d="M67.51 17.4394C69.9897 17.0849 72.1636 17.9166 73.5427 19.2334C77.5652 23.102 75.4322 30.845 69.5203 31.5014C65.4998 31.9533 61.8961 29.0782 61.4871 25.2583C61.0157 20.9593 63.9745 17.9303 67.51 17.4394Z" fill="#F78E1E"/>
<path d="M59.7911 23.363V24.9447C57.7613 24.8979 55.8076 25.4141 53.9688 24.9447C54.2921 22.7163 57.6386 22.837 59.7911 23.363Z" fill="#F78E1E"/>
<path d="M83.1661 23.2537C82.6655 25.3399 79.4534 25.4295 77.3457 24.738V23.2537C79.204 23.1505 81.4987 22.5992 83.1661 23.2537Z" fill="#F78E1E"/>
<path d="M67.6194 19.2332C72.6236 18.4073 76.2546 24.4166 72.3743 28.2229C69.2089 31.3356 62.7633 29.1696 63.2814 23.7855C63.4587 21.97 63.8405 21.5298 64.7638 20.6123C65.3423 20.028 66.2656 19.4631 67.6194 19.2352V19.2332Z" fill="#78278B"/>
<path d="M62.2283 17.7509C61.8641 18.1288 61.603 18.6099 61.0615 18.8125C59.7739 17.3847 57.9702 16.475 57.041 14.6848C59.6551 13.7011 61.155 16.1692 62.2283 17.7509Z" fill="#F78E1E"/>
<path d="M75.6553 18.6026C75.4527 18.3903 74.5197 18.0085 74.4944 17.6521C74.4729 17.2975 76.078 15.895 76.3936 15.5366C77.3403 14.4575 77.7045 13.8088 78.7233 13.5244C79.5511 16.2905 77.2448 17.5624 75.6553 18.6026Z" fill="#F78E1E"/>
<path d="M68.9918 15.6397H67.5134C67.4062 13.8788 67.0361 11.4848 67.5134 9.82324C69.7028 10.1856 69.66 13.6042 68.9918 15.6397Z" fill="#F78E1E"/>
<path d="M70.2496 20.5994C69.7198 20.2566 69.3965 20.1533 68.516 20.1533C66.2681 20.1533 65.0214 21.6727 64.5656 22.822C64.2579 23.5914 65.7305 23.1531 65.8688 22.8005C66.4921 21.1955 68.181 20.9851 69.6166 21.4876C70.3821 21.7487 70.6373 20.8409 70.2496 20.5974V20.5994Z" fill="url(#paint8_linear_1492_28848)"/>
<path d="M84.5595 32.8655C83.7628 32.3863 83.2681 32.2402 81.9513 32.2402C78.5677 32.2402 76.6919 34.3752 76.0062 35.9919C75.5368 37.0711 77.4886 35.7835 77.699 35.2848C78.6398 33.0291 81.4935 32.7214 83.6576 33.4226C84.7991 33.7966 85.1342 33.2122 84.5595 32.8655Z" fill="url(#paint9_linear_1492_28848)"/>
<defs>
<filter id="filter0_d_1492_28848" x="0.5" y="0.568359" width="107" height="56.8633" filterUnits="userSpaceOnUse" color-interpolation-filters="sRGB">
<feFlood flood-opacity="0" result="BackgroundImageFix"/>
<feColorMatrix in="SourceAlpha" type="matrix" values="0 0 0 0 0 0 0 0 0 0 0 0 0 0 0 0 0 0 127 0" result="hardAlpha"/>
<feOffset/>
<feGaussianBlur stdDeviation="3"/>
<feComposite in2="hardAlpha" operator="out"/>
<feColorMatrix type="matrix" values="0 0 0 0 0.470588 0 0 0 0 0.152941 0 0 0 0 0.545098 0 0 0 0.93 0"/>
<feBlend mode="normal" in2="BackgroundImageFix" result="effect1_dropShadow_1492_28848"/>
<feBlend mode="normal" in="SourceGraphic" in2="effect1_dropShadow_1492_28848" result="shape"/>
</filter>
<linearGradient id="paint0_linear_1492_28848" x1="67.3375" y1="34.2773" x2="66.7132" y2="36.2709" gradientUnits="userSpaceOnUse">
<stop stop-color="white"/>
<stop offset="1" stop-color="#78278B"/>
</linearGradient>
<linearGradient id="paint1_linear_1492_28848" x1="94.0519" y1="23.008" x2="93.427" y2="25.0031" gradientUnits="userSpaceOnUse">
<stop stop-color="white"/>
<stop offset="1" stop-color="#78278B"/>
</linearGradient>
<linearGradient id="paint2_linear_1492_28848" x1="22.8082" y1="22.4538" x2="22.1829" y2="24.4504" gradientUnits="userSpaceOnUse">
<stop stop-color="white"/>
<stop offset="1" stop-color="#78278B"/>
</linearGradient>
<linearGradient id="paint3_linear_1492_28848" x1="11.3721" y1="38.6925" x2="10.7468" y2="40.689" gradientUnits="userSpaceOnUse">
<stop stop-color="white"/>
<stop offset="1" stop-color="#78278B"/>
</linearGradient>
<linearGradient id="paint4_linear_1492_28848" x1="48.2648" y1="32.7102" x2="48.2652" y2="34.1924" gradientUnits="userSpaceOnUse">
<stop stop-color="white"/>
<stop offset="1" stop-color="#78278B"/>
</linearGradient>
<linearGradient id="paint5_linear_1492_28848" x1="58.8686" y1="32.8161" x2="58.868" y2="34.0745" gradientUnits="userSpaceOnUse">
<stop stop-color="white"/>
<stop offset="1" stop-color="#78278B"/>
</linearGradient>
<linearGradient id="paint6_linear_1492_28848" x1="86.2806" y1="33.17" x2="86.0446" y2="34.4018" gradientUnits="userSpaceOnUse">
<stop stop-color="white"/>
<stop offset="1" stop-color="#78278B"/>
</linearGradient>
<linearGradient id="paint7_linear_1492_28848" x1="35.5867" y1="31.9014" x2="35.5867" y2="36.3095" gradientUnits="userSpaceOnUse">
<stop stop-color="white"/>
<stop offset="1" stop-color="#78278B"/>
</linearGradient>
<linearGradient id="paint8_linear_1492_28848" x1="67.4758" y1="20.1533" x2="67.4758" y2="23.2486" gradientUnits="userSpaceOnUse">
<stop stop-color="white"/>
<stop offset="1" stop-color="#78278B"/>
</linearGradient>
<linearGradient id="paint9_linear_1492_28848" x1="80.3832" y1="32.2402" x2="80.3832" y2="36.4107" gradientUnits="userSpaceOnUse">
<stop stop-color="white"/>
<stop offset="1" stop-color="#78278B"/>
</linearGradient>
</defs>
</svg>
