<svg width="130" height="36" viewBox="0 0 130 36" fill="none" xmlns="http://www.w3.org/2000/svg">
<g clip-path="url(#clip0_1760_8587)">
<path d="M25.3805 20.1226C25.3805 19.5818 25.287 18.19 25.8344 17.5157H20.4005C20.9079 18.0531 20.8678 19.8222 20.8678 20.3929L20.8578 31.9149C19.3158 32.8161 17.4232 33.2901 15.7477 33.2901C12.8605 33.2901 10.524 32.2988 8.75501 30.3195C6.64553 27.9897 5.59079 23.9777 5.59079 19.2013C5.59079 16.8916 5.86115 14.7721 6.39519 12.8595C6.82577 11.2674 7.6235 9.46835 8.80174 8.14992C10.6742 6.03711 13.1409 4.97569 16.1916 4.97569C18.9987 4.97569 21.8324 5.96701 24.6996 7.94632V4.34485C21.6188 3.20667 18.7049 2.6359 15.9546 2.6359C11.4386 2.6359 7.81709 3.85753 5.08011 6.29745C1.68892 9.30146 0 13.5705 0 19.1279C0 22.2554 0.540721 25.0157 1.6255 27.4089C2.86382 30.1493 4.71629 32.222 7.18959 33.6372C9.249 34.8255 11.9059 35.4096 15.1569 35.4096C16.9593 35.4096 18.508 35.2828 19.7964 35.0157C21.0814 34.7454 25.9446 33.2033 25.9446 33.2033C25.9446 33.2033 25.3271 32.3455 25.3271 29.6853L25.3805 20.1226ZM48.6649 30.0057V15.2427C48.6649 13.4003 47.974 11.975 46.6021 10.9703C45.2236 9.959 43.271 9.45833 40.7477 9.45833C39.1789 9.45833 37.7837 9.61187 36.5754 9.9056C35.3672 10.2027 33.9319 10.7534 32.263 11.5511L33.0407 14.3482C34.3425 13.3135 35.4339 12.6125 36.3351 12.2287C37.223 11.8549 38.2443 11.6613 39.3858 11.6613C40.7143 11.6613 41.7957 11.9917 42.6168 12.6526C43.4446 13.3135 43.8585 14.1813 43.8585 15.2327C43.8585 16.1406 43.6081 17.2287 43.1242 17.746C42.6302 18.2734 41.8024 18.7107 40.6475 19.0711C37.8605 19.9223 36.0714 20.5064 35.2837 20.8101C34.4993 21.1139 33.6615 21.5578 32.7737 22.1553C30.7677 23.497 29.7664 25.5197 29.7664 28.23C29.7664 30.5064 30.4706 32.3188 31.8792 33.674C33.024 34.7921 34.5427 35.3529 36.4219 35.3529C38.3011 35.3529 39.8965 34.929 41.3351 34.0778C42.1462 33.6005 43.0407 32.7661 44.0254 31.5945C44.3258 32.983 44.783 33.9577 45.3805 34.5151C45.9813 35.0758 46.8758 35.3529 48.0641 35.3529C49.2523 35.3529 50.4105 34.9423 51.6689 34.1312V31.3809C50.9947 31.8782 50.4606 32.1286 50.0868 32.1286C49.1355 32.1286 48.6615 31.4176 48.6615 29.9991L48.6649 30.0057ZM43.8652 26.985C43.8652 28.1366 43.5247 29.2013 42.8538 30.1926C41.779 31.7581 40.3004 32.5424 38.4146 32.5424C37.2063 32.5424 36.235 32.1419 35.5073 31.3408C34.7797 30.5431 34.4125 29.0812 34.4125 27.7527C34.4125 26.6112 34.743 25.1726 35.4005 24.2113C36.0447 23.2667 37.1996 22.4757 38.8752 21.8382C41.0214 21.0104 42.233 20.5364 42.5167 20.4096C42.7971 20.2928 43.2477 20.0591 43.8618 19.7187V26.985H43.8652ZM60.504 0.589844H54.7931C55.1936 1.19732 55.2503 2.65927 55.2503 3.22669V32.0217C55.2503 32.5691 55.2937 34.3715 54.7931 34.9223H60.504C60.0901 34.3081 60.0501 32.5525 60.0501 32.0217V3.22669C60.0501 2.64926 60.0935 1.2841 60.504 0.589844ZM70.4539 7.03844C70.4539 6.74805 70.3872 5.35954 70.8177 4.72202L65.6509 5.25273V30.493C65.6509 32.1519 66.028 33.3736 66.7757 34.1746C67.5334 34.9623 68.7049 35.3562 70.3071 35.3562C71.719 35.3562 73.0908 35.0358 74.4092 34.3916V32.2153C73.5347 32.7093 72.8071 32.953 72.2363 32.953C71.0447 32.953 70.4473 31.8282 70.4473 30.3562V13.5872H75.277V11.5511H70.4473V7.03844H70.4539ZM95.9446 12.5992C94.1255 10.5064 91.5955 9.455 88.3344 9.455C85.0734 9.455 82.273 10.5431 80.2437 12.726C78.0407 15.0725 76.9392 18.3635 76.9392 22.5925C76.9392 26.4143 78.0407 29.4784 79.8331 31.6246C85.0768 37.8996 95.6075 34.2814 97.6235 32.7227L96.9125 29.9356C95.3872 31.7547 92.3398 32.8128 89.8765 32.8128C86.2884 32.8128 84.2657 31.5511 82.8404 28.487C82.1128 26.9149 81.9493 24.3181 81.9493 21.6012H98.8818C98.745 17.6893 97.7637 14.6953 95.9446 12.5992ZM82.0794 19.4416C82.0594 16.9817 82.7971 14.8222 83.8485 13.477C84.9065 12.1386 86.4386 11.441 88.0841 11.441C89.2457 11.441 90.4206 11.8215 91.2483 12.4957C92.2396 13.3035 92.9439 14.3782 93.3511 15.7033C93.6282 16.5945 93.8184 18.0298 93.7683 19.4416H82.0794ZM117.387 34.9223H123.094C122.69 34.3715 122.647 33.3569 122.647 32.8428V16.6846C122.647 14.7053 122.19 13.1633 121.268 12.0551C119.833 10.3262 117.724 9.45833 114.947 9.45833C112.79 9.45833 111.018 9.96234 109.609 10.957C108.862 11.5144 108.127 12.3722 107.39 13.5371V10.0491H102.24C102.6 10.7133 102.694 11.5912 102.694 12.1286V33.1165C102.714 34.2013 102.437 34.6586 102.24 34.9256H107.944C107.547 34.4817 107.497 33.6639 107.497 33.1165V18.2367C107.497 16.4777 107.991 15.1826 108.985 14.0578C109.923 12.9997 111.325 12.4724 113.184 12.4724C114.673 12.4724 115.824 12.8629 116.632 13.6406C117.437 14.4183 117.844 15.5164 117.844 16.9316V32.8462C117.844 33.487 117.674 34.6386 117.387 34.9256V34.9223Z" fill="#E92C50"/>
<path d="M126.95 1.84473C125.261 1.84139 123.889 3.22991 123.879 4.95221C123.872 6.66783 125.237 8.0697 126.926 8.07971C128.612 8.07971 129.987 6.69119 129.997 4.97224C130.004 3.25328 128.639 1.85475 126.946 1.84473H126.95ZM126.926 7.6725C125.454 7.66249 124.269 6.45087 124.279 4.95221C124.279 3.45354 125.481 2.24193 126.946 2.25194C128.415 2.26196 129.603 3.47357 129.597 4.97224C129.587 6.4709 128.388 7.67584 126.923 7.6725H126.926Z" fill="#E92C50"/>
<path d="M125.615 6.67799L125.635 3.2334H127.123C127.424 3.23674 127.651 3.27345 127.804 3.33687C127.964 3.39695 128.088 3.51043 128.178 3.66063C128.268 3.81751 128.315 3.99108 128.315 4.17799C128.315 4.42832 128.241 4.63193 128.085 4.80216C127.928 4.96571 127.684 5.06918 127.364 5.11257C127.484 5.17599 127.574 5.22939 127.634 5.28947C127.761 5.4063 127.884 5.55983 127.998 5.74341L128.579 6.688H128.018L127.577 5.96371C127.45 5.75676 127.34 5.59989 127.257 5.48974C127.173 5.37626 127.1 5.29615 127.037 5.25276C126.97 5.20937 126.9 5.18266 126.833 5.1593C126.783 5.15262 126.703 5.14595 126.579 5.14595H126.065V6.67799H125.611H125.615ZM126.069 4.75209H127.023C127.23 4.75543 127.387 4.73874 127.504 4.69201C127.621 4.65196 127.707 4.5852 127.761 4.4884C127.821 4.39161 127.854 4.28814 127.854 4.17465C127.854 4.0111 127.798 3.87759 127.681 3.77412C127.567 3.66063 127.387 3.61057 127.137 3.61057H126.079L126.069 4.74875V4.75209Z" fill="#E92C50"/>
</g>
<defs>
<clipPath id="clip0_1760_8587">
<rect width="130" height="34.8198" fill="white" transform="translate(0 0.589844)"/>
</clipPath>
</defs>
</svg>
