<svg width="56" height="56" viewBox="0 0 56 56" fill="none" xmlns="http://www.w3.org/2000/svg">
<g clip-path="url(#clip0_1369_8402)">
<path d="M28.0004 12.95C31.0932 12.95 33.6004 10.4428 33.6004 7.35C33.6004 4.25721 31.0932 1.75 28.0004 1.75C24.9076 1.75 22.4004 4.25721 22.4004 7.35C22.4004 10.4428 24.9076 12.95 28.0004 12.95Z" stroke="#29B6FF" stroke-width="3" stroke-linecap="round" stroke-linejoin="round"/>
<path d="M7.35 33.6004C10.4428 33.6004 12.95 31.0932 12.95 28.0004C12.95 24.9076 10.4428 22.4004 7.35 22.4004C4.25721 22.4004 1.75 24.9076 1.75 28.0004C1.75 31.0932 4.25721 33.6004 7.35 33.6004Z" stroke="#29B6FF" stroke-width="3" stroke-linecap="round" stroke-linejoin="round"/>
<path d="M48.6732 33.6004C51.766 33.6004 54.2732 31.0932 54.2732 28.0004C54.2732 24.9076 51.766 22.4004 48.6732 22.4004C45.5805 22.4004 43.0732 24.9076 43.0732 28.0004C43.0732 31.0932 45.5805 33.6004 48.6732 33.6004Z" stroke="#29B6FF" stroke-width="3" stroke-linecap="round" stroke-linejoin="round"/>
<path d="M28.0004 54.2498C31.0932 54.2498 33.6004 51.7426 33.6004 48.6498C33.6004 45.557 31.0932 43.0498 28.0004 43.0498C24.9076 43.0498 22.4004 45.557 22.4004 48.6498C22.4004 51.7426 24.9076 54.2498 28.0004 54.2498Z" stroke="#29B6FF" stroke-width="3" stroke-linecap="round" stroke-linejoin="round"/>
<path d="M22.493 11.083L11.5264 22.703" stroke="#29B6FF" stroke-width="3" stroke-linecap="round" stroke-linejoin="round"/>
<path d="M32.6904 11.083L36.8904 15.2363" stroke="#29B6FF" stroke-width="3" stroke-linecap="round" stroke-linejoin="round"/>
<path d="M43.0732 21.9336L44.7999 23.7303" stroke="#29B6FF" stroke-width="3" stroke-linecap="round" stroke-linejoin="round"/>
<path d="M24.29 26.8568L27.9067 30.7768L40.18 18.6201" stroke="#29B6FF" stroke-width="3" stroke-linecap="round" stroke-linejoin="round"/>
<path d="M22.283 45.8729L11.083 33.3662" stroke="#29B6FF" stroke-width="3" stroke-linecap="round" stroke-linejoin="round"/>
<path d="M33.5996 45.5467L45.0096 33.4834" stroke="#29B6FF" stroke-width="3" stroke-linecap="round" stroke-linejoin="round"/>
<path d="M36.3299 28.0001C36.3329 29.3118 36.026 30.6056 35.4344 31.7762C34.8427 32.9469 33.983 33.9613 32.9251 34.7368C31.8673 35.5124 30.6413 36.0271 29.3469 36.2392C28.0525 36.4513 26.7263 36.3547 25.4763 35.9574C24.2262 35.56 23.0877 34.873 22.1534 33.9524C21.2191 33.0318 20.5154 31.9036 20.0996 30.6595C19.6838 29.4155 19.5676 28.0909 19.7605 26.7935C19.9535 25.4961 20.4501 24.2626 21.2099 23.1934C21.842 22.3214 22.6338 21.5771 23.5432 21.0001C24.7957 20.1903 26.2431 19.7326 27.7334 19.6751C29.2238 19.6176 30.7021 19.9625 32.0132 20.6734" stroke="#29B6FF" stroke-width="3" stroke-linecap="round" stroke-linejoin="round"/>
</g>
<defs>
<clipPath id="clip0_1369_8402">
<rect width="56" height="56" fill="white"/>
</clipPath>
</defs>
</svg>
