<svg width="56" height="56" viewBox="0 0 56 56" fill="none" xmlns="http://www.w3.org/2000/svg">
<path d="M8.0496 28.0801H3.79202C2.69984 28.0801 1.81445 28.9655 1.81445 30.0576V45.3663C1.81445 46.4585 2.69984 47.3439 3.79202 47.3439H8.0496C9.14178 47.3439 10.0272 46.4585 10.0272 45.3663V30.0576C10.0272 28.9655 9.14178 28.0801 8.0496 28.0801Z" stroke="#29B6FF" stroke-width="3" stroke-linecap="round" stroke-linejoin="round"/>
<path d="M16.4487 46.2045L10.1671 46.3441L9.91113 29.7558L15.7508 26.01C16.7077 25.399 17.8367 25.1141 18.969 25.198C20.1013 25.2818 21.176 25.73 22.0324 26.4753C23.1851 27.5968 24.439 28.6093 25.7782 29.4999L28.1047 31.2215" stroke="#29B6FF" stroke-width="3" stroke-linecap="round" stroke-linejoin="round"/>
<path d="M33.5488 33.6182L44.7628 43.2035" stroke="#29B6FF" stroke-width="3" stroke-linecap="round" stroke-linejoin="round"/>
<path d="M47.9504 47.3447H52.208C53.3002 47.3447 54.1855 46.4593 54.1855 45.3672V30.0585C54.1855 28.9663 53.3002 28.0809 52.208 28.0809H47.9504C46.8582 28.0809 45.9728 28.9663 45.9728 30.0585V45.3672C45.9728 46.4593 46.8582 47.3447 47.9504 47.3447Z" stroke="#29B6FF" stroke-width="3" stroke-linecap="round" stroke-linejoin="round"/>
<path d="M33.5488 33.6177L27.4998 37.7124C26.9197 38.1737 26.1952 38.4151 25.4544 38.3938C24.7136 38.3725 24.0041 38.0899 23.4516 37.596L22.0789 36.363L29.7798 29.5229C30.1256 29.2156 30.532 28.9843 30.9729 28.844C31.4138 28.7037 31.8792 28.6576 32.339 28.7086L45.5538 29.3601L45.3676 40.3646C45.3425 42.0035 44.8163 43.5954 43.8597 44.9263C42.9031 46.2573 41.562 47.2634 40.0166 47.8096L30.8965 50.997L28.0814 53.4864L15.8438 45.4365L17.8678 42.761C18.2981 42.1949 18.8995 41.7827 19.5827 41.5857C20.266 41.3887 20.9945 41.4174 21.6601 41.6675L30.2451 44.8316L30.501 50.1361" stroke="#29B6FF" stroke-width="3" stroke-linecap="round" stroke-linejoin="round"/>
<path d="M33.1299 42.5283L36.0381 47.9259" stroke="#29B6FF" stroke-width="3" stroke-linecap="round" stroke-linejoin="round"/>
<path d="M23 44L20 48" stroke="#29B6FF" stroke-width="3" stroke-linecap="round" stroke-linejoin="round"/>
<path d="M26.9875 45.5527L23.707 50.7177" stroke="#29B6FF" stroke-width="3" stroke-linecap="round" stroke-linejoin="round"/>
<path d="M36.2939 41.0625L39.2021 46.4601" stroke="#29B6FF" stroke-width="3" stroke-linecap="round" stroke-linejoin="round"/>
<path d="M49.16 22.1014V17.0528H43.5065C43.2542 16.398 42.9589 15.7607 42.6224 15.145L46.531 11.3295L39.1791 4.09389L35.2007 8.09556C34.5601 7.80692 33.8992 7.56585 33.2232 7.37433V2H22.9864V7.65351C22.3316 7.90583 21.6943 8.20117 21.0786 8.5376L17.2863 4.74533L10.0508 11.8878L13.9594 15.9593C13.6707 16.5999 13.4297 17.2609 13.2381 17.9369H7.93359V22.5899" stroke="#29B6FF" stroke-width="3" stroke-linecap="round" stroke-linejoin="round"/>
<path d="M21.6836 19.9375C22.3004 18.331 23.4612 16.9917 24.9638 16.153C26.4665 15.3143 28.2157 15.0293 29.9069 15.3476C31.5981 15.6659 33.124 16.5674 34.2189 17.895C35.3138 19.2226 35.9083 20.8922 35.8988 22.6131" stroke="#29B6FF" stroke-width="3" stroke-linecap="round" stroke-linejoin="round"/>
</svg>
