<svg width="56" height="56" viewBox="0 0 56 56" fill="none" xmlns="http://www.w3.org/2000/svg">
<g clip-path="url(#clip0_1369_8395)">
<path d="M47.0328 41.1495C44.1802 45.7017 39.9329 49.2101 34.924 51.1517C29.9151 53.0934 24.4128 53.3642 19.2374 51.924C14.062 50.4837 9.49065 47.4094 6.20479 43.1594C2.91893 38.9094 1.09453 33.7113 1.00357 28.34C0.912616 22.9687 2.55997 17.7118 5.70005 13.353C8.84013 8.99416 13.3048 5.76687 18.4285 4.15219C23.5521 2.53752 29.0604 2.62193 34.1322 4.39286C39.204 6.16378 43.5676 9.52637 46.5727 13.9794" stroke="#29B6FF" stroke-width="3" stroke-miterlimit="10" stroke-linecap="round"/>
<path d="M37.6616 40.4479C35.2755 42.675 32.3033 44.1747 29.0943 44.7708C25.8852 45.3669 22.5727 45.0346 19.546 43.813C16.5193 42.5913 13.9043 40.5311 12.0081 37.8744C10.112 35.2177 9.01361 32.0749 8.84206 28.8155C8.67051 25.556 9.43293 22.3153 11.0397 19.4743C12.6465 16.6332 15.0308 14.3098 17.9126 12.7772C20.7943 11.2446 24.0536 10.5664 27.3075 10.8223C30.5614 11.0783 33.6746 12.2577 36.2813 14.2221" stroke="#29B6FF" stroke-width="3" stroke-miterlimit="10" stroke-linecap="round"/>
<path d="M25.9167 36.5239C30.6778 36.5239 34.5375 32.6642 34.5375 27.9031C34.5375 23.1419 30.6778 19.2822 25.9167 19.2822C21.1556 19.2822 17.2959 23.1419 17.2959 27.9031C17.2959 32.6642 21.1556 36.5239 25.9167 36.5239Z" stroke="#29B6FF" stroke-width="3" stroke-miterlimit="10"/>
<path d="M25.917 27.9043H50.8349" stroke="#29B6FF" stroke-width="3" stroke-linecap="round" stroke-linejoin="round"/>
<path d="M54.9997 19.4766H41.0272L36.8379 27.4678H50.8103L54.9997 19.4766Z" stroke="#29B6FF" stroke-width="3" stroke-linecap="round" stroke-linejoin="round"/>
<path d="M54.9997 35.6514H41.0272L36.8379 27.6602H50.8103L54.9997 35.6514Z" stroke="#29B6FF" stroke-width="3" stroke-linecap="round" stroke-linejoin="round"/>
</g>
<defs>
<clipPath id="clip0_1369_8395">
<rect width="56" height="56" fill="white"/>
</clipPath>
</defs>
</svg>
