<svg width="56" height="56" viewBox="0 0 56 56" fill="none" xmlns="http://www.w3.org/2000/svg">
<path d="M3.16113 35.4826C3.16113 35.4826 19.6235 23.4783 36.5039 32.7659" stroke="#29B6FF" stroke-width="3" stroke-linecap="round" stroke-linejoin="round"/>
<path d="M34.0198 29.9793L40.5676 16.7444H31.814C31.2418 16.7167 30.7001 16.4786 30.2929 16.0757C29.8857 15.6728 29.6418 15.1336 29.6081 14.5618V8.08363C29.6133 7.70295 29.7621 7.33829 30.0248 7.06271C30.2874 6.78713 30.6445 6.62099 31.0245 6.5976H35.0647V3.41657C35.0647 3.04092 35.2139 2.68066 35.4795 2.41504C35.7451 2.14942 36.1054 2.00019 36.481 2.00019H44.4452C44.8277 1.9948 45.2033 2.10198 45.5253 2.3084C45.8473 2.51482 46.1015 2.81137 46.2563 3.16115L52.4326 13.9813C52.7613 14.7117 52.9352 15.5023 52.9434 16.3032L53.2453 46.3257C53.2476 46.8793 53.07 47.4187 52.7391 47.8626C52.4083 48.3065 51.9422 48.6309 51.411 48.7869C45.5133 50.4819 29.0973 58.0746 3.50977 51.1088" stroke="#29B6FF" stroke-width="3" stroke-linecap="round" stroke-linejoin="round"/>
<path d="M35.0645 5.41406V10.5223C35.0704 10.8406 35.1995 11.1443 35.4247 11.3695C35.6498 11.5946 35.9535 11.7237 36.2719 11.7297L39.8012 12.3566C40.0784 12.3584 40.3524 12.2966 40.602 12.1758C40.8516 12.0551 41.0701 11.8786 41.2408 11.66C41.6897 11.0162 41.9494 10.2596 41.9905 9.47577C42.0315 8.69196 41.8522 7.91232 41.473 7.22516" stroke="#29B6FF" stroke-width="3" stroke-linecap="round" stroke-linejoin="round"/>
<path d="M5.64541 27.588L2 25.9395" stroke="#29B6FF" stroke-width="3" stroke-linecap="round" stroke-linejoin="round"/>
<path d="M12.4719 19.6005L10.1035 16.373" stroke="#29B6FF" stroke-width="3" stroke-linecap="round" stroke-linejoin="round"/>
<path d="M22.3404 15.9783L21.876 12.0078" stroke="#29B6FF" stroke-width="3" stroke-linecap="round" stroke-linejoin="round"/>
<path d="M36.3878 38.3848C36.3878 38.3848 28.0986 46.465 9.29102 44.7236" stroke="#29B6FF" stroke-width="3" stroke-linecap="round" stroke-linejoin="round"/>
<path d="M46.3955 19.9258L44.4219 40.7302" stroke="#29B6FF" stroke-width="3" stroke-linecap="round" stroke-linejoin="round"/>
</svg>
