<svg width="56" height="56" viewBox="0 0 56 56" fill="none" xmlns="http://www.w3.org/2000/svg">
<path d="M20.7992 39.3961C17.7997 37.7975 15.4207 35.242 14.0405 32.136C12.6603 29.0299 12.3581 25.5516 13.182 22.2541C14.0059 18.9566 15.9085 16.0291 18.5873 13.9372C21.2662 11.8453 24.5675 10.709 27.9664 10.709C31.3653 10.709 34.6666 11.8453 37.3454 13.9372C40.0243 16.0291 41.9269 18.9566 42.7508 22.2541C43.5746 25.5516 43.2725 29.0299 41.8923 32.136C40.5121 35.242 38.1331 37.7975 35.1336 39.3961" stroke="#29B6FF" stroke-width="3" stroke-linecap="round" stroke-linejoin="round"/>
<path d="M34.9755 39.9609V43.1941H21.0254V39.9609" stroke="#29B6FF" stroke-width="3" stroke-linecap="round" stroke-linejoin="round"/>
<path d="M38.9546 43.3076H17.0459V48.5983H38.9546V43.3076Z" stroke="#29B6FF" stroke-width="3" stroke-linecap="round" stroke-linejoin="round"/>
<path d="M35.6077 48.5762H20.4141V53.8668H35.6077V48.5762Z" stroke="#29B6FF" stroke-width="3" stroke-linecap="round" stroke-linejoin="round"/>
<path d="M37.1913 28.0909V23.569H34.6138C34.5186 23.269 34.3896 22.9808 34.2294 22.7099L35.9252 21.0141L32.7372 17.7583L30.9737 19.5219L30.0919 19.2054V16.7861H25.57V19.341L24.6656 19.7254L22.9699 18.0297L19.7367 21.3081L21.5229 23.0942C21.3903 23.3777 21.2844 23.6729 21.2063 23.976H18.7871V28.4979H21.342C21.4329 28.7996 21.562 29.0883 21.7264 29.3571L20.0306 31.0528L23.309 34.2634L25.0726 32.4772C25.3653 32.6063 25.6677 32.7121 25.9769 32.7937V35.1904H30.4989V32.6129C30.7956 32.5003 31.0829 32.3642 31.358 32.2059L33.0537 33.9016L36.2869 30.6684L34.5007 28.9049C34.6265 28.6186 34.7322 28.324 34.8173 28.0231L37.1913 28.0909Z" stroke="#29B6FF" stroke-width="2" stroke-linecap="round" stroke-linejoin="round"/>
<path d="M28.0118 29.2892C29.8224 29.2892 31.2902 27.8214 31.2902 26.0108C31.2902 24.2002 29.8224 22.7324 28.0118 22.7324C26.2012 22.7324 24.7334 24.2002 24.7334 26.0108C24.7334 27.8214 26.2012 29.2892 28.0118 29.2892Z" stroke="#29B6FF" stroke-width="2" stroke-linecap="round" stroke-linejoin="round"/>
<path d="M7.88884 25.5586H4" stroke="#29B6FF" stroke-width="3" stroke-linecap="round" stroke-linejoin="round"/>
<path d="M10.7147 15.7011L7.32324 13.7793" stroke="#29B6FF" stroke-width="3" stroke-linecap="round" stroke-linejoin="round"/>
<path d="M18.018 8.53372L16.0283 5.1875" stroke="#29B6FF" stroke-width="3" stroke-linecap="round" stroke-linejoin="round"/>
<path d="M27.9207 5.88885L27.8076 2" stroke="#29B6FF" stroke-width="3" stroke-linecap="round" stroke-linejoin="round"/>
<path d="M37.8242 8.4435L39.6556 5.00684" stroke="#29B6FF" stroke-width="3" stroke-linecap="round" stroke-linejoin="round"/>
<path d="M45.1943 15.5656L48.4727 13.4629" stroke="#29B6FF" stroke-width="3" stroke-linecap="round" stroke-linejoin="round"/>
<path d="M48.1113 25.3783L52.0002 25.1748" stroke="#29B6FF" stroke-width="3" stroke-linecap="round" stroke-linejoin="round"/>
<path d="M45.8047 35.3721L49.2866 37.0904" stroke="#29B6FF" stroke-width="3" stroke-linecap="round" stroke-linejoin="round"/>
<path d="M11.3929 37.3389L8.22754 39.6224" stroke="#29B6FF" stroke-width="3" stroke-linecap="round" stroke-linejoin="round"/>
</svg>
