<svg width="56" height="56" viewBox="0 0 56 56" fill="none" xmlns="http://www.w3.org/2000/svg">
<g clip-path="url(#clip0_1369_8439)">
<path d="M53.4309 25.9914L47.4059 19.9664V11.4659C47.4059 10.7082 47.1065 9.98107 46.5729 9.44306C46.0392 8.90505 45.3146 8.5997 44.5568 8.59354H36.0331L30.0314 2.59187C29.7666 2.32568 29.4519 2.11444 29.1052 1.9703C28.7586 1.82616 28.3868 1.75195 28.0114 1.75195C27.636 1.75195 27.2642 1.82616 26.9176 1.9703C26.5709 2.11444 26.2561 2.32568 25.9914 2.59187L19.9664 8.59354H11.4659C10.7041 8.59354 9.97352 8.89617 9.43485 9.43485C8.89617 9.97352 8.59354 10.7041 8.59354 11.4659V19.9664L2.59187 25.9914C2.32568 26.2561 2.11444 26.5709 1.9703 26.9176C1.82616 27.2642 1.75195 27.636 1.75195 28.0114C1.75195 28.3868 1.82616 28.7586 1.9703 29.1052C2.11444 29.4519 2.32568 29.7666 2.59187 30.0314L8.59354 36.0331V44.5568C8.5997 45.3146 8.90505 46.0392 9.44306 46.5729C9.98107 47.1065 10.7082 47.4059 11.4659 47.4059H19.9664L25.9914 53.4309C26.532 53.9573 27.2568 54.2518 28.0114 54.2518C28.766 54.2518 29.4907 53.9573 30.0314 53.4309L36.0331 47.4059H44.5568C45.3125 47.4059 46.0371 47.1057 46.5714 46.5714C47.1057 46.0371 47.4059 45.3125 47.4059 44.5568V36.0331L53.4309 30.0314C53.9573 29.4907 54.2518 28.766 54.2518 28.0114C54.2518 27.2568 53.9573 26.532 53.4309 25.9914Z" stroke="#29B6FF" stroke-width="3" stroke-miterlimit="10"/>
<path d="M27.743 31.8765C33.2759 31.8765 37.7613 27.3912 37.7613 21.8582C37.7613 16.3252 33.2759 11.8398 27.743 11.8398C22.21 11.8398 17.7246 16.3252 17.7246 21.8582C17.7246 27.3912 22.21 31.8765 27.743 31.8765Z" stroke="#29B6FF" stroke-width="3" stroke-linecap="round" stroke-linejoin="round"/>
<path d="M21.4609 29.5879V42.899L27.9297 36.8506L34.0481 42.899V29.5879" stroke="#29B6FF" stroke-width="3" stroke-linecap="round" stroke-linejoin="round"/>
</g>
<defs>
<clipPath id="clip0_1369_8439">
<rect width="56" height="56" fill="white"/>
</clipPath>
</defs>
</svg>
