<svg width="56" height="56" viewBox="0 0 56 56" fill="none" xmlns="http://www.w3.org/2000/svg">
<g clip-path="url(#clip0_1369_8390)">
<path d="M21.0875 24.2637H16.9541C15.9094 24.2637 15.0625 25.1106 15.0625 26.1552V38.3688C15.0625 39.4134 15.9094 40.2603 16.9541 40.2603H21.0875C22.1322 40.2603 22.9791 39.4134 22.9791 38.3688V26.1552C22.9791 25.1106 22.1322 24.2637 21.0875 24.2637Z" stroke="#29B6FF" stroke-width="3" stroke-miterlimit="10"/>
<path d="M22.8389 25.8744C22.8389 25.8744 29.0741 20.5033 29.2609 18.2147C29.5645 14.7352 33.6045 15.2956 33.6746 17.701C33.6481 20.0438 33.4843 22.3831 33.1842 24.7068C33.1705 24.8145 33.1805 24.9238 33.2134 25.0273C33.2463 25.1307 33.3013 25.2257 33.3746 25.3058C33.448 25.3858 33.5379 25.4488 33.6381 25.4906C33.7383 25.5323 33.8463 25.5518 33.9548 25.5475L39.9331 25.6876C40.0923 25.6925 40.2483 25.7334 40.3894 25.8074C40.5304 25.8814 40.6528 25.9864 40.7473 26.1146C40.8417 26.2429 40.9058 26.3909 40.9347 26.5475C40.9636 26.7041 40.9565 26.8653 40.9139 27.0187L37.9715 38.1113C37.8886 38.4323 37.7014 38.7165 37.4393 38.9195C37.1772 39.1224 36.8551 39.2324 36.5236 39.2322H23.0957L22.8389 25.8744Z" stroke="#29B6FF" stroke-width="3" stroke-miterlimit="10"/>
<path d="M53.4309 25.9914L47.4059 19.9664V11.4659C47.4059 10.7082 47.1065 9.98107 46.5729 9.44306C46.0392 8.90505 45.3146 8.5997 44.5568 8.59354H36.0331L30.0314 2.59187C29.7666 2.32568 29.4519 2.11444 29.1052 1.9703C28.7586 1.82616 28.3868 1.75195 28.0114 1.75195C27.636 1.75195 27.2642 1.82616 26.9176 1.9703C26.5709 2.11444 26.2561 2.32568 25.9914 2.59187L19.9664 8.59354H11.4659C10.7041 8.59354 9.97352 8.89617 9.43485 9.43485C8.89617 9.97352 8.59354 10.7041 8.59354 11.4659V19.9664L2.59187 25.9914C2.32568 26.2561 2.11444 26.5709 1.9703 26.9176C1.82616 27.2642 1.75195 27.636 1.75195 28.0114C1.75195 28.3868 1.82616 28.7586 1.9703 29.1052C2.11444 29.4519 2.32568 29.7666 2.59187 30.0314L8.59354 36.0331V44.5568C8.5997 45.3146 8.90505 46.0392 9.44306 46.5729C9.98107 47.1065 10.7082 47.4059 11.4659 47.4059H19.9664L25.9914 53.4309C26.532 53.9573 27.2568 54.2518 28.0114 54.2518C28.766 54.2518 29.4907 53.9573 30.0314 53.4309L36.0331 47.4059H44.5568C45.3125 47.4059 46.0371 47.1057 46.5714 46.5714C47.1057 46.0371 47.4059 45.3125 47.4059 44.5568V36.0331L53.4309 30.0314C53.9573 29.4907 54.2518 28.766 54.2518 28.0114C54.2518 27.2568 53.9573 26.532 53.4309 25.9914Z" stroke="#29B6FF" stroke-width="3" stroke-miterlimit="10"/>
</g>
<defs>
<clipPath id="clip0_1369_8390">
<rect width="56" height="56" fill="white"/>
</clipPath>
</defs>
</svg>
