<svg width="130" height="38" viewBox="0 0 130 38" fill="none" xmlns="http://www.w3.org/2000/svg">
<g clip-path="url(#clip0_1498_38876)">
<path d="M14.8909 8.45063C14.8909 7.73879 14.8111 7.05287 14.6536 6.39088C14.5001 5.73088 14.2468 5.14465 13.8959 4.63221C13.5469 4.12175 13.0903 3.71499 12.528 3.40792C11.9637 3.10284 11.2798 2.9533 10.4782 2.9533C9.63281 2.9533 8.90501 3.12478 8.28888 3.46973C7.67275 3.81269 7.15432 4.27329 6.72362 4.84955C6.29891 5.4258 5.94797 6.08181 5.6748 6.8136C5.40163 7.54538 5.19226 8.30508 5.04272 9.08671C4.89516 9.87232 4.79347 10.648 4.74163 11.4117C4.68779 12.1753 4.66187 12.8772 4.66187 13.5093C4.66187 14.3508 4.69776 15.25 4.76955 16.2031C4.84133 17.1543 4.97293 18.0954 5.17033 19.0206C5.36374 19.9478 5.63293 20.8351 5.98387 21.6825C6.33281 22.534 6.79142 23.2797 7.35571 23.9297C7.918 24.5798 8.60193 25.0942 9.4035 25.473C10.2091 25.8559 11.1622 26.0473 12.2628 26.0473C12.9248 26.0473 13.545 25.9855 14.1292 25.8619C14.7114 25.7382 15.2717 25.5648 15.8101 25.3375C16.3465 25.1101 16.8669 24.835 17.3674 24.512C17.8659 24.1869 18.3683 23.824 18.8748 23.4213V27.1539C17.7721 27.8139 16.5897 28.2746 15.3275 28.5338C14.0614 28.795 12.8012 28.9246 11.545 28.9246C10.1213 28.9246 8.8432 28.7352 7.71661 28.3583C6.59003 27.9834 5.59704 27.459 4.74163 26.7851C3.88622 26.1091 3.15843 25.3135 2.55426 24.3943C1.95009 23.4731 1.46556 22.4682 1.0887 21.3795C0.711843 20.2927 0.436677 19.1402 0.263202 17.9299C0.0877341 16.7176 0 15.4833 0 14.2271C0 13.0467 0.0777643 11.8902 0.233293 10.7576C0.388822 9.62109 0.644048 8.54634 1.00097 7.53142C1.35988 6.51251 1.8145 5.57934 2.37281 4.7319C2.93112 3.88248 3.61106 3.14671 4.41661 2.5226C5.21819 1.90049 6.14936 1.41795 7.20417 1.07499C8.25897 0.732027 9.46731 0.560547 10.8292 0.560547C12.0874 0.560547 13.2718 0.716076 14.3764 1.02713C15.4851 1.33819 16.4541 1.82073 17.2836 2.46677C18.1131 3.11281 18.7711 3.93233 19.2556 4.92532C19.7422 5.91831 19.9854 7.09474 19.9854 8.45263H14.8929L14.8909 8.45063Z" fill="#FA7598"/>
<path d="M32.4748 28.4761V25.8521H32.397C31.8268 26.8112 31.075 27.5609 30.1419 28.1032C29.2107 28.6496 28.1798 28.9228 27.0512 28.9228C26.3793 28.9228 25.7292 28.8091 25.1071 28.5798C24.485 28.3565 23.9347 28.0335 23.4541 27.6207C22.9736 27.204 22.5927 26.7055 22.3076 26.1232C22.0225 25.541 21.8789 24.891 21.8789 24.1791C21.8789 23.2858 22.0464 22.5162 22.3854 21.8761C22.7204 21.2341 23.173 20.6877 23.7373 20.2331C24.2976 19.7805 24.9456 19.4116 25.6714 19.1245C26.3952 18.8393 27.1509 18.612 27.9346 18.4425C28.7182 18.275 29.5018 18.1554 30.2874 18.0836C31.071 18.0118 31.7988 17.958 32.4728 17.9181V16.2452C32.4728 15.9341 32.4688 15.5832 32.4628 15.1864C32.4568 14.7916 32.4289 14.3908 32.3831 13.982C32.3392 13.5733 32.2634 13.1785 32.1617 12.7956C32.0581 12.4128 31.9065 12.0698 31.7051 11.7648C31.5017 11.4597 31.2505 11.2184 30.9474 11.035C30.6443 10.8555 30.2635 10.7638 29.8109 10.7638C29.1728 10.7638 28.6623 10.8814 28.2715 11.1147C27.8827 11.348 27.5776 11.6611 27.3603 12.0479C27.139 12.4367 26.9874 12.8814 26.9037 13.3799C26.8179 13.8784 26.7621 14.3868 26.7382 14.9052H22.521C22.5987 13.8046 22.824 12.8834 23.1989 12.1356C23.5758 11.3879 24.0782 10.7897 24.7063 10.3351C25.3324 9.88246 26.0802 9.56143 26.9416 9.37201C27.803 9.18458 28.7601 9.08887 29.8109 9.08887C31.1189 9.08887 32.2016 9.23642 33.067 9.52754C33.9264 9.82065 34.6103 10.2593 35.1168 10.8495C35.6213 11.4397 35.9802 12.1835 36.1855 13.0768C36.3929 13.9721 36.4966 15.0269 36.4966 16.2452V28.4721H32.4728L32.4748 28.4761ZM32.4748 19.595C32.06 19.619 31.6194 19.6628 31.1528 19.7206C30.6842 19.7785 30.2236 19.8662 29.763 19.9838C29.3044 20.1015 28.8598 20.255 28.439 20.4484C28.0183 20.6419 27.6474 20.8811 27.3224 21.1663C26.9974 21.4514 26.7402 21.7924 26.5428 22.1872C26.3494 22.584 26.2517 23.0486 26.2517 23.577C26.2517 23.9279 26.3015 24.2689 26.3972 24.6078C26.4949 24.9448 26.6385 25.2479 26.8279 25.5211C27.0133 25.7942 27.2566 26.0096 27.5457 26.1731C27.8368 26.3346 28.1778 26.4164 28.5666 26.4164C28.8259 26.4164 29.0871 26.3765 29.3543 26.3007C29.6194 26.2209 29.8627 26.1232 30.082 26.0076C30.8856 25.5928 31.4838 25.0126 31.8786 24.2669C32.2734 23.5211 32.4728 22.7076 32.4728 21.8263V19.593L32.4748 19.595Z" fill="#FA7598"/>
<path d="M41.4863 28.4756V1.00684H45.5101V28.4756H41.4863Z" fill="#FA7598"/>
<path d="M60.167 15.7047C60.167 15.2122 60.147 14.6778 60.1072 14.1016C60.0693 13.5253 59.9616 12.991 59.7762 12.4985C59.5947 12.0039 59.3215 11.5932 58.9507 11.2622C58.5818 10.9332 58.0673 10.7657 57.4053 10.7657C56.6795 10.7657 56.0913 10.985 55.6387 11.4177C55.1861 11.8524 54.8291 12.3868 54.5699 13.0229C54.3087 13.6589 54.1353 14.3229 54.0435 15.0248C53.9518 15.7267 53.9079 16.3468 53.9079 16.8911C53.9079 17.591 53.9558 18.3208 54.0535 19.0785C54.1492 19.8382 54.3107 20.5839 54.538 21.3137C54.7653 22.0435 55.0525 22.7454 55.4034 23.4114C55.7524 24.0813 56.1791 24.6636 56.6855 25.1621C57.192 25.6626 57.7742 26.0613 58.4362 26.3545C59.0982 26.6555 59.8539 26.8031 60.7113 26.8031C61.2916 26.8031 61.8658 26.7393 62.4281 26.6117C62.9924 26.4821 63.5467 26.3046 64.0931 26.0853V27.9516C63.2736 28.2507 62.4421 28.486 61.5946 28.6615C60.7452 28.8369 59.8938 28.9247 59.0404 28.9247C57.3675 28.9247 55.9338 28.6615 54.7354 28.1351C53.5371 27.6106 52.5501 26.8789 51.7784 25.9397C51.0067 25.0006 50.4405 23.876 50.0795 22.5659C49.7147 21.2559 49.5332 19.8163 49.5332 18.251C49.5332 16.9151 49.6828 15.6868 49.9799 14.5682C50.2789 13.4456 50.7535 12.4805 51.4015 11.669C52.0476 10.8614 52.8811 10.2273 53.898 9.77471C54.9149 9.32008 56.1432 9.09277 57.5808 9.09277C59.8101 9.09277 61.5009 9.63314 62.6534 10.7079C63.8079 11.7846 64.3822 13.4496 64.3822 15.7027H60.165L60.167 15.7047Z" fill="#FA7598"/>
<path d="M67.3809 4.99276V1.00684H71.7137V4.99276H67.3809ZM67.5384 28.4756V9.52103H71.5622V28.4756H67.5384Z" fill="#FA7598"/>
<path d="M91.2364 32.131C90.8855 33.3234 90.3352 34.3104 89.5814 35.096C88.8297 35.8796 87.8567 36.4659 86.6723 36.8567C85.4859 37.2455 84.0602 37.4409 82.4012 37.4409C81.466 37.4409 80.5468 37.3711 79.6456 37.2355C78.7443 37.1019 77.847 36.9165 76.9497 36.6812V32.7332C77.4303 33.0323 77.9068 33.3194 78.3794 33.5886C78.852 33.8617 79.3385 34.107 79.839 34.3283C80.3375 34.5477 80.8479 34.7231 81.3743 34.8527C81.8987 34.9823 82.453 35.0482 83.0373 35.0482C83.9306 35.0482 84.6703 34.9086 85.2526 34.6294C85.8348 34.3503 86.2974 33.9774 86.6423 33.5088C86.9833 33.0442 87.2365 32.5019 87.4001 31.8877C87.5616 31.2716 87.6633 30.6236 87.7111 29.9436C87.757 29.2617 87.7729 28.5738 87.759 27.8719C87.745 27.174 87.741 26.5001 87.741 25.852H87.6433C87.085 26.8111 86.3991 27.4871 85.5895 27.8819C84.782 28.2767 83.8289 28.4741 82.7242 28.4741C81.791 28.4741 80.9675 28.3445 80.2537 28.0853C79.5419 27.828 78.9257 27.4671 78.3973 27.0065C77.8749 26.5459 77.4283 26.0095 77.0674 25.3934C76.7065 24.7753 76.4153 24.1093 76.202 23.3895C75.9886 22.6697 75.8331 21.9199 75.7354 21.1443C75.6377 20.3666 75.5898 19.583 75.5898 18.7914C75.5898 17.5731 75.6895 16.3847 75.8909 15.2242C76.0923 14.0677 76.4592 13.0329 76.9896 12.1256C77.52 11.2184 78.2498 10.4846 79.175 9.93028C80.1002 9.37197 81.2846 9.09082 82.7222 9.09082C83.9166 9.09082 84.9216 9.40985 85.7451 10.0439C86.5686 10.68 87.1987 11.5414 87.6413 12.6321H87.739V9.51952H91.7628V27.9098C91.7628 29.5309 91.5854 30.9366 91.2384 32.129L91.2364 32.131ZM87.5994 19.0108C87.5994 18.5801 87.5895 18.0975 87.5616 17.5592C87.5356 17.0228 87.4798 16.4824 87.3961 15.9381C87.3103 15.3937 87.1847 14.8633 87.0172 14.3429C86.8457 13.8265 86.6224 13.3679 86.3452 12.9731C86.0701 12.5763 85.7171 12.2552 85.2964 12.012C84.8737 11.7647 84.3732 11.6411 83.789 11.6411C83.2048 11.6411 82.7282 11.7607 82.3214 12.002C81.9127 12.2393 81.5657 12.5543 81.2826 12.9431C80.9955 13.332 80.7662 13.7746 80.5907 14.2751C80.4152 14.7736 80.2816 15.29 80.1919 15.8184C80.1022 16.3508 80.0404 16.8752 80.0085 17.3937C79.9766 17.9121 79.9606 18.3787 79.9606 18.7934C79.9606 19.2082 79.9726 19.6807 79.9965 20.2031C80.0264 20.7295 80.0842 21.2659 80.1819 21.8182C80.2796 22.3706 80.4132 22.903 80.5807 23.4214C80.7502 23.9418 80.9755 24.4044 81.2627 24.8112C81.5478 25.2219 81.8947 25.5489 82.3015 25.7962C82.7123 26.0414 83.2088 26.1631 83.789 26.1631C84.3991 26.1631 84.9176 26.0494 85.3443 25.8241C85.771 25.5968 86.1239 25.2937 86.4031 24.9109C86.6822 24.53 86.9016 24.0894 87.0651 23.5889C87.2266 23.0904 87.3482 22.574 87.422 22.0436C87.4997 21.5132 87.5496 20.9828 87.5695 20.4584C87.5895 19.936 87.5955 19.4534 87.5955 19.0127L87.5994 19.0108Z" fill="#FA7598"/>
<path d="M99.6371 16.8512C99.6371 17.9778 99.7747 19.1283 100.046 20.3028C100.319 21.4752 100.754 22.546 101.35 23.509C101.946 24.4761 102.706 25.2677 103.633 25.8819C104.558 26.498 105.683 26.8051 107.005 26.8051C108.249 26.8051 109.455 26.5399 110.622 26.0095V27.8359C110.139 28.0313 109.679 28.1988 109.238 28.3404C108.799 28.482 108.357 28.5956 107.916 28.6814C107.477 28.7651 107.025 28.8269 106.558 28.8628C106.09 28.9027 105.597 28.9246 105.081 28.9246C103.436 28.9246 102.016 28.6515 100.824 28.1051C99.6291 27.5628 98.6501 26.811 97.8785 25.8539C97.1048 24.8928 96.5365 23.7603 96.1656 22.4522C95.7968 21.1442 95.6113 19.7185 95.6113 18.1772C95.6113 16.8153 95.7629 15.5791 96.06 14.4625C96.3571 13.3498 96.8316 12.3947 97.4797 11.5951C98.1257 10.7976 98.9632 10.1834 99.9861 9.74875C101.009 9.31406 102.247 9.09473 103.701 9.09473C104.983 9.09473 106.084 9.27019 107.005 9.62113C107.924 9.97207 108.676 10.4825 109.26 11.1485C109.844 11.8145 110.275 12.628 110.552 13.5871C110.831 14.5462 110.971 15.6369 110.971 16.8552H99.6371V16.8512ZM106.849 13.4196C106.72 12.9072 106.512 12.4526 106.229 12.0597C105.942 11.6649 105.577 11.3499 105.13 11.1166C104.682 10.8833 104.149 10.7657 103.525 10.7657C102.901 10.7657 102.385 10.8873 101.934 11.1266C101.48 11.3658 101.097 11.6849 100.786 12.0797C100.475 12.4745 100.235 12.9291 100.068 13.4396C99.8983 13.952 99.7966 14.4804 99.7568 15.0248H107.047C107.047 14.4664 106.981 13.9341 106.851 13.4216L106.849 13.4196Z" fill="#FA7598"/>
<path d="M125.976 28.476V16.618C125.976 16.2032 125.96 15.7326 125.926 15.2082C125.894 14.6838 125.8 14.1873 125.647 13.7227C125.489 13.2542 125.254 12.8633 124.937 12.5463C124.622 12.2293 124.177 12.0698 123.609 12.0698C122.991 12.0698 122.43 12.2153 121.932 12.4985C121.435 12.7836 120.999 13.1624 120.624 13.635C120.247 14.1076 119.924 14.6439 119.653 15.2481C119.38 15.8503 119.16 16.4704 118.995 17.1045C118.825 17.7406 118.704 18.3647 118.626 18.9808C118.546 19.5969 118.508 20.1493 118.508 20.6418V28.476H114.484V9.52147H118.508V14.0338H118.584C118.909 13.3339 119.282 12.6839 119.711 12.0797C120.135 11.4756 120.624 10.9551 121.174 10.5125C121.724 10.0718 122.335 9.72486 123.009 9.47362C123.681 9.22039 124.424 9.09277 125.242 9.09277C126.059 9.09277 126.723 9.24631 127.319 9.54141C127.914 9.83851 128.406 10.2413 128.803 10.7478C129.198 11.2542 129.493 11.8404 129.692 12.5064C129.898 13.1744 129.995 13.8763 129.995 14.614V28.474H125.974L125.976 28.476Z" fill="#FA7598"/>
</g>
<defs>
<clipPath id="clip0_1498_38876">
<rect width="130" height="36.8782" fill="white" transform="translate(0 0.560547)"/>
</clipPath>
</defs>
</svg>
