<svg width="130" height="24" viewBox="0 0 130 24" fill="none" xmlns="http://www.w3.org/2000/svg">
<g clip-path="url(#clip0_1498_38841)">
<path d="M18.3037 14.9182H8.39127L8.94356 12.1711H22.2368C21.8282 15.5598 20.5304 18.259 18.3452 20.2718C16.16 22.2815 13.4289 23.2887 10.1535 23.2887C6.87806 23.2887 4.54281 22.382 2.72313 20.5671C0.908243 18.7539 0 16.2829 0 13.1464C0 11.448 0.292106 9.84222 0.877915 8.32423C1.46692 6.80783 2.30652 5.475 3.40152 4.32094C4.52525 3.13017 5.82297 2.22831 7.28988 1.62495C8.7552 1.01679 10.3578 0.711914 12.0993 0.711914C14.7538 0.711914 16.9262 1.3504 18.607 2.62258C20.2862 3.89954 21.4387 5.7703 22.0644 8.23963H18.6964C18.2367 6.72004 17.4418 5.55481 16.3117 4.74234C15.1783 3.92827 13.788 3.52124 12.1344 3.52124C9.60119 3.52124 7.49101 4.42789 5.79424 6.23958C4.10226 8.05447 3.25467 10.345 3.25467 13.1081C3.25467 15.322 3.88996 17.0938 5.15735 18.4282C6.42793 19.7595 8.10395 20.4283 10.1966 20.4283C12.0067 20.4283 13.6556 19.9223 15.1384 18.9183C16.6229 17.9127 17.6748 16.5814 18.3021 14.9198L18.3037 14.9182Z" fill="#231F20"/>
<path d="M42.1632 6.38337L38.9484 22.8403H35.9715L36.3178 21.185C35.7097 21.8347 34.993 22.3183 34.1709 22.6392C33.3489 22.9568 32.4183 23.1196 31.384 23.1196C29.2339 23.1196 27.4493 22.3774 26.0351 20.8993C24.6192 19.4196 23.9121 17.5584 23.9121 15.3189C23.9121 14.0356 24.1404 12.8065 24.6001 11.6429C25.0582 10.476 25.719 9.44011 26.5874 8.53346C27.3839 7.69545 28.3208 7.05218 29.3983 6.60684C30.4725 6.15671 31.6026 5.93164 32.7902 5.93164C34.1167 5.93164 35.2691 6.17746 36.2524 6.65632C37.2325 7.13997 38.0513 7.86146 38.7106 8.82876L39.1591 6.38177H42.1648L42.1632 6.38337ZM37.8422 14.0005C37.8422 12.4458 37.3921 11.1911 36.4886 10.235C35.5868 9.27889 34.4072 8.79843 32.9546 8.79843C31.2595 8.79843 29.8356 9.42574 28.6768 10.6756C27.5211 11.9254 26.9433 13.4626 26.9433 15.2838C26.9433 16.829 27.4094 18.074 28.34 19.0126C29.2722 19.9543 30.4917 20.4284 31.9969 20.4284C33.641 20.4284 35.0265 19.8091 36.1534 18.5784C37.2788 17.3509 37.8422 15.8217 37.8422 14.0005Z" fill="#231F20"/>
<path d="M49.8585 1.10449L45.6317 22.8401H42.6133L46.8241 1.10449H49.8585Z" fill="#231F20"/>
<path d="M50.0587 22.8404L52.7547 9.13856H49.998L50.5503 6.3851H53.2623L54.2743 1.10645H57.2991L56.3733 6.3851H59.039L58.4883 9.13856H55.837L53.0803 22.8404H50.0571H50.0587Z" fill="#231F20"/>
<path d="M77.0229 6.38337L73.8081 22.8403H70.8328L71.1776 21.185C70.5694 21.8347 69.8527 22.3183 69.0307 22.6392C68.2102 22.9568 67.2812 23.1196 66.2453 23.1196C64.0936 23.1196 62.309 22.3774 60.8948 20.8993C59.479 19.4196 58.7734 17.5584 58.7734 15.3189C58.7734 14.0356 59.0017 12.8065 59.4582 11.6429C59.9179 10.476 60.5788 9.44011 61.4487 8.53346C62.2452 7.69545 63.1806 7.05218 64.258 6.60684C65.3355 6.15671 66.4656 5.93164 67.6531 5.93164C68.978 5.93164 70.1289 6.17746 71.1121 6.65632C72.0922 7.13997 72.9127 7.86146 73.5703 8.82876L74.0188 6.38177H77.0229V6.38337ZM72.7051 14.0005C72.7051 12.4458 72.2518 11.1911 71.35 10.235C70.4465 9.27889 69.2685 8.79843 67.816 8.79843C66.1192 8.79843 64.697 9.42574 63.5381 10.6756C62.3809 11.9254 61.8046 13.4626 61.8046 15.2838C61.8046 16.829 62.2723 18.074 63.2029 19.0126C64.1335 19.9543 65.3514 20.4284 66.8598 20.4284C68.5039 20.4284 69.8878 19.8091 71.0148 18.5784C72.1417 17.3509 72.7067 15.8217 72.7067 14.0005H72.7051Z" fill="#231F20"/>
<path d="M77.248 22.8406L80.3096 6.38367H82.9657L82.6384 7.99904C83.3743 7.33502 84.1708 6.84179 85.0264 6.52574C85.8835 6.20809 86.8285 6.04688 87.8628 6.04688C88.0624 6.04688 88.214 6.05007 88.3194 6.05326C88.4231 6.05964 88.5157 6.06443 88.5939 6.07401L87.981 8.96634C86.0224 9.0254 84.6034 9.45159 83.7287 10.2401C82.8507 11.0286 82.1596 12.719 81.6536 15.3081L80.1611 22.839H77.2496L77.248 22.8406Z" fill="#231F20"/>
<path d="M104.759 17.3907C103.985 19.3477 102.88 20.8194 101.451 21.8074C100.018 22.7955 98.2702 23.2871 96.2063 23.2871C93.879 23.2871 91.9811 22.5512 90.5126 21.0732C89.0425 19.6015 88.3066 17.7004 88.3066 15.3795C88.3066 13.9748 88.5796 12.65 89.1271 11.4033C89.673 10.1583 90.4583 9.07606 91.4831 8.15824C92.2908 7.44314 93.1974 6.90043 94.2046 6.53649C95.215 6.17256 96.2893 5.99219 97.4354 5.99219C99.8201 5.99219 101.721 6.7456 103.139 8.25561C104.556 9.76243 105.265 11.8008 105.265 14.3691C105.265 14.6101 105.246 14.9884 105.204 15.504V15.5934H91.4496C91.5294 17.0874 91.9939 18.2766 92.8431 19.1577C93.697 20.0388 94.7904 20.481 96.1265 20.481C97.3348 20.481 98.358 20.2304 99.196 19.7292C100.037 19.2263 100.751 18.4458 101.333 17.3923H104.759V17.3907ZM102.008 12.9548C101.759 11.5693 101.239 10.5302 100.447 9.83745C99.6557 9.14629 98.5878 8.79673 97.2534 8.79673C95.919 8.79673 94.875 9.15108 93.954 9.8598C93.033 10.5669 92.3307 11.5981 91.8454 12.9548H102.008Z" fill="#231F20"/>
<path d="M112.171 6.38285L111.783 7.97906C112.57 7.35015 113.354 6.88087 114.136 6.56642C114.92 6.25994 115.694 6.10352 116.462 6.10352C118.157 6.10352 119.53 6.60313 120.579 7.60076C121.63 8.59679 122.159 9.89451 122.159 11.4907C122.159 12.0797 122.125 12.7054 122.061 13.3679C121.993 14.0319 121.894 14.7023 121.763 15.3823L120.302 22.8398H117.375L119.038 14.158C119.128 13.7525 119.193 13.3663 119.233 13.0023C119.274 12.6384 119.294 12.3144 119.294 12.0254C119.294 11.0613 119.013 10.3095 118.462 9.7732C117.903 9.23687 117.124 8.96711 116.125 8.96711C114.685 8.96711 113.493 9.45076 112.546 10.4133C111.598 11.3774 110.952 12.7709 110.607 14.589L109 22.8398H105.984L109.327 6.38285H112.168H112.171Z" fill="#231F20"/>
<path d="M125.479 7.148V3.61719H127.032C127.344 3.61719 127.582 3.6523 127.747 3.71775C127.91 3.78 128.037 3.89014 128.133 4.05295C128.234 4.21098 128.283 4.38975 128.283 4.5797C128.283 4.83031 128.202 5.04579 128.039 5.2134C127.879 5.38738 127.63 5.49592 127.292 5.54062C127.415 5.59968 127.507 5.66193 127.573 5.7162C127.707 5.84071 127.838 6.00192 127.956 6.19027L128.566 7.1496H127.986L127.518 6.41534C127.386 6.19826 127.273 6.04023 127.19 5.9285C127.097 5.81517 127.022 5.73855 126.952 5.69226C126.882 5.64756 126.813 5.61724 126.74 5.59808C126.688 5.58531 126.604 5.58052 126.478 5.58052H125.941V7.148H125.479ZM125.941 5.17668H126.937C127.15 5.17668 127.316 5.15114 127.434 5.11124C127.555 5.06814 127.645 4.99471 127.708 4.90054C127.769 4.79679 127.801 4.70101 127.801 4.5797C127.801 4.41689 127.742 4.27482 127.621 4.16469C127.501 4.05774 127.314 4.00666 127.049 4.00666H125.941V5.17668Z" fill="#231F20"/>
<path d="M126.812 2.20801C125.055 2.20801 123.631 3.63502 123.631 5.39404C123.631 7.15306 125.055 8.57847 126.812 8.57847C128.57 8.57847 130 7.15146 130 5.39404C130 3.63661 128.57 2.20801 126.812 2.20801ZM126.812 8.16506C125.285 8.16506 124.044 6.9264 124.044 5.39404C124.044 3.86168 125.285 2.62462 126.812 2.62462C128.34 2.62462 129.585 3.86328 129.585 5.39404C129.585 6.9248 128.343 8.16506 126.812 8.16506Z" fill="#231F20"/>
</g>
<defs>
<clipPath id="clip0_1498_38841">
<rect width="130" height="22.5768" fill="white" transform="translate(0 0.711914)"/>
</clipPath>
</defs>
</svg>
