<svg width="130" height="28" viewBox="0 0 130 28" fill="none" xmlns="http://www.w3.org/2000/svg">
<g clip-path="url(#clip0_1498_38854)">
<g style="mix-blend-mode:multiply">
<mask id="mask0_1498_38854" style="mask-type:luminance" maskUnits="userSpaceOnUse" x="0" y="-1" width="130" height="29">
<path d="M130 -0.000976562H0V28.0001H130V-0.000976562Z" fill="white"/>
</mask>
<g mask="url(#mask0_1498_38854)">
<path d="M127.152 10.8389C125.574 10.8313 124.293 12.105 124.287 13.6833C124.28 15.2635 125.553 16.5466 127.132 16.5542C128.706 16.558 129.995 15.2824 130.002 13.706C130.006 12.1296 128.734 10.8465 127.152 10.8389ZM127.133 16.1776C125.759 16.17 124.651 15.0572 124.656 13.6814C124.664 12.3094 125.784 11.2004 127.152 11.206C128.526 11.2136 129.632 12.3283 129.63 13.7022C129.62 15.0781 128.502 16.1814 127.133 16.1776Z" fill="#E31837"/>
<path d="M127.791 13.9961C127.731 13.9412 127.647 13.892 127.541 13.8352C127.838 13.7973 128.064 13.7008 128.207 13.5475C128.359 13.3942 128.429 13.205 128.429 12.9798C128.429 12.8057 128.387 12.6486 128.3 12.5029C128.213 12.361 128.098 12.2607 127.95 12.2039C127.806 12.1414 127.591 12.113 127.309 12.1093L125.919 12.1055L125.904 15.2659L126.324 15.2697V13.8655H126.809C126.921 13.8655 126.996 13.873 127.045 13.8806C127.106 13.8995 127.176 13.9241 127.235 13.9658C127.291 14.0055 127.365 14.0774 127.445 14.1815C127.52 14.278 127.621 14.4256 127.742 14.6149L128.156 15.2773L128.681 15.281L128.134 14.4143C128.028 14.2478 127.918 14.1058 127.795 13.9961M127.225 13.5116L126.328 13.5021L126.341 12.4537L127.331 12.4594C127.564 12.4594 127.734 12.5067 127.837 12.6108C127.944 12.7054 127.997 12.8284 127.997 12.9798C128.001 13.0801 127.973 13.1747 127.916 13.2675C127.855 13.3545 127.78 13.4113 127.672 13.4548C127.562 13.4889 127.416 13.5116 127.223 13.5116" fill="#E31837"/>
<path d="M20.3367 14.751C19.7576 14.751 19.2599 14.9781 18.8455 15.4304C18.4291 15.8751 18.2285 16.4107 18.2285 17.0238V25.7425C18.2285 26.3538 18.431 26.8855 18.8455 27.3284C19.2618 27.7731 19.7614 27.9983 20.3367 28.0002H29.1784V25.3545H20.7304V17.4269H29.1784V14.7529H20.3367V14.751Z" fill="#E31837"/>
<path d="M42.4493 27.9983V17.0238C42.4493 16.4107 42.2355 15.8751 41.8229 15.4304C41.4047 14.9781 40.8918 14.751 40.3108 14.751H33.602C33.0248 14.751 32.5195 14.9781 32.0975 15.4304C31.6868 15.877 31.4824 16.4107 31.4824 17.0238V27.9983H33.9918V23.6513H39.9456C39.9418 24.0128 39.9418 27.9983 39.9418 27.9983H42.4531H42.4493ZM39.938 20.9734H33.9881V17.4269H39.938V20.9734Z" fill="#E31837"/>
<path d="M53.4018 27.9983H56.5206C56.5206 27.9983 53.4245 23.2595 53.0669 22.7069C53.4548 22.7088 54.0509 22.7088 54.0509 22.7088C54.6263 22.7088 55.1372 22.4874 55.5592 22.0426C55.9756 21.6017 56.1894 21.068 56.1894 20.4567V17.0219C56.1894 16.4106 55.9737 15.875 55.5611 15.4284C55.1372 14.9761 54.63 14.749 54.0528 14.749H45.2188V27.9945H47.732V22.7069H49.9443C50.054 22.8829 53.4018 27.9964 53.4018 27.9964M53.6895 17.425V20.0669C53.4965 20.0688 48.0972 20.0688 47.732 20.0688V17.425C48.0972 17.4231 53.4965 17.4231 53.6895 17.425Z" fill="#E31837"/>
<path d="M62.2218 27.9964H64.735C64.735 27.9964 64.7312 17.813 64.7312 17.425H68.2342V14.751H58.7207V17.425H62.2199V27.9964H62.2218Z" fill="#E31837"/>
<path d="M70.6719 14.751V27.9964H73.1756V14.751H72.9693H70.6719Z" fill="#E31837"/>
<path d="M78.5564 22.7088H85.5548V20.0707H78.5564V17.425H87.0063V14.751H78.1628C77.5837 14.751 77.0841 14.9781 76.6677 15.4304C76.2571 15.877 76.0508 16.4088 76.0508 17.0238V28.0002H78.5564V22.7107V22.7088Z" fill="#E31837"/>
<path d="M95.8297 25.3526H91.7495V14.751H91.5452H89.2363V28.0002L95.8259 27.9983L95.8297 25.3526Z" fill="#E31837"/>
<path d="M100.155 14.751C99.574 14.751 99.0782 14.9781 98.6618 15.4304C98.2511 15.8789 98.043 16.4107 98.043 17.0238L98.0468 25.7425C98.043 26.3538 98.2511 26.8855 98.6637 27.3284C99.0781 27.7731 99.574 27.9983 100.155 28.0002H109.004V25.3545H100.552V22.7107H107.549V20.0726C107.549 20.0726 100.929 20.0726 100.552 20.0707V17.4288C100.761 17.4269 109.004 17.4288 109.004 17.4288V14.7529H100.155V14.751Z" fill="#E31837"/>
<path d="M122.75 14.751H119.629C119.629 14.751 117.23 18.5094 116.931 18.9731C116.628 18.5094 114.23 14.751 114.23 14.751H111.111C111.111 14.751 115.239 21.174 115.371 21.3822C115.241 21.5942 111.111 27.9983 111.111 27.9983H114.23C114.23 27.9983 116.628 24.2607 116.933 23.7989C117.23 24.2626 119.627 27.9983 119.627 27.9983H122.748C122.748 27.9983 118.617 21.5942 118.481 21.3822C118.617 21.1759 122.748 14.751 122.748 14.751" fill="#E31837"/>
<path d="M13.6848 7.69045L11.4365 7.71127C10.8839 7.72073 10.3881 7.95162 10.0304 8.31876C9.66702 8.6859 9.4456 9.1893 9.45128 9.7419L9.47967 11.9864C9.48724 13.0935 10.3975 13.9829 11.5084 13.9678H11.533L13.7529 13.9489C14.4001 13.9394 14.9679 13.6177 15.3312 13.1351C15.5886 12.7945 15.7438 12.3724 15.7343 11.9183L15.7154 9.66999C15.7002 8.56856 14.7862 7.67342 13.6829 7.68667" fill="#E31837"/>
<path d="M14.6856 15.8243C14.2844 15.4874 13.781 15.2755 13.2246 15.2755H10.6111C9.32992 15.2755 8.2777 14.2024 8.2777 12.8834V10.2055C8.2777 8.88834 7.23116 7.81152 5.94238 7.81152H2.32964C1.04843 7.81342 0 8.89024 0 10.2055V21.3749C0 21.4733 0.0151398 21.5679 0.0302796 21.6607C0.083269 22.1527 0.287657 22.5975 0.592346 22.9514C0.622625 22.9873 0.652905 23.0327 0.685077 23.0687C0.704002 23.0876 0.726712 23.1009 0.747529 23.1198C1.16766 23.521 1.72026 23.7727 2.33153 23.7727H13.2284C13.7564 23.7727 14.239 23.5815 14.6289 23.275C15.1928 22.8359 15.5581 22.1489 15.5581 21.3768V17.6751C15.5581 17.5824 15.5429 17.4897 15.5335 17.4007C15.4597 16.7667 15.1512 16.2103 14.6875 15.8243" fill="#E31837"/>
<path d="M21.3709 12.3588C22.3664 12.3588 23.1801 11.5242 23.1801 10.5061V1.85365C23.1801 0.833606 22.3664 -0.000976562 21.3709 -0.000976562H12.9381C11.9445 -0.000976562 11.127 0.833606 11.127 1.85365V4.72454C11.127 5.74459 11.9445 6.57917 12.9381 6.57917H14.9592C15.9547 6.57917 16.7684 7.40997 16.7684 8.43191V10.5061C16.7665 11.5242 17.5841 12.3588 18.5795 12.3588H21.3728H21.3709Z" fill="#E31837"/>
</g>
</g>
</g>
<defs>
<clipPath id="clip0_1498_38854">
<rect width="130" height="28.0011" fill="white" transform="translate(0 -0.000976562)"/>
</clipPath>
</defs>
</svg>
