<svg width="130" height="36" viewBox="0 0 130 36" fill="none" xmlns="http://www.w3.org/2000/svg">
<g clip-path="url(#clip0_1498_38831)">
<path d="M21.3053 27.2779C19.3229 27.8703 15.6361 28.683 12.1304 28.683C7.28482 28.683 4.03239 27.537 2.07375 25.3546C0.154864 23.1731 -0.463181 19.9188 0.348804 16.2573C2.2241 7.97366 9.69481 3.24023 18.4006 3.24023C21.8281 3.24023 24.3282 3.8695 25.5056 4.42311L23.2367 8.97221C21.9182 8.34359 20.2439 7.89961 17.329 7.89961C12.326 7.89961 7.92242 10.5253 6.71742 15.9621C5.56949 21.1398 8.37217 24.1342 13.296 24.1342C14.6353 24.1342 15.7714 23.987 16.2846 23.8018L17.4486 18.5509H13.3515L14.3273 14.1499H24.2153L21.3053 27.2783V27.2779Z" fill="#0067B1"/>
<path d="M42.2854 24.0612C41.9091 25.7624 41.6183 27.4265 41.6334 28.4253H36.2367L36.2838 26.6132H36.1656C34.5855 28.0554 32.4435 28.8318 30.1585 28.8318C26.2586 28.8318 24.5234 26.1699 25.1629 23.2848C26.2041 18.5876 31.1879 16.369 38.0027 16.369L38.0524 16.1468C38.2729 15.1483 38.0248 13.7801 35.0705 13.7801C33.1007 13.7801 30.8734 14.4087 29.4488 15.1483L29.1494 11.5246C30.6452 10.8213 33.4889 9.89746 36.9945 9.89746C43.4157 9.89746 44.638 13.448 43.6866 17.7371L42.2848 24.0615L42.2854 24.0612ZM37.4212 19.8823C34.2694 19.8823 31.6719 20.585 31.1962 22.7296C30.8766 24.1724 31.7444 24.8741 33.085 24.8741C34.5419 24.8741 36.0069 23.9496 36.6557 22.8036C36.799 22.5084 36.9125 22.176 36.9865 21.8429L37.4212 19.8827V19.8823Z" fill="#0067B1"/>
<path d="M51.2817 2.16797H57.2698L51.4497 28.4253H45.4609L51.2817 2.16797Z" fill="#0067B1"/>
<path d="M58.3445 16.4061C58.8673 14.0394 59.2328 12.0419 59.5306 10.3417H64.7298L64.4493 12.8549H64.5281C66.3634 10.9703 68.8 9.93457 71.5959 9.93457C75.8126 9.93457 78.8323 13.3732 77.5516 19.1431C76.0931 25.7258 70.9532 28.8321 66.6592 28.8321C64.3348 28.8321 62.7186 27.9444 62.1153 26.7615H62.0348L60.0438 35.7469H54.0566L58.3442 16.4064L58.3445 16.4061ZM63.3882 20.6584C63.2904 21.1033 63.2481 21.4726 63.2449 21.8428C63.3023 23.3591 64.4259 24.5048 66.1601 24.5048C68.7609 24.5048 70.7471 22.4711 71.4276 19.4014C72.0671 16.5173 71.1724 14.3356 68.4945 14.3356C66.7996 14.3356 65.0401 15.5185 64.2775 17.1819C64.1332 17.4787 64.012 17.8489 63.938 18.1814L63.3882 20.6584Z" fill="#0067B1"/>
<path d="M95.7341 24.0612C95.3562 25.7624 95.0648 27.4265 95.0805 28.4253H89.6838L89.7309 26.6132H89.6126C88.0313 28.0554 85.889 28.8318 83.605 28.8318C79.705 28.8318 77.9705 26.1699 78.6103 23.2848C79.6515 18.5876 84.6353 16.369 91.4495 16.369L91.4982 16.1468C91.7203 15.1483 91.4713 13.7801 88.5179 13.7801C86.5474 13.7801 84.3218 14.4087 82.8962 15.1483L82.5968 11.5246C84.0916 10.8213 86.9347 9.89746 90.4426 9.89746C96.8631 9.89746 98.0854 13.448 97.134 17.7371L95.7338 24.0615L95.7341 24.0612ZM90.8683 19.8823C87.7165 19.8823 85.119 20.585 84.6433 22.7296C84.3234 24.1724 85.1915 24.8741 86.5317 24.8741C87.9887 24.8741 89.4536 23.9496 90.1025 22.8036C90.2474 22.5084 90.3592 22.176 90.4333 21.8429L90.868 19.8827L90.8683 19.8823Z" fill="#0067B1"/>
<path d="M98.8652 28.4254L102.874 10.3418H108.861L104.853 28.4254H98.8656H98.8652Z" fill="#0067B1"/>
<path d="M111.78 16.1099C112.28 13.8544 112.62 11.9689 112.9 10.3417H118.102L117.819 12.8549H117.937C118.987 11.6727 121.302 9.93457 124.534 9.93457C128.474 9.93457 130.879 12.4122 129.698 17.7371L127.327 28.4253H121.34L123.562 18.4026C124.079 16.073 123.566 14.4827 121.396 14.4827C119.742 14.4827 118.52 15.5553 117.859 16.5911C117.617 16.9613 117.463 17.4787 117.35 17.997L115.038 28.4256H109.049L111.78 16.1102L111.78 16.1099Z" fill="#0067B1"/>
<path d="M109.922 3.27712C109.551 4.94757 107.898 6.3013 106.226 6.3013C104.555 6.3013 103.503 4.94757 103.873 3.27712C104.243 1.60667 105.897 0.25293 107.568 0.25293C109.24 0.25293 110.292 1.60667 109.922 3.27712Z" fill="url(#paint0_linear_1498_38831)"/>
</g>
<defs>
<linearGradient id="paint0_linear_1498_38831" x1="103.616" y1="3.27712" x2="110.269" y2="3.27712" gradientUnits="userSpaceOnUse">
<stop offset="0.2" stop-color="#00AEEF"/>
<stop offset="1" stop-color="#0067B1"/>
</linearGradient>
<clipPath id="clip0_1498_38831">
<rect width="130" height="35.4933" fill="white" transform="translate(0 0.25293)"/>
</clipPath>
</defs>
</svg>
