<svg width="91" height="55" viewBox="0 0 91 55" fill="none" xmlns="http://www.w3.org/2000/svg">
<g clip-path="url(#clip0_1857_16869)">
<path d="M57.9844 1.88656C57.9844 1.88656 57.6417 0.837901 57.7089 0.347836C57.7089 0.347836 55.8534 0.421539 54.0677 1.88656C52.2833 3.35417 52.1165 5.72821 52.3712 7.47511C49.4554 8.25482 47.5611 11.8766 48.3266 15.6459C48.3266 15.6459 47.7538 16.2769 46.8616 15.9278C45.9694 15.5786 46.237 12.3667 46.1685 10.0599C46.1194 8.23284 44.7035 5.44891 42.4083 5.44891C40.1131 5.44891 36.1655 6.36827 36.1538 7.95354C36.1474 8.99832 38.4529 8.31301 39.7278 8.10224C41.0015 7.89406 42.4174 8.80307 42.5467 9.78062C40.0588 10.5474 36.3362 13.065 36.0801 16.2097C34.2311 17.0475 34.0423 15.5812 33.9776 14.6037C33.9194 13.6248 34.063 7.26823 33.9311 5.10108C33.807 2.93781 32.6936 1.67967 31.6036 1.74821C30.52 1.81932 28.2921 2.72316 27.9068 3.98389C27.5279 5.24331 28.9916 4.96272 29.5683 4.82307C30.1425 4.68472 30.5886 5.38038 30.5886 6.21956C30.5886 7.05875 30.5989 13.9041 30.5355 14.8119C30.4696 15.7196 29.7726 16.348 29.1378 16.348C28.5029 16.348 28.4356 15.0226 28.4356 14.1834C28.4356 13.3443 28.3658 9.58795 28.3387 8.52507C28.3154 7.48287 26.9616 5.83553 24.9302 5.68166C23.9501 5.60925 19.6649 6.18336 19.0882 7.36908C18.1029 9.41081 21.0394 8.32853 21.7441 8.19017C22.4437 8.04664 24.5733 8.0363 24.828 9.1509C25.0853 10.272 22.5807 10.2487 20.2584 12.3667C17.8352 14.5804 13.0393 16.6777 10.7286 16.4178C7.11199 16.0131 4.86338 13.4852 4.79614 10.3405C4.72243 6.7161 7.14948 4.66274 8.52658 4.055C10.5735 3.14858 13.1557 3.00893 14.2393 3.70588C15.3241 4.40542 15.1961 5.52003 14.3026 5.87174C13.4104 6.22086 10.9847 5.94156 10.2812 5.87174C9.58171 5.8032 8.75286 6.22086 8.94294 7.05746C9.13302 7.89794 10.2166 8.9479 12.8311 8.6673C15.4496 8.38801 17.9374 6.99151 18.1313 4.47783C18.3227 1.95639 14.4526 -0.0038734 10.2218 5.74728e-06C5.81635 0.00388489 1.54412 3.424 0.461842 6.42516C-0.625611 9.42891 0.394604 12.7391 1.60748 14.9114C4.06815 19.322 9.99031 19.6569 12.0411 19.5095C14.6556 19.3233 17.1991 17.535 18.4727 16.2756C18.3473 17.6023 19.2459 19.1009 21.0278 19.3673C22.3221 19.5612 24.1556 18.6496 24.6651 18.0199C24.6651 18.0199 25.6918 19.3453 27.3546 19.3453C29.0175 19.3453 30.1955 18.232 30.7722 17.8117C30.7722 17.8117 31.6527 19.3453 33.2238 19.3453C34.4354 19.3453 35.4414 18.51 36.5857 17.535C37.4534 18.594 38.5447 19.26 39.5985 19.3168C41.1049 19.3944 42.535 18.4699 43.0988 17.8117C43.0988 17.8117 44.7539 19.2289 46.0327 19.2974C47.309 19.3686 48.6473 18.4376 49.3481 17.8117C50.1795 18.6496 52.6027 19.975 55.6633 19.1384C58.7279 18.2992 59.8994 15.7157 59.8994 13.7606C59.8994 11.8055 56.5827 6.84669 55.4952 5.3765C55.1784 4.04983 57.0909 2.02492 57.9857 1.88527M24.0367 16.4838C23.0785 17.2544 21.2191 16.904 21.0278 16.2756C20.8351 15.6446 21.2812 14.6011 22.3027 13.6895C23.3255 12.7792 24.947 12.3654 24.947 12.3654C25.0091 13.0624 24.9948 15.7157 24.0367 16.4838ZM41.8588 16.4838C40.9045 17.2544 39.0774 16.904 38.8848 16.2756C38.6934 15.6446 39.1382 14.6011 40.1597 13.6895C41.1838 12.7792 42.6023 12.3654 42.6023 12.3654C42.6682 13.0624 42.8195 15.7157 41.8575 16.4838M54.8966 16.9713C53.3009 17.3941 51.4532 15.6446 50.9411 13.4115C50.4278 11.1758 52.4074 9.42891 53.2389 9.36167C53.2389 9.36167 54.7673 12.0874 55.7875 13.4813C56.8116 14.8804 56.4922 16.5549 54.8966 16.9713ZM61.1278 4.12224C60.9985 4.75066 60.6829 5.79803 60.6829 5.79803C61.5739 5.44762 63.6169 5.30797 63.6169 3.56106C63.6169 1.81415 62.9716 1.61632 61.7678 1.81544C60.489 2.02492 59.3408 3.21452 59.3408 3.21452C60.1075 3.1447 61.2558 3.48994 61.1278 4.12224ZM85.7396 17.473C83.1277 18.5203 81.404 14.8196 81.2773 13.4231C82.1708 13.5615 84.9134 12.3745 85.9349 11.6051C86.9512 10.8383 89.5063 7.90311 87.3365 5.94803C85.1707 3.99164 81.404 6.08767 79.299 8.60136C77.1952 11.1163 77.8352 14.3179 78.5348 16.0674C76.5564 16.97 76.3159 15.2243 76.25 13.1994C76.1905 11.1745 75.8776 7.00186 74.8573 6.02302C73.8397 5.04677 70.8269 6.14586 69.808 6.8454C69.8726 6.35404 69.3593 5.30409 68.2124 5.44632C67.0629 5.58468 65.0871 6.91264 64.6371 7.682C65.7879 7.74924 66.49 8.03113 66.49 8.80049C66.49 9.56985 66.6801 13.4102 66.5534 15.1571C66.5534 15.1571 65.6599 16.1347 64.6371 16.6247C63.6195 17.1109 63.8716 11.7318 63.8716 10.1259C63.8716 8.5199 63.6789 7.26435 62.6613 6.77299C61.6411 6.2868 59.6627 7.47382 58.9619 7.96001C58.9619 7.96001 59.2813 8.45137 59.7274 8.66084C60.1722 8.86902 60.6196 9.00996 60.6196 10.2668C60.6196 11.5236 60.6855 14.177 60.6196 16.0674C60.5549 17.9475 61.5764 19.2483 62.9794 19.3168C64.3837 19.3867 65.7879 18.0186 66.5534 17.3915C66.5534 17.6708 67.699 19.3673 68.7205 19.2987C69.7408 19.2276 71.211 17.182 71.7191 16.2045C70.2502 16.4114 70.0007 15.9239 70.0007 15.0149C70.0007 14.1059 69.808 12.8477 69.8726 11.7292C69.9334 10.612 69.9257 8.67894 71.2109 8.65825C73.4854 8.61558 72.676 11.5909 72.9333 14.1757C73.188 16.7592 74.591 18.9574 76.0573 19.3065C77.5249 19.6569 78.9783 18.0173 79.555 17.3902C81.148 18.7867 84.0832 19.6362 85.6789 19.2871C87.2732 18.938 89.6989 16.7708 89.3149 16.0041C88.9322 15.236 88.3568 16.4243 85.7396 17.4704M84.8487 7.27081C86.509 8.03888 84.2759 10.4142 83.7018 10.6948C83.1277 10.9728 81.086 11.6012 81.086 11.6012C81.0239 10.903 82.657 6.25577 84.8487 7.26952M89.8826 3.83131V3.81708C90.0157 3.777 90.1114 3.67873 90.1114 3.54942C90.1114 3.44468 90.0636 3.35546 90.0028 3.30633C89.9213 3.25202 89.827 3.21711 89.6201 3.21711C89.4365 3.21711 89.2968 3.2378 89.1947 3.25849V4.38602H89.452V3.93604H89.5709C89.7132 3.93604 89.7791 3.99164 89.8011 4.11448C89.8347 4.24637 89.8541 4.34206 89.889 4.38602H90.1644C90.1386 4.34853 90.1179 4.28129 90.0856 4.10802C90.0507 3.95673 89.9899 3.86622 89.8826 3.83131ZM89.58 3.74855H89.4571V3.424C89.4843 3.41753 89.5321 3.40977 89.5981 3.40977C89.761 3.40977 89.8334 3.4796 89.8334 3.58304C89.8334 3.70071 89.7196 3.74726 89.5787 3.74726M89.6317 2.66368H89.6252C88.9916 2.66368 88.4887 3.16668 88.4887 3.79639C88.4887 4.43904 88.9929 4.93428 89.6265 4.93428C90.2601 4.93428 90.7605 4.43775 90.7592 3.79639C90.7592 3.16668 90.2666 2.66368 89.633 2.66368M89.633 4.70023C89.1352 4.70023 88.7705 4.30068 88.7705 3.79639C88.7705 3.29728 89.1352 2.89255 89.6201 2.89255H89.6252C90.1166 2.89255 90.4761 3.29857 90.4761 3.79639C90.4761 4.30068 90.1179 4.7067 89.633 4.70023Z" fill="#231F20"/>
<path d="M1.80528 26.418H2.29276C2.58886 26.418 2.79704 26.4438 2.91859 26.4956C3.06858 26.5602 3.18367 26.6494 3.26125 26.7632C3.33883 26.877 3.37762 27.0115 3.37762 27.1654C3.37762 27.3334 3.33237 27.4873 3.24056 27.6231C3.15005 27.7602 3.02721 27.8597 2.87463 27.9218C2.72075 27.9839 2.46602 28.0175 2.10914 28.0226L1.94751 29.1954H1.42383L1.80398 26.418H1.80528ZM2.1738 27.5326C2.45697 27.5326 2.64059 27.5015 2.72722 27.4434C2.81385 27.3852 2.85653 27.2998 2.85653 27.1847C2.85653 27.1201 2.83972 27.0658 2.8061 27.0218C2.77248 26.9779 2.72205 26.9468 2.6561 26.9287C2.59016 26.9106 2.45956 26.9029 2.26302 26.9029L2.1725 27.5313L2.1738 27.5326Z" fill="#231F20"/>
<path d="M5.08335 28.595L5.52687 28.8251C5.4273 28.9557 5.29541 29.0592 5.13119 29.1354C4.96698 29.2117 4.78466 29.2492 4.58423 29.2492C4.27132 29.2492 4.02434 29.1613 3.84332 28.9855C3.66229 28.8096 3.57178 28.5756 3.57178 28.2833C3.57178 27.9497 3.68427 27.6678 3.91056 27.4364C4.13684 27.2049 4.40967 27.0898 4.72906 27.0898C4.92172 27.0898 5.09369 27.1325 5.24369 27.2166C5.39368 27.3006 5.51264 27.4235 5.59928 27.5851C5.68591 27.7467 5.72987 27.9213 5.72987 28.1101C5.72987 28.1695 5.72341 28.2381 5.71048 28.3182H4.07219C4.07736 28.4605 4.12391 28.5743 4.21313 28.6596C4.30235 28.7437 4.4239 28.7863 4.58035 28.7863C4.76914 28.7863 4.93594 28.723 5.08206 28.5962L5.08335 28.595ZM5.21136 27.9458C5.17386 27.8204 5.1105 27.7247 5.02258 27.6601C4.93465 27.5954 4.82862 27.5631 4.70319 27.5631C4.57777 27.5631 4.46786 27.5967 4.36959 27.6627C4.27002 27.7299 4.19503 27.8243 4.1433 27.9458H5.21136Z" fill="#231F20"/>
<path d="M6.1821 27.1409H6.63079L6.59459 27.4202C6.72906 27.1991 6.89069 27.0879 7.07948 27.0879C7.12474 27.0879 7.17258 27.0995 7.22042 27.1241L7.03551 27.5818C6.99672 27.5676 6.96957 27.5611 6.95147 27.5611C6.8532 27.5611 6.76527 27.618 6.68769 27.7318C6.6101 27.8456 6.54933 28.0758 6.50537 28.4223L6.4058 29.1943H5.89893L6.17952 27.1396L6.1821 27.1409Z" fill="#231F20"/>
<path d="M9.04526 27.1416H9.54955L9.26378 29.1962H8.76467L8.79441 28.9751C8.6845 29.0773 8.58235 29.1484 8.48666 29.1885C8.39097 29.2285 8.28494 29.2492 8.16598 29.2492C7.89444 29.2492 7.67721 29.1497 7.51687 28.9492C7.35654 28.7488 7.27637 28.5161 7.27637 28.251C7.27637 28.048 7.32809 27.8553 7.43024 27.6717C7.53368 27.4881 7.67075 27.3459 7.84402 27.2437C8.01728 27.1416 8.19831 27.0898 8.3871 27.0898C8.51381 27.0898 8.63148 27.1196 8.7388 27.1778C8.84613 27.236 8.93405 27.3213 9.00388 27.4325L9.04396 27.1429L9.04526 27.1416ZM8.28753 28.7993C8.41166 28.7993 8.52028 28.7721 8.61209 28.7165C8.70518 28.6609 8.78148 28.5743 8.84483 28.4566C8.9069 28.3389 8.93923 28.2174 8.93923 28.0945C8.93923 27.9316 8.89268 27.801 8.79828 27.7015C8.70389 27.6019 8.57976 27.5528 8.42459 27.5528C8.24486 27.5528 8.09228 27.6187 7.96685 27.7506C7.84143 27.8825 7.77936 28.0532 7.77936 28.2626C7.77936 28.4243 7.82721 28.5536 7.9216 28.6518C8.01599 28.7501 8.13883 28.7993 8.28882 28.7993H8.28753Z" fill="#231F20"/>
<path d="M9.81965 27.1416H10.3058L10.589 28.242L11.1864 27.1416H11.3855L11.6726 28.242L12.2687 27.1416H12.804L11.6868 29.1963H11.4437L11.1644 28.1101L10.5787 29.1963H10.3408L9.81836 27.1416H9.81965Z" fill="#231F20"/>
<path d="M14.6903 27.1416H15.1946L14.9088 29.1962H14.4097L14.4394 28.9751C14.3295 29.0773 14.2274 29.1484 14.1317 29.1885C14.036 29.2285 13.93 29.2492 13.811 29.2492C13.5395 29.2492 13.3222 29.1497 13.1619 28.9492C13.0016 28.7488 12.9214 28.5161 12.9214 28.251C12.9214 28.048 12.9731 27.8553 13.0753 27.6717C13.1787 27.4881 13.3158 27.3459 13.489 27.2437C13.6623 27.1416 13.8433 27.0898 14.0321 27.0898C14.1588 27.0898 14.2765 27.1196 14.3838 27.1778C14.4911 27.236 14.5791 27.3213 14.6489 27.4325L14.689 27.1429L14.6903 27.1416ZM13.9326 28.7993C14.0567 28.7993 14.1653 28.7721 14.2571 28.7165C14.3502 28.6609 14.4265 28.5743 14.4899 28.4566C14.5519 28.3389 14.5842 28.2174 14.5842 28.0945C14.5842 27.9316 14.5377 27.801 14.4433 27.7015C14.3489 27.6019 14.2248 27.5528 14.0696 27.5528C13.8899 27.5528 13.7373 27.6187 13.6119 27.7506C13.4864 27.8825 13.4244 28.0532 13.4244 28.2626C13.4244 28.4243 13.4722 28.5536 13.5666 28.6518C13.661 28.7501 13.7839 28.7993 13.9338 28.7993H13.9326Z" fill="#231F20"/>
<path d="M15.8347 26.3779H16.3364L16.233 27.1408H16.5523L16.4916 27.5753H16.1735L15.9537 29.1955H15.4507L15.6718 27.5753H15.4248L15.483 27.1408H15.7313L15.836 26.3779H15.8347Z" fill="#231F20"/>
<path d="M18.4027 27.1416H18.907L18.6212 29.1962H18.1221L18.1518 28.9751C18.0419 29.0773 17.9398 29.1484 17.8441 29.1885C17.7484 29.2285 17.6424 29.2492 17.5234 29.2492C17.2519 29.2492 17.0346 29.1497 16.8743 28.9492C16.714 28.7488 16.6338 28.5161 16.6338 28.251C16.6338 28.048 16.6855 27.8553 16.7877 27.6717C16.8911 27.4881 17.0282 27.3459 17.2014 27.2437C17.3747 27.1416 17.5557 27.0898 17.7445 27.0898C17.8712 27.0898 17.9889 27.1196 18.0962 27.1778C18.2035 27.236 18.2915 27.3213 18.3613 27.4325L18.4014 27.1429L18.4027 27.1416ZM17.645 28.7993C17.7691 28.7993 17.8777 28.7721 17.9695 28.7165C18.0626 28.6609 18.1389 28.5743 18.2023 28.4566C18.2643 28.3389 18.2966 28.2174 18.2966 28.0945C18.2966 27.9316 18.2501 27.801 18.1557 27.7015C18.0613 27.6019 17.9372 27.5528 17.782 27.5528C17.6023 27.5528 17.4497 27.6187 17.3243 27.7506C17.1989 27.8825 17.1368 28.0532 17.1368 28.2626C17.1368 28.4243 17.1846 28.5536 17.279 28.6518C17.3734 28.7501 17.4963 28.7993 17.6462 28.7993H17.645Z" fill="#231F20"/>
<path d="M19.4463 27.1409H19.9493L19.9208 27.3491C20.1135 27.1745 20.3139 27.0879 20.5221 27.0879C20.6993 27.0879 20.8454 27.1448 20.9592 27.2573C21.0729 27.3698 21.1298 27.512 21.1298 27.684C21.1298 27.7642 21.1195 27.8844 21.0975 28.0447L20.9398 29.1956H20.4368L20.5906 28.0719C20.6062 27.9555 20.6139 27.8689 20.6139 27.812C20.6139 27.7292 20.5906 27.6646 20.5428 27.6206C20.495 27.5767 20.4277 27.5534 20.3411 27.5534C20.2544 27.5534 20.1717 27.5831 20.0876 27.6413C20.0036 27.6995 19.9376 27.781 19.8924 27.8844C19.8471 27.9879 19.8058 28.1831 19.767 28.4689L19.67 29.1956H19.167L19.4476 27.1409H19.4463Z" fill="#231F20"/>
<path d="M25.3905 26.937L24.956 27.2189C24.8306 27.0753 24.709 26.9758 24.5914 26.9202C24.4737 26.8646 24.3418 26.8361 24.1931 26.8361C23.8724 26.8361 23.6112 26.9654 23.4095 27.2227C23.2492 27.4283 23.1703 27.6559 23.1703 27.9068C23.1703 28.1576 23.2531 28.3606 23.4173 28.5274C23.5815 28.6942 23.7832 28.7783 24.0237 28.7783C24.2022 28.7783 24.3651 28.7356 24.5112 28.649C24.6573 28.5623 24.7776 28.433 24.8707 28.2598H24.0043L24.069 27.7671H25.4732C25.4525 28.2261 25.309 28.5908 25.0414 28.861C24.7737 29.1313 24.4336 29.2657 24.0186 29.2657C23.5686 29.2657 23.213 29.1093 22.9557 28.7977C22.7475 28.5468 22.644 28.2494 22.644 27.9029C22.644 27.4813 22.7966 27.1167 23.1005 26.809C23.4044 26.5012 23.7664 26.3486 24.1867 26.3486C24.3431 26.3486 24.4944 26.3719 24.6431 26.4172C24.7918 26.4624 24.9263 26.5258 25.0452 26.6085C25.1642 26.6913 25.2793 26.7999 25.3892 26.9383L25.3905 26.937Z" fill="#231F20"/>
<path d="M27.6053 27.1416H28.1096L27.8238 29.1962H27.3247L27.3545 28.9751C27.2446 29.0773 27.1424 29.1484 27.0467 29.1885C26.951 29.2285 26.845 29.2492 26.726 29.2492C26.4545 29.2492 26.2373 29.1497 26.0769 28.9492C25.9166 28.7488 25.8364 28.5161 25.8364 28.251C25.8364 28.048 25.8881 27.8553 25.9903 27.6717C26.0937 27.4881 26.2308 27.3459 26.4041 27.2437C26.5773 27.1416 26.7584 27.0898 26.9472 27.0898C27.0739 27.0898 27.1915 27.1196 27.2989 27.1778C27.4062 27.236 27.4941 27.3213 27.5639 27.4325L27.604 27.1429L27.6053 27.1416ZM26.8476 28.7993C26.9717 28.7993 27.0803 28.7721 27.1721 28.7165C27.2652 28.6609 27.3415 28.5743 27.4049 28.4566C27.467 28.3389 27.4993 28.2174 27.4993 28.0945C27.4993 27.9316 27.4527 27.801 27.3583 27.7015C27.264 27.6019 27.1398 27.5528 26.9847 27.5528C26.8049 27.5528 26.6523 27.6187 26.5269 27.7506C26.4015 27.8825 26.3394 28.0532 26.3394 28.2626C26.3394 28.4243 26.3873 28.5536 26.4817 28.6518C26.576 28.7501 26.6989 28.7993 26.8489 28.7993H26.8476Z" fill="#231F20"/>
<path d="M28.7497 26.3779H29.2514L29.148 27.1408H29.4674L29.4066 27.5753H29.0885L28.8687 29.1955H28.3657L28.5868 27.5753H28.3398L28.398 27.1408H28.6463L28.751 26.3779H28.7497Z" fill="#231F20"/>
<path d="M31.3167 27.1416H31.821L31.5353 29.1962H31.0362L31.0659 28.9751C30.956 29.0773 30.8538 29.1484 30.7581 29.1885C30.6625 29.2285 30.5564 29.2492 30.4375 29.2492C30.1659 29.2492 29.9487 29.1497 29.7884 28.9492C29.628 28.7488 29.5479 28.5161 29.5479 28.251C29.5479 28.048 29.5996 27.8553 29.7017 27.6717C29.8052 27.4881 29.9422 27.3459 30.1155 27.2437C30.2888 27.1416 30.4698 27.0898 30.6586 27.0898C30.7853 27.0898 30.903 27.1196 31.0103 27.1778C31.1176 27.236 31.2055 27.3213 31.2754 27.4325L31.3154 27.1429L31.3167 27.1416ZM30.559 28.7993C30.6831 28.7993 30.7918 28.7721 30.8836 28.7165C30.9767 28.6609 31.053 28.5743 31.1163 28.4566C31.1784 28.3389 31.2107 28.2174 31.2107 28.0945C31.2107 27.9316 31.1642 27.801 31.0698 27.7015C30.9754 27.6019 30.8512 27.5528 30.6961 27.5528C30.5163 27.5528 30.3638 27.6187 30.2383 27.7506C30.1129 27.8825 30.0508 28.0532 30.0508 28.2626C30.0508 28.4243 30.0987 28.5536 30.1931 28.6518C30.2875 28.7501 30.4103 28.7993 30.5603 28.7993H30.559Z" fill="#231F20"/>
<path d="M32.4092 26.3486H32.9122L32.523 29.1959H32.02L32.4092 26.3486Z" fill="#231F20"/>
<path d="M35.9869 26.3486H36.4912L36.0968 29.1959H35.5977L35.6274 28.9748C35.5175 29.077 35.4154 29.1481 35.3197 29.1882C35.224 29.2282 35.118 29.2489 34.999 29.2489C34.7275 29.2489 34.5102 29.1494 34.3499 28.949C34.1895 28.7485 34.1094 28.5158 34.1094 28.2507C34.1094 28.0477 34.1611 27.855 34.2632 27.6714C34.3667 27.4878 34.5038 27.3456 34.677 27.2434C34.8503 27.1413 35.0313 27.0895 35.2201 27.0895C35.3468 27.0895 35.4645 27.1193 35.5718 27.1775C35.6791 27.2357 35.7671 27.321 35.8369 27.4322L35.9843 26.3499L35.9869 26.3486ZM35.1205 28.799C35.2447 28.799 35.352 28.7718 35.4451 28.7162C35.5382 28.6606 35.6145 28.574 35.6778 28.4563C35.7399 28.3386 35.7722 28.2171 35.7722 28.0942C35.7722 27.9313 35.7257 27.8007 35.6313 27.7012C35.5369 27.6016 35.4128 27.5525 35.2589 27.5525C35.0792 27.5525 34.9266 27.6184 34.8012 27.7503C34.6757 27.8822 34.6137 28.0529 34.6137 28.2623C34.6137 28.424 34.6615 28.5533 34.7559 28.6516C34.8503 28.7498 34.9731 28.799 35.1218 28.799H35.1205Z" fill="#231F20"/>
<path d="M38.431 27.1416H38.9353L38.6495 29.1962H38.1504L38.1801 28.9751C38.0702 29.0773 37.9681 29.1484 37.8724 29.1885C37.7767 29.2285 37.6707 29.2492 37.5517 29.2492C37.2802 29.2492 37.063 29.1497 36.9026 28.9492C36.7423 28.7488 36.6621 28.5161 36.6621 28.251C36.6621 28.048 36.7138 27.8553 36.816 27.6717C36.9194 27.4881 37.0565 27.3459 37.2298 27.2437C37.403 27.1416 37.5841 27.0898 37.7728 27.0898C37.8996 27.0898 38.0172 27.1196 38.1245 27.1778C38.2319 27.236 38.3198 27.3213 38.3896 27.4325L38.4297 27.1429L38.431 27.1416ZM37.6733 28.7993C37.7974 28.7993 37.906 28.7721 37.9978 28.7165C38.0909 28.6609 38.1672 28.5743 38.2306 28.4566C38.2926 28.3389 38.325 28.2174 38.325 28.0945C38.325 27.9316 38.2784 27.801 38.184 27.7015C38.0896 27.6019 37.9655 27.5528 37.8103 27.5528C37.6306 27.5528 37.478 27.6187 37.3526 27.7506C37.2272 27.8825 37.1651 28.0532 37.1651 28.2626C37.1651 28.4243 37.2129 28.5536 37.3073 28.6518C37.4017 28.7501 37.5246 28.7993 37.6746 28.7993H37.6733Z" fill="#231F20"/>
<path d="M39.4756 27.1409H39.9786L39.9501 27.3491C40.1428 27.1745 40.3432 27.0879 40.5514 27.0879C40.7285 27.0879 40.8747 27.1448 40.9885 27.2573C41.1022 27.3698 41.1591 27.512 41.1591 27.684C41.1591 27.7642 41.1488 27.8844 41.1268 28.0447L40.9691 29.1956H40.4661L40.6199 28.0719C40.6355 27.9555 40.6432 27.8689 40.6432 27.812C40.6432 27.7292 40.6199 27.6646 40.5721 27.6206C40.5242 27.5767 40.457 27.5534 40.3704 27.5534C40.2837 27.5534 40.201 27.5831 40.1169 27.6413C40.0329 27.6995 39.9669 27.781 39.9217 27.8844C39.8764 27.9879 39.8351 28.1831 39.7963 28.4689L39.6993 29.1956H39.1963L39.4769 27.1409H39.4756Z" fill="#231F20"/>
<path d="M43.0288 26.418H43.5525L43.4231 27.3528L44.3089 26.418H44.9554L43.7451 27.6877L44.702 29.1954H44.1188L43.3378 27.9645L43.1671 29.1954H42.6499L43.0301 26.418H43.0288Z" fill="#231F20"/>
<path d="M46.5331 28.595L46.9766 28.8251C46.877 28.9557 46.7451 29.0592 46.5809 29.1354C46.4167 29.2117 46.2344 29.2492 46.0339 29.2492C45.721 29.2492 45.4741 29.1613 45.293 28.9855C45.112 28.8096 45.0215 28.5756 45.0215 28.2833C45.0215 27.9497 45.134 27.6678 45.3603 27.4364C45.5865 27.2049 45.8594 27.0898 46.1788 27.0898C46.3714 27.0898 46.5434 27.1325 46.6934 27.2166C46.8434 27.3006 46.9623 27.4235 47.049 27.5851C47.1356 27.7467 47.1796 27.9213 47.1796 28.1101C47.1796 28.1695 47.1731 28.2381 47.1602 28.3182H45.5219C45.5271 28.4605 45.5736 28.5743 45.6628 28.6596C45.7521 28.7437 45.8736 28.7863 46.0301 28.7863C46.2188 28.7863 46.3856 28.723 46.5318 28.5962L46.5331 28.595ZM46.6611 27.9458C46.6236 27.8204 46.5602 27.7247 46.4723 27.6601C46.3844 27.5954 46.2783 27.5631 46.1529 27.5631C46.0275 27.5631 45.9176 27.5967 45.8193 27.6627C45.7197 27.7299 45.6447 27.8243 45.593 27.9458H46.6611Z" fill="#231F20"/>
<path d="M48.8748 27.4286L48.6343 27.814C48.5722 27.7221 48.5076 27.6549 48.439 27.6109C48.3705 27.567 48.3071 27.5463 48.2477 27.5463C48.2024 27.5463 48.1636 27.5592 48.1326 27.5838C48.1015 27.6084 48.0847 27.6368 48.0847 27.6691C48.0847 27.7015 48.0977 27.7299 48.1222 27.7596C48.1468 27.7894 48.2192 27.8489 48.3395 27.9355C48.5321 28.0739 48.6601 28.1928 48.7209 28.2911C48.7817 28.3894 48.8127 28.4967 48.8127 28.6131C48.8127 28.7656 48.7506 28.9092 48.6252 29.0449C48.4998 29.1807 48.3188 29.2492 48.0808 29.2492C47.9438 29.2492 47.8184 29.2221 47.7059 29.1665C47.5934 29.1109 47.4679 29.01 47.3296 28.8626L47.6412 28.5006C47.7822 28.6868 47.936 28.7799 48.1041 28.7799C48.1714 28.7799 48.2244 28.7643 48.2632 28.732C48.302 28.6997 48.3226 28.6622 48.3226 28.6182C48.3226 28.5833 48.3071 28.5471 48.2774 28.5096C48.2477 28.4721 48.1649 28.4062 48.0304 28.3105C47.874 28.1993 47.7666 28.1049 47.7072 28.026C47.6244 27.9148 47.583 27.7984 47.583 27.6743C47.583 27.5023 47.6477 27.3614 47.7783 27.2528C47.9089 27.1442 48.0627 27.0898 48.2399 27.0898C48.364 27.0898 48.483 27.1196 48.5955 27.1791C48.708 27.2385 48.8011 27.3226 48.8748 27.4299V27.4286Z" fill="#231F20"/>
<path d="M50.7098 28.595L51.1533 28.8251C51.0538 28.9557 50.9219 29.0592 50.7577 29.1354C50.5934 29.2117 50.4111 29.2492 50.2107 29.2492C49.8978 29.2492 49.6508 29.1613 49.4698 28.9855C49.2888 28.8096 49.1982 28.5756 49.1982 28.2833C49.1982 27.9497 49.3107 27.6678 49.537 27.4364C49.7633 27.2049 50.0361 27.0898 50.3555 27.0898C50.5482 27.0898 50.7202 27.1325 50.8702 27.2166C51.0201 27.3006 51.1391 27.4235 51.2257 27.5851C51.3124 27.7467 51.3563 27.9213 51.3563 28.1101C51.3563 28.1695 51.3499 28.2381 51.3369 28.3182H49.6987C49.7038 28.4605 49.7504 28.5743 49.8396 28.6596C49.9288 28.7437 50.0504 28.7863 50.2068 28.7863C50.3956 28.7863 50.5624 28.723 50.7085 28.5962L50.7098 28.595ZM50.8378 27.9458C50.8003 27.8204 50.737 27.7247 50.649 27.6601C50.5611 27.5954 50.4551 27.5631 50.3297 27.5631C50.2042 27.5631 50.0943 27.5967 49.9961 27.6627C49.8965 27.7299 49.8215 27.8243 49.7698 27.9458H50.8378Z" fill="#231F20"/>
<path d="M52.0349 26.3486H52.5366L52.4008 27.3495C52.5935 27.1749 52.7939 27.0883 53.0021 27.0883C53.1805 27.0883 53.3253 27.1452 53.4391 27.2576C53.5529 27.3701 53.6098 27.5124 53.6098 27.6844C53.6098 27.7645 53.5995 27.8848 53.5775 28.0451L53.4197 29.1959H52.9167L53.0706 28.0723C53.0861 27.9559 53.0939 27.8693 53.0939 27.8124C53.0939 27.7296 53.0706 27.665 53.0228 27.621C52.9749 27.577 52.909 27.5538 52.8211 27.5538C52.7331 27.5538 52.6517 27.5835 52.5676 27.6417C52.4836 27.6999 52.4176 27.7813 52.3724 27.8848C52.3271 27.9882 52.2857 28.1835 52.2482 28.4692L52.15 29.1959H51.647L52.0362 26.3486H52.0349Z" fill="#231F20"/>
<path d="M55.7562 27.1416H56.2605L55.9747 29.1962H55.4756L55.5053 28.9751C55.3954 29.0773 55.2933 29.1484 55.1976 29.1885C55.1019 29.2285 54.9959 29.2492 54.8769 29.2492C54.6041 29.2492 54.3882 29.1497 54.2278 28.9492C54.0675 28.7488 53.9873 28.5161 53.9873 28.251C53.9873 28.048 54.039 27.8553 54.1412 27.6717C54.2433 27.4881 54.3817 27.3459 54.555 27.2437C54.7282 27.1416 54.9092 27.0898 55.0993 27.0898C55.226 27.0898 55.3437 27.1196 55.451 27.1778C55.5584 27.236 55.6463 27.3213 55.7161 27.4325L55.7549 27.1429L55.7562 27.1416ZM54.9998 28.7993C55.1239 28.7993 55.2325 28.7721 55.3243 28.7165C55.4161 28.6609 55.4937 28.5743 55.5571 28.4566C55.6191 28.3389 55.6515 28.2174 55.6515 28.0945C55.6515 27.9316 55.6036 27.801 55.5105 27.7015C55.4161 27.6019 55.292 27.5528 55.1368 27.5528C54.9571 27.5528 54.8045 27.6187 54.6791 27.7506C54.5537 27.8825 54.4916 28.0532 54.4916 28.2626C54.4916 28.4243 54.5394 28.5536 54.6338 28.6518C54.7282 28.7501 54.8511 28.7993 55.0011 28.7993H54.9998Z" fill="#231F20"/>
<path d="M56.9006 26.3779H57.4023L57.2989 27.1408H57.6183L57.5575 27.5753H57.2394L57.0196 29.1955H56.5166L56.7377 27.5753H56.4907L56.5489 27.1408H56.7972L56.9019 26.3779H56.9006Z" fill="#231F20"/>
<path d="M59.4676 27.1416H59.9719L59.6861 29.1962H59.187L59.2168 28.9751C59.1069 29.0773 59.0047 29.1484 58.909 29.1885C58.8133 29.2285 58.7073 29.2492 58.5883 29.2492C58.3155 29.2492 58.0996 29.1497 57.9392 28.9492C57.7789 28.7488 57.6987 28.5161 57.6987 28.251C57.6987 28.048 57.7505 27.8553 57.8526 27.6717C57.9548 27.4881 58.0931 27.3459 58.2664 27.2437C58.4396 27.1416 58.6207 27.0898 58.8108 27.0898C58.9375 27.0898 59.0551 27.1196 59.1625 27.1778C59.2698 27.236 59.3577 27.3213 59.4275 27.4325L59.4663 27.1429L59.4676 27.1416ZM58.7112 28.7993C58.8353 28.7993 58.9439 28.7721 59.0357 28.7165C59.1275 28.6609 59.2051 28.5743 59.2685 28.4566C59.3306 28.3389 59.3629 28.2174 59.3629 28.0945C59.3629 27.9316 59.315 27.801 59.2219 27.7015C59.1275 27.6019 59.0034 27.5528 58.8482 27.5528C58.6685 27.5528 58.5159 27.6187 58.3905 27.7506C58.2651 27.8825 58.203 28.0532 58.203 28.2626C58.203 28.4243 58.2509 28.5536 58.3453 28.6518C58.4396 28.7501 58.5625 28.7993 58.7125 28.7993H58.7112Z" fill="#231F20"/>
<path d="M60.5122 27.1409H61.0152L60.9868 27.3491C61.1794 27.1745 61.3798 27.0879 61.588 27.0879C61.7652 27.0879 61.9113 27.1448 62.0251 27.2573C62.1389 27.3698 62.1958 27.512 62.1958 27.684C62.1958 27.7642 62.1854 27.8844 62.1634 28.0447L62.0057 29.1956H61.5027L61.6566 28.0719C61.6721 27.9555 61.6798 27.8689 61.6798 27.812C61.6798 27.7292 61.6566 27.6646 61.6087 27.6206C61.5609 27.5767 61.4936 27.5534 61.407 27.5534C61.3204 27.5534 61.2376 27.5831 61.1536 27.6413C61.0695 27.6995 61.0036 27.781 60.9583 27.8844C60.9131 27.9879 60.8717 28.1831 60.8329 28.4689L60.7359 29.1956H60.2329L60.5135 27.1409H60.5122Z" fill="#231F20"/>
<path d="M64.0654 26.418H64.5891L64.4598 27.3528L65.3455 26.418H65.992L64.7817 27.6877L65.7386 29.1954H65.1554L64.3744 27.9645L64.2037 29.1954H63.6865L64.0667 26.418H64.0654Z" fill="#231F20"/>
<path d="M66.3179 27.1416H66.817L66.6734 28.1916C66.6579 28.3079 66.6502 28.3946 66.6502 28.4528C66.6502 28.5433 66.6812 28.6196 66.7446 28.6816C66.8079 28.7437 66.8894 28.7747 66.9902 28.7747C67.1195 28.7747 67.2204 28.7346 67.2902 28.6558C67.3601 28.5769 67.4118 28.4153 67.4441 28.1722L67.585 27.1429H68.0842L67.9368 28.2472C67.9031 28.4967 67.8449 28.6894 67.7661 28.8252C67.6859 28.9622 67.5799 29.067 67.4467 29.1394C67.3135 29.2118 67.1583 29.2493 66.9786 29.2493C66.7265 29.2493 66.526 29.1769 66.376 29.0307C66.2273 28.8859 66.1523 28.6971 66.1523 28.467C66.1523 28.326 66.1692 28.145 66.2015 27.9239L66.3166 27.1429L66.3179 27.1416Z" fill="#231F20"/>
<path d="M68.6802 26.3486H69.1832L68.794 29.1959H68.291L68.6802 26.3486Z" fill="#231F20"/>
<path d="M69.491 27.1413H69.9902L69.7134 29.1959H69.2104L69.491 27.1413ZM69.8376 26.3008C69.9229 26.3008 69.9966 26.3318 70.0574 26.3926C70.1182 26.4534 70.1492 26.5271 70.1492 26.6124C70.1492 26.6977 70.1182 26.7715 70.0574 26.8322C69.9966 26.893 69.9229 26.924 69.8376 26.924C69.7522 26.924 69.6785 26.893 69.6178 26.8322C69.557 26.7715 69.526 26.6977 69.526 26.6124C69.526 26.5271 69.557 26.4534 69.6178 26.3926C69.6785 26.3318 69.7522 26.3008 69.8376 26.3008Z" fill="#231F20"/>
<path d="M70.5876 26.3779H71.0893L70.9859 27.1408H71.3053L71.2445 27.5753H70.9264L70.7066 29.1955H70.2036L70.4247 27.5753H70.1777L70.2359 27.1408H70.4842L70.5889 26.3779H70.5876Z" fill="#231F20"/>
<path d="M72.8803 26.418H73.404L73.2747 27.3528L74.1604 26.418H74.807L73.5967 27.6877L74.5535 29.1954H73.9704L73.1894 27.9645L73.0187 29.1954H72.5015L72.8816 26.418H72.8803Z" fill="#231F20"/>
<path d="M76.3846 28.595L76.8281 28.8251C76.7286 28.9557 76.5967 29.0592 76.4325 29.1354C76.2682 29.2117 76.0859 29.2492 75.8855 29.2492C75.5726 29.2492 75.3256 29.1613 75.1446 28.9855C74.9636 28.8096 74.873 28.5756 74.873 28.2833C74.873 27.9497 74.9855 27.6678 75.2118 27.4364C75.4381 27.2049 75.7109 27.0898 76.0303 27.0898C76.223 27.0898 76.395 27.1325 76.545 27.2166C76.6949 27.3006 76.8139 27.4235 76.9005 27.5851C76.9872 27.7467 77.0311 27.9213 77.0311 28.1101C77.0311 28.1695 77.0247 28.2381 77.0118 28.3182H75.3735C75.3786 28.4605 75.4252 28.5743 75.5144 28.6596C75.6036 28.7437 75.7252 28.7863 75.8816 28.7863C76.0704 28.7863 76.2372 28.723 76.3833 28.5962L76.3846 28.595ZM76.5126 27.9458C76.4751 27.8204 76.4118 27.7247 76.3239 27.6601C76.2359 27.5954 76.1299 27.5631 76.0045 27.5631C75.879 27.5631 75.7691 27.5967 75.6709 27.6627C75.5713 27.7299 75.4963 27.8243 75.4446 27.9458H76.5126Z" fill="#231F20"/>
<path d="M77.649 26.3486H78.152L77.7628 29.1959H77.2598L77.649 26.3486Z" fill="#231F20"/>
<path d="M78.5337 27.1416H79.0328L78.8893 28.1916C78.8737 28.3079 78.866 28.3946 78.866 28.4528C78.866 28.5433 78.897 28.6196 78.9604 28.6816C79.0237 28.7437 79.1052 28.7747 79.2061 28.7747C79.3354 28.7747 79.4362 28.7346 79.506 28.6558C79.5759 28.5769 79.6276 28.4153 79.6599 28.1722L79.8009 27.1429H80.3L80.1526 28.2472C80.119 28.4967 80.0608 28.6894 79.9819 28.8252C79.9017 28.9622 79.7957 29.067 79.6625 29.1394C79.5293 29.2118 79.3742 29.2493 79.1944 29.2493C78.9423 29.2493 78.7419 29.1769 78.5919 29.0307C78.4432 28.8859 78.3682 28.6971 78.3682 28.467C78.3682 28.326 78.385 28.145 78.4173 27.9239L78.5324 27.1429L78.5337 27.1416Z" fill="#231F20"/>
<path d="M82.3568 27.1416H82.8611L82.5753 29.1962H82.0762L82.1059 28.9751C81.996 29.0773 81.8939 29.1484 81.7982 29.1885C81.7025 29.2285 81.5965 29.2492 81.4775 29.2492C81.2047 29.2492 80.9887 29.1497 80.8284 28.9492C80.6681 28.7488 80.5879 28.5161 80.5879 28.251C80.5879 28.048 80.6396 27.8553 80.7418 27.6717C80.8439 27.4881 80.9823 27.3459 81.1555 27.2437C81.3288 27.1416 81.5098 27.0898 81.6999 27.0898C81.8266 27.0898 81.9443 27.1196 82.0516 27.1778C82.1589 27.236 82.2469 27.3213 82.3167 27.4325L82.3555 27.1429L82.3568 27.1416ZM81.6003 28.7993C81.7245 28.7993 81.8331 28.7721 81.9249 28.7165C82.0167 28.6609 82.0943 28.5743 82.1577 28.4566C82.2197 28.3389 82.252 28.2174 82.252 28.0945C82.252 27.9316 82.2042 27.801 82.1111 27.7015C82.0167 27.6019 81.8926 27.5528 81.7374 27.5528C81.5577 27.5528 81.4051 27.6187 81.2797 27.7506C81.1542 27.8825 81.0922 28.0532 81.0922 28.2626C81.0922 28.4243 81.14 28.5536 81.2344 28.6518C81.3288 28.7501 81.4516 28.7993 81.6016 28.7993H81.6003Z" fill="#231F20"/>
<path d="M83.2842 27.1409H83.7328L83.6966 27.4202C83.8311 27.1991 83.9927 27.0879 84.1815 27.0879C84.2268 27.0879 84.2733 27.0995 84.3225 27.1241L84.1376 27.5818C84.0988 27.5676 84.0716 27.5611 84.0535 27.5611C83.9552 27.5611 83.8673 27.618 83.7897 27.7318C83.7121 27.8456 83.6514 28.0758 83.6074 28.4223L83.5078 29.1943H83.001L83.2816 27.1396L83.2842 27.1409Z" fill="#231F20"/>
<path d="M86.1714 27.1415H86.677L86.4416 28.7902C86.3964 29.1134 86.3511 29.3281 86.3033 29.4328C86.2296 29.5957 86.1041 29.7315 85.9296 29.8375C85.755 29.9449 85.5352 29.9979 85.2701 29.9979C85.0503 29.9979 84.8589 29.9565 84.696 29.8725C84.5331 29.7884 84.4115 29.6811 84.3301 29.5492L84.771 29.3229C84.9029 29.46 85.0749 29.5285 85.2869 29.5285C85.4098 29.5285 85.5171 29.5065 85.6063 29.4626C85.6968 29.4186 85.7667 29.3591 85.8158 29.2841C85.8649 29.2091 85.9011 29.0979 85.9218 28.9505C85.7356 29.1134 85.5236 29.1936 85.2882 29.1936C85.124 29.1936 84.9714 29.1535 84.8318 29.0721C84.6921 28.9906 84.5822 28.8768 84.5034 28.7294C84.4232 28.582 84.3844 28.4191 84.3844 28.238C84.3844 28.035 84.4361 27.845 84.5408 27.6665C84.6456 27.4881 84.7865 27.3471 84.9663 27.2424C85.146 27.1377 85.3335 27.0859 85.5287 27.0859C85.6477 27.0859 85.755 27.1092 85.8507 27.1558C85.9464 27.2023 86.0421 27.2799 86.1352 27.3885L86.1688 27.139L86.1714 27.1415ZM85.552 27.5644C85.3645 27.5644 85.2055 27.629 85.0762 27.757C84.9469 27.885 84.8822 28.0428 84.8822 28.2316C84.8822 28.3842 84.9301 28.5057 85.0257 28.5975C85.1214 28.6893 85.2507 28.7359 85.4111 28.7359C85.5313 28.7359 85.6425 28.7074 85.746 28.6518C85.8481 28.5962 85.9296 28.5148 85.9891 28.41C86.0485 28.3053 86.0783 28.1915 86.0783 28.0712C86.0783 27.9264 86.0291 27.8062 85.9309 27.7105C85.8326 27.6148 85.7059 27.567 85.552 27.567V27.5644Z" fill="#231F20"/>
<path d="M88.6996 27.1416H89.2038L88.9181 29.1962H88.419L88.4487 28.9751C88.3388 29.0773 88.2366 29.1484 88.141 29.1885C88.0453 29.2285 87.9392 29.2492 87.8203 29.2492C87.5474 29.2492 87.3315 29.1497 87.1712 28.9492C87.0108 28.7488 86.9307 28.5161 86.9307 28.251C86.9307 28.048 86.9824 27.8553 87.0845 27.6717C87.1867 27.4881 87.325 27.3459 87.4983 27.2437C87.6716 27.1416 87.8526 27.0898 88.0427 27.0898C88.1694 27.0898 88.2871 27.1196 88.3944 27.1778C88.5017 27.236 88.5896 27.3213 88.6595 27.4325L88.6983 27.1429L88.6996 27.1416ZM87.9431 28.7993C88.0673 28.7993 88.1759 28.7721 88.2677 28.7165C88.3595 28.6609 88.4371 28.5743 88.5004 28.4566C88.5625 28.3389 88.5948 28.2174 88.5948 28.0945C88.5948 27.9316 88.547 27.801 88.4539 27.7015C88.3595 27.6019 88.2354 27.5528 88.0802 27.5528C87.9005 27.5528 87.7479 27.6187 87.6224 27.7506C87.497 27.8825 87.435 28.0532 87.435 28.2626C87.435 28.4243 87.4828 28.5536 87.5772 28.6518C87.6716 28.7501 87.7944 28.7993 87.9444 28.7993H87.9431Z" fill="#231F20"/>
</g>
<path d="M32.0493 46.5V46.9688C32.0493 47.6133 31.9653 48.1914 31.7974 48.7031C31.6294 49.2148 31.3892 49.6504 31.0767 50.0098C30.7681 50.3691 30.397 50.6445 29.9634 50.8359C29.5298 51.0234 29.0493 51.1172 28.522 51.1172C27.9985 51.1172 27.52 51.0234 27.0864 50.8359C26.6567 50.6445 26.2837 50.3691 25.9673 50.0098C25.6509 49.6504 25.4048 49.2148 25.229 48.7031C25.0571 48.1914 24.9712 47.6133 24.9712 46.9688V46.5C24.9712 45.8555 25.0571 45.2793 25.229 44.7715C25.4009 44.2598 25.6431 43.8242 25.9556 43.4648C26.272 43.1016 26.645 42.8262 27.0747 42.6387C27.5083 42.4473 27.9868 42.3516 28.5103 42.3516C29.0376 42.3516 29.5181 42.4473 29.9517 42.6387C30.3853 42.8262 30.7583 43.1016 31.0708 43.4648C31.3833 43.8242 31.6235 44.2598 31.7915 44.7715C31.9634 45.2793 32.0493 45.8555 32.0493 46.5ZM30.5786 46.9688V46.4883C30.5786 46.0117 30.5317 45.5918 30.438 45.2285C30.3481 44.8613 30.2134 44.5547 30.0337 44.3086C29.8579 44.0586 29.6411 43.8711 29.3833 43.7461C29.1255 43.6172 28.8345 43.5527 28.5103 43.5527C28.186 43.5527 27.897 43.6172 27.6431 43.7461C27.3892 43.8711 27.1724 44.0586 26.9927 44.3086C26.8169 44.5547 26.6821 44.8613 26.5884 45.2285C26.4946 45.5918 26.4478 46.0117 26.4478 46.4883V46.9688C26.4478 47.4453 26.4946 47.8672 26.5884 48.2344C26.6821 48.6016 26.8188 48.9121 26.9985 49.166C27.1821 49.416 27.4009 49.6055 27.6548 49.7344C27.9087 49.8594 28.1978 49.9219 28.522 49.9219C28.8501 49.9219 29.1411 49.8594 29.395 49.7344C29.6489 49.6055 29.8638 49.416 30.0396 49.166C30.2153 48.9121 30.3481 48.6016 30.438 48.2344C30.5317 47.8672 30.5786 47.4453 30.5786 46.9688ZM34.7974 45.8672V51H33.3853V44.6602H34.7329L34.7974 45.8672ZM36.7368 44.6191L36.7251 45.9316C36.6392 45.916 36.5454 45.9043 36.4438 45.8965C36.3462 45.8887 36.2485 45.8848 36.1509 45.8848C35.9087 45.8848 35.6958 45.9199 35.5122 45.9902C35.3286 46.0566 35.1743 46.1543 35.0493 46.2832C34.9282 46.4082 34.8345 46.5605 34.7681 46.7402C34.7017 46.9199 34.6626 47.1211 34.6509 47.3438L34.3286 47.3672C34.3286 46.9688 34.3677 46.5996 34.4458 46.2598C34.5239 45.9199 34.6411 45.6211 34.7974 45.3633C34.9575 45.1055 35.1567 44.9043 35.395 44.7598C35.6372 44.6152 35.9165 44.543 36.2329 44.543C36.3188 44.543 36.4106 44.5508 36.5083 44.5664C36.6099 44.582 36.686 44.5996 36.7368 44.6191ZM39.1333 44.6602V51H37.7153V44.6602H39.1333ZM37.6216 42.9961C37.6216 42.7812 37.6919 42.6035 37.8325 42.4629C37.9771 42.3184 38.1763 42.2461 38.4302 42.2461C38.6802 42.2461 38.8774 42.3184 39.022 42.4629C39.1665 42.6035 39.2388 42.7812 39.2388 42.9961C39.2388 43.207 39.1665 43.3828 39.022 43.5234C38.8774 43.6641 38.6802 43.7344 38.4302 43.7344C38.1763 43.7344 37.9771 43.6641 37.8325 43.5234C37.6919 43.3828 37.6216 43.207 37.6216 42.9961ZM44.7407 44.6602H46.0239V50.8242C46.0239 51.3945 45.9028 51.8789 45.6606 52.2773C45.4185 52.6758 45.0806 52.9785 44.647 53.1855C44.2134 53.3965 43.7114 53.502 43.1411 53.502C42.8989 53.502 42.6294 53.4668 42.3325 53.3965C42.0396 53.3262 41.7544 53.2129 41.4771 53.0566C41.2036 52.9043 40.9751 52.7031 40.7915 52.4531L41.4536 51.6211C41.6802 51.8906 41.9302 52.0879 42.2036 52.2129C42.4771 52.3379 42.7642 52.4004 43.0649 52.4004C43.3892 52.4004 43.6646 52.3398 43.8911 52.2188C44.1216 52.1016 44.2993 51.9277 44.4243 51.6973C44.5493 51.4668 44.6118 51.1855 44.6118 50.8535V46.0957L44.7407 44.6602ZM40.4341 47.9004V47.7773C40.4341 47.2969 40.4927 46.8594 40.6099 46.4648C40.7271 46.0664 40.895 45.7246 41.1138 45.4395C41.3325 45.1504 41.5981 44.9297 41.9106 44.7773C42.2231 44.6211 42.5767 44.543 42.9712 44.543C43.3813 44.543 43.731 44.6172 44.02 44.7656C44.313 44.9141 44.5571 45.127 44.7524 45.4043C44.9478 45.6777 45.1001 46.0059 45.2095 46.3887C45.3228 46.7676 45.4067 47.1895 45.4614 47.6543V48.0469C45.4106 48.5 45.3247 48.9141 45.2036 49.2891C45.0825 49.6641 44.9224 49.9883 44.7231 50.2617C44.5239 50.5352 44.2778 50.7461 43.9849 50.8945C43.6958 51.043 43.354 51.1172 42.9595 51.1172C42.5728 51.1172 42.2231 51.0371 41.9106 50.877C41.6021 50.7168 41.3364 50.4922 41.1138 50.2031C40.895 49.9141 40.7271 49.5742 40.6099 49.1836C40.4927 48.7891 40.4341 48.3613 40.4341 47.9004ZM41.8462 47.7773V47.9004C41.8462 48.1895 41.8735 48.459 41.9282 48.709C41.9868 48.959 42.0747 49.1797 42.1919 49.3711C42.313 49.5586 42.4653 49.707 42.6489 49.8164C42.8364 49.9219 43.0571 49.9746 43.311 49.9746C43.6431 49.9746 43.9146 49.9043 44.1255 49.7637C44.3403 49.623 44.5044 49.4336 44.6177 49.1953C44.7349 48.9531 44.8169 48.6836 44.8638 48.3867V47.3262C44.8403 47.0957 44.7915 46.8809 44.7173 46.6816C44.647 46.4824 44.5513 46.3086 44.4302 46.1602C44.3091 46.0078 44.1567 45.8906 43.9731 45.8086C43.7896 45.7227 43.5728 45.6797 43.3228 45.6797C43.0688 45.6797 42.8481 45.7344 42.6606 45.8438C42.4731 45.9531 42.3188 46.1035 42.1978 46.2949C42.0806 46.4863 41.9927 46.709 41.9341 46.9629C41.8755 47.2168 41.8462 47.4883 41.8462 47.7773ZM49.0005 44.6602V51H47.5825V44.6602H49.0005ZM47.4888 42.9961C47.4888 42.7812 47.5591 42.6035 47.6997 42.4629C47.8442 42.3184 48.0435 42.2461 48.2974 42.2461C48.5474 42.2461 48.7446 42.3184 48.8892 42.4629C49.0337 42.6035 49.106 42.7812 49.106 42.9961C49.106 43.207 49.0337 43.3828 48.8892 43.5234C48.7446 43.6641 48.5474 43.7344 48.2974 43.7344C48.0435 43.7344 47.8442 43.6641 47.6997 43.5234C47.5591 43.3828 47.4888 43.207 47.4888 42.9961ZM51.9478 46.0137V51H50.5356V44.6602H51.8657L51.9478 46.0137ZM51.6958 47.5957L51.2388 47.5898C51.2427 47.1406 51.3052 46.7285 51.4263 46.3535C51.5513 45.9785 51.7231 45.6562 51.9419 45.3867C52.1646 45.1172 52.4302 44.9102 52.7388 44.7656C53.0474 44.6172 53.3911 44.543 53.77 44.543C54.0747 44.543 54.3501 44.5859 54.5962 44.6719C54.8462 44.7539 55.0591 44.8887 55.2349 45.0762C55.4146 45.2637 55.5513 45.5078 55.645 45.8086C55.7388 46.1055 55.7856 46.4707 55.7856 46.9043V51H54.3677V46.8984C54.3677 46.5938 54.3228 46.3535 54.2329 46.1777C54.147 45.998 54.02 45.8711 53.8521 45.7969C53.688 45.7188 53.4829 45.6797 53.2368 45.6797C52.9946 45.6797 52.7778 45.7305 52.5864 45.832C52.395 45.9336 52.2329 46.0723 52.1001 46.248C51.9712 46.4238 51.8716 46.627 51.8013 46.8574C51.731 47.0879 51.6958 47.334 51.6958 47.5957ZM60.8013 49.7285V46.7051C60.8013 46.4785 60.7603 46.2832 60.6782 46.1191C60.5962 45.9551 60.4712 45.8281 60.3032 45.7383C60.1392 45.6484 59.9321 45.6035 59.6821 45.6035C59.4517 45.6035 59.2524 45.6426 59.0845 45.7207C58.9165 45.7988 58.7856 45.9043 58.6919 46.0371C58.5981 46.1699 58.5513 46.3203 58.5513 46.4883H57.145C57.145 46.2383 57.2056 45.9961 57.3267 45.7617C57.4478 45.5273 57.6235 45.3184 57.854 45.1348C58.0845 44.9512 58.3599 44.8066 58.6802 44.7012C59.0005 44.5957 59.3599 44.543 59.7583 44.543C60.2349 44.543 60.6567 44.623 61.0239 44.7832C61.395 44.9434 61.686 45.1855 61.897 45.5098C62.1118 45.8301 62.2192 46.2324 62.2192 46.7168V49.5352C62.2192 49.8242 62.2388 50.084 62.2778 50.3145C62.3208 50.541 62.3813 50.7383 62.4595 50.9062V51H61.0122C60.9458 50.8477 60.8931 50.6543 60.854 50.4199C60.8188 50.1816 60.8013 49.9512 60.8013 49.7285ZM61.0063 47.1445L61.0181 48.0176H60.0044C59.7427 48.0176 59.5122 48.043 59.313 48.0938C59.1138 48.1406 58.9478 48.2109 58.8149 48.3047C58.6821 48.3984 58.5825 48.5117 58.5161 48.6445C58.4497 48.7773 58.4165 48.9277 58.4165 49.0957C58.4165 49.2637 58.4556 49.418 58.5337 49.5586C58.6118 49.6953 58.7251 49.8027 58.8735 49.8809C59.0259 49.959 59.2095 49.998 59.4243 49.998C59.7134 49.998 59.9653 49.9395 60.1802 49.8223C60.3989 49.7012 60.5708 49.5547 60.6958 49.3828C60.8208 49.207 60.8872 49.041 60.895 48.8848L61.3521 49.5117C61.3052 49.6719 61.2251 49.8438 61.1118 50.0273C60.9985 50.2109 60.8501 50.3867 60.6665 50.5547C60.4868 50.7188 60.27 50.8535 60.0161 50.959C59.7661 51.0645 59.4771 51.1172 59.1489 51.1172C58.7349 51.1172 58.3657 51.0352 58.0415 50.8711C57.7173 50.7031 57.4634 50.4785 57.2798 50.1973C57.0962 49.9121 57.0044 49.5898 57.0044 49.2305C57.0044 48.8945 57.0669 48.5977 57.1919 48.3398C57.3208 48.0781 57.5083 47.8594 57.7544 47.6836C58.0044 47.5078 58.3091 47.375 58.6685 47.2852C59.0278 47.1914 59.438 47.1445 59.8989 47.1445H61.0063ZM65.2075 42V51H63.7896V42H65.2075Z" fill="#636466"/>
<defs>
<clipPath id="clip0_1857_16869">
<rect width="90.759" height="30" fill="white"/>
</clipPath>
</defs>
</svg>
