<svg width="92" height="55" viewBox="0 0 92 55" fill="none" xmlns="http://www.w3.org/2000/svg">
<g clip-path="url(#clip0_1857_16878)">
<path d="M58.415 1.88656C58.415 1.88656 58.0724 0.837901 58.1396 0.347836C58.1396 0.347836 56.2841 0.421539 54.4984 1.88656C52.714 3.35417 52.5472 5.72821 52.8019 7.47511C49.8861 8.25482 47.9918 11.8766 48.7573 15.6459C48.7573 15.6459 48.1844 16.2769 47.2922 15.9278C46.4 15.5786 46.6677 12.3667 46.5992 10.0599C46.55 8.23284 45.1341 5.44891 42.839 5.44891C40.5438 5.44891 36.5961 6.36827 36.5845 7.95354C36.578 8.99832 38.8835 8.31301 40.1585 8.10224C41.4321 7.89406 42.848 8.80307 42.9773 9.78062C40.4895 10.5474 36.7668 13.065 36.5108 16.2097C34.6617 17.0475 34.473 15.5812 34.4083 14.6037C34.3501 13.6248 34.4936 7.26823 34.3618 5.10108C34.2376 2.93781 33.1243 1.67967 32.0343 1.74821C30.9507 1.81932 28.7228 2.72316 28.3374 3.98389C27.9586 5.24331 29.4223 4.96272 29.999 4.82307C30.5731 4.68472 31.0192 5.38038 31.0192 6.21956C31.0192 7.05875 31.0296 13.9041 30.9662 14.8119C30.9003 15.7196 30.2033 16.348 29.5684 16.348C28.9335 16.348 28.8663 15.0226 28.8663 14.1834C28.8663 13.3443 28.7965 9.58795 28.7693 8.52507C28.746 7.48287 27.3922 5.83553 25.3608 5.68166C24.3807 5.60925 20.0956 6.18336 19.5189 7.36908C18.5336 9.41081 21.4701 8.32853 22.1748 8.19017C22.8743 8.04664 25.004 8.0363 25.2587 9.1509C25.516 10.272 23.0114 10.2487 20.6891 12.3667C18.2659 14.5804 13.47 16.6777 11.1593 16.4178C7.54265 16.0131 5.29404 13.4852 5.2268 10.3405C5.1531 6.7161 7.58015 4.66274 8.95724 4.055C11.0041 3.14858 13.5864 3.00893 14.6699 3.70588C15.7548 4.40542 15.6268 5.52003 14.7333 5.87174C13.8411 6.22086 11.4153 5.94156 10.7119 5.87174C10.0124 5.8032 9.18353 6.22086 9.37361 7.05746C9.56368 7.89794 10.6473 8.9479 13.2618 8.6673C15.8802 8.38801 18.368 6.99151 18.562 4.47783C18.7534 1.95639 14.8833 -0.0038734 10.6524 5.74728e-06C6.24702 0.00388489 1.97479 3.424 0.892506 6.42516C-0.194947 9.42891 0.825268 12.7391 2.03815 14.9114C4.49882 19.322 10.421 19.6569 12.4717 19.5095C15.0863 19.3233 17.6297 17.535 18.9034 16.2756C18.7779 17.6023 19.6766 19.1009 21.4584 19.3673C22.7528 19.5612 24.5863 18.6496 25.0958 18.0199C25.0958 18.0199 26.1225 19.3453 27.7853 19.3453C29.4482 19.3453 30.6261 18.232 31.2028 17.8117C31.2028 17.8117 32.0834 19.3453 33.6545 19.3453C34.866 19.3453 35.872 18.51 37.0164 17.535C37.884 18.594 38.9753 19.26 40.0292 19.3168C41.5356 19.3944 42.9657 18.4699 43.5295 17.8117C43.5295 17.8117 45.1846 19.2289 46.4634 19.2974C47.7396 19.3686 49.0779 18.4376 49.7788 17.8117C50.6102 18.6496 53.0334 19.975 56.094 19.1384C59.1585 18.2992 60.33 15.7157 60.33 13.7606C60.33 11.8055 57.0134 6.84669 55.9259 5.3765C55.6091 4.04983 57.5215 2.02492 58.4163 1.88527M24.4674 16.4838C23.5092 17.2544 21.6498 16.904 21.4584 16.2756C21.2658 15.6446 21.7119 14.6011 22.7334 13.6895C23.7562 12.7792 25.3777 12.3654 25.3777 12.3654C25.4397 13.0624 25.4255 15.7157 24.4674 16.4838ZM42.2894 16.4838C41.3352 17.2544 39.5081 16.904 39.3154 16.2756C39.124 15.6446 39.5689 14.6011 40.5904 13.6895C41.6145 12.7792 43.0329 12.3654 43.0329 12.3654C43.0989 13.0624 43.2502 15.7157 42.2881 16.4838M55.3272 16.9713C53.7316 17.3941 51.8838 15.6446 51.3718 13.4115C50.8585 11.1758 52.8381 9.42891 53.6695 9.36167C53.6695 9.36167 55.1979 12.0874 56.2181 13.4813C57.2422 14.8804 56.9228 16.5549 55.3272 16.9713ZM61.5584 4.12224C61.4291 4.75066 61.1136 5.79803 61.1136 5.79803C62.0045 5.44762 64.0475 5.30797 64.0475 3.56106C64.0475 1.81415 63.4023 1.61632 62.1985 1.81544C60.9197 2.02492 59.7714 3.21452 59.7714 3.21452C60.5382 3.1447 61.6864 3.48994 61.5584 4.12224ZM86.1703 17.473C83.5583 18.5203 81.8347 14.8196 81.708 13.4231C82.6015 13.5615 85.344 12.3745 86.3655 11.6051C87.3819 10.8383 89.9369 7.90311 87.7672 5.94803C85.6014 3.99164 81.8347 6.08767 79.7296 8.60136C77.6258 11.1163 78.2659 14.3179 78.9654 16.0674C76.9871 16.97 76.7466 15.2243 76.6806 13.1994C76.6211 11.1745 76.3082 7.00186 75.288 6.02302C74.2704 5.04677 71.2576 6.14586 70.2387 6.8454C70.3033 6.35404 69.79 5.30409 68.643 5.44632C67.4935 5.58468 65.5177 6.91264 65.0678 7.682C66.2186 7.74924 66.9207 8.03113 66.9207 8.80049C66.9207 9.56985 67.1108 13.4102 66.9841 15.1571C66.9841 15.1571 66.0906 16.1347 65.0678 16.6247C64.0501 17.1109 64.3023 11.7318 64.3023 10.1259C64.3023 8.5199 64.1096 7.26435 63.092 6.77299C62.0718 6.2868 60.0934 7.47382 59.3926 7.96001C59.3926 7.96001 59.712 8.45137 60.1581 8.66084C60.6029 8.86902 61.0503 9.00996 61.0503 10.2668C61.0503 11.5236 61.1162 14.177 61.0503 16.0674C60.9856 17.9475 62.0071 19.2483 63.4101 19.3168C64.8143 19.3867 66.2186 18.0186 66.9841 17.3915C66.9841 17.6708 68.1297 19.3673 69.1512 19.2987C70.1714 19.2276 71.6416 17.182 72.1498 16.2045C70.6809 16.4114 70.4313 15.9239 70.4313 15.0149C70.4313 14.1059 70.2387 12.8477 70.3033 11.7292C70.3641 10.612 70.3563 8.67894 71.6416 8.65825C73.9161 8.61558 73.1066 11.5909 73.364 14.1757C73.6187 16.7592 75.0216 18.9574 76.488 19.3065C77.9556 19.6569 79.409 18.0173 79.9856 17.3902C81.5787 18.7867 84.5139 19.6362 86.1095 19.2871C87.7038 18.938 90.1296 16.7708 89.7456 16.0041C89.3628 15.236 88.7874 16.4243 86.1703 17.4704M85.2794 7.27081C86.9397 8.03888 84.7066 10.4142 84.1325 10.6948C83.5583 10.9728 81.5166 11.6012 81.5166 11.6012C81.4546 10.903 83.0877 6.25577 85.2794 7.26952M90.3132 3.83131V3.81708C90.4464 3.777 90.5421 3.67873 90.5421 3.54942C90.5421 3.44468 90.4942 3.35546 90.4335 3.30633C90.352 3.25202 90.2576 3.21711 90.0507 3.21711C89.8671 3.21711 89.7275 3.2378 89.6253 3.25849V4.38602H89.8826V3.93604H90.0016C90.1438 3.93604 90.2098 3.99164 90.2318 4.11448C90.2654 4.24637 90.2848 4.34206 90.3197 4.38602H90.5951C90.5692 4.34853 90.5486 4.28129 90.5162 4.10802C90.4813 3.95673 90.4205 3.86622 90.3132 3.83131ZM90.0107 3.74855H89.8878V3.424C89.915 3.41753 89.9628 3.40977 90.0287 3.40977C90.1917 3.40977 90.2641 3.4796 90.2641 3.58304C90.2641 3.70071 90.1503 3.74726 90.0094 3.74726M90.0624 2.66368H90.0559C89.4223 2.66368 88.9193 3.16668 88.9193 3.79639C88.9193 4.43904 89.4236 4.93428 90.0572 4.93428C90.6908 4.93428 91.1912 4.43775 91.1899 3.79639C91.1899 3.16668 90.6973 2.66368 90.0637 2.66368M90.0637 4.70023C89.5658 4.70023 89.2012 4.30068 89.2012 3.79639C89.2012 3.29728 89.5658 2.89255 90.0507 2.89255H90.0559C90.5473 2.89255 90.9067 3.29857 90.9067 3.79639C90.9067 4.30068 90.5486 4.7067 90.0637 4.70023Z" fill="#231F20"/>
<path d="M2.23594 26.418H2.72342C3.01953 26.418 3.22771 26.4438 3.34926 26.4956C3.49925 26.5602 3.61433 26.6494 3.69191 26.7632C3.7695 26.877 3.80829 27.0115 3.80829 27.1654C3.80829 27.3334 3.76303 27.4873 3.67122 27.6231C3.58071 27.7602 3.45787 27.8597 3.30529 27.9218C3.15142 27.9839 2.89669 28.0175 2.53981 28.0226L2.37818 29.1954H1.85449L2.23465 26.418H2.23594ZM2.60446 27.5326C2.88764 27.5326 3.07125 27.5015 3.15788 27.4434C3.24452 27.3852 3.28719 27.2998 3.28719 27.1847C3.28719 27.1201 3.27038 27.0658 3.23676 27.0218C3.20314 26.9779 3.15271 26.9468 3.08677 26.9287C3.02082 26.9106 2.89022 26.9029 2.69368 26.9029L2.60317 27.5313L2.60446 27.5326Z" fill="#231F20"/>
<path d="M5.51401 28.595L5.95753 28.8251C5.85797 28.9557 5.72607 29.0592 5.56186 29.1354C5.39764 29.2117 5.21532 29.2492 5.0149 29.2492C4.70198 29.2492 4.45501 29.1613 4.27398 28.9855C4.09295 28.8096 4.00244 28.5756 4.00244 28.2833C4.00244 27.9497 4.11494 27.6678 4.34122 27.4364C4.5675 27.2049 4.84034 27.0898 5.15972 27.0898C5.35238 27.0898 5.52436 27.1325 5.67435 27.2166C5.82435 27.3006 5.94331 27.4235 6.02994 27.5851C6.11657 27.7467 6.16054 27.9213 6.16054 28.1101C6.16054 28.1695 6.15407 28.2381 6.14114 28.3182H4.50285C4.50802 28.4605 4.55457 28.5743 4.64379 28.6596C4.73301 28.7437 4.85456 28.7863 5.01102 28.7863C5.1998 28.7863 5.36661 28.723 5.51272 28.5962L5.51401 28.595ZM5.64203 27.9458C5.60453 27.8204 5.54117 27.7247 5.45324 27.6601C5.36531 27.5954 5.25928 27.5631 5.13386 27.5631C5.00843 27.5631 4.89852 27.5967 4.80025 27.6627C4.70069 27.7299 4.62569 27.8243 4.57397 27.9458H5.64203Z" fill="#231F20"/>
<path d="M6.61277 27.1409H7.06145L7.02525 27.4202C7.15973 27.1991 7.32136 27.0879 7.51014 27.0879C7.5554 27.0879 7.60324 27.0995 7.65108 27.1241L7.46618 27.5818C7.42739 27.5676 7.40023 27.5611 7.38213 27.5611C7.28386 27.5611 7.19593 27.618 7.11835 27.7318C7.04077 27.8456 6.97999 28.0758 6.93603 28.4223L6.83646 29.1943H6.32959L6.61018 27.1396L6.61277 27.1409Z" fill="#231F20"/>
<path d="M9.47592 27.1416H9.98021L9.69445 29.1962H9.19533L9.22507 28.9751C9.11516 29.0773 9.01301 29.1484 8.91732 29.1885C8.82164 29.2285 8.71561 29.2492 8.59665 29.2492C8.32511 29.2492 8.10788 29.1497 7.94754 28.9492C7.7872 28.7488 7.70703 28.5161 7.70703 28.251C7.70703 28.048 7.75875 27.8553 7.8609 27.6717C7.96435 27.4881 8.10141 27.3459 8.27468 27.2437C8.44795 27.1416 8.62897 27.0898 8.81776 27.0898C8.94448 27.0898 9.06215 27.1196 9.16947 27.1778C9.27679 27.236 9.36472 27.3213 9.43454 27.4325L9.47463 27.1429L9.47592 27.1416ZM8.71819 28.7993C8.84233 28.7993 8.95094 28.7721 9.04275 28.7165C9.13585 28.6609 9.21214 28.5743 9.2755 28.4566C9.33756 28.3389 9.36989 28.2174 9.36989 28.0945C9.36989 27.9316 9.32334 27.801 9.22895 27.7015C9.13456 27.6019 9.01042 27.5528 8.85526 27.5528C8.67552 27.5528 8.52294 27.6187 8.39752 27.7506C8.27209 27.8825 8.21003 28.0532 8.21003 28.2626C8.21003 28.4243 8.25787 28.5536 8.35226 28.6518C8.44665 28.7501 8.56949 28.7993 8.71949 28.7993H8.71819Z" fill="#231F20"/>
<path d="M10.2503 27.1416H10.7365L11.0197 28.242L11.6171 27.1416H11.8162L12.1033 28.242L12.6993 27.1416H13.2347L12.1175 29.1963H11.8744L11.5951 28.1101L11.0093 29.1963H10.7714L10.249 27.1416H10.2503Z" fill="#231F20"/>
<path d="M15.1209 27.1416H15.6252L15.3395 29.1962H14.8403L14.8701 28.9751C14.7602 29.0773 14.658 29.1484 14.5623 29.1885C14.4667 29.2285 14.3606 29.2492 14.2417 29.2492C13.9701 29.2492 13.7529 29.1497 13.5926 28.9492C13.4322 28.7488 13.3521 28.5161 13.3521 28.251C13.3521 28.048 13.4038 27.8553 13.5059 27.6717C13.6094 27.4881 13.7464 27.3459 13.9197 27.2437C14.093 27.1416 14.274 27.0898 14.4628 27.0898C14.5895 27.0898 14.7072 27.1196 14.8145 27.1778C14.9218 27.236 15.0097 27.3213 15.0796 27.4325L15.1196 27.1429L15.1209 27.1416ZM14.3632 28.7993C14.4873 28.7993 14.596 28.7721 14.6878 28.7165C14.7809 28.6609 14.8572 28.5743 14.9205 28.4566C14.9826 28.3389 15.0149 28.2174 15.0149 28.0945C15.0149 27.9316 14.9684 27.801 14.874 27.7015C14.7796 27.6019 14.6554 27.5528 14.5003 27.5528C14.3205 27.5528 14.168 27.6187 14.0425 27.7506C13.9171 27.8825 13.855 28.0532 13.855 28.2626C13.855 28.4243 13.9029 28.5536 13.9973 28.6518C14.0917 28.7501 14.2145 28.7993 14.3645 28.7993H14.3632Z" fill="#231F20"/>
<path d="M16.2654 26.3779H16.7671L16.6636 27.1408H16.983L16.9222 27.5753H16.6041L16.3843 29.1955H15.8813L16.1024 27.5753H15.8555L15.9137 27.1408H16.1619L16.2667 26.3779H16.2654Z" fill="#231F20"/>
<path d="M18.8333 27.1416H19.3376L19.0519 29.1962H18.5528L18.5825 28.9751C18.4726 29.0773 18.3704 29.1484 18.2747 29.1885C18.1791 29.2285 18.073 29.2492 17.9541 29.2492C17.6825 29.2492 17.4653 29.1497 17.305 28.9492C17.1446 28.7488 17.0645 28.5161 17.0645 28.251C17.0645 28.048 17.1162 27.8553 17.2183 27.6717C17.3218 27.4881 17.4588 27.3459 17.6321 27.2437C17.8054 27.1416 17.9864 27.0898 18.1752 27.0898C18.3019 27.0898 18.4196 27.1196 18.5269 27.1778C18.6342 27.236 18.7221 27.3213 18.792 27.4325L18.832 27.1429L18.8333 27.1416ZM18.0756 28.7993C18.1997 28.7993 18.3084 28.7721 18.4002 28.7165C18.4933 28.6609 18.5696 28.5743 18.6329 28.4566C18.695 28.3389 18.7273 28.2174 18.7273 28.0945C18.7273 27.9316 18.6808 27.801 18.5864 27.7015C18.492 27.6019 18.3678 27.5528 18.2127 27.5528C18.0329 27.5528 17.8804 27.6187 17.7549 27.7506C17.6295 27.8825 17.5674 28.0532 17.5674 28.2626C17.5674 28.4243 17.6153 28.5536 17.7097 28.6518C17.8041 28.7501 17.9269 28.7993 18.0769 28.7993H18.0756Z" fill="#231F20"/>
<path d="M19.877 27.1409H20.38L20.3515 27.3491C20.5442 27.1745 20.7446 27.0879 20.9528 27.0879C21.1299 27.0879 21.276 27.1448 21.3898 27.2573C21.5036 27.3698 21.5605 27.512 21.5605 27.684C21.5605 27.7642 21.5502 27.8844 21.5282 28.0447L21.3704 29.1956H20.8674L21.0213 28.0719C21.0368 27.9555 21.0446 27.8689 21.0446 27.812C21.0446 27.7292 21.0213 27.6646 20.9735 27.6206C20.9256 27.5767 20.8584 27.5534 20.7717 27.5534C20.6851 27.5534 20.6024 27.5831 20.5183 27.6413C20.4343 27.6995 20.3683 27.781 20.3231 27.8844C20.2778 27.9879 20.2364 28.1831 20.1976 28.4689L20.1007 29.1956H19.5977L19.8782 27.1409H19.877Z" fill="#231F20"/>
<path d="M25.8211 26.937L25.3867 27.2189C25.2613 27.0753 25.1397 26.9758 25.022 26.9202C24.9044 26.8646 24.7725 26.8361 24.6238 26.8361C24.3031 26.8361 24.0419 26.9654 23.8402 27.2227C23.6799 27.4283 23.601 27.6559 23.601 27.9068C23.601 28.1576 23.6837 28.3606 23.848 28.5274C24.0122 28.6942 24.2139 28.7783 24.4544 28.7783C24.6328 28.7783 24.7958 28.7356 24.9419 28.649C25.088 28.5623 25.2082 28.433 25.3013 28.2598H24.435L24.4996 27.7671H25.9039C25.8832 28.2261 25.7397 28.5908 25.472 28.861C25.2044 29.1313 24.8643 29.2657 24.4492 29.2657C23.9992 29.2657 23.6436 29.1093 23.3863 28.7977C23.1782 28.5468 23.0747 28.2494 23.0747 27.9029C23.0747 27.4813 23.2273 27.1167 23.5312 26.809C23.835 26.5012 24.1971 26.3486 24.6173 26.3486C24.7738 26.3486 24.9251 26.3719 25.0738 26.4172C25.2225 26.4624 25.3569 26.5258 25.4759 26.6085C25.5949 26.6913 25.7099 26.7999 25.8198 26.9383L25.8211 26.937Z" fill="#231F20"/>
<path d="M28.036 27.1416H28.5403L28.2545 29.1962H27.7554L27.7851 28.9751C27.6752 29.0773 27.5731 29.1484 27.4774 29.1885C27.3817 29.2285 27.2757 29.2492 27.1567 29.2492C26.8852 29.2492 26.6679 29.1497 26.5076 28.9492C26.3473 28.7488 26.2671 28.5161 26.2671 28.251C26.2671 28.048 26.3188 27.8553 26.421 27.6717C26.5244 27.4881 26.6615 27.3459 26.8347 27.2437C27.008 27.1416 27.189 27.0898 27.3778 27.0898C27.5045 27.0898 27.6222 27.1196 27.7295 27.1778C27.8368 27.236 27.9248 27.3213 27.9946 27.4325L28.0347 27.1429L28.036 27.1416ZM27.2783 28.7993C27.4024 28.7993 27.511 28.7721 27.6028 28.7165C27.6959 28.6609 27.7722 28.5743 27.8356 28.4566C27.8976 28.3389 27.9299 28.2174 27.9299 28.0945C27.9299 27.9316 27.8834 27.801 27.789 27.7015C27.6946 27.6019 27.5705 27.5528 27.4153 27.5528C27.2356 27.5528 27.083 27.6187 26.9576 27.7506C26.8322 27.8825 26.7701 28.0532 26.7701 28.2626C26.7701 28.4243 26.8179 28.5536 26.9123 28.6518C27.0067 28.7501 27.1296 28.7993 27.2795 28.7993H27.2783Z" fill="#231F20"/>
<path d="M29.1804 26.3779H29.6821L29.5787 27.1408H29.898L29.8373 27.5753H29.5192L29.2994 29.1955H28.7964L29.0175 27.5753H28.7705L28.8287 27.1408H29.077L29.1817 26.3779H29.1804Z" fill="#231F20"/>
<path d="M31.7474 27.1416H32.2517L31.9659 29.1962H31.4668L31.4966 28.9751C31.3866 29.0773 31.2845 29.1484 31.1888 29.1885C31.0931 29.2285 30.9871 29.2492 30.8681 29.2492C30.5966 29.2492 30.3794 29.1497 30.219 28.9492C30.0587 28.7488 29.9785 28.5161 29.9785 28.251C29.9785 28.048 30.0302 27.8553 30.1324 27.6717C30.2358 27.4881 30.3729 27.3459 30.5462 27.2437C30.7194 27.1416 30.9005 27.0898 31.0892 27.0898C31.216 27.0898 31.3336 27.1196 31.441 27.1778C31.5483 27.236 31.6362 27.3213 31.706 27.4325L31.7461 27.1429L31.7474 27.1416ZM30.9897 28.7993C31.1138 28.7993 31.2224 28.7721 31.3142 28.7165C31.4073 28.6609 31.4836 28.5743 31.547 28.4566C31.609 28.3389 31.6414 28.2174 31.6414 28.0945C31.6414 27.9316 31.5948 27.801 31.5004 27.7015C31.406 27.6019 31.2819 27.5528 31.1267 27.5528C30.947 27.5528 30.7944 27.6187 30.669 27.7506C30.5436 27.8825 30.4815 28.0532 30.4815 28.2626C30.4815 28.4243 30.5294 28.5536 30.6237 28.6518C30.7181 28.7501 30.841 28.7993 30.991 28.7993H30.9897Z" fill="#231F20"/>
<path d="M32.8399 26.3486H33.3429L32.9537 29.1959H32.4507L32.8399 26.3486Z" fill="#231F20"/>
<path d="M36.4175 26.3486H36.9218L36.5275 29.1959H36.0283L36.0581 28.9748C35.9482 29.077 35.846 29.1481 35.7503 29.1882C35.6546 29.2282 35.5486 29.2489 35.4297 29.2489C35.1581 29.2489 34.9409 29.1494 34.7805 28.949C34.6202 28.7485 34.54 28.5158 34.54 28.2507C34.54 28.0477 34.5918 27.855 34.6939 27.6714C34.7974 27.4878 34.9344 27.3456 35.1077 27.2434C35.281 27.1413 35.462 27.0895 35.6508 27.0895C35.7775 27.0895 35.8952 27.1193 36.0025 27.1775C36.1098 27.2357 36.1977 27.321 36.2675 27.4322L36.415 26.3499L36.4175 26.3486ZM35.5512 28.799C35.6753 28.799 35.7827 28.7718 35.8758 28.7162C35.9689 28.6606 36.0451 28.574 36.1085 28.4563C36.1706 28.3386 36.2029 28.2171 36.2029 28.0942C36.2029 27.9313 36.1563 27.8007 36.062 27.7012C35.9676 27.6016 35.8434 27.5525 35.6896 27.5525C35.5098 27.5525 35.3572 27.6184 35.2318 27.7503C35.1064 27.8822 35.0443 28.0529 35.0443 28.2623C35.0443 28.424 35.0922 28.5533 35.1866 28.6516C35.281 28.7498 35.4038 28.799 35.5525 28.799H35.5512Z" fill="#231F20"/>
<path d="M38.8617 27.1416H39.366L39.0802 29.1962H38.5811L38.6108 28.9751C38.5009 29.0773 38.3988 29.1484 38.3031 29.1885C38.2074 29.2285 38.1014 29.2492 37.9824 29.2492C37.7109 29.2492 37.4936 29.1497 37.3333 28.9492C37.1729 28.7488 37.0928 28.5161 37.0928 28.251C37.0928 28.048 37.1445 27.8553 37.2466 27.6717C37.3501 27.4881 37.4872 27.3459 37.6604 27.2437C37.8337 27.1416 38.0147 27.0898 38.2035 27.0898C38.3302 27.0898 38.4479 27.1196 38.5552 27.1778C38.6625 27.236 38.7505 27.3213 38.8203 27.4325L38.8604 27.1429L38.8617 27.1416ZM38.1039 28.7993C38.2281 28.7993 38.3367 28.7721 38.4285 28.7165C38.5216 28.6609 38.5979 28.5743 38.6612 28.4566C38.7233 28.3389 38.7556 28.2174 38.7556 28.0945C38.7556 27.9316 38.7091 27.801 38.6147 27.7015C38.5203 27.6019 38.3962 27.5528 38.241 27.5528C38.0613 27.5528 37.9087 27.6187 37.7833 27.7506C37.6578 27.8825 37.5958 28.0532 37.5958 28.2626C37.5958 28.4243 37.6436 28.5536 37.738 28.6518C37.8324 28.7501 37.9552 28.7993 38.1052 28.7993H38.1039Z" fill="#231F20"/>
<path d="M39.9063 27.1409H40.4092L40.3808 27.3491C40.5735 27.1745 40.7739 27.0879 40.9821 27.0879C41.1592 27.0879 41.3053 27.1448 41.4191 27.2573C41.5329 27.3698 41.5898 27.512 41.5898 27.684C41.5898 27.7642 41.5795 27.8844 41.5575 28.0447L41.3997 29.1956H40.8967L41.0506 28.0719C41.0661 27.9555 41.0739 27.8689 41.0739 27.812C41.0739 27.7292 41.0506 27.6646 41.0028 27.6206C40.9549 27.5767 40.8877 27.5534 40.801 27.5534C40.7144 27.5534 40.6317 27.5831 40.5476 27.6413C40.4636 27.6995 40.3976 27.781 40.3524 27.8844C40.3071 27.9879 40.2657 28.1831 40.2269 28.4689L40.1299 29.1956H39.627L39.9075 27.1409H39.9063Z" fill="#231F20"/>
<path d="M43.4594 26.418H43.9831L43.8538 27.3528L44.7395 26.418H45.3861L44.1758 27.6877L45.1326 29.1954H44.5495L43.7685 27.9645L43.5978 29.1954H43.0806L43.4607 26.418H43.4594Z" fill="#231F20"/>
<path d="M46.9637 28.595L47.4072 28.8251C47.3077 28.9557 47.1758 29.0592 47.0116 29.1354C46.8473 29.2117 46.665 29.2492 46.4646 29.2492C46.1517 29.2492 45.9047 29.1613 45.7237 28.9855C45.5427 28.8096 45.4521 28.5756 45.4521 28.2833C45.4521 27.9497 45.5646 27.6678 45.7909 27.4364C46.0172 27.2049 46.29 27.0898 46.6094 27.0898C46.8021 27.0898 46.9741 27.1325 47.1241 27.2166C47.2741 27.3006 47.393 27.4235 47.4796 27.5851C47.5663 27.7467 47.6102 27.9213 47.6102 28.1101C47.6102 28.1695 47.6038 28.2381 47.5908 28.3182H45.9526C45.9577 28.4605 46.0043 28.5743 46.0935 28.6596C46.1827 28.7437 46.3043 28.7863 46.4607 28.7863C46.6495 28.7863 46.8163 28.723 46.9624 28.5962L46.9637 28.595ZM47.0917 27.9458C47.0542 27.8204 46.9909 27.7247 46.9029 27.6601C46.815 27.5954 46.709 27.5631 46.5836 27.5631C46.4581 27.5631 46.3482 27.5967 46.25 27.6627C46.1504 27.7299 46.0754 27.8243 46.0237 27.9458H47.0917Z" fill="#231F20"/>
<path d="M49.3054 27.4286L49.0649 27.814C49.0029 27.7221 48.9382 27.6549 48.8697 27.6109C48.8012 27.567 48.7378 27.5463 48.6783 27.5463C48.6331 27.5463 48.5943 27.5592 48.5632 27.5838C48.5322 27.6084 48.5154 27.6368 48.5154 27.6691C48.5154 27.7015 48.5283 27.7299 48.5529 27.7596C48.5775 27.7894 48.6499 27.8489 48.7701 27.9355C48.9628 28.0739 49.0908 28.1928 49.1516 28.2911C49.2123 28.3894 49.2434 28.4967 49.2434 28.6131C49.2434 28.7656 49.1813 28.9092 49.0559 29.0449C48.9305 29.1807 48.7494 29.2492 48.5115 29.2492C48.3745 29.2492 48.249 29.2221 48.1365 29.1665C48.024 29.1109 47.8986 29.01 47.7603 28.8626L48.0719 28.5006C48.2128 28.6868 48.3667 28.7799 48.5348 28.7799C48.602 28.7799 48.655 28.7643 48.6938 28.732C48.7326 28.6997 48.7533 28.6622 48.7533 28.6182C48.7533 28.5833 48.7378 28.5471 48.7081 28.5096C48.6783 28.4721 48.5956 28.4062 48.4611 28.3105C48.3046 28.1993 48.1973 28.1049 48.1378 28.026C48.0551 27.9148 48.0137 27.7984 48.0137 27.6743C48.0137 27.5023 48.0783 27.3614 48.2089 27.2528C48.3395 27.1442 48.4934 27.0898 48.6706 27.0898C48.7947 27.0898 48.9137 27.1196 49.0261 27.1791C49.1386 27.2385 49.2317 27.3226 49.3054 27.4299V27.4286Z" fill="#231F20"/>
<path d="M51.1405 28.595L51.584 28.8251C51.4844 28.9557 51.3525 29.0592 51.1883 29.1354C51.0241 29.2117 50.8418 29.2492 50.6414 29.2492C50.3284 29.2492 50.0815 29.1613 49.9004 28.9855C49.7194 28.8096 49.6289 28.5756 49.6289 28.2833C49.6289 27.9497 49.7414 27.6678 49.9677 27.4364C50.194 27.2049 50.4668 27.0898 50.7862 27.0898C50.9788 27.0898 51.1508 27.1325 51.3008 27.2166C51.4508 27.3006 51.5698 27.4235 51.6564 27.5851C51.743 27.7467 51.787 27.9213 51.787 28.1101C51.787 28.1695 51.7805 28.2381 51.7676 28.3182H50.1293C50.1345 28.4605 50.181 28.5743 50.2703 28.6596C50.3595 28.7437 50.481 28.7863 50.6375 28.7863C50.8263 28.7863 50.9931 28.723 51.1392 28.5962L51.1405 28.595ZM51.2685 27.9458C51.231 27.8204 51.1676 27.7247 51.0797 27.6601C50.9918 27.5954 50.8857 27.5631 50.7603 27.5631C50.6349 27.5631 50.525 27.5967 50.4267 27.6627C50.3271 27.7299 50.2522 27.8243 50.2004 27.9458H51.2685Z" fill="#231F20"/>
<path d="M52.4656 26.3486H52.9673L52.8315 27.3495C53.0241 27.1749 53.2246 27.0883 53.4328 27.0883C53.6112 27.0883 53.756 27.1452 53.8698 27.2576C53.9836 27.3701 54.0405 27.5124 54.0405 27.6844C54.0405 27.7645 54.0301 27.8848 54.0082 28.0451L53.8504 29.1959H53.3474L53.5013 28.0723C53.5168 27.9559 53.5246 27.8693 53.5246 27.8124C53.5246 27.7296 53.5013 27.665 53.4534 27.621C53.4056 27.577 53.3397 27.5538 53.2517 27.5538C53.1638 27.5538 53.0823 27.5835 52.9983 27.6417C52.9142 27.6999 52.8483 27.7813 52.803 27.8848C52.7578 27.9882 52.7164 28.1835 52.6789 28.4692L52.5806 29.1959H52.0776L52.4668 26.3486H52.4656Z" fill="#231F20"/>
<path d="M56.1869 27.1416H56.6911L56.4054 29.1962H55.9063L55.936 28.9751C55.8261 29.0773 55.7239 29.1484 55.6283 29.1885C55.5326 29.2285 55.4265 29.2492 55.3076 29.2492C55.0348 29.2492 54.8188 29.1497 54.6585 28.9492C54.4981 28.7488 54.418 28.5161 54.418 28.251C54.418 28.048 54.4697 27.8553 54.5718 27.6717C54.674 27.4881 54.8123 27.3459 54.9856 27.2437C55.1589 27.1416 55.3399 27.0898 55.53 27.0898C55.6567 27.0898 55.7744 27.1196 55.8817 27.1778C55.989 27.236 56.077 27.3213 56.1468 27.4325L56.1856 27.1429L56.1869 27.1416ZM55.4304 28.7993C55.5546 28.7993 55.6632 28.7721 55.755 28.7165C55.8468 28.6609 55.9244 28.5743 55.9877 28.4566C56.0498 28.3389 56.0821 28.2174 56.0821 28.0945C56.0821 27.9316 56.0343 27.801 55.9412 27.7015C55.8468 27.6019 55.7227 27.5528 55.5675 27.5528C55.3878 27.5528 55.2352 27.6187 55.1097 27.7506C54.9843 27.8825 54.9223 28.0532 54.9223 28.2626C54.9223 28.4243 54.9701 28.5536 55.0645 28.6518C55.1589 28.7501 55.2817 28.7993 55.4317 28.7993H55.4304Z" fill="#231F20"/>
<path d="M57.3313 26.3779H57.833L57.7295 27.1408H58.0489L57.9882 27.5753H57.6701L57.4502 29.1955H56.9472L57.1684 27.5753H56.9214L56.9796 27.1408H57.2278L57.3326 26.3779H57.3313Z" fill="#231F20"/>
<path d="M59.8983 27.1416H60.4026L60.1168 29.1962H59.6177L59.6474 28.9751C59.5375 29.0773 59.4354 29.1484 59.3397 29.1885C59.244 29.2285 59.138 29.2492 59.019 29.2492C58.7462 29.2492 58.5302 29.1497 58.3699 28.9492C58.2096 28.7488 58.1294 28.5161 58.1294 28.251C58.1294 28.048 58.1811 27.8553 58.2833 27.6717C58.3854 27.4881 58.5238 27.3459 58.697 27.2437C58.8703 27.1416 59.0513 27.0898 59.2414 27.0898C59.3681 27.0898 59.4858 27.1196 59.5931 27.1778C59.7004 27.236 59.7884 27.3213 59.8582 27.4325L59.897 27.1429L59.8983 27.1416ZM59.1418 28.7993C59.266 28.7993 59.3746 28.7721 59.4664 28.7165C59.5582 28.6609 59.6358 28.5743 59.6992 28.4566C59.7612 28.3389 59.7935 28.2174 59.7935 28.0945C59.7935 27.9316 59.7457 27.801 59.6526 27.7015C59.5582 27.6019 59.4341 27.5528 59.2789 27.5528C59.0992 27.5528 58.9466 27.6187 58.8212 27.7506C58.6958 27.8825 58.6337 28.0532 58.6337 28.2626C58.6337 28.4243 58.6815 28.5536 58.7759 28.6518C58.8703 28.7501 58.9932 28.7993 59.1431 28.7993H59.1418Z" fill="#231F20"/>
<path d="M60.9429 27.1409H61.4459L61.4174 27.3491C61.6101 27.1745 61.8105 27.0879 62.0187 27.0879C62.1958 27.0879 62.342 27.1448 62.4557 27.2573C62.5695 27.3698 62.6264 27.512 62.6264 27.684C62.6264 27.7642 62.6161 27.8844 62.5941 28.0447L62.4363 29.1956H61.9333L62.0872 28.0719C62.1027 27.9555 62.1105 27.8689 62.1105 27.812C62.1105 27.7292 62.0872 27.6646 62.0394 27.6206C61.9915 27.5767 61.9243 27.5534 61.8377 27.5534C61.751 27.5534 61.6683 27.5831 61.5842 27.6413C61.5002 27.6995 61.4342 27.781 61.389 27.8844C61.3437 27.9879 61.3023 28.1831 61.2635 28.4689L61.1666 29.1956H60.6636L60.9442 27.1409H60.9429Z" fill="#231F20"/>
<path d="M64.496 26.418H65.0197L64.8904 27.3528L65.7762 26.418H66.4227L65.2124 27.6877L66.1693 29.1954H65.5861L64.8051 27.9645L64.6344 29.1954H64.1172L64.4973 26.418H64.496Z" fill="#231F20"/>
<path d="M66.7485 27.1416H67.2476L67.1041 28.1916C67.0886 28.3079 67.0808 28.3946 67.0808 28.4528C67.0808 28.5433 67.1119 28.6196 67.1752 28.6816C67.2386 28.7437 67.32 28.7747 67.4209 28.7747C67.5502 28.7747 67.6511 28.7346 67.7209 28.6558C67.7907 28.5769 67.8424 28.4153 67.8748 28.1722L68.0157 27.1429H68.5148L68.3674 28.2472C68.3338 28.4967 68.2756 28.6894 68.1967 28.8252C68.1166 28.9622 68.0105 29.067 67.8773 29.1394C67.7442 29.2118 67.589 29.2493 67.4093 29.2493C67.1571 29.2493 66.9567 29.1769 66.8067 29.0307C66.658 28.8859 66.583 28.6971 66.583 28.467C66.583 28.326 66.5998 28.145 66.6321 27.9239L66.7472 27.1429L66.7485 27.1416Z" fill="#231F20"/>
<path d="M69.1109 26.3486H69.6139L69.2247 29.1959H68.7217L69.1109 26.3486Z" fill="#231F20"/>
<path d="M69.9217 27.1413H70.4208L70.1441 29.1959H69.6411L69.9217 27.1413ZM70.2682 26.3008C70.3536 26.3008 70.4273 26.3318 70.4881 26.3926C70.5488 26.4534 70.5799 26.5271 70.5799 26.6124C70.5799 26.6977 70.5488 26.7715 70.4881 26.8322C70.4273 26.893 70.3536 26.924 70.2682 26.924C70.1829 26.924 70.1092 26.893 70.0484 26.8322C69.9877 26.7715 69.9566 26.6977 69.9566 26.6124C69.9566 26.5271 69.9877 26.4534 70.0484 26.3926C70.1092 26.3318 70.1829 26.3008 70.2682 26.3008Z" fill="#231F20"/>
<path d="M71.0183 26.3779H71.52L71.4166 27.1408H71.7359L71.6752 27.5753H71.3571L71.1373 29.1955H70.6343L70.8554 27.5753H70.6084L70.6666 27.1408H70.9148L71.0196 26.3779H71.0183Z" fill="#231F20"/>
<path d="M73.311 26.418H73.8347L73.7054 27.3528L74.5911 26.418H75.2376L74.0273 27.6877L74.9842 29.1954H74.401L73.62 27.9645L73.4493 29.1954H72.9321L73.3123 26.418H73.311Z" fill="#231F20"/>
<path d="M76.8153 28.595L77.2588 28.8251C77.1592 28.9557 77.0273 29.0592 76.8631 29.1354C76.6989 29.2117 76.5166 29.2492 76.3162 29.2492C76.0033 29.2492 75.7563 29.1613 75.5753 28.9855C75.3942 28.8096 75.3037 28.5756 75.3037 28.2833C75.3037 27.9497 75.4162 27.6678 75.6425 27.4364C75.8688 27.2049 76.1416 27.0898 76.461 27.0898C76.6537 27.0898 76.8256 27.1325 76.9756 27.2166C77.1256 27.3006 77.2446 27.4235 77.3312 27.5851C77.4178 27.7467 77.4618 27.9213 77.4618 28.1101C77.4618 28.1695 77.4553 28.2381 77.4424 28.3182H75.8041C75.8093 28.4605 75.8558 28.5743 75.9451 28.6596C76.0343 28.7437 76.1558 28.7863 76.3123 28.7863C76.5011 28.7863 76.6679 28.723 76.814 28.5962L76.8153 28.595ZM76.9433 27.9458C76.9058 27.8204 76.8424 27.7247 76.7545 27.6601C76.6666 27.5954 76.5606 27.5631 76.4351 27.5631C76.3097 27.5631 76.1998 27.5967 76.1015 27.6627C76.002 27.7299 75.927 27.8243 75.8752 27.9458H76.9433Z" fill="#231F20"/>
<path d="M78.0796 26.3486H78.5826L78.1934 29.1959H77.6904L78.0796 26.3486Z" fill="#231F20"/>
<path d="M78.9643 27.1416H79.4635L79.3199 28.1916C79.3044 28.3079 79.2966 28.3946 79.2966 28.4528C79.2966 28.5433 79.3277 28.6196 79.391 28.6816C79.4544 28.7437 79.5359 28.7747 79.6367 28.7747C79.766 28.7747 79.8669 28.7346 79.9367 28.6558C80.0065 28.5769 80.0583 28.4153 80.0906 28.1722L80.2315 27.1429H80.7306L80.5832 28.2472C80.5496 28.4967 80.4914 28.6894 80.4126 28.8252C80.3324 28.9622 80.2264 29.067 80.0932 29.1394C79.96 29.2118 79.8048 29.2493 79.6251 29.2493C79.3729 29.2493 79.1725 29.1769 79.0225 29.0307C78.8738 28.8859 78.7988 28.6971 78.7988 28.467C78.7988 28.326 78.8156 28.145 78.848 27.9239L78.963 27.1429L78.9643 27.1416Z" fill="#231F20"/>
<path d="M82.7874 27.1416H83.2917L83.006 29.1962H82.5069L82.5366 28.9751C82.4267 29.0773 82.3245 29.1484 82.2288 29.1885C82.1332 29.2285 82.0271 29.2492 81.9082 29.2492C81.6353 29.2492 81.4194 29.1497 81.2591 28.9492C81.0987 28.7488 81.0186 28.5161 81.0186 28.251C81.0186 28.048 81.0703 27.8553 81.1724 27.6717C81.2746 27.4881 81.4129 27.3459 81.5862 27.2437C81.7595 27.1416 81.9405 27.0898 82.1306 27.0898C82.2573 27.0898 82.375 27.1196 82.4823 27.1778C82.5896 27.236 82.6775 27.3213 82.7474 27.4325L82.7861 27.1429L82.7874 27.1416ZM82.031 28.7993C82.1551 28.7993 82.2638 28.7721 82.3556 28.7165C82.4474 28.6609 82.525 28.5743 82.5883 28.4566C82.6504 28.3389 82.6827 28.2174 82.6827 28.0945C82.6827 27.9316 82.6349 27.801 82.5418 27.7015C82.4474 27.6019 82.3232 27.5528 82.1681 27.5528C81.9883 27.5528 81.8358 27.6187 81.7103 27.7506C81.5849 27.8825 81.5228 28.0532 81.5228 28.2626C81.5228 28.4243 81.5707 28.5536 81.6651 28.6518C81.7595 28.7501 81.8823 28.7993 82.0323 28.7993H82.031Z" fill="#231F20"/>
<path d="M83.7148 27.1409H84.1635L84.1273 27.4202C84.2618 27.1991 84.4234 27.0879 84.6122 27.0879C84.6574 27.0879 84.704 27.0995 84.7531 27.1241L84.5682 27.5818C84.5294 27.5676 84.5023 27.5611 84.4842 27.5611C84.3859 27.5611 84.298 27.618 84.2204 27.7318C84.1428 27.8456 84.082 28.0758 84.0381 28.4223L83.9385 29.1943H83.4316L83.7122 27.1396L83.7148 27.1409Z" fill="#231F20"/>
<path d="M86.602 27.1415H87.1076L86.8723 28.7902C86.827 29.1134 86.7818 29.3281 86.7339 29.4328C86.6602 29.5957 86.5348 29.7315 86.3602 29.8375C86.1857 29.9449 85.9659 29.9979 85.7008 29.9979C85.481 29.9979 85.2896 29.9565 85.1267 29.8725C84.9638 29.7884 84.8422 29.6811 84.7607 29.5492L85.2017 29.3229C85.3336 29.46 85.5055 29.5285 85.7176 29.5285C85.8404 29.5285 85.9478 29.5065 86.037 29.4626C86.1275 29.4186 86.1973 29.3591 86.2465 29.2841C86.2956 29.2091 86.3318 29.0979 86.3525 28.9505C86.1663 29.1134 85.9542 29.1936 85.7189 29.1936C85.5547 29.1936 85.4021 29.1535 85.2624 29.0721C85.1228 28.9906 85.0129 28.8768 84.934 28.7294C84.8538 28.582 84.815 28.4191 84.815 28.238C84.815 28.035 84.8668 27.845 84.9715 27.6665C85.0762 27.4881 85.2172 27.3471 85.3969 27.2424C85.5767 27.1377 85.7642 27.0859 85.9594 27.0859C86.0784 27.0859 86.1857 27.1092 86.2814 27.1558C86.3771 27.2023 86.4727 27.2799 86.5658 27.3885L86.5995 27.139L86.602 27.1415ZM85.9827 27.5644C85.7952 27.5644 85.6361 27.629 85.5068 27.757C85.3775 27.885 85.3129 28.0428 85.3129 28.2316C85.3129 28.3842 85.3607 28.5057 85.4564 28.5975C85.5521 28.6893 85.6814 28.7359 85.8417 28.7359C85.962 28.7359 86.0732 28.7074 86.1766 28.6518C86.2788 28.5962 86.3602 28.5148 86.4197 28.41C86.4792 28.3053 86.5089 28.1915 86.5089 28.0712C86.5089 27.9264 86.4598 27.8062 86.3615 27.7105C86.2633 27.6148 86.1365 27.567 85.9827 27.567V27.5644Z" fill="#231F20"/>
<path d="M89.1302 27.1416H89.6345L89.3487 29.1962H88.8496L88.8794 28.9751C88.7695 29.0773 88.6673 29.1484 88.5716 29.1885C88.4759 29.2285 88.3699 29.2492 88.2509 29.2492C87.9781 29.2492 87.7622 29.1497 87.6018 28.9492C87.4415 28.7488 87.3613 28.5161 87.3613 28.251C87.3613 28.048 87.4131 27.8553 87.5152 27.6717C87.6174 27.4881 87.7557 27.3459 87.929 27.2437C88.1022 27.1416 88.2833 27.0898 88.4734 27.0898C88.6001 27.0898 88.7177 27.1196 88.8251 27.1778C88.9324 27.236 89.0203 27.3213 89.0901 27.4325L89.1289 27.1429L89.1302 27.1416ZM88.3738 28.7993C88.4979 28.7993 88.6065 28.7721 88.6983 28.7165C88.7901 28.6609 88.8677 28.5743 88.9311 28.4566C88.9932 28.3389 89.0255 28.2174 89.0255 28.0945C89.0255 27.9316 88.9776 27.801 88.8845 27.7015C88.7901 27.6019 88.666 27.5528 88.5108 27.5528C88.3311 27.5528 88.1785 27.6187 88.0531 27.7506C87.9277 27.8825 87.8656 28.0532 87.8656 28.2626C87.8656 28.4243 87.9135 28.5536 88.0079 28.6518C88.1022 28.7501 88.2251 28.7993 88.3751 28.7993H88.3738Z" fill="#231F20"/>
</g>
<path d="M35.021 49.834V51H30.7378V49.834H35.021ZM31.1479 42.4688V51H29.6772V42.4688H31.1479ZM35.7476 47.9004V47.7656C35.7476 47.3086 35.814 46.8848 35.9468 46.4941C36.0796 46.0996 36.271 45.7578 36.521 45.4688C36.7749 45.1758 37.0835 44.9492 37.4468 44.7891C37.814 44.625 38.228 44.543 38.689 44.543C39.1538 44.543 39.5679 44.625 39.9312 44.7891C40.2983 44.9492 40.6089 45.1758 40.8628 45.4688C41.1167 45.7578 41.3101 46.0996 41.4429 46.4941C41.5757 46.8848 41.6421 47.3086 41.6421 47.7656V47.9004C41.6421 48.3574 41.5757 48.7812 41.4429 49.1719C41.3101 49.5625 41.1167 49.9043 40.8628 50.1973C40.6089 50.4863 40.3003 50.7129 39.937 50.877C39.5737 51.0371 39.1616 51.1172 38.7007 51.1172C38.2358 51.1172 37.8198 51.0371 37.4526 50.877C37.0894 50.7129 36.7808 50.4863 36.5269 50.1973C36.2729 49.9043 36.0796 49.5625 35.9468 49.1719C35.814 48.7812 35.7476 48.3574 35.7476 47.9004ZM37.1597 47.7656V47.9004C37.1597 48.1855 37.189 48.4551 37.2476 48.709C37.3062 48.9629 37.3979 49.1855 37.5229 49.377C37.6479 49.5684 37.8081 49.7188 38.0034 49.8281C38.1987 49.9375 38.4312 49.9922 38.7007 49.9922C38.9624 49.9922 39.189 49.9375 39.3804 49.8281C39.5757 49.7188 39.7358 49.5684 39.8608 49.377C39.9858 49.1855 40.0776 48.9629 40.1362 48.709C40.1987 48.4551 40.23 48.1855 40.23 47.9004V47.7656C40.23 47.4844 40.1987 47.2188 40.1362 46.9688C40.0776 46.7148 39.9839 46.4902 39.855 46.2949C39.73 46.0996 39.5698 45.9473 39.3745 45.8379C39.1831 45.7246 38.9546 45.668 38.689 45.668C38.4233 45.668 38.1929 45.7246 37.9976 45.8379C37.8062 45.9473 37.6479 46.0996 37.5229 46.2949C37.3979 46.4902 37.3062 46.7148 37.2476 46.9688C37.189 47.2188 37.1597 47.4844 37.1597 47.7656ZM45.7319 44.6602V45.6914H42.1577V44.6602H45.7319ZM43.189 43.1074H44.6011V49.248C44.6011 49.4434 44.6284 49.5938 44.6831 49.6992C44.7417 49.8008 44.8218 49.8691 44.9233 49.9043C45.0249 49.9395 45.144 49.957 45.2808 49.957C45.3784 49.957 45.4722 49.9512 45.562 49.9395C45.6519 49.9277 45.7241 49.916 45.7788 49.9043L45.7847 50.9824C45.6675 51.0176 45.5308 51.0488 45.3745 51.0762C45.2222 51.1035 45.0464 51.1172 44.8472 51.1172C44.5229 51.1172 44.2358 51.0605 43.9858 50.9473C43.7358 50.8301 43.5405 50.6406 43.3999 50.3789C43.2593 50.1172 43.189 49.7695 43.189 49.3359V43.1074ZM48.3335 44.6602V51H46.9155V44.6602H48.3335ZM46.8218 42.9961C46.8218 42.7812 46.8921 42.6035 47.0327 42.4629C47.1772 42.3184 47.3765 42.2461 47.6304 42.2461C47.8804 42.2461 48.0776 42.3184 48.2222 42.4629C48.3667 42.6035 48.439 42.7812 48.439 42.9961C48.439 43.207 48.3667 43.3828 48.2222 43.5234C48.0776 43.6641 47.8804 43.7344 47.6304 43.7344C47.3765 43.7344 47.1772 43.6641 47.0327 43.5234C46.8921 43.3828 46.8218 43.207 46.8218 42.9961ZM49.6108 47.9004V47.7656C49.6108 47.3086 49.6772 46.8848 49.8101 46.4941C49.9429 46.0996 50.1343 45.7578 50.3843 45.4688C50.6382 45.1758 50.9468 44.9492 51.3101 44.7891C51.6772 44.625 52.0913 44.543 52.5522 44.543C53.0171 44.543 53.4312 44.625 53.7944 44.7891C54.1616 44.9492 54.4722 45.1758 54.7261 45.4688C54.98 45.7578 55.1733 46.0996 55.3062 46.4941C55.439 46.8848 55.5054 47.3086 55.5054 47.7656V47.9004C55.5054 48.3574 55.439 48.7812 55.3062 49.1719C55.1733 49.5625 54.98 49.9043 54.7261 50.1973C54.4722 50.4863 54.1636 50.7129 53.8003 50.877C53.437 51.0371 53.0249 51.1172 52.564 51.1172C52.0991 51.1172 51.6831 51.0371 51.3159 50.877C50.9526 50.7129 50.644 50.4863 50.3901 50.1973C50.1362 49.9043 49.9429 49.5625 49.8101 49.1719C49.6772 48.7812 49.6108 48.3574 49.6108 47.9004ZM51.0229 47.7656V47.9004C51.0229 48.1855 51.0522 48.4551 51.1108 48.709C51.1694 48.9629 51.2612 49.1855 51.3862 49.377C51.5112 49.5684 51.6714 49.7188 51.8667 49.8281C52.062 49.9375 52.2944 49.9922 52.564 49.9922C52.8257 49.9922 53.0522 49.9375 53.2437 49.8281C53.439 49.7188 53.5991 49.5684 53.7241 49.377C53.8491 49.1855 53.9409 48.9629 53.9995 48.709C54.062 48.4551 54.0933 48.1855 54.0933 47.9004V47.7656C54.0933 47.4844 54.062 47.2188 53.9995 46.9688C53.9409 46.7148 53.8472 46.4902 53.7183 46.2949C53.5933 46.0996 53.4331 45.9473 53.2378 45.8379C53.0464 45.7246 52.8179 45.668 52.5522 45.668C52.2866 45.668 52.0562 45.7246 51.8608 45.8379C51.6694 45.9473 51.5112 46.0996 51.3862 46.2949C51.2612 46.4902 51.1694 46.7148 51.1108 46.9688C51.0522 47.2188 51.0229 47.4844 51.0229 47.7656ZM58.0894 46.0137V51H56.6772V44.6602H58.0073L58.0894 46.0137ZM57.8374 47.5957L57.3804 47.5898C57.3843 47.1406 57.4468 46.7285 57.5679 46.3535C57.6929 45.9785 57.8647 45.6562 58.0835 45.3867C58.3062 45.1172 58.5718 44.9102 58.8804 44.7656C59.189 44.6172 59.5327 44.543 59.9116 44.543C60.2163 44.543 60.4917 44.5859 60.7378 44.6719C60.9878 44.7539 61.2007 44.8887 61.3765 45.0762C61.5562 45.2637 61.6929 45.5078 61.7866 45.8086C61.8804 46.1055 61.9272 46.4707 61.9272 46.9043V51H60.5093V46.8984C60.5093 46.5938 60.4644 46.3535 60.3745 46.1777C60.2886 45.998 60.1616 45.8711 59.9937 45.7969C59.8296 45.7188 59.6245 45.6797 59.3784 45.6797C59.1362 45.6797 58.9194 45.7305 58.728 45.832C58.5366 45.9336 58.3745 46.0723 58.2417 46.248C58.1128 46.4238 58.0132 46.627 57.9429 46.8574C57.8726 47.0879 57.8374 47.334 57.8374 47.5957Z" fill="#636466"/>
<defs>
<clipPath id="clip0_1857_16878">
<rect width="90.759" height="30" fill="white" transform="translate(0.430664)"/>
</clipPath>
</defs>
</svg>
