<svg width="92" height="55" viewBox="0 0 92 55" fill="none" xmlns="http://www.w3.org/2000/svg">
<g clip-path="url(#clip0_1857_16872)">
<path d="M58.7944 1.88656C58.7944 1.88656 58.4518 0.837901 58.519 0.347836C58.519 0.347836 56.6635 0.421539 54.8778 1.88656C53.0934 3.35417 52.9266 5.72821 53.1813 7.47511C50.2655 8.25482 48.3712 11.8766 49.1366 15.6459C49.1366 15.6459 48.5638 16.2769 47.6716 15.9278C46.7794 15.5786 47.0471 12.3667 46.9785 10.0599C46.9294 8.23284 45.5135 5.44891 43.2184 5.44891C40.9232 5.44891 36.9755 6.36827 36.9639 7.95354C36.9574 8.99832 39.2629 8.31301 40.5379 8.10224C41.8115 7.89406 43.2274 8.80307 43.3567 9.78062C40.8689 10.5474 37.1462 13.065 36.8902 16.2097C35.0411 17.0475 34.8523 15.5812 34.7877 14.6037C34.7295 13.6248 34.873 7.26823 34.7411 5.10108C34.617 2.93781 33.5037 1.67967 32.4137 1.74821C31.3301 1.81932 29.1022 2.72316 28.7168 3.98389C28.338 5.24331 29.8017 4.96272 30.3784 4.82307C30.9525 4.68472 31.3986 5.38038 31.3986 6.21956C31.3986 7.05875 31.409 13.9041 31.3456 14.8119C31.2797 15.7196 30.5827 16.348 29.9478 16.348C29.3129 16.348 29.2457 15.0226 29.2457 14.1834C29.2457 13.3443 29.1759 9.58795 29.1487 8.52507C29.1254 7.48287 27.7716 5.83553 25.7402 5.68166C24.7601 5.60925 20.475 6.18336 19.8983 7.36908C18.9129 9.41081 21.8495 8.32853 22.5542 8.19017C23.2537 8.04664 25.3834 8.0363 25.6381 9.1509C25.8954 10.272 23.3908 10.2487 21.0685 12.3667C18.6453 14.5804 13.8494 16.6777 11.5387 16.4178C7.92204 16.0131 5.67343 13.4852 5.6062 10.3405C5.53249 6.7161 7.95954 4.66274 9.33664 4.055C11.3835 3.14858 13.9657 3.00893 15.0493 3.70588C16.1342 4.40542 16.0062 5.52003 15.1127 5.87174C14.2205 6.22086 11.7947 5.94156 11.0913 5.87174C10.3918 5.8032 9.56292 6.22086 9.753 7.05746C9.94308 7.89794 11.0267 8.9479 13.6412 8.6673C16.2596 8.38801 18.7474 6.99151 18.9414 4.47783C19.1328 1.95639 15.2627 -0.0038734 11.0318 5.74728e-06C6.62641 0.00388489 2.35418 3.424 1.2719 6.42516C0.184448 9.42891 1.20466 12.7391 2.41754 14.9114C4.87821 19.322 10.8004 19.6569 12.8511 19.5095C15.4657 19.3233 18.0091 17.535 19.2828 16.2756C19.1573 17.6023 20.056 19.1009 21.8378 19.3673C23.1322 19.5612 24.9657 18.6496 25.4752 18.0199C25.4752 18.0199 26.5018 19.3453 28.1647 19.3453C29.8276 19.3453 31.0055 18.232 31.5822 17.8117C31.5822 17.8117 32.4628 19.3453 34.0338 19.3453C35.2454 19.3453 36.2514 18.51 37.3958 17.535C38.2634 18.594 39.3547 19.26 40.4086 19.3168C41.915 19.3944 43.3451 18.4699 43.9089 17.8117C43.9089 17.8117 45.564 19.2289 46.8428 19.2974C48.119 19.3686 49.4573 18.4376 50.1582 17.8117C50.9896 18.6496 53.4128 19.975 56.4734 19.1384C59.5379 18.2992 60.7094 15.7157 60.7094 13.7606C60.7094 11.8055 57.3928 6.84669 56.3053 5.3765C55.9885 4.04983 57.9009 2.02492 58.7957 1.88527M24.8467 16.4838C23.8886 17.2544 22.0292 16.904 21.8378 16.2756C21.6452 15.6446 22.0913 14.6011 23.1128 13.6895C24.1356 12.7792 25.757 12.3654 25.757 12.3654C25.8191 13.0624 25.8049 15.7157 24.8467 16.4838ZM42.6688 16.4838C41.7146 17.2544 39.8875 16.904 39.6948 16.2756C39.5034 15.6446 39.9482 14.6011 40.9698 13.6895C41.9939 12.7792 43.4123 12.3654 43.4123 12.3654C43.4783 13.0624 43.6296 15.7157 42.6675 16.4838M55.7066 16.9713C54.111 17.3941 52.2632 15.6446 51.7512 13.4115C51.2378 11.1758 53.2175 9.42891 54.0489 9.36167C54.0489 9.36167 55.5773 12.0874 56.5975 13.4813C57.6216 14.8804 57.3022 16.5549 55.7066 16.9713ZM61.9378 4.12224C61.8085 4.75066 61.493 5.79803 61.493 5.79803C62.3839 5.44762 64.4269 5.30797 64.4269 3.56106C64.4269 1.81415 63.7817 1.61632 62.5779 1.81544C61.2991 2.02492 60.1508 3.21452 60.1508 3.21452C60.9176 3.1447 62.0658 3.48994 61.9378 4.12224ZM86.5497 17.473C83.9377 18.5203 82.2141 14.8196 82.0874 13.4231C82.9809 13.5615 85.7234 12.3745 86.7449 11.6051C87.7613 10.8383 90.3163 7.90311 88.1466 5.94803C85.9808 3.99164 82.2141 6.08767 80.109 8.60136C78.0052 11.1163 78.6453 14.3179 79.3448 16.0674C77.3665 16.97 77.126 15.2243 77.06 13.1994C77.0005 11.1745 76.6876 7.00186 75.6674 6.02302C74.6498 5.04677 71.637 6.14586 70.618 6.8454C70.6827 6.35404 70.1694 5.30409 69.0224 5.44632C67.8729 5.58468 65.8971 6.91264 65.4472 7.682C66.598 7.74924 67.3001 8.03113 67.3001 8.80049C67.3001 9.56985 67.4902 13.4102 67.3634 15.1571C67.3634 15.1571 66.4699 16.1347 65.4472 16.6247C64.4295 17.1109 64.6817 11.7318 64.6817 10.1259C64.6817 8.5199 64.489 7.26435 63.4714 6.77299C62.4512 6.2868 60.4728 7.47382 59.772 7.96001C59.772 7.96001 60.0913 8.45137 60.5374 8.66084C60.9823 8.86902 61.4296 9.00996 61.4296 10.2668C61.4296 11.5236 61.4956 14.177 61.4296 16.0674C61.365 17.9475 62.3865 19.2483 63.7895 19.3168C65.1937 19.3867 66.598 18.0186 67.3634 17.3915C67.3634 17.6708 68.5091 19.3673 69.5306 19.2987C70.5508 19.2276 72.021 17.182 72.5292 16.2045C71.0603 16.4114 70.8107 15.9239 70.8107 15.0149C70.8107 14.1059 70.618 12.8477 70.6827 11.7292C70.7435 10.612 70.7357 8.67894 72.021 8.65825C74.2955 8.61558 73.486 11.5909 73.7433 14.1757C73.9981 16.7592 75.401 18.9574 76.8674 19.3065C78.335 19.6569 79.7883 18.0173 80.365 17.3902C81.9581 18.7867 84.8933 19.6362 86.4889 19.2871C88.0832 18.938 90.509 16.7708 90.125 16.0041C89.7422 15.236 89.1668 16.4243 86.5497 17.4704M85.6588 7.27081C87.3191 8.03888 85.086 10.4142 84.5118 10.6948C83.9377 10.9728 81.896 11.6012 81.896 11.6012C81.8339 10.903 83.4671 6.25577 85.6588 7.26952M90.6926 3.83131V3.81708C90.8258 3.777 90.9215 3.67873 90.9215 3.54942C90.9215 3.44468 90.8736 3.35546 90.8129 3.30633C90.7314 3.25202 90.637 3.21711 90.4301 3.21711C90.2465 3.21711 90.1069 3.2378 90.0047 3.25849V4.38602H90.262V3.93604H90.381C90.5232 3.93604 90.5892 3.99164 90.6112 4.11448C90.6448 4.24637 90.6642 4.34206 90.6991 4.38602H90.9745C90.9486 4.34853 90.9279 4.28129 90.8956 4.10802C90.8607 3.95673 90.7999 3.86622 90.6926 3.83131ZM90.39 3.74855H90.2672V3.424C90.2944 3.41753 90.3422 3.40977 90.4081 3.40977C90.5711 3.40977 90.6435 3.4796 90.6435 3.58304C90.6435 3.70071 90.5297 3.74726 90.3888 3.74726M90.4418 2.66368H90.4353C89.8017 2.66368 89.2987 3.16668 89.2987 3.79639C89.2987 4.43904 89.803 4.93428 90.4366 4.93428C91.0702 4.93428 91.5706 4.43775 91.5693 3.79639C91.5693 3.16668 91.0767 2.66368 90.4431 2.66368M90.4431 4.70023C89.9452 4.70023 89.5806 4.30068 89.5806 3.79639C89.5806 3.29728 89.9452 2.89255 90.4301 2.89255H90.4353C90.9267 2.89255 91.2861 3.29857 91.2861 3.79639C91.2861 4.30068 90.9279 4.7067 90.4431 4.70023Z" fill="#231F20"/>
<path d="M2.61534 26.418H3.10281C3.39892 26.418 3.6071 26.4438 3.72865 26.4956C3.87864 26.5602 3.99372 26.6494 4.07131 26.7632C4.14889 26.877 4.18768 27.0115 4.18768 27.1654C4.18768 27.3334 4.14243 27.4873 4.05062 27.6231C3.96011 27.7602 3.83727 27.8597 3.68469 27.9218C3.53081 27.9839 3.27608 28.0175 2.9192 28.0226L2.75757 29.1954H2.23389L2.61404 26.418H2.61534ZM2.98385 27.5326C3.26703 27.5326 3.45064 27.5015 3.53728 27.4434C3.62391 27.3852 3.66658 27.2998 3.66658 27.1847C3.66658 27.1201 3.64977 27.0658 3.61615 27.0218C3.58254 26.9779 3.53211 26.9468 3.46616 26.9287C3.40022 26.9106 3.26962 26.9029 3.07307 26.9029L2.98256 27.5313L2.98385 27.5326Z" fill="#231F20"/>
<path d="M5.89341 28.595L6.33692 28.8251C6.23736 28.9557 6.10547 29.0592 5.94125 29.1354C5.77703 29.2117 5.59471 29.2492 5.39429 29.2492C5.08137 29.2492 4.8344 29.1613 4.65338 28.9855C4.47235 28.8096 4.38184 28.5756 4.38184 28.2833C4.38184 27.9497 4.49433 27.6678 4.72061 27.4364C4.9469 27.2049 5.21973 27.0898 5.53911 27.0898C5.73178 27.0898 5.90375 27.1325 6.05375 27.2166C6.20374 27.3006 6.3227 27.4235 6.40933 27.5851C6.49597 27.7467 6.53993 27.9213 6.53993 28.1101C6.53993 28.1695 6.53347 28.2381 6.52054 28.3182H4.88225C4.88742 28.4605 4.93397 28.5743 5.02319 28.6596C5.11241 28.7437 5.23395 28.7863 5.39041 28.7863C5.5792 28.7863 5.746 28.723 5.89212 28.5962L5.89341 28.595ZM6.02142 27.9458C5.98392 27.8204 5.92056 27.7247 5.83264 27.6601C5.74471 27.5954 5.63868 27.5631 5.51325 27.5631C5.38783 27.5631 5.27792 27.5967 5.17965 27.6627C5.08008 27.7299 5.00509 27.8243 4.95336 27.9458H6.02142Z" fill="#231F20"/>
<path d="M6.99216 27.1409H7.44085L7.40464 27.4202C7.53912 27.1991 7.70075 27.0879 7.88954 27.0879C7.93479 27.0879 7.98264 27.0995 8.03048 27.1241L7.84557 27.5818C7.80678 27.5676 7.77963 27.5611 7.76153 27.5611C7.66325 27.5611 7.57533 27.618 7.49774 27.7318C7.42016 27.8456 7.35939 28.0758 7.31542 28.4223L7.21586 29.1943H6.70898L6.98958 27.1396L6.99216 27.1409Z" fill="#231F20"/>
<path d="M9.85531 27.1416H10.3596L10.0738 29.1962H9.57472L9.60446 28.9751C9.49456 29.0773 9.3924 29.1484 9.29672 29.1885C9.20103 29.2285 9.095 29.2492 8.97604 29.2492C8.7045 29.2492 8.48727 29.1497 8.32693 28.9492C8.16659 28.7488 8.08643 28.5161 8.08643 28.251C8.08643 28.048 8.13815 27.8553 8.2403 27.6717C8.34374 27.4881 8.48081 27.3459 8.65407 27.2437C8.82734 27.1416 9.00837 27.0898 9.19715 27.0898C9.32387 27.0898 9.44154 27.1196 9.54886 27.1778C9.65619 27.236 9.74411 27.3213 9.81394 27.4325L9.85402 27.1429L9.85531 27.1416ZM9.09759 28.7993C9.22172 28.7993 9.33034 28.7721 9.42214 28.7165C9.51524 28.6609 9.59153 28.5743 9.65489 28.4566C9.71696 28.3389 9.74929 28.2174 9.74929 28.0945C9.74929 27.9316 9.70274 27.801 9.60834 27.7015C9.51395 27.6019 9.38982 27.5528 9.23465 27.5528C9.05492 27.5528 8.90234 27.6187 8.77691 27.7506C8.65149 27.8825 8.58942 28.0532 8.58942 28.2626C8.58942 28.4243 8.63726 28.5536 8.73166 28.6518C8.82605 28.7501 8.94889 28.7993 9.09888 28.7993H9.09759Z" fill="#231F20"/>
<path d="M10.6297 27.1416H11.1159L11.3991 28.242L11.9965 27.1416H12.1956L12.4826 28.242L13.0787 27.1416H13.6141L12.4969 29.1963H12.2538L11.9745 28.1101L11.3887 29.1963H11.1508L10.6284 27.1416H10.6297Z" fill="#231F20"/>
<path d="M15.5003 27.1416H16.0046L15.7189 29.1962H15.2197L15.2495 28.9751C15.1396 29.0773 15.0374 29.1484 14.9417 29.1885C14.8461 29.2285 14.74 29.2492 14.6211 29.2492C14.3495 29.2492 14.1323 29.1497 13.972 28.9492C13.8116 28.7488 13.7314 28.5161 13.7314 28.251C13.7314 28.048 13.7832 27.8553 13.8853 27.6717C13.9888 27.4881 14.1258 27.3459 14.2991 27.2437C14.4724 27.1416 14.6534 27.0898 14.8422 27.0898C14.9689 27.0898 15.0866 27.1196 15.1939 27.1778C15.3012 27.236 15.3891 27.3213 15.459 27.4325L15.499 27.1429L15.5003 27.1416ZM14.7426 28.7993C14.8667 28.7993 14.9754 28.7721 15.0672 28.7165C15.1603 28.6609 15.2366 28.5743 15.2999 28.4566C15.362 28.3389 15.3943 28.2174 15.3943 28.0945C15.3943 27.9316 15.3478 27.801 15.2534 27.7015C15.159 27.6019 15.0348 27.5528 14.8797 27.5528C14.6999 27.5528 14.5474 27.6187 14.4219 27.7506C14.2965 27.8825 14.2344 28.0532 14.2344 28.2626C14.2344 28.4243 14.2823 28.5536 14.3767 28.6518C14.4711 28.7501 14.5939 28.7993 14.7439 28.7993H14.7426Z" fill="#231F20"/>
<path d="M16.6448 26.3779H17.1465L17.043 27.1408H17.3624L17.3016 27.5753H16.9835L16.7637 29.1955H16.2607L16.4818 27.5753H16.2349L16.2931 27.1408H16.5413L16.6461 26.3779H16.6448Z" fill="#231F20"/>
<path d="M19.2127 27.1416H19.717L19.4313 29.1962H18.9321L18.9619 28.9751C18.852 29.0773 18.7498 29.1484 18.6541 29.1885C18.5585 29.2285 18.4524 29.2492 18.3335 29.2492C18.0619 29.2492 17.8447 29.1497 17.6844 28.9492C17.524 28.7488 17.4438 28.5161 17.4438 28.251C17.4438 28.048 17.4956 27.8553 17.5977 27.6717C17.7012 27.4881 17.8382 27.3459 18.0115 27.2437C18.1848 27.1416 18.3658 27.0898 18.5546 27.0898C18.6813 27.0898 18.799 27.1196 18.9063 27.1778C19.0136 27.236 19.1015 27.3213 19.1714 27.4325L19.2114 27.1429L19.2127 27.1416ZM18.455 28.7993C18.5791 28.7993 18.6878 28.7721 18.7796 28.7165C18.8727 28.6609 18.949 28.5743 19.0123 28.4566C19.0744 28.3389 19.1067 28.2174 19.1067 28.0945C19.1067 27.9316 19.0602 27.801 18.9658 27.7015C18.8714 27.6019 18.7472 27.5528 18.5921 27.5528C18.4123 27.5528 18.2598 27.6187 18.1343 27.7506C18.0089 27.8825 17.9468 28.0532 17.9468 28.2626C17.9468 28.4243 17.9947 28.5536 18.0891 28.6518C18.1835 28.7501 18.3063 28.7993 18.4563 28.7993H18.455Z" fill="#231F20"/>
<path d="M20.2563 27.1409H20.7593L20.7309 27.3491C20.9236 27.1745 21.124 27.0879 21.3322 27.0879C21.5093 27.0879 21.6554 27.1448 21.7692 27.2573C21.883 27.3698 21.9399 27.512 21.9399 27.684C21.9399 27.7642 21.9296 27.8844 21.9076 28.0447L21.7498 29.1956H21.2468L21.4007 28.0719C21.4162 27.9555 21.424 27.8689 21.424 27.812C21.424 27.7292 21.4007 27.6646 21.3529 27.6206C21.305 27.5767 21.2378 27.5534 21.1511 27.5534C21.0645 27.5534 20.9818 27.5831 20.8977 27.6413C20.8137 27.6995 20.7477 27.781 20.7025 27.8844C20.6572 27.9879 20.6158 28.1831 20.577 28.4689L20.48 29.1956H19.9771L20.2576 27.1409H20.2563Z" fill="#231F20"/>
<path d="M26.2005 26.937L25.7661 27.2189C25.6406 27.0753 25.5191 26.9758 25.4014 26.9202C25.2838 26.8646 25.1519 26.8361 25.0032 26.8361C24.6825 26.8361 24.4213 26.9654 24.2196 27.2227C24.0592 27.4283 23.9804 27.6559 23.9804 27.9068C23.9804 28.1576 24.0631 28.3606 24.2273 28.5274C24.3916 28.6942 24.5933 28.7783 24.8338 28.7783C25.0122 28.7783 25.1751 28.7356 25.3213 28.649C25.4674 28.5623 25.5876 28.433 25.6807 28.2598H24.8144L24.879 27.7671H26.2833C26.2626 28.2261 26.1191 28.5908 25.8514 28.861C25.5838 29.1313 25.2437 29.2657 24.8286 29.2657C24.3786 29.2657 24.023 29.1093 23.7657 28.7977C23.5575 28.5468 23.4541 28.2494 23.4541 27.9029C23.4541 27.4813 23.6067 27.1167 23.9105 26.809C24.2144 26.5012 24.5765 26.3486 24.9967 26.3486C25.1532 26.3486 25.3045 26.3719 25.4532 26.4172C25.6019 26.4624 25.7363 26.5258 25.8553 26.6085C25.9743 26.6913 26.0893 26.7999 26.1992 26.9383L26.2005 26.937Z" fill="#231F20"/>
<path d="M28.4154 27.1416H28.9197L28.6339 29.1962H28.1348L28.1645 28.9751C28.0546 29.0773 27.9525 29.1484 27.8568 29.1885C27.7611 29.2285 27.6551 29.2492 27.5361 29.2492C27.2646 29.2492 27.0473 29.1497 26.887 28.9492C26.7267 28.7488 26.6465 28.5161 26.6465 28.251C26.6465 28.048 26.6982 27.8553 26.8004 27.6717C26.9038 27.4881 27.0409 27.3459 27.2141 27.2437C27.3874 27.1416 27.5684 27.0898 27.7572 27.0898C27.8839 27.0898 28.0016 27.1196 28.1089 27.1778C28.2162 27.236 28.3042 27.3213 28.374 27.4325L28.4141 27.1429L28.4154 27.1416ZM27.6576 28.7993C27.7818 28.7993 27.8904 28.7721 27.9822 28.7165C28.0753 28.6609 28.1516 28.5743 28.215 28.4566C28.277 28.3389 28.3093 28.2174 28.3093 28.0945C28.3093 27.9316 28.2628 27.801 28.1684 27.7015C28.074 27.6019 27.9499 27.5528 27.7947 27.5528C27.615 27.5528 27.4624 27.6187 27.337 27.7506C27.2115 27.8825 27.1495 28.0532 27.1495 28.2626C27.1495 28.4243 27.1973 28.5536 27.2917 28.6518C27.3861 28.7501 27.5089 28.7993 27.6589 28.7993H27.6576Z" fill="#231F20"/>
<path d="M29.5598 26.3779H30.0615L29.9581 27.1408H30.2774L30.2167 27.5753H29.8986L29.6788 29.1955H29.1758L29.3969 27.5753H29.1499L29.2081 27.1408H29.4564L29.5611 26.3779H29.5598Z" fill="#231F20"/>
<path d="M32.1268 27.1416H32.6311L32.3453 29.1962H31.8462L31.8759 28.9751C31.766 29.0773 31.6639 29.1484 31.5682 29.1885C31.4725 29.2285 31.3665 29.2492 31.2475 29.2492C30.976 29.2492 30.7588 29.1497 30.5984 28.9492C30.4381 28.7488 30.3579 28.5161 30.3579 28.251C30.3579 28.048 30.4096 27.8553 30.5118 27.6717C30.6152 27.4881 30.7523 27.3459 30.9256 27.2437C31.0988 27.1416 31.2799 27.0898 31.4686 27.0898C31.5954 27.0898 31.713 27.1196 31.8203 27.1778C31.9277 27.236 32.0156 27.3213 32.0854 27.4325L32.1255 27.1429L32.1268 27.1416ZM31.3691 28.7993C31.4932 28.7993 31.6018 28.7721 31.6936 28.7165C31.7867 28.6609 31.863 28.5743 31.9264 28.4566C31.9884 28.3389 32.0208 28.2174 32.0208 28.0945C32.0208 27.9316 31.9742 27.801 31.8798 27.7015C31.7854 27.6019 31.6613 27.5528 31.5061 27.5528C31.3264 27.5528 31.1738 27.6187 31.0484 27.7506C30.923 27.8825 30.8609 28.0532 30.8609 28.2626C30.8609 28.4243 30.9087 28.5536 31.0031 28.6518C31.0975 28.7501 31.2204 28.7993 31.3704 28.7993H31.3691Z" fill="#231F20"/>
<path d="M33.2193 26.3486H33.7223L33.3331 29.1959H32.8301L33.2193 26.3486Z" fill="#231F20"/>
<path d="M36.7969 26.3486H37.3012L36.9068 29.1959H36.4077L36.4375 28.9748C36.3276 29.077 36.2254 29.1481 36.1297 29.1882C36.034 29.2282 35.928 29.2489 35.8091 29.2489C35.5375 29.2489 35.3203 29.1494 35.1599 28.949C34.9996 28.7485 34.9194 28.5158 34.9194 28.2507C34.9194 28.0477 34.9712 27.855 35.0733 27.6714C35.1768 27.4878 35.3138 27.3456 35.4871 27.2434C35.6603 27.1413 35.8414 27.0895 36.0302 27.0895C36.1569 27.0895 36.2745 27.1193 36.3819 27.1775C36.4892 27.2357 36.5771 27.321 36.6469 27.4322L36.7944 26.3499L36.7969 26.3486ZM35.9306 28.799C36.0547 28.799 36.162 28.7718 36.2551 28.7162C36.3482 28.6606 36.4245 28.574 36.4879 28.4563C36.55 28.3386 36.5823 28.2171 36.5823 28.0942C36.5823 27.9313 36.5357 27.8007 36.4413 27.7012C36.347 27.6016 36.2228 27.5525 36.069 27.5525C35.8892 27.5525 35.7366 27.6184 35.6112 27.7503C35.4858 27.8822 35.4237 28.0529 35.4237 28.2623C35.4237 28.424 35.4716 28.5533 35.566 28.6516C35.6603 28.7498 35.7832 28.799 35.9319 28.799H35.9306Z" fill="#231F20"/>
<path d="M39.2411 27.1416H39.7453L39.4596 29.1962H38.9605L38.9902 28.9751C38.8803 29.0773 38.7781 29.1484 38.6825 29.1885C38.5868 29.2285 38.4807 29.2492 38.3618 29.2492C38.0902 29.2492 37.873 29.1497 37.7127 28.9492C37.5523 28.7488 37.4722 28.5161 37.4722 28.251C37.4722 28.048 37.5239 27.8553 37.626 27.6717C37.7295 27.4881 37.8665 27.3459 38.0398 27.2437C38.2131 27.1416 38.3941 27.0898 38.5829 27.0898C38.7096 27.0898 38.8273 27.1196 38.9346 27.1778C39.0419 27.236 39.1299 27.3213 39.1997 27.4325L39.2398 27.1429L39.2411 27.1416ZM38.4833 28.7993C38.6075 28.7993 38.7161 28.7721 38.8079 28.7165C38.901 28.6609 38.9773 28.5743 39.0406 28.4566C39.1027 28.3389 39.135 28.2174 39.135 28.0945C39.135 27.9316 39.0885 27.801 38.9941 27.7015C38.8997 27.6019 38.7756 27.5528 38.6204 27.5528C38.4407 27.5528 38.2881 27.6187 38.1627 27.7506C38.0372 27.8825 37.9752 28.0532 37.9752 28.2626C37.9752 28.4243 38.023 28.5536 38.1174 28.6518C38.2118 28.7501 38.3346 28.7993 38.4846 28.7993H38.4833Z" fill="#231F20"/>
<path d="M40.2856 27.1409H40.7886L40.7602 27.3491C40.9529 27.1745 41.1533 27.0879 41.3615 27.0879C41.5386 27.0879 41.6847 27.1448 41.7985 27.2573C41.9123 27.3698 41.9692 27.512 41.9692 27.684C41.9692 27.7642 41.9588 27.8844 41.9369 28.0447L41.7791 29.1956H41.2761L41.43 28.0719C41.4455 27.9555 41.4533 27.8689 41.4533 27.812C41.4533 27.7292 41.43 27.6646 41.3821 27.6206C41.3343 27.5767 41.2671 27.5534 41.1804 27.5534C41.0938 27.5534 41.011 27.5831 40.927 27.6413C40.8429 27.6995 40.777 27.781 40.7317 27.8844C40.6865 27.9879 40.6451 28.1831 40.6063 28.4689L40.5093 29.1956H40.0063L40.2869 27.1409H40.2856Z" fill="#231F20"/>
<path d="M43.8388 26.418H44.3625L44.2332 27.3528L45.1189 26.418H45.7655L44.5552 27.6877L45.512 29.1954H44.9289L44.1479 27.9645L43.9772 29.1954H43.46L43.8401 26.418H43.8388Z" fill="#231F20"/>
<path d="M47.3431 28.595L47.7866 28.8251C47.6871 28.9557 47.5552 29.0592 47.391 29.1354C47.2267 29.2117 47.0444 29.2492 46.844 29.2492C46.5311 29.2492 46.2841 29.1613 46.1031 28.9855C45.9221 28.8096 45.8315 28.5756 45.8315 28.2833C45.8315 27.9497 45.944 27.6678 46.1703 27.4364C46.3966 27.2049 46.6694 27.0898 46.9888 27.0898C47.1815 27.0898 47.3535 27.1325 47.5035 27.2166C47.6534 27.3006 47.7724 27.4235 47.859 27.5851C47.9457 27.7467 47.9896 27.9213 47.9896 28.1101C47.9896 28.1695 47.9832 28.2381 47.9702 28.3182H46.332C46.3371 28.4605 46.3837 28.5743 46.4729 28.6596C46.5621 28.7437 46.6837 28.7863 46.8401 28.7863C47.0289 28.7863 47.1957 28.723 47.3418 28.5962L47.3431 28.595ZM47.4711 27.9458C47.4336 27.8204 47.3703 27.7247 47.2823 27.6601C47.1944 27.5954 47.0884 27.5631 46.963 27.5631C46.8375 27.5631 46.7276 27.5967 46.6294 27.6627C46.5298 27.7299 46.4548 27.8243 46.4031 27.9458H47.4711Z" fill="#231F20"/>
<path d="M49.6848 27.4286L49.4443 27.814C49.3823 27.7221 49.3176 27.6549 49.2491 27.6109C49.1805 27.567 49.1172 27.5463 49.0577 27.5463C49.0125 27.5463 48.9737 27.5592 48.9426 27.5838C48.9116 27.6084 48.8948 27.6368 48.8948 27.6691C48.8948 27.7015 48.9077 27.7299 48.9323 27.7596C48.9569 27.7894 49.0293 27.8489 49.1495 27.9355C49.3422 28.0739 49.4702 28.1928 49.531 28.2911C49.5917 28.3894 49.6228 28.4967 49.6228 28.6131C49.6228 28.7656 49.5607 28.9092 49.4353 29.0449C49.3099 29.1807 49.1288 29.2492 48.8909 29.2492C48.7538 29.2492 48.6284 29.2221 48.5159 29.1665C48.4034 29.1109 48.278 29.01 48.1396 28.8626L48.4513 28.5006C48.5922 28.6868 48.7461 28.7799 48.9142 28.7799C48.9814 28.7799 49.0344 28.7643 49.0732 28.732C49.112 28.6997 49.1327 28.6622 49.1327 28.6182C49.1327 28.5833 49.1172 28.5471 49.0875 28.5096C49.0577 28.4721 48.975 28.4062 48.8405 28.3105C48.684 28.1993 48.5767 28.1049 48.5172 28.026C48.4345 27.9148 48.3931 27.7984 48.3931 27.6743C48.3931 27.5023 48.4577 27.3614 48.5883 27.2528C48.7189 27.1442 48.8728 27.0898 49.05 27.0898C49.1741 27.0898 49.293 27.1196 49.4055 27.1791C49.518 27.2385 49.6111 27.3226 49.6848 27.4299V27.4286Z" fill="#231F20"/>
<path d="M51.5199 28.595L51.9634 28.8251C51.8638 28.9557 51.7319 29.0592 51.5677 29.1354C51.4035 29.2117 51.2212 29.2492 51.0208 29.2492C50.7078 29.2492 50.4609 29.1613 50.2798 28.9855C50.0988 28.8096 50.0083 28.5756 50.0083 28.2833C50.0083 27.9497 50.1208 27.6678 50.3471 27.4364C50.5734 27.2049 50.8462 27.0898 51.1656 27.0898C51.3582 27.0898 51.5302 27.1325 51.6802 27.2166C51.8302 27.3006 51.9492 27.4235 52.0358 27.5851C52.1224 27.7467 52.1664 27.9213 52.1664 28.1101C52.1664 28.1695 52.1599 28.2381 52.147 28.3182H50.5087C50.5139 28.4605 50.5604 28.5743 50.6497 28.6596C50.7389 28.7437 50.8604 28.7863 51.0169 28.7863C51.2057 28.7863 51.3725 28.723 51.5186 28.5962L51.5199 28.595ZM51.6479 27.9458C51.6104 27.8204 51.547 27.7247 51.4591 27.6601C51.3712 27.5954 51.2651 27.5631 51.1397 27.5631C51.0143 27.5631 50.9044 27.5967 50.8061 27.6627C50.7065 27.7299 50.6315 27.8243 50.5798 27.9458H51.6479Z" fill="#231F20"/>
<path d="M52.8449 26.3486H53.3466L53.2109 27.3495C53.4035 27.1749 53.604 27.0883 53.8121 27.0883C53.9906 27.0883 54.1354 27.1452 54.2492 27.2576C54.363 27.3701 54.4199 27.5124 54.4199 27.6844C54.4199 27.7645 54.4095 27.8848 54.3876 28.0451L54.2298 29.1959H53.7268L53.8807 28.0723C53.8962 27.9559 53.904 27.8693 53.904 27.8124C53.904 27.7296 53.8807 27.665 53.8328 27.621C53.785 27.577 53.719 27.5538 53.6311 27.5538C53.5432 27.5538 53.4617 27.5835 53.3777 27.6417C53.2936 27.6999 53.2277 27.7813 53.1824 27.8848C53.1372 27.9882 53.0958 28.1835 53.0583 28.4692L52.96 29.1959H52.457L52.8462 26.3486H52.8449Z" fill="#231F20"/>
<path d="M56.5663 27.1416H57.0705L56.7848 29.1962H56.2857L56.3154 28.9751C56.2055 29.0773 56.1033 29.1484 56.0077 29.1885C55.912 29.2285 55.8059 29.2492 55.687 29.2492C55.4141 29.2492 55.1982 29.1497 55.0379 28.9492C54.8775 28.7488 54.7974 28.5161 54.7974 28.251C54.7974 28.048 54.8491 27.8553 54.9512 27.6717C55.0534 27.4881 55.1917 27.3459 55.365 27.2437C55.5383 27.1416 55.7193 27.0898 55.9094 27.0898C56.0361 27.0898 56.1538 27.1196 56.2611 27.1778C56.3684 27.236 56.4563 27.3213 56.5262 27.4325L56.565 27.1429L56.5663 27.1416ZM55.8098 28.7993C55.934 28.7993 56.0426 28.7721 56.1344 28.7165C56.2262 28.6609 56.3038 28.5743 56.3671 28.4566C56.4292 28.3389 56.4615 28.2174 56.4615 28.0945C56.4615 27.9316 56.4137 27.801 56.3206 27.7015C56.2262 27.6019 56.102 27.5528 55.9469 27.5528C55.7672 27.5528 55.6146 27.6187 55.4891 27.7506C55.3637 27.8825 55.3017 28.0532 55.3017 28.2626C55.3017 28.4243 55.3495 28.5536 55.4439 28.6518C55.5383 28.7501 55.6611 28.7993 55.8111 28.7993H55.8098Z" fill="#231F20"/>
<path d="M57.7107 26.3779H58.2124L58.1089 27.1408H58.4283L58.3675 27.5753H58.0495L57.8296 29.1955H57.3266L57.5478 27.5753H57.3008L57.359 27.1408H57.6072L57.712 26.3779H57.7107Z" fill="#231F20"/>
<path d="M60.2777 27.1416H60.782L60.4962 29.1962H59.9971L60.0268 28.9751C59.9169 29.0773 59.8148 29.1484 59.7191 29.1885C59.6234 29.2285 59.5174 29.2492 59.3984 29.2492C59.1256 29.2492 58.9096 29.1497 58.7493 28.9492C58.589 28.7488 58.5088 28.5161 58.5088 28.251C58.5088 28.048 58.5605 27.8553 58.6627 27.6717C58.7648 27.4881 58.9032 27.3459 59.0764 27.2437C59.2497 27.1416 59.4307 27.0898 59.6208 27.0898C59.7475 27.0898 59.8652 27.1196 59.9725 27.1778C60.0798 27.236 60.1678 27.3213 60.2376 27.4325L60.2764 27.1429L60.2777 27.1416ZM59.5212 28.7993C59.6454 28.7993 59.754 28.7721 59.8458 28.7165C59.9376 28.6609 60.0152 28.5743 60.0785 28.4566C60.1406 28.3389 60.1729 28.2174 60.1729 28.0945C60.1729 27.9316 60.1251 27.801 60.032 27.7015C59.9376 27.6019 59.8135 27.5528 59.6583 27.5528C59.4786 27.5528 59.326 27.6187 59.2006 27.7506C59.0751 27.8825 59.0131 28.0532 59.0131 28.2626C59.0131 28.4243 59.0609 28.5536 59.1553 28.6518C59.2497 28.7501 59.3725 28.7993 59.5225 28.7993H59.5212Z" fill="#231F20"/>
<path d="M61.3223 27.1409H61.8253L61.7968 27.3491C61.9895 27.1745 62.1899 27.0879 62.3981 27.0879C62.5752 27.0879 62.7213 27.1448 62.8351 27.2573C62.9489 27.3698 63.0058 27.512 63.0058 27.684C63.0058 27.7642 62.9955 27.8844 62.9735 28.0447L62.8157 29.1956H62.3127L62.4666 28.0719C62.4821 27.9555 62.4899 27.8689 62.4899 27.812C62.4899 27.7292 62.4666 27.6646 62.4188 27.6206C62.3709 27.5767 62.3037 27.5534 62.2171 27.5534C62.1304 27.5534 62.0477 27.5831 61.9636 27.6413C61.8796 27.6995 61.8136 27.781 61.7684 27.8844C61.7231 27.9879 61.6817 28.1831 61.6429 28.4689L61.546 29.1956H61.043L61.3236 27.1409H61.3223Z" fill="#231F20"/>
<path d="M64.8754 26.418H65.3991L65.2698 27.3528L66.1556 26.418H66.8021L65.5918 27.6877L66.5486 29.1954H65.9655L65.1845 27.9645L65.0138 29.1954H64.4966L64.8767 26.418H64.8754Z" fill="#231F20"/>
<path d="M67.1279 27.1416H67.627L67.4835 28.1916C67.468 28.3079 67.4602 28.3946 67.4602 28.4528C67.4602 28.5433 67.4913 28.6196 67.5546 28.6816C67.618 28.7437 67.6994 28.7747 67.8003 28.7747C67.9296 28.7747 68.0305 28.7346 68.1003 28.6558C68.1701 28.5769 68.2218 28.4153 68.2542 28.1722L68.3951 27.1429H68.8942L68.7468 28.2472C68.7132 28.4967 68.655 28.6894 68.5761 28.8252C68.496 28.9622 68.3899 29.067 68.2567 29.1394C68.1236 29.2118 67.9684 29.2493 67.7887 29.2493C67.5365 29.2493 67.3361 29.1769 67.1861 29.0307C67.0374 28.8859 66.9624 28.6971 66.9624 28.467C66.9624 28.326 66.9792 28.145 67.0115 27.9239L67.1266 27.1429L67.1279 27.1416Z" fill="#231F20"/>
<path d="M69.4903 26.3486H69.9933L69.6041 29.1959H69.1011L69.4903 26.3486Z" fill="#231F20"/>
<path d="M70.3011 27.1413H70.8002L70.5235 29.1959H70.0205L70.3011 27.1413ZM70.6476 26.3008C70.733 26.3008 70.8067 26.3318 70.8675 26.3926C70.9282 26.4534 70.9593 26.5271 70.9593 26.6124C70.9593 26.6977 70.9282 26.7715 70.8675 26.8322C70.8067 26.893 70.733 26.924 70.6476 26.924C70.5623 26.924 70.4886 26.893 70.4278 26.8322C70.367 26.7715 70.336 26.6977 70.336 26.6124C70.336 26.5271 70.367 26.4534 70.4278 26.3926C70.4886 26.3318 70.5623 26.3008 70.6476 26.3008Z" fill="#231F20"/>
<path d="M71.3977 26.3779H71.8994L71.7959 27.1408H72.1153L72.0546 27.5753H71.7365L71.5167 29.1955H71.0137L71.2348 27.5753H70.9878L71.046 27.1408H71.2942L71.399 26.3779H71.3977Z" fill="#231F20"/>
<path d="M73.6904 26.418H74.2141L74.0848 27.3528L74.9705 26.418H75.617L74.4067 27.6877L75.3636 29.1954H74.7804L73.9994 27.9645L73.8287 29.1954H73.3115L73.6917 26.418H73.6904Z" fill="#231F20"/>
<path d="M77.1947 28.595L77.6382 28.8251C77.5386 28.9557 77.4067 29.0592 77.2425 29.1354C77.0783 29.2117 76.896 29.2492 76.6956 29.2492C76.3826 29.2492 76.1357 29.1613 75.9547 28.9855C75.7736 28.8096 75.6831 28.5756 75.6831 28.2833C75.6831 27.9497 75.7956 27.6678 76.0219 27.4364C76.2482 27.2049 76.521 27.0898 76.8404 27.0898C77.033 27.0898 77.205 27.1325 77.355 27.2166C77.505 27.3006 77.624 27.4235 77.7106 27.5851C77.7972 27.7467 77.8412 27.9213 77.8412 28.1101C77.8412 28.1695 77.8347 28.2381 77.8218 28.3182H76.1835C76.1887 28.4605 76.2352 28.5743 76.3245 28.6596C76.4137 28.7437 76.5352 28.7863 76.6917 28.7863C76.8805 28.7863 77.0473 28.723 77.1934 28.5962L77.1947 28.595ZM77.3227 27.9458C77.2852 27.8204 77.2218 27.7247 77.1339 27.6601C77.046 27.5954 76.9399 27.5631 76.8145 27.5631C76.6891 27.5631 76.5792 27.5967 76.4809 27.6627C76.3814 27.7299 76.3064 27.8243 76.2546 27.9458H77.3227Z" fill="#231F20"/>
<path d="M78.459 26.3486H78.962L78.5728 29.1959H78.0698L78.459 26.3486Z" fill="#231F20"/>
<path d="M79.3437 27.1416H79.8429L79.6993 28.1916C79.6838 28.3079 79.676 28.3946 79.676 28.4528C79.676 28.5433 79.7071 28.6196 79.7704 28.6816C79.8338 28.7437 79.9153 28.7747 80.0161 28.7747C80.1454 28.7747 80.2463 28.7346 80.3161 28.6558C80.3859 28.5769 80.4377 28.4153 80.47 28.1722L80.6109 27.1429H81.11L80.9626 28.2472C80.929 28.4967 80.8708 28.6894 80.7919 28.8252C80.7118 28.9622 80.6058 29.067 80.4726 29.1394C80.3394 29.2118 80.1842 29.2493 80.0045 29.2493C79.7523 29.2493 79.5519 29.1769 79.4019 29.0307C79.2532 28.8859 79.1782 28.6971 79.1782 28.467C79.1782 28.326 79.195 28.145 79.2274 27.9239L79.3424 27.1429L79.3437 27.1416Z" fill="#231F20"/>
<path d="M83.1668 27.1416H83.6711L83.3854 29.1962H82.8862L82.916 28.9751C82.8061 29.0773 82.7039 29.1484 82.6082 29.1885C82.5126 29.2285 82.4065 29.2492 82.2876 29.2492C82.0147 29.2492 81.7988 29.1497 81.6385 28.9492C81.4781 28.7488 81.3979 28.5161 81.3979 28.251C81.3979 28.048 81.4497 27.8553 81.5518 27.6717C81.654 27.4881 81.7923 27.3459 81.9656 27.2437C82.1389 27.1416 82.3199 27.0898 82.51 27.0898C82.6367 27.0898 82.7544 27.1196 82.8617 27.1778C82.969 27.236 83.0569 27.3213 83.1268 27.4325L83.1655 27.1429L83.1668 27.1416ZM82.4104 28.7993C82.5345 28.7993 82.6432 28.7721 82.735 28.7165C82.8268 28.6609 82.9044 28.5743 82.9677 28.4566C83.0298 28.3389 83.0621 28.2174 83.0621 28.0945C83.0621 27.9316 83.0143 27.801 82.9212 27.7015C82.8268 27.6019 82.7026 27.5528 82.5475 27.5528C82.3677 27.5528 82.2152 27.6187 82.0897 27.7506C81.9643 27.8825 81.9022 28.0532 81.9022 28.2626C81.9022 28.4243 81.9501 28.5536 82.0445 28.6518C82.1389 28.7501 82.2617 28.7993 82.4117 28.7993H82.4104Z" fill="#231F20"/>
<path d="M84.0942 27.1409H84.5429L84.5067 27.4202C84.6412 27.1991 84.8028 27.0879 84.9916 27.0879C85.0368 27.0879 85.0834 27.0995 85.1325 27.1241L84.9476 27.5818C84.9088 27.5676 84.8817 27.5611 84.8636 27.5611C84.7653 27.5611 84.6774 27.618 84.5998 27.7318C84.5222 27.8456 84.4614 28.0758 84.4175 28.4223L84.3179 29.1943H83.811L84.0916 27.1396L84.0942 27.1409Z" fill="#231F20"/>
<path d="M86.9814 27.1415H87.487L87.2517 28.7902C87.2064 29.1134 87.1612 29.3281 87.1133 29.4328C87.0396 29.5957 86.9142 29.7315 86.7396 29.8375C86.5651 29.9449 86.3453 29.9979 86.0802 29.9979C85.8604 29.9979 85.669 29.9565 85.5061 29.8725C85.3431 29.7884 85.2216 29.6811 85.1401 29.5492L85.5811 29.3229C85.713 29.46 85.8849 29.5285 86.097 29.5285C86.2198 29.5285 86.3272 29.5065 86.4164 29.4626C86.5069 29.4186 86.5767 29.3591 86.6258 29.2841C86.675 29.2091 86.7112 29.0979 86.7319 28.9505C86.5457 29.1134 86.3336 29.1936 86.0983 29.1936C85.9341 29.1936 85.7815 29.1535 85.6418 29.0721C85.5022 28.9906 85.3923 28.8768 85.3134 28.7294C85.2332 28.582 85.1944 28.4191 85.1944 28.238C85.1944 28.035 85.2462 27.845 85.3509 27.6665C85.4556 27.4881 85.5966 27.3471 85.7763 27.2424C85.956 27.1377 86.1435 27.0859 86.3388 27.0859C86.4578 27.0859 86.5651 27.1092 86.6608 27.1558C86.7564 27.2023 86.8521 27.2799 86.9452 27.3885L86.9789 27.139L86.9814 27.1415ZM86.3621 27.5644C86.1746 27.5644 86.0155 27.629 85.8862 27.757C85.7569 27.885 85.6923 28.0428 85.6923 28.2316C85.6923 28.3842 85.7401 28.5057 85.8358 28.5975C85.9315 28.6893 86.0608 28.7359 86.2211 28.7359C86.3414 28.7359 86.4526 28.7074 86.556 28.6518C86.6582 28.5962 86.7396 28.5148 86.7991 28.41C86.8586 28.3053 86.8883 28.1915 86.8883 28.0712C86.8883 27.9264 86.8392 27.8062 86.7409 27.7105C86.6427 27.6148 86.5159 27.567 86.3621 27.567V27.5644Z" fill="#231F20"/>
<path d="M89.5096 27.1416H90.0139L89.7281 29.1962H89.229L89.2588 28.9751C89.1489 29.0773 89.0467 29.1484 88.951 29.1885C88.8553 29.2285 88.7493 29.2492 88.6303 29.2492C88.3575 29.2492 88.1416 29.1497 87.9812 28.9492C87.8209 28.7488 87.7407 28.5161 87.7407 28.251C87.7407 28.048 87.7924 27.8553 87.8946 27.6717C87.9967 27.4881 88.1351 27.3459 88.3084 27.2437C88.4816 27.1416 88.6627 27.0898 88.8527 27.0898C88.9795 27.0898 89.0971 27.1196 89.2045 27.1778C89.3118 27.236 89.3997 27.3213 89.4695 27.4325L89.5083 27.1429L89.5096 27.1416ZM88.7532 28.7993C88.8773 28.7993 88.9859 28.7721 89.0777 28.7165C89.1695 28.6609 89.2471 28.5743 89.3105 28.4566C89.3725 28.3389 89.4049 28.2174 89.4049 28.0945C89.4049 27.9316 89.357 27.801 89.2639 27.7015C89.1695 27.6019 89.0454 27.5528 88.8902 27.5528C88.7105 27.5528 88.5579 27.6187 88.4325 27.7506C88.3071 27.8825 88.245 28.0532 88.245 28.2626C88.245 28.4243 88.2929 28.5536 88.3872 28.6518C88.4816 28.7501 88.6045 28.7993 88.7545 28.7993H88.7532Z" fill="#231F20"/>
</g>
<path d="M16.5449 48.8027C16.5449 48.627 16.5176 48.4707 16.4629 48.334C16.4121 48.1973 16.3203 48.0723 16.1875 47.959C16.0547 47.8457 15.8672 47.7363 15.625 47.6309C15.3867 47.5215 15.082 47.4102 14.7109 47.2969C14.3047 47.1719 13.9297 47.0332 13.5859 46.8809C13.2461 46.7246 12.9492 46.5449 12.6953 46.3418C12.4414 46.1348 12.2441 45.8984 12.1035 45.6328C11.9629 45.3633 11.8926 45.0527 11.8926 44.7012C11.8926 44.3535 11.9648 44.0371 12.1094 43.752C12.2578 43.4668 12.4668 43.2207 12.7363 43.0137C13.0098 42.8027 13.332 42.6406 13.7031 42.5273C14.0742 42.4102 14.4844 42.3516 14.9336 42.3516C15.5664 42.3516 16.1113 42.4688 16.5684 42.7031C17.0293 42.9375 17.3828 43.252 17.6289 43.6465C17.8789 44.041 18.0039 44.4766 18.0039 44.9531H16.5449C16.5449 44.6719 16.4844 44.4238 16.3633 44.209C16.2461 43.9902 16.0664 43.8184 15.8242 43.6934C15.5859 43.5684 15.2832 43.5059 14.916 43.5059C14.5684 43.5059 14.2793 43.5586 14.0488 43.6641C13.8184 43.7695 13.6465 43.9121 13.5332 44.0918C13.4199 44.2715 13.3633 44.4746 13.3633 44.7012C13.3633 44.8613 13.4004 45.0078 13.4746 45.1406C13.5488 45.2695 13.6621 45.3906 13.8145 45.5039C13.9668 45.6133 14.1582 45.7168 14.3887 45.8145C14.6191 45.9121 14.8906 46.0059 15.2031 46.0957C15.6758 46.2363 16.0879 46.3926 16.4395 46.5645C16.791 46.7324 17.084 46.9238 17.3184 47.1387C17.5527 47.3535 17.7285 47.5977 17.8457 47.8711C17.9629 48.1406 18.0215 48.4473 18.0215 48.791C18.0215 49.1504 17.9492 49.4746 17.8047 49.7637C17.6602 50.0488 17.4531 50.293 17.1836 50.4961C16.918 50.6953 16.5977 50.8496 16.2227 50.959C15.8516 51.0645 15.4375 51.1172 14.9805 51.1172C14.5703 51.1172 14.166 51.0625 13.7676 50.9531C13.373 50.8438 13.0137 50.6777 12.6895 50.4551C12.3652 50.2285 12.1074 49.9473 11.916 49.6113C11.7246 49.2715 11.6289 48.875 11.6289 48.4219H13.0996C13.0996 48.6992 13.1465 48.9355 13.2402 49.1309C13.3379 49.3262 13.4727 49.4863 13.6445 49.6113C13.8164 49.7324 14.0156 49.8223 14.2422 49.8809C14.4727 49.9395 14.7188 49.9688 14.9805 49.9688C15.3242 49.9688 15.6113 49.9199 15.8418 49.8223C16.0762 49.7246 16.252 49.5879 16.3691 49.4121C16.4863 49.2363 16.5449 49.0332 16.5449 48.8027ZM18.9121 47.9004V47.7656C18.9121 47.3086 18.9785 46.8848 19.1113 46.4941C19.2441 46.0996 19.4355 45.7578 19.6855 45.4688C19.9395 45.1758 20.248 44.9492 20.6113 44.7891C20.9785 44.625 21.3926 44.543 21.8535 44.543C22.3184 44.543 22.7324 44.625 23.0957 44.7891C23.4629 44.9492 23.7734 45.1758 24.0273 45.4688C24.2812 45.7578 24.4746 46.0996 24.6074 46.4941C24.7402 46.8848 24.8066 47.3086 24.8066 47.7656V47.9004C24.8066 48.3574 24.7402 48.7812 24.6074 49.1719C24.4746 49.5625 24.2812 49.9043 24.0273 50.1973C23.7734 50.4863 23.4648 50.7129 23.1016 50.877C22.7383 51.0371 22.3262 51.1172 21.8652 51.1172C21.4004 51.1172 20.9844 51.0371 20.6172 50.877C20.2539 50.7129 19.9453 50.4863 19.6914 50.1973C19.4375 49.9043 19.2441 49.5625 19.1113 49.1719C18.9785 48.7812 18.9121 48.3574 18.9121 47.9004ZM20.3242 47.7656V47.9004C20.3242 48.1855 20.3535 48.4551 20.4121 48.709C20.4707 48.9629 20.5625 49.1855 20.6875 49.377C20.8125 49.5684 20.9727 49.7188 21.168 49.8281C21.3633 49.9375 21.5957 49.9922 21.8652 49.9922C22.127 49.9922 22.3535 49.9375 22.5449 49.8281C22.7402 49.7188 22.9004 49.5684 23.0254 49.377C23.1504 49.1855 23.2422 48.9629 23.3008 48.709C23.3633 48.4551 23.3945 48.1855 23.3945 47.9004V47.7656C23.3945 47.4844 23.3633 47.2188 23.3008 46.9688C23.2422 46.7148 23.1484 46.4902 23.0195 46.2949C22.8945 46.0996 22.7344 45.9473 22.5391 45.8379C22.3477 45.7246 22.1191 45.668 21.8535 45.668C21.5879 45.668 21.3574 45.7246 21.1621 45.8379C20.9707 45.9473 20.8125 46.0996 20.6875 46.2949C20.5625 46.4902 20.4707 46.7148 20.4121 46.9688C20.3535 47.2188 20.3242 47.4844 20.3242 47.7656ZM27.9004 51H26.4883V44.0508C26.4883 43.5781 26.5762 43.1816 26.752 42.8613C26.9316 42.5371 27.1875 42.293 27.5195 42.1289C27.8516 41.9609 28.2441 41.877 28.6973 41.877C28.8379 41.877 28.9766 41.8867 29.1133 41.9062C29.25 41.9219 29.3828 41.9473 29.5117 41.9824L29.4766 43.0723C29.3984 43.0527 29.3125 43.0391 29.2188 43.0312C29.1289 43.0234 29.0312 43.0195 28.9258 43.0195C28.7109 43.0195 28.5254 43.0605 28.3691 43.1426C28.2168 43.2207 28.0996 43.3359 28.0176 43.4883C27.9395 43.6406 27.9004 43.8281 27.9004 44.0508V51ZM29.207 44.6602V45.6914H25.5156V44.6602H29.207ZM33.1387 44.6602V45.6914H29.5645V44.6602H33.1387ZM30.5957 43.1074H32.0078V49.248C32.0078 49.4434 32.0352 49.5938 32.0898 49.6992C32.1484 49.8008 32.2285 49.8691 32.3301 49.9043C32.4316 49.9395 32.5508 49.957 32.6875 49.957C32.7852 49.957 32.8789 49.9512 32.9688 49.9395C33.0586 49.9277 33.1309 49.916 33.1855 49.9043L33.1914 50.9824C33.0742 51.0176 32.9375 51.0488 32.7812 51.0762C32.6289 51.1035 32.4531 51.1172 32.2539 51.1172C31.9297 51.1172 31.6426 51.0605 31.3926 50.9473C31.1426 50.8301 30.9473 50.6406 30.8066 50.3789C30.666 50.1172 30.5957 49.7695 30.5957 49.3359V43.1074ZM42.3965 48.2227H43.8613C43.8145 48.7812 43.6582 49.2793 43.3926 49.7168C43.127 50.1504 42.7539 50.4922 42.2734 50.7422C41.793 50.9922 41.209 51.1172 40.5215 51.1172C39.9941 51.1172 39.5195 51.0234 39.0977 50.8359C38.6758 50.6445 38.3145 50.375 38.0137 50.0273C37.7129 49.6758 37.4824 49.252 37.3223 48.7559C37.166 48.2598 37.0879 47.7051 37.0879 47.0918V46.3828C37.0879 45.7695 37.168 45.2148 37.3281 44.7188C37.4922 44.2227 37.7266 43.7988 38.0312 43.4473C38.3359 43.0918 38.7012 42.8203 39.127 42.6328C39.5566 42.4453 40.0391 42.3516 40.5742 42.3516C41.2539 42.3516 41.8281 42.4766 42.2969 42.7266C42.7656 42.9766 43.1289 43.3223 43.3867 43.7637C43.6484 44.2051 43.8086 44.7109 43.8672 45.2812H42.4023C42.3633 44.9141 42.2773 44.5996 42.1445 44.3379C42.0156 44.0762 41.8242 43.877 41.5703 43.7402C41.3164 43.5996 40.9844 43.5293 40.5742 43.5293C40.2383 43.5293 39.9453 43.5918 39.6953 43.7168C39.4453 43.8418 39.2363 44.0254 39.0684 44.2676C38.9004 44.5098 38.7734 44.8086 38.6875 45.1641C38.6055 45.5156 38.5645 45.918 38.5645 46.3711V47.0918C38.5645 47.5215 38.6016 47.9121 38.6758 48.2637C38.7539 48.6113 38.8711 48.9102 39.0273 49.1602C39.1875 49.4102 39.3906 49.6035 39.6367 49.7402C39.8828 49.877 40.1777 49.9453 40.5215 49.9453C40.9395 49.9453 41.2773 49.8789 41.5352 49.7461C41.7969 49.6133 41.9941 49.4199 42.127 49.166C42.2637 48.9082 42.3535 48.5938 42.3965 48.2227ZM44.7871 47.9004V47.7656C44.7871 47.3086 44.8535 46.8848 44.9863 46.4941C45.1191 46.0996 45.3105 45.7578 45.5605 45.4688C45.8145 45.1758 46.123 44.9492 46.4863 44.7891C46.8535 44.625 47.2676 44.543 47.7285 44.543C48.1934 44.543 48.6074 44.625 48.9707 44.7891C49.3379 44.9492 49.6484 45.1758 49.9023 45.4688C50.1562 45.7578 50.3496 46.0996 50.4824 46.4941C50.6152 46.8848 50.6816 47.3086 50.6816 47.7656V47.9004C50.6816 48.3574 50.6152 48.7812 50.4824 49.1719C50.3496 49.5625 50.1562 49.9043 49.9023 50.1973C49.6484 50.4863 49.3398 50.7129 48.9766 50.877C48.6133 51.0371 48.2012 51.1172 47.7402 51.1172C47.2754 51.1172 46.8594 51.0371 46.4922 50.877C46.1289 50.7129 45.8203 50.4863 45.5664 50.1973C45.3125 49.9043 45.1191 49.5625 44.9863 49.1719C44.8535 48.7812 44.7871 48.3574 44.7871 47.9004ZM46.1992 47.7656V47.9004C46.1992 48.1855 46.2285 48.4551 46.2871 48.709C46.3457 48.9629 46.4375 49.1855 46.5625 49.377C46.6875 49.5684 46.8477 49.7188 47.043 49.8281C47.2383 49.9375 47.4707 49.9922 47.7402 49.9922C48.002 49.9922 48.2285 49.9375 48.4199 49.8281C48.6152 49.7188 48.7754 49.5684 48.9004 49.377C49.0254 49.1855 49.1172 48.9629 49.1758 48.709C49.2383 48.4551 49.2695 48.1855 49.2695 47.9004V47.7656C49.2695 47.4844 49.2383 47.2188 49.1758 46.9688C49.1172 46.7148 49.0234 46.4902 48.8945 46.2949C48.7695 46.0996 48.6094 45.9473 48.4141 45.8379C48.2227 45.7246 47.9941 45.668 47.7285 45.668C47.4629 45.668 47.2324 45.7246 47.0371 45.8379C46.8457 45.9473 46.6875 46.0996 46.5625 46.2949C46.4375 46.4902 46.3457 46.7148 46.2871 46.9688C46.2285 47.2188 46.1992 47.4844 46.1992 47.7656ZM53.2773 45.9492V51H51.8652V44.6602H53.1953L53.2773 45.9492ZM53.0488 47.5957L52.5684 47.5898C52.5684 47.1523 52.623 46.748 52.7324 46.377C52.8418 46.0059 53.002 45.6836 53.2129 45.4102C53.4238 45.1328 53.6855 44.9199 53.998 44.7715C54.3145 44.6191 54.6797 44.543 55.0938 44.543C55.3828 44.543 55.6465 44.5859 55.8848 44.6719C56.127 44.7539 56.3359 44.8848 56.5117 45.0645C56.6914 45.2441 56.8281 45.4746 56.9219 45.7559C57.0195 46.0371 57.0684 46.377 57.0684 46.7754V51H55.6562V46.8984C55.6562 46.5898 55.6094 46.3477 55.5156 46.1719C55.4258 45.9961 55.2949 45.8711 55.123 45.7969C54.9551 45.7188 54.7539 45.6797 54.5195 45.6797C54.2539 45.6797 54.0273 45.7305 53.8398 45.832C53.6562 45.9336 53.5059 46.0723 53.3887 46.248C53.2715 46.4238 53.1855 46.627 53.1309 46.8574C53.0762 47.0879 53.0488 47.334 53.0488 47.5957ZM56.9805 47.2207L56.3184 47.3672C56.3184 46.9844 56.3711 46.623 56.4766 46.2832C56.5859 45.9395 56.7441 45.6387 56.9512 45.3809C57.1621 45.1191 57.4219 44.9141 57.7305 44.7656C58.0391 44.6172 58.3926 44.543 58.791 44.543C59.1152 44.543 59.4043 44.5879 59.6582 44.6777C59.916 44.7637 60.1348 44.9004 60.3145 45.0879C60.4941 45.2754 60.6309 45.5195 60.7246 45.8203C60.8184 46.1172 60.8652 46.4766 60.8652 46.8984V51H59.4473V46.8926C59.4473 46.5723 59.4004 46.3242 59.3066 46.1484C59.2168 45.9727 59.0879 45.8516 58.9199 45.7852C58.752 45.7148 58.5508 45.6797 58.3164 45.6797C58.0977 45.6797 57.9043 45.7207 57.7363 45.8027C57.5723 45.8809 57.4336 45.9922 57.3203 46.1367C57.207 46.2773 57.1211 46.4395 57.0625 46.623C57.0078 46.8066 56.9805 47.0059 56.9805 47.2207ZM64.2285 51H62.8164V44.0508C62.8164 43.5781 62.9043 43.1816 63.0801 42.8613C63.2598 42.5371 63.5156 42.293 63.8477 42.1289C64.1797 41.9609 64.5723 41.877 65.0254 41.877C65.166 41.877 65.3047 41.8867 65.4414 41.9062C65.5781 41.9219 65.7109 41.9473 65.8398 41.9824L65.8047 43.0723C65.7266 43.0527 65.6406 43.0391 65.5469 43.0312C65.457 43.0234 65.3594 43.0195 65.2539 43.0195C65.0391 43.0195 64.8535 43.0605 64.6973 43.1426C64.5449 43.2207 64.4277 43.3359 64.3457 43.4883C64.2676 43.6406 64.2285 43.8281 64.2285 44.0508V51ZM65.5352 44.6602V45.6914H61.8438V44.6602H65.5352ZM66.291 47.9004V47.7656C66.291 47.3086 66.3574 46.8848 66.4902 46.4941C66.623 46.0996 66.8145 45.7578 67.0645 45.4688C67.3184 45.1758 67.627 44.9492 67.9902 44.7891C68.3574 44.625 68.7715 44.543 69.2324 44.543C69.6973 44.543 70.1113 44.625 70.4746 44.7891C70.8418 44.9492 71.1523 45.1758 71.4062 45.4688C71.6602 45.7578 71.8535 46.0996 71.9863 46.4941C72.1191 46.8848 72.1855 47.3086 72.1855 47.7656V47.9004C72.1855 48.3574 72.1191 48.7812 71.9863 49.1719C71.8535 49.5625 71.6602 49.9043 71.4062 50.1973C71.1523 50.4863 70.8438 50.7129 70.4805 50.877C70.1172 51.0371 69.7051 51.1172 69.2441 51.1172C68.7793 51.1172 68.3633 51.0371 67.9961 50.877C67.6328 50.7129 67.3242 50.4863 67.0703 50.1973C66.8164 49.9043 66.623 49.5625 66.4902 49.1719C66.3574 48.7812 66.291 48.3574 66.291 47.9004ZM67.7031 47.7656V47.9004C67.7031 48.1855 67.7324 48.4551 67.791 48.709C67.8496 48.9629 67.9414 49.1855 68.0664 49.377C68.1914 49.5684 68.3516 49.7188 68.5469 49.8281C68.7422 49.9375 68.9746 49.9922 69.2441 49.9922C69.5059 49.9922 69.7324 49.9375 69.9238 49.8281C70.1191 49.7188 70.2793 49.5684 70.4043 49.377C70.5293 49.1855 70.6211 48.9629 70.6797 48.709C70.7422 48.4551 70.7734 48.1855 70.7734 47.9004V47.7656C70.7734 47.4844 70.7422 47.2188 70.6797 46.9688C70.6211 46.7148 70.5273 46.4902 70.3984 46.2949C70.2734 46.0996 70.1133 45.9473 69.918 45.8379C69.7266 45.7246 69.498 45.668 69.2324 45.668C68.9668 45.668 68.7363 45.7246 68.541 45.8379C68.3496 45.9473 68.1914 46.0996 68.0664 46.2949C67.9414 46.4902 67.8496 46.7148 67.791 46.9688C67.7324 47.2188 67.7031 47.4844 67.7031 47.7656ZM74.7871 45.8672V51H73.375V44.6602H74.7227L74.7871 45.8672ZM76.7266 44.6191L76.7148 45.9316C76.6289 45.916 76.5352 45.9043 76.4336 45.8965C76.3359 45.8887 76.2383 45.8848 76.1406 45.8848C75.8984 45.8848 75.6855 45.9199 75.502 45.9902C75.3184 46.0566 75.1641 46.1543 75.0391 46.2832C74.918 46.4082 74.8242 46.5605 74.7578 46.7402C74.6914 46.9199 74.6523 47.1211 74.6406 47.3438L74.3184 47.3672C74.3184 46.9688 74.3574 46.5996 74.4355 46.2598C74.5137 45.9199 74.6309 45.6211 74.7871 45.3633C74.9473 45.1055 75.1465 44.9043 75.3848 44.7598C75.627 44.6152 75.9062 44.543 76.2227 44.543C76.3086 44.543 76.4004 44.5508 76.498 44.5664C76.5996 44.582 76.6758 44.5996 76.7266 44.6191ZM80.8105 44.6602V45.6914H77.2363V44.6602H80.8105ZM78.2676 43.1074H79.6797V49.248C79.6797 49.4434 79.707 49.5938 79.7617 49.6992C79.8203 49.8008 79.9004 49.8691 80.002 49.9043C80.1035 49.9395 80.2227 49.957 80.3594 49.957C80.457 49.957 80.5508 49.9512 80.6406 49.9395C80.7305 49.9277 80.8027 49.916 80.8574 49.9043L80.8633 50.9824C80.7461 51.0176 80.6094 51.0488 80.4531 51.0762C80.3008 51.1035 80.125 51.1172 79.9258 51.1172C79.6016 51.1172 79.3145 51.0605 79.0645 50.9473C78.8145 50.8301 78.6191 50.6406 78.4785 50.3789C78.3379 50.1172 78.2676 49.7695 78.2676 49.3359V43.1074Z" fill="#636466"/>
<defs>
<clipPath id="clip0_1857_16872">
<rect width="90.759" height="30" fill="white" transform="translate(0.810059)"/>
</clipPath>
</defs>
</svg>
