<svg width="91" height="55" viewBox="0 0 91 55" fill="none" xmlns="http://www.w3.org/2000/svg">
<g clip-path="url(#clip0_1857_16881)">
<path d="M58.2256 1.88656C58.2256 1.88656 57.8829 0.837901 57.9501 0.347836C57.9501 0.347836 56.0946 0.421539 54.3089 1.88656C52.5245 3.35417 52.3577 5.72821 52.6124 7.47511C49.6966 8.25482 47.8023 11.8766 48.5678 15.6459C48.5678 15.6459 47.995 16.2769 47.1028 15.9278C46.2106 15.5786 46.4782 12.3667 46.4097 10.0599C46.3606 8.23284 44.9447 5.44891 42.6495 5.44891C40.3544 5.44891 36.4067 6.36827 36.3951 7.95354C36.3886 8.99832 38.6941 8.31301 39.969 8.10224C41.2427 7.89406 42.6586 8.80307 42.7879 9.78062C40.3001 10.5474 36.5774 13.065 36.3213 16.2097C34.4723 17.0475 34.2835 15.5812 34.2188 14.6037C34.1607 13.6248 34.3042 7.26823 34.1723 5.10108C34.0482 2.93781 32.9349 1.67967 31.8448 1.74821C30.7612 1.81932 28.5333 2.72316 28.148 3.98389C27.7691 5.24331 29.2329 4.96272 29.8096 4.82307C30.3837 4.68472 30.8298 5.38038 30.8298 6.21956C30.8298 7.05875 30.8401 13.9041 30.7768 14.8119C30.7108 15.7196 30.0139 16.348 29.379 16.348C28.7441 16.348 28.6768 15.0226 28.6768 14.1834C28.6768 13.3443 28.607 9.58795 28.5799 8.52507C28.5566 7.48287 27.2028 5.83553 25.1714 5.68166C24.1913 5.60925 19.9061 6.18336 19.3294 7.36908C18.3441 9.41081 21.2806 8.32853 21.9853 8.19017C22.6849 8.04664 24.8145 8.0363 25.0692 9.1509C25.3266 10.272 22.8219 10.2487 20.4996 12.3667C18.0764 14.5804 13.2805 16.6777 10.9699 16.4178C7.3532 16.0131 5.10459 13.4852 5.03735 10.3405C4.96364 6.7161 7.3907 4.66274 8.76779 4.055C10.8147 3.14858 13.3969 3.00893 14.4805 3.70588C15.5653 4.40542 15.4373 5.52003 14.5438 5.87174C13.6516 6.22086 11.2259 5.94156 10.5225 5.87174C9.82292 5.8032 8.99407 6.22086 9.18415 7.05746C9.37423 7.89794 10.4578 8.9479 13.0723 8.6673C15.6908 8.38801 18.1786 6.99151 18.3725 4.47783C18.5639 1.95639 14.6938 -0.0038734 10.463 5.74728e-06C6.05756 0.00388489 1.78533 3.424 0.703053 6.42516C-0.3844 9.42891 0.635815 12.7391 1.84869 14.9114C4.30936 19.322 10.2315 19.6569 12.2823 19.5095C14.8968 19.3233 17.4403 17.535 18.7139 16.2756C18.5885 17.6023 19.4872 19.1009 21.269 19.3673C22.5633 19.5612 24.3969 18.6496 24.9063 18.0199C24.9063 18.0199 25.933 19.3453 27.5959 19.3453C29.2587 19.3453 30.4367 18.232 31.0134 17.8117C31.0134 17.8117 31.8939 19.3453 33.465 19.3453C34.6766 19.3453 35.6826 18.51 36.8269 17.535C37.6946 18.594 38.7859 19.26 39.8397 19.3168C41.3461 19.3944 42.7762 18.4699 43.34 17.8117C43.34 17.8117 44.9951 19.2289 46.2739 19.2974C47.5502 19.3686 48.8885 18.4376 49.5893 17.8117C50.4207 18.6496 52.8439 19.975 55.9046 19.1384C58.9691 18.2992 60.1406 15.7157 60.1406 13.7606C60.1406 11.8055 56.8239 6.84669 55.7365 5.3765C55.4197 4.04983 57.3321 2.02492 58.2269 1.88527M24.2779 16.4838C23.3197 17.2544 21.4603 16.904 21.269 16.2756C21.0763 15.6446 21.5224 14.6011 22.5439 13.6895C23.5667 12.7792 25.1882 12.3654 25.1882 12.3654C25.2503 13.0624 25.236 15.7157 24.2779 16.4838ZM42.1 16.4838C41.1457 17.2544 39.3186 16.904 39.126 16.2756C38.9346 15.6446 39.3794 14.6011 40.4009 13.6895C41.425 12.7792 42.8435 12.3654 42.8435 12.3654C42.9094 13.0624 43.0607 15.7157 42.0987 16.4838M55.1378 16.9713C53.5422 17.3941 51.6944 15.6446 51.1823 13.4115C50.669 11.1758 52.6487 9.42891 53.4801 9.36167C53.4801 9.36167 55.0085 12.0874 56.0287 13.4813C57.0528 14.8804 56.7334 16.5549 55.1378 16.9713ZM61.369 4.12224C61.2397 4.75066 60.9242 5.79803 60.9242 5.79803C61.8151 5.44762 63.8581 5.30797 63.8581 3.56106C63.8581 1.81415 63.2129 1.61632 62.009 1.81544C60.7302 2.02492 59.582 3.21452 59.582 3.21452C60.3488 3.1447 61.497 3.48994 61.369 4.12224ZM85.9808 17.473C83.3689 18.5203 81.6453 14.8196 81.5185 13.4231C82.412 13.5615 85.1546 12.3745 86.1761 11.6051C87.1924 10.8383 89.7475 7.90311 87.5778 5.94803C85.4119 3.99164 81.6453 6.08767 79.5402 8.60136C77.4364 11.1163 78.0764 14.3179 78.776 16.0674C76.7976 16.97 76.5571 15.2243 76.4912 13.1994C76.4317 11.1745 76.1188 7.00186 75.0985 6.02302C74.0809 5.04677 71.0681 6.14586 70.0492 6.8454C70.1139 6.35404 69.6005 5.30409 68.4536 5.44632C67.3041 5.58468 65.3283 6.91264 64.8783 7.682C66.0291 7.74924 66.7312 8.03113 66.7312 8.80049C66.7312 9.56985 66.9213 13.4102 66.7946 15.1571C66.7946 15.1571 65.9011 16.1347 64.8783 16.6247C63.8607 17.1109 64.1128 11.7318 64.1128 10.1259C64.1128 8.5199 63.9202 7.26435 62.9025 6.77299C61.8823 6.2868 59.9039 7.47382 59.2031 7.96001C59.2031 7.96001 59.5225 8.45137 59.9686 8.66084C60.4134 8.86902 60.8608 9.00996 60.8608 10.2668C60.8608 11.5236 60.9267 14.177 60.8608 16.0674C60.7962 17.9475 61.8177 19.2483 63.2206 19.3168C64.6249 19.3867 66.0291 18.0186 66.7946 17.3915C66.7946 17.6708 67.9402 19.3673 68.9618 19.2987C69.982 19.2276 71.4522 17.182 71.9603 16.2045C70.4914 16.4114 70.2419 15.9239 70.2419 15.0149C70.2419 14.1059 70.0492 12.8477 70.1139 11.7292C70.1746 10.612 70.1669 8.67894 71.4522 8.65825C73.7266 8.61558 72.9172 11.5909 73.1745 14.1757C73.4292 16.7592 74.8322 18.9574 76.2985 19.3065C77.7661 19.6569 79.2195 18.0173 79.7962 17.3902C81.3892 18.7867 84.3244 19.6362 85.9201 19.2871C87.5144 18.938 89.9402 16.7708 89.5561 16.0041C89.1734 15.236 88.598 16.4243 85.9808 17.4704M85.0899 7.27081C86.7502 8.03888 84.5171 10.4142 83.943 10.6948C83.3689 10.9728 81.3272 11.6012 81.3272 11.6012C81.2651 10.903 82.8982 6.25577 85.0899 7.26952M90.1238 3.83131V3.81708C90.257 3.777 90.3526 3.67873 90.3526 3.54942C90.3526 3.44468 90.3048 3.35546 90.244 3.30633C90.1626 3.25202 90.0682 3.21711 89.8613 3.21711C89.6777 3.21711 89.538 3.2378 89.4359 3.25849V4.38602H89.6932V3.93604H89.8121C89.9544 3.93604 90.0203 3.99164 90.0423 4.11448C90.0759 4.24637 90.0953 4.34206 90.1302 4.38602H90.4056C90.3798 4.34853 90.3591 4.28129 90.3268 4.10802C90.2919 3.95673 90.2311 3.86622 90.1238 3.83131ZM89.8212 3.74855H89.6984V3.424C89.7255 3.41753 89.7734 3.40977 89.8393 3.40977C90.0022 3.40977 90.0746 3.4796 90.0746 3.58304C90.0746 3.70071 89.9608 3.74726 89.8199 3.74726M89.8729 2.66368H89.8665C89.2329 2.66368 88.7299 3.16668 88.7299 3.79639C88.7299 4.43904 89.2342 4.93428 89.8677 4.93428C90.5013 4.93428 91.0017 4.43775 91.0005 3.79639C91.0005 3.16668 90.5078 2.66368 89.8742 2.66368M89.8742 4.70023C89.3764 4.70023 89.0117 4.30068 89.0117 3.79639C89.0117 3.29728 89.3764 2.89255 89.8613 2.89255H89.8665C90.3578 2.89255 90.7173 3.29857 90.7173 3.79639C90.7173 4.30068 90.3591 4.7067 89.8742 4.70023Z" fill="#231F20"/>
<path d="M2.04649 26.418H2.53397C2.83008 26.418 3.03826 26.4438 3.1598 26.4956C3.3098 26.5602 3.42488 26.6494 3.50246 26.7632C3.58004 26.877 3.61883 27.0115 3.61883 27.1654C3.61883 27.3334 3.57358 27.4873 3.48177 27.6231C3.39126 27.7602 3.26842 27.8597 3.11584 27.9218C2.96197 27.9839 2.70724 28.0175 2.35035 28.0226L2.18872 29.1954H1.66504L2.0452 26.418H2.04649ZM2.41501 27.5326C2.69818 27.5326 2.8818 27.5015 2.96843 27.4434C3.05507 27.3852 3.09774 27.2998 3.09774 27.1847C3.09774 27.1201 3.08093 27.0658 3.04731 27.0218C3.01369 26.9779 2.96326 26.9468 2.89731 26.9287C2.83137 26.9106 2.70077 26.9029 2.50423 26.9029L2.41371 27.5313L2.41501 27.5326Z" fill="#231F20"/>
<path d="M5.32456 28.595L5.76808 28.8251C5.66851 28.9557 5.53662 29.0592 5.3724 29.1354C5.20819 29.2117 5.02587 29.2492 4.82544 29.2492C4.51253 29.2492 4.26555 29.1613 4.08453 28.9855C3.9035 28.8096 3.81299 28.5756 3.81299 28.2833C3.81299 27.9497 3.92548 27.6678 4.15177 27.4364C4.37805 27.2049 4.65088 27.0898 4.97027 27.0898C5.16293 27.0898 5.33491 27.1325 5.4849 27.2166C5.63489 27.3006 5.75385 27.4235 5.84049 27.5851C5.92712 27.7467 5.97109 27.9213 5.97109 28.1101C5.97109 28.1695 5.96462 28.2381 5.95169 28.3182H4.3134C4.31857 28.4605 4.36512 28.5743 4.45434 28.6596C4.54356 28.7437 4.66511 28.7863 4.82157 28.7863C5.01035 28.7863 5.17715 28.723 5.32327 28.5962L5.32456 28.595ZM5.45257 27.9458C5.41507 27.8204 5.35172 27.7247 5.26379 27.6601C5.17586 27.5954 5.06983 27.5631 4.9444 27.5631C4.81898 27.5631 4.70907 27.5967 4.6108 27.6627C4.51123 27.7299 4.43624 27.8243 4.38452 27.9458H5.45257Z" fill="#231F20"/>
<path d="M6.42331 27.1409H6.872L6.8358 27.4202C6.97027 27.1991 7.1319 27.0879 7.32069 27.0879C7.36595 27.0879 7.41379 27.0995 7.46163 27.1241L7.27673 27.5818C7.23793 27.5676 7.21078 27.5611 7.19268 27.5611C7.09441 27.5611 7.00648 27.618 6.9289 27.7318C6.85131 27.8456 6.79054 28.0758 6.74658 28.4223L6.64701 29.1943H6.14014L6.42073 27.1396L6.42331 27.1409Z" fill="#231F20"/>
<path d="M9.28647 27.1416H9.79076L9.50499 29.1962H9.00588L9.03562 28.9751C8.92571 29.0773 8.82356 29.1484 8.72787 29.1885C8.63219 29.2285 8.52616 29.2492 8.4072 29.2492C8.13566 29.2492 7.91842 29.1497 7.75809 28.9492C7.59775 28.7488 7.51758 28.5161 7.51758 28.251C7.51758 28.048 7.5693 27.8553 7.67145 27.6717C7.77489 27.4881 7.91196 27.3459 8.08523 27.2437C8.25849 27.1416 8.43952 27.0898 8.62831 27.0898C8.75503 27.0898 8.87269 27.1196 8.98002 27.1778C9.08734 27.236 9.17527 27.3213 9.24509 27.4325L9.28517 27.1429L9.28647 27.1416ZM8.52874 28.7993C8.65287 28.7993 8.76149 28.7721 8.8533 28.7165C8.9464 28.6609 9.02269 28.5743 9.08605 28.4566C9.14811 28.3389 9.18044 28.2174 9.18044 28.0945C9.18044 27.9316 9.13389 27.801 9.0395 27.7015C8.9451 27.6019 8.82097 27.5528 8.6658 27.5528C8.48607 27.5528 8.33349 27.6187 8.20807 27.7506C8.08264 27.8825 8.02057 28.0532 8.02057 28.2626C8.02057 28.4243 8.06842 28.5536 8.16281 28.6518C8.2572 28.7501 8.38004 28.7993 8.53003 28.7993H8.52874Z" fill="#231F20"/>
<path d="M10.0609 27.1416H10.547L10.8302 28.242L11.4276 27.1416H11.6267L11.9138 28.242L12.5099 27.1416H13.0452L11.928 29.1963H11.6849L11.4056 28.1101L10.8199 29.1963H10.582L10.0596 27.1416H10.0609Z" fill="#231F20"/>
<path d="M14.9315 27.1416H15.4358L15.15 29.1962H14.6509L14.6806 28.9751C14.5707 29.0773 14.4686 29.1484 14.3729 29.1885C14.2772 29.2285 14.1712 29.2492 14.0522 29.2492C13.7807 29.2492 13.5634 29.1497 13.4031 28.9492C13.2428 28.7488 13.1626 28.5161 13.1626 28.251C13.1626 28.048 13.2143 27.8553 13.3165 27.6717C13.4199 27.4881 13.557 27.3459 13.7302 27.2437C13.9035 27.1416 14.0845 27.0898 14.2733 27.0898C14.4 27.0898 14.5177 27.1196 14.625 27.1778C14.7324 27.236 14.8203 27.3213 14.8901 27.4325L14.9302 27.1429L14.9315 27.1416ZM14.1738 28.7993C14.2979 28.7993 14.4065 28.7721 14.4983 28.7165C14.5914 28.6609 14.6677 28.5743 14.7311 28.4566C14.7931 28.3389 14.8255 28.2174 14.8255 28.0945C14.8255 27.9316 14.7789 27.801 14.6845 27.7015C14.5901 27.6019 14.466 27.5528 14.3108 27.5528C14.1311 27.5528 13.9785 27.6187 13.8531 27.7506C13.7277 27.8825 13.6656 28.0532 13.6656 28.2626C13.6656 28.4243 13.7134 28.5536 13.8078 28.6518C13.9022 28.7501 14.0251 28.7993 14.1751 28.7993H14.1738Z" fill="#231F20"/>
<path d="M16.0759 26.3779H16.5776L16.4742 27.1408H16.7936L16.7328 27.5753H16.4147L16.1949 29.1955H15.6919L15.913 27.5753H15.666L15.7242 27.1408H15.9725L16.0772 26.3779H16.0759Z" fill="#231F20"/>
<path d="M18.6439 27.1416H19.1482L18.8624 29.1962H18.3633L18.393 28.9751C18.2831 29.0773 18.181 29.1484 18.0853 29.1885C17.9896 29.2285 17.8836 29.2492 17.7646 29.2492C17.4931 29.2492 17.2758 29.1497 17.1155 28.9492C16.9552 28.7488 16.875 28.5161 16.875 28.251C16.875 28.048 16.9267 27.8553 17.0289 27.6717C17.1323 27.4881 17.2694 27.3459 17.4426 27.2437C17.6159 27.1416 17.7969 27.0898 17.9857 27.0898C18.1124 27.0898 18.2301 27.1196 18.3374 27.1778C18.4448 27.236 18.5327 27.3213 18.6025 27.4325L18.6426 27.1429L18.6439 27.1416ZM17.8862 28.7993C18.0103 28.7993 18.1189 28.7721 18.2107 28.7165C18.3038 28.6609 18.3801 28.5743 18.4435 28.4566C18.5055 28.3389 18.5379 28.2174 18.5379 28.0945C18.5379 27.9316 18.4913 27.801 18.3969 27.7015C18.3025 27.6019 18.1784 27.5528 18.0232 27.5528C17.8435 27.5528 17.6909 27.6187 17.5655 27.7506C17.4401 27.8825 17.378 28.0532 17.378 28.2626C17.378 28.4243 17.4258 28.5536 17.5202 28.6518C17.6146 28.7501 17.7375 28.7993 17.8875 28.7993H17.8862Z" fill="#231F20"/>
<path d="M19.6875 27.1409H20.1905L20.1621 27.3491C20.3547 27.1745 20.5551 27.0879 20.7633 27.0879C20.9405 27.0879 21.0866 27.1448 21.2004 27.2573C21.3142 27.3698 21.3711 27.512 21.3711 27.684C21.3711 27.7642 21.3607 27.8844 21.3387 28.0447L21.181 29.1956H20.678L20.8319 28.0719C20.8474 27.9555 20.8551 27.8689 20.8551 27.812C20.8551 27.7292 20.8318 27.6646 20.784 27.6206C20.7362 27.5767 20.6689 27.5534 20.5823 27.5534C20.4957 27.5534 20.4129 27.5831 20.3289 27.6413C20.2448 27.6995 20.1789 27.781 20.1336 27.8844C20.0883 27.9879 20.047 28.1831 20.0082 28.4689L19.9112 29.1956H19.4082L19.6888 27.1409H19.6875Z" fill="#231F20"/>
<path d="M25.6317 26.937L25.1972 27.2189C25.0718 27.0753 24.9503 26.9758 24.8326 26.9202C24.7149 26.8646 24.583 26.8361 24.4343 26.8361C24.1137 26.8361 23.8525 26.9654 23.6507 27.2227C23.4904 27.4283 23.4115 27.6559 23.4115 27.9068C23.4115 28.1576 23.4943 28.3606 23.6585 28.5274C23.8227 28.6942 24.0244 28.7783 24.2649 28.7783C24.4434 28.7783 24.6063 28.7356 24.7524 28.649C24.8985 28.5623 25.0188 28.433 25.1119 28.2598H24.2455L24.3102 27.7671H25.7144C25.6938 28.2261 25.5502 28.5908 25.2826 28.861C25.0149 29.1313 24.6748 29.2657 24.2598 29.2657C23.8098 29.2657 23.4542 29.1093 23.1969 28.7977C22.9887 28.5468 22.8853 28.2494 22.8853 27.9029C22.8853 27.4813 23.0378 27.1167 23.3417 26.809C23.6456 26.5012 24.0076 26.3486 24.4279 26.3486C24.5843 26.3486 24.7356 26.3719 24.8843 26.4172C25.033 26.4624 25.1675 26.5258 25.2864 26.6085C25.4054 26.6913 25.5205 26.7999 25.6304 26.9383L25.6317 26.937Z" fill="#231F20"/>
<path d="M27.8465 27.1416H28.3508L28.0651 29.1962H27.5659L27.5957 28.9751C27.4858 29.0773 27.3836 29.1484 27.2879 29.1885C27.1922 29.2285 27.0862 29.2492 26.9673 29.2492C26.6957 29.2492 26.4785 29.1497 26.3181 28.9492C26.1578 28.7488 26.0776 28.5161 26.0776 28.251C26.0776 28.048 26.1294 27.8553 26.2315 27.6717C26.335 27.4881 26.472 27.3459 26.6453 27.2437C26.8186 27.1416 26.9996 27.0898 27.1884 27.0898C27.3151 27.0898 27.4328 27.1196 27.5401 27.1778C27.6474 27.236 27.7353 27.3213 27.8051 27.4325L27.8452 27.1429L27.8465 27.1416ZM27.0888 28.7993C27.2129 28.7993 27.3215 28.7721 27.4134 28.7165C27.5065 28.6609 27.5827 28.5743 27.6461 28.4566C27.7082 28.3389 27.7405 28.2174 27.7405 28.0945C27.7405 27.9316 27.6939 27.801 27.5996 27.7015C27.5052 27.6019 27.381 27.5528 27.2259 27.5528C27.0461 27.5528 26.8935 27.6187 26.7681 27.7506C26.6427 27.8825 26.5806 28.0532 26.5806 28.2626C26.5806 28.4243 26.6285 28.5536 26.7229 28.6518C26.8173 28.7501 26.9401 28.7993 27.0901 28.7993H27.0888Z" fill="#231F20"/>
<path d="M28.991 26.3779H29.4927L29.3892 27.1408H29.7086L29.6478 27.5753H29.3297L29.1099 29.1955H28.6069L28.828 27.5753H28.5811L28.6392 27.1408H28.8875L28.9922 26.3779H28.991Z" fill="#231F20"/>
<path d="M31.558 27.1416H32.0622L31.7765 29.1962H31.2774L31.3071 28.9751C31.1972 29.0773 31.095 29.1484 30.9994 29.1885C30.9037 29.2285 30.7976 29.2492 30.6787 29.2492C30.4071 29.2492 30.1899 29.1497 30.0296 28.9492C29.8692 28.7488 29.7891 28.5161 29.7891 28.251C29.7891 28.048 29.8408 27.8553 29.9429 27.6717C30.0464 27.4881 30.1834 27.3459 30.3567 27.2437C30.53 27.1416 30.711 27.0898 30.8998 27.0898C31.0265 27.0898 31.1442 27.1196 31.2515 27.1778C31.3588 27.236 31.4467 27.3213 31.5166 27.4325L31.5567 27.1429L31.558 27.1416ZM30.8002 28.7993C30.9244 28.7993 31.033 28.7721 31.1248 28.7165C31.2179 28.6609 31.2942 28.5743 31.3575 28.4566C31.4196 28.3389 31.4519 28.2174 31.4519 28.0945C31.4519 27.9316 31.4054 27.801 31.311 27.7015C31.2166 27.6019 31.0925 27.5528 30.9373 27.5528C30.7576 27.5528 30.605 27.6187 30.4796 27.7506C30.3541 27.8825 30.2921 28.0532 30.2921 28.2626C30.2921 28.4243 30.3399 28.5536 30.4343 28.6518C30.5287 28.7501 30.6515 28.7993 30.8015 28.7993H30.8002Z" fill="#231F20"/>
<path d="M32.6504 26.3486H33.1534L32.7642 29.1959H32.2612L32.6504 26.3486Z" fill="#231F20"/>
<path d="M36.2281 26.3486H36.7324L36.338 29.1959H35.8389L35.8686 28.9748C35.7587 29.077 35.6566 29.1481 35.5609 29.1882C35.4652 29.2282 35.3592 29.2489 35.2402 29.2489C34.9687 29.2489 34.7514 29.1494 34.5911 28.949C34.4308 28.7485 34.3506 28.5158 34.3506 28.2507C34.3506 28.0477 34.4023 27.855 34.5045 27.6714C34.6079 27.4878 34.745 27.3456 34.9182 27.2434C35.0915 27.1413 35.2725 27.0895 35.4613 27.0895C35.588 27.0895 35.7057 27.1193 35.813 27.1775C35.9203 27.2357 36.0083 27.321 36.0781 27.4322L36.2255 26.3499L36.2281 26.3486ZM35.3617 28.799C35.4859 28.799 35.5932 28.7718 35.6863 28.7162C35.7794 28.6606 35.8557 28.574 35.9191 28.4563C35.9811 28.3386 36.0134 28.2171 36.0134 28.0942C36.0134 27.9313 35.9669 27.8007 35.8725 27.7012C35.7781 27.6016 35.654 27.5525 35.5001 27.5525C35.3204 27.5525 35.1678 27.6184 35.0424 27.7503C34.9169 27.8822 34.8549 28.0529 34.8549 28.2623C34.8549 28.424 34.9027 28.5533 34.9971 28.6516C35.0915 28.7498 35.2143 28.799 35.363 28.799H35.3617Z" fill="#231F20"/>
<path d="M38.6722 27.1416H39.1765L38.8907 29.1962H38.3916L38.4214 28.9751C38.3114 29.0773 38.2093 29.1484 38.1136 29.1885C38.0179 29.2285 37.9119 29.2492 37.7929 29.2492C37.5214 29.2492 37.3042 29.1497 37.1438 28.9492C36.9835 28.7488 36.9033 28.5161 36.9033 28.251C36.9033 28.048 36.955 27.8553 37.0572 27.6717C37.1606 27.4881 37.2977 27.3459 37.471 27.2437C37.6442 27.1416 37.8253 27.0898 38.014 27.0898C38.1408 27.0898 38.2584 27.1196 38.3658 27.1778C38.4731 27.236 38.561 27.3213 38.6308 27.4325L38.6709 27.1429L38.6722 27.1416ZM37.9145 28.7993C38.0386 28.7993 38.1472 28.7721 38.239 28.7165C38.3321 28.6609 38.4084 28.5743 38.4718 28.4566C38.5339 28.3389 38.5662 28.2174 38.5662 28.0945C38.5662 27.9316 38.5196 27.801 38.4252 27.7015C38.3308 27.6019 38.2067 27.5528 38.0515 27.5528C37.8718 27.5528 37.7192 27.6187 37.5938 27.7506C37.4684 27.8825 37.4063 28.0532 37.4063 28.2626C37.4063 28.4243 37.4542 28.5536 37.5486 28.6518C37.6429 28.7501 37.7658 28.7993 37.9158 28.7993H37.9145Z" fill="#231F20"/>
<path d="M39.7168 27.1409H40.2198L40.1913 27.3491C40.384 27.1745 40.5844 27.0879 40.7926 27.0879C40.9698 27.0879 41.1159 27.1448 41.2297 27.2573C41.3434 27.3698 41.4003 27.512 41.4003 27.684C41.4003 27.7642 41.39 27.8844 41.368 28.0447L41.2103 29.1956H40.7073L40.8611 28.0719C40.8767 27.9555 40.8844 27.8689 40.8844 27.812C40.8844 27.7292 40.8611 27.6646 40.8133 27.6206C40.7655 27.5767 40.6982 27.5534 40.6116 27.5534C40.525 27.5534 40.4422 27.5831 40.3581 27.6413C40.2741 27.6995 40.2082 27.781 40.1629 27.8844C40.1176 27.9879 40.0763 28.1831 40.0375 28.4689L39.9405 29.1956H39.4375L39.7181 27.1409H39.7168Z" fill="#231F20"/>
<path d="M43.27 26.418H43.7937L43.6644 27.3528L44.5501 26.418H45.1966L43.9863 27.6877L44.9432 29.1954H44.36L43.579 27.9645L43.4083 29.1954H42.8911L43.2713 26.418H43.27Z" fill="#231F20"/>
<path d="M46.7743 28.595L47.2178 28.8251C47.1182 28.9557 46.9863 29.0592 46.8221 29.1354C46.6579 29.2117 46.4756 29.2492 46.2752 29.2492C45.9622 29.2492 45.7153 29.1613 45.5342 28.9855C45.3532 28.8096 45.2627 28.5756 45.2627 28.2833C45.2627 27.9497 45.3752 27.6678 45.6015 27.4364C45.8278 27.2049 46.1006 27.0898 46.42 27.0898C46.6126 27.0898 46.7846 27.1325 46.9346 27.2166C47.0846 27.3006 47.2036 27.4235 47.2902 27.5851C47.3768 27.7467 47.4208 27.9213 47.4208 28.1101C47.4208 28.1695 47.4143 28.2381 47.4014 28.3182H45.7631C45.7683 28.4605 45.8148 28.5743 45.904 28.6596C45.9933 28.7437 46.1148 28.7863 46.2713 28.7863C46.4601 28.7863 46.6269 28.723 46.773 28.5962L46.7743 28.595ZM46.9023 27.9458C46.8648 27.8204 46.8014 27.7247 46.7135 27.6601C46.6256 27.5954 46.5195 27.5631 46.3941 27.5631C46.2687 27.5631 46.1588 27.5967 46.0605 27.6627C45.9609 27.7299 45.8859 27.8243 45.8342 27.9458H46.9023Z" fill="#231F20"/>
<path d="M49.116 27.4286L48.8755 27.814C48.8134 27.7221 48.7488 27.6549 48.6802 27.6109C48.6117 27.567 48.5483 27.5463 48.4889 27.5463C48.4436 27.5463 48.4048 27.5592 48.3738 27.5838C48.3427 27.6084 48.3259 27.6368 48.3259 27.6691C48.3259 27.7015 48.3389 27.7299 48.3634 27.7596C48.388 27.7894 48.4604 27.8489 48.5807 27.9355C48.7733 28.0739 48.9013 28.1928 48.9621 28.2911C49.0229 28.3894 49.0539 28.4967 49.0539 28.6131C49.0539 28.7656 48.9919 28.9092 48.8664 29.0449C48.741 29.1807 48.56 29.2492 48.3221 29.2492C48.185 29.2492 48.0596 29.2221 47.9471 29.1665C47.8346 29.1109 47.7092 29.01 47.5708 28.8626L47.8824 28.5006C48.0234 28.6868 48.1772 28.7799 48.3453 28.7799C48.4126 28.7799 48.4656 28.7643 48.5044 28.732C48.5432 28.6997 48.5639 28.6622 48.5639 28.6182C48.5639 28.5833 48.5483 28.5471 48.5186 28.5096C48.4889 28.4721 48.4061 28.4062 48.2716 28.3105C48.1152 28.1993 48.0079 28.1049 47.9484 28.026C47.8656 27.9148 47.8242 27.7984 47.8242 27.6743C47.8242 27.5023 47.8889 27.3614 48.0195 27.2528C48.1501 27.1442 48.304 27.0898 48.4811 27.0898C48.6052 27.0898 48.7242 27.1196 48.8367 27.1791C48.9492 27.2385 49.0423 27.3226 49.116 27.4299V27.4286Z" fill="#231F20"/>
<path d="M50.951 28.595L51.3945 28.8251C51.295 28.9557 51.1631 29.0592 50.9989 29.1354C50.8347 29.2117 50.6523 29.2492 50.4519 29.2492C50.139 29.2492 49.892 29.1613 49.711 28.9855C49.53 28.8096 49.4395 28.5756 49.4395 28.2833C49.4395 27.9497 49.5519 27.6678 49.7782 27.4364C50.0045 27.2049 50.2773 27.0898 50.5967 27.0898C50.7894 27.0898 50.9614 27.1325 51.1114 27.2166C51.2614 27.3006 51.3803 27.4235 51.467 27.5851C51.5536 27.7467 51.5975 27.9213 51.5975 28.1101C51.5975 28.1695 51.5911 28.2381 51.5782 28.3182H49.9399C49.945 28.4605 49.9916 28.5743 50.0808 28.6596C50.17 28.7437 50.2916 28.7863 50.448 28.7863C50.6368 28.7863 50.8036 28.723 50.9497 28.5962L50.951 28.595ZM51.079 27.9458C51.0415 27.8204 50.9782 27.7247 50.8903 27.6601C50.8023 27.5954 50.6963 27.5631 50.5709 27.5631C50.4454 27.5631 50.3355 27.5967 50.2373 27.6627C50.1377 27.7299 50.0627 27.8243 50.011 27.9458H51.079Z" fill="#231F20"/>
<path d="M52.2761 26.3486H52.7778L52.642 27.3495C52.8347 27.1749 53.0351 27.0883 53.2433 27.0883C53.4217 27.0883 53.5666 27.1452 53.6803 27.2576C53.7941 27.3701 53.851 27.5124 53.851 27.6844C53.851 27.7645 53.8407 27.8848 53.8187 28.0451L53.661 29.1959H53.158L53.3118 28.0723C53.3273 27.9559 53.3351 27.8693 53.3351 27.8124C53.3351 27.7296 53.3118 27.665 53.264 27.621C53.2161 27.577 53.1502 27.5538 53.0623 27.5538C52.9743 27.5538 52.8929 27.5835 52.8088 27.6417C52.7248 27.6999 52.6588 27.7813 52.6136 27.8848C52.5683 27.9882 52.5269 28.1835 52.4895 28.4692L52.3912 29.1959H51.8882L52.2774 26.3486H52.2761Z" fill="#231F20"/>
<path d="M55.9974 27.1416H56.5017L56.2159 29.1962H55.7168L55.7466 28.9751C55.6366 29.0773 55.5345 29.1484 55.4388 29.1885C55.3431 29.2285 55.2371 29.2492 55.1181 29.2492C54.8453 29.2492 54.6294 29.1497 54.469 28.9492C54.3087 28.7488 54.2285 28.5161 54.2285 28.251C54.2285 28.048 54.2802 27.8553 54.3824 27.6717C54.4845 27.4881 54.6229 27.3459 54.7962 27.2437C54.9694 27.1416 55.1505 27.0898 55.3405 27.0898C55.4673 27.0898 55.5849 27.1196 55.6922 27.1778C55.7996 27.236 55.8875 27.3213 55.9573 27.4325L55.9961 27.1429L55.9974 27.1416ZM55.241 28.7993C55.3651 28.7993 55.4737 28.7721 55.5655 28.7165C55.6573 28.6609 55.7349 28.5743 55.7983 28.4566C55.8603 28.3389 55.8927 28.2174 55.8927 28.0945C55.8927 27.9316 55.8448 27.801 55.7517 27.7015C55.6573 27.6019 55.5332 27.5528 55.378 27.5528C55.1983 27.5528 55.0457 27.6187 54.9203 27.7506C54.7949 27.8825 54.7328 28.0532 54.7328 28.2626C54.7328 28.4243 54.7806 28.5536 54.875 28.6518C54.9694 28.7501 55.0923 28.7993 55.2423 28.7993H55.241Z" fill="#231F20"/>
<path d="M57.1418 26.3779H57.6435L57.5401 27.1408H57.8595L57.7987 27.5753H57.4806L57.2608 29.1955H56.7578L56.9789 27.5753H56.7319L56.7901 27.1408H57.0384L57.1431 26.3779H57.1418Z" fill="#231F20"/>
<path d="M59.7088 27.1416H60.2131L59.9274 29.1962H59.4282L59.458 28.9751C59.3481 29.0773 59.2459 29.1484 59.1502 29.1885C59.0545 29.2285 58.9485 29.2492 58.8296 29.2492C58.5567 29.2492 58.3408 29.1497 58.1804 28.9492C58.0201 28.7488 57.9399 28.5161 57.9399 28.251C57.9399 28.048 57.9917 27.8553 58.0938 27.6717C58.196 27.4881 58.3343 27.3459 58.5076 27.2437C58.6809 27.1416 58.8619 27.0898 59.052 27.0898C59.1787 27.0898 59.2964 27.1196 59.4037 27.1778C59.511 27.236 59.5989 27.3213 59.6687 27.4325L59.7075 27.1429L59.7088 27.1416ZM58.9524 28.7993C59.0765 28.7993 59.1851 28.7721 59.277 28.7165C59.3688 28.6609 59.4463 28.5743 59.5097 28.4566C59.5718 28.3389 59.6041 28.2174 59.6041 28.0945C59.6041 27.9316 59.5563 27.801 59.4632 27.7015C59.3688 27.6019 59.2446 27.5528 59.0895 27.5528C58.9097 27.5528 58.7571 27.6187 58.6317 27.7506C58.5063 27.8825 58.4442 28.0532 58.4442 28.2626C58.4442 28.4243 58.4921 28.5536 58.5865 28.6518C58.6809 28.7501 58.8037 28.7993 58.9537 28.7993H58.9524Z" fill="#231F20"/>
<path d="M60.7534 27.1409H61.2564L61.228 27.3491C61.4206 27.1745 61.6211 27.0879 61.8292 27.0879C62.0064 27.0879 62.1525 27.1448 62.2663 27.2573C62.3801 27.3698 62.437 27.512 62.437 27.684C62.437 27.7642 62.4266 27.8844 62.4046 28.0447L62.2469 29.1956H61.7439L61.8978 28.0719C61.9133 27.9555 61.921 27.8689 61.921 27.812C61.921 27.7292 61.8978 27.6646 61.8499 27.6206C61.8021 27.5767 61.7348 27.5534 61.6482 27.5534C61.5616 27.5534 61.4788 27.5831 61.3948 27.6413C61.3107 27.6995 61.2448 27.781 61.1995 27.8844C61.1543 27.9879 61.1129 28.1831 61.0741 28.4689L60.9771 29.1956H60.4741L60.7547 27.1409H60.7534Z" fill="#231F20"/>
<path d="M64.3066 26.418H64.8303L64.701 27.3528L65.5867 26.418H66.2332L65.0229 27.6877L65.9798 29.1954H65.3966L64.6156 27.9645L64.445 29.1954H63.9277L64.3079 26.418H64.3066Z" fill="#231F20"/>
<path d="M66.5591 27.1416H67.0582L66.9147 28.1916C66.8991 28.3079 66.8914 28.3946 66.8914 28.4528C66.8914 28.5433 66.9224 28.6196 66.9858 28.6816C67.0491 28.7437 67.1306 28.7747 67.2315 28.7747C67.3608 28.7747 67.4616 28.7346 67.5314 28.6558C67.6013 28.5769 67.653 28.4153 67.6853 28.1722L67.8262 27.1429H68.3254L68.178 28.2472C68.1443 28.4967 68.0862 28.6894 68.0073 28.8252C67.9271 28.9622 67.8211 29.067 67.6879 29.1394C67.5547 29.2118 67.3995 29.2493 67.2198 29.2493C66.9677 29.2493 66.7672 29.1769 66.6173 29.0307C66.4686 28.8859 66.3936 28.6971 66.3936 28.467C66.3936 28.326 66.4104 28.145 66.4427 27.9239L66.5578 27.1429L66.5591 27.1416Z" fill="#231F20"/>
<path d="M68.9214 26.3486H69.4244L69.0352 29.1959H68.5322L68.9214 26.3486Z" fill="#231F20"/>
<path d="M69.7322 27.1413H70.2314L69.9547 29.1959H69.4517L69.7322 27.1413ZM70.0788 26.3008C70.1641 26.3008 70.2378 26.3318 70.2986 26.3926C70.3594 26.4534 70.3904 26.5271 70.3904 26.6124C70.3904 26.6977 70.3594 26.7715 70.2986 26.8322C70.2378 26.893 70.1641 26.924 70.0788 26.924C69.9934 26.924 69.9197 26.893 69.859 26.8322C69.7982 26.7715 69.7672 26.6977 69.7672 26.6124C69.7672 26.5271 69.7982 26.4534 69.859 26.3926C69.9197 26.3318 69.9934 26.3008 70.0788 26.3008Z" fill="#231F20"/>
<path d="M70.8288 26.3779H71.3305L71.2271 27.1408H71.5465L71.4857 27.5753H71.1676L70.9478 29.1955H70.4448L70.6659 27.5753H70.4189L70.4771 27.1408H70.7254L70.8301 26.3779H70.8288Z" fill="#231F20"/>
<path d="M73.1215 26.418H73.6452L73.5159 27.3528L74.4017 26.418H75.0482L73.8379 27.6877L74.7947 29.1954H74.2116L73.4306 27.9645L73.2599 29.1954H72.7427L73.1228 26.418H73.1215Z" fill="#231F20"/>
<path d="M76.6258 28.595L77.0693 28.8251C76.9698 28.9557 76.8379 29.0592 76.6737 29.1354C76.5095 29.2117 76.3271 29.2492 76.1267 29.2492C75.8138 29.2492 75.5668 29.1613 75.3858 28.9855C75.2048 28.8096 75.1143 28.5756 75.1143 28.2833C75.1143 27.9497 75.2268 27.6678 75.453 27.4364C75.6793 27.2049 75.9522 27.0898 76.2715 27.0898C76.4642 27.0898 76.6362 27.1325 76.7862 27.2166C76.9362 27.3006 77.0551 27.4235 77.1418 27.5851C77.2284 27.7467 77.2724 27.9213 77.2724 28.1101C77.2724 28.1695 77.2659 28.2381 77.253 28.3182H75.6147C75.6198 28.4605 75.6664 28.5743 75.7556 28.6596C75.8448 28.7437 75.9664 28.7863 76.1228 28.7863C76.3116 28.7863 76.4784 28.723 76.6245 28.5962L76.6258 28.595ZM76.7538 27.9458C76.7163 27.8204 76.653 27.7247 76.5651 27.6601C76.4771 27.5954 76.3711 27.5631 76.2457 27.5631C76.1202 27.5631 76.0103 27.5967 75.9121 27.6627C75.8125 27.7299 75.7375 27.8243 75.6858 27.9458H76.7538Z" fill="#231F20"/>
<path d="M77.8902 26.3486H78.3932L78.004 29.1959H77.501L77.8902 26.3486Z" fill="#231F20"/>
<path d="M78.7749 27.1416H79.274L79.1305 28.1916C79.115 28.3079 79.1072 28.3946 79.1072 28.4528C79.1072 28.5433 79.1382 28.6196 79.2016 28.6816C79.265 28.7437 79.3464 28.7747 79.4473 28.7747C79.5766 28.7747 79.6774 28.7346 79.7473 28.6558C79.8171 28.5769 79.8688 28.4153 79.9011 28.1722L80.0421 27.1429H80.5412L80.3938 28.2472C80.3602 28.4967 80.302 28.6894 80.2231 28.8252C80.1429 28.9622 80.0369 29.067 79.9037 29.1394C79.7705 29.2118 79.6154 29.2493 79.4356 29.2493C79.1835 29.2493 78.9831 29.1769 78.8331 29.0307C78.6844 28.8859 78.6094 28.6971 78.6094 28.467C78.6094 28.326 78.6262 28.145 78.6585 27.9239L78.7736 27.1429L78.7749 27.1416Z" fill="#231F20"/>
<path d="M82.598 27.1416H83.1023L82.8165 29.1962H82.3174L82.3471 28.9751C82.2372 29.0773 82.1351 29.1484 82.0394 29.1885C81.9437 29.2285 81.8377 29.2492 81.7187 29.2492C81.4459 29.2492 81.2299 29.1497 81.0696 28.9492C80.9093 28.7488 80.8291 28.5161 80.8291 28.251C80.8291 28.048 80.8808 27.8553 80.983 27.6717C81.0851 27.4881 81.2235 27.3459 81.3968 27.2437C81.57 27.1416 81.751 27.0898 81.9411 27.0898C82.0678 27.0898 82.1855 27.1196 82.2928 27.1778C82.4002 27.236 82.4881 27.3213 82.5579 27.4325L82.5967 27.1429L82.598 27.1416ZM81.8416 28.7993C81.9657 28.7993 82.0743 28.7721 82.1661 28.7165C82.2579 28.6609 82.3355 28.5743 82.3989 28.4566C82.4609 28.3389 82.4933 28.2174 82.4933 28.0945C82.4933 27.9316 82.4454 27.801 82.3523 27.7015C82.2579 27.6019 82.1338 27.5528 81.9786 27.5528C81.7989 27.5528 81.6463 27.6187 81.5209 27.7506C81.3955 27.8825 81.3334 28.0532 81.3334 28.2626C81.3334 28.4243 81.3812 28.5536 81.4756 28.6518C81.57 28.7501 81.6929 28.7993 81.8429 28.7993H81.8416Z" fill="#231F20"/>
<path d="M83.5254 27.1409H83.974L83.9378 27.4202C84.0723 27.1991 84.234 27.0879 84.4227 27.0879C84.468 27.0879 84.5145 27.0995 84.5637 27.1241L84.3788 27.5818C84.34 27.5676 84.3128 27.5611 84.2947 27.5611C84.1964 27.5611 84.1085 27.618 84.0309 27.7318C83.9534 27.8456 83.8926 28.0758 83.8486 28.4223L83.7491 29.1943H83.2422L83.5228 27.1396L83.5254 27.1409Z" fill="#231F20"/>
<path d="M86.4126 27.1415H86.9182L86.6828 28.7902C86.6376 29.1134 86.5923 29.3281 86.5445 29.4328C86.4708 29.5957 86.3454 29.7315 86.1708 29.8375C85.9962 29.9449 85.7764 29.9979 85.5113 29.9979C85.2915 29.9979 85.1001 29.9565 84.9372 29.8725C84.7743 29.7884 84.6528 29.6811 84.5713 29.5492L85.0122 29.3229C85.1441 29.46 85.3161 29.5285 85.5281 29.5285C85.651 29.5285 85.7583 29.5065 85.8475 29.4626C85.938 29.4186 86.0079 29.3591 86.057 29.2841C86.1061 29.2091 86.1423 29.0979 86.163 28.9505C85.9768 29.1134 85.7648 29.1936 85.5294 29.1936C85.3652 29.1936 85.2126 29.1535 85.073 29.0721C84.9333 28.9906 84.8234 28.8768 84.7446 28.7294C84.6644 28.582 84.6256 28.4191 84.6256 28.238C84.6256 28.035 84.6773 27.845 84.7821 27.6665C84.8868 27.4881 85.0277 27.3471 85.2075 27.2424C85.3872 27.1377 85.5747 27.0859 85.7699 27.0859C85.8889 27.0859 85.9962 27.1092 86.0919 27.1558C86.1876 27.2023 86.2833 27.2799 86.3764 27.3885L86.41 27.139L86.4126 27.1415ZM85.7932 27.5644C85.6057 27.5644 85.4467 27.629 85.3174 27.757C85.1881 27.885 85.1234 28.0428 85.1234 28.2316C85.1234 28.3842 85.1713 28.5057 85.2669 28.5975C85.3626 28.6893 85.4919 28.7359 85.6523 28.7359C85.7725 28.7359 85.8837 28.7074 85.9872 28.6518C86.0893 28.5962 86.1708 28.5148 86.2303 28.41C86.2898 28.3053 86.3195 28.1915 86.3195 28.0712C86.3195 27.9264 86.2704 27.8062 86.1721 27.7105C86.0738 27.6148 85.9471 27.567 85.7932 27.567V27.5644Z" fill="#231F20"/>
<path d="M88.9408 27.1416H89.4451L89.1593 29.1962H88.6602L88.6899 28.9751C88.58 29.0773 88.4779 29.1484 88.3822 29.1885C88.2865 29.2285 88.1805 29.2492 88.0615 29.2492C87.7887 29.2492 87.5727 29.1497 87.4124 28.9492C87.252 28.7488 87.1719 28.5161 87.1719 28.251C87.1719 28.048 87.2236 27.8553 87.3257 27.6717C87.4279 27.4881 87.5663 27.3459 87.7395 27.2437C87.9128 27.1416 88.0938 27.0898 88.2839 27.0898C88.4106 27.0898 88.5283 27.1196 88.6356 27.1778C88.7429 27.236 88.8309 27.3213 88.9007 27.4325L88.9395 27.1429L88.9408 27.1416ZM88.1843 28.7993C88.3085 28.7993 88.4171 28.7721 88.5089 28.7165C88.6007 28.6609 88.6783 28.5743 88.7416 28.4566C88.8037 28.3389 88.836 28.2174 88.836 28.0945C88.836 27.9316 88.7882 27.801 88.6951 27.7015C88.6007 27.6019 88.4766 27.5528 88.3214 27.5528C88.1417 27.5528 87.9891 27.6187 87.8637 27.7506C87.7382 27.8825 87.6762 28.0532 87.6762 28.2626C87.6762 28.4243 87.724 28.5536 87.8184 28.6518C87.9128 28.7501 88.0356 28.7993 88.1856 28.7993H88.1843Z" fill="#231F20"/>
</g>
<path d="M33.5269 48.2227H34.9917C34.9448 48.7812 34.7886 49.2793 34.5229 49.7168C34.2573 50.1504 33.8843 50.4922 33.4038 50.7422C32.9233 50.9922 32.3394 51.1172 31.6519 51.1172C31.1245 51.1172 30.6499 51.0234 30.228 50.8359C29.8062 50.6445 29.4448 50.375 29.144 50.0273C28.8433 49.6758 28.6128 49.252 28.4526 48.7559C28.2964 48.2598 28.2183 47.7051 28.2183 47.0918V46.3828C28.2183 45.7695 28.2983 45.2148 28.4585 44.7188C28.6226 44.2227 28.8569 43.7988 29.1616 43.4473C29.4663 43.0918 29.8315 42.8203 30.2573 42.6328C30.687 42.4453 31.1694 42.3516 31.7046 42.3516C32.3843 42.3516 32.9585 42.4766 33.4272 42.7266C33.896 42.9766 34.2593 43.3223 34.5171 43.7637C34.7788 44.2051 34.939 44.7109 34.9976 45.2812H33.5327C33.4937 44.9141 33.4077 44.5996 33.2749 44.3379C33.146 44.0762 32.9546 43.877 32.7007 43.7402C32.4468 43.5996 32.1147 43.5293 31.7046 43.5293C31.3687 43.5293 31.0757 43.5918 30.8257 43.7168C30.5757 43.8418 30.3667 44.0254 30.1987 44.2676C30.0308 44.5098 29.9038 44.8086 29.8179 45.1641C29.7358 45.5156 29.6948 45.918 29.6948 46.3711V47.0918C29.6948 47.5215 29.7319 47.9121 29.8062 48.2637C29.8843 48.6113 30.0015 48.9102 30.1577 49.1602C30.3179 49.4102 30.521 49.6035 30.7671 49.7402C31.0132 49.877 31.3081 49.9453 31.6519 49.9453C32.0698 49.9453 32.4077 49.8789 32.6655 49.7461C32.9272 49.6133 33.1245 49.4199 33.2573 49.166C33.394 48.9082 33.4839 48.5938 33.5269 48.2227ZM37.605 45.8672V51H36.1929V44.6602H37.5405L37.605 45.8672ZM39.5444 44.6191L39.5327 45.9316C39.4468 45.916 39.353 45.9043 39.2515 45.8965C39.1538 45.8887 39.0562 45.8848 38.9585 45.8848C38.7163 45.8848 38.5034 45.9199 38.3198 45.9902C38.1362 46.0566 37.9819 46.1543 37.8569 46.2832C37.7358 46.4082 37.6421 46.5605 37.5757 46.7402C37.5093 46.9199 37.4702 47.1211 37.4585 47.3438L37.1362 47.3672C37.1362 46.9688 37.1753 46.5996 37.2534 46.2598C37.3315 45.9199 37.4487 45.6211 37.605 45.3633C37.7651 45.1055 37.9644 44.9043 38.2026 44.7598C38.4448 44.6152 38.7241 44.543 39.0405 44.543C39.1265 44.543 39.2183 44.5508 39.3159 44.5664C39.4175 44.582 39.4937 44.5996 39.5444 44.6191ZM43.1069 51.1172C42.6382 51.1172 42.2144 51.041 41.8354 50.8887C41.4604 50.7324 41.1401 50.5156 40.8745 50.2383C40.6128 49.9609 40.4116 49.6348 40.271 49.2598C40.1304 48.8848 40.0601 48.4805 40.0601 48.0469V47.8125C40.0601 47.3164 40.1323 46.8672 40.2769 46.4648C40.4214 46.0625 40.6226 45.7188 40.8804 45.4336C41.1382 45.1445 41.4429 44.9238 41.7944 44.7715C42.146 44.6191 42.5269 44.543 42.937 44.543C43.3901 44.543 43.7866 44.6191 44.1265 44.7715C44.4663 44.9238 44.7476 45.1387 44.9702 45.416C45.1968 45.6895 45.3647 46.0156 45.4741 46.3945C45.5874 46.7734 45.644 47.1914 45.644 47.6484V48.252H40.7456V47.2383H44.2495V47.127C44.2417 46.873 44.1909 46.6348 44.0972 46.4121C44.0073 46.1895 43.8687 46.0098 43.6812 45.873C43.4937 45.7363 43.2437 45.668 42.9312 45.668C42.6968 45.668 42.4878 45.7188 42.3042 45.8203C42.1245 45.918 41.9741 46.0605 41.853 46.248C41.7319 46.4355 41.6382 46.6621 41.5718 46.9277C41.5093 47.1895 41.478 47.4844 41.478 47.8125V48.0469C41.478 48.3242 41.5151 48.582 41.5894 48.8203C41.6675 49.0547 41.7808 49.2598 41.9292 49.4355C42.0776 49.6113 42.2573 49.75 42.4683 49.8516C42.6792 49.9492 42.9194 49.998 43.189 49.998C43.5288 49.998 43.8315 49.9297 44.0972 49.793C44.3628 49.6562 44.5933 49.4629 44.7886 49.2129L45.5327 49.9336C45.396 50.1328 45.2183 50.3242 44.9995 50.5078C44.7808 50.6875 44.5132 50.834 44.1968 50.9473C43.8843 51.0605 43.521 51.1172 43.1069 51.1172ZM50.3198 49.7285V46.7051C50.3198 46.4785 50.2788 46.2832 50.1968 46.1191C50.1147 45.9551 49.9897 45.8281 49.8218 45.7383C49.6577 45.6484 49.4507 45.6035 49.2007 45.6035C48.9702 45.6035 48.771 45.6426 48.603 45.7207C48.4351 45.7988 48.3042 45.9043 48.2104 46.0371C48.1167 46.1699 48.0698 46.3203 48.0698 46.4883H46.6636C46.6636 46.2383 46.7241 45.9961 46.8452 45.7617C46.9663 45.5273 47.1421 45.3184 47.3726 45.1348C47.603 44.9512 47.8784 44.8066 48.1987 44.7012C48.519 44.5957 48.8784 44.543 49.2769 44.543C49.7534 44.543 50.1753 44.623 50.5425 44.7832C50.9136 44.9434 51.2046 45.1855 51.4155 45.5098C51.6304 45.8301 51.7378 46.2324 51.7378 46.7168V49.5352C51.7378 49.8242 51.7573 50.084 51.7964 50.3145C51.8394 50.541 51.8999 50.7383 51.978 50.9062V51H50.5308C50.4644 50.8477 50.4116 50.6543 50.3726 50.4199C50.3374 50.1816 50.3198 49.9512 50.3198 49.7285ZM50.5249 47.1445L50.5366 48.0176H49.5229C49.2612 48.0176 49.0308 48.043 48.8315 48.0938C48.6323 48.1406 48.4663 48.2109 48.3335 48.3047C48.2007 48.3984 48.1011 48.5117 48.0347 48.6445C47.9683 48.7773 47.9351 48.9277 47.9351 49.0957C47.9351 49.2637 47.9741 49.418 48.0522 49.5586C48.1304 49.6953 48.2437 49.8027 48.3921 49.8809C48.5444 49.959 48.728 49.998 48.9429 49.998C49.2319 49.998 49.4839 49.9395 49.6987 49.8223C49.9175 49.7012 50.0894 49.5547 50.2144 49.3828C50.3394 49.207 50.4058 49.041 50.4136 48.8848L50.8706 49.5117C50.8237 49.6719 50.7437 49.8438 50.6304 50.0273C50.5171 50.2109 50.3687 50.3867 50.1851 50.5547C50.0054 50.7188 49.7886 50.8535 49.5347 50.959C49.2847 51.0645 48.9956 51.1172 48.6675 51.1172C48.2534 51.1172 47.8843 51.0352 47.5601 50.8711C47.2358 50.7031 46.9819 50.4785 46.7983 50.1973C46.6147 49.9121 46.5229 49.5898 46.5229 49.2305C46.5229 48.8945 46.5854 48.5977 46.7104 48.3398C46.8394 48.0781 47.0269 47.8594 47.2729 47.6836C47.5229 47.5078 47.8276 47.375 48.187 47.2852C48.5464 47.1914 48.9565 47.1445 49.4175 47.1445H50.5249ZM54.6265 45.9492V51H53.2144V44.6602H54.5444L54.6265 45.9492ZM54.3979 47.5957L53.9175 47.5898C53.9175 47.1523 53.9722 46.748 54.0815 46.377C54.1909 46.0059 54.3511 45.6836 54.562 45.4102C54.7729 45.1328 55.0347 44.9199 55.3472 44.7715C55.6636 44.6191 56.0288 44.543 56.4429 44.543C56.7319 44.543 56.9956 44.5859 57.2339 44.6719C57.4761 44.7539 57.6851 44.8848 57.8608 45.0645C58.0405 45.2441 58.1772 45.4746 58.271 45.7559C58.3687 46.0371 58.4175 46.377 58.4175 46.7754V51H57.0054V46.8984C57.0054 46.5898 56.9585 46.3477 56.8647 46.1719C56.7749 45.9961 56.644 45.8711 56.4722 45.7969C56.3042 45.7188 56.103 45.6797 55.8687 45.6797C55.603 45.6797 55.3765 45.7305 55.189 45.832C55.0054 45.9336 54.855 46.0723 54.7378 46.248C54.6206 46.4238 54.5347 46.627 54.48 46.8574C54.4253 47.0879 54.3979 47.334 54.3979 47.5957ZM58.3296 47.2207L57.6675 47.3672C57.6675 46.9844 57.7202 46.623 57.8257 46.2832C57.9351 45.9395 58.0933 45.6387 58.3003 45.3809C58.5112 45.1191 58.771 44.9141 59.0796 44.7656C59.3882 44.6172 59.7417 44.543 60.1401 44.543C60.4644 44.543 60.7534 44.5879 61.0073 44.6777C61.2651 44.7637 61.4839 44.9004 61.6636 45.0879C61.8433 45.2754 61.98 45.5195 62.0737 45.8203C62.1675 46.1172 62.2144 46.4766 62.2144 46.8984V51H60.7964V46.8926C60.7964 46.5723 60.7495 46.3242 60.6558 46.1484C60.5659 45.9727 60.437 45.8516 60.269 45.7852C60.1011 45.7148 59.8999 45.6797 59.6655 45.6797C59.4468 45.6797 59.2534 45.7207 59.0854 45.8027C58.9214 45.8809 58.7827 45.9922 58.6694 46.1367C58.5562 46.2773 58.4702 46.4395 58.4116 46.623C58.3569 46.8066 58.3296 47.0059 58.3296 47.2207Z" fill="#636466"/>
<defs>
<clipPath id="clip0_1857_16881">
<rect width="90.759" height="30" fill="white" transform="translate(0.241211)"/>
</clipPath>
</defs>
</svg>
