<svg width="92" height="55" viewBox="0 0 92 55" fill="none" xmlns="http://www.w3.org/2000/svg">
<g clip-path="url(#clip0_1857_16875)">
<path d="M58.605 1.88656C58.605 1.88656 58.2623 0.837901 58.3295 0.347836C58.3295 0.347836 56.474 0.421539 54.6883 1.88656C52.9039 3.35417 52.7371 5.72821 52.9918 7.47511C50.076 8.25482 48.1817 11.8766 48.9472 15.6459C48.9472 15.6459 48.3744 16.2769 47.4822 15.9278C46.59 15.5786 46.8576 12.3667 46.7891 10.0599C46.74 8.23284 45.3241 5.44891 43.0289 5.44891C40.7338 5.44891 36.7861 6.36827 36.7744 7.95354C36.768 8.99832 39.0735 8.31301 40.3484 8.10224C41.6221 7.89406 43.038 8.80307 43.1673 9.78062C40.6794 10.5474 36.9568 13.065 36.7007 16.2097C34.8517 17.0475 34.6629 15.5812 34.5982 14.6037C34.5401 13.6248 34.6836 7.26823 34.5517 5.10108C34.4276 2.93781 33.3142 1.67967 32.2242 1.74821C31.1406 1.81932 28.9127 2.72316 28.5274 3.98389C28.1485 5.24331 29.6123 4.96272 30.1889 4.82307C30.7631 4.68472 31.2092 5.38038 31.2092 6.21956C31.2092 7.05875 31.2195 13.9041 31.1561 14.8119C31.0902 15.7196 30.3933 16.348 29.7584 16.348C29.1235 16.348 29.0562 15.0226 29.0562 14.1834C29.0562 13.3443 28.9864 9.58795 28.9593 8.52507C28.936 7.48287 27.5822 5.83553 25.5508 5.68166C24.5707 5.60925 20.2855 6.18336 19.7088 7.36908C18.7235 9.41081 21.66 8.32853 22.3647 8.19017C23.0643 8.04664 25.1939 8.0363 25.4486 9.1509C25.706 10.272 23.2013 10.2487 20.879 12.3667C18.4558 14.5804 13.6599 16.6777 11.3492 16.4178C7.73259 16.0131 5.48398 13.4852 5.41674 10.3405C5.34304 6.7161 7.77009 4.66274 9.14719 4.055C11.1941 3.14858 13.7763 3.00893 14.8599 3.70588C15.9447 4.40542 15.8167 5.52003 14.9232 5.87174C14.031 6.22086 11.6053 5.94156 10.9019 5.87174C10.2023 5.8032 9.37347 6.22086 9.56355 7.05746C9.75363 7.89794 10.8372 8.9479 13.4517 8.6673C16.0702 8.38801 18.558 6.99151 18.7519 4.47783C18.9433 1.95639 15.0732 -0.0038734 10.8424 5.74728e-06C6.43696 0.00388489 2.16473 3.424 1.08245 6.42516C-0.00500548 9.42891 1.01521 12.7391 2.22809 14.9114C4.68876 19.322 10.6109 19.6569 12.6617 19.5095C15.2762 19.3233 17.8197 17.535 19.0933 16.2756C18.9679 17.6023 19.8666 19.1009 21.6484 19.3673C22.9427 19.5612 24.7763 18.6496 25.2857 18.0199C25.2857 18.0199 26.3124 19.3453 27.9753 19.3453C29.6381 19.3453 30.8161 18.232 31.3928 17.8117C31.3928 17.8117 32.2733 19.3453 33.8444 19.3453C35.056 19.3453 36.062 18.51 37.2063 17.535C38.074 18.594 39.1653 19.26 40.2191 19.3168C41.7255 19.3944 43.1556 18.4699 43.7194 17.8117C43.7194 17.8117 45.3745 19.2289 46.6533 19.2974C47.9296 19.3686 49.2679 18.4376 49.9687 17.8117C50.8001 18.6496 53.2233 19.975 56.2839 19.1384C59.3485 18.2992 60.52 15.7157 60.52 13.7606C60.52 11.8055 57.2033 6.84669 56.1158 5.3765C55.7991 4.04983 57.7115 2.02492 58.6063 1.88527M24.6573 16.4838C23.6991 17.2544 21.8397 16.904 21.6484 16.2756C21.4557 15.6446 21.9018 14.6011 22.9233 13.6895C23.9461 12.7792 25.5676 12.3654 25.5676 12.3654C25.6297 13.0624 25.6154 15.7157 24.6573 16.4838ZM42.4794 16.4838C41.5251 17.2544 39.698 16.904 39.5054 16.2756C39.314 15.6446 39.7588 14.6011 40.7803 13.6895C41.8044 12.7792 43.2229 12.3654 43.2229 12.3654C43.2888 13.0624 43.4401 15.7157 42.4781 16.4838M55.5172 16.9713C53.9215 17.3941 52.0738 15.6446 51.5617 13.4115C51.0484 11.1758 53.0281 9.42891 53.8595 9.36167C53.8595 9.36167 55.3879 12.0874 56.4081 13.4813C57.4322 14.8804 57.1128 16.5549 55.5172 16.9713ZM61.7484 4.12224C61.6191 4.75066 61.3036 5.79803 61.3036 5.79803C62.1945 5.44762 64.2375 5.30797 64.2375 3.56106C64.2375 1.81415 63.5923 1.61632 62.3884 1.81544C61.1096 2.02492 59.9614 3.21452 59.9614 3.21452C60.7282 3.1447 61.8764 3.48994 61.7484 4.12224ZM86.3602 17.473C83.7483 18.5203 82.0247 14.8196 81.8979 13.4231C82.7914 13.5615 85.534 12.3745 86.5555 11.6051C87.5718 10.8383 90.1269 7.90311 87.9572 5.94803C85.7913 3.99164 82.0247 6.08767 79.9196 8.60136C77.8158 11.1163 78.4558 14.3179 79.1554 16.0674C77.177 16.97 76.9365 15.2243 76.8706 13.1994C76.8111 11.1745 76.4982 7.00186 75.4779 6.02302C74.4603 5.04677 71.4475 6.14586 70.4286 6.8454C70.4932 6.35404 69.9799 5.30409 68.833 5.44632C67.6835 5.58468 65.7077 6.91264 65.2577 7.682C66.4085 7.74924 67.1106 8.03113 67.1106 8.80049C67.1106 9.56985 67.3007 13.4102 67.174 15.1571C67.174 15.1571 66.2805 16.1347 65.2577 16.6247C64.2401 17.1109 64.4922 11.7318 64.4922 10.1259C64.4922 8.5199 64.2995 7.26435 63.2819 6.77299C62.2617 6.2868 60.2833 7.47382 59.5825 7.96001C59.5825 7.96001 59.9019 8.45137 60.348 8.66084C60.7928 8.86902 61.2402 9.00996 61.2402 10.2668C61.2402 11.5236 61.3061 14.177 61.2402 16.0674C61.1755 17.9475 62.1971 19.2483 63.6 19.3168C65.0043 19.3867 66.4085 18.0186 67.174 17.3915C67.174 17.6708 68.3196 19.3673 69.3411 19.2987C70.3614 19.2276 71.8316 17.182 72.3397 16.2045C70.8708 16.4114 70.6213 15.9239 70.6213 15.0149C70.6213 14.1059 70.4286 12.8477 70.4932 11.7292C70.554 10.612 70.5463 8.67894 71.8316 8.65825C74.106 8.61558 73.2966 11.5909 73.5539 14.1757C73.8086 16.7592 75.2116 18.9574 76.6779 19.3065C78.1455 19.6569 79.5989 18.0173 80.1756 17.3902C81.7686 18.7867 84.7038 19.6362 86.2995 19.2871C87.8938 18.938 90.3195 16.7708 89.9355 16.0041C89.5528 15.236 88.9774 16.4243 86.3602 17.4704M85.4693 7.27081C87.1296 8.03888 84.8965 10.4142 84.3224 10.6948C83.7483 10.9728 81.7066 11.6012 81.7066 11.6012C81.6445 10.903 83.2776 6.25577 85.4693 7.26952M90.5032 3.83131V3.81708C90.6363 3.777 90.732 3.67873 90.732 3.54942C90.732 3.44468 90.6842 3.35546 90.6234 3.30633C90.542 3.25202 90.4476 3.21711 90.2407 3.21711C90.0571 3.21711 89.9174 3.2378 89.8153 3.25849V4.38602H90.0726V3.93604H90.1915C90.3338 3.93604 90.3997 3.99164 90.4217 4.11448C90.4553 4.24637 90.4747 4.34206 90.5096 4.38602H90.785C90.7592 4.34853 90.7385 4.28129 90.7062 4.10802C90.6713 3.95673 90.6105 3.86622 90.5032 3.83131ZM90.2006 3.74855H90.0778V3.424C90.1049 3.41753 90.1527 3.40977 90.2187 3.40977C90.3816 3.40977 90.454 3.4796 90.454 3.58304C90.454 3.70071 90.3402 3.74726 90.1993 3.74726M90.2523 2.66368H90.2458C89.6123 2.66368 89.1093 3.16668 89.1093 3.79639C89.1093 4.43904 89.6135 4.93428 90.2471 4.93428C90.8807 4.93428 91.3811 4.43775 91.3799 3.79639C91.3799 3.16668 90.8872 2.66368 90.2536 2.66368M90.2536 4.70023C89.7558 4.70023 89.3911 4.30068 89.3911 3.79639C89.3911 3.29728 89.7558 2.89255 90.2407 2.89255H90.2458C90.7372 2.89255 91.0967 3.29857 91.0967 3.79639C91.0967 4.30068 90.7385 4.7067 90.2536 4.70023Z" fill="#231F20"/>
<path d="M2.42588 26.418H2.91336C3.20947 26.418 3.41765 26.4438 3.5392 26.4956C3.68919 26.5602 3.80427 26.6494 3.88185 26.7632C3.95944 26.877 3.99823 27.0115 3.99823 27.1654C3.99823 27.3334 3.95297 27.4873 3.86117 27.6231C3.77065 27.7602 3.64781 27.8597 3.49523 27.9218C3.34136 27.9839 3.08663 28.0175 2.72975 28.0226L2.56812 29.1954H2.04443L2.42459 26.418H2.42588ZM2.7944 27.5326C3.07758 27.5326 3.26119 27.5015 3.34783 27.4434C3.43446 27.3852 3.47713 27.2998 3.47713 27.1847C3.47713 27.1201 3.46032 27.0658 3.4267 27.0218C3.39308 26.9779 3.34265 26.9468 3.27671 26.9287C3.21076 26.9106 3.08016 26.9029 2.88362 26.9029L2.79311 27.5313L2.7944 27.5326Z" fill="#231F20"/>
<path d="M5.70396 28.595L6.14747 28.8251C6.04791 28.9557 5.91602 29.0592 5.7518 29.1354C5.58758 29.2117 5.40526 29.2492 5.20484 29.2492C4.89192 29.2492 4.64495 29.1613 4.46392 28.9855C4.2829 28.8096 4.19238 28.5756 4.19238 28.2833C4.19238 27.9497 4.30488 27.6678 4.53116 27.4364C4.75744 27.2049 5.03028 27.0898 5.34966 27.0898C5.54232 27.0898 5.7143 27.1325 5.86429 27.2166C6.01429 27.3006 6.13325 27.4235 6.21988 27.5851C6.30652 27.7467 6.35048 27.9213 6.35048 28.1101C6.35048 28.1695 6.34401 28.2381 6.33108 28.3182H4.69279C4.69796 28.4605 4.74451 28.5743 4.83373 28.6596C4.92296 28.7437 5.0445 28.7863 5.20096 28.7863C5.38974 28.7863 5.55655 28.723 5.70266 28.5962L5.70396 28.595ZM5.83197 27.9458C5.79447 27.8204 5.73111 27.7247 5.64318 27.6601C5.55526 27.5954 5.44923 27.5631 5.3238 27.5631C5.19837 27.5631 5.08847 27.5967 4.99019 27.6627C4.89063 27.7299 4.81563 27.8243 4.76391 27.9458H5.83197Z" fill="#231F20"/>
<path d="M6.80271 27.1409H7.2514L7.21519 27.4202C7.34967 27.1991 7.5113 27.0879 7.70008 27.0879C7.74534 27.0879 7.79318 27.0995 7.84103 27.1241L7.65612 27.5818C7.61733 27.5676 7.59017 27.5611 7.57207 27.5611C7.4738 27.5611 7.38587 27.618 7.30829 27.7318C7.23071 27.8456 7.16993 28.0758 7.12597 28.4223L7.02641 29.1943H6.51953L6.80012 27.1396L6.80271 27.1409Z" fill="#231F20"/>
<path d="M9.66586 27.1416H10.1702L9.88439 29.1962H9.38527L9.41501 28.9751C9.3051 29.0773 9.20295 29.1484 9.10727 29.1885C9.01158 29.2285 8.90555 29.2492 8.78659 29.2492C8.51505 29.2492 8.29782 29.1497 8.13748 28.9492C7.97714 28.7488 7.89697 28.5161 7.89697 28.251C7.89697 28.048 7.94869 27.8553 8.05085 27.6717C8.15429 27.4881 8.29135 27.3459 8.46462 27.2437C8.63789 27.1416 8.81892 27.0898 9.0077 27.0898C9.13442 27.0898 9.25209 27.1196 9.35941 27.1778C9.46673 27.236 9.55466 27.3213 9.62448 27.4325L9.66457 27.1429L9.66586 27.1416ZM8.90814 28.7993C9.03227 28.7993 9.14088 28.7721 9.23269 28.7165C9.32579 28.6609 9.40208 28.5743 9.46544 28.4566C9.52751 28.3389 9.55983 28.2174 9.55983 28.0945C9.55983 27.9316 9.51328 27.801 9.41889 27.7015C9.3245 27.6019 9.20037 27.5528 9.0452 27.5528C8.86547 27.5528 8.71289 27.6187 8.58746 27.7506C8.46203 27.8825 8.39997 28.0532 8.39997 28.2626C8.39997 28.4243 8.44781 28.5536 8.5422 28.6518C8.6366 28.7501 8.75944 28.7993 8.90943 28.7993H8.90814Z" fill="#231F20"/>
<path d="M10.4403 27.1416H10.9264L11.2096 28.242L11.807 27.1416H12.0061L12.2932 28.242L12.8893 27.1416H13.4246L12.3074 29.1963H12.0643L11.785 28.1101L11.1993 29.1963H10.9614L10.439 27.1416H10.4403Z" fill="#231F20"/>
<path d="M15.3109 27.1416H15.8152L15.5294 29.1962H15.0303L15.06 28.9751C14.9501 29.0773 14.848 29.1484 14.7523 29.1885C14.6566 29.2285 14.5506 29.2492 14.4316 29.2492C14.1601 29.2492 13.9428 29.1497 13.7825 28.9492C13.6222 28.7488 13.542 28.5161 13.542 28.251C13.542 28.048 13.5937 27.8553 13.6959 27.6717C13.7993 27.4881 13.9364 27.3459 14.1096 27.2437C14.2829 27.1416 14.4639 27.0898 14.6527 27.0898C14.7794 27.0898 14.8971 27.1196 15.0044 27.1778C15.1118 27.236 15.1997 27.3213 15.2695 27.4325L15.3096 27.1429L15.3109 27.1416ZM14.5532 28.7993C14.6773 28.7993 14.7859 28.7721 14.8777 28.7165C14.9708 28.6609 15.0471 28.5743 15.1105 28.4566C15.1725 28.3389 15.2049 28.2174 15.2049 28.0945C15.2049 27.9316 15.1583 27.801 15.0639 27.7015C14.9695 27.6019 14.8454 27.5528 14.6902 27.5528C14.5105 27.5528 14.3579 27.6187 14.2325 27.7506C14.1071 27.8825 14.045 28.0532 14.045 28.2626C14.045 28.4243 14.0928 28.5536 14.1872 28.6518C14.2816 28.7501 14.4045 28.7993 14.5544 28.7993H14.5532Z" fill="#231F20"/>
<path d="M16.4553 26.3779H16.957L16.8536 27.1408H17.1729L17.1122 27.5753H16.7941L16.5743 29.1955H16.0713L16.2924 27.5753H16.0454L16.1036 27.1408H16.3519L16.4566 26.3779H16.4553Z" fill="#231F20"/>
<path d="M19.0233 27.1416H19.5276L19.2418 29.1962H18.7427L18.7724 28.9751C18.6625 29.0773 18.5604 29.1484 18.4647 29.1885C18.369 29.2285 18.263 29.2492 18.144 29.2492C17.8725 29.2492 17.6552 29.1497 17.4949 28.9492C17.3346 28.7488 17.2544 28.5161 17.2544 28.251C17.2544 28.048 17.3061 27.8553 17.4083 27.6717C17.5117 27.4881 17.6488 27.3459 17.822 27.2437C17.9953 27.1416 18.1763 27.0898 18.3651 27.0898C18.4918 27.0898 18.6095 27.1196 18.7168 27.1778C18.8242 27.236 18.9121 27.3213 18.9819 27.4325L19.022 27.1429L19.0233 27.1416ZM18.2656 28.7993C18.3897 28.7993 18.4983 28.7721 18.5901 28.7165C18.6832 28.6609 18.7595 28.5743 18.8229 28.4566C18.8849 28.3389 18.9173 28.2174 18.9173 28.0945C18.9173 27.9316 18.8707 27.801 18.7763 27.7015C18.6819 27.6019 18.5578 27.5528 18.4026 27.5528C18.2229 27.5528 18.0703 27.6187 17.9449 27.7506C17.8195 27.8825 17.7574 28.0532 17.7574 28.2626C17.7574 28.4243 17.8052 28.5536 17.8996 28.6518C17.994 28.7501 18.1169 28.7993 18.2669 28.7993H18.2656Z" fill="#231F20"/>
<path d="M20.0669 27.1409H20.5699L20.5414 27.3491C20.7341 27.1745 20.9345 27.0879 21.1427 27.0879C21.3199 27.0879 21.466 27.1448 21.5798 27.2573C21.6936 27.3698 21.7504 27.512 21.7504 27.684C21.7504 27.7642 21.7401 27.8844 21.7181 28.0447L21.5604 29.1956H21.0574L21.2112 28.0719C21.2268 27.9555 21.2345 27.8689 21.2345 27.812C21.2345 27.7292 21.2112 27.6646 21.1634 27.6206C21.1156 27.5767 21.0483 27.5534 20.9617 27.5534C20.8751 27.5534 20.7923 27.5831 20.7082 27.6413C20.6242 27.6995 20.5583 27.781 20.513 27.8844C20.4677 27.9879 20.4264 28.1831 20.3876 28.4689L20.2906 29.1956H19.7876L20.0682 27.1409H20.0669Z" fill="#231F20"/>
<path d="M26.0111 26.937L25.5766 27.2189C25.4512 27.0753 25.3296 26.9758 25.212 26.9202C25.0943 26.8646 24.9624 26.8361 24.8137 26.8361C24.493 26.8361 24.2318 26.9654 24.0301 27.2227C23.8698 27.4283 23.7909 27.6559 23.7909 27.9068C23.7909 28.1576 23.8737 28.3606 24.0379 28.5274C24.2021 28.6942 24.4038 28.7783 24.6443 28.7783C24.8228 28.7783 24.9857 28.7356 25.1318 28.649C25.2779 28.5623 25.3982 28.433 25.4913 28.2598H24.6249L24.6896 27.7671H26.0938C26.0731 28.2261 25.9296 28.5908 25.662 28.861C25.3943 29.1313 25.0542 29.2657 24.6392 29.2657C24.1892 29.2657 23.8336 29.1093 23.5763 28.7977C23.3681 28.5468 23.2646 28.2494 23.2646 27.9029C23.2646 27.4813 23.4172 27.1167 23.7211 26.809C24.025 26.5012 24.387 26.3486 24.8073 26.3486C24.9637 26.3486 25.115 26.3719 25.2637 26.4172C25.4124 26.4624 25.5469 26.5258 25.6658 26.6085C25.7848 26.6913 25.8999 26.7999 26.0098 26.9383L26.0111 26.937Z" fill="#231F20"/>
<path d="M28.2259 27.1416H28.7302L28.4444 29.1962H27.9453L27.9751 28.9751C27.8652 29.0773 27.763 29.1484 27.6673 29.1885C27.5716 29.2285 27.4656 29.2492 27.3466 29.2492C27.0751 29.2492 26.8579 29.1497 26.6975 28.9492C26.5372 28.7488 26.457 28.5161 26.457 28.251C26.457 28.048 26.5088 27.8553 26.6109 27.6717C26.7143 27.4881 26.8514 27.3459 27.0247 27.2437C27.1979 27.1416 27.379 27.0898 27.5678 27.0898C27.6945 27.0898 27.8121 27.1196 27.9195 27.1778C28.0268 27.236 28.1147 27.3213 28.1845 27.4325L28.2246 27.1429L28.2259 27.1416ZM27.4682 28.7993C27.5923 28.7993 27.7009 28.7721 27.7927 28.7165C27.8858 28.6609 27.9621 28.5743 28.0255 28.4566C28.0876 28.3389 28.1199 28.2174 28.1199 28.0945C28.1199 27.9316 28.0733 27.801 27.9789 27.7015C27.8846 27.6019 27.7604 27.5528 27.6053 27.5528C27.4255 27.5528 27.2729 27.6187 27.1475 27.7506C27.0221 27.8825 26.96 28.0532 26.96 28.2626C26.96 28.4243 27.0079 28.5536 27.1023 28.6518C27.1967 28.7501 27.3195 28.7993 27.4695 28.7993H27.4682Z" fill="#231F20"/>
<path d="M29.3703 26.3779H29.872L29.7686 27.1408H30.088L30.0272 27.5753H29.7091L29.4893 29.1955H28.9863L29.2074 27.5753H28.9604L29.0186 27.1408H29.2669L29.3716 26.3779H29.3703Z" fill="#231F20"/>
<path d="M31.9373 27.1416H32.4416L32.1559 29.1962H31.6568L31.6865 28.9751C31.5766 29.0773 31.4744 29.1484 31.3787 29.1885C31.2831 29.2285 31.177 29.2492 31.0581 29.2492C30.7865 29.2492 30.5693 29.1497 30.409 28.9492C30.2486 28.7488 30.1685 28.5161 30.1685 28.251C30.1685 28.048 30.2202 27.8553 30.3223 27.6717C30.4258 27.4881 30.5628 27.3459 30.7361 27.2437C30.9094 27.1416 31.0904 27.0898 31.2792 27.0898C31.4059 27.0898 31.5236 27.1196 31.6309 27.1778C31.7382 27.236 31.8261 27.3213 31.896 27.4325L31.9361 27.1429L31.9373 27.1416ZM31.1796 28.7993C31.3038 28.7993 31.4124 28.7721 31.5042 28.7165C31.5973 28.6609 31.6736 28.5743 31.7369 28.4566C31.799 28.3389 31.8313 28.2174 31.8313 28.0945C31.8313 27.9316 31.7848 27.801 31.6904 27.7015C31.596 27.6019 31.4718 27.5528 31.3167 27.5528C31.137 27.5528 30.9844 27.6187 30.8589 27.7506C30.7335 27.8825 30.6715 28.0532 30.6715 28.2626C30.6715 28.4243 30.7193 28.5536 30.8137 28.6518C30.9081 28.7501 31.0309 28.7993 31.1809 28.7993H31.1796Z" fill="#231F20"/>
<path d="M33.0298 26.3486H33.5328L33.1436 29.1959H32.6406L33.0298 26.3486Z" fill="#231F20"/>
<path d="M36.6075 26.3486H37.1118L36.7174 29.1959H36.2183L36.248 28.9748C36.1381 29.077 36.036 29.1481 35.9403 29.1882C35.8446 29.2282 35.7386 29.2489 35.6196 29.2489C35.3481 29.2489 35.1308 29.1494 34.9705 28.949C34.8101 28.7485 34.73 28.5158 34.73 28.2507C34.73 28.0477 34.7817 27.855 34.8839 27.6714C34.9873 27.4878 35.1244 27.3456 35.2976 27.2434C35.4709 27.1413 35.6519 27.0895 35.8407 27.0895C35.9674 27.0895 36.0851 27.1193 36.1924 27.1775C36.2997 27.2357 36.3877 27.321 36.4575 27.4322L36.6049 26.3499L36.6075 26.3486ZM35.7411 28.799C35.8653 28.799 35.9726 28.7718 36.0657 28.7162C36.1588 28.6606 36.2351 28.574 36.2984 28.4563C36.3605 28.3386 36.3928 28.2171 36.3928 28.0942C36.3928 27.9313 36.3463 27.8007 36.2519 27.7012C36.1575 27.6016 36.0334 27.5525 35.8795 27.5525C35.6998 27.5525 35.5472 27.6184 35.4218 27.7503C35.2963 27.8822 35.2343 28.0529 35.2343 28.2623C35.2343 28.424 35.2821 28.5533 35.3765 28.6516C35.4709 28.7498 35.5937 28.799 35.7424 28.799H35.7411Z" fill="#231F20"/>
<path d="M39.0516 27.1416H39.5559L39.2701 29.1962H38.771L38.8008 28.9751C38.6908 29.0773 38.5887 29.1484 38.493 29.1885C38.3973 29.2285 38.2913 29.2492 38.1723 29.2492C37.9008 29.2492 37.6836 29.1497 37.5232 28.9492C37.3629 28.7488 37.2827 28.5161 37.2827 28.251C37.2827 28.048 37.3344 27.8553 37.4366 27.6717C37.54 27.4881 37.6771 27.3459 37.8504 27.2437C38.0236 27.1416 38.2047 27.0898 38.3934 27.0898C38.5202 27.0898 38.6378 27.1196 38.7452 27.1778C38.8525 27.236 38.9404 27.3213 39.0102 27.4325L39.0503 27.1429L39.0516 27.1416ZM38.2939 28.7993C38.418 28.7993 38.5266 28.7721 38.6184 28.7165C38.7115 28.6609 38.7878 28.5743 38.8512 28.4566C38.9133 28.3389 38.9456 28.2174 38.9456 28.0945C38.9456 27.9316 38.899 27.801 38.8046 27.7015C38.7102 27.6019 38.5861 27.5528 38.4309 27.5528C38.2512 27.5528 38.0986 27.6187 37.9732 27.7506C37.8478 27.8825 37.7857 28.0532 37.7857 28.2626C37.7857 28.4243 37.8336 28.5536 37.9279 28.6518C38.0223 28.7501 38.1452 28.7993 38.2952 28.7993H38.2939Z" fill="#231F20"/>
<path d="M40.0962 27.1409H40.5992L40.5707 27.3491C40.7634 27.1745 40.9638 27.0879 41.172 27.0879C41.3492 27.0879 41.4953 27.1448 41.6091 27.2573C41.7228 27.3698 41.7797 27.512 41.7797 27.684C41.7797 27.7642 41.7694 27.8844 41.7474 28.0447L41.5897 29.1956H41.0867L41.2405 28.0719C41.2561 27.9555 41.2638 27.8689 41.2638 27.812C41.2638 27.7292 41.2405 27.6646 41.1927 27.6206C41.1449 27.5767 41.0776 27.5534 40.991 27.5534C40.9043 27.5534 40.8216 27.5831 40.7375 27.6413C40.6535 27.6995 40.5875 27.781 40.5423 27.8844C40.497 27.9879 40.4557 28.1831 40.4169 28.4689L40.3199 29.1956H39.8169L40.0975 27.1409H40.0962Z" fill="#231F20"/>
<path d="M43.6494 26.418H44.1731L44.0438 27.3528L44.9295 26.418H45.576L44.3657 27.6877L45.3226 29.1954H44.7394L43.9584 27.9645L43.7877 29.1954H43.2705L43.6507 26.418H43.6494Z" fill="#231F20"/>
<path d="M47.1537 28.595L47.5972 28.8251C47.4976 28.9557 47.3657 29.0592 47.2015 29.1354C47.0373 29.2117 46.855 29.2492 46.6545 29.2492C46.3416 29.2492 46.0947 29.1613 45.9136 28.9855C45.7326 28.8096 45.6421 28.5756 45.6421 28.2833C45.6421 27.9497 45.7546 27.6678 45.9809 27.4364C46.2072 27.2049 46.48 27.0898 46.7994 27.0898C46.992 27.0898 47.164 27.1325 47.314 27.2166C47.464 27.3006 47.583 27.4235 47.6696 27.5851C47.7562 27.7467 47.8002 27.9213 47.8002 28.1101C47.8002 28.1695 47.7937 28.2381 47.7808 28.3182H46.1425C46.1477 28.4605 46.1942 28.5743 46.2834 28.6596C46.3727 28.7437 46.4942 28.7863 46.6507 28.7863C46.8395 28.7863 47.0063 28.723 47.1524 28.5962L47.1537 28.595ZM47.2817 27.9458C47.2442 27.8204 47.1808 27.7247 47.0929 27.6601C47.005 27.5954 46.8989 27.5631 46.7735 27.5631C46.6481 27.5631 46.5382 27.5967 46.4399 27.6627C46.3403 27.7299 46.2653 27.8243 46.2136 27.9458H47.2817Z" fill="#231F20"/>
<path d="M49.4954 27.4286L49.2549 27.814C49.1928 27.7221 49.1282 27.6549 49.0596 27.6109C48.9911 27.567 48.9277 27.5463 48.8683 27.5463C48.823 27.5463 48.7842 27.5592 48.7532 27.5838C48.7221 27.6084 48.7053 27.6368 48.7053 27.6691C48.7053 27.7015 48.7183 27.7299 48.7428 27.7596C48.7674 27.7894 48.8398 27.8489 48.9601 27.9355C49.1527 28.0739 49.2807 28.1928 49.3415 28.2911C49.4023 28.3894 49.4333 28.4967 49.4333 28.6131C49.4333 28.7656 49.3713 28.9092 49.2458 29.0449C49.1204 29.1807 48.9394 29.2492 48.7015 29.2492C48.5644 29.2492 48.439 29.2221 48.3265 29.1665C48.214 29.1109 48.0886 29.01 47.9502 28.8626L48.2618 28.5006C48.4028 28.6868 48.5566 28.7799 48.7247 28.7799C48.792 28.7799 48.845 28.7643 48.8838 28.732C48.9226 28.6997 48.9433 28.6622 48.9433 28.6182C48.9433 28.5833 48.9277 28.5471 48.898 28.5096C48.8683 28.4721 48.7855 28.4062 48.651 28.3105C48.4946 28.1993 48.3872 28.1049 48.3278 28.026C48.245 27.9148 48.2036 27.7984 48.2036 27.6743C48.2036 27.5023 48.2683 27.3614 48.3989 27.2528C48.5295 27.1442 48.6834 27.0898 48.8605 27.0898C48.9846 27.0898 49.1036 27.1196 49.2161 27.1791C49.3286 27.2385 49.4217 27.3226 49.4954 27.4299V27.4286Z" fill="#231F20"/>
<path d="M51.3304 28.595L51.7739 28.8251C51.6744 28.9557 51.5425 29.0592 51.3783 29.1354C51.214 29.2117 51.0317 29.2492 50.8313 29.2492C50.5184 29.2492 50.2714 29.1613 50.0904 28.9855C49.9094 28.8096 49.8188 28.5756 49.8188 28.2833C49.8188 27.9497 49.9313 27.6678 50.1576 27.4364C50.3839 27.2049 50.6567 27.0898 50.9761 27.0898C51.1688 27.0898 51.3408 27.1325 51.4908 27.2166C51.6408 27.3006 51.7597 27.4235 51.8463 27.5851C51.933 27.7467 51.9769 27.9213 51.9769 28.1101C51.9769 28.1695 51.9705 28.2381 51.9575 28.3182H50.3193C50.3244 28.4605 50.371 28.5743 50.4602 28.6596C50.5494 28.7437 50.671 28.7863 50.8274 28.7863C51.0162 28.7863 51.183 28.723 51.3291 28.5962L51.3304 28.595ZM51.4584 27.9458C51.4209 27.8204 51.3576 27.7247 51.2696 27.6601C51.1817 27.5954 51.0757 27.5631 50.9503 27.5631C50.8248 27.5631 50.7149 27.5967 50.6167 27.6627C50.5171 27.7299 50.4421 27.8243 50.3904 27.9458H51.4584Z" fill="#231F20"/>
<path d="M52.6555 26.3486H53.1572L53.0214 27.3495C53.2141 27.1749 53.4145 27.0883 53.6227 27.0883C53.8011 27.0883 53.946 27.1452 54.0597 27.2576C54.1735 27.3701 54.2304 27.5124 54.2304 27.6844C54.2304 27.7645 54.2201 27.8848 54.1981 28.0451L54.0403 29.1959H53.5373L53.6912 28.0723C53.7067 27.9559 53.7145 27.8693 53.7145 27.8124C53.7145 27.7296 53.6912 27.665 53.6434 27.621C53.5955 27.577 53.5296 27.5538 53.4417 27.5538C53.3537 27.5538 53.2723 27.5835 53.1882 27.6417C53.1042 27.6999 53.0382 27.7813 52.993 27.8848C52.9477 27.9882 52.9063 28.1835 52.8688 28.4692L52.7706 29.1959H52.2676L52.6568 26.3486H52.6555Z" fill="#231F20"/>
<path d="M56.3768 27.1416H56.8811L56.5953 29.1962H56.0962L56.1259 28.9751C56.016 29.0773 55.9139 29.1484 55.8182 29.1885C55.7225 29.2285 55.6165 29.2492 55.4975 29.2492C55.2247 29.2492 55.0088 29.1497 54.8484 28.9492C54.6881 28.7488 54.6079 28.5161 54.6079 28.251C54.6079 28.048 54.6596 27.8553 54.7618 27.6717C54.8639 27.4881 55.0023 27.3459 55.1756 27.2437C55.3488 27.1416 55.5299 27.0898 55.7199 27.0898C55.8466 27.0898 55.9643 27.1196 56.0716 27.1778C56.179 27.236 56.2669 27.3213 56.3367 27.4325L56.3755 27.1429L56.3768 27.1416ZM55.6204 28.7993C55.7445 28.7993 55.8531 28.7721 55.9449 28.7165C56.0367 28.6609 56.1143 28.5743 56.1777 28.4566C56.2397 28.3389 56.2721 28.2174 56.2721 28.0945C56.2721 27.9316 56.2242 27.801 56.1311 27.7015C56.0367 27.6019 55.9126 27.5528 55.7574 27.5528C55.5777 27.5528 55.4251 27.6187 55.2997 27.7506C55.1743 27.8825 55.1122 28.0532 55.1122 28.2626C55.1122 28.4243 55.16 28.5536 55.2544 28.6518C55.3488 28.7501 55.4717 28.7993 55.6217 28.7993H55.6204Z" fill="#231F20"/>
<path d="M57.5212 26.3779H58.0229L57.9195 27.1408H58.2389L58.1781 27.5753H57.86L57.6402 29.1955H57.1372L57.3583 27.5753H57.1113L57.1695 27.1408H57.4178L57.5225 26.3779H57.5212Z" fill="#231F20"/>
<path d="M60.0882 27.1416H60.5925L60.3068 29.1962H59.8076L59.8374 28.9751C59.7275 29.0773 59.6253 29.1484 59.5296 29.1885C59.4339 29.2285 59.3279 29.2492 59.209 29.2492C58.9361 29.2492 58.7202 29.1497 58.5598 28.9492C58.3995 28.7488 58.3193 28.5161 58.3193 28.251C58.3193 28.048 58.3711 27.8553 58.4732 27.6717C58.5754 27.4881 58.7137 27.3459 58.887 27.2437C59.0603 27.1416 59.2413 27.0898 59.4314 27.0898C59.5581 27.0898 59.6757 27.1196 59.7831 27.1778C59.8904 27.236 59.9783 27.3213 60.0481 27.4325L60.0869 27.1429L60.0882 27.1416ZM59.3318 28.7993C59.4559 28.7993 59.5645 28.7721 59.6563 28.7165C59.7482 28.6609 59.8257 28.5743 59.8891 28.4566C59.9512 28.3389 59.9835 28.2174 59.9835 28.0945C59.9835 27.9316 59.9356 27.801 59.8425 27.7015C59.7482 27.6019 59.624 27.5528 59.4689 27.5528C59.2891 27.5528 59.1365 27.6187 59.0111 27.7506C58.8857 27.8825 58.8236 28.0532 58.8236 28.2626C58.8236 28.4243 58.8715 28.5536 58.9659 28.6518C59.0603 28.7501 59.1831 28.7993 59.3331 28.7993H59.3318Z" fill="#231F20"/>
<path d="M61.1328 27.1409H61.6358L61.6074 27.3491C61.8 27.1745 62.0004 27.0879 62.2086 27.0879C62.3858 27.0879 62.5319 27.1448 62.6457 27.2573C62.7595 27.3698 62.8164 27.512 62.8164 27.684C62.8164 27.7642 62.806 27.8844 62.784 28.0447L62.6263 29.1956H62.1233L62.2772 28.0719C62.2927 27.9555 62.3004 27.8689 62.3004 27.812C62.3004 27.7292 62.2772 27.6646 62.2293 27.6206C62.1815 27.5767 62.1142 27.5534 62.0276 27.5534C61.941 27.5534 61.8582 27.5831 61.7742 27.6413C61.6901 27.6995 61.6242 27.781 61.5789 27.8844C61.5337 27.9879 61.4923 28.1831 61.4535 28.4689L61.3565 29.1956H60.8535L61.1341 27.1409H61.1328Z" fill="#231F20"/>
<path d="M64.686 26.418H65.2097L65.0804 27.3528L65.9661 26.418H66.6126L65.4023 27.6877L66.3592 29.1954H65.776L64.995 27.9645L64.8243 29.1954H64.3071L64.6873 26.418H64.686Z" fill="#231F20"/>
<path d="M66.9385 27.1416H67.4376L67.294 28.1916C67.2785 28.3079 67.2708 28.3946 67.2708 28.4528C67.2708 28.5433 67.3018 28.6196 67.3652 28.6816C67.4285 28.7437 67.51 28.7747 67.6108 28.7747C67.7401 28.7747 67.841 28.7346 67.9108 28.6558C67.9807 28.5769 68.0324 28.4153 68.0647 28.1722L68.2056 27.1429H68.7048L68.5574 28.2472C68.5237 28.4967 68.4655 28.6894 68.3867 28.8252C68.3065 28.9622 68.2005 29.067 68.0673 29.1394C67.9341 29.2118 67.7789 29.2493 67.5992 29.2493C67.3471 29.2493 67.1466 29.1769 66.9966 29.0307C66.8479 28.8859 66.7729 28.6971 66.7729 28.467C66.7729 28.326 66.7898 28.145 66.8221 27.9239L66.9372 27.1429L66.9385 27.1416Z" fill="#231F20"/>
<path d="M69.3008 26.3486H69.8038L69.4146 29.1959H68.9116L69.3008 26.3486Z" fill="#231F20"/>
<path d="M70.1116 27.1413H70.6108L70.3341 29.1959H69.8311L70.1116 27.1413ZM70.4582 26.3008C70.5435 26.3008 70.6172 26.3318 70.678 26.3926C70.7388 26.4534 70.7698 26.5271 70.7698 26.6124C70.7698 26.6977 70.7388 26.7715 70.678 26.8322C70.6172 26.893 70.5435 26.924 70.4582 26.924C70.3728 26.924 70.2991 26.893 70.2384 26.8322C70.1776 26.7715 70.1466 26.6977 70.1466 26.6124C70.1466 26.5271 70.1776 26.4534 70.2384 26.3926C70.2991 26.3318 70.3728 26.3008 70.4582 26.3008Z" fill="#231F20"/>
<path d="M71.2082 26.3779H71.7099L71.6065 27.1408H71.9259L71.8651 27.5753H71.547L71.3272 29.1955H70.8242L71.0453 27.5753H70.7983L70.8565 27.1408H71.1048L71.2095 26.3779H71.2082Z" fill="#231F20"/>
<path d="M73.5009 26.418H74.0246L73.8953 27.3528L74.7811 26.418H75.4276L74.2173 27.6877L75.1741 29.1954H74.591L73.81 27.9645L73.6393 29.1954H73.1221L73.5022 26.418H73.5009Z" fill="#231F20"/>
<path d="M77.0052 28.595L77.4487 28.8251C77.3492 28.9557 77.2173 29.0592 77.0531 29.1354C76.8889 29.2117 76.7065 29.2492 76.5061 29.2492C76.1932 29.2492 75.9462 29.1613 75.7652 28.9855C75.5842 28.8096 75.4937 28.5756 75.4937 28.2833C75.4937 27.9497 75.6061 27.6678 75.8324 27.4364C76.0587 27.2049 76.3315 27.0898 76.6509 27.0898C76.8436 27.0898 77.0156 27.1325 77.1656 27.2166C77.3156 27.3006 77.4345 27.4235 77.5211 27.5851C77.6078 27.7467 77.6517 27.9213 77.6517 28.1101C77.6517 28.1695 77.6453 28.2381 77.6324 28.3182H75.9941C75.9992 28.4605 76.0458 28.5743 76.135 28.6596C76.2242 28.7437 76.3458 28.7863 76.5022 28.7863C76.691 28.7863 76.8578 28.723 77.0039 28.5962L77.0052 28.595ZM77.1332 27.9458C77.0957 27.8204 77.0324 27.7247 76.9445 27.6601C76.8565 27.5954 76.7505 27.5631 76.6251 27.5631C76.4996 27.5631 76.3897 27.5967 76.2915 27.6627C76.1919 27.7299 76.1169 27.8243 76.0652 27.9458H77.1332Z" fill="#231F20"/>
<path d="M78.2696 26.3486H78.7726L78.3834 29.1959H77.8804L78.2696 26.3486Z" fill="#231F20"/>
<path d="M79.1543 27.1416H79.6534L79.5099 28.1916C79.4943 28.3079 79.4866 28.3946 79.4866 28.4528C79.4866 28.5433 79.5176 28.6196 79.581 28.6816C79.6443 28.7437 79.7258 28.7747 79.8267 28.7747C79.956 28.7747 80.0568 28.7346 80.1267 28.6558C80.1965 28.5769 80.2482 28.4153 80.2805 28.1722L80.4215 27.1429H80.9206L80.7732 28.2472C80.7396 28.4967 80.6814 28.6894 80.6025 28.8252C80.5223 28.9622 80.4163 29.067 80.2831 29.1394C80.1499 29.2118 79.9948 29.2493 79.815 29.2493C79.5629 29.2493 79.3625 29.1769 79.2125 29.0307C79.0638 28.8859 78.9888 28.6971 78.9888 28.467C78.9888 28.326 79.0056 28.145 79.0379 27.9239L79.153 27.1429L79.1543 27.1416Z" fill="#231F20"/>
<path d="M82.9774 27.1416H83.4817L83.1959 29.1962H82.6968L82.7265 28.9751C82.6166 29.0773 82.5145 29.1484 82.4188 29.1885C82.3231 29.2285 82.2171 29.2492 82.0981 29.2492C81.8253 29.2492 81.6093 29.1497 81.449 28.9492C81.2887 28.7488 81.2085 28.5161 81.2085 28.251C81.2085 28.048 81.2602 27.8553 81.3624 27.6717C81.4645 27.4881 81.6029 27.3459 81.7761 27.2437C81.9494 27.1416 82.1304 27.0898 82.3205 27.0898C82.4472 27.0898 82.5649 27.1196 82.6722 27.1778C82.7795 27.236 82.8675 27.3213 82.9373 27.4325L82.9761 27.1429L82.9774 27.1416ZM82.221 28.7993C82.3451 28.7993 82.4537 28.7721 82.5455 28.7165C82.6373 28.6609 82.7149 28.5743 82.7783 28.4566C82.8403 28.3389 82.8726 28.2174 82.8726 28.0945C82.8726 27.9316 82.8248 27.801 82.7317 27.7015C82.6373 27.6019 82.5132 27.5528 82.358 27.5528C82.1783 27.5528 82.0257 27.6187 81.9003 27.7506C81.7749 27.8825 81.7128 28.0532 81.7128 28.2626C81.7128 28.4243 81.7606 28.5536 81.855 28.6518C81.9494 28.7501 82.0723 28.7993 82.2222 28.7993H82.221Z" fill="#231F20"/>
<path d="M83.9048 27.1409H84.3534L84.3172 27.4202C84.4517 27.1991 84.6133 27.0879 84.8021 27.0879C84.8474 27.0879 84.8939 27.0995 84.9431 27.1241L84.7582 27.5818C84.7194 27.5676 84.6922 27.5611 84.6741 27.5611C84.5758 27.5611 84.4879 27.618 84.4103 27.7318C84.3328 27.8456 84.272 28.0758 84.228 28.4223L84.1285 29.1943H83.6216L83.9022 27.1396L83.9048 27.1409Z" fill="#231F20"/>
<path d="M86.792 27.1415H87.2976L87.0622 28.7902C87.017 29.1134 86.9717 29.3281 86.9239 29.4328C86.8502 29.5957 86.7247 29.7315 86.5502 29.8375C86.3756 29.9449 86.1558 29.9979 85.8907 29.9979C85.6709 29.9979 85.4795 29.9565 85.3166 29.8725C85.1537 29.7884 85.0321 29.6811 84.9507 29.5492L85.3916 29.3229C85.5235 29.46 85.6955 29.5285 85.9075 29.5285C86.0304 29.5285 86.1377 29.5065 86.2269 29.4626C86.3174 29.4186 86.3873 29.3591 86.4364 29.2841C86.4855 29.2091 86.5217 29.0979 86.5424 28.9505C86.3562 29.1134 86.1442 29.1936 85.9088 29.1936C85.7446 29.1936 85.592 29.1535 85.4524 29.0721C85.3127 28.9906 85.2028 28.8768 85.124 28.7294C85.0438 28.582 85.005 28.4191 85.005 28.238C85.005 28.035 85.0567 27.845 85.1615 27.6665C85.2662 27.4881 85.4071 27.3471 85.5869 27.2424C85.7666 27.1377 85.9541 27.0859 86.1493 27.0859C86.2683 27.0859 86.3756 27.1092 86.4713 27.1558C86.567 27.2023 86.6627 27.2799 86.7558 27.3885L86.7894 27.139L86.792 27.1415ZM86.1726 27.5644C85.9851 27.5644 85.8261 27.629 85.6968 27.757C85.5675 27.885 85.5028 28.0428 85.5028 28.2316C85.5028 28.3842 85.5507 28.5057 85.6463 28.5975C85.742 28.6893 85.8713 28.7359 86.0317 28.7359C86.1519 28.7359 86.2631 28.7074 86.3666 28.6518C86.4687 28.5962 86.5502 28.5148 86.6097 28.41C86.6691 28.3053 86.6989 28.1915 86.6989 28.0712C86.6989 27.9264 86.6497 27.8062 86.5515 27.7105C86.4532 27.6148 86.3265 27.567 86.1726 27.567V27.5644Z" fill="#231F20"/>
<path d="M89.3202 27.1416H89.8244L89.5387 29.1962H89.0396L89.0693 28.9751C88.9594 29.0773 88.8573 29.1484 88.7616 29.1885C88.6659 29.2285 88.5598 29.2492 88.4409 29.2492C88.1681 29.2492 87.9521 29.1497 87.7918 28.9492C87.6314 28.7488 87.5513 28.5161 87.5513 28.251C87.5513 28.048 87.603 27.8553 87.7051 27.6717C87.8073 27.4881 87.9457 27.3459 88.1189 27.2437C88.2922 27.1416 88.4732 27.0898 88.6633 27.0898C88.79 27.0898 88.9077 27.1196 89.015 27.1778C89.1223 27.236 89.2102 27.3213 89.2801 27.4325L89.3189 27.1429L89.3202 27.1416ZM88.5637 28.7993C88.6879 28.7993 88.7965 28.7721 88.8883 28.7165C88.9801 28.6609 89.0577 28.5743 89.121 28.4566C89.1831 28.3389 89.2154 28.2174 89.2154 28.0945C89.2154 27.9316 89.1676 27.801 89.0745 27.7015C88.9801 27.6019 88.856 27.5528 88.7008 27.5528C88.5211 27.5528 88.3685 27.6187 88.2431 27.7506C88.1176 27.8825 88.0556 28.0532 88.0556 28.2626C88.0556 28.4243 88.1034 28.5536 88.1978 28.6518C88.2922 28.7501 88.415 28.7993 88.565 28.7993H88.5637Z" fill="#231F20"/>
</g>
<path d="M35.6895 43.6055L33.1406 51H31.5996L34.8105 42.4688H35.7949L35.6895 43.6055ZM37.8223 51L35.2676 43.6055L35.1562 42.4688H36.1465L39.3691 51H37.8223ZM37.6992 47.8359V49.002H33.0586V47.8359H37.6992ZM44.0508 49.6875V42H45.4688V51H44.1855L44.0508 49.6875ZM39.9258 47.9004V47.7773C39.9258 47.2969 39.9824 46.8594 40.0957 46.4648C40.209 46.0664 40.373 45.7246 40.5879 45.4395C40.8027 45.1504 41.0645 44.9297 41.373 44.7773C41.6816 44.6211 42.0293 44.543 42.416 44.543C42.7988 44.543 43.1348 44.6172 43.4238 44.7656C43.7129 44.9141 43.959 45.127 44.1621 45.4043C44.3652 45.6777 44.5273 46.0059 44.6484 46.3887C44.7695 46.7676 44.8555 47.1895 44.9062 47.6543V48.0469C44.8555 48.5 44.7695 48.9141 44.6484 49.2891C44.5273 49.6641 44.3652 49.9883 44.1621 50.2617C43.959 50.5352 43.7109 50.7461 43.418 50.8945C43.1289 51.043 42.791 51.1172 42.4043 51.1172C42.0215 51.1172 41.6758 51.0371 41.3672 50.877C41.0625 50.7168 40.8027 50.4922 40.5879 50.2031C40.373 49.9141 40.209 49.5742 40.0957 49.1836C39.9824 48.7891 39.9258 48.3613 39.9258 47.9004ZM41.3379 47.7773V47.9004C41.3379 48.1895 41.3633 48.459 41.4141 48.709C41.4688 48.959 41.5527 49.1797 41.666 49.3711C41.7793 49.5586 41.9258 49.707 42.1055 49.8164C42.2891 49.9219 42.5078 49.9746 42.7617 49.9746C43.082 49.9746 43.3457 49.9043 43.5527 49.7637C43.7598 49.623 43.9219 49.4336 44.0391 49.1953C44.1602 48.9531 44.2422 48.6836 44.2852 48.3867V47.3262C44.2617 47.0957 44.2129 46.8809 44.1387 46.6816C44.0684 46.4824 43.9727 46.3086 43.8516 46.1602C43.7305 46.0078 43.5801 45.8906 43.4004 45.8086C43.2246 45.7227 43.0156 45.6797 42.7734 45.6797C42.5156 45.6797 42.2969 45.7344 42.1172 45.8438C41.9375 45.9531 41.7891 46.1035 41.6719 46.2949C41.5586 46.4863 41.4746 46.709 41.4199 46.9629C41.3652 47.2168 41.3379 47.4883 41.3379 47.7773ZM50.7598 49.5059V44.6602H52.1777V51H50.8418L50.7598 49.5059ZM50.959 48.1875L51.4336 48.1758C51.4336 48.6016 51.3867 48.9941 51.293 49.3535C51.1992 49.709 51.0547 50.0195 50.8594 50.2852C50.6641 50.5469 50.4141 50.752 50.1094 50.9004C49.8047 51.0449 49.4395 51.1172 49.0137 51.1172C48.7051 51.1172 48.4219 51.0723 48.1641 50.9824C47.9062 50.8926 47.6836 50.7539 47.4961 50.5664C47.3125 50.3789 47.1699 50.1348 47.0684 49.834C46.9668 49.5332 46.916 49.1738 46.916 48.7559V44.6602H48.3281V48.7676C48.3281 48.998 48.3555 49.1914 48.4102 49.3477C48.4648 49.5 48.5391 49.623 48.6328 49.7168C48.7266 49.8105 48.8359 49.877 48.9609 49.916C49.0859 49.9551 49.2188 49.9746 49.3594 49.9746C49.7617 49.9746 50.0781 49.8965 50.3086 49.7402C50.543 49.5801 50.709 49.3652 50.8066 49.0957C50.9082 48.8262 50.959 48.5234 50.959 48.1875ZM55.1367 42V51H53.7188V42H55.1367ZM59.5898 44.6602V45.6914H56.0156V44.6602H59.5898ZM57.0469 43.1074H58.459V49.248C58.459 49.4434 58.4863 49.5938 58.541 49.6992C58.5996 49.8008 58.6797 49.8691 58.7812 49.9043C58.8828 49.9395 59.002 49.957 59.1387 49.957C59.2363 49.957 59.3301 49.9512 59.4199 49.9395C59.5098 49.9277 59.582 49.916 59.6367 49.9043L59.6426 50.9824C59.5254 51.0176 59.3887 51.0488 59.2324 51.0762C59.0801 51.1035 58.9043 51.1172 58.7051 51.1172C58.3809 51.1172 58.0938 51.0605 57.8438 50.9473C57.5938 50.8301 57.3984 50.6406 57.2578 50.3789C57.1172 50.1172 57.0469 49.7695 57.0469 49.3359V43.1074Z" fill="#636466"/>
<defs>
<clipPath id="clip0_1857_16875">
<rect width="90.759" height="30" fill="white" transform="translate(0.620605)"/>
</clipPath>
</defs>
</svg>
