<svg width="128" height="130" viewBox="0 0 128 130" fill="none" xmlns="http://www.w3.org/2000/svg">
<g clip-path="url(#clip0_1834_10003)">
<path d="M69.8574 6.74219L67.1442 10.3606L67.1017 91.6364C67.1017 91.8909 66.8995 92.1122 66.6442 92.1122L43.7152 92.1897C43.7152 92.1897 42.9279 91.6364 42.9279 90.4967C42.9279 89.3569 42.8534 88.3389 42.8534 88.3278L38.1612 88.2061C38.1612 88.2061 37.0653 95.8302 42.5661 96.6048C42.5661 96.6048 42.5661 96.6048 42.5768 96.6048H86.2002C86.2534 96.6048 86.3385 96.5827 86.3917 96.5716C87.1046 96.4609 87.892 96.129 88.7751 95.1331C89.9667 93.7942 90.0838 92.6766 90.137 91.6032C90.1157 88.3057 89.8816 84.9529 89.9774 81.4672C89.988 81.091 90.2115 80.5931 90.4775 80.3496L90.6264 80.2169C90.6371 80.2058 90.6477 80.1947 90.6583 80.1947C91.0094 79.9291 96.3507 75.8349 98.3403 66.8498C100.543 56.9241 95.4037 47.7729 93.2013 43.9553C83.8807 27.7887 77.0606 16.8671 77.0606 16.8671V82.1201H81.8272V33.6534C81.8272 33.6534 85.8598 39.3742 91.733 51.2032C92.0734 51.8782 95.7655 59.2146 93.2013 67.6133C91.9351 71.7628 87.3281 76.7755 87.3281 76.7755C87.3281 76.7755 85.8598 77.9152 85.8598 80.2058V90.1204C85.8598 90.1426 86.2215 92.0237 84.3914 92.0237H71.9215V10.2389L69.8574 6.74219Z" fill="#652672"/>
<path d="M30.8843 129.823H29.416V124.479H30.8843V129.823Z" fill="#652672"/>
<path d="M40.0976 129.823H38.6825L37.0121 127.245C36.9376 127.134 36.8631 127.013 36.7886 126.913C36.7886 127.068 36.7886 127.234 36.7886 127.4V129.823H35.3203V124.479H36.7035L38.3846 126.869C38.4484 126.968 38.5229 127.068 38.5868 127.167C38.5974 127.001 38.608 126.847 38.6293 126.669V124.479H40.0976V129.823Z" fill="#652672"/>
<path d="M46.002 129.922C45.5657 129.922 45.1614 129.9 44.8103 129.867L44.4805 129.834V124.633L44.7997 124.589C45.2678 124.522 45.736 124.489 46.2041 124.489C47.1936 124.489 47.9171 124.711 48.4279 125.153C48.9705 125.618 49.2578 126.271 49.2578 127.101C49.2578 127.953 48.9705 128.672 48.4279 129.17C47.8852 129.657 47.0553 129.922 46.002 129.922ZM45.9488 128.672C46.0658 128.672 46.1722 128.672 46.2254 128.672C47.3745 128.672 47.9491 128.141 47.9491 127.101C47.9491 126.691 47.8427 126.359 47.6299 126.138C47.3639 125.861 46.917 125.706 46.3318 125.706C46.1828 125.706 46.0552 125.718 45.9594 125.718V128.672H45.9488Z" fill="#652672"/>
<path d="M55.8659 130C54.3444 130 53.291 128.882 53.291 127.289C53.291 125.64 54.3763 124.489 55.9403 124.489C57.4618 124.489 58.5152 125.607 58.5152 127.2C58.5152 128.871 57.4512 130 55.8659 130ZM55.9084 125.729C55.0147 125.729 54.6955 126.559 54.6955 127.267C54.6955 127.975 55.0679 128.749 55.8978 128.749C56.7383 128.749 57.1107 127.986 57.1107 127.222C57.1107 126.503 56.7277 125.729 55.9084 125.729Z" fill="#652672"/>
<path d="M67.3669 129.823H66.1753L64.5048 127.245C64.4622 127.178 64.4197 127.112 64.3771 127.046C64.3878 127.134 64.409 127.223 64.4303 127.322L64.441 127.4V129.823H62.9727V124.479H64.2069L65.888 126.869C65.9093 126.902 65.9305 126.924 65.9412 126.957C65.9305 126.902 65.9199 126.835 65.9093 126.78L65.8986 126.703V124.49H67.3669V129.823Z" fill="#652672"/>
<path d="M72.209 124.489H75.5073V125.629H73.3049V126.393H75.5073V127.543H73.3049V128.384H75.5073V129.823H72.209V124.489Z" fill="#652672"/>
<path d="M81.6575 129.988C81.1255 129.988 80.5509 129.845 80.2104 129.645L79.9551 129.491L80.3488 128.262L80.7318 128.484C81.0084 128.638 81.3702 128.738 81.6894 128.738C81.849 128.738 82.349 128.705 82.349 128.34C82.349 128.207 82.349 128.03 81.6681 127.786C81.2957 127.665 80.1253 127.277 80.1253 126.127C80.1253 125.186 80.9446 124.5 82.0831 124.5C82.7321 124.5 83.147 124.666 83.3386 124.766L83.6258 124.92L83.1896 126.116L82.8278 125.927C82.7002 125.861 82.4235 125.75 82.0511 125.75C81.6681 125.75 81.4872 125.905 81.4872 126.06C81.4872 126.182 81.4872 126.326 82.2214 126.591C82.9236 126.846 83.7216 127.266 83.7216 128.307C83.7429 129.136 83.0938 129.988 81.6575 129.988Z" fill="#652672"/>
<path d="M89.3804 129.823H87.9121V124.479H89.3804V129.823Z" fill="#652672"/>
<path d="M98.212 129.823H96.8288L96.2755 128.296H94.9456L94.4029 129.823H93.041L94.9881 124.479H96.2543L98.212 129.823ZM95.2754 127.4H95.9563L95.6159 126.459L95.2754 127.4Z" fill="#652672"/>
<path d="M97.7765 119.422V119.709C97.4998 119.709 97.3721 119.61 97.2445 119.477H88.5304H87.6154C87.6154 118.702 88.1687 119.001 88.5304 117.651V106.652C88.1687 105.302 87.6047 105.601 87.6154 104.826H92.7438C92.7438 105.678 92.0735 105.236 91.7224 107.106V116.334L96.9785 116.279C98.0531 116.08 97.9893 115.029 98.5851 115.15L97.7765 119.422Z" fill="#652672"/>
<path d="M69.8468 119.422V119.709C69.5701 119.709 69.4425 119.61 69.3148 119.477H60.6007H59.6857C59.6857 118.702 60.239 119.001 60.6007 117.651V106.652C60.239 105.302 59.6751 105.601 59.6857 104.826H64.8247C64.8247 105.678 64.1544 105.236 63.8033 107.106V116.334L69.0594 116.279C70.134 116.08 70.0702 115.029 70.666 115.15L69.8468 119.422Z" fill="#652672"/>
<path d="M42.5021 119.266H37.3631C37.3631 118.458 37.9908 118.835 38.3419 117.175V113.302L33.1922 113.855L33.171 117.263C33.5221 118.824 34.1392 118.47 34.1392 119.266H29.0001C29.0001 118.436 29.6598 118.857 30.0003 117.064V107.006C29.6598 105.213 28.9895 105.623 29.0001 104.804H34.1392C34.1392 105.589 33.5327 105.246 33.1816 106.784L33.1922 110.989L38.3845 110.414L38.3526 106.895C38.0015 105.224 37.3631 105.611 37.3737 104.804H42.5128C42.5128 105.623 41.8531 105.213 41.5126 106.984V117.075C41.8531 118.857 42.5128 118.447 42.5021 119.266Z" fill="#652672"/>
<path d="M86.0827 118.835L80.4117 104.804L78.4752 104.815V104.804H77.358C75.9429 104.804 77.3687 105.191 77.3261 105.977L72.7084 118.58C72.1019 119.377 71.8359 118.89 71.8359 119.499H72.3467H75.5705H76.2196C76.2196 119.122 75.8046 119.266 75.9855 118.514L76.7303 116.688L81.6778 116.389L82.3694 118.58C82.5822 119.399 82.0928 118.934 82.0715 119.51H82.7418H85.5294H86.0934H86.6254C86.6786 119.167 86.3274 119.067 86.0827 118.835ZM77.7091 114.099L79.1455 110.513L80.5925 113.855L77.7091 114.099Z" fill="#652672"/>
<path d="M57.9733 118.835L52.3023 104.804L50.3658 104.815V104.804H49.2487C47.8335 104.804 49.2593 105.191 49.2167 105.977L44.599 118.58C43.9926 119.377 43.7266 118.89 43.7266 119.499H44.2373H47.4612H48.1102C48.1102 119.122 47.6952 119.266 47.8761 118.514L48.6209 116.688L53.5684 116.389L54.26 118.58C54.4728 119.399 53.9834 118.934 53.9621 119.51H54.6324H57.4201H57.984H58.516C58.5585 119.167 58.2181 119.067 57.9733 118.835ZM49.5998 114.099L51.0361 110.513L52.4832 113.855L49.5998 114.099Z" fill="#652672"/>
<path d="M56.1426 82.3967H61.005V20.8174L56.1426 28.2312V82.3967Z" fill="#652672"/>
<path d="M66.633 2.0169C61.5046 9.99509 56.3655 17.9733 51.2371 25.9515C51.2371 44.7185 51.2371 63.4966 51.2371 82.2636C47.6621 82.3411 44.0978 82.4075 40.5228 82.4849C39.9376 82.2304 39.1609 81.8431 38.3097 81.2899C38.0437 81.1128 36.7563 80.2608 35.3199 78.7669C33.958 77.3395 33.1493 76.0448 32.9259 75.6686C32.2556 74.5621 31.9151 73.7211 31.3406 72.2936C30.4149 69.992 30.1063 68.5093 29.9999 67.9781C29.7233 66.5396 29.6701 65.4773 29.6063 64.1384C29.4999 61.7925 29.6275 60.0552 29.6488 59.6679C29.6807 59.2917 29.8297 57.4549 30.2766 55.3082C31.0746 51.5348 32.3939 48.6689 33.5217 46.2455C35.139 42.7931 36.6499 40.3476 38.3629 37.6034C39.9695 35.0252 41.4165 32.9449 42.4486 31.4953C42.4486 34.3723 42.4592 37.2604 42.4592 40.1374C41.5761 41.3878 40.5334 42.9812 39.5013 44.9288C39.097 45.6812 38.0224 47.7394 36.8733 50.7713C35.3092 54.9209 34.4261 57.2778 34.2027 60.6638C34.1069 62.1466 33.9367 65.2671 35.2028 68.9076C35.9689 71.0986 36.9371 72.5924 37.267 73.0682C38.7672 75.2702 40.4802 76.6424 41.608 77.4169C43.2891 77.4169 44.9809 77.4169 46.662 77.4169C46.6301 59.845 46.5981 42.2841 46.5662 24.7122C54.993 11.3008 61.2173 1.51895 61.8557 0.755433C62.3239 0.180029 62.8665 0.0693743 62.8665 0.0693743C63.2282 -0.0744766 63.59 0.036178 63.8986 0.124702C64.3029 0.246422 64.5795 0.456665 65.1328 0.843957C65.4839 1.09846 66.0478 1.49682 66.633 2.0169Z" fill="#652672"/>
</g>
<defs>
<clipPath id="clip0_1834_10003">
<rect width="69.8774" height="130" fill="white" transform="translate(29)"/>
</clipPath>
</defs>
</svg>
