<svg width="130" height="130" viewBox="0 0 81 130" fill="none" xmlns="http://www.w3.org/2000/svg">
<g clip-path="url(#clip0_1370_14416)">
<path d="M17.4816 101.127C16.6844 101.551 14.5794 102.037 11.945 102.037C3.66197 102.037 0 96.8737 0 90.9946C0 83.1911 5.74207 79.2178 12.3436 79.2178C14.8721 79.2178 16.946 79.716 17.8739 80.1706L16.7093 84.8727C15.7689 84.4741 14.3739 84.0817 12.6176 84.0817C9.20475 84.0817 6.24653 86.0684 6.24653 90.5898C6.24653 94.6068 8.65047 97.1041 12.7297 97.1041C14.1434 97.1041 15.7689 96.855 16.6782 96.4814L17.4753 101.127H17.4816Z" fill="#0076C0"/>
<path d="M20.2783 79.866C21.8664 79.6107 24.2205 79.374 27.5898 79.374C30.7785 79.374 33.0703 79.9532 34.6086 81.1552C36.1282 82.2637 37.1495 84.2131 37.1495 86.4862C37.1495 88.7594 36.4022 90.6589 34.9698 91.9418C33.2135 93.5237 30.6041 94.2399 27.6085 94.2399C27.0293 94.2399 26.5248 94.1901 26.1636 94.1901V101.701H20.2783V79.866ZM26.1636 89.6313C26.4937 89.6811 26.8798 89.7122 27.5088 89.7122C29.8007 89.7122 31.2518 88.504 31.2518 86.6232C31.2518 84.9791 30.1681 83.8581 27.9137 83.8581C27.0604 83.8581 26.4563 83.9141 26.1699 83.9889V89.6313H26.1636Z" fill="#0076C0"/>
<path d="M49.3928 102.068C42.5297 102.068 38.7432 96.8986 38.7432 90.758C38.7432 84.2997 42.947 79.168 49.7602 79.168C56.5735 79.168 60.5157 84.4679 60.5157 90.3905C60.5157 97.5276 56.2496 102.062 49.4426 102.062H49.3928V102.068ZM49.7104 97.3533C52.5627 97.3533 54.2318 94.6006 54.2318 90.5836C54.2318 86.5666 52.5316 83.87 49.6294 83.87C46.7273 83.87 45.0271 86.7722 45.0271 90.621C44.9959 94.5943 46.7646 97.347 49.6294 97.347H49.7104V97.3533Z" fill="#0076C0"/>
<path d="M63.431 79.866C64.7887 79.6107 67.6971 79.374 70.4374 79.374C73.5949 79.374 75.513 79.6107 77.2257 80.4514C78.9508 81.2797 80.2151 82.8678 80.2151 85.0351C80.2151 86.8723 79.1937 88.6847 76.5905 89.6811V89.7247C79.2871 90.4907 80.9437 92.4961 80.9437 95.1367C80.9437 97.2417 79.8974 98.8672 78.4277 99.9944C76.7898 101.246 74.0184 101.956 69.2728 101.956C66.5636 101.956 64.5956 101.8 63.4248 101.576V79.866H63.431ZM69.3288 88.0494H70.4996C73.0344 88.0494 74.2363 87.1775 74.2363 85.7513C74.2363 84.4684 73.2586 83.6463 71.2657 83.6463C70.2754 83.6463 69.7149 83.7148 69.3288 83.7833V88.0494ZM69.3288 97.5593C69.7523 97.6154 70.2754 97.6154 71.029 97.6154C73.0095 97.6154 74.6785 96.8431 74.6785 94.8689C74.6785 92.8947 72.9659 92.2719 70.7363 92.2719H69.3226V97.5593H69.3288Z" fill="#0076C0"/>
<path d="M18.2102 129.041C17.3508 129.49 15.1523 130 12.4308 130C3.80521 130 0 124.638 0 118.522C0 110.401 5.95382 106.26 12.8169 106.26C15.4637 106.26 17.631 106.777 18.5777 107.25L17.3881 112.145C16.3855 111.74 14.953 111.329 13.0972 111.329C9.57219 111.329 6.49564 113.403 6.49564 118.093C6.49564 122.272 8.993 124.881 13.2404 124.881C14.7039 124.881 16.3855 124.613 17.3445 124.215L18.204 129.047L18.2102 129.041Z" fill="#FAA634"/>
<path d="M21.0938 106.945C22.7628 106.677 25.1979 106.428 28.6793 106.428C32.1606 106.428 34.3902 107.044 36.0094 108.29C37.5851 109.454 38.6438 111.472 38.6438 113.82C38.6438 116.168 37.8591 118.173 36.3893 119.506C34.5459 121.15 31.8368 121.898 28.7229 121.898C28.0938 121.898 27.5956 121.835 27.2157 121.835V129.664H21.1V106.945H21.0938ZM27.2095 117.108C27.5582 117.158 27.9631 117.189 28.6232 117.189C31.0085 117.189 32.5156 115.944 32.5156 113.963C32.5156 112.251 31.3821 111.067 29.0342 111.067C28.1561 111.067 27.5209 111.161 27.2157 111.211V117.102L27.2095 117.108Z" fill="#FAA634"/>
<path d="M40.9047 106.614H47.0453V116.392H47.0951C47.5871 115.533 48.1041 114.673 48.5711 113.863L53.0178 106.62H60.6282L53.2918 116.429L60.8898 129.664H53.734L48.8825 120.328L47.0391 122.701V129.664H40.8984V106.62L40.9047 106.614Z" fill="#FAA634"/>
<path d="M62.7211 106.938C64.1223 106.67 67.1864 106.421 70.0139 106.421C73.2897 106.421 75.2826 106.67 77.0513 107.554C78.8761 108.408 80.1653 110.064 80.1653 112.306C80.1653 114.224 79.119 116.118 76.4223 117.151V117.208C79.2186 117.992 80.9375 120.072 80.9375 122.825C80.9375 125.011 79.8539 126.724 78.3156 127.882C76.6216 129.177 73.7444 129.931 68.8057 129.931C66.0156 129.931 63.9355 129.757 62.7148 129.52V106.938H62.7211ZM68.843 115.464H70.0886C72.7105 115.464 73.9872 114.53 73.9872 113.072C73.9872 111.739 72.9596 110.88 70.8609 110.88C69.8395 110.88 69.2603 110.955 68.843 111.017V115.47V115.464ZM68.843 125.347C69.279 125.435 69.8395 125.435 70.6304 125.435C72.6856 125.435 74.4294 124.606 74.4294 122.557C74.4294 120.508 72.6483 119.842 70.3315 119.842H68.843V125.347Z" fill="#FAA634"/>
<path d="M14.4668 34.6396C14.4668 34.6396 19.4179 41.2224 25.8949 41.2224C32.3718 41.2224 40.7234 35.798 47.8356 12.0948L53.8579 7.45508C53.8579 7.45508 54.6115 49.5179 32.9074 60.5038C32.9074 60.5038 18.4651 48.4717 14.4668 34.6396Z" fill="#0076C0"/>
<path d="M55.3777 6.19041L59.6375 3.21973C59.6375 3.21973 59.0646 37.5601 39.8828 55.49C39.8828 55.49 55.8012 40.2692 55.3777 6.19041Z" fill="#0076C0"/>
<path d="M61.4685 2.0365L63.4739 0C63.4739 0 60.5032 41.5459 39.8828 55.4901C39.8828 55.4901 58.6847 42.6545 61.4685 2.0365Z" fill="#0076C0"/>
<path d="M0 65.1246C0.610328 65 1.9244 64.9004 3.12638 64.9004C4.53387 64.9004 5.38708 65 6.14688 65.3862C6.93159 65.7411 7.49209 66.4574 7.49209 67.4102C7.49209 68.2447 7.04369 69.0419 5.85417 69.4779V69.5214C7.07483 69.8453 7.81594 70.7359 7.81594 71.9254C7.81594 72.8658 7.34885 73.5945 6.70116 74.0927C5.96004 74.6407 4.73939 74.9708 2.60947 74.9708C1.42618 74.9708 0.535594 74.8899 0.00622784 74.784V65.1184L0 65.1246ZM2.62815 68.7617H3.15752C4.28476 68.7617 4.82035 68.3755 4.82035 67.7465C4.82035 67.1673 4.37817 66.8061 3.48136 66.8061C3.03919 66.8061 2.7963 66.8186 2.62192 66.8622V68.7554L2.62815 68.7617ZM2.62815 72.9966C2.82121 73.034 3.03919 73.034 3.39417 73.034C4.2723 73.034 5.01341 72.679 5.01341 71.7946C5.01341 70.9725 4.26607 70.6425 3.25716 70.6425H2.63438V72.9966H2.62815Z" fill="#0076C0"/>
<path d="M11.3973 72.5667L10.843 74.8523H8.11523L10.9863 64.9688H14.505L17.4508 74.8523H14.5797L13.9445 72.5667H11.3973ZM13.5957 70.6112L13.1349 68.8425C12.9854 68.282 12.8048 67.4599 12.6491 66.8869H12.6242C12.4685 67.4599 12.3315 68.2757 12.1633 68.8425L11.7647 70.6112H13.5895H13.5957Z" fill="#0076C0"/>
<path d="M18.3164 65.1246C19.1758 64.9689 20.3093 64.9004 21.4739 64.9004C23.3734 64.9004 24.5754 65.2118 25.5282 65.8906C26.6243 66.6193 27.3219 67.8586 27.3219 69.6896C27.3219 71.695 26.5621 73.0028 25.6217 73.7439C24.5256 74.5971 22.9001 74.9708 20.9819 74.9708C19.699 74.9708 18.8395 74.8836 18.3226 74.784V65.1184L18.3164 65.1246ZM20.9819 72.8907C21.1065 72.9156 21.3618 72.9156 21.5362 72.9156C23.2675 72.953 24.5256 71.9877 24.5256 69.7643C24.5256 67.8399 23.3734 66.912 21.7853 66.912C21.3805 66.912 21.1127 66.9431 20.9882 66.9867V72.8907H20.9819Z" fill="#0076C0"/>
<path d="M30.691 72.5667L30.143 74.8523H27.3965L30.2675 64.9688H33.7925L36.732 74.8523H33.8859L33.2507 72.5667H30.691ZM32.877 70.6112L32.4286 68.8425C32.2853 68.282 32.0923 67.4599 31.949 66.8869H31.9304C31.7809 67.4599 31.6252 68.2757 31.4944 68.8425L31.0585 70.6112H32.8832H32.877Z" fill="#0076C0"/>
<path d="M37.6104 74.8523V64.9688H40.7554L42.3248 68.0079C42.8542 68.9857 43.4334 70.2936 43.8693 71.4644H43.9129C43.7572 70.1628 43.7012 68.7864 43.7012 67.3166V64.9688H46.1176V74.8523H43.3213L41.6522 71.564C41.1166 70.5178 40.4689 69.1975 39.9832 68.0017H39.9333C40.0268 69.3407 40.0268 70.8229 40.0268 72.411V74.8461H37.6104V74.8523Z" fill="#0076C0"/>
<path d="M50.8685 65.1246C51.5598 65 52.6123 64.9004 54.1132 64.9004C55.5332 64.9004 56.5608 65.1682 57.2458 65.6851C57.9371 66.1771 58.3855 67.0552 58.3855 68.0704C58.3855 69.0855 58.0368 69.9387 57.4015 70.493C56.6044 71.203 55.4647 71.5268 54.1319 71.5268C53.8579 71.5268 53.6524 71.4957 53.478 71.4957V74.8525H50.8623V65.1246H50.8685ZM53.4842 69.4716C53.6337 69.4779 53.8143 69.5028 54.0883 69.5028C55.1221 69.5028 55.7636 68.9672 55.7636 68.1202C55.7636 67.3915 55.2841 66.8933 54.2503 66.8933C53.8766 66.8933 53.6212 66.912 53.4842 66.9431V69.4716Z" fill="#0076C0"/>
<path d="M63.7791 75.0016C60.7087 75.0016 59.0459 72.7098 59.0459 69.9758C59.0459 67.0985 60.8831 64.8066 63.941 64.8066C66.9989 64.8066 68.724 67.167 68.724 69.8076C68.724 72.99 66.8245 75.0016 63.7977 75.0016H63.7728H63.7791ZM63.9161 72.9153C65.1741 72.9153 65.9339 71.676 65.9339 69.8886C65.9339 68.2008 65.1741 66.9117 63.8787 66.9117C62.5833 66.9117 61.8235 68.207 61.8235 69.9259C61.8048 71.676 62.5833 72.9153 63.8787 72.9153H63.9098H63.9161Z" fill="#0076C0"/>
<path d="M78.2525 71.3025C78.1964 70.1815 78.1964 68.8736 78.1964 67.3416H78.1466C77.8415 68.6432 77.4055 70.1192 77.1128 71.2028L76.1163 74.6406H74.0612L73.2391 71.2028C72.9713 70.1379 72.6786 68.6868 72.4357 67.3416H72.4108C72.3423 68.7241 72.3111 70.1877 72.2613 71.3025L72.1118 74.8523H69.6768L70.2995 64.9688H73.8494L74.4847 67.6343C74.7898 68.7241 75.0825 70.0382 75.2818 71.234H75.3254C75.6057 70.0382 75.9171 68.6494 76.2098 67.6218L76.9696 64.9688H80.4385L80.9492 74.8523H78.3584L78.2587 71.3025H78.2525Z" fill="#0076C0"/>
</g>
<defs>
<clipPath id="clip0_1370_14416">
<rect width="80.9433" height="130" fill="white"/>
</clipPath>
</defs>
</svg>
