<svg width="130" height="126" viewBox="0 0 130 126" fill="none" xmlns="http://www.w3.org/2000/svg">
<g clip-path="url(#clip0_1370_14180)">
<path d="M78.0684 114.032L81.0984 113.629C81.4516 116.337 82.5669 117.688 84.4444 117.688C85.3801 117.688 86.1237 117.421 86.6627 116.87C87.1894 116.306 87.4745 115.612 87.4745 114.807C87.4745 114.311 87.3753 113.896 87.1956 113.561C87.0159 113.226 86.7123 112.954 86.3405 112.737C85.9563 112.514 85.0207 112.148 83.5274 111.64C82.2137 111.169 81.2285 110.686 80.6275 110.147C80.0016 109.608 79.5369 108.901 79.1465 108.034C78.7871 107.166 78.6074 106.218 78.6074 105.215C78.6074 104.056 78.8305 103.002 79.3076 102.054C79.7724 101.125 80.423 100.431 81.2533 99.9352C82.0774 99.4643 83.0812 99.2227 84.3019 99.2227C86.1113 99.2227 87.5426 99.7741 88.5588 100.896C89.5812 102.023 90.1203 103.616 90.1947 105.704L87.0655 105.915C86.9292 104.75 86.6442 103.938 86.1732 103.486C85.7209 103.027 85.0703 102.786 84.2338 102.786C83.3972 102.786 82.7342 102.996 82.3067 103.399C81.8358 103.789 81.6065 104.291 81.6065 104.886C81.6065 105.481 81.811 105.964 82.2199 106.361C82.6165 106.77 83.5707 107.197 85.0579 107.675C86.6194 108.201 87.7471 108.746 88.4473 109.31C89.1413 109.874 89.6866 110.618 90.046 111.522C90.4054 112.427 90.5974 113.524 90.5974 114.807C90.5974 116.659 90.0893 118.227 89.0917 119.497C88.0817 120.755 86.514 121.393 84.3949 121.393C80.6089 121.393 78.5021 118.933 78.0746 114.032" fill="#5B5B5C"/>
<path d="M100.164 113.14V109.527H106.862V118.06C106.175 118.97 105.208 119.764 103.981 120.408C102.729 121.071 101.472 121.393 100.245 121.393C98.708 121.393 97.3633 120.972 96.2046 120.111C95.0459 119.268 94.1103 117.979 93.4225 116.281C92.7409 114.583 92.4062 112.576 92.4062 110.271C92.4062 107.966 92.747 105.896 93.4286 104.223C94.1412 102.532 95.0273 101.292 96.1117 100.468C97.227 99.6378 98.5407 99.2227 100.071 99.2227C101.911 99.2227 103.399 99.7493 104.514 100.821C105.623 101.881 106.336 103.436 106.658 105.5L103.609 106.33C103.38 105.227 102.959 104.397 102.339 103.802C101.713 103.213 100.976 102.916 100.115 102.916C98.7761 102.916 97.7042 103.492 96.8676 104.682C96.0435 105.859 95.6408 107.65 95.6408 110.06C95.6408 112.644 96.0807 114.608 96.973 115.971C97.7413 117.13 98.7761 117.7 100.084 117.7C100.691 117.7 101.329 117.552 101.986 117.223C102.63 116.889 103.225 116.442 103.733 115.872V113.146H100.164V113.14Z" fill="#5B5B5C"/>
<path d="M108.746 114.032L111.77 113.629C112.111 116.337 113.226 117.688 115.116 117.688C116.064 117.688 116.802 117.421 117.335 116.87C117.867 116.306 118.14 115.612 118.14 114.807C118.14 114.311 118.041 113.896 117.855 113.561C117.669 113.226 117.378 112.954 116.994 112.737C116.61 112.514 115.68 112.148 114.199 111.64C112.861 111.169 111.907 110.686 111.275 110.147C110.674 109.608 110.159 108.901 109.812 108.034C109.447 107.166 109.267 106.218 109.267 105.215C109.267 104.056 109.49 103.002 109.961 102.054C110.432 101.125 111.07 100.431 111.907 99.9352C112.731 99.4643 113.753 99.2227 114.961 99.2227C116.771 99.2227 118.196 99.7741 119.218 100.896C120.241 102.023 120.78 103.616 120.842 105.704L117.737 105.915C117.582 104.75 117.285 103.938 116.833 103.486C116.362 103.027 115.711 102.786 114.887 102.786C114.063 102.786 113.394 102.996 112.935 103.399C112.477 103.789 112.254 104.291 112.254 104.886C112.254 105.481 112.47 105.964 112.861 106.361C113.264 106.77 114.218 107.197 115.693 107.675C117.266 108.201 118.4 108.746 119.094 109.31C119.788 109.874 120.315 110.618 120.693 111.516C121.052 112.427 121.245 113.524 121.245 114.807C121.245 116.659 120.749 118.227 119.745 119.497C118.747 120.755 117.173 121.393 115.036 121.393C111.25 121.393 109.155 118.933 108.74 114.032" fill="#5B5B5C"/>
<path d="M78.0684 114.032L81.0984 113.629C81.4516 116.337 82.5669 117.688 84.4444 117.688C85.3801 117.688 86.1237 117.421 86.6627 116.87C87.1894 116.306 87.4745 115.612 87.4745 114.807C87.4745 114.311 87.3753 113.896 87.1956 113.561C87.0159 113.226 86.7123 112.954 86.3405 112.737C85.9563 112.514 85.0207 112.148 83.5274 111.64C82.2137 111.169 81.2285 110.686 80.6275 110.147C80.0016 109.608 79.5369 108.901 79.1465 108.034C78.7871 107.166 78.6074 106.218 78.6074 105.215C78.6074 104.056 78.8305 103.002 79.3076 102.054C79.7724 101.125 80.423 100.431 81.2533 99.9352C82.0774 99.4643 83.0812 99.2227 84.3019 99.2227C86.1113 99.2227 87.5426 99.7741 88.5588 100.896C89.5812 102.023 90.1203 103.616 90.1947 105.704L87.0655 105.915C86.9292 104.75 86.6442 103.938 86.1732 103.486C85.7209 103.027 85.0703 102.786 84.2338 102.786C83.3972 102.786 82.7342 102.996 82.3067 103.399C81.8358 103.789 81.6065 104.291 81.6065 104.886C81.6065 105.481 81.811 105.964 82.2199 106.361C82.6165 106.77 83.5707 107.197 85.0579 107.675C86.6194 108.201 87.7471 108.746 88.4473 109.31C89.1413 109.874 89.6866 110.618 90.046 111.522C90.4054 112.427 90.5974 113.524 90.5974 114.807C90.5974 116.659 90.0893 118.227 89.0917 119.497C88.0817 120.755 86.514 121.393 84.3949 121.393C80.6089 121.393 78.5021 118.933 78.0746 114.032" fill="#808285"/>
<path d="M100.164 113.14V109.527H106.862V118.06C106.175 118.97 105.208 119.764 103.981 120.408C102.729 121.071 101.472 121.393 100.245 121.393C98.708 121.393 97.3633 120.972 96.2046 120.111C95.0459 119.268 94.1103 117.979 93.4225 116.281C92.7409 114.583 92.4062 112.576 92.4062 110.271C92.4062 107.966 92.747 105.896 93.4286 104.223C94.1412 102.532 95.0273 101.292 96.1117 100.468C97.227 99.6378 98.5407 99.2227 100.071 99.2227C101.911 99.2227 103.399 99.7493 104.514 100.821C105.623 101.881 106.336 103.436 106.658 105.5L103.609 106.33C103.38 105.227 102.959 104.397 102.339 103.802C101.713 103.213 100.976 102.916 100.115 102.916C98.7761 102.916 97.7042 103.492 96.8676 104.682C96.0435 105.859 95.6408 107.65 95.6408 110.06C95.6408 112.644 96.0807 114.608 96.973 115.971C97.7413 117.13 98.7761 117.7 100.084 117.7C100.691 117.7 101.329 117.552 101.986 117.223C102.63 116.889 103.225 116.442 103.733 115.872V113.146H100.164V113.14Z" fill="#808285"/>
<path d="M108.746 114.032L111.77 113.629C112.111 116.337 113.226 117.688 115.116 117.688C116.064 117.688 116.802 117.421 117.335 116.87C117.867 116.306 118.14 115.612 118.14 114.807C118.14 114.311 118.041 113.896 117.855 113.561C117.669 113.226 117.378 112.954 116.994 112.737C116.61 112.514 115.68 112.148 114.199 111.64C112.861 111.169 111.907 110.686 111.275 110.147C110.674 109.608 110.159 108.901 109.812 108.034C109.447 107.166 109.267 106.218 109.267 105.215C109.267 104.056 109.49 103.002 109.961 102.054C110.432 101.125 111.07 100.431 111.907 99.9352C112.731 99.4643 113.753 99.2227 114.961 99.2227C116.771 99.2227 118.196 99.7741 119.218 100.896C120.241 102.023 120.78 103.616 120.842 105.704L117.737 105.915C117.582 104.75 117.285 103.938 116.833 103.486C116.362 103.027 115.711 102.786 114.887 102.786C114.063 102.786 113.394 102.996 112.935 103.399C112.477 103.789 112.254 104.291 112.254 104.886C112.254 105.481 112.47 105.964 112.861 106.361C113.264 106.77 114.218 107.197 115.693 107.675C117.266 108.201 118.4 108.746 119.094 109.31C119.788 109.874 120.315 110.618 120.693 111.516C121.052 112.427 121.245 113.524 121.245 114.807C121.245 116.659 120.749 118.227 119.745 119.497C118.747 120.755 117.173 121.393 115.036 121.393C111.25 121.393 109.155 118.933 108.74 114.032" fill="#808285"/>
<path d="M122.223 95.7461H120.166V125.898H122.223V95.7461Z" fill="#F69322"/>
<path d="M129.999 120.023H66.6289V122.081H129.999V120.023Z" fill="#F69322"/>
<path d="M1.46909 59.4666C1.46909 26.632 28.318 0 61.4376 0C94.5573 0 121.419 26.632 121.419 59.4666V90.8946H109.305L108.871 59.3551C108.871 33.572 87.4624 12.6344 61.0101 12.6344C34.5577 12.6344 13.1431 33.5658 13.1431 59.3613L1.46289 59.4666H1.46909Z" fill="#808285"/>
<path d="M91.0366 46.6713L62.211 75.503L52.0985 65.3719V50.1846L61.4365 60.6441L84.9579 37.1351C78.9164 31.0688 70.5761 27.3076 61.3373 27.3076C42.9836 27.3076 28.0938 42.1355 28.0938 60.4272C28.0938 78.7189 42.9836 93.5531 61.3373 93.5531C79.691 93.5531 94.5623 78.7251 94.5623 60.4272C94.5623 55.371 93.4222 50.5998 91.3898 46.2995L91.0304 46.6713H91.0366Z" fill="#F69322"/>
<path d="M52.0996 50.1847V65.372L62.2121 75.5031L91.0376 46.6713L91.397 46.2995C89.786 42.8853 87.5987 39.7995 84.9652 37.1289L61.4437 60.638L52.1058 50.1785L52.0996 50.1847Z" fill="white"/>
<path d="M103.17 32.5993L109.602 28.9062L110.104 29.7737L106.801 33.9811L111.101 31.5211L111.56 32.3328L105.14 36.0321L104.632 35.1584L107.823 31.0192L103.628 33.4048L103.17 32.5993Z" fill="white"/>
<path d="M102.396 25.3243C103.09 24.7914 103.734 24.4321 104.329 24.2709C104.911 24.0913 105.413 24.0541 105.853 24.1656C106.281 24.2709 106.64 24.5188 106.931 24.9154C107.384 25.4792 107.452 26.1423 107.21 26.8982C106.944 27.6728 106.337 28.4163 105.345 29.1537C104.36 29.9096 103.462 30.3 102.613 30.331C101.863 30.3806 101.274 30.1079 100.84 29.5441C100.394 28.9678 100.308 28.3296 100.537 27.6294C100.809 26.8177 101.429 26.0493 102.39 25.3181M103.059 26.1237C102.39 26.638 101.937 27.1275 101.782 27.5984C101.596 28.0693 101.621 28.4535 101.85 28.7695C102.086 29.0917 102.458 29.2095 102.96 29.1723C103.443 29.1103 104.05 28.8253 104.744 28.2924C105.426 27.7719 105.86 27.2948 106.045 26.8424C106.219 26.4025 106.169 25.9997 105.921 25.6837C105.674 25.3553 105.32 25.219 104.825 25.2624C104.341 25.3181 103.759 25.597 103.059 26.1237Z" fill="white"/>
<path d="M97.7969 25.7518L103.262 20.7266L103.937 21.4701L98.4785 26.5016L97.7969 25.7518Z" fill="white"/>
<path d="M95.0781 23.0754L99.2793 18.5645L98.1825 17.5607L99.0252 16.625L101.931 19.3204L101.089 20.2437L99.9981 19.2337L95.8155 23.7694L95.0781 23.0754Z" fill="white"/>
<path d="M93.776 21.8545L92.8961 21.2039L93.5777 19.5929L91.9852 18.3908L90.6344 19.4813L89.7793 18.8431L95.7898 14.0967L96.6697 14.7535L93.7822 21.8607L93.776 21.8545ZM94.061 18.4032L95.1825 15.8007L92.9766 17.5852L94.061 18.4094V18.4032Z" fill="white"/>
<path d="M89.4686 15.4472L90.0758 16.3395C89.5305 16.9715 89.0038 17.3743 88.5019 17.523C87.9876 17.6655 87.5291 17.6283 87.083 17.3743C86.5129 17.0335 86.2093 16.5068 86.1907 15.7756C86.1349 14.9391 86.4076 13.9972 87.0086 12.9748C87.6468 11.8781 88.3656 11.1345 89.1154 10.7627C89.7846 10.4405 90.4166 10.4467 91.0053 10.7875C91.501 11.0788 91.786 11.5187 91.8728 12.1135C91.9347 12.5349 91.8666 13.074 91.6311 13.6812L90.6149 13.4706C90.7574 13.1112 90.7946 12.7766 90.7388 12.5039C90.6955 12.2127 90.5529 11.9958 90.3237 11.8719C90.0015 11.686 89.6235 11.7046 89.2517 11.9215C88.8427 12.1321 88.4152 12.6464 87.9691 13.421C87.4733 14.2203 87.2441 14.8585 87.2441 15.3109C87.2317 15.7694 87.3804 16.073 87.7026 16.2651C87.9133 16.4014 88.1983 16.4076 88.4772 16.2775C88.7684 16.166 89.1092 15.8871 89.4562 15.4596" fill="white"/>
<path d="M82.9316 15.045L86.1228 8.34668L87.0213 8.77423L83.8425 15.4663L82.9316 15.045Z" fill="white"/>
<path d="M78.3848 13.1674L81.0492 6.24609L84.2527 7.48537L83.8004 8.65648L81.5387 7.78279L80.9067 9.44342L82.8771 10.1808L82.4124 11.3581L80.4482 10.6021L79.3328 13.533L78.3848 13.1674Z" fill="white"/>
<path d="M75.7949 12.3676L77.9389 5.2666L78.9055 5.55783L76.7678 12.6589L75.7949 12.3676Z" fill="white"/>
<path d="M72.1008 11.4319L73.4207 5.42147L71.9707 5.09925L72.2371 3.88477L76.1161 4.72747L75.8434 5.96055L74.3935 5.65693L73.086 11.655L72.1008 11.4319Z" fill="white"/>
<path d="M65.3848 10.4593L66.2275 3.0918L68.3342 3.33346C68.8795 3.39542 69.2637 3.51315 69.4744 3.65567C69.6913 3.81677 69.8524 4.07702 69.9763 4.41162C70.0816 4.75243 70.1126 5.15519 70.0568 5.61992C69.9887 6.18998 69.8276 6.62993 69.5487 6.95833C69.3009 7.28055 68.9291 7.46644 68.4892 7.51601C68.6936 7.72669 68.83 7.95595 68.9477 8.19761C69.0654 8.43307 69.2079 8.85443 69.3814 9.45547L69.8276 10.9612L68.6131 10.8373L68.0802 9.13946C67.8943 8.53841 67.7704 8.14804 67.696 7.99933C67.6093 7.83202 67.5287 7.72668 67.4296 7.65852C67.3304 7.58417 67.1755 7.54079 66.9401 7.51601L66.7542 7.49122L66.401 10.577L65.3848 10.4655V10.4593ZM66.8719 6.32011L67.6217 6.40066C68.0802 6.45023 68.359 6.45643 68.4892 6.41925C68.6131 6.38827 68.7308 6.30152 68.8238 6.1652C68.9291 6.02268 68.9787 5.83059 69.0097 5.59513C69.0344 5.35347 69.0158 5.16758 68.9663 5.01887C68.9105 4.87016 68.799 4.75243 68.6874 4.67807C68.5821 4.63469 68.3218 4.58512 67.8695 4.54795L67.1012 4.455L66.8781 6.32011H66.8719Z" fill="white"/>
<path d="M60.0918 10.3422L60.1476 2.9375L63.853 2.95609L63.8468 4.21395L61.139 4.18917L61.1328 5.83121L63.6795 5.8436L63.6609 7.10766L61.1328 7.08907L61.1204 9.0967L63.9088 9.12768L63.9026 10.3608L60.0918 10.3422Z" fill="white"/>
<path d="M57.3044 7.77688L58.3268 8.12388C58.2525 8.97278 58.0604 9.59242 57.7506 10.0138C57.4222 10.4351 57.007 10.6582 56.5051 10.7202C55.8545 10.7759 55.2906 10.5343 54.8259 9.95801C54.2868 9.31358 53.9708 8.39652 53.853 7.21301C53.7353 5.94895 53.8592 4.92655 54.262 4.17059C54.6028 3.51378 55.1295 3.16058 55.7987 3.08623C56.3626 3.04285 56.8521 3.22874 57.2734 3.6501C57.5895 3.94133 57.8373 4.43084 58.0232 5.05048L57.0752 5.49662C56.976 5.11244 56.8149 4.80882 56.6042 4.61673C56.3874 4.42464 56.1581 4.3379 55.904 4.36888C55.5199 4.39366 55.2472 4.61673 55.0489 5.04428C54.863 5.44705 54.8011 6.10386 54.894 7.00234C54.987 7.93179 55.1481 8.57621 55.4207 8.948C55.681 9.31978 56.0094 9.48708 56.3564 9.44371C56.6166 9.43751 56.8335 9.27641 57.007 9.00377C57.1619 8.73732 57.2549 8.31597 57.2982 7.77069" fill="white"/>
<path d="M45.4806 12.8515L43.5039 5.71331L44.991 5.29816L47.1908 9.95783L46.6641 4.84582L48.1574 4.43066L50.1278 11.5751L49.2232 11.8167L47.6617 6.17185L48.2751 12.0832L47.3271 12.3434L44.8113 6.97118L46.4038 12.6037L45.4806 12.8515Z" fill="white"/>
<path d="M40.6055 14.7783L37.8047 7.91893L41.2375 6.51855L41.7332 7.68347L39.2175 8.69968L39.8433 10.224L42.1855 9.25116L42.6564 10.4161L40.3018 11.3827L41.0702 13.2478L43.6479 12.182L44.1374 13.3408L40.6055 14.7783Z" fill="white"/>
<path d="M37.1964 16.5195L34.2903 11.1038L32.9828 11.7916L32.4004 10.6887L35.8766 8.81738L36.4714 9.92653L35.1826 10.6205L38.0825 16.0547L37.1964 16.5195Z" fill="white"/>
<path d="M30.2081 18.0754L30.9392 17.4062C31.5465 18.1188 32.1289 18.3109 32.6432 17.9639C32.8911 17.7904 33.046 17.5797 33.077 17.3194C33.1142 17.0716 33.0522 16.8175 32.8911 16.5821C32.792 16.4458 32.699 16.3404 32.5813 16.2846C32.4512 16.2165 32.321 16.1979 32.1785 16.2103C32.0298 16.2227 31.7076 16.2846 31.1933 16.4086C30.7719 16.5139 30.4063 16.5449 30.1399 16.5139C29.8611 16.4767 29.5946 16.359 29.3282 16.1793C29.0555 15.9872 28.8387 15.7641 28.6342 15.4729C28.4173 15.1321 28.2748 14.7851 28.2128 14.4443C28.1509 14.0911 28.188 13.7689 28.3182 13.4715C28.4545 13.1989 28.6652 12.9324 29.006 12.7279C29.4893 12.3933 29.9912 12.3004 30.4683 12.4305C30.9764 12.573 31.4349 12.9324 31.8439 13.5211L31.0508 14.1345C30.7905 13.8371 30.5551 13.645 30.3444 13.6016C30.1337 13.552 29.9106 13.6016 29.6752 13.7627C29.4645 13.9114 29.3158 14.0911 29.2724 14.277C29.2414 14.4691 29.2724 14.655 29.3901 14.8285C29.5017 14.9896 29.6566 15.0949 29.8301 15.1383C30.016 15.1879 30.3506 15.1383 30.8463 14.9958C31.3482 14.8719 31.7634 14.8285 32.067 14.8595C32.3644 14.8843 32.637 15.0082 32.9097 15.2003C33.1947 15.38 33.4488 15.6712 33.6904 16.043C34.0498 16.5635 34.2357 17.1088 34.1923 17.654C34.1923 18.1993 33.8825 18.6641 33.3186 19.0606C32.3148 19.7422 31.2676 19.4138 30.2019 18.0878" fill="white"/>
<path d="M28.6889 22.4618L26.6441 20.0452L22.4863 17.9942L23.3848 17.2382L26.1298 18.682L25.126 15.7449L26.0369 14.9766L27.4124 19.4132L29.4449 21.7988L28.6889 22.4618Z" fill="white"/>
<path d="M22.0647 25.6346L22.6224 24.8105C23.397 25.3619 23.9794 25.4239 24.4132 24.9778C24.6114 24.7547 24.7168 24.5192 24.6796 24.2652C24.661 23.9987 24.5619 23.7757 24.345 23.5712C24.2273 23.4597 24.091 23.3853 23.967 23.3605C23.8307 23.3233 23.6882 23.3233 23.5519 23.3605C23.4155 23.4163 23.1119 23.534 22.6534 23.7757C22.2506 23.9802 21.9098 24.1041 21.631 24.1103C21.3645 24.1351 21.0795 24.0855 20.7821 23.9616C20.4661 23.8376 20.1996 23.6641 19.9456 23.4349C19.642 23.1436 19.4499 22.84 19.295 22.5116C19.171 22.177 19.1462 21.861 19.1958 21.545C19.264 21.2476 19.4313 20.9439 19.6977 20.6651C20.0943 20.2375 20.559 20.0331 21.0671 20.0455C21.5752 20.0764 22.1019 20.3367 22.6472 20.82L21.9966 21.5945C21.6806 21.3529 21.4141 21.2228 21.1848 21.2228C20.968 21.2228 20.7759 21.3033 20.5776 21.514C20.3917 21.7185 20.305 21.9044 20.305 22.1088C20.305 22.3133 20.3669 22.493 20.5156 22.6293C20.6644 22.7657 20.8379 22.8276 21.0299 22.8276C21.222 22.8276 21.5318 22.7099 21.978 22.4868C22.4675 22.2328 22.8517 22.0965 23.1491 22.0655C23.4527 22.0345 23.7502 22.0779 24.0476 22.2142C24.3698 22.3381 24.6796 22.5612 25.0018 22.8586C25.4789 23.2985 25.7516 23.7757 25.8631 24.321C25.9499 24.8724 25.764 25.3805 25.2992 25.8762C24.4565 26.7685 23.3846 26.6818 22.0585 25.6346" fill="white"/>
<path d="M0 63.5071L12.3246 62.3174L12.4671 63.6496L0.13632 64.8393L0 63.5071Z" fill="#F69322"/>
<path d="M4.21263 66.0534L4.80129 67.9805C3.29557 68.501 2.65114 69.3871 2.899 70.5954C3.02293 71.2088 3.27078 71.6488 3.65496 71.9462C4.04533 72.2312 4.46048 72.3304 4.93761 72.2312C5.21644 72.1816 5.44571 72.0701 5.61921 71.9152C5.77412 71.7541 5.90424 71.531 5.9786 71.2832C6.06535 71.0043 6.13351 70.3413 6.25124 69.3437C6.34418 68.439 6.51149 67.7512 6.73455 67.2989C6.97002 66.828 7.29843 66.4438 7.76315 66.1092C8.1969 65.7808 8.7112 65.5701 9.28127 65.4586C9.96287 65.3346 10.5701 65.3718 11.1712 65.5639C11.7536 65.7622 12.2555 66.103 12.6149 66.5801C12.9619 67.051 13.2469 67.6831 13.3833 68.4762C13.6125 69.6349 13.4762 70.614 12.9495 71.3947C12.46 72.1754 11.5987 72.7021 10.44 72.9686L9.93189 70.9795C10.5701 70.7627 10.9915 70.4838 11.2083 70.1492C11.4066 69.7898 11.45 69.3561 11.3509 68.817C11.2517 68.2655 11.0472 67.8628 10.7746 67.6397C10.4958 67.3856 10.1859 67.2865 9.83894 67.3485C9.49814 67.4166 9.25648 67.5963 9.07679 67.9247C8.91568 68.216 8.76697 68.879 8.69261 69.889C8.58727 70.961 8.42617 71.7417 8.1907 72.2746C7.93665 72.7703 7.58966 73.1916 7.13112 73.5324C6.6664 73.8671 6.07154 74.1025 5.33417 74.245C4.27459 74.4433 3.34514 74.2946 2.49623 73.7927C1.63494 73.2846 1.09585 72.3303 0.829408 70.9424C0.34609 68.501 1.47383 66.8713 4.22502 66.0534" fill="#F69322"/>
<path d="M7.93211 74.4495C9.34489 73.991 10.5408 73.7927 11.5818 73.8857C12.6166 73.9972 13.4717 74.3008 14.1533 74.8089C14.8225 75.3356 15.3306 76.0668 15.6342 77.0024C16.1237 78.3842 15.9688 79.6793 15.2314 80.9062C14.4879 82.1454 13.1371 83.0873 11.2038 83.7565C9.24575 84.4257 7.54174 84.4939 6.11657 83.9548C4.8773 83.4776 4.0284 82.5668 3.54508 81.1974C3.06796 79.7908 3.1733 78.5267 3.86109 77.3928C4.65423 76.0978 5.99265 75.1187 7.93211 74.4433M8.69427 76.4324C7.34965 76.8971 6.4202 77.5043 5.93688 78.2355C5.42258 78.9729 5.32344 79.735 5.5589 80.491C5.82535 81.2408 6.38302 81.7612 7.21333 82.0339C8.06224 82.3127 9.16519 82.2012 10.5594 81.7303C11.8978 81.2655 12.8396 80.6769 13.3044 79.9581C13.8001 79.2331 13.9116 78.502 13.639 77.7212C13.3663 76.9157 12.8211 76.4076 12.0093 76.1287C11.1666 75.8747 10.0637 75.949 8.69427 76.4324Z" fill="#F69322"/>
<path d="M10.905 87.3818L11.8345 88.6087C11.221 89.0486 11.0537 89.4824 11.3016 89.9285C11.4813 90.2383 11.7849 90.3871 12.2186 90.3994C12.6462 90.4242 13.3774 90.1516 14.3812 89.6497C14.0466 89.6187 13.7491 89.5381 13.5261 89.3832C13.2658 89.2407 13.0861 89.0424 12.9374 88.7822C12.6152 88.2369 12.6028 87.6111 12.8693 86.9109C13.1481 86.1983 13.7305 85.5911 14.5795 85.1015C15.5027 84.5934 16.3454 84.389 17.1138 84.5377C17.8883 84.674 18.4584 85.0582 18.8302 85.7088C19.2329 86.4152 19.2329 87.2145 18.8302 88.0572C18.415 88.9061 17.436 89.7798 15.8559 90.6845C14.2758 91.583 12.987 92.0043 12.008 91.9052C11.0227 91.8246 10.3225 91.3909 9.8764 90.6225C9.58517 90.0958 9.50462 89.5381 9.66572 88.9929C9.81444 88.4352 10.2172 87.9085 10.8926 87.3818M16.302 88.4042C16.8349 88.0944 17.2067 87.7536 17.3616 87.3756C17.5475 87.0038 17.5599 86.6878 17.4174 86.44C17.2687 86.1735 17.0332 86.0372 16.6986 86.0062C16.3516 85.9752 15.9179 86.1301 15.3478 86.4524C14.7901 86.7746 14.4307 87.0906 14.2758 87.4252C14.1271 87.7598 14.1271 88.0572 14.2758 88.3299C14.4245 88.5715 14.6724 88.7326 15.0132 88.7698C15.3602 88.8132 15.7939 88.6954 16.302 88.4104" fill="#F69322"/>
<path d="M21.911 90.4609C22.3696 91.1053 22.4501 91.8551 22.1217 92.6916C21.7871 93.5405 20.8824 94.5195 19.3457 95.6225C17.8152 96.7316 16.6069 97.3079 15.7146 97.3574C14.7976 97.4132 14.116 97.1158 13.6513 96.4776C13.1803 95.8331 13.0998 95.0958 13.4344 94.2593C13.738 93.4289 14.686 92.4437 16.2289 91.3284C17.7471 90.213 18.9677 89.6306 19.8786 89.5872C20.7647 89.55 21.4587 89.835 21.9172 90.4733M20.6222 91.4089C20.4301 91.1611 20.1451 91.0867 19.6989 91.1797C19.2528 91.254 18.4225 91.7745 17.1894 92.6606C15.9563 93.5591 15.2127 94.1973 15.0021 94.5939C14.779 94.978 14.7666 95.3003 14.9463 95.5481C15.126 95.8022 15.4482 95.8703 15.8696 95.796C16.3157 95.6968 17.146 95.2011 18.3729 94.315C19.6184 93.4166 20.3371 92.7597 20.5664 92.3632C20.7833 91.979 20.8081 91.6692 20.616 91.4089" fill="#F69322"/>
<path d="M25.3559 94.7304C25.895 95.3128 26.0561 96.0502 25.8206 96.9177C25.5852 97.7914 24.7735 98.8509 23.3793 100.14C21.9851 101.404 20.8512 102.11 19.9527 102.253C19.0604 102.395 18.3416 102.185 17.8211 101.602C17.2758 101.007 17.1271 100.289 17.3378 99.4148C17.5671 98.5535 18.3974 97.4692 19.8102 96.1803C21.2105 94.9348 22.3507 94.2099 23.2182 94.0735C24.1228 93.931 24.8292 94.1479 25.3497 94.7365M24.191 95.7961C23.9741 95.5731 23.6519 95.5297 23.2368 95.666C22.803 95.8085 22.0161 96.3848 20.8883 97.4196C19.7668 98.4482 19.1162 99.167 18.9365 99.5821C18.7568 99.9787 18.7692 100.301 18.9675 100.518C19.1843 100.772 19.5065 100.809 19.9403 100.666C20.3554 100.518 21.1362 99.9477 22.2453 98.9315C23.3917 97.8967 24.0423 97.1717 24.222 96.7752C24.3955 96.36 24.3769 96.0502 24.1848 95.8023" fill="#F69322"/>
<path d="M23.6392 107.005L22.4805 105.964L27.2393 100.548C26.3718 100.648 25.5353 100.579 24.7607 100.282L25.9195 98.9746C26.3532 99.1419 26.8985 99.1977 27.5615 99.1729C28.2121 99.1419 28.8008 98.9622 29.3213 98.6338L30.2879 99.4703L23.6392 106.999V107.005Z" fill="#F69322"/>
<path d="M27.7598 109.85L28.8132 108.257L30.1144 109.119L29.0796 110.717L27.766 109.85H27.7598ZM30.6721 105.401L31.7254 103.796L33.0515 104.676L31.9919 106.274L30.6783 105.401H30.6721Z" fill="#F69322"/>
<path d="M38.9621 113.964L38.2124 115.569L33.2305 113.227C33.5713 112.638 33.9988 112.149 34.5441 111.715C35.0646 111.306 35.9383 110.835 37.1528 110.308C38.107 109.899 38.7081 109.602 38.9807 109.416C39.3649 109.137 39.6437 108.827 39.8172 108.449C40.0031 108.065 40.0651 107.724 39.9783 107.433C39.8916 107.154 39.6995 106.95 39.4268 106.814C38.7948 106.516 38.2371 106.814 37.7352 107.737L36.4154 106.9C36.9235 106.02 37.506 105.463 38.1504 105.246C38.77 105.01 39.433 105.06 40.1332 105.388C40.914 105.76 41.3911 106.275 41.5584 106.981C41.7133 107.663 41.6328 108.35 41.3105 108.989C41.1247 109.348 40.9264 109.701 40.6599 110.005C40.3873 110.296 40.0837 110.569 39.6995 110.835C39.3215 111.083 38.7638 111.38 38.0079 111.69C37.3201 111.981 36.8677 112.186 36.6633 112.304C36.4526 112.409 36.2915 112.52 36.1366 112.644L38.9559 113.964H38.9621Z" fill="#F69322"/>
<path d="M45.0964 107.402C45.84 107.669 46.3295 108.233 46.5402 109.112C46.7757 109.974 46.5712 111.312 45.9577 113.09C45.3505 114.881 44.6751 116.059 43.9811 116.61C43.2499 117.161 42.5249 117.31 41.7752 117.062C41.0316 116.796 40.5607 116.232 40.3252 115.358C40.1145 114.497 40.3004 113.165 40.9325 111.343C41.5459 109.577 42.1965 108.406 42.8967 107.855C43.6155 107.303 44.3405 107.154 45.0902 107.396M44.5635 108.902C44.2723 108.809 43.9873 108.902 43.6713 109.243C43.3676 109.577 42.9587 110.457 42.463 111.895C41.9673 113.345 41.7442 114.293 41.7814 114.72C41.8371 115.179 41.9859 115.451 42.2771 115.55C42.5931 115.662 42.8905 115.544 43.1818 115.203C43.4916 114.894 43.8881 114.001 44.39 112.558C44.892 111.12 45.1212 110.178 45.084 109.732C45.0283 109.28 44.8548 108.995 44.5573 108.902" fill="#F69322"/>
<path d="M50.351 108.902C51.1379 109.075 51.6708 109.59 51.993 110.426C52.3152 111.269 52.2595 112.613 51.8381 114.46C51.4415 116.313 50.9025 117.546 50.2642 118.178C49.6074 118.804 48.9072 119.033 48.1327 118.859C47.3581 118.686 46.8066 118.184 46.5092 117.335C46.187 116.499 46.2428 115.142 46.6703 113.276C47.0669 111.455 47.5998 110.215 48.2318 109.59C48.8886 108.958 49.6012 108.728 50.3572 108.902M50.0288 110.445C49.7189 110.37 49.4215 110.525 49.1613 110.891C48.8886 111.25 48.6098 112.167 48.2566 113.654C47.922 115.148 47.8043 116.108 47.891 116.536C47.984 116.982 48.1699 117.236 48.4921 117.298C48.7957 117.366 49.0621 117.23 49.3472 116.876C49.6012 116.517 49.9048 115.581 50.227 114.113C50.5678 112.62 50.698 111.647 50.6112 111.225C50.5245 110.767 50.3324 110.525 50.0288 110.451" fill="#F69322"/>
<path d="M55.6995 109.794C56.474 109.88 57.0813 110.327 57.4903 111.132C57.8744 111.95 57.9736 113.295 57.7753 115.172C57.5584 117.043 57.1618 118.326 56.598 119.008C56.0155 119.72 55.3463 120.024 54.5594 119.937C53.7724 119.844 53.1838 119.404 52.7748 118.593C52.3658 117.799 52.2605 116.455 52.4774 114.546C52.6881 112.694 53.0908 111.411 53.6547 110.698C54.231 110.004 54.9126 109.701 55.6995 109.794ZM55.5198 111.374C55.2162 111.33 54.9311 111.504 54.7205 111.894C54.485 112.278 54.2991 113.233 54.107 114.751C53.9583 116.275 53.9335 117.229 54.076 117.669C54.2062 118.091 54.423 118.32 54.7391 118.351C55.0489 118.388 55.3215 118.221 55.5508 117.837C55.7739 117.44 55.9659 116.492 56.1332 114.986C56.3005 113.462 56.3315 112.489 56.189 112.068C56.0651 111.646 55.8358 111.411 55.526 111.374" fill="#F69322"/>
</g>
<defs>
<clipPath id="clip0_1370_14180">
<rect width="130" height="125.898" fill="white"/>
</clipPath>
</defs>
</svg>
