<svg width="130" height="130" viewBox="0 0 130 130" fill="none" xmlns="http://www.w3.org/2000/svg">
<g clip-path="url(#clip0_1370_14285)">
<path d="M130 65.0034C130 100.903 100.896 130 64.9966 130C29.0972 130 0 100.896 0 65.0034C0 29.1107 29.104 0 64.9966 0V31.0668C64.7733 31.0668 64.5567 31.0668 64.3333 31.0736C45.9031 31.4255 31.0668 46.4784 31.0668 64.9966C31.0668 83.5149 46.2618 98.9264 64.9966 98.9264C83.7314 98.9264 98.9264 83.7314 98.9264 64.9966H129.993L130 65.0034Z" fill="#005596"/>
<path d="M28.3332 89.1955L21.6514 93.8604L22.589 95.2034L29.2709 90.5386L28.3332 89.1955Z" fill="white"/>
<path d="M26.6132 95.8742C26.3492 96.2127 25.6318 97.1264 26.6132 98.2364C27.3712 99.1028 28.1225 99.0486 28.5151 98.7034C29.0295 98.2567 28.7655 97.7288 28.0481 96.3548C27.669 95.6103 26.823 93.9656 28.1767 92.7811C28.8467 92.199 30.2749 91.7185 31.8451 93.5189C32.8942 94.7169 33.3815 96.2262 32.0414 97.4919L30.9043 96.2939C31.1751 95.9622 31.6692 95.3666 30.8163 94.392C30.4915 94.0265 29.8011 93.4512 29.3002 93.8911C28.9077 94.2363 29.0701 94.771 29.6996 95.9622C30.2952 97.0926 31.1006 98.6222 29.598 99.942C28.8535 100.592 27.818 100.666 27.114 100.348C26.3763 100.023 25.8213 99.4209 25.5709 99.1366C24.9955 98.4801 23.6283 96.7947 25.4626 94.771L26.62 95.8742H26.6132Z" fill="white"/>
<path d="M37.1786 98.6763C39.243 100.362 39.0738 102.602 37.5712 104.45C36.2243 106.101 34.0855 107.028 31.8722 105.221C29.4965 103.286 30.2478 100.944 31.4391 99.4885C33.0838 97.4648 35.2226 97.0858 37.1854 98.6763M31.9805 102.155C31.8926 102.697 31.9941 103.489 32.7589 104.118C33.429 104.666 34.7894 105.174 36.2785 103.346C36.8605 102.636 37.8487 101.045 36.2988 99.7796C34.8503 98.6019 33.5373 99.5968 32.7792 100.524C32.1971 101.242 32.0347 101.783 31.9738 102.155" fill="white"/>
<path d="M41.8219 109.16C41.7543 109.343 41.5377 110.02 42.2416 110.372C43.223 110.853 43.9337 109.627 44.3601 108.897V108.869C43.6291 109.201 43.0403 108.978 42.7763 108.849C41.6189 108.281 41.0977 106.859 41.8084 105.411C42.5259 103.949 43.9743 103.401 45.3686 104.091C46.0116 104.409 46.9997 105.181 46.8035 106.886C46.7155 107.638 46.4312 108.342 46.0996 109.025C45.7747 109.688 44.245 112.809 41.5783 111.502C40.9218 111.184 40.4141 110.629 40.2855 109.878C40.1975 109.357 40.3261 108.897 40.4006 108.666L41.8219 109.174V109.16ZM44.7323 105.215C43.8321 104.775 43.2907 105.878 43.1892 106.081C43.1012 106.257 42.5191 107.448 43.487 107.929C43.6697 108.017 44.4819 108.328 45.0572 107.15C45.4159 106.426 45.4024 105.546 44.7256 105.215" fill="white"/>
<path d="M52.5359 108.639C52.563 109.607 52.2516 110.596 52.0757 111.137C51.9132 111.631 51.5748 112.612 50.9589 113.371C50.3565 114.129 49.4834 114.657 48.2583 114.244C47.0129 113.831 46.6203 112.897 46.5933 111.936C46.5594 110.961 46.8843 109.98 47.0671 109.438C47.243 108.924 47.5815 107.942 48.1771 107.191C48.7862 106.447 49.6526 105.932 50.8844 106.345C52.1163 106.758 52.5021 107.678 52.5427 108.639M48.617 109.98C47.9334 112.03 47.9605 112.775 48.6644 113.005C49.3751 113.242 49.8489 112.653 50.5325 110.616C51.2161 108.565 51.189 107.814 50.4783 107.577C49.7744 107.34 49.3074 107.915 48.6238 109.98" fill="white"/>
<path d="M58.4512 109.871C58.6068 110.825 58.4309 111.848 58.3293 112.409C58.2346 112.924 58.0248 113.939 57.5239 114.771C57.0298 115.604 56.2379 116.24 54.9587 115.997C53.6727 115.753 53.1583 114.88 53.0026 113.932C52.8402 112.971 53.0297 111.956 53.138 111.394C53.2395 110.859 53.4493 109.844 53.9367 109.018C54.4375 108.199 55.2294 107.577 56.5086 107.814C57.7811 108.057 58.2887 108.917 58.4579 109.864M54.7421 111.719C54.336 113.844 54.4646 114.575 55.1888 114.711C55.9266 114.853 56.3124 114.21 56.7185 112.098C57.1246 109.973 56.996 109.228 56.2582 109.093C55.534 108.951 55.1414 109.587 54.7353 111.719" fill="white"/>
<path d="M61.1519 116.653L61.5309 110.778C61.1722 111.076 60.4615 111.563 59.4463 111.827L59.541 110.419C59.7035 110.372 61.4023 109.844 61.9777 108.504L63.2501 108.585L62.7222 116.755L61.1519 116.653Z" fill="white"/>
<path d="M69.0371 110.703L70.5871 110.534L70.7563 112.084L69.2063 112.253L69.0371 110.703ZM69.5041 115.015L71.0541 114.846L71.2233 116.396L69.6733 116.565L69.5041 115.015Z" fill="white"/>
<path d="M81.8771 113.979L76.6248 115.516C76.4082 114.324 76.7467 113.336 77.8364 111.495C78.6012 110.216 78.9667 109.6 78.7569 108.842C78.4658 107.894 77.7145 108.023 77.437 108.098C76.7399 108.301 76.5436 108.822 76.7264 109.634L75.1832 109.918C75.1155 109.532 74.9869 108.686 75.4539 107.962C75.86 107.36 76.5707 106.994 77.1054 106.839C78.9193 106.311 79.9346 107.319 80.2256 108.301C80.6249 109.668 79.9007 110.873 79.3389 111.8C78.7839 112.734 78.5944 113.038 78.4929 113.445L81.4777 112.571L81.8838 113.972L81.8771 113.979Z" fill="white"/>
<path d="M85.1796 105.491C85.8497 106.195 86.2896 107.129 86.5198 107.651C86.7296 108.131 87.1357 109.079 87.1898 110.053C87.2575 111.021 86.9665 111.996 85.7753 112.517C84.5773 113.045 83.6568 112.618 82.9935 111.928C82.3166 111.231 81.897 110.283 81.6669 109.762C81.4435 109.261 81.0374 108.307 80.9765 107.353C80.9291 106.392 81.2201 105.43 82.4114 104.903C83.5958 104.381 84.5028 104.801 85.1796 105.485M83.1762 109.119C84.0493 111.096 84.5705 111.63 85.2473 111.333C85.9309 111.028 85.8903 110.277 85.024 108.307C84.1508 106.331 83.6297 105.789 82.9393 106.087C82.2625 106.385 82.3031 107.129 83.1762 109.119Z" fill="white"/>
<path d="M91.2581 109.546L88.2326 104.497C88.104 104.943 87.7994 105.749 87.1158 106.547L86.3916 105.336C86.4999 105.207 87.5964 103.806 87.3121 102.371L88.4086 101.715L92.6117 108.734L91.2648 109.539L91.2581 109.546Z" fill="white"/>
<path d="M94.2494 104.849C94.8315 105.417 95.4271 105.35 95.84 105.032C96.2934 104.686 96.5033 103.976 95.7926 103.055C95.3188 102.439 94.6623 102.087 93.938 102.642C93.6605 102.859 93.4033 103.197 93.3492 103.854L92.2392 104.483L90.2764 100.632L93.5523 98.1143L94.4389 99.2716L92.1038 101.072L92.7604 102.317C92.8551 102.101 93.0176 101.789 93.4372 101.465C94.5269 100.625 96.0769 100.808 97.0718 102.101C97.8637 103.13 98.1209 104.916 96.6116 106.074C95.4677 106.954 94.1208 106.947 93.0988 105.932L94.2359 104.856L94.2494 104.849Z" fill="white"/>
<path d="M86.7976 30.2071C89.5049 24.5961 95.2512 20.7246 101.898 20.7246C111.157 20.7246 118.656 28.2307 118.656 37.4898C118.656 41.5712 117.194 45.3141 114.771 48.2245C114.568 48.4681 114.967 48.8336 115.211 48.5561C117.939 45.4901 119.59 41.4493 119.59 37.0228C119.59 27.4253 111.813 19.6484 102.216 19.6484C95.055 19.6484 88.9093 23.9734 86.2493 30.1597C86.2493 30.1597 86.2019 30.4169 86.4253 30.4169C86.6487 30.4169 86.7637 30.268 86.7908 30.2139" fill="#005596"/>
<path d="M78.2624 40.4346H81.2744L82.6483 45.5515L83.8463 40.4346H86.8109L84.3337 50.2284H81.3962L79.9816 45.186L78.7768 50.2284H75.792" fill="#005596"/>
<path d="M62.8913 43.3991L58.4851 43.4262L56.82 50.2284H53.49L55.0806 43.3991L52.8809 43.4262L53.5915 40.4346H63.629L62.8913 43.3991Z" fill="#005596"/>
<path d="M64.8276 40.4346H69.7211L70.2626 45.7748L72.5368 40.4346H75.9886L71.1696 50.2284H68.0832L66.831 43.3788L64.0898 43.3923L64.8276 40.4346Z" fill="#005596"/>
<path d="M106.906 40.4346H103.529L101.322 49.1252L100.097 46.4787C102.175 46.0117 102.25 43.9338 102.25 43.9338C102.52 40.949 99.6574 40.4346 99.6574 40.4346H95.813L93.3154 50.2284H96.4966L97.2817 46.6073L98.5068 50.2284H104.625C108.03 50.2284 109.817 47.8053 109.986 43.6698C110.108 40.7324 106.9 40.4413 106.9 40.4413M99.2377 43.6698C99.1159 44.3061 98.4526 44.455 98.4526 44.455H97.8435L98.1142 43.0336H98.8723C98.8723 43.0336 99.3596 43.0336 99.2377 43.6698ZM106.433 46.6073C106.013 47.8053 104.747 47.6632 104.747 47.6632L105.898 43.0336C106.9 43.0336 106.974 43.548 107.021 43.9406C107.069 44.3331 106.852 45.4093 106.433 46.6073Z" fill="#005596"/>
<path d="M91.3597 40.2383C87.0483 40.2383 85.9518 45.186 85.9518 45.186C85.9518 45.186 84.7065 50.4247 88.8148 50.4247C93.2955 50.4247 94.2228 45.3822 94.2228 45.3822C94.2228 45.3822 95.6644 40.2383 91.3597 40.2383ZM91.3868 45.0371C91.1905 46.3095 90.4596 47.9745 89.5729 47.9745C88.6862 47.9745 88.5915 46.7494 88.9367 45.1318C89.2886 43.4668 89.9181 42.6817 90.7506 42.6817C91.5831 42.6817 91.5831 43.7578 91.3868 45.0303" fill="#005596"/>
<path d="M59.9948 43.9404H62.7834L61.978 47.4532C61.978 47.4532 61.9171 47.8932 62.4315 47.8932C62.9459 47.8932 63.1083 47.4735 63.1083 47.4735L63.9611 43.9404H66.7497L65.8292 48.2383C65.8292 48.2383 65.2809 50.7359 61.9374 50.7359C58.5938 50.7359 59.0337 47.9811 59.0337 47.9811L59.9881 43.9404H59.9948Z" fill="#005596"/>
<path d="M80.3542 54.2549H81.0446L79.9549 59.4936H79.251L80.3542 54.2549Z" fill="#010101"/>
<path d="M81.7548 55.7032H82.3436L82.2015 56.3462L82.215 56.3598C82.4316 56.1229 82.9325 55.6152 83.589 55.6152C83.8665 55.6152 84.5772 55.7235 84.5772 56.529C84.5772 56.732 84.5163 57.0095 84.4824 57.1923L84.0087 59.4935H83.3589L83.8665 57.084C83.9207 56.8471 83.941 56.6914 83.941 56.5696C83.941 56.2244 83.6499 56.1364 83.4333 56.1364C83.0137 56.1364 82.655 56.3598 82.4452 56.6034C82.2556 56.8065 82.0864 57.2126 81.9781 57.7202L81.6127 59.4867H80.9629L81.7616 55.6965L81.7548 55.7032Z" fill="#010101"/>
<path d="M88.3337 54.2549H88.9767L87.887 59.4936H87.2846L87.3996 58.9589L87.3861 58.9454C87.0951 59.2973 86.7228 59.5816 86.2355 59.5816C85.7075 59.5816 84.9766 59.2364 84.9766 58.0249C84.9766 56.6983 85.8497 55.6153 86.8379 55.6153C87.2169 55.6153 87.623 55.7642 87.9005 56.2989H87.914L88.3337 54.2549ZM86.4318 59.0604C87.1357 59.0604 87.7042 58.1128 87.7042 57.1111C87.7042 56.4072 87.2643 56.1433 86.8785 56.1433C85.9647 56.1433 85.6263 57.4902 85.6263 57.9098C85.6263 58.1332 85.6263 59.0604 86.4318 59.0604Z" fill="#010101"/>
<path d="M90.9198 55.6152C91.8268 55.6152 92.4495 56.2176 92.4495 57.2058C92.4495 58.6204 91.529 59.5815 90.4054 59.5815C89.5865 59.5815 88.8555 59.0739 88.8555 58.0518C88.8555 56.7591 89.6 55.6152 90.9198 55.6152ZM90.4122 59.0874C91.2921 59.0874 91.7997 58.0112 91.7997 57.199C91.7997 56.6305 91.5154 56.1161 90.8927 56.1161C89.9519 56.1161 89.4917 57.1855 89.4917 57.9909C89.4917 58.9994 90.1956 59.0874 90.4054 59.0874" fill="#010101"/>
<path d="M93.4374 55.7032H94.0262L93.8841 56.3462L93.8976 56.3598C94.1142 56.1229 94.6151 55.6152 95.2716 55.6152C95.5491 55.6152 96.2598 55.7235 96.2598 56.529C96.2598 56.732 96.1989 57.0095 96.1651 57.1923L95.6913 59.4935H95.0415L95.5491 57.084C95.5965 56.8471 95.6236 56.6914 95.6236 56.5696C95.6236 56.2244 95.3325 56.1364 95.116 56.1364C94.6963 56.1364 94.3376 56.3598 94.1278 56.6034C93.9383 56.8065 93.7691 57.2126 93.6608 57.7202L93.2953 59.4867H92.6455L93.4442 55.6965L93.4374 55.7032Z" fill="#010101"/>
<path d="M99.9282 58.2753C99.7726 58.7964 99.1296 59.5883 98.1414 59.5883C97.3224 59.5883 96.6523 59.0333 96.6523 57.9775C96.6523 57.0096 97.2615 55.6221 98.6625 55.6221C99.8267 55.6221 100.158 56.5358 100.158 57.1923C100.158 57.4766 100.131 57.6255 100.104 57.7676H97.3089C97.3021 57.8421 97.2953 57.8827 97.2953 57.9639C97.2953 58.6949 97.6879 59.0604 98.1346 59.0604C98.4121 59.0604 98.9942 58.9047 99.292 58.2144L99.9215 58.282L99.9282 58.2753ZM99.5492 57.2668C99.556 57.1653 99.556 57.084 99.5492 56.9757C99.5018 56.3598 99.089 56.1229 98.6829 56.1229C97.9383 56.1229 97.5661 56.7862 97.4172 57.2736H99.5492V57.2668Z" fill="#010101"/>
<path d="M101.032 58.1534C101.032 58.3564 101.045 59.0806 101.966 59.0806C102.433 59.0806 102.819 58.8708 102.819 58.5053C102.819 58.1669 102.487 58.0045 102.034 57.8082C101.384 57.5239 100.903 57.3276 100.903 56.7049C100.903 56.2515 101.248 55.6152 102.257 55.6152C102.812 55.6152 103.705 55.8183 103.732 56.8132L103.089 56.8471C103.062 56.1229 102.331 56.1093 102.21 56.1093C101.742 56.1093 101.499 56.3733 101.499 56.5899C101.499 56.8877 101.742 56.9892 102.216 57.199C102.913 57.4968 103.462 57.7337 103.462 58.4241C103.462 58.9723 102.981 59.5815 101.918 59.5815C101.56 59.5815 100.321 59.4935 100.369 58.194L101.018 58.1534H101.032Z" fill="#010101"/>
<path d="M104.652 55.7033H105.302L104.503 59.4936H103.86L104.652 55.7033ZM104.95 54.2549H105.6L105.444 54.9859H104.794L104.95 54.2549Z" fill="#010101"/>
<path d="M105.762 56.7794C105.809 56.6576 105.864 56.5019 106.006 56.3056C106.425 55.71 107.068 55.6152 107.502 55.6152C108.287 55.6152 108.936 55.9672 108.936 56.5967C108.936 56.6305 108.93 56.9012 108.842 57.3073L108.632 58.2414C108.578 58.485 108.537 58.7287 108.537 58.9791C108.537 59.1416 108.557 59.2498 108.598 59.4394C108.605 59.4461 108.612 59.4867 108.612 59.4935H107.962C107.901 59.3108 107.887 59.1009 107.881 59.0197C107.677 59.2025 107.238 59.5815 106.574 59.5815C105.911 59.5815 105.403 59.1889 105.403 58.485C105.403 57.3276 106.689 57.2667 107.122 57.2532C107.677 57.2329 107.948 57.2193 108.212 57.111C108.266 56.9418 108.293 56.7456 108.293 56.6711C108.293 56.1635 107.65 56.1364 107.474 56.1364C107.055 56.1364 106.622 56.2853 106.425 56.8335L105.769 56.7726L105.762 56.7794ZM107.116 57.7337C106.696 57.7676 106.04 57.8488 106.04 58.458C106.04 58.7355 106.209 59.0874 106.757 59.0874C107.15 59.0874 107.549 58.8844 107.786 58.5324C107.969 58.2684 108.043 57.9571 108.111 57.5713C107.867 57.666 107.698 57.6796 107.116 57.7337Z" fill="#010101"/>
</g>
<defs>
<clipPath id="clip0_1370_14285">
<rect width="130" height="130" fill="white"/>
</clipPath>
</defs>
</svg>
