<svg width="128" height="130" viewBox="0 0 128 130" fill="none" xmlns="http://www.w3.org/2000/svg">
<g clip-path="url(#clip0_1370_14498)">
<path d="M17.875 118.691H110.5V0H17.875V118.691ZM109.098 117.063H19.522V1.39565H109.098V117.068V117.063Z" fill="#0A57A4"/>
<path d="M61.3467 75.0543L61.1965 75.2814C56.6841 70.6403 52.7725 66.5254 48.3936 62.0228L48.2656 44.8762L60.4621 57.9078H61.5749L87.292 24.5674L87.4533 39.5872L61.3579 75.0543H61.3467Z" fill="#0A57A4"/>
<path d="M65.4862 5.82079C65.1134 6.34138 64.2343 5.59372 64.6071 6.70691C65.0411 7.27735 65.4862 6.4743 65.9981 6.9229L66.1484 8.68961L64.902 8.82807C64.5348 10.4508 66.2318 11.1929 66.6658 12.356C66.4433 12.7326 65.9981 12.5166 65.6142 12.5886C64.902 12.068 64.0674 11.3369 63.7224 10.9658C62.8989 11.2538 63.2606 12.212 63.1271 12.5886C62.9713 12.5886 62.7487 12.5886 62.604 12.356L62.2313 12.7326C64.1564 13.4691 65.9981 12.5886 67.5505 14.1393C68.8135 14.6433 69.4812 13.1701 70.4383 13.4691C71.7069 11.3369 73.4762 13.9177 74.8728 12.8766C75.6907 14.1891 79.3686 13.4691 78.2057 15.8894C78.8622 15.1528 79.669 15.8174 80.1921 16.4044C80.5649 17.8832 79.1683 16.1884 79.0848 17.5176C79.7581 17.7392 80.5092 17.6616 80.8542 18.3982C80.5092 19.6499 80.8542 20.752 81.2325 22.0756C80.7874 22.0756 80.0418 22.1532 79.6746 22.5907C80.1197 23.0282 80.6372 23.6208 80.1921 24.2023C79.7525 24.7949 78.8678 25.0165 79.452 25.8195C78.5006 27.9517 78.0499 30.5326 77.0205 32.5264C76.6533 32.4433 75.6907 32.3159 75.5405 32.8919C75.4626 33.2685 75.6907 33.7005 76.1303 33.7891H76.7813C76.2805 35.3952 74.8728 34.5921 73.7656 34.8081C73.2481 33.8389 71.5288 35.4617 71.0948 33.922C70.2213 34.4481 69.7761 32.615 69.0361 33.7891C65.4195 32.7424 61.8585 33.4789 58.1584 33.7891C57.2848 35.6887 55.7269 32.8919 54.831 34.8081C53.9575 34.6641 53.4456 35.9213 52.7056 34.9466C51.3702 34.5921 53.2842 32.8199 51.4425 33.047C50.6357 31.2747 50.4855 29.7351 49.3171 28.1068C49.8178 27.6804 48.3934 26.1241 49.1668 25.2546C47.62 25.0165 47.9872 23.5488 48.399 22.5962C47.4642 22.8178 47.1749 21.4886 47.5366 20.8129C48.4936 20.1649 46.4182 18.1047 48.6382 17.6672C47.9872 17.0746 48.0429 16.6315 48.7829 16.122C49.8234 16.41 50.2685 14.7983 51.0809 16.122C51.4481 15.8229 51.2144 15.2414 51.2867 14.8703C50.9362 14.3553 50.5467 14.9423 50.185 15.0254C49.8902 15.0254 50.1183 14.4328 50.0348 14.1448C51.1532 13.7682 51.2812 13.9897 52.1825 14.6488C52.1825 13.9233 51.9656 13.1756 53.0728 12.7381C53.8963 12.4446 53.8963 13.4747 54.2635 13.7682C54.7698 13.2421 55.2873 12.3615 56.389 12.7381C57.0678 13.0316 56.8452 13.6851 57.1346 14.1448C57.2848 12.2175 58.6869 14.1448 59.5549 13.7682C59.4937 14.0617 59.8721 14.1448 59.9444 14.3553C62.3091 13.9233 61.0405 10.5948 63.1326 9.5702C63.1938 8.91115 62.3926 8.61762 62.0866 8.45701L62.2368 6.71245C62.6931 6.84537 63.2662 6.9949 63.3496 6.40231C63.0603 5.51618 63.8671 6.04232 64.2454 5.51618C64.7629 5.36665 65.0522 5.74325 65.4974 5.82632M56.0218 15.8949C53.963 14.7319 52.2549 17.1576 50.9362 18.4038C49.3783 21.4886 52.1102 23.7039 52.7167 26.3512H53.0784C53.5903 25.5371 54.2691 25.0275 55.0035 24.7395C54.8422 24.7395 54.781 24.8005 54.6252 24.9555C54.2691 24.0639 54.4805 23.1833 55.1482 22.2972C56.3945 22.3858 56.478 23.4768 57.2959 24.2134L57.1457 24.3796C58.4644 24.5845 60.2504 25.1106 60.473 23.1888C61.43 23.1113 61.2075 24.1469 61.7138 24.5845C62.2424 24.9611 63.0659 25.3321 63.3496 24.5845C62.2368 23.9199 61.8028 22.9008 60.6956 22.4578L61.0461 22.0922L61.3577 22.4578L61.7138 21.9427C61.43 20.2535 62.5428 18.0548 60.6956 17.0136C59.0709 17.3127 57.5129 16.4986 56.0218 15.906M70.4438 16.2937C69.1251 17.3847 67.8621 17.3847 66.1595 17.5398C66.0872 17.7613 66.2986 18.1268 66.0093 18.1933C66.1595 19.672 65.4974 21.7378 67.2723 22.3082L65.4974 24.7562C67.1944 25.1881 66.2429 22.8399 67.7898 22.9839C68.157 23.4934 68.5187 24.158 68.157 24.7562L71.1059 24.3906C70.3659 23.3439 72.0018 23.3439 72.2188 22.4633C74.8784 21.7378 72.6027 25.4817 74.3665 26.1463C74.9618 25.4097 75.3291 26.9549 75.9133 26.1463L75.7686 26.0023C77.1875 23.3439 78.3448 20.3422 76.7924 17.3183C74.9618 16.4266 72.6027 15.042 70.4494 16.2992M77.3321 24.9722L76.67 25.8472L77.6994 26.8939L77.9164 26.7333C77.4879 26.2183 77.2654 25.2823 77.3321 24.9722ZM50.7136 25.6312L51.092 26.3678C51.3869 25.7143 51.9767 26.8884 51.9767 26.0023H51.8264C51.4537 26.4398 51.0085 25.9303 50.7136 25.6312ZM68.6856 26.8884C68.5242 27.625 68.246 28.2785 67.5672 28.788C66.7604 28.5056 66.8272 27.0324 65.6365 27.625C65.7255 28.7216 66.9885 29.2975 67.9455 29.5302C69.2698 29.4526 69.9486 28.1954 70.6107 27.4035C70.1767 26.7333 70.0822 27.913 69.5814 27.625C69.2754 27.3204 68.9805 27.0379 68.6911 26.8884M57.8134 27.4035C57.8857 28.9376 59.4492 29.0982 60.1892 30.2667C61.3744 30.1892 62.0421 28.5056 62.8544 27.7634C61.8195 27.4035 61.4467 28.3505 60.4897 28.6496C59.6773 27.6194 59.0152 27.3148 57.8189 27.3979M72.6249 27.3979L72.9143 29.1536C73.4317 29.4526 73.4317 30.3997 74.1606 30.0397C74.4666 28.932 76.4586 28.8766 75.9355 27.9074C75.1399 27.9074 74.322 27.9074 73.7989 28.6496C73.0589 28.3505 73.8768 26.8884 72.6249 27.3979ZM54.8644 28.5C54.1355 28.644 53.2453 28.1234 52.3662 28.1234V28.7825C53.173 29.2311 53.6904 30.3997 54.8644 30.0341C56.2833 30.0341 55.5377 28.417 55.7602 27.6139C54.8644 27.3093 55.5377 28.3394 54.8644 28.5ZM64.9354 31.4353L63.5166 31.2913C63.2884 31.6513 62.4204 31.2913 62.6374 32.0335H64.9354V31.4353ZM56.2833 31.6513V32.1775C57.2403 33.2131 58.1917 32.4654 59.3101 32.1775C58.7203 31.2193 57.2458 31.8008 56.2833 31.6513ZM71.8682 31.8008L69.7316 31.6513V32.3325H71.8682V31.8008ZM63.8949 15.5405H64.2733C64.5682 15.4685 64.3345 15.0974 64.4235 14.8759C63.8949 14.2888 63.8226 15.2525 63.8949 15.5405ZM64.0396 16.4211C63.9617 16.7977 63.5221 17.0912 64.0396 17.3127C64.3345 17.3847 64.4235 17.0912 64.6405 17.0136L64.0396 16.4211ZM64.2176 17.717C64.0396 17.6284 63.8949 17.789 63.7447 17.9552C63.5944 18.1158 63.5221 18.5588 63.5221 18.5588C63.5221 18.5588 64.0006 18.4702 64.2232 18.3761C64.4346 18.2819 64.6461 18.0493 64.6461 18.0493C64.6461 18.0493 64.4068 17.7835 64.2232 17.7115M64.2733 20.8184V21.5716C64.4235 21.6436 64.4903 21.4941 64.6461 21.4277C64.7073 21.123 64.3345 21.0511 64.2733 20.8184Z" fill="#0A57A4"/>
<path d="M40.8099 81.1631V88.0029C40.8099 90.0686 41.6 91.1098 42.9799 91.1098C44.3598 91.1098 45.1721 90.1074 45.1721 88.0029V81.1631H47.8763V87.8478C47.8763 91.5197 46.0234 93.2698 42.8909 93.2698C39.7583 93.2698 38.1113 91.5861 38.1113 87.809V81.1686H40.8043L40.8099 81.1631Z" fill="#0A57A4"/>
<path d="M53.7686 81.1631H56.4449V86.4355H56.4783C56.7453 85.9592 57.0235 85.5439 57.3073 85.123L60.0114 81.1631H63.3387L59.3938 86.2306L63.5391 93.0593H60.4009L57.4575 87.9253L56.4449 89.177V93.0538H53.7686V81.1631Z" fill="#0A57A4"/>
<path d="M71.2007 90.0022L70.3772 93.0538H67.5674L71.223 81.1631H74.7562L78.4896 93.0538H75.5741L74.6449 90.0022H71.2063H71.2007ZM74.2498 87.9973L73.5098 85.4663C73.2984 84.763 73.0869 83.8602 72.9256 83.1735H72.8477C72.703 83.8768 72.5083 84.774 72.3247 85.4663L71.5902 87.9973H74.2498Z" fill="#0A57A4"/>
<path d="M83.7205 90.3125C84.4271 90.6891 85.5733 91.0601 86.7084 91.0601C87.9547 91.0601 88.6168 90.5395 88.6168 89.7365C88.6168 89.0221 88.0438 88.579 86.5971 88.0805C84.6385 87.3716 83.3087 86.2862 83.3087 84.5194C83.3087 82.498 85.0336 80.9639 87.8212 80.9639C89.1844 80.9639 90.1692 81.2352 90.8703 81.562L90.2805 83.7164C89.8076 83.4949 88.9451 83.1459 87.7934 83.1459C86.6416 83.1459 86.0518 83.7053 86.0518 84.2924C86.0518 85.0622 86.7084 85.4 88.2774 85.9871C90.3807 86.7791 91.3655 87.8756 91.3655 89.5703C91.3655 91.5531 89.8465 93.2588 86.5581 93.2588C85.1894 93.2588 83.8429 92.8767 83.1641 92.5167L83.726 90.3125H83.7205Z" fill="#0A57A4"/>
<path d="M49.779 104.385C48.9332 104.147 48.2266 103.876 47.4087 103.554C47.2585 103.494 47.136 103.477 47.0081 103.466C45.6449 103.383 44.3818 102.397 44.3818 100.447C44.3818 98.6475 45.5058 97.3184 47.3085 97.3184C49.1113 97.3184 50.1351 98.7029 50.1351 100.32C50.1351 101.683 49.5008 102.635 48.7274 102.99V103.012C49.1725 103.139 49.7011 103.261 50.1685 103.35L49.7845 104.391L49.779 104.385ZM47.264 102.391C48.1932 102.391 48.7051 101.544 48.7051 100.37C48.7051 99.2789 48.1988 98.3817 47.264 98.3817C46.3293 98.3817 45.8229 99.2789 45.8229 100.392C45.8229 101.505 46.3571 102.386 47.264 102.386" fill="#0A57A4"/>
<path d="M53.2455 97.4072V100.835C53.2455 101.866 53.6573 102.386 54.3305 102.386C55.0483 102.386 55.4489 101.893 55.4489 100.835V97.4072H56.7898V100.752C56.7898 102.602 55.8662 103.466 54.2971 103.466C52.7281 103.466 51.9102 102.63 51.9102 100.736V97.4072H53.2455Z" fill="#0A57A4"/>
<path d="M59.9558 101.832L59.5385 103.366H58.1475L59.9836 97.4072H61.7474L63.6002 103.366H62.1425L61.6751 101.832H59.9613H59.9558ZM61.4803 100.835L61.1131 99.5616C61.0241 99.2182 60.9072 98.7586 60.8182 98.4152H60.7904C60.7069 98.7696 60.6068 99.2182 60.5289 99.5616L60.1617 100.835H61.4803Z" fill="#0A57A4"/>
<path d="M65.292 97.4072H66.6385V102.231H69.0255V103.366H65.292V97.4072Z" fill="#0A57A4"/>
<path d="M72.0634 97.4072H70.7002V103.366H72.0634V97.4072Z" fill="#0A57A4"/>
<path d="M75.2796 98.5426H73.666V97.4072H78.2619V98.5426H76.6261V103.366H75.2796V98.5426Z" fill="#0A57A4"/>
<path d="M81.5279 103.366V100.918L79.625 97.4014H81.1885L81.7894 98.8469C81.9619 99.2844 82.1121 99.5945 82.2345 99.9711H82.2624C82.407 99.6001 82.5517 99.2567 82.7297 98.8469L83.3307 97.4014H84.833L82.8744 100.89V103.361H81.5279V103.366Z" fill="#0A57A4"/>
<path d="M36.6148 109.918C36.5981 109.204 36.5703 108.351 36.5703 107.47H36.5313C36.3477 108.229 36.0973 109.076 35.8803 109.769L35.1348 112.1H34.0943L33.4489 109.808C33.2541 109.099 33.0594 108.257 32.9091 107.47H32.8924C32.8646 108.273 32.8257 109.198 32.8034 109.929L32.6754 112.2H31.418L31.8019 106.235H33.6046L34.2 108.24C34.3781 108.91 34.5505 109.658 34.7008 110.367H34.7342C34.8955 109.68 35.0847 108.905 35.3017 108.213L35.936 106.235H37.7109L38.0225 112.2H36.7094L36.6037 109.918H36.6148Z" fill="#0A57A4"/>
<path d="M41.339 110.655L40.9161 112.2H39.5195L41.3501 106.235H43.1195L44.9723 112.2H43.509L43.0416 110.655H41.339ZM42.8524 109.658L42.474 108.406C42.3795 108.046 42.2682 107.592 42.1736 107.249H42.1625C42.079 107.592 41.9844 108.046 41.8954 108.406L41.5226 109.658H42.8524Z" fill="#0A57A4"/>
<path d="M46.652 112.2V106.235H48.2322L49.473 108.429C49.8403 109.054 50.1574 109.796 50.4523 110.472H50.469C50.3855 109.686 50.3522 108.883 50.3522 107.98V106.235H51.6096V112.2H50.1741L48.8944 109.896C48.5494 109.259 48.1599 108.489 47.8595 107.797H47.8205C47.8706 108.584 47.8873 109.431 47.8873 110.4V112.195H46.6465L46.652 112.2Z" fill="#0A57A4"/>
<path d="M55.0489 110.655L54.6372 112.2H53.2295L55.0601 106.235H56.8183L58.6823 112.2H57.2245L56.7682 110.655H55.0434H55.0489ZM56.5568 109.658L56.1896 108.406C56.0894 108.046 55.9948 107.592 55.9002 107.249H55.8669C55.7834 107.592 55.6888 108.046 55.6053 108.406L55.2381 109.658H56.5512H56.5568Z" fill="#0A57A4"/>
<path d="M65.1308 111.918C64.7302 112.067 63.9234 112.267 63.1333 112.267C62.0594 112.267 61.2526 111.979 60.7241 111.458C60.1788 110.937 59.8672 110.162 59.8672 109.276C59.8783 107.315 61.3138 106.186 63.2835 106.186C64.0625 106.186 64.6412 106.324 64.9527 106.462L64.6634 107.542C64.3296 107.387 63.9234 107.277 63.2835 107.277C62.1485 107.277 61.2972 107.925 61.2972 109.209C61.2972 110.494 62.065 111.159 63.1889 111.159C63.4838 111.159 63.7342 111.126 63.8344 111.081V109.819H62.9219V108.772H65.1364V111.907L65.1308 111.918Z" fill="#0A57A4"/>
<path d="M70.6505 109.68H68.4416V111.092H70.8898V112.2H67.084V106.235H70.7785V107.343H68.4416V108.578H70.6505V109.68Z" fill="#0A57A4"/>
<path d="M77.7665 109.918C77.7386 109.204 77.7053 108.351 77.7053 107.47H77.6886C77.505 108.229 77.2546 109.076 77.0153 109.769L76.2864 112.1H75.2404L74.6061 109.808C74.4058 109.099 74.2166 108.257 74.0664 107.47H74.0441C74.0163 108.273 73.9829 109.198 73.9495 109.929L73.8327 112.2H72.5752L72.9536 106.235H74.7563L75.3461 108.24C75.5353 108.91 75.7133 109.658 75.8469 110.367H75.8914C76.0416 109.68 76.2475 108.905 76.4478 108.213L77.0988 106.235H78.8626L79.1853 112.195H77.8611L77.7665 109.918Z" fill="#0A57A4"/>
<path d="M84.6498 109.68H82.4631V111.092H84.9113V112.195H81.1055V106.235H84.7889V107.343H82.4631V108.578H84.6498V109.68Z" fill="#0A57A4"/>
<path d="M86.7305 112.195V106.235H88.2995L89.5459 108.429C89.902 109.054 90.2414 109.796 90.5196 110.472H90.5474C90.4584 109.686 90.4306 108.883 90.4306 107.98V106.235H91.6936V112.195H90.2581L88.9784 109.902C88.6389 109.265 88.2328 108.495 87.949 107.803H87.9045C87.9546 108.589 87.9768 109.436 87.9768 110.406V112.195H86.7416H86.7305Z" fill="#0A57A4"/>
<path d="M94.882 107.376H93.2852V106.235H97.8755V107.376H96.2452V112.195H94.882V107.376Z" fill="#0A57A4"/>
<path d="M55.7496 130C53.5129 130 52.5225 128.001 52.5225 125.575C52.5225 123.149 53.5741 121.111 55.7941 121.111C58.0142 121.111 59.0213 123.155 59.0213 125.509C59.0213 128.173 57.9586 130.006 55.7663 130.006H55.7441L55.7496 130ZM55.783 128.466C56.5675 128.466 56.996 127.503 56.996 125.542C56.996 123.581 56.5675 122.623 55.7719 122.623C54.9762 122.623 54.5367 123.592 54.5367 125.542C54.52 127.525 54.9985 128.466 55.7719 128.466H55.783Z" fill="#0A57A4"/>
<path d="M64.4681 130C62.2313 130 61.2409 128.001 61.2354 125.575C61.2354 123.066 62.287 121.111 64.5237 121.111C66.7605 121.111 67.7397 123.155 67.7397 125.509C67.7397 128.173 66.6659 130.006 64.4681 130.006M64.4959 128.472C65.2693 128.472 65.7033 127.508 65.7033 125.547C65.7033 123.587 65.2916 122.629 64.4681 122.629C63.7336 122.629 63.2495 123.598 63.2495 125.547C63.244 127.53 63.7225 128.472 64.4681 128.472H64.4959Z" fill="#0A57A4"/>
<path d="M75.8468 122.894H72.4805L72.2914 124.206C72.4805 124.206 72.6475 124.179 72.8533 124.179C73.6768 124.179 74.5337 124.367 75.129 124.794C75.8023 125.231 76.1862 125.962 76.1862 126.965C76.1862 128.582 74.8063 129.988 72.4638 129.988C71.4178 129.988 70.5554 129.745 70.0713 129.496L70.4274 127.989C70.8002 128.172 71.607 128.41 72.3748 128.41C73.2206 128.41 74.1219 128.017 74.1219 127.103C74.1219 126.189 73.393 125.669 71.6849 125.669C71.1952 125.669 70.8614 125.691 70.5109 125.735L71.0617 121.232H75.8468V122.883V122.894Z" fill="#0A57A4"/>
</g>
<defs>
<clipPath id="clip0_1370_14498">
<rect width="92.625" height="130" fill="white" transform="translate(17.875)"/>
</clipPath>
</defs>
</svg>
