<svg width="20" height="20" viewBox="0 0 20 20" fill="none" xmlns="http://www.w3.org/2000/svg">
<g clip-path="url(#clip0_2634_12258)">
<path d="M18.9036 10.3793C18.8643 9.92979 18.5233 9.58398 18.1135 9.58398H12.2075C11.7977 9.58398 11.4567 9.92732 11.4174 10.3793L10.6911 18.6664C10.647 19.1826 11.0126 19.6297 11.4812 19.6297H18.8398C19.3085 19.6297 19.6741 19.1826 19.6299 18.6664L18.9036 10.3793Z" stroke="white" stroke-width="1.29678" stroke-linecap="round" stroke-linejoin="round"/>
<path d="M11.3869 4.35431V3.92699C11.3869 1.9633 9.8043 0.370117 7.85362 0.370117C5.90294 0.370117 4.32031 1.9633 4.32031 3.92699V4.35431" stroke="white" stroke-width="1.29678" stroke-linecap="round" stroke-linejoin="round"/>
<path d="M13.2148 11.2285V11.4632C13.2148 12.5451 14.0859 13.4195 15.1582 13.4195C16.2304 13.4195 17.1015 12.5426 17.1015 11.4632V11.2285" stroke="white" stroke-width="1.29678" stroke-linecap="round" stroke-linejoin="round"/>
<path d="M14.3787 8.24482L14.1211 5.56235C14.0548 4.87814 13.4831 4.35449 12.7985 4.35449H2.91018C2.2256 4.35449 1.65389 4.87814 1.58764 5.56235L0.375524 18.1645C0.29946 18.95 0.912881 19.6318 1.69806 19.6318H9.34129" stroke="white" stroke-width="1.29678" stroke-linecap="round" stroke-linejoin="round"/>
</g>
<defs>
<clipPath id="clip0_2634_12258">
<rect width="20" height="20" fill="white"/>
</clipPath>
</defs>
</svg>
