<svg width="130" height="127" viewBox="0 0 130 127" fill="none" xmlns="http://www.w3.org/2000/svg">
<g clip-path="url(#clip0_1373_15279)">
<path fill-rule="evenodd" clip-rule="evenodd" d="M61.0361 0C94.2518 0 121.277 26.5236 122.06 59.5558V91.2912H110.315V59.5558C109.52 33.02 87.7616 11.7448 61.0361 11.7448C34.3045 11.7448 12.5522 33.0138 11.7692 59.5558H0C0.789102 26.5236 27.8143 0 61.0361 0Z" fill="#818285"/>
<path fill-rule="evenodd" clip-rule="evenodd" d="M60.8523 27.3184C70.138 27.3184 78.5307 31.0498 84.6233 37.1179L61.0603 60.8032L50.6001 50.7345V66.2107L61.0603 76.2794L91.1196 46.1222C93.3462 50.6244 94.5941 55.6832 94.5941 61.0479C94.5941 79.6744 79.491 94.7835 60.8584 94.7835C42.2258 94.7835 27.1289 79.6744 27.1289 61.0479C27.1289 42.4214 42.2258 27.3184 60.8584 27.3184" fill="#F69323"/>
<path d="M102.295 30.4449L108.48 26.4382L109.446 27.9491L106.412 31.6194C107.03 31.1484 107.556 30.7569 108.003 30.4327C108.455 30.1023 108.835 29.8454 109.159 29.6313L110.144 29.0013L110.976 30.2859L104.791 34.2987L103.812 32.7816L106.957 29.0196C106.486 29.4172 106.008 29.772 105.544 30.1146C105.085 30.4571 104.632 30.763 104.173 31.0627L103.14 31.7356L102.295 30.4327V30.4449ZM100.962 23.1717C101.635 22.5967 102.142 22.1807 102.485 21.9666C102.834 21.7525 103.146 21.6241 103.415 21.5874C103.8 21.5262 104.161 21.569 104.498 21.7281C104.846 21.8871 105.183 22.1502 105.489 22.5111C105.807 22.8659 106.021 23.2268 106.119 23.5815C106.21 23.9425 106.204 24.3095 106.1 24.6826C106.033 24.9457 105.856 25.2332 105.605 25.5451C105.329 25.8632 104.858 26.3159 104.192 26.897C103.531 27.4781 103.023 27.8696 102.669 28.1021C102.32 28.3162 102.014 28.4507 101.727 28.4813C101.347 28.5364 100.986 28.4936 100.644 28.3345C100.295 28.1877 99.9709 27.9247 99.659 27.5638C99.347 27.2029 99.1329 26.8419 99.035 26.481C98.931 26.1201 98.931 25.7531 99.035 25.3922C99.1145 25.123 99.2919 24.8417 99.555 24.5236C99.818 24.2055 100.271 23.7589 100.956 23.1778M102.528 26.0039L103.543 25.1353C104.155 24.6031 104.485 24.2361 104.565 24.0281C104.644 23.8262 104.602 23.6121 104.424 23.4164C104.253 23.2145 104.057 23.1411 103.837 23.1901C103.623 23.239 103.213 23.5326 102.595 24.0587L101.598 24.9395C100.986 25.4534 100.656 25.8265 100.57 26.0284C100.479 26.2425 100.521 26.4505 100.699 26.6523C100.882 26.8603 101.066 26.9398 101.28 26.8786C101.512 26.8297 101.91 26.5361 102.522 26.0039M95.8786 23.4042L100.907 18.0211L102.161 19.2017L97.1387 24.5847L95.8847 23.4042H95.8786ZM92.6794 20.6454L96.5637 16.1677L95.5238 15.2746L96.4536 14.1857L99.8914 17.177L98.9616 18.2536L97.8789 17.3054L93.9884 21.7892L92.6794 20.6515V20.6454ZM86.9538 16.7732L92.3001 11.4759L94.0251 12.5831L91.3459 19.6238L89.89 18.6879L90.4772 17.3788L89.3456 16.6448L88.3974 17.7153L86.9477 16.7671L86.9538 16.7732ZM90.2264 15.6294L91.0461 16.1677L92.3919 13.2009L90.2264 15.6294ZM85.865 12.999L87.3759 13.7575C87.3575 13.8065 87.3331 13.8493 87.3086 13.8921C87.2964 13.941 87.2597 14.0144 87.2169 14.094C86.8009 14.9014 86.3299 15.403 85.7793 15.6171C85.2166 15.8312 84.5865 15.7456 83.8647 15.3724C83.4426 15.1583 83.1062 14.9014 82.886 14.6017C82.6535 14.3081 82.5189 13.9655 82.47 13.5801C82.4394 13.311 82.4945 12.9745 82.6168 12.5953C82.7514 12.2038 83.0267 11.6104 83.4243 10.8213C83.8219 10.0322 84.1461 9.46946 84.3846 9.13302C84.6416 8.79658 84.874 8.55802 85.1003 8.42344C85.4368 8.2277 85.7855 8.14206 86.1586 8.16041C86.5379 8.16041 86.9416 8.27663 87.3453 8.49685C88.0549 8.85775 88.4953 9.33489 88.6544 9.91601C88.8134 10.4971 88.6911 11.1822 88.2751 11.9836L88.2506 12.0509L86.7642 11.2862C86.9966 10.8336 87.1006 10.4971 87.0884 10.2647C87.0762 10.0383 86.966 9.86707 86.7397 9.75085C86.495 9.62851 86.2687 9.64686 86.0668 9.82425C85.8772 10.0016 85.5285 10.5583 85.0392 11.5003L84.9841 11.6166C84.4642 12.6381 84.1889 13.2804 84.1705 13.5495C84.1339 13.8248 84.2562 14.0267 84.4948 14.1551C84.7333 14.2775 84.923 14.2775 85.1065 14.1551C85.2839 14.0267 85.4857 13.7453 85.712 13.2926L85.8711 13.0112L85.865 12.999ZM78.7814 12.9378L81.5524 6.10507L83.1368 6.7596L80.378 13.574L78.7814 12.9317V12.9378ZM73.5758 11.3107L75.6066 4.22713L79.4665 5.34044L79.075 6.71066L76.8729 6.08672L76.512 7.37131L78.5428 7.95854L78.133 9.38994L76.1021 8.8027L75.2396 11.8001L73.5758 11.3168V11.3107ZM70.3582 10.6745L71.7835 3.43803L73.4718 3.76835L72.0587 10.9987L70.3582 10.6745ZM66.0885 10.0873L66.9204 4.20266L65.5563 4.00692L65.7582 2.58775L70.2726 3.22393L70.0585 4.64309L68.6332 4.44735L67.8013 10.3259L66.0946 10.0873H66.0885ZM59.0722 9.79367L59.3291 2.42871L61.2621 2.496C61.8922 2.52658 62.3571 2.56329 62.6385 2.64281C62.9198 2.70398 63.1584 2.80797 63.3358 2.96701C63.5377 3.13829 63.6845 3.37074 63.7701 3.62154C63.8741 3.87846 63.9169 4.17819 63.9108 4.52075C63.8925 4.94283 63.8068 5.2915 63.6417 5.579C63.4826 5.86039 63.2502 6.09284 62.9382 6.27023C63.452 6.52103 63.7028 7.09604 63.7028 7.97078V8.39897C63.6845 9.23701 63.8068 9.75696 64.0699 9.97718L62.0573 9.90989C62.0023 9.75085 61.9839 9.5918 61.9717 9.43276C61.9472 9.25536 61.9472 9.07185 61.9595 8.89446C61.9595 8.77212 61.9717 8.62531 61.9839 8.46014C61.99 8.28887 62.0023 8.18488 62.0023 8.18488C62.0206 7.68939 61.9717 7.37742 61.8677 7.20614C61.7576 7.04098 61.5374 6.93699 61.2376 6.93699L60.8829 6.92476L60.7727 9.87319L59.0722 9.81202V9.79367ZM60.9318 5.55453C60.9318 5.55453 60.9807 5.55453 61.0419 5.55453C61.0847 5.56677 61.1031 5.56677 61.1337 5.56677C61.5007 5.57289 61.7515 5.51783 61.9044 5.37102C62.0634 5.23645 62.1369 5.004 62.1491 4.65533C62.1613 4.33724 62.1002 4.11702 61.9472 3.97021C61.8126 3.84175 61.5557 3.76223 61.2193 3.75H61.1031C61.0541 3.75612 61.0174 3.75612 60.9807 3.75612L60.9318 5.5423V5.55453ZM53.6953 10.4727L52.6676 3.18111L56.6376 2.61834L56.8395 4.0375L54.5639 4.36171L54.7536 5.69523L56.8517 5.40161L57.0536 6.85747L54.9676 7.15109L55.1817 8.74765L57.4573 8.42956L57.6592 9.90989L53.7014 10.4665L53.6953 10.4727ZM49.8477 8.23381L51.487 7.85455C51.5115 7.90349 51.5176 7.94631 51.5299 8.00136C51.5421 8.03807 51.5666 8.12371 51.5788 8.21546C51.7807 9.09632 51.7501 9.78755 51.4626 10.3014C51.1751 10.8152 50.6429 11.1639 49.8477 11.3535C49.3766 11.4575 48.9668 11.4697 48.6059 11.3902C48.2389 11.3046 47.9086 11.1333 47.6333 10.8703C47.4314 10.6806 47.2663 10.3931 47.1072 10.0139C46.9482 9.62239 46.7708 8.99845 46.5811 8.12982C46.3793 7.27343 46.2569 6.63726 46.2325 6.2213C46.1958 5.81145 46.2325 5.47501 46.3181 5.2181C46.4527 4.85719 46.6729 4.5758 46.9604 4.33724C47.254 4.09867 47.6333 3.93351 48.0859 3.8234C48.8689 3.64601 49.5051 3.72553 50.0067 4.0742C50.4961 4.42288 50.8447 5.02847 51.0405 5.90321L51.065 5.96438L49.4378 6.3314C49.3032 5.84815 49.1748 5.52395 49.028 5.34655C48.8689 5.17528 48.6732 5.11411 48.4224 5.17528C48.1594 5.23033 48.0003 5.39549 47.9575 5.65853C47.9147 5.92156 48.0003 6.56997 48.245 7.59764L48.2695 7.73833C48.5264 8.85164 48.7466 9.52452 48.8934 9.74473C49.0586 9.97106 49.2604 10.0506 49.5296 9.98941C49.7865 9.92824 49.9455 9.8059 50.0067 9.59792C50.0618 9.38994 50.0373 9.04127 49.9088 8.53967L49.8477 8.2277V8.23381ZM37.063 15.7028L34.0595 8.96786L36.2616 7.99525L38.1457 10.5889C38.1457 10.5889 38.268 10.7663 38.4577 11.1027C38.6534 11.4147 38.8553 11.745 39.051 12.0631C38.9837 11.7939 38.892 11.4514 38.7696 11.0477C38.6595 10.6317 38.5922 10.4054 38.5861 10.3626L37.9133 7.25508L40.1032 6.28247L43.0944 13.0174L41.6141 13.6841L39.4303 8.41733L40.6843 14.094L39.4731 14.6323L36.0965 9.90377L38.5555 15.0482L37.063 15.7089V15.7028ZM32.5302 18.6512L28.5235 12.4729L31.8879 10.2891L32.6526 11.4942L30.7379 12.736L31.472 13.8738L33.2459 12.7176L34.0595 13.9594L32.2733 15.1155L33.1542 16.4613L35.0872 15.2134L35.8946 16.4674L32.5302 18.6512ZM29.0129 21.1959L25.361 16.5163L24.2661 17.3666L23.3913 16.2411L26.982 13.4333L27.8568 14.565L26.7251 15.452L30.377 20.1315L29.0129 21.1959ZM22.4309 23.8629L23.5993 22.7863L23.74 22.9393C24.0153 23.239 24.2477 23.4103 24.4312 23.4592C24.6025 23.5204 24.786 23.4776 24.9512 23.3124C25.0858 23.1962 25.1347 23.0555 25.1347 22.8781C25.1347 22.7252 25.0429 22.5478 24.9022 22.401C24.6576 22.1379 24.2416 22.0706 23.636 22.1746C23.532 22.1807 23.4525 22.1991 23.4036 22.2052C23.3791 22.2052 23.3669 22.2174 23.3057 22.2236C22.4921 22.3581 21.9355 22.3948 21.6541 22.3337C21.44 22.2908 21.232 22.1991 21.0363 22.089C20.8405 21.9666 20.657 21.8137 20.4612 21.6119C20.0269 21.147 19.819 20.6392 19.8373 20.1254C19.874 19.6055 20.1126 19.1222 20.5897 18.6757C21.1035 18.1924 21.6296 17.9538 22.1496 17.96C22.6634 17.9722 23.165 18.2169 23.6299 18.7185C23.6544 18.7429 23.6788 18.7735 23.7094 18.8163C23.7461 18.8531 23.7583 18.8775 23.7828 18.8959L22.6573 19.948L22.5961 19.8807C22.3759 19.6483 22.174 19.5076 21.9783 19.4525C21.7887 19.3975 21.6296 19.4342 21.4828 19.5749C21.3788 19.6789 21.3176 19.8134 21.3176 19.9664C21.3299 20.1193 21.3972 20.2722 21.5317 20.4007C21.752 20.6331 22.174 20.6759 22.8163 20.5536C22.9448 20.5414 23.0427 20.5169 23.1038 20.5108C23.1528 20.5047 23.2262 20.4924 23.324 20.468C24.0153 20.3395 24.523 20.3089 24.8288 20.3884C25.0123 20.4435 25.202 20.523 25.3855 20.6392C25.5812 20.7616 25.7586 20.9145 25.9238 21.1041C26.4315 21.6424 26.6701 22.1869 26.6701 22.7435C26.664 23.294 26.407 23.814 25.8749 24.3034C25.3366 24.7988 24.7983 25.0496 24.2599 25.0313C23.7216 25.0068 23.2017 24.7193 22.6879 24.1688C22.6512 24.1321 22.6206 24.1015 22.5961 24.0587C22.5594 24.0159 22.5043 23.9547 22.4248 23.8691M21.4216 28.8973L18.9993 26.9215L14.6317 25.5696L15.8 24.1321L18.0634 25.0374L16.6992 23.0127L17.8798 21.569L20.1126 25.5512L22.5411 27.5148L21.4277 28.8912L21.4216 28.8973ZM15.4269 33.0936L16.2772 31.7723L16.4546 31.8946C16.7971 32.1087 17.0724 32.2311 17.2498 32.2372C17.4516 32.2372 17.6107 32.1516 17.7269 31.9619C17.837 31.8151 17.8431 31.6561 17.8064 31.497C17.7453 31.3441 17.6352 31.2095 17.4578 31.0872C17.158 30.9037 16.7298 30.922 16.1732 31.1667C16.0875 31.2095 15.9958 31.2401 15.9591 31.2646C15.9407 31.2768 15.904 31.2829 15.8673 31.3013C15.1088 31.6255 14.5705 31.8029 14.2708 31.8151C14.0628 31.8151 13.8365 31.7907 13.6285 31.7173C13.396 31.65 13.1758 31.546 12.9556 31.393C12.4112 31.0505 12.087 30.6162 11.9952 30.1085C11.8851 29.5885 12.0136 29.0624 12.3745 28.5119C12.766 27.9063 13.2064 27.5638 13.7141 27.4353C14.2218 27.3252 14.7601 27.4537 15.329 27.8146C15.3535 27.8329 15.378 27.8635 15.4208 27.888C15.4575 27.9186 15.5003 27.943 15.5187 27.9675L14.6867 29.2521L14.6072 29.2031C14.3503 29.0257 14.1056 28.934 13.9221 28.9279C13.7141 28.9156 13.5612 28.9952 13.4633 29.1603C13.3777 29.2949 13.3593 29.4417 13.396 29.5885C13.445 29.7292 13.549 29.8577 13.7019 29.9617C13.9588 30.1268 14.3992 30.0779 15.0048 29.7965C15.1088 29.7537 15.2006 29.7109 15.2495 29.6864C15.3046 29.6619 15.3596 29.6313 15.4514 29.5885C16.0937 29.2949 16.5891 29.1481 16.895 29.1481C17.103 29.1481 17.3048 29.1909 17.5128 29.2582C17.7269 29.3316 17.9349 29.4417 18.1429 29.5702C18.7668 29.9678 19.1338 30.4388 19.2623 30.9771C19.3969 31.5154 19.2623 32.0843 18.883 32.6838C18.4732 33.3016 18.0022 33.6747 17.4761 33.7726C16.9562 33.8827 16.3812 33.7298 15.745 33.326C15.7083 33.2955 15.6655 33.271 15.6104 33.2343C15.5798 33.2037 15.5064 33.1548 15.433 33.0875" fill="white"/>
<path fill-rule="evenodd" clip-rule="evenodd" d="M121.424 96.1729C121.766 96.1729 122.06 96.4665 122.06 96.8151V126.177C122.06 126.526 121.772 126.819 121.424 126.819C121.075 126.819 120.775 126.526 120.775 126.177V96.8151C120.775 96.4665 121.069 96.1729 121.424 96.1729Z" fill="#F69323"/>
<path fill-rule="evenodd" clip-rule="evenodd" d="M65.5625 121.865C65.5625 121.522 65.8378 121.229 66.1926 121.229H129.364C129.706 121.229 130 121.522 130 121.865C130 122.226 129.706 122.513 129.364 122.513H66.1926C65.8378 122.513 65.5625 122.226 65.5625 121.865Z" fill="#F69323"/>
<path d="M82.6533 121.229H87.498C88.4462 120.947 89.2536 120.476 89.8837 119.828C90.9848 118.678 91.5475 117.038 91.5475 114.91C91.5475 114.182 91.4558 113.503 91.3029 112.885C91.1377 112.267 90.9175 111.71 90.6055 111.215C90.11 110.463 88.9967 109.539 87.2595 108.438C87.027 108.279 86.8619 108.169 86.7273 108.083C86.5682 107.985 86.3358 107.832 86.0483 107.643C84.4211 106.633 83.6137 105.673 83.6137 104.78C83.6137 104.223 83.7544 103.777 84.048 103.446C84.3294 103.104 84.7087 102.939 85.1736 102.939C85.7302 102.939 86.1523 103.183 86.4459 103.666C86.7273 104.144 86.8802 104.847 86.8802 105.777V106.034H91.3396C91.3396 105.954 91.3518 105.844 91.3518 105.691C91.3701 105.544 91.3701 105.428 91.3701 105.349C91.3701 103.379 90.838 101.88 89.7491 100.834C88.6664 99.7883 87.0943 99.2744 85.0451 99.2744C83.161 99.2744 81.6685 99.7944 80.6041 100.853C79.5275 101.911 78.977 103.379 78.977 105.232C78.977 105.997 79.0748 106.707 79.2645 107.355C79.448 107.991 79.7171 108.572 80.0658 109.092C80.549 109.771 81.7908 110.787 83.785 112.126C83.9073 112.206 83.9807 112.249 84.0297 112.273C84.1581 112.365 84.3416 112.481 84.5863 112.652C86.0605 113.607 86.8068 114.579 86.8068 115.619C86.8068 116.249 86.6478 116.745 86.348 117.106C86.0422 117.473 85.6323 117.65 85.1063 117.65C84.4579 117.65 83.9868 117.405 83.7238 116.934C83.4424 116.457 83.3078 115.631 83.3078 114.463V113.833H78.7445C78.72 114.163 78.6895 114.408 78.6895 114.555V114.995C78.6895 117.173 79.2216 118.806 80.3166 119.907C80.9222 120.519 81.7113 120.972 82.6717 121.241" fill="#818285"/>
<path d="M95.0776 119.662C95.6159 120.286 96.2582 120.745 96.9861 121.069C97.1329 121.13 97.2736 121.173 97.4204 121.228H106.724V109.52H99.9773V113.239H101.916C101.929 113.374 101.941 113.508 101.941 113.661V114.291C101.941 115.515 101.788 116.383 101.5 116.928C101.189 117.472 100.693 117.741 100.026 117.741C99.3595 117.741 98.8946 117.435 98.6438 116.818C98.393 116.212 98.2768 114.713 98.2768 112.352V108.786C98.2768 106.413 98.4053 104.92 98.6683 104.265C98.9374 103.635 99.4085 103.305 100.112 103.305C100.699 103.305 101.127 103.568 101.396 104.094C101.66 104.62 101.794 105.489 101.794 106.712V106.975H106.51C106.51 106.884 106.51 106.743 106.51 106.565C106.516 106.406 106.535 106.278 106.535 106.198C106.535 103.941 106.003 102.241 104.938 101.109C103.892 99.9773 102.308 99.4023 100.222 99.4023C98.8946 99.4023 97.7324 99.6409 96.7659 100.106C95.7994 100.577 95.0042 101.28 94.423 102.204C94.0132 102.846 93.7073 103.819 93.5238 105.103C93.3342 106.4 93.2363 108.107 93.2363 110.26C93.2363 113.264 93.377 115.398 93.6462 116.659C93.9276 117.925 94.4108 118.922 95.0776 119.656" fill="#818285"/>
<path d="M62.7056 109.66V121.417H60.2159V112.902C59.6776 112.713 59.1638 113.802 58.2891 113.777V111.722C59.5736 110.841 60.1058 109.214 62.7056 109.654" fill="#F69323"/>
<path d="M26.9954 100.406C27.1299 99.8061 27.6927 99.6287 27.7355 98.9375C27.6132 98.3564 27.1483 98.1423 26.7017 97.9037C23.9001 98.6867 26.5243 101.372 26.4142 103.782C26.3102 105.899 24.6219 107.544 22.4381 107.312C19.9852 107.061 16.7554 102.785 20.0831 100.559C20.7865 101.048 21.3615 101.635 21.9977 102.167C21.1474 102.963 20.6581 104.889 22.2913 104.969C25.0746 105.085 22.3586 100.314 22.7379 98.3503C23.4964 94.3497 29.9805 95.2061 30.2313 99.2311C30.2496 99.6532 29.6135 101.929 28.8978 102.02C28.5185 102.082 27.7294 100.809 26.9892 100.406" fill="#F69323"/>
<path d="M16.8528 88.6488C16.1249 88.294 16.0637 87.2786 15.5376 86.7342C16.0392 86.6975 17.5563 84.4097 15.8251 84.0855C13.8248 83.7123 14.2897 86.7342 14.0695 88.4959C13.8004 90.4778 11.9836 92.4903 9.3655 91.8786C6.92478 91.3036 4.71652 85.5536 8.77826 84.532C9.62241 84.8623 9.59794 86.0552 10.2586 86.5935C9.01682 86.9911 8.09926 88.918 9.79981 89.5297C12.9379 89.1076 10.2586 84.2873 13.0419 82.3299C15.8802 80.3357 19.2996 82.7764 18.9204 86.8871C18.4188 87.6578 17.7887 88.294 16.8589 88.6488" fill="#F69323"/>
<path d="M13.3288 72.4814C13.8488 73.0932 14.0751 74.0168 14.2097 74.9833C12.6804 75.3993 11.353 76.0477 9.79927 76.4514C9.95219 77.3996 10.4477 77.9623 10.5333 78.9472C12.1054 78.4456 13.494 77.7911 15.2496 77.4791C15.3597 78.4028 15.7512 79.0206 15.9836 79.8342C12.1238 81.1126 8.36175 82.4951 4.36731 83.6512C4.17156 82.8071 3.829 82.1342 3.63326 81.2961C5.2971 80.715 6.98541 80.1461 8.62479 79.5405C8.43516 78.7025 8.0926 78.0174 7.89074 77.1855C6.06174 77.6076 4.51412 78.3171 2.7524 78.7943C2.48937 77.9746 2.08564 77.3078 2 76.2985C5.80482 75.069 9.65246 73.8456 13.3227 72.4814" fill="#F69323"/>
<path d="M32.1443 105.403C32.4318 104.712 32.86 104.167 33.1598 103.494C35.3252 103.115 36.567 102.767 38.0167 103.935C36.255 107.526 34.0834 110.676 32.2973 114.218C31.3369 113.991 30.8169 113.337 29.9238 113.049C31.3369 110.395 32.8784 107.868 34.3342 105.256C33.8571 105.556 32.8417 105.336 32.1382 105.403" fill="#F69323"/>
<path d="M23.7643 92.038C21.4215 95.5737 18.6933 98.7179 16.2648 102.168C15.6041 101.562 15.1698 100.718 14.5153 100.106C14.9863 99.3051 15.6347 98.6934 16.1241 97.9043C15.5613 97.054 14.9618 96.2282 14.2094 95.5553C13.2796 95.7511 12.5945 96.1976 11.8605 96.5769C11.1998 96.0202 10.6982 95.2984 10.2578 94.5277C13.977 92.8271 17.898 91.2917 21.5622 89.5361C22.4858 90.1723 22.9691 91.255 23.7643 92.038ZM16.1241 94.6806C16.7847 95.0048 16.8887 95.8734 17.5922 96.1487C18.2651 94.8029 19.88 93.6346 20.2409 92.4723C18.9746 93.3348 17.372 93.8303 16.1241 94.6806Z" fill="#F69323"/>
<path d="M53.5978 109.226C54.9497 108.988 56.5279 109.355 57.1273 110.248C58.2162 111.918 57.4393 119.381 55.6592 120.684C54.6499 121.424 52.197 121.552 51.0959 120.237C49.3892 118.2 51.0103 109.759 53.0228 109.22C53.2124 109.171 53.4204 109.251 53.61 109.22M54.0382 110.988C53.451 112.083 53.2491 113.729 53.0228 115.692C52.8637 117.075 52.3621 119.313 53.7446 119.216C54.9068 117.613 55.5981 113.05 54.7845 110.988H54.0382Z" fill="#F69323"/>
<path d="M46.6926 107.899C49.1822 107.281 51.0235 108.713 50.8094 111.722C50.6014 114.457 49.1883 119.1 47.4266 119.662C44.5394 120.568 42.8266 118.586 43.163 115.399C43.4322 112.774 44.625 108.413 46.6926 107.899ZM47.5795 109.661C46.7293 110.621 46.4112 112.31 45.9524 114.071C45.5976 115.484 44.7045 117.576 46.2521 117.894C47.6468 115.913 48.1668 113.056 48.6133 110.107C48.2708 109.955 48.1301 109.594 47.5857 109.661" fill="#F69323"/>
<path d="M42.1337 111.869C42.8738 113.466 42.623 115.961 41.0999 117.007C39.2892 118.261 35.9799 116.83 35.6679 114.958C35.3254 112.909 36.5732 110.878 38.4634 110.542C38.5919 110.358 37.9312 109.698 37.8762 109.22C37.4174 104.431 44.3786 104.761 44.6294 108.333C44.7212 109.587 44.0116 110.481 43.4611 111.429C43.0145 111.569 42.8126 111.949 42.1398 111.869M40.3658 112.597C39.2586 111.129 38.1392 113.453 38.023 114.805C39.1913 116.335 40.4331 114.12 40.3658 112.597ZM40.2251 109.967C40.5799 109.997 40.5065 110.462 40.9592 110.401C41.8033 110.095 42.5374 108.517 41.8462 107.606C40.5065 107.606 40.3658 108.768 40.2251 109.967Z" fill="#F69323"/>
<path d="M7.29791 64.4009C8.66201 64.2786 10.0567 64.0339 11.1333 64.5539C12.4301 65.1778 13.5496 67.698 12.7482 69.9919C12.057 71.9372 4.26384 74.017 1.72525 72.1941C0.764873 71.5029 -0.287263 69.0621 0.556893 66.9089C1.29706 64.9515 4.06809 64.7007 7.29791 64.4009ZM10.9804 68.0773C11.011 65.6427 0.526308 66.9456 2.61223 69.8451C4.40453 70.5975 10.9559 69.9369 10.9804 68.0773Z" fill="#F69323"/>
<path d="M120.776 112.928V112.885C120.617 112.267 120.378 111.704 120.079 111.221C119.589 110.469 118.476 109.545 116.739 108.444C116.512 108.285 116.323 108.169 116.194 108.089C116.048 107.985 115.821 107.838 115.534 107.649C113.9 106.639 113.093 105.673 113.093 104.78C113.093 104.223 113.24 103.777 113.527 103.446C113.809 103.104 114.188 102.939 114.659 102.939C115.216 102.939 115.632 103.183 115.913 103.666C116.207 104.144 116.347 104.847 116.347 105.777V106.034H120.776V104.37C120.635 102.877 120.109 101.691 119.222 100.834C118.127 99.7883 116.567 99.2744 114.506 99.2744C112.616 99.2744 111.154 99.8066 110.059 100.853C108.995 101.911 108.45 103.379 108.45 105.232C108.45 106.003 108.548 106.701 108.725 107.349C108.915 107.991 109.172 108.572 109.539 109.092C110.022 109.777 111.264 110.787 113.252 112.126C113.374 112.206 113.442 112.255 113.497 112.279C113.619 112.365 113.809 112.487 114.041 112.652C115.528 113.601 116.262 114.592 116.262 115.613C116.262 116.243 116.127 116.739 115.803 117.1C115.503 117.46 115.093 117.644 114.573 117.644C113.913 117.644 113.46 117.405 113.173 116.928C112.897 116.451 112.769 115.631 112.769 114.457V113.839H108.205C108.175 114.169 108.15 114.402 108.15 114.561V114.995C108.15 117.167 108.689 118.806 109.771 119.907C110.371 120.513 111.16 120.959 112.126 121.235H116.977C117.938 120.953 118.727 120.482 119.363 119.834C120.042 119.112 120.531 118.207 120.776 117.118V112.934V112.928Z" fill="#818285"/>
</g>
<defs>
<clipPath id="clip0_1373_15279">
<rect width="130" height="126.819" fill="white"/>
</clipPath>
</defs>
</svg>
