<svg width="130" height="55" viewBox="0 0 130 55" fill="none" xmlns="http://www.w3.org/2000/svg">
<g clip-path="url(#clip0_1372_14917)">
<path d="M10.1321 15.3892V1.02834H9.68694L9.13582 2.03519C9.13582 2.03519 7.82162 0.381836 5.40518 0.381836C3.16892 0.381836 1.00685 2.5969 0.720691 5.38429C0.445133 8.18227 0.392141 14.6685 0.392141 15.4422C0.392141 16.2159 0.52992 19.7451 1.346 21.3561C2.16207 22.9671 4.06979 25.1291 4.6421 26.0088C5.21441 26.8885 7.11153 29.2307 7.11153 32.3784V49.0497C7.11153 51.4874 5.09783 51.9643 4.34534 51.9643C3.59286 51.9643 1.346 51.1906 1.346 47.9369V36.1197H0V52.1869H0.710093L1.15523 51.5616C1.15523 51.5616 2.94636 53.1195 4.52552 53.1195C6.87836 53.1195 10.344 51.8371 10.344 47.3222V32.0817C10.344 30.6509 10.2275 27.7575 8.52111 25.4895C6.81477 23.232 4.47253 20.381 4.09098 18.7807C3.69884 17.1697 3.78363 6.53951 3.78363 5.69164C3.78363 4.84377 4.05919 0.615001 6.49682 1.20851C8.93445 1.81262 8.84966 4.16547 8.84966 4.92856V15.3786L10.1321 15.3998V15.3892Z" fill="#B18535"/>
<path d="M12.1571 10.2383H16.407V40.2848C16.407 42.3091 17.753 42.4681 18.177 42.4681C18.8341 42.4681 20.0423 41.6626 20.0423 40.8677V10.8636H18.5691V10.2807H22.7449V42.4893H24.2711V43.1676H20.0635V42.0653C20.0635 42.0653 19.0566 43.6339 17.0959 43.6339C15.1352 43.6339 13.5455 41.7474 13.5455 39.4051V10.8636H12.1465L12.1677 10.2383H12.1571Z" fill="#B18535"/>
<path d="M25.128 10.2385H29.3567V11.3407C29.3567 11.3407 30.4166 9.75098 31.9215 9.75098C33.4265 9.75098 35.154 10.8108 35.525 13.3332C35.9065 15.8663 35.7582 24.2814 35.7582 28.0226C35.7582 31.7639 35.8323 38.9178 35.5568 40.391C35.2918 41.8642 33.6067 43.4857 31.9427 43.4857C30.2788 43.4857 29.2189 41.5568 29.2189 41.5568V52.5792H30.4272V53.1833H24.8418V52.5474H26.4951V10.8638H25.0962V10.2385H25.128ZM29.3567 14.6156C29.3567 14.6156 29.2719 37.9746 29.2719 39.7127C29.2719 41.4508 30.5543 42.3941 31.3492 42.3941C32.1441 42.3941 33.045 41.6734 33.045 40.1578V13.365C33.045 12.4536 32.8542 10.6094 31.6142 10.6094C30.0244 10.6094 29.3567 13.2908 29.3567 14.605" fill="#B18535"/>
<path d="M47.6194 24.9913H41.2392V40.2318C41.2392 41.8216 42.5958 42.8391 43.9947 42.8391C45.3937 42.8391 46.4536 41.2599 46.4536 39.5959V30.121H47.3226V39.5535C47.3226 40.2742 46.9729 43.5491 43.3588 43.5491C39.7448 43.5491 38.5684 40.9101 38.5684 38.8329V15.2938C38.5684 10.6093 42.458 9.66602 43.2105 9.66602C43.9629 9.66602 47.63 10.0476 47.63 15.2514V24.9807L47.6194 24.9913ZM45.1712 24.3554V14.997C45.1712 10.7683 44.1113 10.2913 43.2105 10.2913C42.3096 10.2913 41.2816 10.8318 41.2816 14.9228V24.3978L45.1712 24.3554Z" fill="#B18535"/>
<path d="M49.7171 10.2912H53.7233V11.9764C53.7233 11.9764 54.9209 10.1641 56.0974 10.1641C57.2738 10.1641 58.0263 12.9938 58.0263 16.078C58.0263 18.7912 57.0088 19.4059 56.7439 19.4059C56.4789 19.4059 55.2707 18.4944 55.2707 14.573C55.2707 12.0824 56.1398 11.0225 56.1398 11.0225C56.1398 11.0225 56.2563 10.7788 55.6522 10.8636C55.0481 10.9483 53.7233 12.3791 53.7233 17.0212V42.3832H55.6098V43.1675H49.166V42.3408H51.0843V10.8636H49.7277V10.2806L49.7171 10.2912Z" fill="#B18535"/>
<path d="M58.6193 0H62.7527V12.0292C62.7527 12.0292 63.9079 9.90952 65.9534 9.90952C67.9989 9.90952 69.1647 12.2306 69.1647 15.1239V37.0521C69.1647 41.1854 68.1579 43.5489 65.3599 43.5489C63.5582 43.5489 62.7951 42.0651 62.7951 42.0651V43.1885H58.3438V42.4361H59.9865V0.720692H58.6193V0ZM62.7845 13.3964C62.7845 13.3964 62.8269 38.8962 62.8269 40.2528C62.8269 41.6094 63.6324 42.542 65.0737 42.542C66.5151 42.542 66.6741 39.4473 66.6741 37.2852V14.8272C66.6741 14.4244 66.8755 11.1389 65.1479 11.1389C63.4204 11.1389 62.7845 13.3858 62.7845 13.3858" fill="#B18535"/>
<path d="M77.2196 43.1357V42.3302H75.2589V16.841C75.2589 14.5199 75.7041 12.3897 76.1492 11.7538C76.5837 11.1073 77.2726 10.4714 77.6754 11.1073C77.6754 11.1073 76.7533 11.9869 76.7533 14.9545C76.7533 17.922 77.9509 19.3634 78.2689 19.3634C78.5868 19.3634 79.5195 18.6109 79.5195 14.8379C79.5195 12.7182 79.2439 10.4926 77.5482 10.0686C76.5837 9.82485 75.2165 11.7114 75.2165 11.7114V10.2912H71.1679V10.8741H72.4927V42.3514H71.0938V43.1887L77.2196 43.1569V43.1357Z" fill="#B18535"/>
<path d="M91.4958 43.1033L87.2034 43.1775V41.9375C87.2034 41.9375 86.3556 43.6544 84.4054 43.6544C81.5121 43.6544 81.0352 41.0896 81.0352 39.7224V29.336C81.0352 28.2126 81.0775 27.4495 81.5969 25.6053C82.1162 23.7612 87.4578 20.3485 87.4578 20.3485V14.0955C87.4578 11.9652 86.6205 10.4072 85.2109 10.4072C83.8013 10.4072 83.1548 12.0924 83.1548 12.0924C83.1548 12.0924 83.9179 13.5761 83.9179 15.3355C83.9179 18.462 83.0701 19.3841 82.7945 19.3841C82.5189 19.3841 81.2683 19.1827 81.2683 15.6216C81.2683 10.5344 84.9142 9.68652 85.6349 9.68652C86.3556 9.68652 90.0438 10.0893 90.0438 14.7844V42.3296H91.4852V43.0927L91.4958 43.1033ZM87.4154 38.652V21.4084C87.4154 21.4084 86.8113 21.8853 85.974 22.5318C85.1367 23.1677 83.6106 25.0542 83.6106 27.3435V39.4893C83.6106 40.8565 83.5682 42.3402 85.4123 42.3402C87.2564 42.3402 87.426 39.0123 87.426 38.652" fill="#B18535"/>
<path d="M92.3755 10.3012H96.5407V11.3399C96.5407 11.3399 97.3038 9.97266 99.8262 9.97266C102.349 9.97266 103.08 12.1347 103.08 13.6185V42.319H104.638V43.1669H99.0631V42.319H100.377V13.4701C100.377 10.9795 99.1055 11.0219 98.7769 11.0219C98.4484 11.0219 96.6043 11.3399 96.6043 14.0636V42.3296H97.7277V43.1775H92.2695V42.3296H93.7533V10.8629H92.3437V10.3012H92.3755Z" fill="#B18535"/>
<path d="M117.272 43.1039L112.82 43.1887V41.9063C112.82 41.9063 112.545 43.6763 110.012 43.6763C107.479 43.6763 106.482 41.1856 106.482 38.1863V15.1559C106.482 11.6691 108.369 9.98391 110.33 9.98391C112.29 9.98391 112.979 11.9128 112.979 11.9128V0.763289H111.336V0.15918H115.788V42.3303H117.272V43.0933V43.1039ZM112.704 39.0977C112.704 39.0977 112.746 16.0356 112.746 14.0749C112.746 12.1142 111.188 11.1497 110.584 11.1497C109.98 11.1497 108.984 11.6691 108.984 13.3542V38.6844C108.984 41.652 109.227 42.733 110.743 42.733C112.259 42.733 112.704 40.5285 112.704 39.0872" fill="#B18535"/>
<path d="M118.32 30.5555H119.359C119.359 30.5555 119.56 39.6596 119.995 40.942C120.44 42.2244 120.716 42.7437 121.956 42.7755C123.206 42.8179 123.8 41.4931 123.8 39.8927V30.6297C123.8 29.7076 123.397 28.987 122.56 27.9483C121.712 26.9097 119.592 24.5462 119.232 24.0163C118.871 23.497 118.426 22.3312 118.426 20.964V13.9478C118.426 11.5102 120.355 9.74023 122.242 9.74023C124.128 9.74023 124.807 11.065 124.807 11.065L125.252 10.2914H125.813V22.0556H124.934C124.934 22.0556 124.775 12.7502 124.414 11.7539C124.054 10.7471 123.535 10.6729 123.015 10.6729C122.496 10.6729 121.214 11.0014 121.214 13.0363V19.9359C121.214 21.0169 121.457 22.2146 122.252 23.179C123.058 24.1435 124.573 25.9452 125.093 26.5493C125.612 27.1534 126.46 28.0331 126.46 29.8772V39.8185C126.46 43.3054 123.058 43.7505 122.252 43.7505C121.447 43.7505 120.44 43.3902 119.486 42.3516L118.691 43.1994H118.331V30.5661L118.32 30.5555Z" fill="#B18535"/>
<path d="M128.452 10.291H128.706C128.833 10.291 128.918 10.2804 128.961 10.238C129.003 10.2062 129.035 10.1532 129.035 10.0896C129.035 10.0472 129.024 10.0154 129.003 9.98362C128.982 9.95182 128.95 9.93062 128.908 9.90943C128.876 9.88823 128.802 9.88823 128.696 9.88823H128.452V10.2804V10.291ZM128.24 11.0329V9.71866H128.696C128.855 9.71866 128.961 9.72925 129.035 9.76105C129.109 9.78225 129.162 9.82464 129.204 9.88823C129.247 9.95182 129.257 10.0154 129.257 10.079C129.257 10.1744 129.226 10.2592 129.151 10.3334C129.088 10.4076 129.003 10.4499 128.876 10.4499C128.929 10.4711 128.961 10.4923 128.992 10.5241C129.045 10.5771 129.12 10.6619 129.194 10.7891L129.353 11.0435H129.098L128.982 10.8421C128.886 10.6725 128.812 10.5771 128.77 10.5347C128.727 10.5029 128.664 10.4923 128.59 10.4923H128.473V11.0541H128.261L128.24 11.0329ZM128.78 9.33711C128.611 9.33711 128.441 9.37951 128.282 9.46429C128.113 9.54908 127.996 9.67626 127.901 9.84584C127.816 10.0048 127.763 10.1744 127.763 10.3546C127.763 10.5347 127.816 10.7043 127.901 10.8633C127.986 11.0223 128.113 11.1494 128.282 11.2448C128.441 11.3296 128.622 11.372 128.791 11.372C128.971 11.372 129.141 11.3296 129.3 11.2448C129.459 11.1494 129.586 11.0223 129.681 10.8633C129.766 10.7043 129.819 10.5347 129.819 10.3546C129.819 10.1744 129.766 10.0048 129.681 9.84584C129.586 9.67626 129.459 9.54908 129.3 9.46429C129.141 9.36891 128.971 9.33711 128.802 9.33711M128.802 9.13574C129.014 9.13574 129.215 9.18873 129.406 9.29472C129.607 9.4007 129.756 9.54908 129.862 9.75045C129.978 9.94122 130.031 10.1532 130.031 10.3652C130.031 10.5771 129.978 10.7785 129.872 10.9799C129.766 11.1706 129.607 11.3296 129.416 11.4356C129.226 11.5416 129.014 11.5946 128.802 11.5946C128.59 11.5946 128.388 11.5416 128.187 11.4356C127.996 11.3296 127.848 11.1706 127.731 10.9799C127.625 10.7785 127.572 10.5771 127.572 10.3652C127.572 10.1532 127.625 9.95182 127.742 9.75045C127.848 9.54908 128.007 9.4007 128.198 9.29472C128.388 9.18873 128.6 9.13574 128.802 9.13574Z" fill="#B18535"/>
<path d="M124.34 47.0361C124.054 46.7181 123.672 46.5591 123.196 46.5591C122.909 46.5591 122.644 46.6121 122.401 46.7075C122.157 46.8029 121.913 46.9831 121.669 47.2162L121.977 47.5448C122.199 47.3328 122.411 47.1844 122.591 47.1103C122.772 47.0361 122.984 46.9937 123.206 46.9937C123.545 46.9937 123.81 47.1102 124.001 47.354C124.192 47.5872 124.277 47.9263 124.277 48.3397C124.277 48.8272 124.149 49.2193 123.874 49.5161C123.609 49.8128 123.27 49.9612 122.835 49.9612H122.432V50.417H122.803C123.312 50.417 123.704 50.5547 123.969 50.8303C124.234 51.1059 124.361 51.4874 124.361 51.9749C124.361 52.4624 124.255 52.897 124.022 53.1831C123.8 53.4799 123.482 53.6283 123.079 53.6283C122.581 53.6283 122.115 53.5117 121.701 53.2679V53.8084C122.062 53.9886 122.517 54.0734 123.079 54.0734C123.641 54.0734 124.075 53.8932 124.393 53.5117C124.711 53.1302 124.87 52.632 124.87 51.9961C124.87 51.5086 124.764 51.1165 124.531 50.7985C124.298 50.4805 123.98 50.2686 123.577 50.1838V50.1414C123.969 49.993 124.266 49.7705 124.467 49.4525C124.658 49.1345 124.764 48.753 124.764 48.2867C124.764 47.7674 124.616 47.354 124.34 47.0361ZM119.242 46.6651H118.84L117.43 47.9581L117.684 48.2761L118.31 47.7038C118.564 47.4494 118.734 47.2798 118.797 47.1844C118.765 47.6932 118.755 48.1701 118.755 48.6046V53.978H119.242V46.6757V46.6651ZM113.286 47.8415C113.456 47.301 113.731 47.0361 114.113 47.0361C114.844 47.0361 115.204 48.1277 115.204 50.311C115.204 52.4942 114.844 53.6071 114.113 53.6071C113.731 53.6071 113.456 53.3315 113.286 52.791C113.106 52.2505 113.021 51.4238 113.021 50.3216C113.021 49.2193 113.106 48.3927 113.286 47.8521M115.332 47.5024C115.077 46.8771 114.664 46.5697 114.113 46.5697C113.053 46.5697 112.512 47.8203 112.512 50.311C112.512 51.6464 112.64 52.6002 112.894 53.1937C113.148 53.7767 113.551 54.0734 114.113 54.0734C114.643 54.0734 115.045 53.7555 115.31 53.1195C115.575 52.4836 115.713 51.5404 115.713 50.311C115.713 49.0816 115.575 48.1171 115.332 47.4918M111.113 53.5329H108.39V53.4905L109.736 51.498C110.075 51.0105 110.329 50.5971 110.477 50.2898C110.626 49.9824 110.742 49.6645 110.827 49.3465C110.901 49.018 110.944 48.6788 110.944 48.3079C110.944 47.778 110.806 47.354 110.52 47.0361C110.244 46.7287 109.842 46.5697 109.343 46.5697C109.068 46.5697 108.814 46.6015 108.602 46.6757C108.39 46.7499 108.156 46.8771 107.923 47.0467L108.188 47.4176C108.368 47.2798 108.538 47.1738 108.708 47.1103C108.888 47.0467 109.078 47.0043 109.312 47.0043C109.661 47.0043 109.937 47.1208 110.138 47.354C110.34 47.5872 110.446 47.9051 110.446 48.2973C110.446 48.8166 110.371 49.2829 110.212 49.6963C110.054 50.1096 109.757 50.6607 109.301 51.3496L107.817 53.5859V53.978H111.103V53.5329H111.113ZM103.292 49.4101C103.472 49.7599 103.567 50.2368 103.567 50.8303H101.479C101.543 49.5267 101.893 48.8802 102.56 48.8802C102.868 48.8802 103.112 49.0604 103.292 49.4101ZM103.864 53.7555V53.2891C103.483 53.5117 103.122 53.6283 102.794 53.6283C102.348 53.6283 102.031 53.4375 101.808 53.0454C101.596 52.6426 101.479 52.0597 101.469 51.2648H104.034V50.8303C104.034 50.099 103.906 49.5267 103.641 49.0922C103.377 48.6576 103.027 48.4456 102.582 48.4456C102.062 48.4456 101.67 48.6894 101.384 49.1769C101.119 49.6645 100.971 50.3746 100.971 51.2966C100.971 52.1657 101.13 52.844 101.437 53.3421C101.744 53.8296 102.189 54.0734 102.762 54.0734C103.143 54.0734 103.504 53.9674 103.853 53.7555M99.3385 54.031C99.4975 53.9992 99.6353 53.9462 99.7413 53.8932V53.4905C99.4657 53.5965 99.2113 53.6495 98.9782 53.6495C98.1833 53.6495 97.7806 52.8546 97.7806 51.2754C97.7806 49.6963 98.1833 48.8908 98.9782 48.8908C99.169 48.8908 99.3703 48.9438 99.5929 49.0498L99.7731 48.6364C99.5505 48.5092 99.2749 48.4562 98.9358 48.4562C98.3847 48.4562 97.9819 48.7 97.6958 49.1769C97.4202 49.6645 97.2718 50.364 97.2718 51.2966C97.2718 52.2293 97.4096 52.897 97.6852 53.3739C97.9607 53.8402 98.3741 54.0734 98.9146 54.0734C99.0312 54.0734 99.169 54.0628 99.3279 54.0204M95.0992 47.3858C95.1734 47.46 95.2475 47.513 95.3429 47.513C95.4277 47.513 95.5019 47.4706 95.5549 47.3858C95.6079 47.2904 95.6397 47.1844 95.6397 47.0361C95.6397 46.8877 95.6079 46.7605 95.5549 46.6863C95.5019 46.6015 95.4277 46.5591 95.3429 46.5591C95.2475 46.5591 95.1734 46.6015 95.0992 46.6863C95.0462 46.7605 95.0144 46.8877 95.0144 47.0361C95.0144 47.1844 95.0462 47.2904 95.0992 47.3858ZM95.5549 48.541H95.0886V53.9674H95.5549V48.541ZM90.8386 49.4737C91.0188 49.0816 91.3049 48.8802 91.7183 48.8802C92.492 48.8802 92.8841 49.6645 92.8841 51.233C92.8841 52.8016 92.492 53.6071 91.7183 53.6071C91.3261 53.6071 91.0294 53.4057 90.8386 53.0136C90.6478 52.6108 90.5525 52.0279 90.5525 51.233C90.5525 50.4382 90.6478 49.8658 90.828 49.4737M92.9371 49.1663C92.6509 48.6788 92.2482 48.4351 91.7183 48.4351C90.616 48.4351 90.0649 49.3677 90.0649 51.233C90.0649 52.1445 90.2027 52.844 90.4889 53.3315C90.775 53.819 91.1778 54.0522 91.7077 54.0522C92.2376 54.0522 92.6615 53.8084 92.9477 53.3315C93.2444 52.844 93.3822 52.1445 93.3822 51.233C93.3822 50.3216 93.2338 49.6539 92.9477 49.1663M88.3798 53.9568V50.2156C88.3798 49.6221 88.2844 49.1769 88.0936 48.8696C87.8923 48.5728 87.5743 48.4245 87.1186 48.4245C86.8854 48.4245 86.6628 48.4986 86.4403 48.647C86.2283 48.7954 86.0693 49.0074 85.9528 49.2723H85.921C85.9316 49.124 85.9422 48.9226 85.9422 48.7V46.1776H85.4652V53.9568H85.9422V50.9893C85.9422 50.2474 86.0375 49.7175 86.2283 49.3783C86.4297 49.0392 86.7158 48.8696 87.0974 48.8696C87.3941 48.8696 87.5955 48.9756 87.7227 49.1769C87.8499 49.3783 87.9135 49.7281 87.9135 50.2156V53.9568H88.3798ZM83.7483 47.2798L83.9709 46.8453C83.6423 46.6333 83.2502 46.5379 82.805 46.5379C82.0843 46.5379 81.5226 46.8665 81.1093 47.5342C80.6853 48.2019 80.484 49.1239 80.484 50.2898C80.484 51.0741 80.5794 51.7418 80.7701 52.3141C80.9609 52.8864 81.2259 53.3103 81.5756 53.6177C81.9254 53.925 82.3281 54.0734 82.7944 54.0734C83.2184 54.0734 83.5575 53.9992 83.8225 53.8508V53.4057C83.5469 53.5329 83.2184 53.6071 82.8474 53.6071C82.4765 53.6071 82.1479 53.4799 81.8724 53.2149C81.5968 52.95 81.3848 52.5684 81.2259 52.0703C81.0775 51.5722 81.0033 50.9893 81.0033 50.3216C81.0033 49.2935 81.1623 48.488 81.4908 47.9051C81.8088 47.3222 82.2433 47.0255 82.805 47.0255C83.1548 47.0255 83.4833 47.1208 83.7589 47.301M76.5202 52.0279C76.4672 51.8583 76.3612 51.6994 76.2234 51.5616C76.0856 51.4238 75.8419 51.233 75.4815 50.9893C75.1106 50.7561 74.8774 50.5653 74.7608 50.4064C74.6443 50.2474 74.5913 50.046 74.5913 49.8022C74.5913 49.5373 74.6761 49.3147 74.8456 49.1451C75.0046 48.9756 75.2378 48.9014 75.5133 48.9014C75.8207 48.9014 76.1068 48.9968 76.3824 49.1769L76.6262 48.7636C76.3294 48.5516 75.9585 48.4562 75.5239 48.4562C75.1212 48.4562 74.782 48.5834 74.5171 48.8378C74.2521 49.0922 74.1143 49.4207 74.1143 49.8022C74.1143 50.046 74.1567 50.2474 74.2309 50.417C74.3051 50.5865 74.4111 50.7455 74.5383 50.8833C74.6761 51.0317 74.9198 51.2118 75.2908 51.445C75.6087 51.6464 75.8313 51.8371 75.9479 52.0067C76.0644 52.1763 76.1174 52.3777 76.1174 52.6108C76.1174 52.9182 76.0326 53.1619 75.8843 53.3527C75.7253 53.5329 75.5027 53.6177 75.2166 53.6177C75.0152 53.6177 74.8032 53.5859 74.6019 53.5117C74.3899 53.4375 74.2309 53.3315 74.1143 53.2043V53.7555C74.2203 53.8296 74.3687 53.9038 74.5489 53.9674C74.729 54.031 74.9516 54.0628 75.1954 54.0628C75.6511 54.0628 75.9903 53.9356 76.234 53.6813C76.4778 53.4163 76.5944 53.056 76.5944 52.6002C76.5944 52.3777 76.5626 52.1763 76.4884 52.0067M72.9379 46.6545H72.3656C72.2808 47.3646 72.1112 48.1489 71.8569 48.9968H72.1748C72.514 48.2337 72.7895 47.4918 73.0121 46.7605L72.9379 46.6545ZM68.317 53.3845C68.1792 53.2043 68.105 52.9076 68.105 52.5154C68.105 52.1021 68.211 51.7842 68.423 51.5616C68.635 51.339 68.9635 51.2224 69.3981 51.1906L69.9598 51.1588V51.7206C69.9598 52.3353 69.8644 52.8122 69.6736 53.1513C69.4828 53.4905 69.2179 53.6601 68.8893 53.6601C68.6456 53.6601 68.4548 53.5647 68.317 53.3845ZM70.4367 53.9568V50.258C70.4367 49.6009 70.3307 49.1345 70.1399 48.8484C69.9492 48.5622 69.6206 48.4245 69.1755 48.4245C68.7621 48.4245 68.3594 48.541 67.9885 48.7742L68.2004 49.1451C68.529 48.9438 68.8363 48.8378 69.1437 48.8378C69.451 48.8378 69.6524 48.9544 69.7796 49.1875C69.9068 49.4207 69.9704 49.7916 69.9704 50.2898V50.7455L69.3875 50.7667C68.8257 50.7985 68.3912 50.9575 68.0838 51.2542C67.7765 51.5616 67.6281 51.9643 67.6281 52.4836C67.6281 52.9606 67.7341 53.3315 67.9461 53.6177C68.158 53.9038 68.4442 54.0416 68.7939 54.0416C69.3133 54.0416 69.7054 53.7555 69.9704 53.1831H69.9916L70.0551 53.9462H70.4473L70.4367 53.9568ZM65.5296 47.3752C65.5932 47.46 65.678 47.5024 65.7734 47.5024C65.8582 47.5024 65.9324 47.46 65.9854 47.3752C66.0384 47.2904 66.0596 47.1738 66.0596 47.0255C66.0596 46.8771 66.0384 46.7605 65.9854 46.6757C65.9324 46.5909 65.8582 46.5485 65.7734 46.5485C65.678 46.5485 65.5932 46.5803 65.5296 46.6757C65.4766 46.7499 65.4448 46.8771 65.4448 47.0255C65.4448 47.1738 65.466 47.2798 65.5296 47.3752ZM65.9854 48.541H65.5084V53.9674H65.9854V48.541ZM63.8021 52.0067C63.7385 51.8371 63.6325 51.6782 63.5053 51.5404C63.3782 51.4026 63.1238 51.2012 62.7635 50.9681C62.3925 50.7349 62.1593 50.5441 62.0428 50.3746C61.9368 50.2156 61.8838 50.0142 61.8838 49.7705C61.8838 49.4949 61.958 49.2829 62.1275 49.1239C62.2971 48.9544 62.5197 48.8802 62.7952 48.8802C63.1026 48.8802 63.3888 48.965 63.6643 49.1557L63.9081 48.7424C63.6219 48.541 63.251 48.4351 62.8164 48.4351C62.4137 48.4351 62.0746 48.5622 61.8096 48.8166C61.5446 49.071 61.4175 49.3889 61.4175 49.7811C61.4175 50.0248 61.4598 50.2262 61.534 50.4064C61.6082 50.5759 61.7142 50.7349 61.852 50.8727C61.9792 51.0211 62.2441 51.2012 62.6045 51.4344C62.933 51.6464 63.145 51.8371 63.2616 52.0067C63.3782 52.1763 63.4311 52.3777 63.4311 52.6108C63.4311 52.9182 63.3464 53.1619 63.1874 53.3527C63.0284 53.5329 62.8058 53.6177 62.5303 53.6177C62.3183 53.6177 62.1063 53.5859 61.905 53.5117C61.7036 53.4375 61.5446 53.3315 61.4175 53.2043V53.7555C61.5234 53.8296 61.6612 53.9038 61.852 53.9674C62.0428 54.031 62.2547 54.0628 62.4985 54.0628C62.9542 54.0628 63.2934 53.9356 63.5371 53.6813C63.7809 53.4163 63.8975 53.056 63.8975 52.6002C63.8975 52.3777 63.8657 52.1763 63.8021 52.0067ZM59.3084 49.3889C59.4885 49.7387 59.5839 50.2156 59.5839 50.8091H57.496C57.5596 49.5055 57.92 48.8484 58.5665 48.8484C58.8738 48.8484 59.1282 49.0286 59.3084 49.3783M59.8807 53.7237V53.2573C59.4991 53.4799 59.1494 53.5965 58.8102 53.5965C58.3651 53.5965 58.0366 53.3951 57.8246 53.003C57.602 52.6108 57.496 52.0173 57.4854 51.233H60.0609V50.7985C60.0609 50.0778 59.9337 49.4949 59.6687 49.0604C59.4038 48.6364 59.054 48.4245 58.6089 48.4245C58.0896 48.4245 57.6974 48.6682 57.4219 49.1557C57.1463 49.6433 57.0085 50.3534 57.0085 51.2754C57.0085 52.1445 57.1569 52.8228 57.4643 53.3103C57.7716 53.8084 58.2167 54.0416 58.7891 54.0416C59.1706 54.0416 59.5415 53.9356 59.8913 53.7237M55.3128 53.9462V50.1944C55.3128 49.5691 55.2068 49.124 54.9948 48.8378C54.7829 48.5516 54.4649 48.4139 54.0516 48.4139C53.8078 48.4139 53.5746 48.488 53.3627 48.6364C53.1507 48.7848 52.9811 48.9968 52.8751 49.2723H52.8327L52.7904 48.5198H52.3876V53.9462H52.8645V50.9681C52.8645 50.2368 52.9599 49.6963 53.1507 49.3571C53.3415 49.018 53.6382 48.859 54.041 48.859C54.5709 48.859 54.8464 49.3041 54.8464 50.205V53.9462H55.3234H55.3128ZM48.1377 49.4631C48.3178 49.0604 48.6146 48.8696 49.0173 48.8696C49.8016 48.8696 50.1831 49.6539 50.1831 51.2224C50.1831 52.791 49.8016 53.5965 49.0173 53.5965C48.6252 53.5965 48.3284 53.3951 48.1483 53.003C47.9575 52.6002 47.8621 52.0067 47.8621 51.2224C47.8621 50.4382 47.9575 49.8552 48.1377 49.4631ZM50.2467 49.1557C49.95 48.6576 49.5472 48.4245 49.0279 48.4245C47.9151 48.4245 47.364 49.3571 47.364 51.2224C47.364 52.1339 47.5018 52.8334 47.7879 53.3209C48.0741 53.7979 48.4768 54.0416 49.0067 54.0416C49.5366 54.0416 49.95 53.7979 50.2467 53.3209C50.5329 52.8334 50.6813 52.1339 50.6813 51.2224C50.6813 50.311 50.5329 49.6433 50.2467 49.1557ZM43.1458 53.0348C42.9762 52.632 42.8808 52.0385 42.8808 51.2542C42.8808 50.4699 42.9656 49.887 43.1352 49.4843C43.3048 49.0816 43.5909 48.8696 43.9831 48.8696C44.3752 48.8696 44.6826 49.0604 44.8839 49.4419C45.0853 49.8234 45.1807 50.4276 45.1807 51.2436V51.551C45.1807 52.2293 45.0747 52.7486 44.8734 53.109C44.672 53.4587 44.3752 53.6389 43.9937 53.6389C43.6121 53.6389 43.3154 53.4375 43.1458 53.0348ZM44.6826 53.8296C44.8839 53.6813 45.0535 53.4693 45.1807 53.1831H45.2337L45.2761 53.9462H45.6682V46.167H45.1913V48.6046L45.2125 49.2087H45.1701C45.0429 48.965 44.8628 48.7742 44.6508 48.6364C44.4282 48.488 44.1951 48.4245 43.9513 48.4245C43.432 48.4245 43.0504 48.6576 42.7855 49.1451C42.5205 49.6221 42.3827 50.3322 42.3827 51.2542C42.3827 53.1196 42.9126 54.0522 43.9619 54.0522C44.2268 54.0522 44.4706 53.978 44.672 53.8402M40.6976 53.9568V50.205C40.6976 49.5797 40.5916 49.1345 40.3796 48.8484C40.1677 48.5622 39.8603 48.4245 39.4364 48.4245C39.1926 48.4245 38.97 48.4986 38.7581 48.647C38.5461 48.7954 38.3765 49.0074 38.2705 49.2829H38.2282L38.1858 48.5304H37.783V53.9568H38.2493V50.9787C38.2493 50.2474 38.3447 49.7069 38.5355 49.3677C38.7263 49.0286 39.023 48.8696 39.4258 48.8696C39.9557 48.8696 40.2207 49.3147 40.2207 50.2156V53.9568H40.6976ZM35.7375 46.6439H35.25V53.9568H35.7375V46.6439Z" fill="#231F20"/>
<path d="M124.341 47.0354C124.055 46.7174 123.673 46.5584 123.196 46.5584C122.91 46.5584 122.645 46.6114 122.401 46.7068C122.157 46.8022 121.914 46.9824 121.67 47.2155L121.977 47.5441C122.2 47.3321 122.412 47.1837 122.592 47.1096C122.772 47.0354 122.984 46.993 123.207 46.993C123.546 46.993 123.811 47.1096 124.002 47.3533C124.192 47.5865 124.277 47.9256 124.277 48.339C124.277 48.8265 124.15 49.2186 123.874 49.5154C123.609 49.8122 123.27 49.9605 122.836 49.9605H122.433V50.4163H122.804C123.313 50.4163 123.705 50.554 123.97 50.8296C124.235 51.1052 124.362 51.4867 124.362 51.9742C124.362 52.4618 124.256 52.8963 124.023 53.1825C123.8 53.4792 123.482 53.6276 123.08 53.6276C122.581 53.6276 122.115 53.511 121.702 53.2672V53.8078C122.062 53.9879 122.518 54.0727 123.08 54.0727C123.641 54.0727 124.076 53.8925 124.394 53.511C124.712 53.1295 124.871 52.6313 124.871 51.9954C124.871 51.5079 124.765 51.1158 124.532 50.7978C124.298 50.4799 123.98 50.2679 123.578 50.1831V50.1407C123.97 49.9923 124.267 49.7698 124.468 49.4518C124.659 49.1339 124.765 48.7523 124.765 48.286C124.765 47.7667 124.616 47.3533 124.341 47.0354ZM119.243 46.6644H118.84L117.431 47.9574L117.685 48.2754L118.31 47.7031C118.565 47.4487 118.734 47.2791 118.798 47.1837C118.766 47.6925 118.755 48.1694 118.755 48.6039V53.9773H119.243V46.675V46.6644ZM113.287 47.8408C113.456 47.3003 113.732 47.0354 114.113 47.0354C114.845 47.0354 115.205 48.127 115.205 50.3103C115.205 52.4936 114.845 53.6064 114.113 53.6064C113.732 53.6064 113.456 53.3308 113.287 52.7903C113.106 52.2498 113.022 51.4231 113.022 50.3209C113.022 49.2186 113.106 48.392 113.287 47.8515V47.8408ZM115.332 47.4911C115.078 46.8658 114.664 46.5584 114.113 46.5584C113.053 46.5584 112.513 47.8091 112.513 50.2997C112.513 51.6351 112.64 52.5889 112.894 53.1825C113.149 53.7654 113.552 54.0621 114.113 54.0621C114.643 54.0621 115.046 53.7442 115.311 53.1083C115.576 52.4724 115.714 51.5291 115.714 50.2997C115.714 49.0703 115.576 48.1058 115.332 47.4805V47.4911ZM111.114 53.5322H108.39V53.4898L109.736 51.4973C110.075 51.0098 110.33 50.5964 110.478 50.2891C110.626 49.9817 110.743 49.6638 110.828 49.3458C110.902 49.0173 110.944 48.6781 110.944 48.3072C110.944 47.7773 110.807 47.3533 110.52 47.0354C110.245 46.728 109.842 46.569 109.344 46.569C109.068 46.569 108.814 46.6008 108.602 46.675C108.39 46.7492 108.157 46.8764 107.924 47.046L108.189 47.4169C108.369 47.2791 108.539 47.1732 108.708 47.1096C108.888 47.046 109.079 47.0036 109.312 47.0036C109.662 47.0036 109.938 47.1202 110.139 47.3533C110.34 47.5865 110.446 47.9044 110.446 48.2966C110.446 48.8159 110.372 49.2822 110.213 49.6956C110.054 50.1089 109.757 50.66 109.302 51.3489L107.818 53.5852V53.9773H111.103V53.5322H111.114ZM103.292 49.4094C103.472 49.7592 103.568 50.2361 103.568 50.8296H101.48C101.544 49.526 101.893 48.8795 102.561 48.8795C102.868 48.8795 103.112 49.0597 103.292 49.4094ZM103.865 53.7548V53.2884C103.483 53.511 103.123 53.6276 102.794 53.6276C102.349 53.6276 102.031 53.4368 101.809 53.0447C101.597 52.6419 101.48 52.059 101.469 51.2641H104.034V50.8296C104.034 50.0983 103.907 49.526 103.642 49.0915C103.377 48.6569 103.027 48.445 102.582 48.445C102.063 48.445 101.671 48.6887 101.385 49.1763C101.12 49.6638 100.971 50.3739 100.971 51.2959C100.971 52.165 101.13 52.8433 101.438 53.3414C101.745 53.829 102.19 54.0727 102.762 54.0727C103.144 54.0727 103.504 53.9667 103.854 53.7548H103.865ZM99.3497 54.0303C99.5087 53.9985 99.6465 53.9455 99.7525 53.8925V53.4898C99.4769 53.5958 99.2225 53.6488 98.9894 53.6488C98.1945 53.6488 97.7917 52.8539 97.7917 51.2747C97.7917 49.6956 98.1945 48.8901 98.9894 48.8901C99.1801 48.8901 99.3815 48.9431 99.6041 49.0491L99.7842 48.6357C99.5617 48.5086 99.2861 48.4556 98.947 48.4556C98.3959 48.4556 97.9931 48.6993 97.707 49.1763C97.4314 49.6638 97.283 50.3633 97.283 51.2959C97.283 52.2286 97.4208 52.8963 97.6964 53.3732C97.9719 53.8396 98.3853 54.0727 98.9258 54.0727C99.0424 54.0727 99.1801 54.0621 99.3391 54.0197L99.3497 54.0303ZM95.1209 47.3957C95.1951 47.4699 95.2693 47.5229 95.3647 47.5229C95.4495 47.5229 95.5237 47.4805 95.5767 47.3957C95.6297 47.3003 95.6615 47.1943 95.6615 47.046C95.6615 46.8976 95.6297 46.7704 95.5767 46.6962C95.5237 46.6114 95.4495 46.569 95.3647 46.569C95.2693 46.569 95.1951 46.6114 95.1209 46.6962C95.068 46.7704 95.0362 46.8976 95.0362 47.046C95.0362 47.1943 95.068 47.3003 95.1209 47.3957ZM95.5767 48.5509H95.1103V53.9773H95.5767V48.5509ZM90.8604 49.4836C91.0406 49.0915 91.3267 48.8901 91.7401 48.8901C92.5137 48.8901 92.9059 49.6744 92.9059 51.2429C92.9059 52.8115 92.5137 53.617 91.7401 53.617C91.3479 53.617 91.0512 53.4156 90.8604 53.0235C90.6696 52.6207 90.5742 52.0378 90.5742 51.2429C90.5742 50.4481 90.6696 49.8757 90.8498 49.4836H90.8604ZM92.9695 49.1763C92.6833 48.6887 92.2806 48.445 91.7507 48.445C90.6484 48.445 90.0973 49.3776 90.0973 51.2429C90.0973 52.1544 90.2351 52.8539 90.5212 53.3414C90.8074 53.829 91.2101 54.0621 91.7401 54.0621C92.27 54.0621 92.6939 53.8184 92.9801 53.3414C93.2768 52.8539 93.4146 52.1544 93.4146 51.2429C93.4146 50.3315 93.2662 49.6638 92.9801 49.1763H92.9695ZM88.4016 53.9667V50.2255C88.4016 49.632 88.3062 49.1868 88.1154 48.8795C87.914 48.5827 87.5961 48.4344 87.1404 48.4344C86.9072 48.4344 86.6846 48.5086 86.4621 48.6569C86.2501 48.8053 86.0911 49.0173 85.9745 49.2822H85.9427C85.9533 49.1339 85.9639 48.9325 85.9639 48.7099V46.1875H85.487V53.9667H85.9639V50.9992C85.9639 50.2573 86.0593 49.7274 86.2501 49.3882C86.4515 49.0491 86.7376 48.8795 87.1192 48.8795C87.4159 48.8795 87.6173 48.9855 87.7445 49.1868C87.8716 49.3882 87.9352 49.738 87.9352 50.2255V53.9667H88.4016ZM83.7701 47.2897L83.9926 46.8552C83.6641 46.6432 83.2719 46.5478 82.8268 46.5478C82.1061 46.5478 81.5444 46.8764 81.1311 47.5441C80.7071 48.2118 80.5058 49.1339 80.5058 50.2997C80.5058 51.084 80.6011 51.7517 80.7919 52.324C80.9827 52.8963 81.2476 53.3202 81.5974 53.6276C81.9471 53.9349 82.3499 54.0833 82.8162 54.0833C83.2401 54.0833 83.5793 54.0091 83.8442 53.8607V53.4156C83.5687 53.5428 83.2401 53.617 82.8692 53.617C82.4983 53.617 82.1697 53.4898 81.8941 53.2248C81.6186 52.9599 81.4066 52.5783 81.2476 52.0802C81.0993 51.5821 81.0251 50.9992 81.0251 50.3315C81.0251 49.3034 81.1841 48.498 81.5126 47.915C81.8306 47.3321 82.2651 47.0354 82.8268 47.0354C83.1766 47.0354 83.5051 47.1308 83.7807 47.3109L83.7701 47.2897ZM76.5314 52.0166C76.4784 51.8471 76.3724 51.6881 76.2346 51.5503C76.0968 51.4125 75.8531 51.2217 75.4927 50.978C75.1218 50.7448 74.8886 50.554 74.772 50.3951C74.6554 50.2361 74.6024 50.0347 74.6024 49.791C74.6024 49.526 74.6872 49.3034 74.8568 49.1339C75.0158 48.9643 75.2489 48.8901 75.5245 48.8901C75.8319 48.8901 76.118 48.9855 76.3936 49.1657L76.6373 48.7523C76.3406 48.5403 75.9696 48.445 75.5351 48.445C75.1324 48.445 74.7932 48.5721 74.5283 48.8265C74.2633 49.0809 74.1255 49.4094 74.1255 49.791C74.1255 50.0347 74.1679 50.2361 74.2421 50.4057C74.3163 50.5752 74.4223 50.7342 74.5494 50.872C74.6872 51.0204 74.931 51.2005 75.3019 51.4337C75.6199 51.6351 75.8425 51.8259 75.959 51.9954C76.0756 52.165 76.1286 52.3664 76.1286 52.5995C76.1286 52.9069 76.0438 53.1507 75.8954 53.3414C75.7365 53.5216 75.5139 53.6064 75.2278 53.6064C75.0264 53.6064 74.8144 53.5746 74.613 53.5004C74.4011 53.4262 74.2421 53.3202 74.1255 53.193V53.7442C74.2315 53.8184 74.3799 53.8925 74.56 53.9561C74.7402 54.0197 74.9628 54.0515 75.2066 54.0515C75.6623 54.0515 76.0014 53.9243 76.2452 53.67C76.489 53.405 76.6055 53.0447 76.6055 52.5889C76.6055 52.3664 76.5737 52.165 76.4996 51.9954L76.5314 52.0166ZM72.9809 46.6644H72.4086C72.3238 47.3745 72.1542 48.1588 71.8998 49.0067H72.2178C72.557 48.2436 72.8325 47.5017 73.0551 46.7704L72.9809 46.6644ZM68.36 53.3944C68.2222 53.2142 68.148 52.9175 68.148 52.5254C68.148 52.112 68.254 51.7941 68.466 51.5715C68.6779 51.3489 69.0065 51.2323 69.441 51.2005L70.0027 51.1688V51.7305C70.0027 52.3452 69.9073 52.8221 69.7166 53.1613C69.5258 53.5004 69.2608 53.67 68.9323 53.67C68.6885 53.67 68.4978 53.5746 68.36 53.3944ZM70.4797 53.9667V50.2679C70.4797 49.6108 70.3737 49.1445 70.1829 48.8583C69.9921 48.5721 69.6636 48.4344 69.2185 48.4344C68.8051 48.4344 68.4024 48.5509 68.0314 48.7841L68.2434 49.1551C68.572 48.9537 68.8793 48.8477 69.1867 48.8477C69.494 48.8477 69.6954 48.9643 69.8226 49.1974C69.9497 49.4306 70.0133 49.8016 70.0133 50.2997V50.7554L69.4304 50.7766C68.8687 50.8084 68.4342 50.9674 68.1268 51.2641C67.8195 51.5715 67.6711 51.9742 67.6711 52.4936C67.6711 52.9705 67.7771 53.3414 67.989 53.6276C68.201 53.9137 68.4872 54.0515 68.8369 54.0515C69.3562 54.0515 69.7484 53.7654 70.0133 53.193H70.0345L70.0981 53.9561H70.4903L70.4797 53.9667ZM65.5726 47.3851C65.6362 47.4699 65.721 47.5123 65.8164 47.5123C65.9012 47.5123 65.9753 47.4699 66.0283 47.3851C66.0813 47.3003 66.1025 47.1838 66.1025 47.0354C66.1025 46.887 66.0813 46.7704 66.0283 46.6856C65.9753 46.6008 65.9012 46.5584 65.8164 46.5584C65.721 46.5584 65.6362 46.5902 65.5726 46.6856C65.5196 46.7598 65.4878 46.887 65.4878 47.0354C65.4878 47.1838 65.509 47.2897 65.5726 47.3851ZM66.0283 48.5509H65.5514V53.9773H66.0283V48.5509ZM63.8451 52.0166C63.7815 51.8471 63.6755 51.6881 63.5483 51.5503C63.4211 51.4125 63.1668 51.2111 62.8064 50.978C62.4355 50.7448 62.2023 50.554 62.0857 50.3845C61.9797 50.2255 61.9268 50.0241 61.9268 49.7804C61.9268 49.5048 62.0009 49.2928 62.1705 49.1339C62.3401 48.9643 62.5627 48.8901 62.8382 48.8901C63.1456 48.8901 63.4317 48.9749 63.7073 49.1657L63.951 48.7523C63.6649 48.5509 63.2939 48.445 62.8594 48.445C62.4567 48.445 62.1175 48.5721 61.8526 48.8265C61.5876 49.0809 61.4604 49.3988 61.4604 49.791C61.4604 50.0347 61.5028 50.2361 61.577 50.4163C61.6512 50.5858 61.7572 50.7448 61.895 50.8826C62.0221 51.031 62.2871 51.2111 62.6474 51.4443C62.976 51.6563 63.188 51.8471 63.3045 52.0166C63.4211 52.1862 63.4741 52.3876 63.4741 52.6207C63.4741 52.9281 63.3893 53.1719 63.2304 53.3626C63.0714 53.5428 62.8488 53.6276 62.5733 53.6276C62.3613 53.6276 62.1493 53.5958 61.948 53.5216C61.7466 53.4474 61.5876 53.3414 61.4604 53.2142V53.7654C61.5664 53.8396 61.7042 53.9137 61.895 53.9773C62.0857 54.0409 62.2977 54.0727 62.5415 54.0727C62.9972 54.0727 63.3363 53.9455 63.5801 53.6912C63.8239 53.4262 63.9405 53.0659 63.9405 52.6101C63.9405 52.3876 63.9087 52.1862 63.8451 52.0166ZM59.3513 49.3988C59.5315 49.7486 59.6269 50.2255 59.6269 50.819H57.539C57.6026 49.5154 57.963 48.8583 58.6095 48.8583C58.9168 48.8583 59.1712 49.0385 59.3513 49.3882V49.3988ZM59.9237 53.7442V53.2778C59.5421 53.5004 59.1924 53.617 58.8532 53.617C58.4081 53.617 58.0795 53.4156 57.8676 53.0235C57.645 52.6313 57.539 52.0378 57.5284 51.2535H60.1038V50.819C60.1038 50.0983 59.9766 49.5154 59.7117 49.0809C59.4467 48.6569 59.097 48.445 58.6518 48.445C58.1325 48.445 57.7404 48.6887 57.4648 49.1763C57.1893 49.6638 57.0515 50.3739 57.0515 51.2959C57.0515 52.165 57.1999 52.8433 57.5072 53.3308C57.8146 53.829 58.2597 54.0621 58.832 54.0621C59.2136 54.0621 59.5845 53.9561 59.9343 53.7442H59.9237ZM55.3451 53.9667V50.2149C55.3451 49.5896 55.2392 49.1445 55.0272 48.8583C54.8152 48.5721 54.4973 48.4344 54.0839 48.4344C53.8402 48.4344 53.607 48.5086 53.395 48.6569C53.1831 48.8053 53.0135 49.0173 52.9075 49.2928H52.8651L52.8227 48.5403H52.42V53.9667H52.8969V50.9886C52.8969 50.2573 52.9923 49.7168 53.1831 49.3776C53.3738 49.0385 53.6706 48.8795 54.0733 48.8795C54.6033 48.8795 54.8788 49.3246 54.8788 50.2255V53.9667H55.3557H55.3451ZM48.17 49.4836C48.3502 49.0809 48.647 48.8901 49.0497 48.8901C49.834 48.8901 50.2155 49.6744 50.2155 51.2429C50.2155 52.8115 49.834 53.617 49.0497 53.617C48.6576 53.617 48.3608 53.4156 48.1806 53.0235C47.9899 52.6207 47.8945 52.0272 47.8945 51.2429C47.8945 50.4587 47.9899 49.8757 48.17 49.4836ZM50.2791 49.1763C49.9824 48.6781 49.5796 48.445 49.0603 48.445C47.9475 48.445 47.3963 49.3776 47.3963 51.2429C47.3963 52.1544 47.5341 52.8539 47.8203 53.3414C48.1064 53.8184 48.5092 54.0621 49.0391 54.0621C49.569 54.0621 49.9824 53.8184 50.2791 53.3414C50.5653 52.8539 50.7136 52.1544 50.7136 51.2429C50.7136 50.3315 50.5653 49.6638 50.2791 49.1763ZM43.1782 53.0553C43.0086 52.6525 42.9132 52.059 42.9132 51.2747C42.9132 50.4905 42.998 49.9075 43.1676 49.5048C43.3372 49.1021 43.6233 48.8901 44.0155 48.8901C44.4076 48.8901 44.715 49.0809 44.9163 49.4624C45.1177 49.8439 45.2131 50.4481 45.2131 51.2641V51.5715C45.2131 52.2498 45.1071 52.7691 44.9057 53.1295C44.7043 53.4792 44.4076 53.6594 44.0261 53.6594C43.6445 53.6594 43.3478 53.458 43.1782 53.0553ZM44.7149 53.8502C44.9163 53.7018 45.0859 53.4898 45.2131 53.2036H45.2661L45.3085 53.9667H45.7006V46.1875H45.2237V48.6251L45.2449 49.2292H45.2025C45.0753 48.9855 44.8951 48.7947 44.6832 48.6569C44.4606 48.5086 44.2274 48.445 43.9837 48.445C43.4643 48.445 43.0828 48.6781 42.8178 49.1657C42.5529 49.6426 42.4151 50.3527 42.4151 51.2747C42.4151 53.1401 42.945 54.0727 43.9943 54.0727C44.2592 54.0727 44.503 53.9985 44.7044 53.8607L44.7149 53.8502ZM40.7405 53.9667V50.2149C40.7405 49.5896 40.6346 49.1445 40.4226 48.8583C40.2106 48.5721 39.9033 48.4344 39.4793 48.4344C39.2356 48.4344 39.013 48.5086 38.801 48.6569C38.5891 48.8053 38.4195 49.0173 38.3135 49.2928H38.2711L38.2287 48.5403H37.826V53.9667H38.2923V50.9886C38.2923 50.2573 38.3877 49.7168 38.5785 49.3776C38.7692 49.0385 39.066 48.8795 39.4687 48.8795C39.9987 48.8795 40.2636 49.3246 40.2636 50.2255V53.9667H40.7405ZM35.7805 46.6538H35.293V53.9667H35.7805V46.6538Z" stroke="#231F20" stroke-width="0.0953857" stroke-miterlimit="5.49"/>
</g>
<defs>
<clipPath id="clip0_1372_14917">
<rect width="130" height="54.1261" fill="white"/>
</clipPath>
</defs>
</svg>
