<svg width="130" height="72" viewBox="0 0 130 72" fill="none" xmlns="http://www.w3.org/2000/svg">
<g clip-path="url(#clip0_1375_15962)">
<path d="M6.26341 0.485352H0V20.6909H6.26341V0.485352Z" fill="#231F20"/>
<path d="M20.7546 12.4313L26.2258 14.0896C25.8562 15.6211 25.2752 16.9097 24.4936 17.9343C23.7015 18.9694 22.7192 19.7404 21.5468 20.2685C20.3744 20.7861 18.8851 21.0501 17.0789 21.0501C14.882 21.0501 13.0864 20.7333 11.6922 20.089C10.298 19.4552 9.09389 18.3251 8.09048 16.7196C7.0765 15.1142 6.58008 13.0545 6.58008 10.5513C6.58008 7.20304 7.46731 4.63641 9.25232 2.84083C11.0162 1.04525 13.53 0.147461 16.7832 0.147461C19.3287 0.147461 21.325 0.665011 22.7825 1.68955C24.2401 2.71409 25.3175 4.29842 26.0252 6.43199L20.5117 7.65721C20.3215 7.0446 20.1209 6.59043 19.9096 6.30525C19.5611 5.82995 19.1386 5.46027 18.6316 5.20677C18.1246 4.95328 17.5648 4.81597 16.9416 4.81597C15.5263 4.81597 14.4384 5.38633 13.6885 6.52705C13.1181 7.37203 12.8329 8.69231 12.8329 10.509C12.8329 12.7482 13.1709 14.2797 13.8575 15.1142C14.5334 15.9486 15.4946 16.3605 16.7198 16.3605C17.945 16.3605 18.8111 16.0225 19.4238 15.3571C20.0364 14.6917 20.48 13.7094 20.7546 12.4313Z" fill="#231F20"/>
<path d="M25.1586 14.0159L31.0946 13.6462C31.2214 14.6073 31.4854 15.3467 31.8762 15.8537C32.5205 16.667 33.4394 17.0789 34.633 17.0789C35.5202 17.0789 36.2067 16.8677 36.6926 16.4557C37.1785 16.0332 37.4108 15.5474 37.4108 14.9981C37.4108 14.4806 37.1785 14.0053 36.7243 13.5934C36.2701 13.1814 35.2033 12.7906 33.5239 12.421C30.7883 11.8084 28.8343 10.9845 27.6619 9.97052C26.4895 8.94599 25.898 7.64683 25.898 6.07306C25.898 5.03796 26.2043 4.05567 26.8063 3.12619C27.4084 2.19672 28.3167 1.47848 29.5208 0.950371C30.7249 0.422259 32.3832 0.158203 34.4851 0.158203C37.0728 0.158203 39.0374 0.633504 40.3894 1.59467C41.7414 2.55583 42.5546 4.07679 42.8081 6.17868L36.925 6.52723C36.7665 5.61888 36.4391 4.95346 35.9427 4.54153C35.4357 4.12961 34.7491 3.91836 33.8619 3.91836C33.1331 3.91836 32.5945 4.07679 32.2248 4.3831C31.8551 4.6894 31.6755 5.06964 31.6755 5.5027C31.6755 5.81956 31.8234 6.11531 32.1297 6.3688C32.4255 6.63286 33.1226 6.88635 34.2316 7.11872C36.9567 7.7102 38.9107 8.30169 40.0936 8.90374C41.2766 9.50578 42.1322 10.2557 42.6708 11.1429C43.2095 12.0302 43.4736 13.0336 43.4736 14.132C43.4736 15.4312 43.1144 16.6247 42.3962 17.7126C41.678 18.8006 40.6746 19.635 39.386 20.2053C38.0974 20.7757 36.4708 21.0503 34.5168 21.0503C31.0841 21.0503 28.697 20.3849 27.3767 19.0646C26.0564 17.7443 25.3065 16.0544 25.127 14.0159" fill="#231F20"/>
<path d="M55.4843 17.364H48.397L47.4147 20.7017H41.0352L48.6294 0.496094H55.442L63.0363 20.7017H56.4983L55.4843 17.364ZM54.1851 12.9912L51.9565 5.7244L49.749 12.9912H54.1851Z" fill="#231F20"/>
<path d="M81.045 20.7018H64.082C64.2827 19.0224 64.8636 17.4486 65.8565 15.9699C66.8388 14.4912 68.6872 12.7484 71.4017 10.7416C73.0599 9.50584 74.1162 8.57636 74.5809 7.94262C75.0456 7.29833 75.278 6.69628 75.278 6.12592C75.278 5.50275 75.0456 4.97463 74.5915 4.53102C74.1373 4.08741 73.5564 3.87616 72.8593 3.87616C72.1621 3.87616 71.5495 4.09797 71.0954 4.55215C70.6412 5.00632 70.3243 5.80905 70.1764 6.94977L64.5151 6.4956C64.7369 4.9007 65.1488 3.66492 65.7403 2.76713C66.3318 1.86934 67.1662 1.19335 68.2436 0.70749C69.3209 0.232189 70.8102 -0.0107422 72.7219 -0.0107422C74.6337 -0.0107422 76.2603 0.211065 77.3693 0.665241C78.4784 1.11942 79.3445 1.81652 79.9782 2.75656C80.6119 3.6966 80.9288 4.75283 80.9288 5.91467C80.9288 7.15046 80.5697 8.34399 79.8409 9.46359C79.1121 10.5937 77.7918 11.8295 75.88 13.1815C74.7393 13.9631 73.9788 14.5229 73.5986 14.8292C73.2184 15.1461 72.7642 15.558 72.2466 16.065H81.0767V20.6701L81.045 20.7018Z" fill="#EF4135"/>
<path d="M81.4766 10.4355C81.4766 6.56971 82.1737 3.85522 83.5679 2.31313C84.9515 0.771043 87.0745 0 89.9264 0C91.2994 0 92.419 0.168996 93.3063 0.506987C94.1829 0.844979 94.9012 1.28859 95.461 1.82727C96.0102 2.36594 96.4538 2.9363 96.7707 3.53835C97.0875 4.1404 97.3516 4.83751 97.5417 5.62967C97.922 7.15064 98.1121 8.72441 98.1121 10.3721C98.1121 14.0689 97.4889 16.7623 96.2426 18.4839C94.9962 20.195 92.8415 21.0505 89.789 21.0505C88.078 21.0505 86.6943 20.7759 85.6381 20.2372C84.5819 19.688 83.7158 18.8958 83.0398 17.8396C82.5539 17.0897 82.1631 16.0652 81.8991 14.766C81.6244 13.4669 81.4871 12.0304 81.4871 10.4566M87.0957 10.4672C87.0957 13.0549 87.3175 14.8294 87.7822 15.78C88.2364 16.7306 88.9018 17.2059 89.7785 17.2059C90.3488 17.2059 90.8453 17.0052 91.2678 16.6038C91.6902 16.2025 91.9966 15.5687 92.1972 14.6921C92.3979 13.826 92.493 12.4634 92.493 10.6256C92.493 7.92168 92.2606 6.10497 91.8064 5.1755C91.3523 4.24602 90.6657 3.78128 89.7468 3.78128C88.8279 3.78128 88.1308 4.25658 87.7188 5.20718C87.2964 6.15778 87.0957 7.91112 87.0957 10.4777" fill="#EF4135"/>
<path d="M112.488 10.4355C112.488 6.56971 113.185 3.85522 114.58 2.31313C115.974 0.771043 118.097 0 120.938 0C122.311 0 123.431 0.168996 124.318 0.506987C125.195 0.844979 125.913 1.28859 126.473 1.82727C127.022 2.36594 127.466 2.9363 127.782 3.53835C128.099 4.1404 128.363 4.83751 128.553 5.62967C128.934 7.15064 129.124 8.72441 129.124 10.3721C129.124 14.0689 128.501 16.7623 127.254 18.4839C126.008 20.195 123.853 21.0505 120.801 21.0505C119.09 21.0505 117.706 20.7759 116.65 20.2372C115.594 19.688 114.727 18.8958 114.051 17.8396C113.566 17.0897 113.175 16.0652 112.911 14.766C112.636 13.4669 112.499 12.0304 112.499 10.4566M118.107 10.4672C118.107 13.0549 118.329 14.8294 118.794 15.78C119.248 16.7306 119.914 17.2059 120.79 17.2059C121.361 17.2059 121.857 17.0052 122.279 16.6038C122.702 16.2025 123.008 15.5687 123.209 14.6921C123.41 13.826 123.505 12.4634 123.505 10.6256C123.505 7.92168 123.272 6.10497 122.818 5.1755C122.364 4.24602 121.677 3.78128 120.759 3.78128C119.84 3.78128 119.142 4.25658 118.731 5.20718C118.308 6.15778 118.107 7.91112 118.107 10.4777" fill="#EF4135"/>
<path d="M110.577 0V20.702H104.852V7.14007C103.923 7.84774 103.025 8.40754 102.169 8.85116C101.303 9.28421 100.215 9.7067 98.916 10.0975V5.46068C100.838 4.83751 102.338 4.09815 103.394 3.22148C104.461 2.35538 105.296 1.27803 105.887 0H110.566L110.577 0Z" fill="#EF4135"/>
<path d="M0.622298 22.6348H0.0625V26.8702H0.622298V22.6348Z" fill="#231F20"/>
<path d="M1.28906 26.8702V22.6348H1.86999L4.09862 25.9619V22.6348H4.62673V26.8702H4.05637L1.82774 23.5431V26.8702H1.28906Z" fill="#231F20"/>
<path d="M5.28205 26.8702V22.6348H6.73964C7.06706 22.6348 7.32056 22.6559 7.48955 22.6981C7.73249 22.7509 7.94373 22.8566 8.11273 23.0044C8.33453 23.1946 8.50353 23.4375 8.61971 23.7332C8.72534 24.029 8.78871 24.367 8.78871 24.7472C8.78871 25.0641 8.74646 25.3493 8.67252 25.6028C8.59859 25.8562 8.50353 26.0569 8.38734 26.2154C8.27116 26.3738 8.14441 26.5111 7.99654 26.6062C7.85923 26.7012 7.69024 26.7646 7.48955 26.8174C7.28887 26.8702 7.06706 26.8913 6.80301 26.8913H5.27148L5.28205 26.8702ZM5.84185 26.3738H6.7502C7.03538 26.3738 7.24662 26.3527 7.40506 26.2893C7.56349 26.2365 7.69024 26.1626 7.7853 26.0675C7.91204 25.9302 8.01767 25.7506 8.0916 25.5288C8.16554 25.307 8.20779 25.0324 8.20779 24.7155C8.20779 24.2719 8.13385 23.9339 7.98598 23.691C7.83811 23.4481 7.65855 23.2896 7.45787 23.2157C7.31 23.1523 7.06706 23.1312 6.72907 23.1312H5.84185V26.3738Z" fill="#231F20"/>
<path d="M9.07306 24.8101C9.07306 24.1025 9.26318 23.5532 9.64342 23.1519C10.0237 22.7505 10.5095 22.5498 11.1116 22.5498C11.5024 22.5498 11.8509 22.6449 12.1678 22.8244C12.4847 23.0145 12.717 23.2786 12.886 23.606C13.055 23.944 13.129 24.3243 13.129 24.7468C13.129 25.1692 13.0445 25.56 12.8649 25.898C12.6853 26.236 12.4424 26.4895 12.1255 26.6691C11.8087 26.8486 11.4707 26.9331 11.0904 26.9331C10.6891 26.9331 10.3405 26.8381 10.0237 26.648C9.7068 26.4578 9.47443 26.1938 9.30543 25.8558C9.147 25.5178 9.0625 25.1692 9.0625 24.7996M9.64342 24.7996C9.64342 25.3065 9.78073 25.7185 10.0554 26.0037C10.33 26.2994 10.6785 26.4473 11.0904 26.4473C11.5024 26.4473 11.8615 26.2994 12.1361 26.0037C12.4107 25.7079 12.548 25.2854 12.548 24.7362C12.548 24.3876 12.4847 24.0919 12.3685 23.8278C12.2523 23.5743 12.0833 23.3737 11.8509 23.2258C11.6291 23.0885 11.3756 23.0145 11.0904 23.0145C10.6891 23.0145 10.3511 23.1519 10.0659 23.4265C9.78073 23.7011 9.63286 24.1553 9.63286 24.789" fill="#231F20"/>
<path d="M13.5508 26.8702V22.6348H14.1317L16.3603 25.9619V22.6348H16.899V26.8702H16.3181L14.0895 23.5431V26.8702H13.5508Z" fill="#231F20"/>
<path d="M17.5547 26.8702V22.6348H20.6177V23.1312H18.1145V24.4303H20.4593V24.9268H18.1145V26.3738H20.7128V26.8702H17.5547Z" fill="#231F20"/>
<path d="M20.8496 25.5072L21.3777 25.465C21.3988 25.6762 21.4622 25.8558 21.5573 25.9825C21.6523 26.1198 21.7896 26.2255 21.9798 26.31C22.1699 26.3945 22.3917 26.4367 22.6346 26.4367C22.8459 26.4367 23.036 26.405 23.205 26.3416C23.3634 26.2783 23.4902 26.1938 23.5747 26.0776C23.6592 25.9614 23.6909 25.8452 23.6909 25.7185C23.6909 25.5917 23.6486 25.465 23.5747 25.3699C23.5007 25.2643 23.374 25.1904 23.1944 25.1164C23.0782 25.0742 22.8247 25.0002 22.4445 24.9157C22.0537 24.8207 21.7791 24.7362 21.6312 24.6517C21.4305 24.5461 21.2827 24.4088 21.177 24.2503C21.082 24.0919 21.0292 23.9229 21.0292 23.7222C21.0292 23.511 21.0925 23.3103 21.2087 23.1202C21.3355 22.93 21.5045 22.7927 21.7368 22.6977C21.9692 22.6026 22.2333 22.5498 22.5184 22.5498C22.8353 22.5498 23.1099 22.6026 23.3529 22.6977C23.5958 22.8033 23.7753 22.9512 23.9021 23.1413C24.0288 23.342 24.0922 23.5638 24.1133 23.8067L23.5747 23.849C23.543 23.5849 23.4479 23.3737 23.2789 23.2363C23.1099 23.099 22.867 23.0357 22.5396 23.0357C22.2121 23.0357 21.9586 23.099 21.8002 23.2258C21.6418 23.3525 21.5678 23.5004 21.5678 23.68C21.5678 23.8278 21.6207 23.9546 21.7368 24.0602C21.8425 24.1553 22.1276 24.2609 22.5818 24.3665C23.036 24.4721 23.3529 24.5566 23.5219 24.6411C23.7648 24.7573 23.9443 24.9052 24.0711 25.0742C24.1873 25.2537 24.2506 25.4544 24.2506 25.6762C24.2506 25.898 24.1873 26.1198 24.0605 26.31C23.9338 26.5106 23.7437 26.6691 23.5007 26.7747C23.2578 26.8909 22.9832 26.9437 22.6874 26.9437C22.3072 26.9437 21.9798 26.8909 21.7263 26.7747C21.4728 26.6585 21.2615 26.4895 21.1137 26.2677C20.9658 26.0459 20.8919 25.7924 20.8813 25.5072" fill="#231F20"/>
<path d="M25.2864 22.6348H24.7266V26.8702H25.2864V22.6348Z" fill="#231F20"/>
<path d="M25.5184 26.8702L27.145 22.6348H27.747L29.4792 26.8702H28.8349L28.3385 25.5922H26.564L26.0993 26.8702H25.5078H25.5184ZM26.7436 25.1275H28.1801L27.7364 23.955C27.5991 23.5959 27.5041 23.3002 27.4301 23.0784C27.3773 23.353 27.3034 23.6171 27.1978 23.8917L26.733 25.138L26.7436 25.1275Z" fill="#231F20"/>
<path d="M29.6699 26.8702V22.6348H30.2403L32.4689 25.9619V22.6348H33.0076V26.8702H32.4372L30.2086 23.5431V26.8702H29.6699Z" fill="#231F20"/>
<path d="M38.0347 25.391L38.5945 25.5284C38.4783 25.9931 38.2671 26.3416 37.9608 26.5846C37.6545 26.8275 37.2848 26.9437 36.8412 26.9437C36.3976 26.9437 36.0173 26.8486 35.7321 26.6585C35.447 26.479 35.2251 26.2043 35.0773 25.8558C34.9294 25.4967 34.8555 25.127 34.8555 24.7151C34.8555 24.2714 34.94 23.8912 35.109 23.5532C35.278 23.2258 35.5209 22.9723 35.8272 22.8033C36.1441 22.6343 36.4821 22.5498 36.8517 22.5498C37.2742 22.5498 37.6333 22.6554 37.9185 22.8772C38.2037 23.0885 38.4044 23.3948 38.5206 23.7856L37.9713 23.9123C37.8763 23.606 37.7284 23.3737 37.5488 23.2363C37.3587 23.099 37.1264 23.0251 36.8412 23.0251C36.5137 23.0251 36.2391 23.099 36.0279 23.2575C35.8061 23.4159 35.6582 23.6272 35.5631 23.8912C35.4786 24.1553 35.4258 24.4299 35.4258 24.7045C35.4258 25.0636 35.4786 25.3805 35.5843 25.6445C35.6899 25.9192 35.8483 26.1198 36.0701 26.2466C36.2919 26.3839 36.5349 26.4473 36.7884 26.4473C37.1052 26.4473 37.3693 26.3522 37.5911 26.1727C37.8129 25.9931 37.9608 25.729 38.0347 25.3699" fill="#231F20"/>
<path d="M41.6997 22.6344H42.2595V25.0848C42.2595 25.5073 42.2067 25.8453 42.1117 26.0988C42.0166 26.3523 41.8371 26.553 41.5836 26.7114C41.3301 26.8699 41.0026 26.9438 40.5907 26.9438C40.1788 26.9438 39.8725 26.8804 39.619 26.7326C39.3655 26.5952 39.1859 26.3946 39.0803 26.1411C38.9747 25.8876 38.9219 25.5285 38.9219 25.0743V22.6238H39.4817V25.0743C39.4817 25.444 39.5134 25.7186 39.5873 25.8876C39.6507 26.0671 39.7774 26.1939 39.9359 26.2889C40.1048 26.384 40.3055 26.4262 40.5485 26.4262C40.9604 26.4262 41.2561 26.3312 41.4357 26.1411C41.6152 25.9509 41.6997 25.5918 41.6997 25.0637V22.6133V22.6344Z" fill="#231F20"/>
<path d="M42.6406 25.5072L43.1687 25.465C43.1899 25.6762 43.2532 25.8558 43.3377 25.9825C43.4328 26.1198 43.5701 26.2255 43.7602 26.31C43.9503 26.3945 44.1721 26.4367 44.4151 26.4367C44.6263 26.4367 44.8164 26.405 44.9854 26.3416C45.1439 26.2783 45.2706 26.1938 45.3551 26.0776C45.4291 25.9614 45.4713 25.8452 45.4713 25.7185C45.4713 25.5917 45.4291 25.465 45.3551 25.3699C45.2812 25.2643 45.1544 25.1904 44.9749 25.1164C44.8587 25.0742 44.6052 25.0002 44.225 24.9157C43.8342 24.8207 43.5595 24.7362 43.4117 24.6517C43.211 24.5461 43.0631 24.4088 42.9575 24.2503C42.8519 24.0919 42.8096 23.9229 42.8096 23.7222C42.8096 23.511 42.873 23.3103 42.9892 23.1202C43.1159 22.93 43.2849 22.7927 43.5173 22.6977C43.7497 22.6026 44.0137 22.5498 44.2989 22.5498C44.6158 22.5498 44.8904 22.6026 45.1333 22.6977C45.3762 22.8033 45.5558 22.9512 45.6826 23.1413C45.8093 23.342 45.8832 23.5638 45.8938 23.8067L45.3551 23.849C45.3234 23.5849 45.2284 23.3737 45.0594 23.2363C44.8904 23.099 44.6474 23.0357 44.32 23.0357C43.9926 23.0357 43.7285 23.099 43.5807 23.2258C43.4222 23.3525 43.3483 23.5004 43.3483 23.68C43.3483 23.8278 43.4011 23.9546 43.5173 24.0602C43.6229 24.1553 43.9081 24.2609 44.3623 24.3665C44.8164 24.4721 45.1333 24.5566 45.3023 24.6411C45.5452 24.7573 45.7354 24.9052 45.8515 25.0742C45.9677 25.2537 46.0311 25.4544 46.0311 25.6762C46.0311 25.898 45.9677 26.1198 45.841 26.31C45.7142 26.5106 45.5241 26.6691 45.2812 26.7747C45.0383 26.8909 44.7636 26.9437 44.4679 26.9437C44.0877 26.9437 43.7602 26.8909 43.5067 26.7747C43.2532 26.6585 43.042 26.4895 42.8941 26.2677C42.7462 26.0459 42.6723 25.7924 42.6617 25.5072" fill="#231F20"/>
<path d="M47.445 26.8702V23.1312H46.0508V22.6348H49.4096V23.1312H48.0048V26.8702H47.445Z" fill="#231F20"/>
<path d="M49.3047 24.8101C49.3047 24.1025 49.4948 23.5532 49.875 23.1519C50.2553 22.7505 50.7412 22.5498 51.3432 22.5498C51.734 22.5498 52.0826 22.6449 52.3994 22.8244C52.7163 23.0145 52.9487 23.2786 53.1177 23.606C53.2761 23.944 53.3606 24.3243 53.3606 24.7468C53.3606 25.1692 53.2761 25.56 53.1071 25.898C52.9275 26.236 52.6846 26.4895 52.3677 26.6691C52.0509 26.8486 51.7023 26.9331 51.3432 26.9331C50.9418 26.9331 50.5827 26.8381 50.2764 26.648C49.9595 26.4578 49.7272 26.1938 49.5582 25.8558C49.3997 25.5178 49.3152 25.1692 49.3152 24.7996M49.8962 24.7996C49.8962 25.3065 50.0335 25.7185 50.3081 26.0037C50.5827 26.2994 50.9313 26.4473 51.3432 26.4473C51.7551 26.4473 52.1142 26.2994 52.3889 26.0037C52.6635 25.7079 52.8008 25.2854 52.8008 24.7362C52.8008 24.3876 52.7374 24.0919 52.6212 23.8278C52.505 23.5743 52.336 23.3737 52.1142 23.2258C51.8924 23.0885 51.6389 23.0145 51.3538 23.0145C50.9524 23.0145 50.6144 23.1519 50.3292 23.4265C50.044 23.7011 49.8962 24.1553 49.8962 24.789" fill="#231F20"/>
<path d="M53.7938 26.8702V22.6348H54.6387L55.6422 25.6344C55.7372 25.9091 55.8006 26.1203 55.8428 26.2576C55.8957 26.0992 55.9696 25.8774 56.0646 25.5816L57.0786 22.6348H57.8285V26.8702H57.2899V23.3213L56.0541 26.8702H55.5471L54.3219 23.2579V26.8702H53.7832H53.7938Z" fill="#231F20"/>
<path d="M58.4727 26.8702V22.6348H61.5357V23.1312H59.0325V24.4303H61.3773V24.9268H59.0325V26.3738H61.6413V26.8702H58.4727Z" fill="#231F20"/>
<path d="M62.0312 26.8702V22.6348H63.9113C64.2916 22.6348 64.5768 22.677 64.7774 22.751C64.9781 22.8249 65.126 22.9622 65.2527 23.1523C65.3689 23.3424 65.4323 23.5537 65.4323 23.7966C65.4323 24.0924 65.3372 24.3458 65.1365 24.5571C64.9464 24.7683 64.6401 24.8951 64.2388 24.9479C64.3866 25.0218 64.5028 25.0852 64.5767 25.1591C64.7352 25.307 64.8936 25.4971 65.0415 25.7189L65.7808 26.8702H65.0732L64.5134 25.983C64.3444 25.7295 64.2176 25.5394 64.112 25.4021C64.0064 25.2648 63.9113 25.1697 63.8268 25.1169C63.7423 25.0641 63.6578 25.0324 63.5733 25.0007C63.51 24.9901 63.4043 24.9796 63.2565 24.9796H62.6016V26.8597H62.0418L62.0312 26.8702ZM62.591 24.5043H63.7951C64.0486 24.5043 64.2493 24.4832 64.3972 24.4198C64.5451 24.367 64.6507 24.2825 64.7246 24.1663C64.7986 24.0501 64.8408 23.9234 64.8408 23.786C64.8408 23.5854 64.7669 23.4164 64.619 23.2896C64.4711 23.1629 64.2388 23.0995 63.9325 23.0995H62.591V24.5043Z" fill="#231F20"/>
<path d="M67.1543 25.5072L67.6824 25.465C67.7035 25.6762 67.7669 25.8558 67.862 25.9825C67.957 26.1198 68.0943 26.2255 68.2845 26.31C68.4746 26.3945 68.6964 26.4367 68.9393 26.4367C69.1506 26.4367 69.3407 26.405 69.5097 26.3416C69.6681 26.2783 69.7949 26.1938 69.8794 26.0776C69.9639 25.9614 69.9955 25.8452 69.9955 25.7185C69.9955 25.5917 69.9533 25.465 69.8794 25.3699C69.8054 25.2643 69.6787 25.1904 69.4991 25.1164C69.3829 25.0742 69.1294 25.0002 68.7492 24.9157C68.3584 24.8207 68.0838 24.7362 67.9359 24.6517C67.7352 24.5461 67.5873 24.4088 67.4817 24.2503C67.3867 24.0919 67.3339 23.9229 67.3339 23.7222C67.3339 23.511 67.3972 23.3103 67.5134 23.1202C67.6296 22.93 67.8092 22.7927 68.0415 22.6977C68.2739 22.6026 68.538 22.5498 68.8231 22.5498C69.14 22.5498 69.4146 22.6026 69.6575 22.6977C69.9005 22.8033 70.08 22.9512 70.2068 23.1413C70.3335 23.342 70.4075 23.5638 70.418 23.8067L69.8794 23.849C69.8477 23.5849 69.7526 23.3737 69.5836 23.2363C69.4146 23.099 69.1717 23.0357 68.8443 23.0357C68.5168 23.0357 68.2633 23.099 68.1049 23.2258C67.9465 23.3525 67.8725 23.5004 67.8725 23.68C67.8725 23.8278 67.9253 23.9546 68.0415 24.0602C68.1471 24.1553 68.4323 24.2609 68.8865 24.3665C69.3407 24.4721 69.6575 24.5566 69.8265 24.6411C70.0695 24.7573 70.2596 24.9052 70.3758 25.0742C70.492 25.2537 70.5553 25.4544 70.5553 25.6762C70.5553 25.898 70.492 26.1198 70.3652 26.31C70.2385 26.5106 70.0483 26.6691 69.8054 26.7747C69.5625 26.8909 69.2879 26.9437 68.9921 26.9437C68.6119 26.9437 68.2845 26.8909 68.031 26.7747C67.7775 26.6585 67.5662 26.4895 67.4184 26.2677C67.2705 26.0459 67.1965 25.7924 67.186 25.5072" fill="#231F20"/>
<path d="M70.4813 26.8702L72.1078 22.6348H72.7099L74.4421 26.8702H73.7978L73.3014 25.5922H71.5269L71.0622 26.8702H70.4707H70.4813ZM71.7065 25.1275H73.1429L72.6993 23.955C72.562 23.5959 72.467 23.3002 72.393 23.0784C72.3402 23.353 72.2663 23.6171 72.1607 23.8917L71.6959 25.138L71.7065 25.1275Z" fill="#231F20"/>
<path d="M75.1716 26.8702V23.1312H73.7773V22.6348H77.1361V23.1312H75.7314V26.8702H75.1716Z" fill="#231F20"/>
<path d="M77.9914 22.6348H77.4316V26.8702H77.9914V22.6348Z" fill="#231F20"/>
<path d="M78.457 25.5072L78.9851 25.465C79.0063 25.6762 79.0696 25.8558 79.1647 25.9825C79.2598 26.1198 79.3971 26.2255 79.5872 26.31C79.7773 26.3945 79.9991 26.4367 80.2421 26.4367C80.4533 26.4367 80.6434 26.405 80.8124 26.3416C80.9708 26.2783 81.0976 26.1938 81.1821 26.0776C81.2666 25.9614 81.2983 25.8452 81.2983 25.7185C81.2983 25.5917 81.256 25.465 81.1821 25.3699C81.1082 25.2643 80.9814 25.1904 80.8018 25.1164C80.6857 25.0742 80.4322 25.0002 80.0519 24.9157C79.6611 24.8207 79.3865 24.7362 79.2386 24.6517C79.038 24.5461 78.8901 24.4088 78.7845 24.2503C78.6894 24.0919 78.6366 23.9229 78.6366 23.7222C78.6366 23.511 78.7 23.3103 78.8162 23.1202C78.9429 22.93 79.1119 22.7927 79.3443 22.6977C79.5766 22.6026 79.8407 22.5498 80.1259 22.5498C80.4427 22.5498 80.7174 22.6026 80.9603 22.6977C81.2032 22.8033 81.3828 22.9512 81.5095 23.1413C81.6363 23.342 81.7102 23.5638 81.7208 23.8067L81.1821 23.849C81.1504 23.5849 81.0553 23.3737 80.8863 23.2363C80.7174 23.099 80.4744 23.0357 80.147 23.0357C79.8196 23.0357 79.5555 23.099 79.4076 23.2258C79.2492 23.3525 79.1753 23.5004 79.1753 23.68C79.1753 23.8278 79.2281 23.9546 79.3443 24.0602C79.4499 24.1553 79.7351 24.2609 80.1892 24.3665C80.6434 24.4721 80.9603 24.5566 81.1293 24.6411C81.3722 24.7573 81.5623 24.9052 81.6785 25.0742C81.7947 25.2537 81.8581 25.4544 81.8581 25.6762C81.8581 25.898 81.7947 26.1198 81.668 26.31C81.5412 26.5106 81.3511 26.6691 81.1082 26.7747C80.8652 26.8909 80.5906 26.9437 80.2949 26.9437C79.9146 26.9437 79.5872 26.8909 79.3337 26.7747C79.0802 26.6585 78.869 26.4895 78.7211 26.2677C78.5732 26.0459 78.4993 25.7924 78.4887 25.5072" fill="#231F20"/>
<path d="M82.3008 26.8702V22.6348H85.1526V23.1312H82.8606V24.4515H84.8463V24.9479H82.8606V26.8702H82.3008Z" fill="#231F20"/>
<path d="M84.7402 26.8702L86.3668 22.6348H86.9689L88.7011 26.8702H88.0673L87.5709 25.5922H85.7965L85.3317 26.8702H84.7402ZM85.9654 25.1275H87.4019L86.9583 23.955C86.821 23.5959 86.7259 23.3002 86.6626 23.0784C86.6097 23.353 86.5358 23.6171 86.4302 23.8917L85.9654 25.138V25.1275Z" fill="#231F20"/>
<path d="M91.7124 25.391L92.2722 25.5284C92.1561 25.9931 91.9448 26.3416 91.6385 26.5846C91.3322 26.8275 90.9625 26.9437 90.5189 26.9437C90.0753 26.9437 89.6951 26.8486 89.4099 26.6585C89.1247 26.479 88.9029 26.2043 88.755 25.8558C88.6071 25.4967 88.5332 25.127 88.5332 24.7151C88.5332 24.2714 88.6177 23.8912 88.7867 23.5532C88.9557 23.2258 89.1986 22.9723 89.5049 22.8033C89.8218 22.6343 90.1598 22.5498 90.5295 22.5498C90.952 22.5498 91.3111 22.6554 91.5963 22.8772C91.8814 23.0885 92.0821 23.3948 92.1983 23.7856L91.6491 23.9123C91.554 23.606 91.4061 23.3737 91.2266 23.2363C91.0365 23.099 90.8041 23.0251 90.5189 23.0251C90.1915 23.0251 89.9169 23.099 89.7056 23.2575C89.4838 23.4159 89.3359 23.6272 89.2409 23.8912C89.1564 24.1553 89.1036 24.4299 89.1036 24.7045C89.1036 25.0636 89.1564 25.3805 89.262 25.6445C89.3676 25.9192 89.5261 26.1198 89.7479 26.2466C89.9697 26.3839 90.2126 26.4473 90.4661 26.4473C90.783 26.4473 91.047 26.3522 91.2688 26.1727C91.4906 25.9931 91.6385 25.729 91.7124 25.3699" fill="#231F20"/>
<path d="M93.6344 26.8702V23.1312H92.2402V22.6348H95.599V23.1312H94.1942V26.8702H93.6344Z" fill="#231F20"/>
<path d="M96.4543 22.6348H95.8945V26.8702H96.4543V22.6348Z" fill="#231F20"/>
<path d="M96.9508 24.8101C96.9508 24.1025 97.1409 23.5532 97.5212 23.1519C97.9014 22.7505 98.3873 22.5498 98.9788 22.5498C99.3696 22.5498 99.7287 22.6449 100.035 22.8244C100.352 23.0145 100.584 23.2786 100.753 23.606C100.922 23.944 100.996 24.3243 100.996 24.7468C100.996 25.1692 100.912 25.56 100.732 25.898C100.553 26.236 100.31 26.4895 99.9927 26.6691C99.6759 26.8486 99.3273 26.9331 98.9576 26.9331C98.5563 26.9331 98.2077 26.8381 97.8909 26.648C97.574 26.4578 97.3416 26.1938 97.1726 25.8558C97.0142 25.5178 96.9297 25.1692 96.9297 24.7996M97.5106 24.7996C97.5106 25.3065 97.6479 25.7185 97.9225 26.0037C98.1972 26.2994 98.5457 26.4473 98.9576 26.4473C99.3696 26.4473 99.7287 26.2994 100.003 26.0037C100.278 25.7079 100.415 25.2854 100.415 24.7362C100.415 24.3876 100.352 24.0919 100.236 23.8278C100.119 23.5743 99.9505 23.3737 99.7181 23.2258C99.4963 23.0885 99.2428 23.0145 98.9576 23.0145C98.5563 23.0145 98.2183 23.1519 97.9331 23.4265C97.6479 23.7011 97.5 24.1553 97.5 24.789" fill="#231F20"/>
<path d="M101.43 26.8702V22.6348H102.011L104.229 25.9619V22.6348H104.767V26.8702H104.197L101.968 23.5431V26.8702H101.43Z" fill="#231F20"/>
<path d="M106.299 26.8702L107.925 22.6348H108.527L110.26 26.8702H109.626L109.13 25.5922H107.355L106.89 26.8702H106.299ZM107.524 25.1275H108.961L108.517 23.955C108.38 23.5959 108.285 23.3002 108.221 23.0784C108.168 23.353 108.094 23.6171 107.989 23.8917L107.524 25.138V25.1275Z" fill="#231F20"/>
<path d="M110.925 26.8702L109.795 22.6348H110.376L111.02 25.4126C111.084 25.7084 111.147 25.9936 111.2 26.2787C111.305 25.8246 111.369 25.5605 111.39 25.4971L112.193 22.6348H112.869L113.481 24.7789C113.629 25.307 113.745 25.814 113.809 26.2787C113.861 26.0147 113.935 25.7084 114.02 25.3598L114.685 22.6348H115.256L114.094 26.8702H113.555L112.657 23.6382C112.583 23.3741 112.541 23.2051 112.531 23.1418C112.488 23.3319 112.446 23.5009 112.404 23.6382L111.506 26.8702H110.936H110.925Z" fill="#231F20"/>
<path d="M114.768 26.8702L116.395 22.6348H116.997L118.729 26.8702H118.085L117.588 25.5922H115.814L115.349 26.8702H114.758H114.768ZM115.994 25.1275H117.43L116.986 23.955C116.849 23.5959 116.754 23.3002 116.68 23.0784C116.627 23.353 116.553 23.6171 116.458 23.8917L115.994 25.138V25.1275Z" fill="#231F20"/>
<path d="M118.932 26.8702V22.6348H120.812C121.192 22.6348 121.477 22.677 121.678 22.751C121.879 22.8249 122.026 22.9622 122.153 23.1523C122.269 23.3424 122.333 23.5537 122.333 23.7966C122.333 24.0924 122.238 24.3458 122.037 24.5571C121.847 24.7683 121.541 24.8951 121.139 24.9479C121.287 25.0218 121.403 25.0852 121.477 25.1591C121.636 25.307 121.794 25.4971 121.942 25.7189L122.681 26.8702H121.974L121.414 25.983C121.245 25.7295 121.118 25.5394 121.012 25.4021C120.907 25.2648 120.812 25.1697 120.727 25.1169C120.643 25.0641 120.558 25.0324 120.474 25.0007C120.41 24.9901 120.305 24.9796 120.157 24.9796H119.513V26.8597H118.953L118.932 26.8702ZM119.491 24.5043H120.696C120.949 24.5043 121.15 24.4832 121.298 24.4198C121.445 24.367 121.551 24.2825 121.625 24.1663C121.699 24.0501 121.741 23.9234 121.741 23.786C121.741 23.5854 121.667 23.4164 121.519 23.2896C121.372 23.1629 121.139 23.0995 120.833 23.0995H119.491V24.5043Z" fill="#231F20"/>
<path d="M122.903 26.8702V22.6348H124.361C124.688 22.6348 124.942 22.6559 125.111 22.6981C125.354 22.7509 125.565 22.8566 125.734 23.0044C125.956 23.1946 126.125 23.4375 126.241 23.7332C126.357 24.029 126.41 24.367 126.41 24.7472C126.41 25.0641 126.368 25.3493 126.294 25.6028C126.22 25.8562 126.125 26.0569 126.008 26.2154C125.892 26.3738 125.766 26.5111 125.618 26.6062C125.48 26.7012 125.311 26.7646 125.111 26.8174C124.91 26.8702 124.688 26.8913 124.424 26.8913H122.893L122.903 26.8702ZM123.463 26.3738H124.371C124.656 26.3738 124.868 26.3527 125.026 26.2893C125.185 26.2365 125.311 26.1626 125.406 26.0675C125.533 25.9302 125.639 25.7506 125.713 25.5288C125.787 25.307 125.818 25.0324 125.818 24.7155C125.818 24.2719 125.744 23.9339 125.597 23.691C125.449 23.4481 125.269 23.2896 125.068 23.2157C124.921 23.1523 124.678 23.1312 124.34 23.1312H123.452V26.3738H123.463Z" fill="#231F20"/>
<path d="M126.631 25.5072L127.159 25.465C127.18 25.6762 127.243 25.8558 127.339 25.9825C127.434 26.1093 127.571 26.2255 127.761 26.31C127.951 26.3945 128.173 26.4367 128.416 26.4367C128.627 26.4367 128.817 26.405 128.986 26.3416C129.145 26.2783 129.271 26.1938 129.356 26.0776C129.44 25.9614 129.472 25.8452 129.472 25.7185C129.472 25.5917 129.43 25.465 129.356 25.3699C129.282 25.2643 129.155 25.1904 128.976 25.1164C128.859 25.0742 128.606 25.0002 128.226 24.9157C127.835 24.8207 127.56 24.7362 127.412 24.6517C127.212 24.5461 127.064 24.4088 126.958 24.2503C126.863 24.0919 126.81 23.9229 126.81 23.7222C126.81 23.511 126.874 23.3103 126.99 23.1202C127.117 22.93 127.286 22.7927 127.518 22.6977C127.75 22.6026 128.015 22.5498 128.3 22.5498C128.617 22.5498 128.891 22.6026 129.134 22.6977C129.377 22.8033 129.557 22.9512 129.683 23.1413C129.81 23.342 129.884 23.5638 129.895 23.8067L129.356 23.849C129.324 23.5849 129.229 23.3737 129.06 23.2363C128.891 23.099 128.648 23.0357 128.321 23.0357C127.993 23.0357 127.729 23.099 127.581 23.2258C127.423 23.3525 127.349 23.5004 127.349 23.68C127.349 23.8278 127.402 23.9546 127.518 24.0602C127.624 24.1553 127.909 24.2609 128.363 24.3665C128.817 24.4721 129.134 24.5566 129.303 24.6411C129.546 24.7573 129.736 24.9052 129.852 25.0742C129.969 25.2537 130.032 25.4544 130.032 25.6762C130.032 25.898 129.969 26.1198 129.842 26.31C129.715 26.5106 129.525 26.6691 129.282 26.7747C129.039 26.8909 128.764 26.9437 128.469 26.9437C128.088 26.9437 127.761 26.8909 127.508 26.7747C127.254 26.6585 127.043 26.4895 126.895 26.2677C126.747 26.0459 126.673 25.7924 126.663 25.5072" fill="#231F20"/>
<path d="M17.6816 14.0899C17.6816 14.0899 19.361 12.4211 19.361 10.372C19.361 8.32295 17.6816 6.64355 17.6816 6.64355C17.6816 6.64355 18.7167 8.71375 18.7167 10.372C18.7167 12.1465 17.6816 14.0899 17.6816 14.0899Z" fill="#231F20"/>
<path d="M15.959 8.12209C15.959 8.50233 15.6527 8.80864 15.2725 8.80864C14.8922 8.80864 14.5859 8.50233 14.5859 8.12209C14.5859 7.74185 14.8922 7.43555 15.2725 7.43555C15.6527 7.43555 15.959 7.74185 15.959 8.12209Z" fill="#231F20"/>
<path d="M15.959 12.4209C15.959 12.8012 15.6527 13.1075 15.2725 13.1075C14.8922 13.1075 14.5859 12.8012 14.5859 12.4209C14.5859 12.0407 14.8922 11.7344 15.2725 11.7344C15.6527 11.7344 15.959 12.0407 15.959 12.4209Z" fill="#231F20"/>
<path d="M6.5169 44.2666H0V65.2855H6.5169V44.2666Z" fill="#231F20"/>
<path d="M21.6004 56.6875L27.2934 58.4092C26.9132 60.0041 26.3111 61.3349 25.4873 62.4123C24.6634 63.4791 23.6494 64.2923 22.4242 64.831C21.2095 65.3803 19.6569 65.6443 17.7768 65.6443C15.4954 65.6443 13.6259 65.3169 12.1788 64.6515C10.7318 63.986 9.48547 62.8242 8.42924 61.1448C7.37302 59.476 6.85547 57.3318 6.85547 54.723C6.85547 51.248 7.78495 48.5757 9.63334 46.7062C11.4817 44.8367 14.1012 43.9072 17.4811 43.9072C20.1322 43.9072 22.213 44.4459 23.7234 45.5127C25.2338 46.5795 26.3639 48.2272 27.1033 50.4453L21.368 51.7233C21.1673 51.079 20.9561 50.6142 20.7342 50.3185C20.3751 49.8221 19.9315 49.4418 19.4034 49.1672C18.8753 48.9032 18.2944 48.7659 17.6395 48.7659C16.1714 48.7659 15.0412 49.3573 14.2596 50.5403C13.6681 51.417 13.3724 52.8006 13.3724 54.6807C13.3724 57.015 13.7209 58.6099 14.4392 59.476C15.1574 60.3421 16.1397 60.7751 17.4177 60.7751C18.6957 60.7751 19.6041 60.4266 20.2378 59.7295C20.8716 59.0324 21.3363 58.0184 21.6215 56.6875" fill="#231F20"/>
<path d="M26.1735 58.3352L32.3524 57.9444C32.4897 58.9479 32.7537 59.7189 33.1657 60.2364C33.8311 61.092 34.7923 61.5145 36.028 61.5145C36.9575 61.5145 37.6757 61.2927 38.1722 60.8596C38.6792 60.4266 38.9221 59.9196 38.9221 59.3492C38.9221 58.7789 38.6792 58.3141 38.2039 57.8916C37.7286 57.4586 36.6195 57.0572 34.8768 56.677C32.0249 56.0327 29.997 55.1877 28.7823 54.1209C27.5571 53.0647 26.9445 51.7022 26.9445 50.065C26.9445 48.9877 27.2614 47.9631 27.8845 47.002C28.5077 46.0408 29.4478 45.2909 30.7047 44.7311C31.9616 44.1818 33.6832 43.9072 35.8696 43.9072C38.5524 43.9072 40.6015 44.4037 42.0168 45.4071C43.4216 46.4105 44.2666 47.9948 44.5306 50.1706L38.4045 50.5298C38.2461 49.5791 37.8975 48.8926 37.38 48.4596C36.8625 48.0265 36.1442 47.8153 35.2253 47.8153C34.4754 47.8153 33.905 47.9737 33.5248 48.2906C33.1445 48.6074 32.9544 48.9982 32.9544 49.463C32.9544 49.801 33.1129 50.0967 33.4297 50.3713C33.736 50.6459 34.4648 50.91 35.6055 51.1424C38.4468 51.755 40.4853 52.3781 41.7105 53.0013C42.9357 53.6245 43.8335 54.4061 44.3933 55.3356C44.9531 56.265 45.2277 57.3001 45.2277 58.4514C45.2277 59.8034 44.8581 61.0392 44.1081 62.1799C43.3582 63.3206 42.3231 64.1762 40.9817 64.7676C39.6403 65.3591 37.9504 65.6549 35.9118 65.6549C32.3418 65.6549 29.8597 64.9683 28.4866 63.5847C27.1135 62.2116 26.3319 60.4583 26.1523 58.3352" fill="#231F20"/>
<path d="M57.7234 61.8212H50.351L49.3264 65.2962H42.6934L50.5939 44.2773H57.6812L65.5817 65.2962H58.7796L57.7234 61.8212ZM56.382 57.2795L54.0583 49.7275L51.7663 57.2795H56.382Z" fill="#231F20"/>
<path d="M84.3077 65.2854H66.6582C66.8589 63.5427 67.4715 61.9055 68.5066 60.3634C69.5311 58.8319 71.4535 57.0152 74.2736 54.9239C75.9952 53.6458 77.0937 52.6741 77.5796 52.0087C78.0549 51.3433 78.2978 50.7095 78.2978 50.1181C78.2978 49.4738 78.0549 48.9245 77.5796 48.4598C77.1042 48.0056 76.5022 47.7732 75.784 47.7732C75.0657 47.7732 74.4214 48.0056 73.9461 48.4809C73.4708 48.9562 73.154 49.7801 72.985 50.9736L67.0913 50.4983C67.3236 48.84 67.7461 47.5514 68.3587 46.622C68.9713 45.6925 69.848 44.9848 70.9676 44.4884C72.0872 43.992 73.6398 43.749 75.6255 43.749C77.6112 43.749 79.3012 43.9814 80.4525 44.4567C81.6038 44.932 82.5121 45.6502 83.167 46.6325C83.8218 47.6042 84.1493 48.7027 84.1493 49.9174C84.1493 51.206 83.769 52.4417 83.0191 53.6142C82.2586 54.7866 80.8855 56.0752 78.8998 57.4799C77.7169 58.2932 76.9247 58.8742 76.5233 59.2016C76.122 59.529 75.6572 59.9621 75.1186 60.4902H84.3077V65.2854Z" fill="#EF4135"/>
<path d="M84.7617 54.6177C84.7617 50.5935 85.4799 47.7734 86.9375 46.168C88.3846 44.5625 90.5921 43.7598 93.5601 43.7598C94.986 43.7598 96.1584 43.9393 97.0667 44.2879C97.9751 44.6364 98.725 45.1012 99.3059 45.661C99.8868 46.2208 100.341 46.8228 100.668 47.4354C100.996 48.0586 101.27 48.7768 101.471 49.6112C101.862 51.185 102.063 52.8327 102.063 54.5544C102.063 58.399 101.418 61.2086 100.119 62.983C98.8201 64.7681 96.5809 65.6553 93.4016 65.6553C91.6272 65.6553 90.1801 65.3701 89.0817 64.7997C87.9832 64.2294 87.0854 63.395 86.3777 62.3071C85.8708 61.5255 85.4694 60.4587 85.1842 59.1067C84.899 57.7547 84.7617 56.2655 84.7617 54.6283M90.5921 54.6389C90.5921 57.3322 90.8244 59.1806 91.3103 60.1629C91.7856 61.1452 92.4827 61.6416 93.3805 61.6416C93.9826 61.6416 94.4895 61.4304 94.9331 61.0079C95.3768 60.5854 95.6936 59.9306 95.9049 59.0222C96.1161 58.1138 96.2112 56.7091 96.2112 54.7867C96.2112 51.9772 95.9788 50.0865 95.493 49.1148C95.0177 48.1431 94.2994 47.6678 93.3488 47.6678C92.3982 47.6678 91.6694 48.1642 91.2364 49.1465C90.8033 50.1288 90.5921 51.9561 90.5921 54.6283" fill="#EF4135"/>
<path d="M115.034 43.7598V65.2962H109.087V51.185C108.126 51.9138 107.196 52.5053 106.288 52.9595C105.39 53.4137 104.26 53.8467 102.908 54.2586V49.4317C104.904 48.7874 106.468 48.0058 107.566 47.108C108.675 46.1996 109.541 45.08 110.164 43.7598H115.034Z" fill="#EF4135"/>
<path d="M129.588 43.7598V65.2962H123.642V51.185C122.681 51.9138 121.751 52.5053 120.843 52.9595C119.945 53.4137 118.815 53.8467 117.463 54.2586V49.4317C119.459 48.7874 121.022 48.0058 122.121 47.108C123.23 46.1996 124.096 45.08 124.719 43.7598H129.588Z" fill="#EF4135"/>
<path d="M0.622298 67.2393H0.0625V71.4747H0.622298V67.2393Z" fill="#231F20"/>
<path d="M1.28906 71.4747V67.2393H1.86999L4.09862 70.5664V67.2393H4.62673V71.4747H4.05637L1.82774 68.1476V71.4747H1.28906Z" fill="#231F20"/>
<path d="M5.28205 71.4747V67.2393H6.73964C7.06706 67.2393 7.32056 67.2604 7.48955 67.3026C7.73249 67.3554 7.94373 67.4611 8.11273 67.6089C8.33453 67.7991 8.50353 68.042 8.61971 68.3377C8.72534 68.6335 8.78871 68.9715 8.78871 69.3517C8.78871 69.6686 8.74646 69.9538 8.67252 70.2072C8.59859 70.4607 8.50353 70.6614 8.38734 70.8199C8.27116 70.9783 8.14441 71.1156 7.99654 71.2107C7.85923 71.3057 7.69024 71.3691 7.48955 71.4219C7.28887 71.4747 7.06706 71.4958 6.80301 71.4958H5.27148L5.28205 71.4747ZM5.84185 70.9783H6.7502C7.03538 70.9783 7.24662 70.9572 7.40506 70.8938C7.56349 70.841 7.69024 70.767 7.7853 70.672C7.91204 70.5347 8.01767 70.3551 8.0916 70.1333C8.16554 69.9115 8.20779 69.6369 8.20779 69.32C8.20779 68.8764 8.13385 68.5384 7.98598 68.2955C7.83811 68.0526 7.65855 67.8941 7.45787 67.8202C7.31 67.7568 7.06706 67.7357 6.72907 67.7357H5.84185V70.9783Z" fill="#231F20"/>
<path d="M9.07306 69.4156C9.07306 68.7079 9.26318 68.1587 9.64342 67.7573C10.0237 67.356 10.5095 67.1553 11.1116 67.1553C11.5024 67.1553 11.8509 67.2503 12.1678 67.4299C12.4847 67.62 12.717 67.8841 12.886 68.2115C13.055 68.5495 13.129 68.9297 13.129 69.3522C13.129 69.7747 13.0445 70.1655 12.8649 70.5035C12.6853 70.8415 12.4424 71.095 12.1255 71.2745C11.8087 71.4541 11.4707 71.5386 11.0904 71.5386C10.6891 71.5386 10.3405 71.4435 10.0237 71.2534C9.7068 71.0633 9.47443 70.7992 9.30543 70.4613C9.147 70.1233 9.0625 69.7747 9.0625 69.405M9.64342 69.405C9.64342 69.912 9.78073 70.3239 10.0554 70.6091C10.33 70.9049 10.6785 71.0527 11.0904 71.0527C11.5024 71.0527 11.8615 70.9049 12.1361 70.6091C12.4107 70.3134 12.548 69.8909 12.548 69.3417C12.548 68.9931 12.4847 68.6974 12.3685 68.4333C12.2523 68.1798 12.0833 67.9791 11.8509 67.8313C11.6291 67.6939 11.3756 67.62 11.0904 67.62C10.6891 67.62 10.3511 67.7573 10.0659 68.0319C9.78073 68.3066 9.63286 68.7607 9.63286 69.3945" fill="#231F20"/>
<path d="M13.5508 71.4747V67.2393H14.1317L16.3603 70.5664V67.2393H16.899V71.4747H16.3181L14.0895 68.1476V71.4747H13.5508Z" fill="#231F20"/>
<path d="M17.5547 71.4747V67.2393H20.6177V67.7357H18.1145V69.0348H20.4593V69.5313H18.1145V70.9783H20.7128V71.4747H17.5547Z" fill="#231F20"/>
<path d="M20.8496 70.1225L21.3777 70.0802C21.3988 70.2915 21.4622 70.471 21.5573 70.5978C21.6523 70.7351 21.7896 70.8407 21.9798 70.9252C22.1699 71.0097 22.3917 71.0519 22.6346 71.0519C22.8459 71.0519 23.036 71.0203 23.205 70.9569C23.3634 70.8935 23.4902 70.809 23.5747 70.6928C23.6592 70.5766 23.6909 70.4605 23.6909 70.3337C23.6909 70.207 23.6486 70.0802 23.5747 69.9852C23.5007 69.8795 23.374 69.8056 23.1944 69.7317C23.0782 69.6894 22.8247 69.6155 22.4445 69.531C22.0537 69.4359 21.7791 69.3514 21.6312 69.2669C21.4305 69.1613 21.2827 69.024 21.177 68.8656C21.082 68.7071 21.0292 68.5381 21.0292 68.3374C21.0292 68.1262 21.0925 67.9255 21.2087 67.7354C21.3355 67.5453 21.5045 67.408 21.7368 67.3129C21.9692 67.2178 22.2333 67.165 22.5184 67.165C22.8353 67.165 23.1099 67.2178 23.3529 67.3129C23.5958 67.4185 23.7753 67.5664 23.9021 67.7565C24.0288 67.9572 24.0922 68.179 24.1133 68.4219L23.5747 68.4642C23.543 68.2001 23.4479 67.9889 23.2789 67.8516C23.1099 67.7143 22.867 67.6509 22.5396 67.6509C22.2121 67.6509 21.9586 67.7143 21.8002 67.841C21.6418 67.9678 21.5678 68.1156 21.5678 68.2952C21.5678 68.4431 21.6207 68.5698 21.7368 68.6754C21.8425 68.7705 22.1276 68.8761 22.5818 68.9817C23.036 69.0874 23.3529 69.1719 23.5219 69.2564C23.7648 69.3725 23.9443 69.5204 24.0711 69.6894C24.1873 69.869 24.2506 70.0697 24.2506 70.2915C24.2506 70.5133 24.1873 70.7351 24.0605 70.9252C23.9338 71.1259 23.7437 71.2843 23.5007 71.3899C23.2578 71.5061 22.9832 71.5589 22.6874 71.5589C22.3072 71.5589 21.9798 71.5061 21.7263 71.3899C21.4728 71.2737 21.2615 71.1048 21.1137 70.8829C20.9658 70.6611 20.8919 70.4076 20.8813 70.1225" fill="#231F20"/>
<path d="M25.2864 67.2393H24.7266V71.4747H25.2864V67.2393Z" fill="#231F20"/>
<path d="M25.5184 71.4747L27.145 67.2393H27.747L29.4792 71.4747H28.8349L28.3385 70.1967H26.564L26.0993 71.4747H25.5078H25.5184ZM26.7436 69.7319H28.1801L27.7364 68.5595C27.5991 68.2004 27.5041 67.9047 27.4301 67.6829C27.3773 67.9575 27.3034 68.2215 27.1978 68.4962L26.733 69.7425L26.7436 69.7319Z" fill="#231F20"/>
<path d="M29.6699 71.4747V67.2393H30.2403L32.4689 70.5664V67.2393H33.0076V71.4747H32.4372L30.2086 68.1476V71.4747H29.6699Z" fill="#231F20"/>
<path d="M38.0347 69.9965L38.5945 70.1338C38.4783 70.5986 38.2671 70.9471 37.9608 71.19C37.6545 71.433 37.2848 71.5492 36.8412 71.5492C36.3976 71.5492 36.0173 71.4541 35.7321 71.264C35.447 71.0844 35.2251 70.8098 35.0773 70.4613C34.9294 70.1021 34.8555 69.7325 34.8555 69.3205C34.8555 68.8769 34.94 68.4967 35.109 68.1587C35.278 67.8313 35.5209 67.5778 35.8272 67.4088C36.1441 67.2398 36.4821 67.1553 36.8517 67.1553C37.2742 67.1553 37.6333 67.2609 37.9185 67.4827C38.2037 67.6939 38.4044 68.0003 38.5206 68.3911L37.9713 68.5178C37.8763 68.2115 37.7284 67.9791 37.5488 67.8418C37.3587 67.7045 37.1264 67.6306 36.8412 67.6306C36.5137 67.6306 36.2391 67.7045 36.0279 67.8629C35.8061 68.0214 35.6582 68.2326 35.5631 68.4967C35.4786 68.7607 35.4258 69.0354 35.4258 69.31C35.4258 69.6691 35.4786 69.986 35.5843 70.25C35.6899 70.5246 35.8483 70.7253 36.0701 70.8521C36.2919 70.9894 36.5349 71.0527 36.7884 71.0527C37.1052 71.0527 37.3693 70.9577 37.5911 70.7781C37.8129 70.5986 37.9608 70.3345 38.0347 69.9754" fill="#231F20"/>
<path d="M41.6997 67.2399H42.2595V69.6903C42.2595 70.1128 42.2067 70.4508 42.1117 70.7043C42.0166 70.9578 41.8371 71.1585 41.5836 71.3169C41.3301 71.4753 41.0026 71.5493 40.5907 71.5493C40.1788 71.5493 39.8725 71.4859 39.619 71.338C39.3655 71.2007 39.1859 71 39.0803 70.7465C38.9747 70.493 38.9219 70.1339 38.9219 69.6798V67.2293H39.4817V69.6798C39.4817 70.0494 39.5134 70.324 39.5873 70.493C39.6507 70.6726 39.7774 70.7994 39.9359 70.8944C40.1048 70.9895 40.3055 71.0317 40.5485 71.0317C40.9604 71.0317 41.2561 70.9367 41.4357 70.7465C41.6152 70.5564 41.6997 70.1973 41.6997 69.6692V67.2188V67.2399Z" fill="#231F20"/>
<path d="M42.6406 70.1225L43.1687 70.0802C43.1899 70.2915 43.2532 70.471 43.3377 70.5978C43.4328 70.7351 43.5701 70.8407 43.7602 70.9252C43.9503 71.0097 44.1721 71.0519 44.4151 71.0519C44.6263 71.0519 44.8164 71.0203 44.9854 70.9569C45.1439 70.8935 45.2706 70.809 45.3551 70.6928C45.4291 70.5766 45.4713 70.4605 45.4713 70.3337C45.4713 70.207 45.4291 70.0802 45.3551 69.9852C45.2812 69.8795 45.1544 69.8056 44.9749 69.7317C44.8587 69.6894 44.6052 69.6155 44.225 69.531C43.8342 69.4359 43.5595 69.3514 43.4117 69.2669C43.211 69.1613 43.0631 69.024 42.9575 68.8656C42.8519 68.7071 42.8096 68.5381 42.8096 68.3374C42.8096 68.1262 42.873 67.9255 42.9892 67.7354C43.1159 67.5453 43.2849 67.408 43.5173 67.3129C43.7497 67.2178 44.0137 67.165 44.2989 67.165C44.6158 67.165 44.8904 67.2178 45.1333 67.3129C45.3762 67.4185 45.5558 67.5664 45.6826 67.7565C45.8093 67.9572 45.8832 68.179 45.8938 68.4219L45.3551 68.4642C45.3234 68.2001 45.2284 67.9889 45.0594 67.8516C44.8904 67.7143 44.6474 67.6509 44.32 67.6509C43.9926 67.6509 43.7285 67.7143 43.5807 67.841C43.4222 67.9678 43.3483 68.1156 43.3483 68.2952C43.3483 68.4431 43.4011 68.5698 43.5173 68.6754C43.6229 68.7705 43.9081 68.8761 44.3623 68.9817C44.8164 69.0874 45.1333 69.1719 45.3023 69.2564C45.5452 69.3725 45.7354 69.5204 45.8515 69.6894C45.9677 69.869 46.0311 70.0697 46.0311 70.2915C46.0311 70.5133 45.9677 70.7351 45.841 70.9252C45.7142 71.1259 45.5241 71.2843 45.2812 71.3899C45.0383 71.5061 44.7636 71.5589 44.4679 71.5589C44.0877 71.5589 43.7602 71.5061 43.5067 71.3899C43.2532 71.2737 43.042 71.1048 42.8941 70.8829C42.7462 70.6611 42.6723 70.4076 42.6617 70.1225" fill="#231F20"/>
<path d="M47.445 71.4747V67.7357H46.0508V67.2393H49.4096V67.7357H48.0048V71.4747H47.445Z" fill="#231F20"/>
<path d="M49.3047 69.4156C49.3047 68.7079 49.4948 68.1587 49.875 67.7573C50.2553 67.356 50.7412 67.1553 51.3432 67.1553C51.734 67.1553 52.0826 67.2503 52.3994 67.4299C52.7163 67.62 52.9487 67.8841 53.1177 68.2115C53.2761 68.5495 53.3606 68.9297 53.3606 69.3522C53.3606 69.7747 53.2761 70.1655 53.1071 70.5035C52.9275 70.8415 52.6846 71.095 52.3677 71.2745C52.0509 71.4541 51.7023 71.5386 51.3432 71.5386C50.9418 71.5386 50.5827 71.4435 50.2764 71.2534C49.9595 71.0633 49.7272 70.7992 49.5582 70.4613C49.3997 70.1233 49.3152 69.7747 49.3152 69.405M49.8962 69.405C49.8962 69.912 50.0335 70.3239 50.3081 70.6091C50.5827 70.9049 50.9313 71.0527 51.3432 71.0527C51.7551 71.0527 52.1142 70.9049 52.3889 70.6091C52.6635 70.3134 52.8008 69.8909 52.8008 69.3417C52.8008 68.9931 52.7374 68.6974 52.6212 68.4333C52.505 68.1798 52.336 67.9791 52.1142 67.8313C51.8924 67.6939 51.6389 67.62 51.3538 67.62C50.9524 67.62 50.6144 67.7573 50.3292 68.0319C50.044 68.3066 49.8962 68.7607 49.8962 69.3945" fill="#231F20"/>
<path d="M53.7938 71.4747V67.2393H54.6387L55.6422 70.2389C55.7372 70.5136 55.8006 70.7248 55.8428 70.8621C55.8957 70.7037 55.9696 70.4819 56.0646 70.1861L57.0786 67.2393H57.8285V71.4747H57.2899V67.9258L56.0541 71.4747H55.5471L54.3219 67.8624V71.4747H53.7832H53.7938Z" fill="#231F20"/>
<path d="M58.4727 71.4747V67.2393H61.5357V67.7357H59.0325V69.0348H61.3773V69.5313H59.0325V70.9783H61.6413V71.4747H58.4727Z" fill="#231F20"/>
<path d="M62.0312 71.4747V67.2393H63.9113C64.2916 67.2393 64.5768 67.2815 64.7774 67.3554C64.9781 67.4294 65.126 67.5667 65.2527 67.7568C65.3689 67.9469 65.4323 68.1582 65.4323 68.4011C65.4323 68.6968 65.3372 68.9503 65.1365 69.1616C64.9464 69.3728 64.6401 69.4996 64.2388 69.5524C64.3866 69.6263 64.5028 69.6897 64.5767 69.7636C64.7352 69.9115 64.8936 70.1016 65.0415 70.3234L65.7808 71.4747H65.0732L64.5134 70.5875C64.3444 70.334 64.2176 70.1439 64.112 70.0066C64.0064 69.8693 63.9113 69.7742 63.8268 69.7214C63.7423 69.6686 63.6578 69.6369 63.5733 69.6052C63.51 69.5946 63.4043 69.5841 63.2565 69.5841H62.6016V71.4642H62.0418L62.0312 71.4747ZM62.591 69.1088H63.7951C64.0486 69.1088 64.2493 69.0876 64.3972 69.0243C64.5451 68.9715 64.6507 68.887 64.7246 68.7708C64.7986 68.6546 64.8408 68.5279 64.8408 68.3905C64.8408 68.1899 64.7669 68.0209 64.619 67.8941C64.4711 67.7674 64.2388 67.704 63.9325 67.704H62.591V69.1088Z" fill="#231F20"/>
<path d="M67.1543 70.1225L67.6824 70.0802C67.7035 70.2915 67.7669 70.471 67.862 70.5978C67.957 70.7351 68.0943 70.8407 68.2845 70.9252C68.4746 71.0097 68.6964 71.0519 68.9393 71.0519C69.1506 71.0519 69.3407 71.0203 69.5097 70.9569C69.6681 70.8935 69.7949 70.809 69.8794 70.6928C69.9639 70.5766 69.9955 70.4605 69.9955 70.3337C69.9955 70.207 69.9533 70.0802 69.8794 69.9852C69.8054 69.8795 69.6787 69.8056 69.4991 69.7317C69.3829 69.6894 69.1294 69.6155 68.7492 69.531C68.3584 69.4359 68.0838 69.3514 67.9359 69.2669C67.7352 69.1613 67.5873 69.024 67.4817 68.8656C67.3867 68.7071 67.3339 68.5381 67.3339 68.3374C67.3339 68.1262 67.3972 67.9255 67.5134 67.7354C67.6296 67.5453 67.8092 67.408 68.0415 67.3129C68.2739 67.2178 68.538 67.165 68.8231 67.165C69.14 67.165 69.4146 67.2178 69.6575 67.3129C69.9005 67.4185 70.08 67.5664 70.2068 67.7565C70.3335 67.9572 70.4075 68.179 70.418 68.4219L69.8794 68.4642C69.8477 68.2001 69.7526 67.9889 69.5836 67.8516C69.4146 67.7143 69.1717 67.6509 68.8443 67.6509C68.5168 67.6509 68.2633 67.7143 68.1049 67.841C67.9465 67.9678 67.8725 68.1156 67.8725 68.2952C67.8725 68.4431 67.9253 68.5698 68.0415 68.6754C68.1471 68.7705 68.4323 68.8761 68.8865 68.9817C69.3407 69.0874 69.6575 69.1719 69.8265 69.2564C70.0695 69.3725 70.2596 69.5204 70.3758 69.6894C70.492 69.869 70.5553 70.0697 70.5553 70.2915C70.5553 70.5133 70.492 70.7351 70.3652 70.9252C70.2385 71.1259 70.0483 71.2843 69.8054 71.3899C69.5625 71.5061 69.2879 71.5589 68.9921 71.5589C68.6119 71.5589 68.2845 71.5061 68.031 71.3899C67.7775 71.2737 67.5662 71.1048 67.4184 70.8829C67.2705 70.6611 67.1965 70.4076 67.186 70.1225" fill="#231F20"/>
<path d="M70.4813 71.4747L72.1078 67.2393H72.7099L74.4421 71.4747H73.7978L73.3014 70.1967H71.5269L71.0622 71.4747H70.4707H70.4813ZM71.7065 69.7319H73.1429L72.6993 68.5595C72.562 68.2004 72.467 67.9047 72.393 67.6829C72.3402 67.9575 72.2663 68.2215 72.1607 68.4962L71.6959 69.7425L71.7065 69.7319Z" fill="#231F20"/>
<path d="M75.1716 71.4747V67.7357H73.7773V67.2393H77.1361V67.7357H75.7314V71.4747H75.1716Z" fill="#231F20"/>
<path d="M77.9914 67.2393H77.4316V71.4747H77.9914V67.2393Z" fill="#231F20"/>
<path d="M78.457 70.1225L78.9851 70.0802C79.0063 70.2915 79.0696 70.471 79.1647 70.5978C79.2598 70.7351 79.3971 70.8407 79.5872 70.9252C79.7773 71.0097 79.9991 71.0519 80.2421 71.0519C80.4533 71.0519 80.6434 71.0203 80.8124 70.9569C80.9708 70.8935 81.0976 70.809 81.1821 70.6928C81.2666 70.5766 81.2983 70.4605 81.2983 70.3337C81.2983 70.207 81.256 70.0802 81.1821 69.9852C81.1082 69.8795 80.9814 69.8056 80.8018 69.7317C80.6857 69.6894 80.4322 69.6155 80.0519 69.531C79.6611 69.4359 79.3865 69.3514 79.2386 69.2669C79.038 69.1613 78.8901 69.024 78.7845 68.8656C78.6894 68.7071 78.6366 68.5381 78.6366 68.3374C78.6366 68.1262 78.7 67.9255 78.8162 67.7354C78.9429 67.5453 79.1119 67.408 79.3443 67.3129C79.5766 67.2178 79.8407 67.165 80.1259 67.165C80.4427 67.165 80.7174 67.2178 80.9603 67.3129C81.2032 67.4185 81.3828 67.5664 81.5095 67.7565C81.6363 67.9572 81.7102 68.179 81.7208 68.4219L81.1821 68.4642C81.1504 68.2001 81.0553 67.9889 80.8863 67.8516C80.7174 67.7143 80.4744 67.6509 80.147 67.6509C79.8196 67.6509 79.5555 67.7143 79.4076 67.841C79.2492 67.9678 79.1753 68.1156 79.1753 68.2952C79.1753 68.4431 79.2281 68.5698 79.3443 68.6754C79.4499 68.7705 79.7351 68.8761 80.1892 68.9817C80.6434 69.0874 80.9603 69.1719 81.1293 69.2564C81.3722 69.3725 81.5623 69.5204 81.6785 69.6894C81.7947 69.869 81.8581 70.0697 81.8581 70.2915C81.8581 70.5133 81.7947 70.7351 81.668 70.9252C81.5412 71.1259 81.3511 71.2843 81.1082 71.3899C80.8652 71.5061 80.5906 71.5589 80.2949 71.5589C79.9146 71.5589 79.5872 71.5061 79.3337 71.3899C79.0802 71.2737 78.869 71.1048 78.7211 70.8829C78.5732 70.6611 78.4993 70.4076 78.4887 70.1225" fill="#231F20"/>
<path d="M82.3008 71.4747V67.2393H85.1526V67.7357H82.8606V69.056H84.8463V69.5524H82.8606V71.4747H82.3008Z" fill="#231F20"/>
<path d="M84.7402 71.4747L86.3668 67.2393H86.9689L88.7011 71.4747H88.0673L87.5709 70.1967H85.7965L85.3317 71.4747H84.7402ZM85.9654 69.7319H87.4019L86.9583 68.5595C86.821 68.2004 86.7259 67.9047 86.6626 67.6829C86.6097 67.9575 86.5358 68.2215 86.4302 68.4962L85.9654 69.7425V69.7319Z" fill="#231F20"/>
<path d="M91.7124 69.9965L92.2722 70.1338C92.1561 70.5986 91.9448 70.9471 91.6385 71.19C91.3322 71.433 90.9625 71.5492 90.5189 71.5492C90.0753 71.5492 89.6951 71.4541 89.4099 71.264C89.1247 71.0844 88.9029 70.8098 88.755 70.4613C88.6071 70.1021 88.5332 69.7325 88.5332 69.3205C88.5332 68.8769 88.6177 68.4967 88.7867 68.1587C88.9557 67.8313 89.1986 67.5778 89.5049 67.4088C89.8218 67.2398 90.1598 67.1553 90.5295 67.1553C90.952 67.1553 91.3111 67.2609 91.5963 67.4827C91.8814 67.6939 92.0821 68.0003 92.1983 68.3911L91.6491 68.5178C91.554 68.2115 91.4061 67.9791 91.2266 67.8418C91.0365 67.7045 90.8041 67.6306 90.5189 67.6306C90.1915 67.6306 89.9169 67.7045 89.7056 67.8629C89.4838 68.0214 89.3359 68.2326 89.2409 68.4967C89.1564 68.7607 89.1036 69.0354 89.1036 69.31C89.1036 69.6691 89.1564 69.986 89.262 70.25C89.3676 70.5246 89.5261 70.7253 89.7479 70.8521C89.9697 70.9894 90.2126 71.0527 90.4661 71.0527C90.783 71.0527 91.047 70.9577 91.2688 70.7781C91.4906 70.5986 91.6385 70.3345 91.7124 69.9754" fill="#231F20"/>
<path d="M93.6344 71.4747V67.7357H92.2402V67.2393H95.599V67.7357H94.1942V71.4747H93.6344Z" fill="#231F20"/>
<path d="M96.4543 67.2393H95.8945V71.4747H96.4543V67.2393Z" fill="#231F20"/>
<path d="M96.9508 69.4156C96.9508 68.7079 97.1409 68.1587 97.5212 67.7573C97.9014 67.356 98.3873 67.1553 98.9788 67.1553C99.3696 67.1553 99.7287 67.2503 100.035 67.4299C100.352 67.62 100.584 67.8841 100.753 68.2115C100.922 68.5495 100.996 68.9297 100.996 69.3522C100.996 69.7747 100.912 70.1655 100.732 70.5035C100.553 70.8415 100.31 71.095 99.9927 71.2745C99.6759 71.4541 99.3273 71.5386 98.9576 71.5386C98.5563 71.5386 98.2077 71.4435 97.8909 71.2534C97.574 71.0633 97.3416 70.7992 97.1726 70.4613C97.0142 70.1233 96.9297 69.7747 96.9297 69.405M97.5106 69.405C97.5106 69.912 97.6479 70.3239 97.9225 70.6091C98.1972 70.9049 98.5457 71.0527 98.9576 71.0527C99.3696 71.0527 99.7287 70.9049 100.003 70.6091C100.278 70.3134 100.415 69.8909 100.415 69.3417C100.415 68.9931 100.352 68.6974 100.236 68.4333C100.119 68.1798 99.9505 67.9791 99.7181 67.8313C99.4963 67.6939 99.2428 67.62 98.9576 67.62C98.5563 67.62 98.2183 67.7573 97.9331 68.0319C97.6479 68.3066 97.5 68.7607 97.5 69.3945" fill="#231F20"/>
<path d="M101.43 71.4747V67.2393H102.011L104.229 70.5664V67.2393H104.767V71.4747H104.197L101.968 68.1476V71.4747H101.43Z" fill="#231F20"/>
<path d="M106.299 71.4747L107.925 67.2393H108.527L110.26 71.4747H109.626L109.13 70.1967H107.355L106.89 71.4747H106.299ZM107.524 69.7319H108.961L108.517 68.5595C108.38 68.2004 108.285 67.9047 108.221 67.6829C108.168 67.9575 108.094 68.2215 107.989 68.4962L107.524 69.7425V69.7319Z" fill="#231F20"/>
<path d="M110.925 71.4747L109.795 67.2393H110.376L111.02 70.0171C111.084 70.3129 111.147 70.5981 111.2 70.8832C111.305 70.4291 111.369 70.165 111.39 70.1016L112.193 67.2393H112.869L113.481 69.3834C113.629 69.9115 113.745 70.4185 113.809 70.8832C113.861 70.6192 113.935 70.3129 114.02 69.9643L114.685 67.2393H115.256L114.094 71.4747H113.555L112.657 68.2427C112.583 67.9786 112.541 67.8096 112.531 67.7462C112.488 67.9364 112.446 68.1054 112.404 68.2427L111.506 71.4747H110.936H110.925Z" fill="#231F20"/>
<path d="M114.768 71.4747L116.395 67.2393H116.997L118.729 71.4747H118.085L117.588 70.1967H115.814L115.349 71.4747H114.758H114.768ZM115.994 69.7319H117.43L116.986 68.5595C116.849 68.2004 116.754 67.9047 116.68 67.6829C116.627 67.9575 116.553 68.2215 116.458 68.4962L115.994 69.7425V69.7319Z" fill="#231F20"/>
<path d="M118.932 71.4747V67.2393H120.812C121.192 67.2393 121.477 67.2815 121.678 67.3554C121.879 67.4294 122.026 67.5667 122.153 67.7568C122.269 67.9469 122.333 68.1582 122.333 68.4011C122.333 68.6968 122.238 68.9503 122.037 69.1616C121.847 69.3728 121.541 69.4996 121.139 69.5524C121.287 69.6263 121.403 69.6897 121.477 69.7636C121.636 69.9115 121.794 70.1016 121.942 70.3234L122.681 71.4747H121.974L121.414 70.5875C121.245 70.334 121.118 70.1439 121.012 70.0066C120.907 69.8693 120.812 69.7742 120.727 69.7214C120.643 69.6686 120.558 69.6369 120.474 69.6052C120.41 69.5946 120.305 69.5841 120.157 69.5841H119.513V71.4642H118.953L118.932 71.4747ZM119.491 69.1088H120.696C120.949 69.1088 121.15 69.0876 121.298 69.0243C121.445 68.9715 121.551 68.887 121.625 68.7708C121.699 68.6546 121.741 68.5279 121.741 68.3905C121.741 68.1899 121.667 68.0209 121.519 67.8941C121.372 67.7674 121.139 67.704 120.833 67.704H119.491V69.1088Z" fill="#231F20"/>
<path d="M122.903 71.4747V67.2393H124.361C124.688 67.2393 124.942 67.2604 125.111 67.3026C125.354 67.3554 125.565 67.4611 125.734 67.6089C125.956 67.7991 126.125 68.042 126.241 68.3377C126.357 68.6335 126.41 68.9715 126.41 69.3517C126.41 69.6686 126.368 69.9538 126.294 70.2072C126.22 70.4607 126.125 70.6614 126.008 70.8199C125.892 70.9783 125.766 71.1156 125.618 71.2107C125.48 71.3057 125.311 71.3691 125.111 71.4219C124.91 71.4747 124.688 71.4958 124.424 71.4958H122.893L122.903 71.4747ZM123.463 70.9783H124.371C124.656 70.9783 124.868 70.9572 125.026 70.8938C125.185 70.841 125.311 70.767 125.406 70.672C125.533 70.5347 125.639 70.3551 125.713 70.1333C125.787 69.9115 125.818 69.6369 125.818 69.32C125.818 68.8764 125.744 68.5384 125.597 68.2955C125.449 68.0526 125.269 67.8941 125.068 67.8202C124.921 67.7568 124.678 67.7357 124.34 67.7357H123.452V70.9783H123.463Z" fill="#231F20"/>
<path d="M126.631 70.1225L127.159 70.0802C127.18 70.2915 127.243 70.471 127.339 70.5978C127.434 70.7245 127.571 70.8407 127.761 70.9252C127.951 71.0097 128.173 71.0519 128.416 71.0519C128.627 71.0519 128.817 71.0203 128.986 70.9569C129.145 70.8935 129.271 70.809 129.356 70.6928C129.44 70.5766 129.472 70.4605 129.472 70.3337C129.472 70.207 129.43 70.0802 129.356 69.9852C129.282 69.8795 129.155 69.8056 128.976 69.7317C128.859 69.6894 128.606 69.6155 128.226 69.531C127.835 69.4359 127.56 69.3514 127.412 69.2669C127.212 69.1613 127.064 69.024 126.958 68.8656C126.863 68.7071 126.81 68.5381 126.81 68.3374C126.81 68.1262 126.874 67.9255 126.99 67.7354C127.117 67.5453 127.286 67.408 127.518 67.3129C127.75 67.2178 128.015 67.165 128.3 67.165C128.617 67.165 128.891 67.2178 129.134 67.3129C129.377 67.4185 129.557 67.5664 129.683 67.7565C129.81 67.9572 129.884 68.179 129.895 68.4219L129.356 68.4642C129.324 68.2001 129.229 67.9889 129.06 67.8516C128.891 67.7143 128.648 67.6509 128.321 67.6509C127.993 67.6509 127.729 67.7143 127.581 67.841C127.423 67.9678 127.349 68.1156 127.349 68.2952C127.349 68.4431 127.402 68.5698 127.518 68.6754C127.624 68.7705 127.909 68.8761 128.363 68.9817C128.817 69.0874 129.134 69.1719 129.303 69.2564C129.546 69.3725 129.736 69.5204 129.852 69.6894C129.969 69.869 130.032 70.0697 130.032 70.2915C130.032 70.5133 129.969 70.7351 129.842 70.9252C129.715 71.1259 129.525 71.2843 129.282 71.3899C129.039 71.5061 128.764 71.5589 128.469 71.5589C128.088 71.5589 127.761 71.5061 127.508 71.3899C127.254 71.2737 127.043 71.1048 126.895 70.8829C126.747 70.6611 126.673 70.4076 126.663 70.1225" fill="#231F20"/>
<path d="M17.6816 58.6944C17.6816 58.6944 19.361 57.0256 19.361 54.9765C19.361 52.9274 17.6816 51.248 17.6816 51.248C17.6816 51.248 18.7167 53.3182 18.7167 54.9765C18.7167 56.751 17.6816 58.6944 17.6816 58.6944Z" fill="#231F20"/>
<path d="M15.959 52.7266C15.959 53.1068 15.6527 53.4131 15.2725 53.4131C14.8922 53.4131 14.5859 53.1068 14.5859 52.7266C14.5859 52.3463 14.8922 52.04 15.2725 52.04C15.6527 52.04 15.959 52.3463 15.959 52.7266Z" fill="#231F20"/>
<path d="M15.959 57.0254C15.959 57.4057 15.6527 57.712 15.2725 57.712C14.8922 57.712 14.5859 57.4057 14.5859 57.0254C14.5859 56.6452 14.8922 56.3389 15.2725 56.3389C15.6527 56.3389 15.959 56.6452 15.959 57.0254Z" fill="#231F20"/>
</g>
<defs>
<clipPath id="clip0_1375_15962">
<rect width="130" height="71.5486" fill="white"/>
</clipPath>
</defs>
</svg>
