<svg width="130" height="124" viewBox="0 0 130 124" fill="none" xmlns="http://www.w3.org/2000/svg">
<g clip-path="url(#clip0_1374_15382)">
<path d="M21.8663 57.7633C21.958 56.8645 22.0864 55.9657 22.2515 55.0668H6.20096L1.00977 48.4082H23.9941C24.7829 46.2436 25.7367 44.1525 26.874 42.1714L17.739 33.495L25.1131 32.5044L30.1392 37.292C30.6344 36.6684 31.1297 36.0447 31.6617 35.4394L28.1397 32.1009L33.3493 31.3304L34.1931 26.1759L37.8251 29.6245C38.4671 29.1292 39.1091 28.6523 39.7695 28.1937L34.67 23.351L35.257 19.7741L35.6789 17.1693L44.3737 25.4422C46.4281 24.3599 48.611 23.4428 50.8489 22.6723V0.751953L57.8561 5.64965V20.893C58.7916 20.7463 59.7455 20.5995 60.6993 20.5262V7.63074L65.6888 11.0976L70.8616 7.50233V20.5812C71.8155 20.6913 72.7693 20.838 73.7048 21.0031V5.52124L77.3185 3.02654L79.9416 1.26557V22.599C82.2162 23.351 84.3991 24.2682 86.4902 25.3688L95.13 17.1693L95.5519 19.7741L96.1389 23.351L91.1128 28.1387C91.7731 28.5973 92.4335 29.0742 93.0572 29.5511L96.5975 26.1943L97.4413 31.3488L102.651 32.1192L99.2389 35.366C99.7525 35.953 100.266 36.5767 100.743 37.2003L105.622 32.5594L109.585 33.1464L112.941 33.6417L104.045 42.098C105.201 44.1158 106.173 46.2436 106.98 48.4265H129.964L124.901 55.0852H108.759C108.906 55.984 109.034 56.8828 109.126 57.7817H122.829L119.178 62.5143L122.957 67.4303H108.979C108.851 68.3475 108.704 69.2463 108.502 70.1268H125.158L129.781 76.0517H106.778C105.989 78.1428 105.035 80.1423 103.935 82.05L112.923 90.598L106.448 91.6069L101 86.4341C100.523 87.0577 100.028 87.6814 99.4957 88.2868L103.458 92.0472L98.0466 92.8543L97.2211 97.807L93.369 94.1383C92.7453 94.6336 92.1033 95.1105 91.4429 95.5691L96.7626 100.632L95.6619 107.602L86.2701 98.6875C84.234 99.7331 82.0878 100.632 79.8682 101.366V122.791L77.2451 120.956L73.6315 118.462V102.962C72.6959 103.127 71.7421 103.273 70.7882 103.383V116.499L65.6154 112.922L60.626 116.389V103.475C59.6721 103.383 58.7182 103.255 57.7827 103.09V118.37L53.9856 120.993L50.7755 123.231V101.329C48.5927 100.595 46.4832 99.6964 44.4654 98.6691L35.1469 107.529L33.9729 100.614L39.3292 95.5324C38.6689 95.0738 38.0268 94.5969 37.4032 94.1016L33.4593 97.8437L32.6522 92.891L27.2409 92.0838L31.3131 88.2134C30.7995 87.6081 30.3042 86.9844 29.8273 86.3607L24.2693 91.6436L17.794 90.6347L26.9107 81.9583C25.8284 80.0689 24.9113 78.1062 24.1409 76.07H1.39498L6.0909 70.1451H22.4716C22.2882 69.2463 22.1231 68.3475 21.9947 67.4486H8.3288L12.1075 62.5326L8.4572 57.8H21.8479L21.8663 57.7633Z" fill="#A58D31"/>
<path d="M16.748 32.7248L94.726 106.851L95.8266 99.8801L24.1038 31.716L16.748 32.7065V32.7248ZM27.1488 31.3124L96.2852 97.0369L97.0923 92.0842L102.504 91.277L33.1838 25.4058L32.34 30.542L27.1304 31.3124H27.1488ZM111.969 89.8279L34.6696 16.3809L34.2477 19.004L33.6607 22.5809L105.475 90.8368L111.951 89.8279H111.969Z" fill="#C9AD3E"/>
<path d="M111.951 32.8533L34.2111 106.722L33.0371 99.8067L104.632 31.771L108.594 32.358L111.951 32.8533ZM101.642 31.3307L32.5051 97.0369L31.698 92.0842L26.2867 91.277L95.5882 25.4058L96.432 30.542L101.642 31.3124V31.3307ZM16.8398 89.8279L94.1208 16.3809L94.5427 19.004L95.1297 22.5809L23.3151 90.8368L16.8398 89.8279Z" fill="#C9AD3E"/>
<path d="M0 47.6377H128.973L123.91 54.2964H5.1912L0 47.6377ZM7.44744 56.9928H121.837L118.187 61.7254L121.966 66.6415H7.31904L11.0978 61.7254L7.44744 56.9928ZM128.808 75.2812H0.366869L5.08113 69.3563H124.185L128.808 75.2812Z" fill="#C9AD3E"/>
<path d="M49.8398 122.424V0L56.847 4.89769V117.563L53.0499 120.204L49.8398 122.442V122.424ZM59.6903 115.582V6.86044L64.6797 10.3273L69.8525 6.75038V115.729L64.6797 112.133L59.6903 115.6V115.582ZM78.9325 0.495272V122.02L76.3094 120.204L72.7141 117.71V4.75095L76.3094 2.25624L78.9325 0.495272Z" fill="#C9AD3E"/>
<path d="M20.6172 61.2122C20.6172 38.1728 40.263 19.5176 64.4947 19.5176C88.7264 19.5176 108.372 38.1728 108.372 61.2122C108.372 84.2515 88.7264 102.907 64.4947 102.907C40.263 102.907 20.6172 84.2515 20.6172 61.2122Z" fill="#2E358C"/>
<path d="M20.6172 61.2122C20.6172 38.1728 40.263 19.5176 64.4947 19.5176C88.7264 19.5176 108.372 38.1728 108.372 61.2122C108.372 84.2515 88.7264 102.907 64.4947 102.907C40.263 102.907 20.6172 84.2515 20.6172 61.2122Z" stroke="white" stroke-width="2.7882" stroke-miterlimit="3.86"/>
<path fill-rule="evenodd" clip-rule="evenodd" d="M89.5165 91.0755C86.1413 94.3773 62.6617 109.015 38.375 90.9287C38.375 90.9287 62.6067 104.998 89.5165 91.0755Z" fill="white"/>
<path fill-rule="evenodd" clip-rule="evenodd" d="M38.668 31.4228C42.0432 28.121 65.5228 13.4829 89.8095 31.5695C89.8095 31.5695 65.5778 17.5001 38.668 31.4228Z" fill="white"/>
<path d="M64.7715 26.6348H65.4869C85.6647 26.6348 102.045 42.19 102.045 61.3772C102.045 80.5644 85.6647 96.138 65.4869 96.138H64.7715C84.6374 95.7711 100.615 80.3443 100.615 61.3772C100.615 42.4101 84.6374 27.0016 64.7715 26.6348Z" fill="#9A94C5"/>
<path fill-rule="evenodd" clip-rule="evenodd" d="M42.0802 74.7498C42.0802 76.9694 40.2642 78.0517 36.6138 78.0333L31.4043 77.9966V77.7215C32.4499 77.5931 33.1102 77.3546 33.3854 77.0061C33.6239 76.6942 33.7339 76.0339 33.7339 75.0066V68.7148C33.7339 67.706 33.6239 67.0639 33.4221 66.7705C33.1653 66.4036 32.5232 66.1468 31.5144 66.0184V65.7432C34.4126 65.6332 35.8984 65.5781 35.9902 65.5781C39.4754 65.5781 41.218 66.587 41.218 68.6048C41.218 69.9622 40.0991 70.9161 37.8612 71.448C40.6677 72.0717 42.0618 73.1723 42.0618 74.7498M39.3287 68.8799C39.3287 67.8894 38.9251 67.1373 38.0997 66.642C37.4026 66.2201 36.5038 66.0184 35.3848 66.0184V71.448C38.0079 71.4297 39.3103 70.5675 39.3103 68.8799M40.0074 74.97C40.0074 74.0711 39.6405 73.319 38.8701 72.677C38.1363 72.09 37.3109 71.7965 36.3754 71.7965C36.2286 71.7965 35.8984 71.8149 35.3665 71.8332V75.2084C35.3665 76.0339 35.4582 76.5842 35.66 76.896C35.9168 77.3729 36.4304 77.5931 37.2192 77.5931C38.0446 77.5931 38.7233 77.3546 39.2369 76.8777C39.7506 76.3824 40.0074 75.7404 40.0074 74.9516" fill="black"/>
<path fill-rule="evenodd" clip-rule="evenodd" d="M56.0394 77.8675L55.9843 78.1426C53.8565 78.0509 52.3523 77.7024 51.5085 77.097C50.7748 76.5834 49.8576 75.3361 48.7754 73.3733C48.4452 72.7496 48.06 72.3828 47.6381 72.2727C47.0878 72.2177 46.5558 72.1626 46.0055 72.0893V75.0059C46.0055 76.0881 46.1522 76.7852 46.4274 77.0603C46.7209 77.3355 47.4546 77.5556 48.6286 77.7207V77.9959H41.9883V77.7207C43.0339 77.5923 43.6942 77.3355 43.9877 76.987C44.2262 76.6935 44.3362 76.0331 44.3362 75.0059V69.3745C44.3362 68.0537 44.2812 67.2466 44.1712 66.9898C43.9327 66.4212 43.254 66.091 42.1167 65.9993V65.7425C45.1984 65.6507 46.886 65.5957 47.1795 65.5957C48.4635 65.5957 49.5091 65.7975 50.3162 66.1644C51.3618 66.6596 51.8754 67.4667 51.8754 68.5673C51.8754 69.8881 51.0866 70.8786 49.5274 71.539C50.0777 72.4011 50.6464 73.2449 51.215 74.1071C51.9121 75.1159 52.6091 75.9047 53.2512 76.4917C54.1133 77.2254 55.0305 77.684 56.021 77.8858M49.931 68.9709C49.931 67.9803 49.5274 67.2283 48.702 66.6963C48.0049 66.2377 47.0878 66.0176 46.0055 66.0176V71.8141C47.0511 71.8141 47.9316 71.5757 48.6653 71.1538C49.5091 70.6218 49.9493 69.9064 49.9493 68.9892" fill="black"/>
<path fill-rule="evenodd" clip-rule="evenodd" d="M69.0821 77.9963H63.5241V77.7211C64.4963 77.5193 64.9732 77.1341 64.9732 76.5471C64.9732 76.1619 64.8265 75.5383 64.4963 74.6761C64.2395 74.0524 64.001 73.4288 63.7625 72.8051H59.4518C59.2134 73.4104 58.9749 74.0157 58.7548 74.6394C58.4613 75.4465 58.3145 76.0702 58.3145 76.4738C58.3145 76.9507 58.553 77.2809 59.0666 77.4643C59.2317 77.5193 59.6903 77.5927 60.4607 77.7211V77.9963H55.2695V77.7211C56.04 77.5377 56.5719 77.2992 56.8838 77.0057C57.1406 76.7489 57.4157 76.2536 57.7276 75.5199L59.8554 70.1636C60.1122 69.5583 60.369 68.9346 60.6258 68.3293C61.0294 67.3021 61.2312 66.5867 61.2312 66.1648C61.2312 66.0731 61.2312 65.9813 61.1945 65.9263C61.7264 65.7245 62.185 65.3943 62.5702 64.9541L66.7342 75.6116C67.0093 76.3087 67.2845 76.7856 67.5413 77.0424C67.8715 77.3726 68.3851 77.6111 69.0821 77.7211V77.9963ZM63.5057 71.9796L61.5613 67.247L59.782 71.9796H63.5241H63.5057Z" fill="black"/>
<path fill-rule="evenodd" clip-rule="evenodd" d="M83.6468 65.9078C83.0598 65.9628 82.6196 66.1829 82.3628 66.5681C82.1794 66.8433 82.0326 67.3018 81.9409 67.9255C81.7758 69.1362 81.6841 70.5486 81.6841 72.1629C81.6841 71.8877 81.7391 73.9238 81.8675 78.2712L81.6291 78.3263C80.4184 76.9505 78.8225 75.2996 76.8598 73.3185C73.723 70.1451 72.1088 68.5125 72.0171 68.4025V74.254C72.0171 75.2629 72.1455 75.9966 72.439 76.4736C72.8242 77.0972 73.5763 77.5008 74.6585 77.7026V77.9777H69.0088V77.7026C69.9993 77.6109 70.6964 77.1706 71.0632 76.4185C71.3384 75.8682 71.4851 75.0428 71.4851 73.9605V68.9344C71.4851 67.9255 71.3017 67.2285 70.9348 66.8249C70.568 66.4214 69.8342 66.1095 68.752 65.8894V65.6143H71.8703L81.2255 75.1162L81.1338 68.4942C81.1338 67.5953 80.9137 66.9717 80.4918 66.6048C80.1616 66.293 79.4829 66.0545 78.4923 65.8894V65.6143H83.6652V65.8894L83.6468 65.9078Z" fill="black"/>
<path fill-rule="evenodd" clip-rule="evenodd" d="M98.5774 71.8516C98.5774 73.9244 97.7153 75.5203 96.0093 76.6209C94.5418 77.5747 92.6341 78.0333 90.3229 78.0333L84.6914 77.9966V77.7215C85.737 77.5931 86.3973 77.3546 86.6908 76.9877C86.9293 76.6759 87.0394 76.0155 87.0394 75.0066V68.7148C87.0394 67.7243 86.9293 67.0639 86.7092 66.7521C86.434 66.3852 85.8104 66.1284 84.8015 66V65.7432C88.2317 65.6332 89.9743 65.5781 90.0294 65.5781C92.469 65.5781 94.4318 66.0367 95.9359 66.9722C97.6969 68.0545 98.5774 69.6871 98.5774 71.8699M96.3945 72.1267C96.3945 70.0723 95.6241 68.5131 94.1016 67.4125C92.7442 66.4403 90.9465 65.9633 88.7086 65.9633V75.1901C88.7086 76.0522 88.9104 76.6759 89.2956 77.0428C89.6808 77.4096 90.3412 77.5931 91.2767 77.5931C92.8909 77.5931 94.1566 77.0611 95.0921 75.9972C95.9543 75.0066 96.3945 73.7226 96.3945 72.1451" fill="black"/>
<path fill-rule="evenodd" clip-rule="evenodd" d="M41.547 73.869C41.547 76.0885 39.7126 77.1708 36.0806 77.1525L30.8711 77.1158V76.8406C31.9167 76.7122 32.577 76.4737 32.8522 76.1252C33.0907 75.8134 33.2007 75.153 33.2007 74.1258V67.834C33.2007 66.8251 33.0907 66.1831 32.8889 65.8896C32.6137 65.5227 31.99 65.2659 30.9812 65.1375V64.8624C33.8794 64.7523 35.3652 64.6973 35.4753 64.6973C38.9606 64.6973 40.7032 65.7061 40.7032 67.7239C40.7032 69.0813 39.5842 70.0352 37.3463 70.5672C40.1529 71.2092 41.547 72.3098 41.547 73.869ZM38.8138 67.9991C38.8138 66.9902 38.4102 66.2565 37.5848 65.7612C36.8877 65.3393 35.9889 65.1375 34.87 65.1375V70.5672C37.4931 70.5488 38.8138 69.6867 38.8138 67.9991ZM39.5109 74.0891C39.5109 73.1903 39.1256 72.4198 38.3736 71.8145C37.6582 71.2275 36.8144 70.934 35.8789 70.934C35.7321 70.934 35.4019 70.934 34.87 70.9707V74.3643C34.87 75.1714 34.9617 75.74 35.1635 76.0518C35.4203 76.5288 35.9339 76.7489 36.7227 76.7489C37.5481 76.7489 38.2268 76.5104 38.7404 76.0152C39.2541 75.5382 39.5109 74.8962 39.5109 74.1074" fill="white"/>
<path fill-rule="evenodd" clip-rule="evenodd" d="M55.5257 76.9876L55.4707 77.2627C53.3428 77.171 51.857 76.8225 50.9949 76.2171C50.2611 75.7035 49.3439 74.4562 48.2617 72.4934C47.9315 71.8698 47.5463 71.5029 47.1244 71.3928C46.5741 71.3378 46.0421 71.2644 45.4918 71.2094V74.126C45.4918 75.2266 45.6386 75.9053 45.9137 76.1805C46.2072 76.4556 46.941 76.6757 48.1149 76.8408V77.116H41.4746V76.8408C42.5202 76.7124 43.1806 76.474 43.474 76.1071C43.7125 75.8136 43.8226 75.1532 43.8226 74.126V68.4946C43.8226 67.1555 43.7675 66.3667 43.6575 66.1099C43.419 65.5229 42.7403 65.2111 41.6214 65.1194V64.8626C44.7031 64.7709 46.3907 64.7158 46.6841 64.7158C47.9682 64.7158 49.0138 64.9176 49.8209 65.3028C50.8665 65.7981 51.3801 66.6052 51.3801 67.6875C51.3801 69.0082 50.6096 69.9987 49.0321 70.6591C49.5824 71.5212 50.1511 72.365 50.7197 73.2272C51.4351 74.2361 52.1138 75.0248 52.7742 75.6118C53.6363 76.3456 54.5535 76.8041 55.5257 76.9876ZM49.4357 68.0727C49.4357 67.0821 49.0321 66.33 48.2067 65.7981C47.4913 65.3395 46.5924 65.1194 45.5102 65.1194V70.9159C46.5557 70.9159 47.4362 70.6958 48.1516 70.2555C49.0138 69.7236 49.4357 69.0082 49.4357 68.0727Z" fill="white"/>
<path fill-rule="evenodd" clip-rule="evenodd" d="M68.5489 77.1162H62.9909V76.841C63.9631 76.6393 64.44 76.254 64.44 75.6671C64.44 75.2818 64.2749 74.6582 63.9631 73.796C63.7063 73.1723 63.4678 72.5487 63.2293 71.925H58.9186C58.6802 72.5487 58.4417 73.154 58.2216 73.7593C57.9281 74.5848 57.7813 75.1901 57.7813 75.5937C57.7813 76.0706 58.0381 76.4008 58.5334 76.5842C58.6985 76.6393 59.1571 76.731 59.9275 76.841V77.1162H54.7363V76.841C55.5068 76.6576 56.0387 76.4191 56.3505 76.1256C56.6074 75.8872 56.8825 75.3736 57.176 74.6398L59.3222 69.2652C59.579 68.6599 59.8358 68.0362 60.0926 67.4309C60.4962 66.3853 60.6979 65.6699 60.6979 65.2663C60.6979 65.1746 60.6979 65.0829 60.6613 65.0279C61.1932 64.8261 61.6518 64.4959 62.037 64.0557L66.201 74.7132C66.4761 75.4102 66.7513 75.8872 67.0081 76.1623C67.3383 76.4925 67.8519 76.7126 68.5489 76.841V77.1162ZM62.9725 71.1179L61.0098 66.3853L59.2305 71.1179H62.9725Z" fill="white"/>
<path fill-rule="evenodd" clip-rule="evenodd" d="M83.1136 65.0271C82.5266 65.0821 82.0864 65.3023 81.8296 65.6875C81.6462 65.9626 81.4994 66.4212 81.4077 67.0449C81.2426 68.2555 81.1509 69.668 81.1509 71.3006C81.1509 71.0254 81.2059 73.0615 81.3343 77.3906L81.0775 77.4456C79.8668 76.0882 78.271 74.4189 76.3266 72.4379C73.1898 69.2644 71.5756 67.6319 71.4655 67.5218V73.3734C71.4655 74.3823 71.6123 75.116 71.8874 75.5929C72.2727 76.2166 73.0247 76.6201 74.1253 76.8219V77.0971H68.4756V76.8219C69.4661 76.7302 70.1632 76.29 70.53 75.5379C70.8052 74.9876 70.9519 74.1621 70.9519 73.0615V68.0354C70.9519 67.0265 70.7685 66.3295 70.4016 65.9443C70.0348 65.5407 69.301 65.2289 68.2188 65.0088V64.752H71.3371L80.6923 74.2355L80.6006 67.6319C80.6006 66.733 80.3805 66.1094 79.9586 65.7425C79.6284 65.4307 78.9497 65.1922 77.9591 65.0271V64.7703H83.132V65.0271H83.1136Z" fill="white"/>
<path fill-rule="evenodd" clip-rule="evenodd" d="M98.0461 70.9893C98.0461 73.0804 97.184 74.658 95.4781 75.7586C94.0106 76.7124 92.1029 77.171 89.7916 77.171L84.1602 77.1343V76.8592C85.2057 76.7308 85.8661 76.4923 86.1412 76.1254C86.3797 75.8136 86.5081 75.1532 86.5081 74.1443V67.8526C86.5081 66.862 86.3981 66.2016 86.1779 65.8898C85.9028 65.5229 85.2608 65.2661 84.2702 65.1377V64.8809C87.7004 64.7709 89.4431 64.7158 89.4981 64.7158C91.9378 64.7158 93.9005 65.1744 95.4047 66.0916C97.1657 67.1922 98.0461 68.8248 98.0461 70.9893ZM95.8449 71.2644C95.8449 69.21 95.0928 67.6324 93.552 66.5502C92.1946 65.578 90.3969 65.101 88.159 65.101V74.3278C88.159 75.1899 88.3608 75.7952 88.746 76.1621C89.1312 76.529 89.7916 76.7124 90.7271 76.7124C92.323 76.7124 93.5887 76.1805 94.5425 75.1165C95.4047 74.126 95.8449 72.842 95.8449 71.2644Z" fill="white"/>
<path d="M89.8288 31.5137C98.7988 38.5759 104.32 47.2707 105.017 60.2578C105.678 72.658 99.2757 84.196 89.7188 91.2032" stroke="white" stroke-width="1.3941" stroke-miterlimit="3.86"/>
<path d="M38.5946 31.5137C29.6246 38.5759 24.1033 47.2707 23.4062 60.2578C22.7458 72.658 29.1294 84.196 38.7046 91.2032" stroke="white" stroke-width="1.3941" stroke-miterlimit="3.86"/>
<path fill-rule="evenodd" clip-rule="evenodd" d="M53.4718 45.4369L53.0132 45.5286C52.4996 43.8226 51.7291 42.6853 50.6652 42.08C49.8581 41.6398 48.6107 41.4196 46.9415 41.4196H45.6574C45.0705 41.438 44.6119 41.4563 44.2817 41.4563V56.0577C44.2817 58.1122 44.5018 59.4512 44.9421 60.0566C45.4924 60.8086 46.8131 61.2856 48.8859 61.524V62.001H36.7609V61.524C38.8153 61.3039 40.1361 60.8086 40.6864 60.0566C41.145 59.4512 41.3834 58.1122 41.3834 56.0577V41.438H39.4207C37.2928 41.438 35.8254 41.6398 34.9999 42.0433C33.9543 42.5936 33.1656 43.7493 32.6519 45.5469L32.1934 45.4552L32.6519 39.5303H32.9088C33.3857 39.9705 33.7526 40.2457 33.991 40.3557C34.2295 40.4658 34.6697 40.5208 35.2751 40.5208H50.3534C50.9587 40.5208 51.3623 40.4658 51.6007 40.3557C51.8392 40.2457 52.2061 39.9705 52.7197 39.5303H52.9948L53.4534 45.4552L53.4718 45.4369Z" fill="black"/>
<path fill-rule="evenodd" clip-rule="evenodd" d="M77.7947 51.2702C77.7947 54.5904 76.6757 57.2685 74.4012 59.323C72.1449 61.3591 69.2466 62.3863 65.743 62.3863C62.2395 62.3863 59.3412 61.3591 57.0849 59.323C54.8287 57.2685 53.6914 54.5904 53.6914 51.2519C53.6914 47.9134 54.8287 45.2719 57.1216 43.1808C59.3595 41.163 62.2211 40.1357 65.7064 40.1357C69.1916 40.1357 72.255 41.1446 74.4745 43.1441C76.6941 45.1618 77.7947 47.8767 77.7947 51.2702ZM73.9793 51.8022C73.9793 49.1791 73.2639 46.7761 71.8698 44.6115C70.2372 42.1352 68.091 40.8878 65.4496 40.8878C62.8081 40.8878 60.9187 41.9151 59.4512 43.9879C58.1489 45.7855 57.5068 47.9317 57.5068 50.4631C57.5068 53.2329 58.2039 55.7093 59.5796 57.8371C61.2122 60.3685 63.3951 61.6159 66.1283 61.6159C68.678 61.6159 70.6774 60.552 72.1266 58.4058C73.3556 56.5531 73.9609 54.3519 73.9609 51.8022" fill="black"/>
<path fill-rule="evenodd" clip-rule="evenodd" d="M96.358 46.2984C96.358 48.2795 95.4408 49.8387 93.6065 50.9943C92.139 51.8931 90.2497 52.4618 87.9384 52.7186L87.8467 52.2417C91.2952 51.7464 93.0195 50.0405 93.0195 47.1238C93.0195 45.1978 92.2674 43.6936 90.7449 42.6114C89.3875 41.6392 87.6632 41.1622 85.5721 41.1622V56.8092C85.5721 58.6802 85.8105 59.8909 86.2691 60.3861C86.7277 60.8814 87.9567 61.285 89.9562 61.5418V62.0187H78.6016V61.5418C80.3992 61.3217 81.5549 60.8814 82.0501 60.2577C82.472 59.7258 82.6922 58.5885 82.6922 56.8092V47.0138C82.6922 44.7759 82.5821 43.4185 82.362 42.9232C81.9217 41.8409 80.7477 41.254 78.84 41.1622V40.7037C84.2147 40.5202 86.9295 40.4102 86.9662 40.4102C89.3875 40.4102 91.442 40.8137 93.1296 41.6392C95.3124 42.6847 96.3947 44.2439 96.3947 46.3167" fill="black"/>
<path fill-rule="evenodd" clip-rule="evenodd" d="M52.8846 44.7581L52.426 44.8499C51.9308 43.1439 51.142 42.0066 50.0964 41.4013C49.271 40.9611 48.042 40.7409 46.3727 40.7409H45.0887C44.4833 40.7593 44.0431 40.7776 43.6946 40.7776V55.3606C43.6946 57.4151 43.9147 58.7542 44.3549 59.3595C44.9052 60.1116 46.226 60.6069 48.2988 60.827V61.2856H36.1738V60.827C38.2282 60.6069 39.5489 60.1116 40.0993 59.3595C40.5578 58.7542 40.7963 57.4151 40.7963 55.3606V40.7409H38.8152C36.6874 40.7409 35.2199 40.9427 34.3944 41.3463C33.3489 41.8782 32.5601 43.0522 32.0465 44.8499L31.5879 44.7581L32.0465 38.8516H32.3033C32.7802 39.2918 33.1471 39.567 33.3856 39.677C33.624 39.7871 34.0459 39.8421 34.6696 39.8421H49.7479C50.3349 39.8421 50.7568 39.7871 50.9953 39.677C51.2337 39.567 51.6189 39.3101 52.1142 38.8516H52.371L52.8296 44.7581H52.8846Z" fill="white"/>
<path fill-rule="evenodd" clip-rule="evenodd" d="M77.2068 50.5729C77.2068 53.8931 76.0879 56.5712 73.8133 58.6074C71.557 60.6435 68.6588 61.6707 65.1552 61.6707C61.6516 61.6707 58.7533 60.6435 56.4971 58.6074C54.2408 56.5712 53.1035 53.8747 53.1035 50.5362C53.1035 47.1977 54.2408 44.5563 56.5337 42.4651C58.7716 40.4474 61.6332 39.4385 65.1185 39.4385C68.6037 39.4385 71.6671 40.4474 73.8866 42.4468C76.1062 44.4646 77.2068 47.1611 77.2068 50.5729ZM73.3914 51.1049C73.3914 48.4818 72.6943 46.0788 71.2819 43.9143C69.631 41.4379 67.4848 40.1906 64.8617 40.1906C62.2386 40.1906 60.3308 41.2178 58.8634 43.2906C57.5793 45.0883 56.919 47.2528 56.919 49.7842C56.919 52.554 57.616 55.012 58.9918 57.1582C60.6243 59.6896 62.8072 60.9553 65.5404 60.9553C68.0901 60.9553 70.0895 59.8914 71.5387 57.7269C72.7677 55.8742 73.373 53.673 73.373 51.1232" fill="white"/>
<path fill-rule="evenodd" clip-rule="evenodd" d="M95.7892 45.6019C95.7892 47.583 94.8721 49.1422 93.0194 50.2978C91.5519 51.1966 89.6625 51.7653 87.3512 52.0221L87.2595 51.5452C90.7081 51.0315 92.4324 49.3256 92.4324 46.4273C92.4324 44.5013 91.6803 42.9971 90.1578 41.9149C88.8004 40.961 87.0761 40.4657 84.9849 40.4657V56.0943C84.9849 57.9837 85.2051 59.176 85.6637 59.6713C86.1222 60.1666 87.3512 60.5518 89.3507 60.8269V61.2855H77.9961V60.8269C79.7938 60.6068 80.9494 60.1666 81.463 59.5429C81.8849 59.0293 82.0867 57.8736 82.0867 56.0943V46.2989C82.0867 44.061 81.9766 42.7036 81.7565 42.19C81.3163 41.1078 80.1423 40.5208 78.2346 40.4474V39.9705C83.6092 39.787 86.324 39.6953 86.3607 39.6953C88.782 39.6953 90.8365 40.0989 92.5241 40.906C94.6886 41.9516 95.7892 43.5107 95.7892 45.5836" fill="white"/>
<path d="M55.2322 84.4894L55.1038 84.5444C55.1038 84.5444 54.9937 84.3609 54.957 84.2876C54.9203 84.1959 54.902 84.1225 54.8837 84.0491C54.8837 83.9941 54.847 83.9207 54.847 83.8657C54.847 83.8106 54.847 83.7373 54.847 83.6822C54.847 83.2236 55.0121 82.8384 55.3606 82.5633C55.7091 82.2698 56.1677 82.123 56.718 82.123C57.2316 82.123 57.6168 82.2331 57.9103 82.4349C58.2038 82.6367 58.3322 82.9302 58.3322 83.297C58.3322 83.3521 58.3322 83.4071 58.3322 83.4621C58.3322 83.5171 58.3322 83.5722 58.2955 83.6272C58.2588 83.8106 58.1855 83.9757 58.0754 84.1592C57.9654 84.3243 57.8369 84.4893 57.6902 84.6178C57.4517 84.8379 57.1949 85.003 56.9198 85.1497C56.6263 85.2965 56.3511 85.4249 56.0393 85.5349C55.6541 85.7 55.2689 85.8651 54.902 86.0669C54.5351 86.2503 54.2233 86.5255 53.9665 86.874C54.2416 86.6722 54.5351 86.4888 54.8286 86.342C55.1221 86.1953 55.4523 86.1219 55.8008 86.1219C55.9659 86.1219 56.131 86.1219 56.2778 86.1769C56.4245 86.2136 56.5896 86.2503 56.718 86.287C56.8647 86.3237 56.9931 86.3604 57.1032 86.3971C57.2133 86.4337 57.3233 86.4521 57.415 86.4521H57.4517C57.4517 86.4521 57.4701 86.4521 57.4884 86.4521C57.5435 86.4521 57.6168 86.4154 57.6719 86.3787C57.7269 86.342 57.8003 86.287 57.8369 86.2136L57.9654 86.3237C57.7452 86.6172 57.4884 86.8556 57.1949 87.0024C56.9014 87.1491 56.5896 87.2225 56.2594 87.2225C56.076 87.2225 55.9109 87.2225 55.7458 87.1858C55.5807 87.1675 55.4156 87.1308 55.2505 87.0941C55.0854 87.0574 54.9387 87.0207 54.7919 87.0024C54.6452 86.9841 54.4984 86.9657 54.37 86.9657C54.26 86.9657 54.1499 86.9657 54.0582 87.0207C53.9665 87.0574 53.8931 87.1125 53.8014 87.1858C53.8014 87.1858 53.783 87.1858 53.7647 87.2042L53.728 87.2409L53.5996 87.1491C53.783 86.819 54.0032 86.5255 54.2967 86.2503C54.5902 85.9752 54.8837 85.7184 55.1955 85.4799C55.2505 85.4249 55.3239 85.3882 55.3789 85.3331C55.434 85.2781 55.489 85.2414 55.5624 85.1864C55.9659 84.8746 56.3144 84.5444 56.6263 84.1959C56.9381 83.8473 57.0849 83.4438 57.0849 82.9852C57.0849 82.7834 57.0298 82.6367 56.9381 82.5266C56.8464 82.4165 56.6997 82.3615 56.5346 82.3615H56.5162C56.1677 82.3615 55.8559 82.5633 55.5624 82.9302C55.2689 83.297 55.1405 83.7189 55.1405 84.1592V84.2325C55.1405 84.2325 55.1405 84.2692 55.1405 84.2876C55.1405 84.3243 55.1405 84.3609 55.1405 84.416C55.1405 84.4527 55.1588 84.5077 55.1771 84.5627L55.2322 84.4894Z" fill="#231F20"/>
<path d="M63.3587 83.939C63.3587 84.0491 63.3587 84.1408 63.3587 84.2325C63.3587 84.3243 63.3403 84.4343 63.3037 84.526C63.1753 85.1864 62.8634 85.7917 62.3681 86.342C61.8729 86.8923 61.2859 87.1675 60.5888 87.1675C60.1302 87.1675 59.745 86.9841 59.4332 86.6355C59.1214 86.287 58.9746 85.8284 58.9746 85.2781C58.9746 85.2047 58.9746 85.1314 58.9746 85.058C58.9746 84.9846 58.9746 84.9112 58.9929 84.8379C59.103 84.1592 59.3965 83.5355 59.8918 82.9668C60.3871 82.3982 60.9924 82.123 61.7078 82.123C62.2031 82.123 62.5883 82.2881 62.9001 82.6183C63.1936 82.9485 63.3403 83.4071 63.3403 83.9574L63.3587 83.939ZM62.3865 82.8384C62.3865 82.6733 62.3498 82.5266 62.2397 82.4165C62.1297 82.3065 62.038 82.2515 61.8912 82.2515C61.7995 82.2515 61.7261 82.2698 61.6344 82.3065C61.561 82.3432 61.4693 82.3982 61.3959 82.4899C61.3042 82.5816 61.2309 82.71 61.1391 82.8568C61.0474 83.0035 60.9557 83.187 60.864 83.4071C60.8273 83.4988 60.7723 83.6089 60.7356 83.7006C60.6989 83.7923 60.6622 83.9024 60.6072 83.9941C60.4237 84.471 60.2586 84.9296 60.1486 85.3698C60.0202 85.8101 59.9652 86.1403 59.9652 86.3604C59.9652 86.5622 60.0018 86.7089 60.0936 86.819C60.1853 86.929 60.2953 86.984 60.4421 86.984C60.5338 86.984 60.6072 86.9841 60.6806 86.929C60.7539 86.8923 60.8273 86.8373 60.9007 86.7639C60.9924 86.6722 61.0841 86.5438 61.1758 86.3971C61.2675 86.232 61.3593 86.0485 61.4693 85.8101C61.5243 85.7 61.5794 85.5533 61.6528 85.3882C61.7261 85.2231 61.7812 85.0397 61.8545 84.8379C61.8912 84.7645 61.9096 84.6728 61.9462 84.5994C61.9829 84.526 62.0013 84.4343 62.038 84.3426C62.1297 84.0491 62.2031 83.7556 62.2764 83.4805C62.3498 83.2053 62.3865 82.9852 62.3865 82.8384Z" fill="#231F20"/>
<path d="M65.9265 86.9107L64.5324 87.1859L65.9631 83.2604L64.459 84.1042L64.569 83.719L67.7241 81.958L65.9265 86.9291V86.9107Z" fill="#231F20"/>
<path d="M71.9251 85.2785H72.7505L72.3286 86.0673H71.6866L71.4115 86.9294L70.054 87.1862L70.4576 85.9572H67.9629L73.0624 81.9033L71.9618 85.2602L71.9251 85.2785ZM71.173 83.6276L69.1552 85.2602H70.641L71.173 83.6276Z" fill="#231F20"/>
<path d="M55.2322 84.0489L55.1038 84.1039C55.1038 84.1039 54.9937 83.9205 54.957 83.8471C54.9203 83.7554 54.902 83.6821 54.8837 83.6087C54.8837 83.5537 54.847 83.4803 54.847 83.4252C54.847 83.3702 54.847 83.2968 54.847 83.2418C54.847 82.7832 55.0121 82.398 55.3606 82.1229C55.7091 81.8294 56.1677 81.6826 56.718 81.6826C57.2316 81.6826 57.6168 81.7927 57.9103 81.9945C58.2038 82.1962 58.3322 82.4897 58.3322 82.8566C58.3322 82.9116 58.3322 82.9667 58.3322 83.0217C58.3322 83.0767 58.3322 83.1317 58.2955 83.1868C58.2588 83.3702 58.1855 83.5353 58.0754 83.7187C57.9654 83.8838 57.8369 84.0489 57.6902 84.1773C57.4517 84.3974 57.1949 84.5625 56.9198 84.7093C56.6263 84.856 56.3511 84.9844 56.0393 85.0945C55.6541 85.2596 55.2689 85.4247 54.902 85.6265C54.5351 85.8099 54.2233 86.085 53.9665 86.4336C54.2416 86.2318 54.5351 86.0484 54.8286 85.9016C55.1221 85.7549 55.4523 85.6815 55.8008 85.6815C55.9659 85.6815 56.131 85.6815 56.2778 85.7365C56.4245 85.7732 56.5896 85.8099 56.718 85.8466C56.8647 85.8833 56.9931 85.92 57.1032 85.9566C57.2133 85.9933 57.3233 86.0117 57.415 86.0117H57.4517C57.4517 86.0117 57.4701 86.0117 57.4884 86.0117C57.5435 86.0117 57.6168 85.975 57.6719 85.9383C57.7269 85.9016 57.8003 85.8466 57.8369 85.7732L57.9654 85.8833C57.7452 86.1768 57.4884 86.4152 57.1949 86.562C56.9014 86.7087 56.5896 86.7821 56.2594 86.7821C56.076 86.7821 55.9109 86.7821 55.7458 86.7454C55.5807 86.7271 55.4156 86.6904 55.2505 86.6537C55.0854 86.617 54.9387 86.5803 54.7919 86.562C54.6452 86.5436 54.4984 86.5253 54.37 86.5253C54.26 86.5253 54.1499 86.5253 54.0582 86.5803C53.9665 86.617 53.8931 86.672 53.8014 86.7454C53.8014 86.7454 53.783 86.7454 53.7647 86.7637L53.728 86.8004L53.5996 86.7087C53.783 86.3785 54.0032 86.085 54.2967 85.8099C54.5902 85.5347 54.8837 85.2779 55.1955 85.0395C55.2505 84.9844 55.3239 84.9477 55.3789 84.8927C55.434 84.8377 55.489 84.801 55.5624 84.746C55.9659 84.4341 56.3144 84.104 56.6263 83.7554C56.9381 83.4069 57.0849 83.0033 57.0849 82.5448C57.0849 82.343 57.0298 82.1962 56.9381 82.0862C56.8464 81.9761 56.6997 81.9211 56.5346 81.9211H56.5162C56.1677 81.9211 55.8559 82.1229 55.5624 82.4897C55.2689 82.8566 55.1405 83.2785 55.1405 83.7187V83.7921C55.1405 83.7921 55.1405 83.8288 55.1405 83.8471C55.1405 83.8838 55.1405 83.9205 55.1405 83.9755C55.1405 84.0122 55.1588 84.0673 55.1771 84.1223L55.2322 84.0489Z" fill="white"/>
<path d="M63.3587 83.5172C63.3587 83.6272 63.3587 83.7189 63.3587 83.8107C63.3587 83.9024 63.3403 84.0124 63.3037 84.1042C63.1753 84.7645 62.8634 85.3699 62.3681 85.9202C61.8729 86.4705 61.2859 86.7456 60.5888 86.7456C60.1302 86.7456 59.745 86.5622 59.4332 86.2137C59.1214 85.8651 58.9746 85.4065 58.9746 84.8562C58.9746 84.7829 58.9746 84.7095 58.9746 84.6361C58.9746 84.5627 58.9746 84.4894 58.9929 84.416C59.103 83.7373 59.3965 83.1136 59.8918 82.545C60.3871 81.9763 60.9924 81.7012 61.7078 81.7012C62.2031 81.7012 62.5883 81.8663 62.9001 82.1964C63.1936 82.5266 63.3403 82.9852 63.3403 83.5355L63.3587 83.5172ZM62.3865 82.4166C62.3865 82.2515 62.3498 82.1047 62.2397 81.9947C62.1297 81.8846 62.038 81.8296 61.8912 81.8296C61.7995 81.8296 61.7261 81.8479 61.6344 81.8846C61.561 81.9213 61.4693 81.9763 61.3959 82.068C61.3042 82.1598 61.2309 82.2882 61.1391 82.4349C61.0474 82.5817 60.9557 82.7651 60.864 82.9852C60.8273 83.0769 60.7723 83.187 60.7356 83.2787C60.6989 83.3704 60.6622 83.4805 60.6072 83.5722C60.4237 84.0491 60.2586 84.5077 60.1486 84.948C60.0202 85.3882 59.9652 85.7184 59.9652 85.9385C59.9652 86.1403 60.0018 86.287 60.0936 86.3971C60.1853 86.5071 60.2953 86.5622 60.4421 86.5622C60.5338 86.5622 60.6072 86.5622 60.6806 86.5071C60.7539 86.4705 60.8273 86.4154 60.9007 86.3421C60.9924 86.2503 61.0841 86.1219 61.1758 85.9752C61.2675 85.8101 61.3593 85.6267 61.4693 85.3882C61.5243 85.2781 61.5794 85.1314 61.6528 84.9663C61.7261 84.8012 61.7812 84.6178 61.8545 84.416C61.8912 84.3426 61.9096 84.2509 61.9462 84.1775C61.9829 84.1042 62.0013 84.0124 62.038 83.9207C62.1297 83.6272 62.2031 83.3337 62.2764 83.0586C62.3498 82.7834 62.3865 82.5633 62.3865 82.4166Z" fill="white"/>
<path d="M65.9265 86.4889L64.5324 86.764L65.9631 82.8385L64.459 83.6823L64.569 83.2971L67.7241 81.5361L65.9265 86.5072V86.4889Z" fill="white"/>
<path d="M71.9251 84.8381H72.7505L72.3286 85.6268H71.6866L71.4115 86.489L70.054 86.7458L70.4576 85.5168H67.9629L73.0624 81.4629L71.9618 84.8197L71.9251 84.8381ZM71.173 83.1872L69.1552 84.8197H70.641L71.173 83.1872Z" fill="white"/>
</g>
<defs>
<clipPath id="clip0_1374_15382">
<rect width="130" height="123.194" fill="white"/>
</clipPath>
</defs>
</svg>
