<svg width="130" height="130" viewBox="0 0 106 130" fill="none" xmlns="http://www.w3.org/2000/svg">
<g clip-path="url(#clip0_1373_15178)">
<path d="M1.76125 9.67487C1.76125 1.7373 9.69882 1.7373 9.69882 1.7373H95.3996C95.4829 1.77896 103.42 1.7373 103.42 9.71653V120.325C103.42 128.262 95.4829 128.262 95.3996 128.262H9.74047C9.74047 128.262 1.80291 128.262 1.80291 120.325C1.7553 120.331 1.71365 9.68082 1.76125 9.67487Z" fill="#E31B23"/>
<path d="M83.6357 31.7324H83.719C83.9689 32.4881 84.3199 33.4818 84.6413 34.3803C84.7365 34.6361 84.9864 34.9991 84.8912 35.3025C84.8376 35.4751 84.5401 35.612 84.3854 35.6001C84.0284 35.5703 83.8618 35.0407 83.6714 34.7194C83.5405 34.4993 83.3441 34.2315 83.1656 34.0054C83.1359 33.9697 83.0645 33.9578 83.0406 33.9221C83.0109 33.8804 83.0288 33.8269 82.999 33.7971C82.9336 33.7317 82.8264 33.69 82.7491 33.6305C82.5527 33.4758 82.3385 33.333 82.0351 33.214C81.9815 32.9165 81.8328 32.7142 81.7852 32.4167C82.404 32.1906 83.0169 31.9645 83.6297 31.7443" fill="white"/>
<path d="M82.1192 20.1775C82.625 20.2251 83.577 20.0823 83.9697 20.2608C84.4517 20.4809 84.6005 21.3021 84.053 21.8138C83.9102 21.8376 83.8388 21.9328 83.6306 21.8971C83.8626 22.4028 84.2256 22.7837 84.4696 23.2835H83.9221C83.6306 22.8372 83.3688 22.3552 83.0415 21.9387H82.7024C82.6012 22.3017 82.6904 22.8491 82.6607 23.2835H82.1133V20.1775H82.1192ZM82.6666 21.5222C83.1308 21.5222 83.6187 21.552 83.8448 21.314C84.0888 20.588 83.339 20.5464 82.6666 20.5999V21.5222Z" fill="white"/>
<path d="M82.7493 19.1298C82.7493 19.1298 82.7612 19.0941 82.7909 19.0882C83.4276 19.0227 84.0107 19.1536 84.4332 19.3797C84.6712 19.5047 84.8437 19.707 85.0222 19.8855C85.2424 20.1056 85.4447 20.2841 85.5697 20.5579C85.8791 21.2659 85.8969 22.218 85.5697 22.9082C85.528 22.9974 85.4745 23.1105 85.4447 23.164C85.3793 23.2711 85.2484 23.3425 85.1472 23.4556C85.1234 23.4913 85.1353 23.5508 85.1055 23.5806C85.0579 23.6282 84.9806 23.6758 84.8913 23.7472C84.4867 24.1042 83.9096 24.4195 83.1301 24.4195C82.5291 24.4195 81.9519 24.1637 81.5771 23.8721C81.5116 23.8186 81.4581 23.7531 81.4105 23.7055C81.3807 23.6758 81.3153 23.6936 81.2855 23.6639C81.2498 23.6341 81.2736 23.5687 81.2439 23.5389C81.1189 23.408 81.0118 23.3187 80.9047 23.164C80.6726 22.813 80.4644 22.2894 80.4882 21.6527C80.5179 20.6471 81.0475 19.9866 81.6663 19.5523C81.8984 19.3857 82.2732 19.1834 82.6719 19.1298C82.7017 19.1298 82.7314 19.1298 82.7552 19.1298M81.9579 19.8438C81.9579 19.8438 81.9043 19.8617 81.8746 19.8855C81.5116 20.183 81.107 20.7959 81.0356 21.3135C80.9345 22.0633 81.1665 22.7297 81.4164 23.0807C81.4997 23.1938 81.6663 23.402 81.7556 23.4556C81.7972 23.4854 81.8032 23.5151 81.8389 23.5389C82.1661 23.8067 82.7195 24.003 83.2253 24.003C83.6061 24.003 84.0048 23.8364 84.2309 23.7115C84.5403 23.533 84.6474 23.4199 84.8616 23.1224C85.0401 22.8665 85.2424 22.5095 85.284 22.2001C85.3912 21.4325 85.1412 20.784 84.9032 20.4329C84.7188 20.1651 84.5105 19.9569 84.2725 19.8022C84.1357 19.7129 84.0583 19.6772 83.9334 19.6356C83.8738 19.6118 83.8203 19.5642 83.7667 19.5523C83.5049 19.4868 82.9397 19.5225 82.7612 19.5523C82.4994 19.5939 82.0828 19.7308 81.9638 19.8438" fill="white"/>
<path d="M82.161 53.3677C82.2682 53.2011 82.3812 53.0404 82.5002 52.8619C82.7858 52.4275 83.1726 51.8742 83.8866 51.8087C84.672 51.7433 85.273 52.2669 86.0703 52.3561C86.2012 52.0467 85.8026 51.9813 85.9037 51.6421C85.9454 51.4934 86.1715 51.3922 86.2786 51.3922C86.713 51.3744 87.0283 52.0705 87.1176 52.2728C87.2068 52.4633 87.3258 52.8262 87.3258 53.0702C87.3377 53.683 86.9807 54.5637 86.5701 54.9147C86.5047 54.9742 86.3857 55.0218 86.2726 55.0813C85.993 55.236 85.5765 55.3729 85.0945 55.2896C84.2436 55.1468 83.3749 54.5696 82.7025 54.6172C82.411 54.641 82.1848 54.8314 82.0718 55.123C81.8457 55.0278 81.5839 54.9683 81.3578 54.8731C81.5363 53.9687 80.7687 53.8318 80.013 53.57C79.7691 53.4867 79.4716 53.4034 79.2157 53.3201C78.6683 53.1416 78.3291 53.0702 77.9543 53.3617C77.8293 53.4569 77.7817 53.5878 77.6567 53.6116C77.4663 53.4926 77.1926 53.4629 76.9844 53.3617C77.1272 52.856 77.3592 52.2788 77.6151 51.8087C77.6627 51.7195 77.6865 51.6005 77.74 51.5172C77.7876 51.4398 77.8888 51.3803 77.9483 51.3089C78.0197 51.2197 78.0554 51.1126 78.1149 51.059C78.1804 50.9936 78.3172 50.9162 78.4065 50.8448C78.7694 50.5651 79.2514 50.2974 80.0428 50.3807C80.1082 50.3866 80.1915 50.4104 80.257 50.4223C81.4887 50.7258 82.3098 51.5529 82.1432 53.3617" fill="white"/>
<path d="M57.3769 79.0716C57.5554 79.4881 57.5375 79.9939 57.5911 80.4997C57.6327 80.9757 57.722 81.4874 57.716 81.9694C56.7402 82.0705 55.7346 82.1479 54.7766 82.2609C54.7885 81.9872 54.7052 81.8028 54.735 81.5053C54.9789 81.41 55.1396 81.3743 55.3657 81.2553C55.4312 81.2196 55.4609 81.178 55.5323 81.1244C55.5918 81.0828 55.687 81.0828 55.7406 81.0411C55.7882 80.9995 55.812 80.9221 55.8655 80.8745C55.9488 80.7972 56.0678 80.7377 56.1571 80.6246C56.1868 80.5889 56.169 80.5294 56.1987 80.4937C56.2701 80.4164 56.4308 80.22 56.4962 80.0772C56.5141 80.0296 56.5141 79.9344 56.5379 79.8689C56.5498 79.8451 56.6152 79.8035 56.6212 79.7856C56.7283 79.4227 56.8056 78.7325 57.3769 79.0716Z" fill="white"/>
<path d="M55.6163 75.2934C55.8603 75.5016 55.8365 75.8884 55.8662 76.2573C55.9257 76.9713 56.015 77.608 56.0745 78.3994C56.1042 78.8099 56.1459 79.1848 55.7829 79.1967C55.42 79.2146 55.3605 78.7028 55.1522 78.3577C55.0094 78.1257 54.8844 78.0126 54.6881 77.8936C54.5929 77.8341 54.5393 77.8103 54.3489 77.727C54.2894 77.5187 54.2894 77.251 54.2656 77.013C54.2775 76.8702 54.4798 76.9178 54.5215 76.7988C54.6464 76.7333 54.7119 76.6143 54.813 76.5072C54.8487 76.4775 54.9916 76.1264 55.0213 76.0014C55.0749 75.7932 55.0392 75.579 55.1046 75.46C55.1879 75.3112 55.3426 75.2696 55.6104 75.2934" fill="white"/>
<path d="M53.3025 72.7764C53.5881 75.9776 53.9213 79.1312 54.2248 82.3086C53.7012 82.3681 53.011 82.4454 52.1244 82.5168C51.5294 82.5704 50.375 82.8739 50.3155 82.3086C50.2679 81.8445 50.7737 81.9635 50.9462 81.6362C50.9046 80.47 50.732 79.2085 50.6071 77.8578C50.5297 76.9951 50.4107 75.9478 50.3155 75.0434C50.2798 74.7042 50.3274 74.2996 50.2322 74.1211C50.1668 73.9843 50.0418 73.9605 49.8514 73.8712C49.6908 73.7879 49.5301 73.8474 49.4706 73.6153C49.3159 72.9965 50.3572 73.0322 50.857 72.9846C51.815 72.8954 52.4457 72.8061 53.2906 72.7764" fill="white"/>
<path d="M56.664 72.3957C56.6997 72.3897 56.7056 72.4076 56.7056 72.4373C56.7651 73.3596 56.9853 74.3414 56.9198 75.2518C56.8068 75.2994 56.6699 75.3946 56.539 75.3767C56.2891 75.3529 56.1701 74.984 56.0332 74.746C56.0213 74.7163 56.0154 74.6508 55.9916 74.621C55.9797 74.6032 55.9202 74.5972 55.9083 74.5794C55.8726 74.5258 55.8607 74.4187 55.825 74.3711C55.7774 74.3057 55.6822 74.2343 55.6167 74.1629C55.587 74.1331 55.5572 74.145 55.5334 74.1212C55.3133 73.913 55.1824 73.794 54.861 73.6571C54.5992 73.55 54.3374 73.4905 53.9388 73.4489C53.8793 73.2287 53.8733 72.955 53.8555 72.6932C54.7956 72.598 55.7714 72.5385 56.6699 72.4016" fill="white"/>
<path d="M48.3445 73.8243C48.1482 73.8838 48.1839 74.098 48.1363 74.2408C48.0827 74.3836 48.0054 74.5205 47.9697 74.6633C47.8804 74.9786 47.8447 75.3059 47.7614 75.6272C47.7376 75.7046 47.7019 75.7522 47.6781 75.8355C47.6424 75.9842 47.5889 76.1449 47.5532 76.2996C47.4877 76.5733 47.3806 76.9244 47.3033 77.2278C47.1843 77.6622 47.0593 78.1501 46.9224 78.6559C46.8153 79.0605 46.6666 79.5603 46.5476 80.0423C46.5119 80.1732 46.4762 80.3041 46.4226 80.5064C46.3929 80.6254 46.2322 81.0835 46.256 81.2204C46.2798 81.3573 46.3215 81.3692 46.381 81.4346C46.5178 81.5715 46.8034 81.6607 46.7558 81.9761C46.6725 82.5771 45.6848 82.1129 45.3278 82.0177C45.2207 81.988 45.1314 81.9582 45.0362 81.9285C44.8458 81.8749 44.6495 81.869 44.4055 81.8035C44.2806 81.7678 44.102 81.6845 43.9414 81.6369C43.751 81.5834 43.4594 81.5477 43.1857 81.4703C42.7454 81.3513 42.1266 81.2026 42.3467 80.673C42.4836 80.5064 42.8347 80.5421 43.0608 80.4647C43.2928 80.1851 43.3464 79.7567 43.4416 79.4115C43.632 78.6916 43.8819 77.8288 44.0723 77.0612C43.7629 76.9184 43.4059 76.8292 43.0191 76.7697C43.0191 76.4662 43.1441 76.2817 43.1857 76.014C43.5725 76.0913 43.9235 76.1984 44.2806 76.3055C44.4055 75.8593 44.5007 75.5082 44.6197 75.0917C44.7447 74.6276 44.9053 74.0564 45.0362 73.497C45.0838 73.3126 45.1493 73.2114 45.1195 73.0805C45.0957 72.9496 44.9946 72.8723 44.8696 72.7414C44.8399 72.7116 44.7744 72.7235 44.7447 72.6997C44.5721 72.5391 44.5721 72.1166 44.9113 72.0273C44.9232 72.0273 44.941 72.0273 44.9529 72.0273C45.3337 72.0452 45.7027 72.1761 46.0894 72.2832C46.7618 72.4677 47.4818 72.6462 48.2731 72.8723C48.6123 72.9675 49.1062 73.0508 49.0705 73.4613C49.0407 73.8005 48.7373 73.7827 48.3564 73.8422" fill="white"/>
<path d="M43.6451 72.5628C43.4249 72.7948 43.3892 73.1459 43.3059 73.4434C42.824 75.2404 42.3063 77.0909 41.7946 78.989C41.7053 79.3162 41.5387 79.7209 41.5863 79.9529C41.6339 80.2088 41.8481 80.2207 42.0088 80.417C42.0385 80.4587 42.0861 80.4825 42.0921 80.5836C42.1397 81.1251 41.4554 80.9882 41.0389 80.8752C40.5034 80.7264 40.1285 80.6312 39.7775 80.536C39.6525 80.5063 39.4443 80.3992 39.3193 80.3694C39.2657 80.3575 39.2003 80.3813 39.1527 80.3694C39.0456 80.3397 38.9623 80.2742 38.8552 80.2445C38.7481 80.2147 38.641 80.2326 38.522 80.2028C38.4208 80.179 38.3316 80.1076 38.2245 80.0779C38.0995 80.0422 38.0222 80.0481 37.927 79.9946C37.7068 79.8756 37.5818 79.8101 37.6354 79.5364C37.6949 79.2329 37.9924 79.2746 38.3494 79.1972C38.6172 78.983 38.6053 78.6141 38.6886 78.3166C38.7064 78.2393 38.7481 78.1857 38.7719 78.1024C38.8135 77.9477 38.8552 77.8108 38.8968 77.6383C39.0099 77.2277 39.1586 76.6803 39.2776 76.2519C39.3372 76.0317 39.3788 75.7878 39.4443 75.5379C39.5038 75.3177 39.5811 75.1095 39.6525 74.8238C39.6704 74.7524 39.718 74.687 39.7358 74.6156C39.8251 74.2943 39.8548 73.973 39.9441 73.6517C39.9619 73.5862 40.0095 73.5148 40.0274 73.4374C40.069 73.2827 40.1107 73.134 40.1523 72.9793C40.1761 72.89 40.1702 72.8127 40.194 72.7294C40.2356 72.5985 40.3249 72.4438 40.3606 72.3069C40.4082 72.1284 40.4617 71.8904 40.4439 71.8071C40.4201 71.6821 40.2951 71.575 40.194 71.4679C40.1642 71.4382 40.0988 71.4501 40.069 71.4263C39.8846 71.2537 39.8786 70.8432 40.2356 70.7539C40.2475 70.7539 40.2654 70.7539 40.2773 70.7539C40.8545 70.7956 41.4495 71.0276 41.9969 71.1764C42.3658 71.2716 42.6752 71.3608 43.0858 71.4679C43.3654 71.5393 43.6332 71.5929 43.9248 71.6762C44.1509 71.7416 44.4424 71.938 44.3889 72.2236C44.3294 72.5211 43.9902 72.4854 43.6332 72.5628" fill="white"/>
<path d="M67.9625 77.3106C68.2838 77.2868 68.736 77.1916 68.8015 77.5665C68.8669 77.9652 68.2481 78.1913 67.9208 78.3638C67.5222 78.5721 67.2068 78.7506 66.826 78.9529C66.3619 79.2028 65.9454 79.4051 65.4396 79.6669C65.3147 79.7324 65.273 79.774 65.148 79.7919C64.8981 79.8216 64.6899 79.7919 64.6423 79.536C64.5947 79.2564 64.8565 79.1731 65.0231 78.822C64.8327 78.2627 64.5411 77.8045 64.2674 77.3106C64.1306 77.0607 64.0116 76.7037 63.8033 76.43C63.6367 76.2039 63.3927 76.0313 63.1726 75.8409C63.0595 75.7398 62.8929 75.6684 62.7501 75.5494C62.5716 75.4066 62.4288 75.24 62.2443 75.0912C62.0658 74.9425 61.8695 74.8056 61.6969 74.6747C60.9651 74.0797 60.2629 73.4787 59.5549 72.9551C59.18 72.8956 58.8706 72.9134 58.8408 72.5743C58.817 72.2708 59.2276 72.0983 59.5965 71.9019C60.0606 71.6579 60.376 71.4913 60.7746 71.2712C60.9413 71.176 61.1555 71.1046 61.3637 70.9796C61.4946 70.9023 61.7624 70.7833 61.9528 70.6881C62.1194 70.5929 62.2741 70.4025 62.5002 70.3906C62.7561 70.3787 62.9167 70.4858 62.9643 70.5988C63.0714 70.8963 62.7442 71.0629 62.7561 71.3128C62.768 71.5687 63.2975 71.9555 63.5534 72.1518C64.0889 72.5743 64.44 72.848 64.9398 73.2466C65.0231 73.3121 65.1004 73.3478 65.1897 73.4133C65.2254 73.4371 65.2373 73.5144 65.273 73.5382C65.3146 73.568 65.3623 73.5501 65.398 73.5799C65.5289 73.681 65.6657 73.8357 65.8145 73.9547C66.0882 74.1689 66.2191 74.1987 66.3619 74.5021C66.5642 74.9306 66.8558 75.4244 67.0759 75.8469C67.2187 76.1206 67.3675 76.3646 67.4984 76.6085C67.6233 76.8465 67.6769 77.1321 67.9625 77.3225" fill="white"/>
<path d="M39.8609 70.6283C39.6348 71.146 39.3491 71.509 39.0219 72.0564C38.9148 72.2349 38.7601 72.5205 38.5994 72.7704C38.4745 72.9727 38.296 73.3595 38.0937 73.4011C37.8675 73.4428 37.5938 73.2643 37.5522 73.062C37.4927 72.8002 37.7366 72.4431 37.8437 72.098C38.0342 71.4971 38.171 70.9496 37.8854 70.3725C37.9925 70.1345 38.1532 69.9441 38.2603 69.7061C38.8434 69.9679 39.3015 70.3487 39.8549 70.6283" fill="white"/>
<path d="M66.1595 73.4428C66.1238 73.6272 65.9453 73.3297 65.868 73.2762C65.8263 73.2524 65.7787 73.2643 65.743 73.2345C65.5823 73.1095 65.4276 72.9608 65.3205 72.8537C65.1956 72.0683 65.505 70.4201 64.6898 70.2475C64.4459 70.1999 64.0769 70.4201 63.8508 70.1642C63.6247 69.593 64.2376 69.4264 64.8148 69.111C65.0468 68.9861 65.2313 68.9087 65.4038 68.8195C65.5526 68.7421 65.63 68.6885 65.8204 68.6112C65.868 68.5933 65.9334 68.5338 65.987 68.5279C66.3142 68.516 66.4749 68.7004 66.4927 68.8671C66.5225 69.1527 66.1179 69.4442 66.0346 69.6644C65.9037 69.9976 65.9572 70.4677 65.9929 70.9675C66.0405 71.741 66.106 72.693 66.1595 73.4428Z" fill="white"/>
<path d="M78.8466 69.9978C78.1563 70.6523 77.484 71.3246 76.8294 72.0149C76.6926 72.0149 76.6509 71.8721 76.5379 71.765C76.4546 71.6876 76.2463 71.5508 76.2404 71.5091C76.2344 71.4675 76.407 71.3306 76.4546 71.2592C76.6033 71.0152 76.758 70.5392 76.7937 70.2477C76.8414 69.7895 76.764 69.3849 76.6271 68.9862C76.5438 68.7423 76.3534 68.4804 76.3772 68.3138C76.3951 68.1413 76.5736 67.9509 76.7997 67.9747C76.9247 67.9925 77.008 68.0699 77.1389 68.1889C77.5494 68.5757 77.9897 69.0398 78.4003 69.4503C78.4836 69.5336 78.5729 69.6169 78.6502 69.7062C78.7335 69.7895 78.8287 69.8787 78.8585 69.9978" fill="white"/>
<path d="M37.8012 69.3731C37.5573 69.8729 37.2538 70.3191 36.9622 70.8011C36.8908 70.9142 36.8254 71.0213 36.754 71.1403C36.6588 71.295 36.5398 71.5211 36.4148 71.7293C36.3494 71.8424 36.2839 71.9317 36.2006 72.0685C36.1768 72.1042 36.1352 72.128 36.1173 72.1518C36.0162 72.3125 35.9567 72.5029 35.8615 72.6576C35.8496 72.6754 35.7841 72.6873 35.7782 72.6992C35.6175 73.0503 35.3676 73.4192 35.1474 73.7881C35.0998 73.8714 35.0701 73.9607 35.0225 74.044C35.0106 74.0559 34.9451 74.0678 34.9392 74.0856C34.9154 74.1451 34.8975 74.1927 34.8559 74.2522C34.8023 74.3355 34.7785 74.4248 34.7309 74.5081C34.6 74.7282 34.4632 74.9187 34.3144 75.1805C34.1894 75.3947 34.0407 75.6089 33.8919 75.8469C33.8027 75.9956 33.6837 76.1563 33.5944 76.311C33.4814 76.5074 33.3862 76.6978 33.3862 76.8168C33.3921 77.1619 33.8265 77.1916 33.6777 77.6141C33.6063 77.8224 33.3743 77.8521 33.0887 77.7807C33.0232 77.7688 32.9399 77.7152 32.8804 77.6557C32.8388 77.6141 32.6067 77.5248 32.5412 77.4891C32.5234 77.4772 32.5115 77.4118 32.4996 77.4058C32.2794 77.3047 32.0117 77.1202 31.7856 76.9834C31.6904 76.9298 31.5595 76.9001 31.4881 76.8584C31.4702 76.8465 31.4583 76.7811 31.4464 76.7751C31.4226 76.7632 31.381 76.787 31.3631 76.7751C31.3512 76.7632 31.3334 76.6978 31.3215 76.6918C31.0953 76.5907 30.8514 76.4181 30.6074 76.2753C30.5598 76.2455 30.5598 76.2693 30.5241 76.2336C30.3575 76.073 29.5185 75.8409 29.6435 75.353C29.6732 75.2221 29.828 75.1269 29.9827 75.0972C30.1433 75.0674 30.3159 75.1983 30.5301 75.1388C30.6372 75.1091 30.6669 75.0734 30.7383 74.9722C30.78 74.9127 30.8038 74.8115 30.8633 74.7163C31.0001 74.4962 31.131 74.2879 31.2858 74.0499C31.3096 74.0023 31.3393 73.9607 31.3691 73.919C31.4524 73.806 31.6071 73.5442 31.7082 73.3716C32.0236 72.8539 32.2556 72.4672 32.5472 71.9852C32.6186 71.8662 32.684 71.765 32.7554 71.646C32.8507 71.4913 32.9756 71.2593 33.0946 71.057C33.166 70.938 33.2315 70.8547 33.3029 70.7178C33.3267 70.6821 33.3683 70.6643 33.3862 70.6345C33.4873 70.4679 33.5349 70.2953 33.6361 70.1287C33.6777 70.0633 33.7551 69.9978 33.8027 69.9145C34.005 69.5754 34.249 69.147 34.4751 68.778C34.6774 68.4448 34.9035 68.1473 35.0641 67.7725C36.0281 68.2544 36.8432 68.8732 37.7953 69.3671" fill="white"/>
<path d="M34.6129 67.439C34.5713 67.7365 34.3392 67.8376 34.2738 68.1113C33.4407 68.1768 33.0361 68.6528 32.5541 69.1586C32.334 69.3847 32.1436 69.6465 31.9234 69.6644C31.6438 69.6822 31.3046 69.4323 31.4653 69.0753C31.4772 69.0396 31.5605 68.9979 31.5902 68.9444C31.7033 68.7361 31.7687 68.5933 31.8818 68.4029C32.0305 68.1589 32.2209 67.8793 32.3875 67.6056C32.453 67.4925 32.4946 67.3676 32.5541 67.2664C32.7327 66.9749 32.8933 66.7845 33.0183 66.5107C33.5895 66.7785 34.0596 67.1534 34.6129 67.433" fill="white"/>
<path d="M73.6333 68.8672C73.3536 68.7541 73.2465 68.4685 73.0026 68.3198C73.1811 67.9806 73.1989 67.6236 73.0442 67.2309C72.9312 66.9512 72.7051 66.7073 72.7051 66.5585C72.711 66.38 72.8419 66.1658 73.1275 66.1837C73.3239 66.1956 73.669 66.6061 73.8416 66.7727C74.2938 67.2249 74.6865 67.6117 75.1447 68.0758C75.347 68.2722 75.7337 68.6411 75.7337 68.7898C75.7337 68.9565 75.5552 69.1469 75.4005 69.1707C75.1566 69.2064 74.746 68.8018 74.3949 68.7541C74.1034 68.7065 73.8773 68.7244 73.6393 68.8791" fill="white"/>
<path d="M76.3646 72.3959C76.3229 72.5744 76.1444 72.6577 76.0254 72.7767C75.478 73.3241 74.9425 73.9013 74.2998 74.538C74.0737 74.77 73.7703 75.127 73.4609 75.0021C73.2645 74.9188 73.2228 74.7462 73.2943 74.4547C73.3181 74.3595 73.449 74.2702 73.4192 74.0738C73.3954 73.8775 73.0265 73.5562 72.7885 73.3182C71.3902 71.9199 70.1228 70.6584 68.7126 69.2423C68.4865 69.0102 68.1235 68.6294 67.9986 68.6056C67.6832 68.558 67.475 68.9091 67.2012 68.7722C67.1715 68.7603 67.0287 68.5997 67.0346 68.6056C66.9037 68.3379 67.2191 68.0046 67.4512 67.7666C68.1473 67.0705 69.0161 66.2612 69.5516 65.6662C69.5873 65.6543 69.5932 65.6781 69.5932 65.7079C71.8543 67.9213 74.0678 70.1884 76.3527 72.384" fill="white"/>
<path d="M73.9731 65.2497C73.9314 65.3747 73.86 65.6246 73.6815 65.6722C73.4137 65.7436 73.1817 65.4996 72.9675 65.4163C72.7711 65.3449 72.3546 65.2616 72.1225 65.2497C71.9262 65.2497 71.712 65.2616 71.5751 65.2914C71.2062 65.3687 70.9027 65.5413 70.5695 65.7971C70.4029 65.7257 70.2661 65.577 70.1054 65.4163C70.0876 65.4044 69.9805 65.2497 69.9805 65.2914C69.9805 65.1962 70.3256 64.9105 70.4446 64.7856C70.6409 64.5892 70.8313 64.4286 70.9503 64.3215C70.9861 64.1965 71.1229 64.1549 71.2062 64.0716C71.2895 63.9883 71.3252 63.9109 71.4145 63.8157C71.4978 63.7324 71.5811 63.6491 71.6644 63.5658C71.7774 63.4527 71.9083 63.3813 72.0035 63.2326C72.0392 63.2266 72.0452 63.2445 72.0452 63.2742C72.5629 63.7265 73.0151 64.2382 73.5149 64.7439C73.6755 64.9046 73.8838 65.0295 73.9731 65.2438" fill="white"/>
<path d="M74.7285 62.3936C75.0141 62.4769 75.4366 62.6793 75.7758 62.8161C75.9662 62.8935 76.109 62.9232 76.2339 63.066C76.3351 63.1791 76.4124 63.3397 76.5314 63.4825C76.6802 63.667 76.8527 63.8157 76.9955 63.9883C77.174 64.2085 77.3407 64.4346 77.543 64.6607C77.6441 64.7737 77.7215 64.9403 77.8345 65.0831C77.9714 65.2438 78.138 65.3925 78.2986 65.583C78.37 65.6722 78.4295 65.7793 78.5069 65.8805C78.7628 66.1899 79.3161 66.9872 79.7267 67.011C79.8933 67.0229 80.1134 66.8682 80.3158 66.8027C80.4229 66.767 80.4943 66.6659 80.6073 66.6778C80.7144 66.6778 80.9405 66.8503 80.9465 67.011C80.9465 67.0705 80.881 67.1241 80.8632 67.1776C80.8513 67.2193 80.881 67.2728 80.8632 67.3085C80.8453 67.3383 80.7501 67.4275 80.6966 67.5168C80.6609 67.5763 80.6073 67.6298 80.5716 67.6834C80.5062 67.7786 80.4348 67.8738 80.3634 67.9749C80.1908 68.2189 80.0301 68.4629 79.8159 68.7306C79.6374 68.9508 79.4887 69.1947 79.2269 69.1471C79.0841 69.1233 78.9413 68.9924 78.9353 68.8556C78.9353 68.7961 78.977 68.7366 78.977 68.7306C78.9651 68.5283 79.0424 68.2903 79.0186 68.0582C78.9532 67.4989 78.5009 67.0467 78.0963 66.5469C77.0431 65.2438 75.7222 63.667 74.8178 62.5186C74.788 62.4769 74.7107 62.4769 74.7345 62.3877" fill="white"/>
<path d="M52.844 59.8349C52.844 60.0075 52.6119 60.1443 52.5941 60.3407C52.5881 60.4061 52.6298 60.543 52.6774 60.6798C52.7071 60.7631 52.7726 60.8346 52.8023 60.9298C52.8737 61.1202 52.9094 61.3522 52.9689 61.5188C52.9808 61.5605 53.0344 61.5962 53.0522 61.6438C53.1355 61.8461 53.2069 62.096 53.3021 62.3578C53.4271 62.6791 53.5758 63.0956 53.7246 63.4883C53.8079 63.7204 53.9567 64.0596 54.0638 64.3273C54.1411 64.5356 54.1828 64.7795 54.272 64.8747C54.397 64.9997 54.6707 65.0413 54.7778 65.0889C54.8373 65.2079 54.8611 65.3627 54.9444 65.4638C54.8135 65.6185 54.5993 65.5709 54.4386 65.5888C53.1474 65.7494 52.4037 65.0473 51.8324 64.2857C51.7848 64.2262 51.761 64.1726 51.7075 64.0774C51.6599 63.9822 51.6123 63.9049 51.5409 63.7382C51.3088 63.2146 51.0232 62.4709 51.1184 61.5545C51.1541 61.2154 51.2791 60.8048 51.4576 60.5013C51.4695 60.4835 51.5349 60.4716 51.5409 60.4597C51.5528 60.4359 51.529 60.3942 51.5409 60.3764C51.5528 60.3585 51.6182 60.3466 51.6242 60.3347C51.7848 59.9718 52.2847 59.6802 52.6298 59.4541C52.7785 59.5017 52.7131 59.7635 52.838 59.829" fill="white"/>
<path d="M55.3184 65.381C55.1697 65.3334 55.2113 65.0895 55.1042 65.0002C55.128 64.8277 55.2887 64.7682 55.3184 64.5361C55.3482 64.2565 55.1697 63.8995 55.0626 63.6138C54.9495 63.2866 54.7889 62.8701 54.6461 62.4774C54.6163 62.3881 54.5509 62.3107 54.5211 62.2215C54.4795 62.1203 54.4795 61.9954 54.4378 61.8823C54.2236 61.323 53.9082 60.5614 53.6821 59.9485C53.5274 59.8533 53.3251 59.7998 53.1347 59.7403C53.1169 59.5856 53.0812 59.4606 53.0098 59.3594C53.218 59.2464 53.4977 59.1988 53.7238 59.1928C54.301 59.1809 54.9079 59.4011 55.3184 59.6986C55.3839 59.7462 55.4136 59.8117 55.4851 59.8652C55.5446 59.9188 55.6457 59.9426 55.6933 59.9902C55.735 60.0318 55.729 60.0973 55.7766 60.1568C55.8064 60.1925 55.8718 60.2044 55.9016 60.2401C55.9432 60.2877 55.9432 60.3531 55.9849 60.4067C56.0563 60.4959 56.1991 60.6268 56.2824 60.7815C56.6215 61.4242 56.925 62.2512 56.8238 63.2628C56.7227 64.2981 56.1217 64.8812 55.3125 65.3632" fill="white"/>
<path d="M84.4336 61.9768C84.4455 62.3874 84.1301 62.6908 83.8862 63.024C83.7255 63.2501 83.553 63.4882 83.3804 63.7381C83.2793 63.8809 83.1662 64.0296 83.0413 64.2022C82.9699 64.2974 82.9282 64.3926 82.8271 64.4937C82.8092 64.5116 82.7438 64.6068 82.7021 64.6603C82.6367 64.7436 82.5831 64.8627 82.4938 64.9519C82.4581 64.9876 82.4462 65.0471 82.4105 65.0828C82.2677 65.2316 82.0714 65.7611 81.6132 65.5469C81.4407 65.422 81.4883 65.0828 81.4883 64.7912C81.2086 64.3985 80.5779 64.3569 80.1435 64.1248C79.9115 64.2022 79.8222 64.4699 79.6794 64.6663C79.483 64.94 79.1796 65.2792 79.007 65.6302C78.7928 65.4636 78.65 65.2316 78.4596 65.0412C78.7452 64.6127 79.0665 64.22 79.3462 63.7797C79.1022 63.625 78.7869 63.512 78.5072 63.3989C78.4656 63.3811 78.4001 63.387 78.3406 63.3573C78.2394 63.3156 78.1502 63.2323 78.049 63.1906C77.6087 63.0121 77.1625 62.8396 76.7043 62.6432C75.9546 62.3219 75.1513 62.0006 74.354 61.6793C74.0624 61.5603 73.9672 61.4948 73.7649 61.2568C73.6875 61.1676 73.5745 61.0843 73.5566 60.9653C74.11 60.2215 74.6277 59.4301 75.1989 58.6982C75.8415 58.9005 76.5615 59.2397 77.2993 59.5372C77.5611 59.6443 77.7932 59.7157 78.0966 59.8288C78.2275 59.8823 78.4001 59.9656 78.5965 60.043C78.775 60.1084 78.9178 60.1798 79.1022 60.2512C79.2629 60.3167 79.4176 60.3821 79.608 60.4595C79.7746 60.525 79.9353 60.5785 80.1554 60.6737C80.2982 60.7332 80.441 60.8046 80.6612 60.882C81.2383 61.1021 81.7679 61.3223 82.4284 61.596C82.8211 61.7626 83.2019 61.9828 83.4756 61.9768C83.8326 61.9649 84.1659 61.5305 84.4396 61.9768" fill="white"/>
<path d="M61.0783 61.0549C60.638 61.2334 60.6083 60.7931 60.3643 60.5908C60.3346 60.5611 60.3048 60.573 60.281 60.5492C60.2215 60.4897 60.0252 60.4361 59.8229 60.4242C59.7574 60.2933 59.7336 60.1208 59.6562 60.0018C59.7098 59.8173 59.9002 59.7221 59.9478 59.496C59.9954 59.2937 59.9181 59.0497 59.9478 58.782C60.406 58.4249 60.4833 59.1687 60.6202 59.5376C60.7808 59.9661 61.1795 60.6979 61.0843 61.049" fill="white"/>
<path d="M60.2758 62.691C60.4722 62.7683 60.8113 62.691 60.8649 62.9052C60.9184 63.2503 60.5198 63.2741 60.2758 63.3693C60.1568 63.4169 60.0557 63.4942 59.9367 63.5359C59.7998 63.5894 59.6867 63.6132 59.5558 63.6608C59.3238 63.7501 59.0441 63.8751 58.8002 63.9584C58.5503 64.0476 58.2408 64.1904 58.0445 63.9584C57.985 63.6192 58.3003 63.6549 58.336 63.4109C57.8065 61.852 57.1996 60.3704 56.6581 58.8352C56.5331 58.7103 56.1821 58.8055 56.069 58.6686C55.9976 58.383 56.2059 58.3057 56.4082 58.2045C56.5807 58.1212 56.8247 58.0558 56.9973 57.9963C57.2888 57.8892 57.5863 57.7642 57.8838 57.6571C57.979 57.6273 58.098 57.6035 58.1754 57.5678C58.217 57.5559 58.2468 57.4845 58.3003 57.4845C58.336 57.4786 58.342 57.4964 58.342 57.5262C58.9965 59.2398 59.6332 60.9654 60.2758 62.691Z" fill="white"/>
<path d="M60.9903 58.4899C60.5798 58.7814 60.431 58.2459 60.193 58.0674C60.1513 58.0376 60.0442 58.0138 59.9847 57.9841C59.711 57.8413 59.3421 57.6806 58.8482 57.8175C58.7709 57.6806 58.7233 57.5259 58.6816 57.3534C59.2767 57.1511 59.8122 56.8893 60.4488 56.7227C60.4369 56.8952 60.5619 57.0321 60.6155 57.1868C60.675 57.3415 60.6809 57.5021 60.7404 57.6509C60.7523 57.6747 60.8178 57.7163 60.8237 57.7342C60.8535 57.8353 60.8713 57.9603 60.907 58.0733C60.9487 58.2043 61.0736 58.3352 60.9903 58.4958" fill="white"/>
<path d="M22.2171 54.0811H22.3004C23.1453 56.4314 24.0438 58.8115 24.9066 61.1796C25.1863 61.9591 25.4064 62.7624 25.7872 63.4883C26.1859 63.6133 26.6143 63.4883 26.7095 63.8275C26.8702 64.3749 26.2037 64.5058 25.7456 64.6665C25.2458 64.839 24.9066 64.9997 24.4425 65.1722C24.0379 65.321 23.6273 65.44 23.0977 65.6363C22.9014 65.7077 22.6455 65.8565 22.4254 65.8506C22.1516 65.8387 21.9434 65.7137 21.9196 65.4697C21.9077 65.315 21.9612 65.1782 22.0445 65.0949C22.0683 65.0711 22.1516 65.077 22.1695 65.0532C22.2766 64.9223 22.4016 64.8212 22.4194 64.6724C22.4373 64.5356 22.3302 64.3511 22.2528 64.1309C22.1159 63.7382 22.0088 63.4467 21.8779 63.0778C21.7411 62.691 21.634 62.3935 21.4971 62.0305C21.3662 61.6676 21.2472 61.3344 21.1163 60.9773C20.9854 60.6144 20.8783 60.305 20.7415 59.9301C20.6224 59.6028 20.4975 59.2518 20.3666 58.8769C20.194 58.4068 19.9679 57.8416 19.7775 57.3239C19.6526 56.9848 19.599 56.598 19.3551 56.3124C19.0159 56.1517 18.6172 56.3005 18.4744 56.0208C18.4685 56.0089 18.4328 55.9316 18.4328 55.9375C18.2959 55.3484 19.1408 55.2294 19.6109 55.0569C19.9322 54.9379 20.2535 54.8129 20.6165 54.682C21.1461 54.4916 21.6518 54.2893 22.2112 54.093" fill="white"/>
<path d="M84.9382 56.6811C85.3607 56.5264 85.3488 56.1277 85.6939 56.1753C86.0628 56.2229 86.0092 56.6811 85.9081 57.0143C85.6344 57.883 85.2892 58.7458 84.9858 59.6621C84.8549 60.0549 84.7359 60.6142 84.3551 60.5904C83.9088 60.5606 84.1052 60.0549 83.9326 59.7514C83.6827 59.5431 83.3495 59.5193 83.052 59.4122C82.7604 59.3111 82.4689 59.1742 82.1654 59.0731C81.3026 58.7815 80.3803 58.4662 79.4342 58.1508C78.8392 57.9485 78.3275 57.77 77.6313 57.5201C77.5123 57.4784 77.3517 57.3951 77.2089 57.3535C77.0363 57.294 76.7983 57.2226 76.7448 57.2285C76.471 57.2583 76.2866 57.77 75.9891 57.7283C75.9177 57.7224 75.8225 57.651 75.7749 57.6034C75.5785 57.3892 75.6916 57.1512 75.7749 56.8893C76.0843 55.8957 76.3461 55.1757 76.6972 54.2415C76.7388 54.1404 76.7626 54.063 76.7805 53.9023C79.5294 54.7949 82.1892 55.7767 84.9322 56.6751" fill="white"/>
<path d="M25.2827 60.2929C25.1875 60.3286 25.1815 60.1799 25.1577 60.1263C25.0982 59.9835 25.0268 59.7336 24.9495 59.5372C24.9911 59.4123 25.1399 59.3647 25.241 59.2457C25.4315 59.0196 25.5088 58.847 25.4077 58.3234C25.3303 57.9128 25.0744 57.3833 24.8602 56.812C24.7591 56.5383 24.6996 56.2587 24.6103 56.0147C24.5092 55.741 24.4021 55.4673 24.3128 55.3007C24.1046 54.9139 23.7237 54.5391 23.1823 54.67C23.0871 54.3844 22.9562 54.1404 22.8848 53.831C23.575 53.6346 24.1998 53.355 24.9435 53.3252C25.9789 53.2895 26.7821 53.7417 27.2998 54.3368C27.5497 54.6224 27.758 54.9496 27.9305 55.3423C28.1685 55.9136 28.3947 56.5205 28.3114 57.4011C28.2578 57.9069 28.0198 58.3888 27.7639 58.7459C27.5438 59.0493 27.3415 59.2219 27.0083 59.4599C26.9964 59.4718 26.9785 59.5372 26.9666 59.5432C26.9428 59.5551 26.9012 59.5313 26.8833 59.5432C26.8714 59.5551 26.8536 59.6205 26.8417 59.6265C26.3894 59.8288 25.848 60.1382 25.2886 60.2929" fill="white"/>
<path d="M31.9236 50.5527C32.0307 50.5765 32.0604 50.7253 32.0902 50.8026C32.1259 50.9038 32.1378 51.0466 32.1735 51.1418C32.2151 51.243 32.2627 51.3322 32.2984 51.4334C32.6971 52.552 33.185 53.8372 33.6015 55.0035C33.905 55.8544 34.2382 56.7826 34.5655 57.693C34.6845 58.0143 34.7797 58.288 34.9046 58.6153C35.0534 59.0199 35.22 59.5911 35.4937 60.0017C35.6901 60.0255 35.8805 60.0612 36.1244 60.0433C36.2553 60.1683 36.4041 60.2635 36.416 60.4241C36.4457 60.8644 35.7674 61.037 35.3628 61.1798C35.1248 61.2631 34.8987 61.3583 34.6904 61.4297C34.3691 61.5487 34.1311 61.632 33.8514 61.7213C33.3933 61.876 32.9054 62.108 32.3817 62.2687C32.2746 62.2984 32.114 62.3639 32.0426 62.352C31.876 62.3341 31.5963 62.1497 31.5785 61.9295C31.5606 61.638 32.0366 61.4297 32.0842 61.1738C32.108 61.037 32.0307 60.799 31.9593 60.5848C31.7986 60.1028 31.5547 59.5375 31.3702 59.0258C30.8406 57.5561 30.3587 56.253 29.8589 54.825C29.603 54.105 29.3352 53.4148 29.0615 52.7662C28.6926 52.6056 28.3416 52.7662 28.1749 52.558C28.1511 52.5223 28.0976 52.3854 28.0916 52.308C28.0797 52.1533 28.1273 52.0165 28.2166 51.9332C28.3356 51.8142 28.5855 51.7606 28.8057 51.6833C29.4364 51.4512 30.1088 51.2073 30.7811 50.9693C30.9596 50.9038 31.1322 50.8562 31.2869 50.8026C31.3643 50.7729 31.4119 50.7074 31.4952 50.6777C31.6439 50.6241 31.7629 50.6241 31.9176 50.5527" fill="white"/>
<path d="M36.2064 55.0453C36.5872 55.0155 36.9264 54.9144 37.2596 54.9203C37.5928 54.9203 38.0093 55.0096 38.2652 55.1345C38.533 55.2595 38.765 55.5392 38.9792 55.7653C39.0685 55.8605 39.1518 56.158 39.2291 56.3543C39.3005 56.5269 39.3779 56.6935 39.4433 56.8601C39.5088 57.0327 39.5445 57.235 39.6099 57.4075C39.6694 57.5682 39.7289 57.7467 39.8599 57.8716C40.1693 57.8419 40.0443 57.3302 40.324 57.2409C40.5025 57.1814 40.6393 57.2707 40.8297 57.3659C41.151 58.0858 40.7167 58.7999 40.3656 59.258C40.2407 59.4246 40.2228 59.4484 40.0265 59.5972C39.8539 59.7281 39.6992 59.8531 39.3957 59.9721C38.7888 60.2101 38.0153 60.2458 37.4203 59.8888C37.1585 59.7341 36.9383 59.4841 36.7479 59.1747C36.73 59.145 36.73 59.0855 36.7062 59.0498C36.6943 59.0379 36.6289 59.026 36.6229 59.0081C36.5575 58.8772 36.5158 58.6928 36.4563 58.544C36.3909 58.3893 36.3433 58.2346 36.2897 58.0799C36.1231 57.6336 35.9684 57.1398 35.7423 56.7351C35.6055 56.4912 35.54 56.396 35.3199 56.271C35.1473 56.1699 34.9628 56.1461 34.6475 56.1877C34.5939 55.9021 34.469 55.6939 34.3916 55.4321C34.3976 55.2655 34.5939 55.2714 34.6832 55.1762C34.7724 55.0869 34.7903 54.9679 34.8914 54.8846C34.9331 54.5633 34.8617 54.2539 34.7665 53.9624C34.6534 53.6232 34.5285 53.2721 34.3857 52.9151C34.2845 52.6474 34.1596 52.2189 34.0108 51.9036C33.9156 51.7013 33.8204 51.5525 33.63 51.3978C33.4753 51.2729 33.2492 51.1539 32.8743 51.1896C32.7256 50.9278 32.6363 50.6124 32.5352 50.3089C33.4396 50.0709 34.0287 49.6782 35.0521 49.7199C35.421 49.7377 35.8375 49.827 36.1469 49.9698C36.4682 50.1185 36.9205 50.4934 37.1109 50.8087C37.4024 51.2788 37.7892 52.0047 37.6999 52.9092C37.6523 53.3614 37.4441 53.8017 37.1942 54.129C37.1525 54.1885 37.0692 54.2004 37.0276 54.2539C36.9919 54.3015 36.98 54.3789 36.9443 54.4205C36.7181 54.6526 36.4206 54.8132 36.1886 55.0512" fill="white"/>
<path d="M41.7516 46.7267C41.8884 46.9409 41.9479 47.2265 42.0491 47.4823C42.1264 47.6311 41.8944 47.6906 41.8408 47.7798C41.7992 47.8393 41.7873 47.9167 41.7575 47.9881C41.7337 48.0476 41.6802 48.125 41.6742 48.1964C41.6504 48.3927 41.7159 48.5712 41.7992 48.8271C41.9063 49.1662 42.055 49.5411 42.18 49.8743C42.8702 51.7784 43.5485 53.7062 44.2804 55.7115C44.5244 56.3838 44.6791 56.7765 45.4586 56.8063C45.5538 57.0919 45.6728 57.3478 45.7501 57.6453C45.0956 57.7762 44.5839 57.8654 43.8996 57.7702C43.5723 57.7226 43.3403 57.6631 43.0606 57.556C42.7572 57.4489 42.4121 57.2764 42.1383 57.0919C42.0431 57.0324 41.9777 56.9551 41.8884 56.8836C41.8349 56.842 41.7635 56.836 41.7218 56.8003C41.6861 56.7706 41.6742 56.7051 41.6385 56.6754C41.5909 56.6337 41.5136 56.6278 41.4719 56.5921C41.3053 56.4552 41.1328 56.2113 40.9662 56.003C40.7996 55.7948 40.5913 55.5568 40.4187 55.289C39.8356 54.3727 39.2525 52.8673 39.1573 51.5939C39.074 50.4931 39.2465 49.6066 39.6214 48.8211C39.7107 48.6367 39.794 48.4463 39.913 48.2737C39.9784 48.1845 40.0796 48.0833 40.1629 47.9821C40.2759 47.8453 40.3533 47.7025 40.4961 47.5597C40.6448 47.4169 40.8531 47.2741 41.0435 47.1372C41.2637 46.9825 41.5017 46.8635 41.7159 46.7207H41.7575L41.7516 46.7267Z" fill="white"/>
<path d="M46.2862 57.4014C46.2446 57.1218 46.1375 56.9075 46.0363 56.6874C46.0601 56.4732 46.3636 56.3006 46.4112 56.0567C46.5004 55.5985 46.1137 54.7893 45.9471 54.3311C45.3164 52.5699 44.6916 50.8562 44.0133 48.9938C43.9121 48.7201 43.8229 48.4702 43.7217 48.1965C43.5432 47.7383 43.3468 47.3218 42.6745 47.3575C42.5614 47.0897 42.4424 46.8279 42.377 46.5185C43.4063 46.1793 44.7154 46.3757 45.5722 46.816C45.8459 46.9529 46.1137 47.1492 46.3695 47.3634C46.7325 47.6669 47.1133 48.0298 47.4168 48.4523C47.4584 48.5118 47.4644 48.5654 47.5001 48.6189C47.512 48.6368 47.5774 48.6487 47.5834 48.6606C47.625 48.7498 47.6667 48.8629 47.75 48.9521C47.7738 48.9759 47.8273 49.083 47.8749 49.1604C47.9582 49.2972 48.0891 49.5591 48.1665 49.7495C48.5176 50.5646 48.8984 51.6476 48.9698 52.8138C49.065 54.4739 48.3748 55.896 47.4168 56.7231C47.0955 56.9968 46.7265 57.2765 46.2803 57.3955" fill="white"/>
<path d="M54.9867 54.0335C54.7963 54.0989 54.6178 54.1822 54.4393 54.2477C54.0942 54.3727 53.755 54.4917 53.392 54.6226C53.2135 54.688 53.035 54.7237 52.8446 54.7892C52.5947 54.8784 52.2377 55.0629 51.7974 55.2116C51.4285 55.3306 50.9406 55.5032 50.8335 54.9974C50.7918 54.7951 50.8632 54.7237 51.0001 54.5333C51.1191 54.3786 51.2619 54.3548 51.2916 54.1584C51.3154 53.9918 51.2083 53.8133 51.125 53.5694C50.9941 53.2005 50.8811 52.8851 50.7442 52.5221C50.6073 52.1532 50.5002 51.8319 50.3693 51.469C50.2384 51.1119 50.1194 50.7728 49.9885 50.4217C49.9528 50.3206 49.9409 50.2254 49.9052 50.1242C49.8279 49.9279 49.7089 49.6482 49.6137 49.3685C49.5839 49.2793 49.5661 49.1722 49.5304 49.071C49.459 48.8747 49.334 48.5831 49.2388 48.3153C49.0662 47.8393 48.8401 47.2681 48.6497 46.7623C48.5188 46.4113 48.4593 46.0424 48.2273 45.7568C47.7453 45.6973 47.3228 45.7449 47.305 45.2926C47.2871 44.8166 48.0845 44.6679 48.5664 44.4953C49.0543 44.3228 49.5304 44.1324 50.0361 43.9479C50.405 43.811 50.7382 43.7158 51.0417 43.6087C51.0774 43.5968 51.0893 43.5195 51.1667 43.5671C52.4698 47.0242 53.7134 50.5407 54.9867 54.0275" fill="white"/>
<path d="M55.6157 53.8252C55.4253 53.6467 55.4193 53.2897 55.2765 53.0696C55.2706 52.9327 55.4729 52.897 55.5681 52.772C55.8894 52.3853 55.7942 51.8379 55.5681 51.1774C55.3717 50.5943 55.1754 50.1659 54.979 49.6244C54.86 49.2852 54.7291 48.9282 54.5982 48.5712C54.4732 48.2201 54.3483 47.8869 54.2233 47.524C54.0984 47.1729 53.9794 46.8397 53.8425 46.4708C53.6759 46.0067 53.5034 45.4235 53.2534 44.9178C53.2118 44.8345 53.1761 44.7452 53.1285 44.6679C53.1047 44.6262 53.069 44.6203 53.0452 44.5846C52.9738 44.4953 52.9321 44.3823 52.7953 44.293C52.6108 44.174 52.3669 44.0848 52.0396 44.1681C51.9623 43.8646 51.8254 43.6266 51.748 43.3291C52.2062 43.2041 52.6049 43.0554 53.0928 43.0375C54.9909 42.9602 56.3892 44.2395 57.252 45.6437C57.4305 45.9353 57.6328 46.2447 57.7934 46.6076C57.8351 46.6909 57.8351 46.804 57.8768 46.9051C57.9065 46.9825 57.972 47.042 58.0017 47.1134C58.2933 47.8631 58.5015 48.7616 58.4658 49.6363C58.3825 51.7129 57.1925 53.1469 55.6097 53.8371" fill="white"/>
<path d="M75.526 46.7689C75.413 46.5249 75.3773 46.2155 75.2285 46.0132C75.5439 45.68 75.764 45.6205 76.0258 45.2992C76.0556 45.2635 76.0437 45.2039 76.0675 45.1742C76.1151 45.1147 76.2222 45.0195 76.2817 44.9243C76.3115 44.8767 76.3353 44.7755 76.365 44.716C76.371 44.6982 76.4424 44.6446 76.4483 44.6327C76.4602 44.597 76.4364 44.5435 76.4483 44.5078C76.4543 44.4899 76.5257 44.4364 76.5316 44.4245C76.5971 44.2162 76.6744 43.8711 76.6982 43.5855C76.7339 43.1868 76.609 42.6632 76.9957 42.5799C77.5312 42.4609 77.6741 43.1511 77.6265 43.7581C77.5788 44.359 77.2992 44.9719 77.0374 45.436C77.0017 45.5015 76.9898 45.5907 76.9541 45.6443C76.9124 45.7038 76.8291 45.7514 76.7875 45.8109C76.728 45.8823 76.7161 45.9596 76.6625 46.0191C76.4067 46.3107 75.9663 46.7034 75.532 46.7748" fill="white"/>
<path d="M89.895 42.2755C89.895 42.2755 89.9069 42.2398 89.9367 42.2339C90.5793 42.1625 91.0256 42.817 90.5258 43.3228C90.4008 43.4477 90.2342 43.4894 90.02 43.5727C88.937 44.0011 87.6042 44.4831 86.6165 44.8341C85.123 45.3637 83.8675 45.8635 82.374 46.3871C82.1419 46.4704 81.8028 46.6192 81.535 46.7203C81.3505 46.7917 81.1304 46.8215 80.9459 46.8869C80.9043 46.8988 80.8686 46.9524 80.821 46.9703C80.696 47.0179 80.5354 47.0893 80.3985 47.1369C80.2022 47.2142 80.0058 47.2321 79.8094 47.3035C79.7083 47.3392 79.619 47.3868 79.5179 47.4284C79.4346 47.4582 79.3513 47.5236 79.262 47.5534C79.0716 47.6248 78.8634 47.6545 78.673 47.72C78.5837 47.7557 78.5123 47.8152 78.423 47.8449C76.7748 48.4519 75.0374 49.0647 73.3416 49.6895C73.0203 49.8085 72.5978 49.9751 72.211 50.112C71.8897 50.225 71.4554 50.3916 71.0745 50.5344C70.8603 50.6177 70.4974 50.7724 70.2356 50.8736C70.0392 50.945 69.8369 50.9747 69.6465 51.0402C69.6108 51.0521 69.5691 51.1056 69.5215 51.1235C69.4025 51.1711 69.2419 51.2365 69.105 51.2901C68.9087 51.3615 68.7064 51.3853 68.516 51.4567C68.4148 51.4924 68.3256 51.546 68.2185 51.5817C68.0399 51.6471 67.8614 51.7185 67.677 51.7899C67.4747 51.8673 67.2962 51.9268 67.0879 52.0041C66.1061 52.3492 65.0291 52.7717 64.0236 53.1347C61.0187 54.2235 58.0436 55.3481 54.9911 56.4549C52.2422 57.4545 49.5527 58.4898 46.7561 59.4776C46.6549 59.5192 46.6073 59.5668 46.5062 59.6085C46.3217 59.6739 46.1075 59.7037 45.9171 59.7751C45.8159 59.8108 45.7267 59.8643 45.6196 59.9C45.4292 59.9655 45.2685 60.0369 45.0722 60.1083C42.6623 61.0127 40.193 61.8815 37.7237 62.7978C37.6285 62.8275 37.5571 62.893 37.4678 62.9227C37.2774 62.9941 37.0691 63.0179 36.8787 63.0893C36.8371 63.1012 36.8014 63.1548 36.7538 63.1726C36.6883 63.1965 36.6526 63.1905 36.5872 63.2143C36.4979 63.2441 36.4146 63.3095 36.3313 63.3393C36.1528 63.4047 35.9327 63.4404 35.7422 63.5059C35.647 63.5416 35.5518 63.5951 35.4507 63.6308C35.3614 63.6665 35.2841 63.726 35.2008 63.7617C35.0044 63.8331 34.8081 63.8569 34.6117 63.9283C34.5106 63.964 34.4154 64.0176 34.3201 64.0533C34.1297 64.1187 33.9631 64.1901 33.7727 64.2615C31.833 64.9875 29.8515 65.7074 27.8523 66.4453C27.4834 66.5821 27.0966 66.7309 26.7158 66.8618C26.335 66.9986 25.972 67.1414 25.5853 67.2842C25.4781 67.3199 25.3532 67.3259 25.2461 67.3675C25.02 67.4568 24.7403 67.5996 24.4488 67.7067C24.2584 67.7722 24.0501 67.8019 23.8597 67.8733C23.7704 67.9031 23.6931 67.9685 23.6098 67.9983C22.8839 68.266 21.8723 68.6171 21.0452 68.9205C20.8727 68.986 20.355 69.2181 19.9088 69.343C19.5458 69.4382 19.284 69.4918 19.0222 69.2597C18.802 69.0574 18.7842 68.6052 19.0638 68.3374C19.1828 68.2244 19.3732 68.1589 19.5696 68.0875C19.8433 67.9745 20.0992 67.9031 20.4086 67.79C20.6525 67.7067 20.9679 67.558 21.2476 67.4568C21.432 67.3854 21.6343 67.3616 21.8366 67.2902C21.914 67.2604 22.0092 67.195 22.0865 67.1593C25.5853 65.8562 28.4592 64.8268 31.833 63.5892C34.7248 62.5241 37.1167 61.6494 39.9431 60.6022C40.0264 60.5724 40.1097 60.507 40.193 60.4772C40.3775 60.4118 40.5917 60.382 40.7821 60.3106C40.8178 60.2987 40.8594 60.2452 40.907 60.2273C40.9725 60.2035 41.0082 60.2094 41.0736 60.1856C41.151 60.1559 41.2402 60.0904 41.3235 60.0607C41.5139 59.9893 41.7222 59.9595 41.9126 59.8941C42.0019 59.8584 42.0673 59.7989 42.1625 59.7691C42.8646 59.5073 43.6382 59.2455 44.3879 58.9718C44.4712 58.9421 44.5485 58.8766 44.6378 58.8409C44.8282 58.7754 45.0365 58.7457 45.2269 58.6743C45.2626 58.6624 45.3042 58.6088 45.3518 58.591C45.4173 58.5672 45.453 58.5731 45.5184 58.5493C45.6017 58.5196 45.685 58.4541 45.7683 58.4244C45.9587 58.3589 46.167 58.3292 46.3574 58.2578C46.4467 58.2221 46.5121 58.1685 46.6073 58.1328C47.3154 57.871 48.083 57.6152 48.8327 57.3355C48.9338 57.2939 48.9814 57.2462 49.0826 57.2105C49.2671 57.1391 49.4872 57.1094 49.6717 57.0439C49.7133 57.032 49.749 56.9785 49.7966 56.9606C49.8621 56.9368 49.8978 56.9428 49.9632 56.919C50.0584 56.8892 50.1298 56.8238 50.2131 56.794C50.3976 56.7286 50.6118 56.6988 50.8022 56.6274C50.8855 56.5977 50.9748 56.5322 51.0521 56.5025C51.7542 56.2407 52.5218 55.9729 53.2775 55.7051C53.3727 55.6694 53.4322 55.6159 53.5334 55.5802C53.7178 55.5147 53.932 55.479 54.1224 55.4136C54.2236 55.3779 54.3188 55.3243 54.414 55.2886C54.5092 55.2529 54.5806 55.1934 54.6698 55.1637C54.8543 55.0923 55.0626 55.0685 55.2589 54.9971C55.3422 54.9673 55.4315 54.9019 55.5088 54.8721C56.687 54.4378 57.9544 53.9736 59.1622 53.5274C59.43 53.4262 59.6978 53.3489 60.0012 53.2299C60.0845 53.2001 60.1619 53.1406 60.2511 53.1049C60.4356 53.0395 60.6498 53.0038 60.8402 52.9383C61.9469 52.5277 63.0299 52.0934 64.1604 51.6769C64.3449 51.6114 64.5591 51.5757 64.7495 51.5103C64.8387 51.4746 64.9101 51.4151 64.9994 51.3853C65.9812 51.0164 67.0403 50.6296 68.0637 50.2548C68.3434 50.1477 68.5874 50.0763 68.9027 49.9573C68.986 49.9275 69.0753 49.862 69.1526 49.8323C69.3549 49.7549 69.5513 49.7311 69.7417 49.6657C69.825 49.6359 69.9024 49.5764 69.9916 49.5407C70.2534 49.4455 70.5509 49.3444 70.8306 49.2432C71.3959 49.0469 71.9195 48.8267 72.5085 48.6125C72.7823 48.5114 73.0381 48.434 73.3475 48.3209C73.4308 48.2912 73.5082 48.2257 73.6034 48.196C73.7819 48.1305 73.9961 48.1008 74.1925 48.0294C74.9243 47.7616 75.6681 47.4641 76.4178 47.1904C80.0177 45.8873 83.5997 44.5723 87.2948 43.1978C87.3781 43.1681 87.4674 43.1026 87.5447 43.0729C87.7292 43.0074 87.9374 42.9777 88.1338 42.9063C88.223 42.8765 88.2944 42.817 88.3837 42.7813C88.6455 42.6861 88.937 42.5909 89.2227 42.4898C89.4488 42.4064 89.6035 42.3112 89.8534 42.2755" fill="white"/>
<path d="M34.9047 42.0198C34.7857 42.8528 34.5834 43.6085 34.4882 44.4594C30.9062 44.8283 26.9314 45.2983 23.2304 45.6791C22.9388 45.7089 22.5461 45.6613 22.3498 45.8041C22.1237 45.9648 22.0463 46.411 21.5524 46.3515C21.0169 46.2861 21.1002 45.5899 21.2192 44.9651C21.2668 44.7033 21.3382 44.4296 21.3858 44.1678C21.5405 43.3229 21.6417 42.6445 21.8023 41.7758C21.8976 41.276 21.9987 40.5917 22.2665 40.3894C22.3438 40.3299 22.6294 40.2585 22.8139 40.3478C22.921 40.4013 23.0281 40.6274 23.1054 40.7702C23.159 40.8714 23.1411 40.9428 23.1887 41.0201C23.3792 41.3296 23.8076 41.282 24.4085 41.2284C26.2531 41.0737 27.8359 40.8833 29.6566 40.7226C30.2814 40.6691 30.8824 40.6274 31.5488 40.556C31.638 40.5441 31.7035 40.5084 31.763 40.5144C32.001 40.5441 32.3342 40.7821 32.5603 40.8952C33.3576 41.2879 34.0895 41.5616 34.9106 42.0257" fill="white"/>
<path d="M65.4812 49.5C65.5646 49.7856 65.6538 50.0593 65.7788 50.2973C65.6598 50.452 65.4455 50.4461 65.273 50.5056C64.7613 50.6841 64.1365 50.9161 63.4225 50.8864C62.8334 50.8566 61.9647 50.6722 61.5303 50.4223C61.4827 50.3925 61.4292 50.3033 61.3637 50.2557C61.2269 50.1545 61.1793 50.1367 61.0721 50.0058C61.0245 49.9463 60.9948 49.8868 60.9472 49.7975C60.7092 49.3929 60.5009 48.7086 60.3165 48.2029C60.138 47.709 59.9654 47.1913 59.7691 46.6498C59.7393 46.5665 59.7155 46.4713 59.6857 46.3999C59.6084 46.2036 59.4953 45.9299 59.3882 45.6443C59.0848 44.8053 58.7992 44.0496 58.466 43.1273C58.3351 42.7644 58.1982 42.2884 58.0494 42.205C57.7817 42.0563 57.2581 42.2646 57.2105 41.9551C56.9784 41.4137 57.4901 41.259 57.8828 41.1162C58.8468 40.7532 59.8226 40.42 60.8222 40.063C61.0186 39.9916 61.2209 39.8607 61.3697 39.8547C61.8516 39.8309 62.048 40.1641 61.8754 40.4854C61.8516 40.533 61.8635 40.5806 61.8338 40.6104C61.81 40.6342 61.7267 40.6282 61.7088 40.652C61.6017 40.777 61.4827 40.8722 61.4589 41.0269C61.4411 41.14 61.5006 41.3304 61.5839 41.5743C61.7386 42.0384 61.9468 42.5383 62.1313 43.044C62.7382 44.716 63.3035 46.2393 63.8925 47.9172C64.0591 48.3814 64.196 48.8574 64.5233 49.1787C64.7315 49.375 65.0766 49.5535 65.4872 49.5178" fill="white"/>
<path d="M66.3276 50.0888C66.2681 49.8091 66.1431 49.6009 66.0777 49.3331C65.9765 49.2201 66.161 49.2082 66.2026 49.1665C66.2621 49.107 66.3097 49.0118 66.3692 48.9583C66.5715 48.756 66.7143 48.6251 66.875 48.3275C67.0178 48.0598 67.1547 47.673 67.1249 47.1494C67.0952 46.5663 66.8631 46.0665 66.6608 45.5131C66.3276 44.5908 65.9111 43.4365 65.5719 42.4904C65.3696 41.937 65.2327 41.4134 65.0245 40.9791C64.8698 40.6518 64.489 40.1044 64.1855 39.9675C63.8226 39.8009 63.3168 39.9675 63.3049 39.4617C63.293 39.0631 63.8226 38.9381 64.3581 38.7477C64.6972 38.6287 64.9471 38.5514 65.322 38.4145C65.4291 38.3729 65.5362 38.2955 65.6136 38.2896C65.9825 38.2479 66.1907 38.3491 66.2443 38.5395C66.3335 38.8727 66.1074 38.9084 65.9944 39.0869C65.9527 39.1523 65.917 39.2475 65.8694 39.3368C65.6136 39.8426 65.798 40.6339 65.9944 41.1873C66.1431 41.5979 66.3038 42.0203 66.4525 42.4487C66.5477 42.7165 66.6489 42.9783 66.7501 43.2461C66.8036 43.3889 66.8274 43.5317 66.875 43.6685C66.9702 43.9303 67.113 44.1981 67.2082 44.4659C67.2856 44.6741 67.3332 44.8764 67.4165 45.0966C67.476 45.2572 67.5414 45.4953 67.6247 45.7273C67.7973 46.2152 68.0174 46.8578 67.9639 47.6611C67.952 47.8039 67.9163 47.9705 67.8806 48.1252C67.8032 48.4763 67.714 48.7619 67.5414 49.0475C67.3034 49.4581 66.8691 49.9282 66.3216 50.1007" fill="white"/>
<path d="M70.9438 36.0997C71.1342 36.2782 71.1402 36.6352 71.283 36.8554C71.3008 36.9803 71.1402 37.0101 71.0747 37.1053C70.9854 37.2421 70.8129 37.4385 70.7772 37.6944C70.7474 37.9681 70.8486 38.3965 70.9438 38.6583C70.9735 38.7297 71.045 38.7951 71.0688 38.8665C71.1342 39.057 71.1699 39.2712 71.2354 39.4556C71.9196 41.3061 72.598 43.1388 73.2941 45.0845C73.306 45.1202 73.3179 45.1619 73.3358 45.2095C73.4012 45.3642 73.5381 45.5962 73.6749 45.7569C73.907 46.0246 74.1629 46.2091 74.6865 46.1793C74.7281 46.5007 74.9007 46.6911 74.9364 47.0183C74.3414 47.1909 73.7761 47.3396 72.9669 47.2682C71.7411 47.1671 70.6344 46.3697 69.9799 45.5427C69.9561 45.5129 69.9204 45.4891 69.8966 45.4594C69.8728 45.4296 69.8847 45.3701 69.8549 45.3344C69.8311 45.2987 69.7538 45.2868 69.73 45.2511C69.7002 45.2095 69.7121 45.1619 69.6883 45.1262C69.6705 45.0964 69.6229 45.0667 69.605 45.0429C69.3789 44.6858 69.1171 44.1979 68.9326 43.7398C68.8374 43.5137 68.7303 43.2578 68.6411 42.9841C68.171 41.5382 68.052 39.89 68.5994 38.4857C68.6173 38.4441 68.6708 38.3905 68.6827 38.3608C68.8315 38.0216 68.9445 37.7955 69.1468 37.5218C69.3789 37.2064 69.6883 36.8911 70.0275 36.6412C70.0632 36.6114 70.1405 36.4984 70.1941 36.4746C70.4142 36.3734 70.6939 36.2187 70.9497 36.0938" fill="white"/>
<path d="M30.5777 39.9614C30.066 39.9733 29.703 40.0566 29.1913 40.0864C28.7153 40.1161 28.5249 40.015 28.1381 39.8364C28.0965 39.8186 28.0608 39.771 28.0132 39.7531C27.5491 39.5508 26.9481 39.2533 26.5018 39.0391C26.0972 38.8487 25.6033 38.5988 25.1154 38.3667C24.7941 38.212 24.1693 38.0335 23.8123 38.2834C23.7945 38.2953 23.7885 38.3608 23.7707 38.3667C23.6874 38.4084 23.6814 38.4203 23.6041 38.5334C23.4315 38.7833 23.2649 39.1879 22.8068 39.0391C22.4616 38.932 22.4557 38.7059 22.5092 38.1585C22.5747 37.5516 22.7056 36.9446 22.8068 36.3913C22.8841 35.945 22.9198 35.594 23.1459 35.3381C23.2114 35.2667 23.2292 35.225 23.2709 35.2131C24.0265 34.993 23.9432 35.9153 24.1515 36.3496C24.4014 36.8554 24.9667 37.1946 25.5379 37.4861C25.8116 37.623 26.0913 37.7717 26.3769 37.9086C26.6625 38.0454 26.9778 38.1525 27.2575 38.2834C27.8704 38.581 28.4059 38.8725 28.9355 39.1224C29.2151 39.2533 29.4888 39.408 29.7744 39.5389C29.9172 39.6044 30.0898 39.6341 30.2386 39.7055C30.2921 39.7353 30.3576 39.8007 30.4052 39.8305C30.4706 39.8662 30.6075 39.8424 30.5718 39.9555" fill="white"/>
<path d="M71.9134 36.7301C71.7646 36.4862 71.6813 36.1768 71.5742 35.8912C72.1573 35.6591 73.2879 35.9804 73.7996 35.6829C73.9186 35.308 73.8829 34.7606 74.472 34.9272C74.71 34.9927 74.8587 35.5639 74.9777 35.8912C75.1741 36.4386 75.3585 36.9324 75.5668 37.4858C75.6263 37.6465 75.662 37.8309 75.7334 38.0332C75.8108 38.2415 76.025 38.5331 75.9893 38.8722C75.9714 39.0388 75.8227 39.2173 75.6501 39.2471C75.1979 39.3304 75.0372 38.8901 74.8528 38.6164C74.6386 38.3069 74.3946 38.0035 74.2221 37.819C73.7877 37.349 73.032 36.8372 72.4548 36.7301C72.3418 36.7063 72.0859 36.6766 71.9074 36.7301" fill="white"/>
<path d="M77.294 34.0411C77.4427 34.0828 77.4546 34.291 77.5022 34.416C77.5617 34.5588 77.5974 34.6897 77.6688 34.7968C77.5379 35.0764 77.3773 35.3621 77.3356 35.7191C77.2523 36.4688 77.5141 37.2899 77.5022 38.0277C77.3535 38.1467 77.2047 38.3015 76.9964 38.2777C76.7049 38.2479 76.5799 37.879 76.449 37.522C76.1218 36.6413 75.7112 35.4275 75.4375 34.7075C76.0504 34.4814 76.6751 34.2613 77.288 34.0352" fill="white"/>
<path d="M84.6828 42.0681C85.1469 42.1335 85.5515 42.08 85.6051 42.4906C85.6467 42.7881 85.492 42.9011 85.2243 43.038C84.8851 43.2105 84.3377 43.3474 83.9212 43.5021C83.6653 43.5914 83.4749 43.6866 83.2905 43.752C82.8144 43.9246 82.4634 44.0436 81.9874 44.2161C81.8089 44.2816 81.5471 44.4363 81.315 44.4244C81.0651 44.4125 80.839 44.2994 80.8152 44.0436C80.7973 43.871 80.9044 43.7342 81.0234 43.5794C81.0413 43.5556 81.1305 43.5556 81.1484 43.5378C81.3626 43.3712 81.315 43.0558 81.19 42.7405C80.3927 40.7115 79.637 38.4623 78.8814 36.4392C78.804 36.2369 78.7445 36.0643 78.6672 35.8501C78.6017 35.6597 78.5303 35.4634 78.4589 35.2611C78.3934 35.0588 78.3339 34.9041 78.2506 34.672C78.1673 34.4399 78.0067 34.1186 77.9531 33.7914C79.0182 33.3987 80.1071 33.0357 81.1424 32.6132C81.1781 32.6073 81.1841 32.6311 81.1841 32.6549C82.035 35.0112 82.9275 37.3853 83.7903 39.7535C84.0699 40.5329 84.2901 41.3362 84.6709 42.0622" fill="white"/>
<path d="M27.7217 27.4065C27.7217 27.5791 27.6265 27.8409 27.68 28.1206C27.7812 28.6739 28.638 29.1143 29.1081 29.4653C29.1973 29.5308 29.2806 29.6141 29.358 29.6736C29.4115 29.7093 29.471 29.7152 29.5246 29.7569C29.6019 29.8164 29.6614 29.8878 29.7745 29.9651C30.0423 30.1436 30.3933 30.4114 30.6968 30.6375C30.8336 30.7327 30.9586 30.822 31.1192 30.9291C31.1311 30.941 31.149 31.0064 31.1609 31.0124C31.3394 31.0957 31.5655 31.292 31.75 31.4348C32.2141 31.7799 32.6425 32.0715 33.0947 32.3988C33.1483 32.4345 33.2078 32.4404 33.2613 32.4821C33.3387 32.5416 33.3982 32.613 33.5112 32.6963C33.8563 32.9402 34.2847 33.2853 34.6894 33.5769C34.737 33.6126 34.8084 33.6305 34.856 33.6602C34.8738 33.6721 34.8798 33.7376 34.8976 33.7435C35.2368 33.8923 35.6652 34.404 36.1591 34.4159C36.4685 34.4218 36.6946 34.279 36.9207 34.1243C37.2241 34.2969 37.4741 34.523 37.7597 34.7134C37.2718 35.2787 36.7422 35.7428 36.0817 36.0998C35.4153 36.4627 34.5763 36.7246 33.6421 36.7305C31.6191 36.7365 29.7983 35.6892 28.6023 34.6717C28.2036 34.3266 27.8585 33.9518 27.5134 33.5353C27.442 33.4519 27.3587 33.3984 27.3052 33.327C27.1743 33.1544 27.0791 32.964 26.966 32.7796C26.7458 32.4285 26.5495 32.0656 26.3769 31.6014C26.1389 30.9529 25.9723 30.2924 26.0378 29.3761C26.1092 28.3526 26.4662 27.6505 26.8767 26.8115H27.0017C27.1921 27.0555 27.5313 27.1507 27.7157 27.4006" fill="white"/>
<path d="M38.2656 34.0823C38.1347 34.1299 37.986 33.9335 37.8491 33.8324C37.7063 33.7253 37.504 33.6479 37.4267 33.4932C37.5457 32.9696 37.4386 32.5471 37.1292 32.2318C36.9923 32.089 36.7721 31.9938 36.5817 31.851C36.4925 31.7855 36.4211 31.7082 36.3259 31.6427C36.2842 31.613 36.2069 31.6011 36.1593 31.5594C36.0819 31.4999 36.0284 31.4285 35.9094 31.3511C35.8618 31.3214 35.7963 31.2083 35.7428 31.1845C35.719 31.1726 35.6773 31.1964 35.6595 31.1845C35.6416 31.1726 35.6357 31.1072 35.6178 31.1012C35.4393 31.0179 35.2191 30.8156 35.0287 30.6788C34.4397 30.2444 33.7732 29.7684 33.1782 29.334C33.1306 29.2924 33.0652 29.2924 33.0116 29.2507C32.9343 29.1912 32.8807 29.1258 32.7617 29.0365C32.3214 28.7331 31.7978 28.3284 31.3337 27.9893C31.0361 27.7691 30.6672 27.5192 30.2805 27.2336C29.9235 26.9658 29.5188 26.5731 29.1916 26.5196C28.8405 26.4601 28.4478 26.5731 28.2277 26.7695C27.9123 26.6088 27.6683 26.3768 27.3887 26.1804C27.9718 25.4961 28.6501 24.9487 29.5307 24.5858C29.62 24.5501 29.6914 24.4906 29.7807 24.4608C29.8699 24.4311 29.977 24.4489 30.0782 24.4192C30.2864 24.3597 30.4471 24.2823 30.6672 24.2526C31.4348 24.1336 32.2678 24.1871 33.0592 24.3775C33.4579 24.4727 33.8744 24.6512 34.2374 24.794C35.0882 25.1272 35.8677 25.6925 36.546 26.2637C37.2244 26.8349 37.7718 27.4597 38.2299 28.1975C38.706 28.9651 39.057 29.8576 39.1106 30.887C39.176 32.0711 38.7655 33.1303 38.2716 34.0823" fill="white"/>
<path d="M57.9248 24.0025C57.9784 25.2401 57.788 26.5789 57.7582 27.8701C56.467 27.7511 55.0806 27.7154 53.7656 27.6202C53.8311 27.3227 53.7656 26.8943 53.8489 26.6146C54.5332 26.5373 54.914 26.4123 55.4019 26.1089C55.4971 26.0494 55.5745 25.9958 55.6994 25.9006C55.8541 25.7816 56.116 25.5912 56.2469 25.4365C56.2766 25.4008 56.2647 25.3413 56.2885 25.3115C56.3242 25.2639 56.4075 25.2223 56.4551 25.1449C56.5444 24.9962 56.6455 24.7998 56.7467 24.5975C56.9014 24.3 57.0858 23.8716 57.2941 23.8002C57.5143 23.7228 57.7582 23.8359 57.9248 24.0084" fill="white"/>
<path d="M63.5957 31.5244C63.6314 31.3399 63.7504 31.1912 63.8456 31.0602C63.9408 30.9293 64.0658 30.7925 64.1848 30.6794C64.3811 30.7449 64.6429 30.8401 64.9404 30.8044C65.5295 30.7389 66.0234 30.019 66.3685 29.5429C66.9516 28.7456 67.6716 27.7579 68.2607 26.9784C68.7962 26.2584 69.2305 25.6396 69.772 24.9196C69.8375 24.8363 69.9148 24.759 69.9803 24.6697C70.016 24.6221 70.0338 24.5507 70.0636 24.5031C70.0755 24.4853 70.1409 24.4734 70.1469 24.4615C70.2004 24.3425 70.3373 24.1461 70.4444 23.9974C70.4503 23.9855 70.5217 23.9676 70.5277 23.9557C70.6883 23.5987 71.0811 23.1941 71.0335 22.611C71.0037 22.2837 70.8609 22.1171 70.6526 21.8969C70.8609 21.6232 71.0275 21.3198 71.2834 21.0996C71.5749 21.2841 71.8962 21.5994 72.164 21.8969C72.2889 22.0338 72.4318 22.1706 72.5389 22.3135C72.5924 22.3849 72.6222 22.4979 72.6638 22.5634C72.7114 22.6467 72.7947 22.7062 72.8304 22.7776C73.1815 23.4261 73.4552 24.2532 73.4611 25.2112C73.4611 26.0323 73.2648 26.8951 72.997 27.5675C72.9494 27.6805 72.8423 27.8531 72.7888 27.9899C72.6936 28.2042 72.64 28.4243 72.5329 28.6207C72.4437 28.7932 72.3008 28.9479 72.1997 29.1264C72.1699 29.174 72.1937 29.174 72.158 29.2097C72.1223 29.2454 72.1045 29.299 72.0747 29.3347C72.0331 29.3823 71.9736 29.5786 71.9081 29.6739C71.8605 29.7512 71.7594 29.8107 71.6999 29.8821C71.6701 29.9178 71.688 29.9357 71.6582 29.9654C71.6404 29.9833 71.5749 30.0785 71.5333 30.132C70.4741 31.4708 68.9628 32.4109 67.1242 32.524C66.4161 32.5656 65.6842 32.4585 65.1071 32.2741C64.5418 32.0956 64.0896 31.7802 63.5957 31.5184" fill="white"/>
<path d="M36.0403 23.6633C35.8618 23.8657 35.725 24.068 35.4096 24.0382C35.0764 24.0085 34.8919 23.5741 34.6956 23.1992C34.1898 22.2234 33.5472 21.0215 33.1426 20.1765C33.8983 19.8255 34.6123 19.4268 35.3263 19.04C35.5405 19.2899 35.6357 19.6589 35.8321 19.9207C35.606 20.3193 35.5286 20.843 35.5822 21.5153C35.6417 22.2829 36.0463 22.9315 36.0403 23.6574" fill="white"/>
<path d="M56.3308 18.5409C56.545 18.767 56.5153 19.1181 56.4974 19.4632C56.4558 20.3557 56.3249 21.641 56.2892 22.5275C56.2654 23.0392 56.3308 23.664 55.9083 23.7473C55.1884 23.8901 55.2538 22.825 55.0277 22.3609C54.9801 22.2657 54.9028 22.1527 54.8195 22.0694C54.8195 22.0634 54.7778 22.0277 54.7778 22.0277C54.7659 22.0039 54.754 21.9266 54.7362 21.9028C54.7005 21.8671 54.6112 21.8433 54.5696 21.8195C54.4327 21.7243 54.3553 21.635 54.1471 21.5219C54.1173 21.1292 54.2006 20.8496 54.1887 20.4688C54.5041 20.3914 54.6707 20.3022 54.8611 20.1355C55.1646 19.8618 55.3014 19.5346 55.4502 19.124C55.5811 18.767 55.7417 18.3326 56.3308 18.5349" fill="white"/>
<path d="M70.6103 20.6825C68.0576 24.1218 65.5109 27.5669 62.9642 31.018C62.6429 30.7503 62.274 30.5301 61.917 30.2624C61.6969 30.0958 61.4945 29.9292 61.2446 29.7566C61.2089 29.7269 61.1554 29.7031 61.1197 29.6733C60.7389 29.3877 60.2867 29.0307 59.8582 28.7094C59.5131 28.4476 58.6206 27.9894 59.1026 27.4479C59.1502 27.3944 59.2989 27.2932 59.3584 27.2813C59.6262 27.2218 59.9058 27.4777 60.1974 27.4063C60.3105 27.3765 60.3819 27.3468 60.489 27.2397C60.5247 27.198 60.5247 27.1326 60.5723 27.0731C60.6318 27.0017 60.7032 26.9362 60.7805 26.8232C61.1494 26.2876 61.6731 25.6272 62.042 25.1452C62.0777 25.0976 62.0836 25.0262 62.1253 24.9786C62.1848 24.9012 62.2562 24.8417 62.3395 24.7287C62.3871 24.6573 62.4347 24.574 62.5061 24.4788C62.518 24.4669 62.5834 24.449 62.5894 24.4371C62.6667 24.2586 62.8631 24.0444 63.0119 23.8481C63.0416 23.8064 63.0595 23.7231 63.0952 23.6814C63.1368 23.6279 63.2499 23.5505 63.3034 23.4672C63.3332 23.4256 63.3153 23.4196 63.3451 23.3839C63.4641 23.259 63.6247 22.9853 63.7616 22.7949C63.8627 22.658 63.9401 22.539 64.0531 22.3724C64.065 22.3546 64.1305 22.3427 64.1364 22.3308C64.2138 22.1582 64.4161 21.9321 64.553 21.7417C64.9219 21.2419 65.2551 20.7659 65.6894 20.1887C65.9096 19.8912 66.3975 19.3438 66.4035 19.0938C66.4035 18.832 66.0227 18.5345 66.0286 18.2549C66.0286 18.0942 66.219 17.7431 66.4451 17.7491C66.6534 17.7491 66.8378 17.8086 66.9925 17.9157C67.0044 17.9276 67.0223 17.9931 67.0342 17.999C67.29 18.118 67.6173 18.3977 67.8732 18.5881C68.5931 19.1236 69.4083 19.7365 70.1402 20.266C70.3068 20.385 70.5329 20.4802 70.5984 20.6885" fill="white"/>
<path d="M39.7777 16.7316C39.8134 16.7257 39.8194 16.7495 39.8194 16.7733C40.9142 18.8499 42.0269 21.0753 43.1813 23.2411C43.4074 23.6577 43.6216 24.092 43.8536 24.5442C43.9607 24.7584 44.0619 24.9786 44.1868 25.2166C44.2106 25.2583 44.2939 25.3059 44.3118 25.3416C44.4487 25.5736 44.5379 25.9009 44.6926 26.1805C44.7164 26.2281 44.7938 26.2579 44.8176 26.3055C44.9425 26.5435 45.0913 26.9422 45.2817 27.0195C45.6149 27.1504 46.0076 26.8291 46.2873 27.1028C46.436 27.2456 46.4658 27.5967 46.3289 27.8169C46.2575 27.9299 46.1088 27.9537 45.9898 28.0251C45.3233 28.4595 44.4308 28.8522 43.7644 29.2033C43.4193 29.3818 42.8421 29.709 42.2947 30.0006C42.2471 30.0244 42.1638 30.0422 42.0864 30.0839C41.8663 30.2088 41.4081 30.542 41.0332 30.2921C40.938 30.2267 40.8309 30.0422 40.825 29.953C40.7774 29.5186 41.295 29.4294 41.3307 29.0247C41.3605 28.7332 41.0273 28.2691 40.8726 27.9775C40.2359 26.7815 39.6587 25.645 39.0221 24.449C38.915 24.2408 38.79 24.0147 38.6889 23.8183C37.7963 22.0452 36.8621 20.3434 36.041 18.6535C37.3144 18.0407 38.5282 17.3623 39.7837 16.7197" fill="white"/>
<path d="M40.9127 17.2794C40.8056 16.9403 40.5616 16.738 40.4902 16.3571C41.2102 15.9882 41.9361 15.6193 42.6323 15.2207C42.668 15.2147 42.674 15.2385 42.674 15.2623C42.9953 15.8157 43.3047 16.4166 43.6795 17.1545C43.8759 17.5472 44.0961 18.0113 44.3519 18.4576C44.4233 18.5766 44.6256 18.9038 44.6078 19.0883C44.5721 19.3739 44.221 19.6 43.9771 19.5881C43.6795 19.5821 43.4475 19.2489 43.2214 18.9574C43.1202 18.8265 43.025 18.6956 42.9298 18.5766C42.8763 18.5111 42.8168 18.4695 42.7632 18.41C42.7097 18.3445 42.6859 18.2493 42.6383 18.2017C42.4955 18.0648 42.2812 17.9161 42.0908 17.7792C41.6922 17.4936 41.5018 17.3687 40.9127 17.2735" fill="white"/>
<path d="M58.3897 14.9708C58.2767 16.1727 58.2826 17.4996 58.1339 18.6659C57.9613 18.8027 57.6757 18.9039 57.4615 18.8325C57.2116 18.7492 57.1521 18.2494 57.039 17.9518C56.9498 17.7079 56.8308 17.4996 56.6999 17.2795C56.6582 17.2081 56.6463 17.1129 56.6166 17.0712C56.5452 16.9701 56.3905 16.857 56.2774 16.7321C56.2477 16.7023 56.2655 16.6309 56.2358 16.6071C56.206 16.5773 56.1406 16.5952 56.1108 16.5654C55.9799 16.4405 55.8074 16.256 55.605 16.143C55.5277 16.1013 55.4325 16.0954 55.3551 16.0597C55.1052 15.9347 54.9446 15.8514 54.4745 15.7205C54.4448 15.3397 54.5102 15.0541 54.5162 14.709C55.7955 14.7982 57.1402 14.828 58.3838 14.9589" fill="white"/>
<path d="M53.7662 14.6792C53.5104 18.9693 53.2783 23.2951 53.0106 27.5733C51.7729 27.484 50.1961 27.4483 48.7681 27.3234C48.3397 27.2817 47.8398 27.2877 47.8398 26.776C47.8398 26.5558 48.0183 26.3297 48.3873 26.2286C48.5182 26.1929 48.7205 26.1572 48.8097 26.0203C48.9228 25.8358 48.9109 25.1456 48.9347 24.7589C49.0775 22.5513 49.1846 20.5521 49.3095 18.3326C49.3393 17.7971 49.369 17.0474 49.3928 16.3572C49.3988 16.0894 49.4523 15.9228 49.3928 15.7681C49.3333 15.6253 49.2857 15.6253 49.1786 15.5598C48.9823 15.4349 48.5479 15.3397 48.5063 15.0124C48.4706 14.7268 48.6907 14.4829 48.9704 14.4234C49.3095 14.346 49.7737 14.4353 50.1902 14.465C51.285 14.5424 52.7071 14.6078 53.7603 14.6792" fill="white"/>
<path d="M81.0717 30.1735C81.7619 29.9415 82.6545 29.5666 83.422 29.2929C83.4815 29.2751 83.5708 29.2751 83.6363 29.2513C83.8088 29.1858 84.0587 29.0966 84.3086 29.0013C84.3503 28.9835 84.4038 28.9299 84.4336 28.918C84.6537 28.8347 84.8918 28.799 85.1476 28.7098C85.219 28.686 85.2607 28.6443 85.3142 28.6265C85.4749 28.5729 85.6296 28.5194 85.8616 28.5848C86.2603 28.6979 86.5102 29.2037 86.1115 29.638C85.9866 29.7689 85.82 29.8046 85.6117 29.8879C84.5169 30.3342 83.2078 30.7805 82.2082 31.1494C79.7329 32.0597 77.7991 32.7857 75.4012 33.6723C75.0204 33.8091 74.6514 33.9519 74.2647 34.0947C73.8898 34.2316 73.5031 34.3744 73.1342 34.5112C71.6168 35.0765 70.0757 35.5882 68.5941 36.1535C65.6726 37.2602 62.7808 38.2896 59.8176 39.3845C59.5915 39.4678 59.2523 39.6225 58.9786 39.7236C58.7942 39.7891 58.574 39.8188 58.3895 39.8902C58.3479 39.9021 58.3122 39.9557 58.2646 39.9735C58.1456 40.0211 57.9849 40.0925 57.8421 40.1401C57.6577 40.2115 57.4435 40.2353 57.2531 40.3067C57.2114 40.3186 57.1757 40.3722 57.1281 40.39C57.0091 40.4376 56.8484 40.5031 56.7056 40.5566C56.5093 40.628 56.3129 40.6518 56.1166 40.7232C56.0749 40.7351 56.0392 40.7887 55.9916 40.8065C55.9262 40.8303 55.8905 40.8244 55.825 40.8482C55.7358 40.878 55.6584 40.9434 55.5692 40.9732C55.3728 41.0446 55.1764 41.0684 54.9801 41.1398C54.8849 41.1755 54.7778 41.235 54.6885 41.2647C54.4862 41.3361 54.3434 41.4016 54.1411 41.473C53.9566 41.5444 53.7603 41.6098 53.552 41.6872C52.5643 42.0323 51.5052 42.4488 50.4877 42.8177C48.7621 43.4484 47.0782 44.0792 45.3646 44.7099C45.0075 44.8408 44.6208 44.9895 44.2281 45.1323C43.7818 45.293 43.2879 45.4537 42.8 45.6381C42.4787 45.7571 42.0503 45.9237 41.6635 46.0606C41.4315 46.1439 41.1042 46.2926 40.8246 46.3997C40.6401 46.4652 40.4259 46.5009 40.2355 46.5663C40.1938 46.5782 40.1581 46.6318 40.1105 46.6496C39.9915 46.6973 39.8309 46.7627 39.6881 46.8163C39.5036 46.8817 39.2894 46.9115 39.099 46.9829C39.0573 46.9948 39.0216 47.0483 38.974 47.0662C38.9086 47.09 38.8729 47.084 38.8074 47.1078C38.7182 47.1376 38.6408 47.203 38.5575 47.2328C38.3671 47.3042 38.1648 47.328 37.9685 47.3994C37.8673 47.4351 37.7899 47.4827 37.6769 47.5243C37.5936 47.5541 37.5103 47.6195 37.427 47.6493C37.2306 47.7207 37.0283 47.7504 36.8379 47.8159C35.3444 48.3633 33.8569 48.9524 32.3455 49.4938C30.8639 50.0234 29.3466 50.6065 27.8115 51.1777C26.312 51.7311 24.759 52.2666 23.2774 52.8141C20.8557 53.7066 18.4339 54.6229 15.8813 55.5452C15.7088 55.6106 15.5064 55.7237 15.3339 55.7535C14.959 55.8189 14.4533 55.6702 14.4116 55.2477C14.3581 54.6943 14.9471 54.498 15.4231 54.3254C16.7322 53.8434 18.4875 53.2008 19.6656 52.7724C18.6422 49 18.2138 44.6742 18.7434 40.2115C18.9457 38.4979 19.2967 36.8854 19.7073 35.38C20.1059 33.9222 20.6355 32.4227 21.2186 31.0958C21.6173 30.1795 22.0695 29.2513 22.5634 28.3647C22.7478 28.0315 22.9739 27.6388 23.1941 27.2758C24.2116 25.6216 25.3421 24.021 26.5976 22.5692C26.7761 22.3609 27.0022 22.1824 27.1867 21.9801C27.2164 21.9504 27.1986 21.8849 27.2283 21.8552C27.4366 21.629 27.7817 21.3553 28.0257 21.0995C28.0554 21.0697 28.0376 21.0043 28.0673 20.9745C28.1149 20.921 28.2458 20.8793 28.3232 20.8079C28.5136 20.6235 28.6742 20.4033 28.8706 20.2188C29.0729 20.0284 29.299 19.8559 29.5013 19.6714C29.7988 19.3977 30.0963 19.1478 30.4236 18.8741C30.5129 18.8027 30.5724 18.7372 30.6795 18.6658C30.7806 18.6004 30.9294 18.4278 31.0543 18.3267C31.1614 18.2434 31.2804 18.2017 31.3935 18.1184C31.4292 18.0946 31.4351 18.0589 31.4768 18.0351C31.5303 17.9994 31.566 17.9578 31.6434 17.9102C31.685 17.8864 31.7386 17.8269 31.81 17.7852C31.8516 17.7614 31.9052 17.7019 31.9766 17.6603C32.0718 17.6008 32.2682 17.458 32.3991 17.3628C32.5062 17.2854 32.5835 17.1842 32.6906 17.1128C32.7501 17.0712 32.8394 17.0652 32.8989 17.0295C32.9405 17.0057 32.9941 16.9522 33.0655 16.9046C33.1845 16.8272 33.2856 16.732 33.4047 16.6547C33.4344 16.6309 33.4939 16.6368 33.5296 16.613C33.5475 16.6011 33.5534 16.5416 33.5713 16.5297C33.6308 16.494 33.726 16.4821 33.7795 16.4464C33.839 16.4107 33.8866 16.3631 33.9461 16.3215C34.321 16.0835 34.7732 15.8098 35.2076 15.5658C35.9037 15.1731 36.7249 14.7506 37.5162 14.3877C38.3731 13.9949 39.3787 13.5606 40.3723 13.2095C40.6639 13.1024 40.9614 13.0132 41.2589 12.918C41.4077 12.8704 41.5386 12.793 41.6754 12.7513C41.8242 12.7037 41.9848 12.7097 42.1395 12.668C42.2883 12.6264 42.4073 12.5431 42.562 12.5014C42.6453 12.4776 42.7346 12.4776 42.8119 12.4598C44.6446 11.9719 46.7391 11.5851 48.9882 11.4126C55.6168 10.9008 61.2397 12.5014 65.625 14.5602C67.053 15.2326 68.3442 16.0299 69.5759 16.8272C71.9203 18.3564 73.9612 20.2129 75.8355 22.2479C76.0259 22.4561 76.1866 22.6465 76.383 22.8786C76.4722 22.9916 76.5912 23.0452 76.6745 23.1701C76.7043 23.2118 76.6864 23.2594 76.7162 23.2951C76.7459 23.3308 76.8173 23.3427 76.8411 23.3784C76.8649 23.4082 76.859 23.4736 76.8828 23.5034C77.0077 23.6521 77.1446 23.7711 77.2636 23.9199C77.5075 24.2352 77.7456 24.5863 78.0193 24.9314C78.0431 24.9552 78.0847 24.9909 78.1026 25.0147C78.1502 25.0802 78.1799 25.1932 78.2275 25.2646C78.2394 25.2765 78.3049 25.2884 78.3108 25.3063C78.3227 25.3301 78.2989 25.3717 78.3108 25.3896C78.3227 25.4074 78.3882 25.4193 78.3941 25.4312C78.4715 25.5978 78.6083 25.7644 78.7333 25.937C78.7809 26.0084 78.8106 26.1155 78.8582 26.1869C78.8701 26.2048 78.9356 26.2167 78.9415 26.2286C78.9713 26.294 78.9713 26.3535 79.0248 26.4368C79.1141 26.5737 79.2093 26.7224 79.3164 26.9009C79.364 26.9783 79.4354 27.0378 79.483 27.1151C79.5366 27.1984 79.5604 27.3234 79.608 27.4067C79.6556 27.49 79.727 27.5376 79.7746 27.615C79.8757 27.7816 79.9412 27.9601 80.0304 28.1207C80.4053 28.7871 80.8159 29.4476 81.0777 30.1795M79.3164 29.6737C79.0724 29.1799 78.8106 28.68 78.5607 28.2457C78.3703 27.9184 78.1264 27.4602 77.93 27.1984C77.9003 27.1568 77.8705 27.1151 77.8467 27.0735C77.7872 26.9842 77.7753 26.9069 77.7218 26.8176C77.6801 26.7522 77.5968 26.7105 77.5551 26.651C77.5016 26.5677 77.4897 26.4844 77.4302 26.4011C77.3826 26.3297 77.3112 26.2583 77.2636 26.1929C77.2398 26.1572 77.2517 26.1096 77.2219 26.0679C77.1981 26.0322 77.1208 26.0203 77.097 25.9846C77.0732 25.9489 77.0732 25.8894 77.0553 25.8596C77.0375 25.8358 76.9899 25.8001 76.972 25.7763C76.9482 25.7406 76.9601 25.693 76.9304 25.6514C76.9066 25.6157 76.8292 25.6038 76.8054 25.5681C76.7578 25.5026 76.7281 25.3896 76.6805 25.3182C76.6269 25.2468 76.5615 25.1754 76.5139 25.1099C76.4306 25.0028 76.3235 24.8362 76.258 24.7767C76.1985 24.7113 76.1747 24.6577 76.133 24.6101C76.0616 24.5208 76.014 24.4613 75.9664 24.4018C75.895 24.3126 75.8474 24.2531 75.7998 24.1936C75.7284 24.1043 75.6808 24.0448 75.6332 23.9853C75.4785 23.7949 75.3179 23.6521 75.1691 23.4796C75.1156 23.4141 75.0918 23.3308 75.0442 23.2713C75.0204 23.2475 74.9847 23.2118 74.9609 23.188C74.8002 23.0095 74.6574 22.8548 74.5027 22.6822C74.2647 22.4264 74.0267 22.1824 73.7887 21.9266C73.6756 21.8016 73.5745 21.6647 73.4495 21.5457C73.3186 21.4208 73.1639 21.3315 73.027 21.2125C72.7652 20.9745 72.5391 20.6889 72.2714 20.4569C72.0155 20.2308 71.7418 20.0046 71.474 19.7845C71.2658 19.6119 71.0754 19.4215 70.885 19.2847C70.8493 19.2549 70.8017 19.2728 70.76 19.243C70.7243 19.2192 70.7124 19.1419 70.6767 19.1181C70.5399 19.011 70.3911 18.9277 70.2602 18.8206C69.9032 18.5587 69.4986 18.2493 69.1654 18.0232C69.0464 17.9399 68.9214 17.8685 68.8322 17.815C68.8084 17.7971 68.7727 17.7495 68.7489 17.7317C68.5703 17.6127 68.4275 17.5353 68.2907 17.4401C68.2193 17.3866 68.1776 17.3806 68.1241 17.3568C68.1122 17.3509 68.1003 17.2854 68.0824 17.2735C68.0467 17.2497 67.9872 17.2497 67.9575 17.2318C67.8325 17.1604 67.7373 17.095 67.6183 17.0236C67.297 16.8272 66.9995 16.6547 66.696 16.4762C66.5354 16.381 66.3509 16.3096 66.1903 16.2263C66.0296 16.137 65.8868 16.0121 65.7321 15.9347C65.2323 15.6729 64.7265 15.4527 64.2207 15.2207C63.8102 15.0362 63.3282 14.822 62.9593 14.6733C62.87 14.6376 62.757 14.6257 62.6677 14.59C61.9121 14.2984 61.1028 13.9711 60.3174 13.7926C60.2996 13.7926 60.2163 13.7153 60.1925 13.7093C60.1389 13.6974 60.0735 13.7212 60.0259 13.7093C60.008 13.7093 59.9247 13.632 59.9009 13.626C59.7105 13.5725 59.5141 13.5487 59.3118 13.5011C57.5744 13.0608 55.6525 12.674 53.5996 12.5371C53.1296 12.5074 52.6417 12.5133 52.1716 12.4955C51.648 12.4717 51.1541 12.4003 50.7019 12.4538C49.9938 12.5431 49.1429 12.5074 48.4349 12.5788C45.3884 12.8882 42.6632 13.5963 40.2831 14.471C40.1105 14.5305 39.8904 14.584 39.7773 14.6376C39.7059 14.6673 39.6226 14.6971 39.5691 14.7209C39.462 14.7685 39.3489 14.8101 39.2715 14.8458C38.266 15.2861 37.3377 15.7324 36.4155 16.2322C35.4515 16.7558 34.5352 17.3092 33.6427 17.9102C31.8457 19.124 30.2629 20.4985 28.7694 21.9861C28.585 22.1705 28.4422 22.3788 28.2637 22.5751C28.1625 22.6882 27.9959 22.8131 27.9245 22.9143C27.8948 22.9559 27.871 22.9619 27.8412 22.9976C27.5735 23.3011 27.3116 23.6462 27.0855 23.9199C27.0736 23.9377 27.0201 23.9437 27.0022 23.9615C26.9725 23.9913 26.9903 24.0508 26.9606 24.0865C26.8773 24.1876 26.7464 24.2769 26.669 24.378C26.5857 24.4851 26.5381 24.6101 26.4548 24.7172C26.3775 24.8184 26.2823 24.9076 26.2049 25.0088C26.1454 25.0861 26.0681 25.1694 26.0383 25.223C26.0085 25.2587 25.9788 25.2765 25.955 25.3063C25.9193 25.3539 25.9074 25.461 25.8717 25.5145C25.8598 25.5324 25.8062 25.5383 25.7884 25.5562C25.7586 25.5859 25.7765 25.6395 25.7467 25.6811C25.6694 25.7882 25.5742 25.8656 25.4909 25.9727C25.2231 26.3535 24.9613 26.7938 24.7352 27.1508C24.5924 27.3769 24.4317 27.6209 24.3127 27.8232C24.2294 27.966 24.1759 28.0731 24.1045 28.1981C24.0688 28.2635 24.0152 28.3052 23.9795 28.3647C23.9141 28.4777 23.8724 28.6265 23.8129 28.7455C23.7415 28.8764 23.6701 28.9954 23.5987 29.1203C23.4678 29.3703 23.3488 29.6261 23.2239 29.876C22.8192 30.6793 22.3551 31.5718 22.0874 32.4406C22.0874 32.4525 22.01 32.506 22.0041 32.5239C21.9505 32.6607 21.9327 32.8333 21.8791 32.988C21.8553 33.0415 21.8137 33.101 21.7958 33.1546C21.1948 34.7135 20.7426 36.4867 20.4094 38.2361C19.9453 40.6935 19.7846 43.7876 20.0286 46.5544C20.2131 48.6192 20.582 50.4518 21.0401 52.2666C21.1413 52.3083 21.2662 52.2547 21.3317 52.225C21.4447 52.1714 21.5756 52.1357 21.6709 52.1C21.8434 52.0405 22.01 51.981 22.135 51.9334C22.2659 51.8858 22.3849 51.8442 22.4741 51.8085C22.6229 51.743 22.843 51.6835 22.9382 51.6419C23.0513 51.5943 23.1941 51.505 23.2774 51.4753C23.3667 51.4455 23.4381 51.4634 23.5273 51.4336C23.5987 51.4098 23.6642 51.3325 23.7356 51.3087C23.8129 51.2849 23.9141 51.2908 23.9914 51.267C24.0747 51.2373 24.1164 51.1718 24.1997 51.142C24.2711 51.1182 24.3782 51.1242 24.4555 51.1004C24.5329 51.0706 24.5924 50.9992 24.6638 50.9754C24.7412 50.9457 24.8423 50.9576 24.9137 50.9338C24.997 50.904 25.0506 50.8326 25.122 50.8088C25.1934 50.785 25.3005 50.7969 25.3719 50.7672C25.4552 50.7374 25.5087 50.666 25.5861 50.6422C25.6218 50.6303 25.6694 50.6541 25.711 50.6422C25.7229 50.6422 25.7705 50.5649 25.7943 50.5589C25.8836 50.5232 25.9609 50.5054 26.0443 50.4756C26.199 50.4161 26.3537 50.3626 26.5084 50.309C31.328 48.5597 36.2072 46.7508 40.9614 45.0133C41.4196 44.8467 41.9491 44.6563 42.3478 44.5076C42.5263 44.4421 42.6751 44.3886 42.8119 44.341C42.9488 44.2934 43.0678 44.2517 43.1511 44.216C43.2998 44.1506 43.52 44.0911 43.6092 44.0494C43.7283 43.9899 43.8532 43.9126 43.9484 43.8828C44.0258 43.8531 44.1269 43.865 44.1983 43.8412C44.2816 43.8173 44.3352 43.7459 44.4066 43.7162C44.4958 43.6864 44.5672 43.7043 44.6624 43.6745C44.7219 43.6507 44.8052 43.5734 44.8707 43.5496C44.9421 43.5198 45.0492 43.5317 45.1265 43.5079C45.1979 43.4782 45.2575 43.4068 45.3348 43.383C45.4062 43.3592 45.5133 43.3651 45.5847 43.3413C45.6621 43.3116 45.7275 43.2402 45.793 43.2164C45.8287 43.1985 45.8822 43.2283 45.9179 43.2164C45.9298 43.2104 45.9834 43.139 46.0012 43.1331C46.1202 43.0914 46.2809 43.0795 46.382 43.0498C46.3939 43.0498 46.4475 42.9724 46.4653 42.9665C46.5546 42.9367 46.626 42.9129 46.7153 42.8832C47.9469 42.425 49.1786 41.9847 50.4103 41.5384C54.2958 40.1342 58.2586 38.6466 62.0846 37.2543C62.4 37.1412 62.7451 37.0163 63.0069 36.9151C63.1854 36.8497 63.3282 36.7961 63.471 36.7485C63.6019 36.7009 63.7269 36.6593 63.8102 36.6236C63.9589 36.5522 64.185 36.4986 64.2743 36.457C64.3933 36.3974 64.5183 36.326 64.6135 36.2903C64.6849 36.2606 64.792 36.2725 64.8693 36.2487C64.9526 36.2189 65.0121 36.1475 65.0776 36.1237C65.2204 36.0702 65.387 36.0523 65.5417 35.9988C65.7797 35.9155 66.0237 35.8203 66.2141 35.7489C66.339 35.7013 66.4759 35.6596 66.5532 35.6239C66.696 35.5585 66.9221 35.499 67.0173 35.4573C67.1601 35.3919 67.3863 35.3324 67.4815 35.2907C67.6005 35.2372 67.7373 35.1539 67.8206 35.1241C67.898 35.0944 67.9872 35.1122 68.0705 35.0825C68.136 35.0587 68.2133 34.9813 68.2788 34.9575C68.3561 34.9277 68.4573 34.9396 68.5346 34.9158C68.6179 34.8861 68.6655 34.8147 68.7429 34.7909C68.8143 34.7671 68.9214 34.773 68.9928 34.7492C69.0761 34.7195 69.1178 34.654 69.2011 34.6243C69.2368 34.6124 69.2903 34.6362 69.326 34.6243C69.3379 34.6243 69.3855 34.5469 69.4093 34.541C69.5283 34.4993 69.683 34.4874 69.7901 34.4577C69.802 34.4517 69.8556 34.3803 69.8734 34.3744C69.9924 34.3327 70.1471 34.3208 70.2542 34.2911C70.2721 34.2911 70.3138 34.2137 70.3376 34.2078C70.4209 34.178 70.5101 34.1542 70.5875 34.1245C72.4499 33.4342 74.2825 32.7797 76.133 32.1074C77.3647 31.6611 78.5845 31.1672 79.8281 30.7626C79.727 30.4056 79.5306 30.0902 79.37 29.757" fill="white"/>
<path d="M27.0144 94.2043H25.1758V92.9131H30.4001V94.2043H28.5436V99.7142H27.0084V94.2043H27.0144Z" fill="white"/>
<path d="M31.5418 97.7322C31.5834 98.3689 32.2201 98.6724 32.9341 98.6724C33.4577 98.6724 33.8802 98.601 34.2967 98.4582L34.499 99.4994C33.9933 99.7136 33.3804 99.8148 32.714 99.8148C31.042 99.8148 30.084 98.8449 30.084 97.3038C30.084 96.0543 30.8635 94.6738 32.5771 94.6738C34.1718 94.6738 34.7787 95.9174 34.7787 97.1372C34.7787 97.399 34.7489 97.6311 34.7311 97.7441H31.5537L31.5418 97.7322ZM33.3447 96.685C33.3447 96.3101 33.184 95.6854 32.476 95.6854C31.8333 95.6854 31.5656 96.2804 31.5299 96.685H33.3447Z" fill="white"/>
<path d="M35.6901 96.3997C35.6901 95.6737 35.6782 95.1977 35.6484 94.7753H36.9575L37.017 95.6856H37.0586C37.3085 94.9597 37.9036 94.6562 38.3915 94.6562C38.5343 94.6562 38.6057 94.6682 38.7128 94.686V96.126C38.5938 96.1081 38.4688 96.0843 38.2963 96.0843C37.731 96.0843 37.3502 96.3878 37.249 96.8638C37.2312 96.9649 37.2193 97.0839 37.2193 97.2089V99.708H35.6841V96.3997H35.6901Z" fill="white"/>
<path d="M39.5221 96.4293C39.5221 95.7867 39.5043 95.2393 39.4805 94.7752H40.8133L40.8847 95.4594H40.9026C41.2655 94.9418 41.8308 94.6621 42.5448 94.6621C43.6218 94.6621 44.5917 95.6022 44.5917 97.1731C44.5917 98.9701 43.4493 99.815 42.3544 99.815C41.7594 99.815 41.2953 99.571 41.0751 99.2497H41.0573V101.701H39.5221V96.4234V96.4293ZM41.0573 97.5896C41.0573 97.7086 41.0692 97.8098 41.087 97.9109C41.1882 98.3274 41.5392 98.6368 41.9855 98.6368C42.6519 98.6368 43.0446 98.0835 43.0446 97.2445C43.0446 96.4591 42.6936 95.8641 42.0034 95.8641C41.569 95.8641 41.1882 96.1854 41.087 96.6435C41.0692 96.7268 41.0573 96.822 41.0573 96.9172V97.5956V97.5896Z" fill="white"/>
<path d="M47.1381 93.4062C47.1381 93.8287 46.8227 94.1738 46.311 94.1738C45.829 94.1738 45.5137 93.8287 45.5137 93.4062C45.5137 92.9838 45.835 92.6387 46.3289 92.6387C46.8227 92.6387 47.1262 92.9719 47.1381 93.4062ZM45.5553 99.7135V94.7807H47.0905V99.7135H45.5553Z" fill="white"/>
<path d="M48.3164 92.5498H49.8516V99.7139H48.3164V92.5498Z" fill="white"/>
<path d="M52.6713 93.4062C52.6713 93.8287 52.3559 94.1738 51.8442 94.1738C51.3622 94.1738 51.0469 93.8287 51.0469 93.4062C51.0469 92.9838 51.3682 92.6387 51.8621 92.6387C52.3559 92.6387 52.6594 92.9719 52.6713 93.4062ZM51.0885 99.7135V94.7807H52.6237V99.7135H51.0885Z" fill="white"/>
<path d="M53.8555 92.5498H55.3906V95.3762H55.4085C55.5691 95.156 55.7714 94.9834 56.0154 94.8644C56.2474 94.7454 56.5271 94.674 56.8127 94.674C57.7886 94.674 58.5383 95.3524 58.5383 96.8459V99.7198H57.0031V97.0065C57.0031 96.3639 56.783 95.9176 56.2058 95.9176C55.8012 95.9176 55.5513 96.1794 55.4382 96.465C55.3966 96.5543 55.3906 96.6852 55.3906 96.7982V99.7258H53.8555V92.5617V92.5498Z" fill="white"/>
<path d="M66.6724 97.1852C66.6724 98.9881 65.3931 99.8152 64.0722 99.8152C62.6322 99.8152 61.5195 98.8691 61.5195 97.2744C61.5195 95.6798 62.5668 94.6504 64.1614 94.6504C65.6668 94.6504 66.6724 95.6917 66.6724 97.1792V97.1852ZM63.1023 97.2328C63.1023 98.0777 63.4533 98.7144 64.1138 98.7144C64.7207 98.7144 65.0897 98.1194 65.0897 97.2209C65.0897 96.4949 64.81 95.7452 64.1138 95.7452C63.4176 95.7452 63.1023 96.5009 63.1023 97.2268V97.2328Z" fill="white"/>
<path d="M67.6191 92.5498H69.1543V99.7139H67.6191V92.5498Z" fill="white"/>
<path d="M71.575 97.7322C71.6166 98.3689 72.2533 98.6724 72.9673 98.6724C73.491 98.6724 73.9134 98.601 74.3299 98.4582L74.5322 99.4994C74.0265 99.7136 73.4136 99.8148 72.7472 99.8148C71.0752 99.8148 70.1172 98.8449 70.1172 97.3038C70.1172 96.0543 70.8967 94.6738 72.6103 94.6738C74.205 94.6738 74.8119 95.9174 74.8119 97.1372C74.8119 97.399 74.7821 97.6311 74.7643 97.7441H71.5869L71.575 97.7322ZM73.3779 96.685C73.3779 96.3101 73.2172 95.6854 72.5092 95.6854C71.8665 95.6854 71.5988 96.2804 71.5631 96.685H73.3779Z" fill="white"/>
<path d="M75.7227 92.5498H77.2578V95.3762H77.2757C77.4363 95.156 77.6386 94.9834 77.8826 94.8644C78.1146 94.7454 78.3943 94.674 78.6799 94.674C79.6557 94.674 80.4055 95.3524 80.4055 96.8459V99.7198H78.8703V97.0065C78.8703 96.3639 78.6502 95.9176 78.073 95.9176C77.6684 95.9176 77.4185 96.1794 77.3054 96.465C77.2638 96.5543 77.2578 96.6852 77.2578 96.7982V99.7258H75.7227V92.5617V92.5498Z" fill="white"/>
<path d="M6.52734 102.534H8.05059V105.539H8.06845C8.2172 105.277 8.38381 105.033 8.54446 104.795L10.0796 102.534H11.9777L9.72855 105.432L12.0908 109.335H10.3057L8.63371 106.402L8.05655 107.116V109.335H6.53329V102.534H6.52734Z" fill="white"/>
<path d="M17.3814 106.812C17.3814 108.615 16.1021 109.442 14.7812 109.442C13.3412 109.442 12.2285 108.496 12.2285 106.901C12.2285 105.307 13.2758 104.277 14.8704 104.277C16.3758 104.277 17.3814 105.319 17.3814 106.806V106.812ZM13.8113 106.86C13.8113 107.705 14.1623 108.341 14.8169 108.341C15.4238 108.341 15.7927 107.746 15.7927 106.848C15.7927 106.122 15.513 105.372 14.8169 105.372C14.1207 105.372 13.8113 106.128 13.8113 106.854V106.86Z" fill="white"/>
<path d="M18.3268 105.973C18.3268 105.36 18.309 104.842 18.2852 104.402H19.618L19.6894 105.086H19.7192C19.9215 104.765 20.4153 104.289 21.2424 104.289C22.248 104.289 23.0096 104.967 23.0096 106.419V109.335H21.4745V106.604C21.4745 105.967 21.2543 105.533 20.695 105.533C20.2725 105.533 20.0167 105.824 19.9096 106.11C19.8679 106.211 19.862 106.354 19.862 106.491V109.335H18.3268V105.973Z" fill="white"/>
<path d="M24.2288 108.002C24.5084 108.175 25.0975 108.365 25.5497 108.365C26.0019 108.365 26.2043 108.216 26.2043 107.961C26.2043 107.705 26.0555 107.58 25.4902 107.383C24.4608 107.038 24.0681 106.485 24.08 105.902C24.08 104.974 24.8655 104.277 26.0853 104.277C26.6624 104.277 27.1622 104.42 27.4657 104.569L27.2039 105.628C26.9837 105.509 26.5494 105.348 26.1329 105.348C25.758 105.348 25.5497 105.497 25.5497 105.741C25.5497 105.985 25.7401 106.104 26.3471 106.318C27.2872 106.64 27.668 107.127 27.6799 107.842C27.6799 108.77 26.9659 109.448 25.5497 109.448C24.9071 109.448 24.3299 109.299 23.9551 109.097L24.2288 108.008V108.002Z" fill="white"/>
<path d="M33.2666 107.746C33.2666 108.389 33.2845 108.919 33.3083 109.329H31.9754L31.904 108.633H31.8743C31.6839 108.936 31.2197 109.442 30.3332 109.442C29.3216 109.442 28.5957 108.817 28.5957 107.294V104.396H30.1309V107.05C30.1309 107.764 30.3629 108.199 30.9103 108.199C31.3328 108.199 31.5887 107.907 31.6779 107.663C31.7196 107.574 31.7374 107.461 31.7374 107.33V104.396H33.2726V107.746H33.2666Z" fill="white"/>
<path d="M34.4987 105.973C34.4987 105.36 34.4808 104.843 34.457 104.402H35.7601L35.8196 105.069H35.8494C36.0636 104.747 36.5039 104.283 37.3429 104.283C37.9855 104.283 38.4853 104.617 38.6936 105.128H38.7114C38.9018 104.866 39.116 104.664 39.354 104.521C39.6278 104.373 39.9312 104.277 40.2942 104.277C41.2403 104.277 41.9602 104.944 41.9602 106.425V109.329H40.4667V106.646C40.4667 105.931 40.2347 105.515 39.7408 105.515C39.3778 105.515 39.1339 105.759 39.0268 106.051C38.997 106.164 38.9792 106.312 38.9792 106.443V109.329H37.4857V106.556C37.4857 105.943 37.2655 105.515 36.7717 105.515C36.3789 105.515 36.1469 105.818 36.0576 106.062C36.01 106.181 35.9981 106.324 35.9981 106.455V109.329H34.5046V105.967L34.4987 105.973Z" fill="white"/>
<path d="M44.3523 107.353C44.394 107.99 45.0307 108.293 45.7447 108.293C46.2683 108.293 46.6908 108.222 47.1073 108.079L47.3096 109.121C46.8038 109.335 46.1909 109.436 45.5245 109.436C43.8525 109.436 42.8945 108.466 42.8945 106.925C42.8945 105.675 43.674 104.295 45.3877 104.295C46.9823 104.295 47.5892 105.539 47.5892 106.758C47.5892 107.02 47.5595 107.252 47.5416 107.365H44.3642L44.3523 107.353ZM46.1552 106.306C46.1552 105.931 45.9946 105.306 45.2865 105.306C44.6439 105.306 44.3761 105.901 44.3404 106.306H46.1552Z" fill="white"/>
<path d="M48.5006 105.973C48.5006 105.36 48.4828 104.842 48.459 104.402H49.7918L49.8632 105.086H49.893C50.0953 104.765 50.5892 104.289 51.4162 104.289C52.4278 104.289 53.1834 104.967 53.1834 106.419V109.335H51.6483V106.604C51.6483 105.967 51.4281 105.533 50.8688 105.533C50.4463 105.533 50.1905 105.824 50.0834 106.11C50.0417 106.211 50.0358 106.354 50.0358 106.491V109.335H48.5006V105.973Z" fill="white"/>
<path d="M58.0391 102.534V109.335H56.5039V102.534H58.0391Z" fill="white"/>
<path d="M59.3463 105.973C59.3463 105.36 59.3285 104.842 59.3047 104.402H60.6375L60.7089 105.086H60.7387C60.941 104.765 61.4349 104.289 62.2619 104.289C63.2735 104.289 64.0291 104.967 64.0291 106.419V109.335H62.494V106.604C62.494 105.967 62.2738 105.533 61.7145 105.533C61.2921 105.533 61.0362 105.824 60.9291 106.11C60.8874 106.211 60.8815 106.354 60.8815 106.491V109.335H59.3463V105.973Z" fill="white"/>
<path d="M70.0402 102.171V107.859C70.0402 108.413 70.058 109.002 70.0818 109.329H68.7192L68.6597 108.615H68.63C68.3265 109.162 67.7196 109.442 67.0889 109.442C65.9167 109.442 64.9825 108.442 64.9825 106.913C64.9706 105.247 66.0119 104.283 67.19 104.283C67.8029 104.283 68.267 104.503 68.4931 104.837H68.511V102.171H70.0461H70.0402ZM68.505 106.491C68.505 106.407 68.505 106.3 68.4872 106.211C68.3979 105.806 68.0647 105.467 67.5887 105.467C66.8806 105.467 66.5296 106.092 66.5296 106.872C66.5296 107.711 66.9461 108.234 67.5768 108.234C68.0231 108.234 68.386 107.931 68.4753 107.496C68.4931 107.383 68.505 107.264 68.505 107.145V106.503V106.491Z" fill="white"/>
<path d="M76.1451 106.812C76.1451 108.615 74.8658 109.442 73.5448 109.442C72.1049 109.442 70.9922 108.496 70.9922 106.901C70.9922 105.307 72.0394 104.277 73.6341 104.277C75.1395 104.277 76.1451 105.319 76.1451 106.806V106.812ZM72.5749 106.86C72.5749 107.705 72.926 108.341 73.5865 108.341C74.1934 108.341 74.5623 107.746 74.5623 106.848C74.5623 106.122 74.2826 105.372 73.5865 105.372C72.8903 105.372 72.5749 106.128 72.5749 106.854V106.86Z" fill="white"/>
<path d="M77.0905 105.973C77.0905 105.36 77.0726 104.842 77.0488 104.402H78.3817L78.4531 105.086H78.4828C78.6851 104.765 79.179 104.289 80.0061 104.289C81.0176 104.289 81.7733 104.967 81.7733 106.419V109.335H80.2381V106.604C80.2381 105.967 80.018 105.533 79.4587 105.533C79.0362 105.533 78.7803 105.824 78.6732 106.11C78.6316 106.211 78.6256 106.354 78.6256 106.491V109.335H77.0905V105.973Z" fill="white"/>
<path d="M84.1844 107.353C84.226 107.99 84.8627 108.293 85.5767 108.293C86.1003 108.293 86.5228 108.222 86.9393 108.079L87.1416 109.121C86.6358 109.335 86.023 109.436 85.3566 109.436C83.6845 109.436 82.7266 108.466 82.7266 106.925C82.7266 105.675 83.506 104.295 85.2197 104.295C86.8144 104.295 87.4213 105.539 87.4213 106.758C87.4213 107.02 87.3915 107.252 87.3737 107.365H84.1963L84.1844 107.353ZM85.9873 106.306C85.9873 105.931 85.8266 105.306 85.1185 105.306C84.4759 105.306 84.2082 105.901 84.1725 106.306H85.9873Z" fill="white"/>
<path d="M88.3186 108.002C88.5983 108.175 89.1874 108.365 89.6396 108.365C90.0918 108.365 90.2941 108.216 90.2941 107.961C90.2941 107.705 90.1453 107.58 89.5801 107.383C88.5507 107.038 88.158 106.485 88.1699 105.902C88.1699 104.974 88.9553 104.277 90.1751 104.277C90.7523 104.277 91.2521 104.42 91.5555 104.569L91.2937 105.628C91.0736 105.509 90.6392 105.348 90.2227 105.348C89.8478 105.348 89.6396 105.497 89.6396 105.741C89.6396 105.985 89.83 106.104 90.4369 106.318C91.377 106.64 91.7578 107.127 91.7697 107.842C91.7697 108.77 91.0557 109.448 89.6396 109.448C88.9969 109.448 88.4198 109.299 88.0449 109.097L88.3186 108.008V108.002Z" fill="white"/>
<path d="M94.2865 103.027C94.2865 103.45 93.9712 103.795 93.4594 103.795C92.9775 103.795 92.6621 103.45 92.6621 103.027C92.6621 102.605 92.9834 102.26 93.4773 102.26C93.9712 102.26 94.2746 102.593 94.2865 103.027ZM92.7038 109.335V104.402H94.2389V109.335H92.7038Z" fill="white"/>
<path d="M99.5773 108.139C99.5773 108.603 99.5951 109.055 99.6606 109.329H98.2801L98.1909 108.835H98.1611C97.8398 109.228 97.334 109.442 96.7509 109.442C95.7513 109.442 95.1562 108.716 95.1562 107.931C95.1562 106.651 96.3046 106.044 98.054 106.044V105.985C98.054 105.711 97.9112 105.342 97.1555 105.342C96.6498 105.342 96.1142 105.515 95.7929 105.717L95.5133 104.729C95.8584 104.539 96.5308 104.283 97.4292 104.283C99.0715 104.283 99.5891 105.253 99.5891 106.419V108.145L99.5773 108.139ZM98.0957 106.997C97.2864 106.997 96.6617 107.187 96.6617 107.776C96.6617 108.169 96.9235 108.359 97.2686 108.359C97.6434 108.359 97.9647 108.109 98.0659 107.794C98.0837 107.711 98.0957 107.621 98.0957 107.532V106.997Z" fill="white"/>
<path d="M42.2521 118.956V118.028L43.0911 117.272C44.5311 115.981 45.2272 115.243 45.2391 114.476C45.2391 113.94 44.9238 113.518 44.1681 113.518C43.6028 113.518 43.109 113.797 42.7639 114.053L42.3295 112.964C42.8115 112.59 43.5909 112.286 44.4656 112.286C45.9591 112.286 46.7624 113.155 46.7624 114.333C46.7624 115.446 45.977 116.32 45.019 117.165L44.4121 117.671V117.689H46.8933V118.95H42.2402L42.2521 118.956Z" fill="white"/>
<path d="M52.6827 115.648C52.6827 117.665 51.8675 119.069 50.2015 119.069C48.5354 119.069 47.7619 117.546 47.75 115.69C47.75 113.785 48.5473 112.292 50.2431 112.292C51.9389 112.292 52.6827 113.857 52.6827 115.654V115.648ZM49.2852 115.69C49.2852 117.195 49.6481 117.909 50.2312 117.909C50.8144 117.909 51.1476 117.165 51.1476 115.672C51.1476 114.178 50.8322 113.452 50.2193 113.452C49.666 113.452 49.2792 114.16 49.2792 115.69H49.2852Z" fill="white"/>
<path d="M55.3962 113.762H55.3784L54.1288 114.357L53.8789 113.209L55.6223 112.399H56.8838V118.957H55.4022V113.762H55.3962Z" fill="white"/>
<path d="M60.9958 113.762H60.978L59.7284 114.357L59.4785 113.209L61.2219 112.399H62.4834V118.957H61.0018V113.762H60.9958Z" fill="white"/>
<path d="M6.75416 129.441C5.13571 128.959 3.07694 127.953 1.66079 125.841C0.726606 124.454 0.143486 122.616 0.137536 120.378V120.325C0.137536 120.289 0.137536 120.248 0.137536 120.194C0.137536 120.093 0.137536 119.938 0.137536 119.742C0.137536 119.355 0.137536 118.778 0.137536 118.034C0.137536 116.546 0.125636 114.393 0.125636 111.709C0.113735 106.33 0.113735 98.8208 0.107785 90.2883C0.0958848 73.2231 0.0839844 52.0701 0.0839844 35.713C0.0839844 22.8427 0.0899346 12.9475 0.101835 10.3354C0.101835 9.95457 0.101835 9.75822 0.101835 9.63921C0.101835 9.63921 0.101835 9.63921 0.101835 9.63326C0.101835 7.39004 0.684955 5.55737 1.61914 4.15908C2.55332 2.75483 3.80286 1.83255 4.98695 1.23753C7.37298 0.0653388 9.56266 0.0831895 9.69951 0.0712891H95.793L95.8525 0.10104C95.9893 0.11294 96.1678 0.130791 96.3702 0.154592C96.9057 0.220044 97.6316 0.339048 98.4527 0.583006C100.077 1.07092 102.148 2.07056 103.57 4.18883C104.51 5.59308 105.099 7.44954 105.093 9.71657V120.325C105.093 122.586 104.51 124.436 103.57 125.835C102.63 127.239 101.386 128.167 100.19 128.756C97.7923 129.934 95.5788 129.911 95.4062 129.923H9.74116C9.64001 129.923 8.37857 129.923 6.75416 129.435M3.46965 118.659V120.325C3.46965 121.985 3.85641 123.092 4.38003 123.913C4.90365 124.734 5.60577 125.293 6.37335 125.704C7.87875 126.519 9.62216 126.602 9.74711 126.596C37.3441 126.596 67.8032 126.596 95.4003 126.596C95.4003 126.596 95.4003 126.596 95.4241 126.596C95.4479 126.596 95.4836 126.596 95.5371 126.596C95.6383 126.596 95.793 126.584 95.9893 126.561C96.3761 126.519 96.9176 126.43 97.5066 126.251C98.6967 125.894 99.9819 125.222 100.803 123.99C101.356 123.163 101.761 122.039 101.767 120.325V9.71657C101.767 8.13976 101.416 7.05683 100.94 6.2476C100.464 5.43837 99.8213 4.87905 99.1072 4.45659C97.6851 3.60571 95.9774 3.4391 95.4776 3.40935C95.4181 3.40935 95.3884 3.40935 95.3229 3.4034H9.68761C9.68761 3.4034 9.63406 3.4034 9.58646 3.4034C9.49125 3.4034 9.3425 3.42125 9.15209 3.4391C8.77723 3.48075 8.24171 3.57001 7.65859 3.74256C6.48045 4.09958 5.19521 4.766 4.37408 6.00364C3.82666 6.83667 3.4161 7.96126 3.4161 9.67491V11.1327H3.4042V11.6266C3.4042 12.894 3.4042 14.7326 3.39825 17.0472C3.39825 21.6765 3.39825 28.186 3.39825 35.707C3.39825 64.9582 3.42205 109.561 3.4518 118.653H3.4637L3.46965 118.659ZM2.44621 121.86C2.69017 121.759 2.94008 121.574 3.11264 121.348C3.11264 121.348 3.11264 121.342 3.12454 121.336C2.94603 121.568 2.71397 121.747 2.44621 121.854V121.86ZM3.3566 120.926C3.45775 120.658 3.4756 120.42 3.46965 120.253C3.4756 120.486 3.4399 120.718 3.3566 120.926Z" fill="white"/>
<path d="M6.75416 129.441C5.13571 128.959 3.07694 127.953 1.66079 125.841C0.726606 124.454 0.143486 122.616 0.137536 120.378V120.325C0.137536 120.289 0.137536 120.248 0.137536 120.194C0.137536 120.093 0.137536 119.938 0.137536 119.742C0.137536 119.355 0.137536 118.778 0.137536 118.034C0.137536 116.546 0.125636 114.393 0.125636 111.709C0.113735 106.33 0.113735 98.8208 0.107785 90.2883C0.0958848 73.2231 0.0839844 52.0701 0.0839844 35.713C0.0839844 22.8427 0.0899346 12.9475 0.101835 10.3354C0.101835 9.95457 0.101835 9.75822 0.101835 9.63921C0.101835 9.63921 0.101835 9.63921 0.101835 9.63326C0.101835 7.39004 0.684955 5.55737 1.61914 4.15908C2.55332 2.75483 3.80286 1.83255 4.98695 1.23753C7.37298 0.0653388 9.56266 0.0831895 9.69951 0.0712891H95.793L95.8525 0.10104C95.9893 0.11294 96.1678 0.130791 96.3702 0.154592C96.9057 0.220044 97.6316 0.339048 98.4527 0.583006C100.077 1.07092 102.148 2.07056 103.57 4.18883C104.51 5.59308 105.099 7.44954 105.093 9.71657V120.325C105.093 122.586 104.51 124.436 103.57 125.835C102.63 127.239 101.386 128.167 100.19 128.756C97.7923 129.934 95.5788 129.911 95.4062 129.923H9.74116C9.64001 129.923 8.37857 129.923 6.75416 129.435V129.441ZM3.46965 118.665V120.331C3.46965 121.991 3.85641 123.098 4.38003 123.919C4.90365 124.74 5.60577 125.299 6.37335 125.71C7.87875 126.525 9.62216 126.608 9.74711 126.602C37.3441 126.602 67.8032 126.602 95.4003 126.602C95.4003 126.602 95.4003 126.602 95.4241 126.602C95.4479 126.602 95.4836 126.602 95.5371 126.602C95.6383 126.602 95.793 126.59 95.9893 126.567C96.3761 126.525 96.9176 126.436 97.5066 126.257C98.6967 125.9 99.9819 125.228 100.803 123.996C101.356 123.169 101.761 122.044 101.767 120.331V9.71657C101.767 8.13976 101.416 7.05683 100.94 6.2476C100.464 5.43837 99.8213 4.87905 99.1072 4.45659C97.6851 3.60571 95.9774 3.4391 95.4776 3.40935C95.4181 3.40935 95.3884 3.40935 95.3229 3.4034H9.68761C9.68761 3.4034 9.63406 3.4034 9.58646 3.4034C9.49125 3.4034 9.3425 3.42125 9.15209 3.4391C8.77723 3.48075 8.24171 3.57001 7.65859 3.74256C6.48045 4.09958 5.19521 4.766 4.37408 6.00364C3.82666 6.83667 3.4161 7.96126 3.4161 9.67491V11.1327H3.4042V11.6266C3.4042 12.894 3.4042 14.7326 3.39825 17.0472C3.39825 21.6765 3.39825 28.186 3.39825 35.707C3.39825 64.9582 3.42205 109.561 3.4518 118.653H3.4637L3.46965 118.665ZM2.44621 121.866C2.69017 121.765 2.94008 121.58 3.11264 121.354C3.11264 121.354 3.11264 121.348 3.12454 121.342C2.94603 121.574 2.71397 121.753 2.44621 121.86V121.866ZM3.3566 120.932C3.45775 120.664 3.4756 120.426 3.46965 120.259C3.4756 120.491 3.4399 120.724 3.3566 120.932Z" stroke="#E31B23" stroke-width="0.148755"/>
</g>
<defs>
<clipPath id="clip0_1373_15178">
<rect width="105.158" height="130" fill="white"/>
</clipPath>
</defs>
</svg>
