<svg width="130" height="72" viewBox="0 0 130 72" fill="none" xmlns="http://www.w3.org/2000/svg">
<g clip-path="url(#clip0_1375_16079)">
<path d="M6.26341 0.485352H0V20.6909H6.26341V0.485352Z" fill="#231F20"/>
<path d="M20.7546 12.4313L26.2258 14.0896C25.8562 15.6211 25.2752 16.9097 24.4936 17.9342C23.7015 18.9693 22.7192 19.7404 21.5468 20.2579C20.3744 20.7861 18.8851 21.0395 17.0789 21.0395C14.882 21.0395 13.0864 20.7227 11.6922 20.0784C10.298 19.4446 9.09389 18.3145 8.09048 16.709C7.0765 15.1036 6.58008 13.0439 6.58008 10.5407C6.58008 7.19246 7.46731 4.62584 9.25232 2.83027C11.0162 1.04525 13.53 0.147461 16.7832 0.147461C19.3287 0.147461 21.325 0.66501 22.7825 1.68955C24.2401 2.71408 25.3175 4.29842 26.0252 6.43199L20.5117 7.6572C20.3215 7.04459 20.1209 6.59042 19.9096 6.30524C19.5611 5.82994 19.1386 5.46026 18.6316 5.20677C18.1246 4.95327 17.5648 4.81596 16.9416 4.81596C15.5263 4.81596 14.4384 5.38632 13.6885 6.52705C13.1181 7.37202 12.8329 8.6923 12.8329 10.509C12.8329 12.7482 13.1709 14.2797 13.8575 15.1141C14.5334 15.9486 15.4946 16.3605 16.7198 16.3605C17.945 16.3605 18.8111 16.0225 19.4238 15.3571C20.0364 14.6916 20.48 13.7094 20.7546 12.4313Z" fill="#231F20"/>
<path d="M25.1586 14.0158L31.0946 13.6462C31.2214 14.6073 31.4854 15.3467 31.8762 15.8537C32.5205 16.667 33.4394 17.0789 34.633 17.0789C35.5202 17.0789 36.2067 16.8676 36.6926 16.4557C37.1785 16.0332 37.4108 15.5474 37.4108 14.9981C37.4108 14.4489 37.1785 14.0053 36.7243 13.5934C36.2701 13.1814 35.2033 12.7906 33.5239 12.4209C30.7883 11.8083 28.8343 10.9845 27.6619 9.97051C26.4895 8.94597 25.898 7.64682 25.898 6.07305C25.898 5.03795 26.2043 4.05566 26.8063 3.12619C27.4084 2.19671 28.3167 1.47848 29.5208 0.95037C30.7249 0.422259 32.3832 0.158203 34.4851 0.158203C37.0728 0.158203 39.0374 0.633503 40.3894 1.59467C41.7414 2.55583 42.5546 4.07679 42.8081 6.17867L36.925 6.52723C36.7665 5.61887 36.4391 4.95345 35.9427 4.54153C35.4357 4.1296 34.7491 3.91836 33.8619 3.91836C33.1331 3.91836 32.5945 4.07679 32.2248 4.38309C31.8551 4.6894 31.6755 5.06964 31.6755 5.50269C31.6755 5.81956 31.8234 6.1153 32.1297 6.36879C32.4255 6.63285 33.1226 6.88634 34.2316 7.11871C36.9567 7.71019 38.9107 8.30168 40.0936 8.90373C41.2766 9.50577 42.1322 10.2557 42.6708 11.1429C43.2095 12.0301 43.4736 13.0336 43.4736 14.132C43.4736 15.4312 43.1144 16.6247 42.3962 17.7126C41.678 18.8111 40.6746 19.6349 39.386 20.2053C38.0974 20.7757 36.4708 21.0503 34.5168 21.0503C31.0841 21.0503 28.697 20.3849 27.3767 19.0646C26.0564 17.7443 25.3065 16.0544 25.127 14.0158" fill="#231F20"/>
<path d="M55.4843 17.364H48.397L47.4147 20.7016H41.0352L48.6294 0.496094H55.442L63.0363 20.7016H56.4983L55.4843 17.364ZM54.1851 12.9912L51.9565 5.7244L49.749 12.9912H54.1851Z" fill="#231F20"/>
<path d="M81.045 20.7018H64.082C64.2827 19.0224 64.8636 17.4486 65.8565 15.9699C66.8388 14.4912 68.6872 12.7484 71.4017 10.7416C73.0599 9.50582 74.1162 8.57635 74.5809 7.94261C75.0456 7.29832 75.278 6.69627 75.278 6.12591C75.278 5.50274 75.0456 4.97463 74.5915 4.53101C74.1373 4.0874 73.5564 3.87616 72.8593 3.87616C72.1621 3.87616 71.5495 4.09796 71.0954 4.55214C70.6412 5.00632 70.3243 5.80904 70.1764 6.94976L64.5151 6.49559C64.7369 4.90069 65.1488 3.66491 65.7403 2.76712C66.3318 1.86933 67.1662 1.19335 68.2436 0.707489C69.3209 0.232189 70.8102 -0.0107422 72.7219 -0.0107422C74.6337 -0.0107422 76.2603 0.211065 77.3693 0.66524C78.4784 1.11942 79.3445 1.81652 79.9782 2.75656C80.6119 3.6966 80.9288 4.75282 80.9288 5.91467C80.9288 7.15045 80.5697 8.34398 79.8409 9.46357C79.1121 10.5937 77.7918 11.8295 75.88 13.1815C74.7393 13.9631 73.9788 14.5229 73.5986 14.8292C73.2184 15.1461 72.7642 15.558 72.2466 16.065H81.0767V20.6701L81.045 20.7018Z" fill="#EF4135"/>
<path d="M81.4766 10.4355C81.4766 6.5697 82.1737 3.85521 83.5679 2.31313C84.9515 0.771042 87.0745 0 89.9264 0C91.2994 0 92.419 0.168996 93.3063 0.506987C94.1829 0.844978 94.9012 1.28859 95.461 1.82727C96.0102 2.36594 96.4538 2.9363 96.7707 3.53835C97.0875 4.14039 97.3516 4.8375 97.5417 5.62967C97.922 7.15063 98.1121 8.7244 98.1121 10.3721C98.1121 14.0689 97.4889 16.7623 96.2426 18.4839C94.9962 20.195 92.8415 21.0505 89.789 21.0505C88.078 21.0505 86.6943 20.7759 85.6381 20.2372C84.5819 19.688 83.7158 18.8958 83.0398 17.8396C82.5539 17.0897 82.1631 16.0651 81.8991 14.766C81.6244 13.4668 81.4871 12.0304 81.4871 10.4566M87.0957 10.4672C87.0957 13.0549 87.3175 14.8294 87.7822 15.78C88.2364 16.7306 88.9018 17.2059 89.7785 17.2059C90.3488 17.2059 90.8453 17.0052 91.2678 16.6038C91.6902 16.2025 91.9966 15.5687 92.1972 14.6921C92.3979 13.826 92.493 12.4634 92.493 10.6256C92.493 7.92167 92.2606 6.10497 91.8064 5.17549C91.3523 4.24601 90.6657 3.78128 89.7468 3.78128C88.8279 3.78128 88.1308 4.25658 87.7188 5.20718C87.2964 6.15778 87.0957 7.91111 87.0957 10.4777" fill="#EF4135"/>
<path d="M110.577 0V20.702H104.852V7.14006C103.923 7.84773 103.025 8.40753 102.169 8.85114C101.303 9.2842 100.215 9.70669 98.916 10.0975V5.46067C100.838 4.8375 102.338 4.09814 103.394 3.22148C104.461 2.35538 105.296 1.27803 105.887 0H110.566L110.577 0Z" fill="#EF4135"/>
<path d="M129.588 20.7018H112.625C112.815 19.0224 113.407 17.4486 114.389 15.9699C115.371 14.4912 117.22 12.7484 119.934 10.7416C121.592 9.50582 122.649 8.57635 123.113 7.94261C123.578 7.29832 123.8 6.69627 123.8 6.12591C123.8 5.50274 123.578 4.97463 123.113 4.53101C122.659 4.0874 122.078 3.87616 121.381 3.87616C120.684 3.87616 120.071 4.09796 119.607 4.55214C119.152 5.00632 118.846 5.80904 118.688 6.94976L113.026 6.49559C113.248 4.90069 113.66 3.66491 114.252 2.76712C114.843 1.86933 115.677 1.19335 116.755 0.707489C117.832 0.232189 119.321 -0.0107422 121.233 -0.0107422C123.145 -0.0107422 124.772 0.211065 125.87 0.66524C126.979 1.11942 127.845 1.81652 128.479 2.75656C129.113 3.6966 129.43 4.75282 129.43 5.91467C129.43 7.15045 129.06 8.34398 128.342 9.46357C127.613 10.5937 126.293 11.8295 124.381 13.1815C123.24 13.9631 122.48 14.5229 122.099 14.8292C121.719 15.1461 121.265 15.558 120.747 16.065H129.577V20.6701L129.588 20.7018Z" fill="#EF4135"/>
<path d="M0.622298 22.6348H0.0625V26.8702H0.622298V22.6348Z" fill="#231F20"/>
<path d="M1.28906 26.8702V22.6348H1.86999L4.09862 25.9619V22.6348H4.62673V26.8702H4.05637L1.82774 23.5431V26.8702H1.28906Z" fill="#231F20"/>
<path d="M5.28205 26.8702V22.6348H6.73964C7.06706 22.6348 7.32056 22.6559 7.48955 22.6981C7.73249 22.7509 7.94373 22.8566 8.11273 23.0044C8.33453 23.1946 8.50353 23.4375 8.61971 23.7332C8.72534 24.029 8.78871 24.367 8.78871 24.7366C8.78871 25.0535 8.74646 25.3493 8.67252 25.5922C8.59859 25.8457 8.50353 26.0464 8.38734 26.2048C8.27116 26.3632 8.14441 26.5005 7.99654 26.585C7.85923 26.6801 7.69024 26.7435 7.48955 26.7963C7.28887 26.8491 7.06706 26.8702 6.80301 26.8702H5.27148H5.28205ZM5.84185 26.3738H6.7502C7.03538 26.3738 7.24662 26.3527 7.40506 26.2893C7.56349 26.2365 7.69024 26.1625 7.7853 26.0675C7.91204 25.9302 8.01767 25.7506 8.0916 25.5288C8.16554 25.307 8.20779 25.0324 8.20779 24.7155C8.20779 24.2719 8.13385 23.9339 7.98598 23.691C7.83811 23.4481 7.65855 23.2896 7.45787 23.2157C7.31 23.1523 7.06706 23.1312 6.72907 23.1312H5.84185V26.3738Z" fill="#231F20"/>
<path d="M9.07306 24.8103C9.07306 24.1026 9.26318 23.5534 9.64342 23.1626C10.0237 22.7612 10.5095 22.5605 11.1116 22.5605C11.5024 22.5605 11.8509 22.6556 12.1678 22.8457C12.4847 23.0358 12.717 23.2893 12.886 23.6273C13.055 23.9653 13.129 24.3456 13.129 24.7681C13.129 25.1905 13.0445 25.5813 12.8649 25.9193C12.6853 26.2573 12.4424 26.5214 12.1255 26.6904C11.8087 26.8699 11.4707 26.9544 11.0904 26.9544C10.6891 26.9544 10.3405 26.8594 10.0237 26.6693C9.7068 26.4791 9.47443 26.2151 9.30543 25.8771C9.147 25.5391 9.0625 25.1905 9.0625 24.8209M9.64342 24.8209C9.64342 25.3278 9.78073 25.7292 10.0554 26.025C10.33 26.3207 10.6785 26.4686 11.0904 26.4686C11.5024 26.4686 11.8615 26.3207 12.1361 26.025C12.4107 25.7292 12.548 25.3067 12.548 24.7575C12.548 24.4089 12.4847 24.1132 12.3685 23.8491C12.2523 23.5956 12.0833 23.395 11.8509 23.2471C11.6291 23.1098 11.3756 23.0358 11.0904 23.0358C10.6891 23.0358 10.3511 23.1732 10.0659 23.4478C9.78073 23.7224 9.63286 24.1766 9.63286 24.8103" fill="#231F20"/>
<path d="M13.5508 26.8702V22.6348H14.1317L16.3603 25.9619V22.6348H16.899V26.8702H16.3181L14.0895 23.5431V26.8702H13.5508Z" fill="#231F20"/>
<path d="M17.5547 26.8702V22.6348H20.6177V23.1312H18.1145V24.4303H20.4593V24.9268H18.1145V26.3738H20.7128V26.8702H17.5547Z" fill="#231F20"/>
<path d="M20.8496 25.508L21.3777 25.4658C21.3988 25.677 21.4622 25.846 21.5573 25.9833C21.6523 26.1206 21.7896 26.2263 21.9798 26.3108C22.1699 26.3953 22.3917 26.4375 22.6346 26.4375C22.8459 26.4375 23.036 26.4058 23.205 26.3424C23.3634 26.2791 23.4902 26.1946 23.5747 26.0784C23.6592 25.9622 23.6909 25.846 23.6909 25.7193C23.6909 25.5925 23.6486 25.4763 23.5747 25.3707C23.5007 25.2757 23.374 25.1912 23.1944 25.1172C23.0782 25.075 22.8247 25.001 22.4445 24.906C22.0537 24.8109 21.7791 24.7264 21.6312 24.6419C21.4305 24.5363 21.2827 24.399 21.177 24.2406C21.082 24.0821 21.0292 23.9131 21.0292 23.7124C21.0292 23.5012 21.0925 23.3005 21.2087 23.1104C21.3355 22.9203 21.5045 22.783 21.7368 22.6879C21.9692 22.5928 22.2333 22.54 22.5184 22.54C22.8353 22.54 23.1099 22.5928 23.3529 22.6879C23.5958 22.7935 23.7753 22.9414 23.9021 23.1315C24.0288 23.3322 24.0922 23.554 24.1133 23.7969L23.5747 23.8392C23.543 23.5751 23.4479 23.3639 23.2789 23.2266C23.1099 23.0893 22.867 23.0259 22.5396 23.0259C22.2121 23.0259 21.9586 23.0893 21.8002 23.216C21.6418 23.3428 21.5678 23.4906 21.5678 23.6702C21.5678 23.8181 21.6207 23.9448 21.7368 24.0504C21.8425 24.1455 22.1276 24.2511 22.5818 24.3567C23.036 24.4624 23.3529 24.5469 23.5219 24.6314C23.7648 24.7475 23.9443 24.8849 24.0711 25.0644C24.1873 25.244 24.2506 25.4447 24.2506 25.6665C24.2506 25.8883 24.1873 26.0995 24.0605 26.3002C23.9338 26.5009 23.7437 26.6593 23.5007 26.7649C23.2578 26.8811 22.9832 26.9339 22.6874 26.9339C22.3072 26.9339 21.9798 26.8811 21.7263 26.7649C21.4728 26.6487 21.2615 26.4797 21.1137 26.2579C20.9658 26.0361 20.8919 25.7826 20.8813 25.4975" fill="#231F20"/>
<path d="M25.2864 22.6348H24.7266V26.8702H25.2864V22.6348Z" fill="#231F20"/>
<path d="M25.5184 26.8702L27.145 22.6348H27.747L29.4792 26.8702H28.8349L28.3385 25.5922H26.564L26.0993 26.8702H25.5078H25.5184ZM26.7436 25.1275H28.1801L27.7364 23.955C27.5991 23.5959 27.5041 23.3002 27.4301 23.0784C27.3773 23.353 27.3034 23.6171 27.1978 23.8917L26.733 25.138L26.7436 25.1275Z" fill="#231F20"/>
<path d="M29.6699 26.8702V22.6348H30.2403L32.4689 25.9619V22.6348H33.0076V26.8702H32.4372L30.2086 23.5431V26.8702H29.6699Z" fill="#231F20"/>
<path d="M38.0347 25.391L38.5945 25.5284C38.4783 25.9931 38.2671 26.3416 37.9608 26.5846C37.6545 26.8275 37.2848 26.9437 36.8412 26.9437C36.3976 26.9437 36.0173 26.8486 35.7321 26.6691C35.447 26.479 35.2251 26.2149 35.0773 25.8558C34.9294 25.5072 34.8555 25.127 34.8555 24.7151C34.8555 24.2714 34.94 23.8912 35.109 23.5532C35.278 23.2258 35.5209 22.9723 35.8272 22.8033C36.1441 22.6343 36.4821 22.5498 36.8517 22.5498C37.2742 22.5498 37.6333 22.6554 37.9185 22.8772C38.2037 23.0885 38.4044 23.3948 38.5206 23.7856L37.9713 23.9123C37.8763 23.606 37.7284 23.3737 37.5488 23.2363C37.3587 23.099 37.1264 23.0251 36.8412 23.0251C36.5137 23.0251 36.2391 23.099 36.0279 23.2575C35.8061 23.4159 35.6582 23.6272 35.5631 23.8912C35.4786 24.1553 35.4258 24.4299 35.4258 24.7045C35.4258 25.0636 35.4786 25.3805 35.5843 25.6445C35.6899 25.9192 35.8483 26.1198 36.0701 26.2466C36.2919 26.3839 36.5349 26.4473 36.7884 26.4473C37.1052 26.4473 37.3693 26.3522 37.5911 26.1726C37.8129 25.9931 37.9608 25.729 38.0347 25.3699" fill="#231F20"/>
<path d="M41.6997 22.6348H42.2595V25.0852C42.2595 25.5077 42.2067 25.8457 42.1117 26.0992C42.0166 26.3527 41.8371 26.5534 41.5836 26.7118C41.3301 26.8702 41.0026 26.9442 40.5907 26.9442C40.1788 26.9442 39.8725 26.8808 39.619 26.7435C39.3655 26.6062 39.1859 26.4055 39.0803 26.152C38.9747 25.8879 38.9219 25.5394 38.9219 25.0852V22.6348H39.4817V25.0852C39.4817 25.4549 39.5134 25.7295 39.5873 25.8985C39.6507 26.0781 39.7774 26.2048 39.9359 26.2999C40.1048 26.3949 40.3055 26.4477 40.5485 26.4477C40.9604 26.4477 41.2561 26.3527 41.4357 26.1625C41.6152 25.9724 41.6997 25.6133 41.6997 25.0852V22.6348Z" fill="#231F20"/>
<path d="M42.6406 25.508L43.1687 25.4658C43.1899 25.677 43.2532 25.846 43.3377 25.9833C43.4328 26.1206 43.5701 26.2263 43.7602 26.3108C43.9503 26.3953 44.1721 26.4375 44.4151 26.4375C44.6263 26.4375 44.8164 26.4058 44.9854 26.3424C45.1439 26.2791 45.2706 26.1946 45.3551 26.0784C45.4291 25.9622 45.4713 25.846 45.4713 25.7193C45.4713 25.5925 45.4291 25.4763 45.3551 25.3707C45.2812 25.2757 45.1544 25.1912 44.9749 25.1172C44.8587 25.075 44.6052 25.001 44.225 24.906C43.8342 24.8109 43.5595 24.7264 43.4117 24.6419C43.211 24.5363 43.0631 24.399 42.9575 24.2406C42.8519 24.0821 42.8096 23.9131 42.8096 23.7124C42.8096 23.5012 42.873 23.3005 42.9892 23.1104C43.1159 22.9203 43.2849 22.783 43.5173 22.6879C43.7497 22.5928 44.0137 22.54 44.2989 22.54C44.6158 22.54 44.8904 22.5928 45.1333 22.6879C45.3762 22.7935 45.5558 22.9414 45.6826 23.1315C45.8093 23.3322 45.8832 23.554 45.8938 23.7969L45.3551 23.8392C45.3234 23.5751 45.2284 23.3639 45.0594 23.2266C44.8904 23.0893 44.6474 23.0259 44.32 23.0259C43.9926 23.0259 43.7285 23.0893 43.5807 23.216C43.4222 23.3428 43.3483 23.4906 43.3483 23.6702C43.3483 23.8181 43.4011 23.9448 43.5173 24.0504C43.6229 24.1455 43.9081 24.2511 44.3623 24.3567C44.8164 24.4624 45.1333 24.5469 45.3023 24.6314C45.5452 24.7475 45.7354 24.8849 45.8515 25.0644C45.9677 25.244 46.0311 25.4447 46.0311 25.6665C46.0311 25.8883 45.9677 26.0995 45.841 26.3002C45.7142 26.5009 45.5241 26.6593 45.2812 26.7649C45.0383 26.8811 44.7636 26.9339 44.4679 26.9339C44.0877 26.9339 43.7602 26.8811 43.5067 26.7649C43.2532 26.6487 43.042 26.4797 42.8941 26.2579C42.7462 26.0361 42.6723 25.7826 42.6617 25.4975" fill="#231F20"/>
<path d="M47.445 26.8702V23.1312H46.0508V22.6348H49.4096V23.1312H48.0048V26.8702H47.445Z" fill="#231F20"/>
<path d="M49.3047 24.8103C49.3047 24.1026 49.4948 23.5534 49.875 23.1626C50.2553 22.7612 50.7412 22.5605 51.3432 22.5605C51.734 22.5605 52.0826 22.6556 52.3994 22.8457C52.7163 23.0358 52.9487 23.2893 53.1177 23.6273C53.2761 23.9653 53.3606 24.3456 53.3606 24.7681C53.3606 25.1905 53.2761 25.5813 53.1071 25.9193C52.9275 26.2573 52.6846 26.5214 52.3677 26.6904C52.0509 26.8699 51.7023 26.9544 51.3432 26.9544C50.9418 26.9544 50.5827 26.8594 50.2764 26.6693C49.9595 26.4791 49.7272 26.2151 49.5582 25.8771C49.3997 25.5391 49.3152 25.1905 49.3152 24.8209M49.8962 24.8209C49.8962 25.3278 50.0335 25.7292 50.3081 26.025C50.5827 26.3207 50.9313 26.4686 51.3432 26.4686C51.7551 26.4686 52.1142 26.3207 52.3889 26.025C52.6635 25.7292 52.8008 25.3067 52.8008 24.7575C52.8008 24.4089 52.7374 24.1132 52.6212 23.8491C52.505 23.5956 52.336 23.395 52.1142 23.2471C51.8924 23.1098 51.6389 23.0358 51.3538 23.0358C50.9524 23.0358 50.6144 23.1732 50.3292 23.4478C50.044 23.7224 49.8962 24.1766 49.8962 24.8103" fill="#231F20"/>
<path d="M53.7938 26.8702V22.6348H54.6387L55.6422 25.6344C55.7372 25.9196 55.8006 26.1203 55.8428 26.2576C55.8957 26.0992 55.9696 25.8774 56.0646 25.5816L57.0786 22.6348H57.8285V26.8702H57.2899V23.3213L56.0541 26.8702H55.5471L54.3219 23.2579V26.8702H53.7832H53.7938Z" fill="#231F20"/>
<path d="M58.4727 26.8702V22.6348H61.5357V23.1312H59.0325V24.4303H61.3773V24.9268H59.0325V26.3738H61.6413V26.8702H58.4727Z" fill="#231F20"/>
<path d="M62.0312 26.8702V22.6348H63.9113C64.2916 22.6348 64.5768 22.677 64.7774 22.751C64.9781 22.8249 65.126 22.9622 65.2527 23.1523C65.3689 23.3424 65.4323 23.5537 65.4323 23.7966C65.4323 24.0924 65.3372 24.3458 65.1365 24.5571C64.9464 24.7683 64.6401 24.8951 64.2388 24.9479C64.3866 25.0218 64.5028 25.0958 64.5767 25.1591C64.7352 25.307 64.8936 25.4971 65.0415 25.7189L65.7808 26.8702H65.0732L64.5134 25.983C64.3444 25.7295 64.2176 25.5394 64.112 25.4021C64.0064 25.2648 63.9113 25.1697 63.8268 25.1169C63.7423 25.0641 63.6578 25.0218 63.5733 25.0007C63.51 24.9901 63.4043 24.9796 63.2565 24.9796H62.6016V26.8597H62.0418L62.0312 26.8702ZM62.591 24.5043H63.7951C64.0486 24.5043 64.2493 24.4832 64.3972 24.4198C64.5451 24.367 64.6507 24.2825 64.7246 24.1663C64.7986 24.0501 64.8408 23.9234 64.8408 23.786C64.8408 23.5854 64.7669 23.4164 64.619 23.2896C64.4711 23.1629 64.2388 23.0995 63.9325 23.0995H62.591V24.5043Z" fill="#231F20"/>
<path d="M67.1543 25.508L67.6824 25.4658C67.7035 25.677 67.7669 25.846 67.862 25.9833C67.957 26.1206 68.0943 26.2263 68.2845 26.3108C68.4746 26.3953 68.6964 26.4375 68.9393 26.4375C69.1506 26.4375 69.3407 26.4058 69.5097 26.3424C69.6681 26.2791 69.7949 26.1946 69.8794 26.0784C69.9639 25.9622 69.9955 25.846 69.9955 25.7193C69.9955 25.5925 69.9533 25.4763 69.8794 25.3707C69.8054 25.2757 69.6787 25.1912 69.4991 25.1172C69.3829 25.075 69.1294 25.001 68.7492 24.906C68.3584 24.8109 68.0838 24.7264 67.9359 24.6419C67.7352 24.5363 67.5873 24.399 67.4817 24.2406C67.3867 24.0821 67.3339 23.9131 67.3339 23.7124C67.3339 23.5012 67.3972 23.3005 67.5134 23.1104C67.6296 22.9203 67.8092 22.783 68.0415 22.6879C68.2739 22.5928 68.538 22.54 68.8231 22.54C69.14 22.54 69.4146 22.5928 69.6575 22.6879C69.9005 22.7935 70.08 22.9414 70.2068 23.1315C70.3335 23.3322 70.4075 23.554 70.418 23.7969L69.8794 23.8392C69.8477 23.5751 69.7526 23.3639 69.5836 23.2266C69.4146 23.0893 69.1717 23.0259 68.8443 23.0259C68.5168 23.0259 68.2633 23.0893 68.1049 23.216C67.9465 23.3428 67.8725 23.4906 67.8725 23.6702C67.8725 23.8181 67.9253 23.9448 68.0415 24.0504C68.1471 24.1455 68.4323 24.2511 68.8865 24.3567C69.3407 24.4624 69.6575 24.5469 69.8265 24.6314C70.0695 24.7475 70.2596 24.8849 70.3758 25.0644C70.492 25.244 70.5553 25.4447 70.5553 25.6665C70.5553 25.8883 70.492 26.0995 70.3652 26.3002C70.2385 26.5009 70.0483 26.6593 69.8054 26.7649C69.5625 26.8811 69.2879 26.9339 68.9921 26.9339C68.6119 26.9339 68.2845 26.8811 68.031 26.7649C67.7775 26.6487 67.5662 26.4797 67.4184 26.2579C67.2705 26.0361 67.1965 25.7826 67.186 25.4975" fill="#231F20"/>
<path d="M70.4813 26.8702L72.1078 22.6348H72.7099L74.4421 26.8702H73.7978L73.3014 25.5922H71.5269L71.0622 26.8702H70.4707H70.4813ZM71.7065 25.1275H73.1429L72.6993 23.955C72.562 23.5959 72.467 23.3002 72.393 23.0784C72.3402 23.353 72.2663 23.6171 72.1607 23.8917L71.6959 25.138L71.7065 25.1275Z" fill="#231F20"/>
<path d="M75.1716 26.8702V23.1312H73.7773V22.6348H77.1361V23.1312H75.7314V26.8702H75.1716Z" fill="#231F20"/>
<path d="M77.9914 22.6348H77.4316V26.8702H77.9914V22.6348Z" fill="#231F20"/>
<path d="M78.457 25.508L78.9851 25.4658C79.0063 25.677 79.0696 25.846 79.1647 25.9833C79.2598 26.1206 79.3971 26.2263 79.5872 26.3108C79.7773 26.3953 79.9991 26.4375 80.2421 26.4375C80.4533 26.4375 80.6434 26.4058 80.8124 26.3424C80.9708 26.2791 81.0976 26.1946 81.1821 26.0784C81.2666 25.9622 81.2983 25.846 81.2983 25.7193C81.2983 25.5925 81.256 25.4763 81.1821 25.3707C81.1082 25.2757 80.9814 25.1912 80.8018 25.1172C80.6857 25.075 80.4322 25.001 80.0519 24.906C79.6611 24.8109 79.3865 24.7264 79.2386 24.6419C79.038 24.5363 78.8901 24.399 78.7845 24.2406C78.6894 24.0821 78.6366 23.9131 78.6366 23.7124C78.6366 23.5012 78.7 23.3005 78.8162 23.1104C78.9429 22.9203 79.1119 22.783 79.3443 22.6879C79.5766 22.5928 79.8407 22.54 80.1259 22.54C80.4427 22.54 80.7174 22.5928 80.9603 22.6879C81.2032 22.7935 81.3828 22.9414 81.5095 23.1315C81.6363 23.3322 81.7102 23.554 81.7208 23.7969L81.1821 23.8392C81.1504 23.5751 81.0553 23.3639 80.8863 23.2266C80.7174 23.0893 80.4744 23.0259 80.147 23.0259C79.8196 23.0259 79.5555 23.0893 79.4076 23.216C79.2492 23.3428 79.1753 23.4906 79.1753 23.6702C79.1753 23.8181 79.2281 23.9448 79.3443 24.0504C79.4499 24.1455 79.7351 24.2511 80.1892 24.3567C80.6434 24.4624 80.9603 24.5469 81.1293 24.6314C81.3722 24.7475 81.5623 24.8849 81.6785 25.0644C81.7947 25.244 81.8581 25.4447 81.8581 25.6665C81.8581 25.8883 81.7947 26.0995 81.668 26.3002C81.5412 26.5009 81.3511 26.6593 81.1082 26.7649C80.8652 26.8811 80.5906 26.9339 80.2949 26.9339C79.9146 26.9339 79.5872 26.8811 79.3337 26.7649C79.0802 26.6487 78.869 26.4797 78.7211 26.2579C78.5732 26.0361 78.4993 25.7826 78.4887 25.4975" fill="#231F20"/>
<path d="M82.3008 26.8702V22.6348H85.1526V23.1312H82.8606V24.4515H84.8463V24.9479H82.8606V26.8702H82.3008Z" fill="#231F20"/>
<path d="M84.7402 26.8702L86.3668 22.6348H86.9689L88.7011 26.8702H88.0673L87.5709 25.5922H85.7965L85.3317 26.8702H84.7402ZM85.9654 25.1275H87.4019L86.9583 23.955C86.821 23.5959 86.7259 23.3002 86.6626 23.0784C86.6097 23.353 86.5358 23.6171 86.4302 23.8917L85.9654 25.138V25.1275Z" fill="#231F20"/>
<path d="M91.7124 25.391L92.2722 25.5284C92.1561 25.9931 91.9448 26.3416 91.6385 26.5846C91.3322 26.8275 90.9625 26.9437 90.5189 26.9437C90.0753 26.9437 89.6951 26.8486 89.4099 26.6691C89.1247 26.479 88.9029 26.2149 88.755 25.8558C88.6071 25.5072 88.5332 25.127 88.5332 24.7151C88.5332 24.2714 88.6177 23.8912 88.7867 23.5532C88.9557 23.2258 89.1986 22.9723 89.5049 22.8033C89.8218 22.6343 90.1598 22.5498 90.5295 22.5498C90.952 22.5498 91.3111 22.6554 91.5963 22.8772C91.8814 23.0885 92.0821 23.3948 92.1983 23.7856L91.6491 23.9123C91.554 23.606 91.4061 23.3737 91.2266 23.2363C91.0365 23.099 90.8041 23.0251 90.5189 23.0251C90.1915 23.0251 89.9169 23.099 89.7056 23.2575C89.4838 23.4159 89.3359 23.6272 89.2409 23.8912C89.1564 24.1553 89.1036 24.4299 89.1036 24.7045C89.1036 25.0636 89.1564 25.3805 89.262 25.6445C89.3676 25.9192 89.5261 26.1198 89.7479 26.2466C89.9697 26.3839 90.2126 26.4473 90.4661 26.4473C90.783 26.4473 91.047 26.3522 91.2688 26.1726C91.4906 25.9931 91.6385 25.729 91.7124 25.3699" fill="#231F20"/>
<path d="M93.6344 26.8702V23.1312H92.2402V22.6348H95.599V23.1312H94.1942V26.8702H93.6344Z" fill="#231F20"/>
<path d="M96.4543 22.6348H95.8945V26.8702H96.4543V22.6348Z" fill="#231F20"/>
<path d="M96.9508 24.8103C96.9508 24.1026 97.1409 23.5534 97.5212 23.1626C97.9014 22.7612 98.3873 22.5605 98.9788 22.5605C99.3696 22.5605 99.7287 22.6556 100.035 22.8457C100.352 23.0358 100.584 23.2893 100.753 23.6273C100.922 23.9653 100.996 24.3456 100.996 24.7681C100.996 25.1905 100.912 25.5813 100.732 25.9193C100.553 26.2573 100.31 26.5214 99.9927 26.6904C99.6759 26.8699 99.3273 26.9544 98.9576 26.9544C98.5563 26.9544 98.2077 26.8594 97.8909 26.6693C97.574 26.4791 97.3416 26.2151 97.1726 25.8771C97.0142 25.5391 96.9297 25.1905 96.9297 24.8209M97.5106 24.8209C97.5106 25.3278 97.6479 25.7292 97.9225 26.025C98.1972 26.3207 98.5457 26.4686 98.9576 26.4686C99.3696 26.4686 99.7287 26.3207 100.003 26.025C100.278 25.7292 100.415 25.3067 100.415 24.7575C100.415 24.4089 100.352 24.1132 100.236 23.8491C100.119 23.5956 99.9505 23.395 99.7181 23.2471C99.4963 23.1098 99.2428 23.0358 98.9576 23.0358C98.5563 23.0358 98.2183 23.1732 97.9331 23.4478C97.6479 23.7224 97.5 24.1766 97.5 24.8103" fill="#231F20"/>
<path d="M101.43 26.8702V22.6348H102.011L104.229 25.9619V22.6348H104.767V26.8702H104.197L101.968 23.5431V26.8702H101.43Z" fill="#231F20"/>
<path d="M106.299 26.8702L107.925 22.6348H108.527L110.26 26.8702H109.626L109.13 25.5922H107.355L106.89 26.8702H106.299ZM107.524 25.1275H108.961L108.517 23.955C108.38 23.5959 108.285 23.3002 108.221 23.0784C108.168 23.353 108.094 23.6171 107.989 23.8917L107.524 25.138V25.1275Z" fill="#231F20"/>
<path d="M110.925 26.8702L109.795 22.6348H110.376L111.02 25.4126C111.084 25.7084 111.147 25.9936 111.2 26.2787C111.305 25.8246 111.369 25.5605 111.39 25.4971L112.193 22.6348H112.869L113.481 24.7789C113.629 25.307 113.745 25.814 113.809 26.2787C113.861 26.0147 113.935 25.7084 114.02 25.3598L114.685 22.6348H115.256L114.094 26.8702H113.555L112.657 23.6382C112.583 23.3741 112.541 23.2051 112.531 23.1418C112.488 23.3319 112.446 23.5009 112.404 23.6382L111.506 26.8702H110.936H110.925Z" fill="#231F20"/>
<path d="M114.768 26.8702L116.395 22.6348H116.997L118.729 26.8702H118.085L117.588 25.5922H115.814L115.349 26.8702H114.758H114.768ZM115.994 25.1275H117.43L116.986 23.955C116.849 23.5959 116.754 23.3002 116.68 23.0784C116.627 23.353 116.553 23.6171 116.458 23.8917L115.994 25.138V25.1275Z" fill="#231F20"/>
<path d="M118.932 26.8702V22.6348H120.812C121.192 22.6348 121.477 22.677 121.678 22.751C121.879 22.8249 122.026 22.9622 122.153 23.1523C122.269 23.3424 122.333 23.5537 122.333 23.7966C122.333 24.0924 122.238 24.3458 122.037 24.5571C121.847 24.7683 121.541 24.8951 121.139 24.9479C121.287 25.0218 121.403 25.0958 121.477 25.1591C121.636 25.307 121.794 25.4971 121.942 25.7189L122.681 26.8702H121.974L121.414 25.983C121.245 25.7295 121.118 25.5394 121.012 25.4021C120.907 25.2648 120.812 25.1697 120.727 25.1169C120.643 25.0641 120.558 25.0218 120.474 25.0007C120.41 24.9901 120.305 24.9796 120.157 24.9796H119.513V26.8597H118.953L118.932 26.8702ZM119.491 24.5043H120.696C120.949 24.5043 121.15 24.4832 121.298 24.4198C121.445 24.367 121.551 24.2825 121.625 24.1663C121.699 24.0501 121.741 23.9234 121.741 23.786C121.741 23.5854 121.667 23.4164 121.519 23.2896C121.372 23.1629 121.139 23.0995 120.833 23.0995H119.491V24.5043Z" fill="#231F20"/>
<path d="M122.903 26.8702V22.6348H124.361C124.688 22.6348 124.942 22.6559 125.111 22.6981C125.354 22.7509 125.565 22.8566 125.734 23.0044C125.956 23.1946 126.125 23.4375 126.241 23.7332C126.357 24.029 126.41 24.367 126.41 24.7366C126.41 25.0535 126.368 25.3493 126.294 25.5922C126.22 25.8457 126.125 26.0464 126.008 26.2048C125.892 26.3632 125.766 26.5005 125.618 26.585C125.48 26.6801 125.311 26.7435 125.111 26.7963C124.91 26.8491 124.688 26.8702 124.424 26.8702H122.893H122.903ZM123.463 26.3738H124.371C124.656 26.3738 124.868 26.3527 125.026 26.2893C125.185 26.2365 125.311 26.1625 125.406 26.0675C125.533 25.9302 125.639 25.7506 125.713 25.5288C125.787 25.307 125.818 25.0324 125.818 24.7155C125.818 24.2719 125.744 23.9339 125.597 23.691C125.449 23.4481 125.269 23.2896 125.068 23.2157C124.921 23.1523 124.678 23.1312 124.34 23.1312H123.452V26.3738H123.463Z" fill="#231F20"/>
<path d="M126.631 25.508L127.159 25.4658C127.18 25.677 127.243 25.846 127.339 25.9833C127.434 26.1206 127.571 26.2263 127.761 26.3108C127.951 26.3953 128.173 26.4375 128.416 26.4375C128.627 26.4375 128.817 26.4058 128.986 26.3424C129.145 26.2791 129.271 26.1946 129.356 26.0784C129.44 25.9622 129.472 25.846 129.472 25.7193C129.472 25.5925 129.43 25.4763 129.356 25.3707C129.282 25.2757 129.155 25.1912 128.976 25.1172C128.859 25.075 128.606 25.001 128.226 24.906C127.835 24.8109 127.56 24.7264 127.412 24.6419C127.212 24.5363 127.064 24.399 126.958 24.2406C126.863 24.0821 126.81 23.9131 126.81 23.7124C126.81 23.5012 126.874 23.3005 126.99 23.1104C127.117 22.9203 127.286 22.783 127.518 22.6879C127.75 22.5928 128.015 22.54 128.3 22.54C128.617 22.54 128.891 22.5928 129.134 22.6879C129.377 22.7935 129.557 22.9414 129.683 23.1315C129.81 23.3322 129.884 23.554 129.895 23.7969L129.356 23.8392C129.324 23.5751 129.229 23.3639 129.06 23.2266C128.891 23.0893 128.648 23.0259 128.321 23.0259C127.993 23.0259 127.729 23.0893 127.581 23.216C127.423 23.3428 127.349 23.4906 127.349 23.6702C127.349 23.8181 127.402 23.9448 127.518 24.0504C127.624 24.1455 127.909 24.2511 128.363 24.3567C128.817 24.4624 129.134 24.5469 129.303 24.6314C129.546 24.7475 129.736 24.8849 129.852 25.0644C129.969 25.244 130.032 25.4447 130.032 25.6665C130.032 25.8883 129.969 26.0995 129.842 26.3002C129.715 26.5009 129.525 26.6593 129.282 26.7649C129.039 26.8811 128.764 26.9339 128.469 26.9339C128.088 26.9339 127.761 26.8811 127.508 26.7649C127.254 26.6487 127.043 26.4797 126.895 26.2579C126.747 26.0361 126.673 25.7826 126.663 25.4975" fill="#231F20"/>
<path d="M17.6816 14.0899C17.6816 14.0899 19.361 12.4211 19.361 10.372C19.361 8.32295 17.6816 6.64355 17.6816 6.64355C17.6816 6.64355 18.7167 8.71375 18.7167 10.372C18.7167 12.1465 17.6816 14.0899 17.6816 14.0899Z" fill="#231F20"/>
<path d="M15.959 8.12209C15.959 8.50233 15.6527 8.80864 15.2725 8.80864C14.8922 8.80864 14.5859 8.50233 14.5859 8.12209C14.5859 7.74185 14.8922 7.43555 15.2725 7.43555C15.6527 7.43555 15.959 7.74185 15.959 8.12209Z" fill="#231F20"/>
<path d="M15.959 12.4209C15.959 12.8012 15.6527 13.1075 15.2725 13.1075C14.8922 13.1075 14.5859 12.8012 14.5859 12.4209C14.5859 12.0407 14.8922 11.7344 15.2725 11.7344C15.6527 11.7344 15.959 12.0407 15.959 12.4209Z" fill="#231F20"/>
<path d="M0.622298 66.9648H0.0625V71.2003H0.622298V66.9648Z" fill="#231F20"/>
<path d="M1.28906 71.2003V66.9648H1.86999L4.09862 70.2919V66.9648H4.62673V71.2003H4.05637L1.82774 67.8732V71.2003H1.28906Z" fill="#231F20"/>
<path d="M5.28205 71.2003V66.9648H6.73964C7.06706 66.9648 7.32056 66.986 7.48955 67.0282C7.73249 67.081 7.94373 67.1866 8.11273 67.3345C8.33453 67.5246 8.50353 67.7676 8.61971 68.0633C8.72534 68.3591 8.78871 68.697 8.78871 69.0667C8.78871 69.3836 8.74646 69.6793 8.67252 69.9223C8.59859 70.1758 8.50353 70.3764 8.38734 70.5454C8.27116 70.7039 8.14441 70.8412 7.99654 70.9257C7.85923 71.0207 7.69024 71.0841 7.48955 71.1369C7.28887 71.1792 7.06706 71.2109 6.80301 71.2109H5.27148L5.28205 71.2003ZM5.84185 70.7039H6.7502C7.03538 70.7039 7.24662 70.6827 7.40506 70.6299C7.56349 70.5771 7.69024 70.5032 7.7853 70.4081C7.91204 70.2708 8.01767 70.1018 8.0916 69.8695C8.16554 69.6476 8.20779 69.373 8.20779 69.0562C8.20779 68.6125 8.13385 68.2746 7.98598 68.0316C7.83811 67.7993 7.65855 67.6303 7.45787 67.5563C7.31 67.493 7.06706 67.4718 6.72907 67.4718H5.84185V70.7144V70.7039Z" fill="#231F20"/>
<path d="M9.07306 69.1298C9.07306 68.4221 9.26318 67.8729 9.64342 67.4821C10.0237 67.0807 10.5095 66.8906 11.1116 66.8906C11.5024 66.8906 11.8509 66.9857 12.1678 67.1758C12.4847 67.3659 12.717 67.6194 12.886 67.9574C13.055 68.2954 13.129 68.6756 13.129 69.0981C13.129 69.5206 13.0445 69.9114 12.8649 70.2494C12.6853 70.5874 12.4424 70.8515 12.1255 71.0205C11.8087 71.2 11.4707 71.2845 11.0904 71.2845C10.6891 71.2845 10.3405 71.1895 10.0237 70.9993C9.7068 70.8092 9.47443 70.5452 9.30543 70.2072C9.147 69.8692 9.0625 69.5206 9.0625 69.1509M9.64342 69.1509C9.64342 69.6579 9.78073 70.0699 10.0554 70.3656C10.33 70.6613 10.6785 70.8092 11.0904 70.8092C11.5024 70.8092 11.8615 70.6613 12.1361 70.3656C12.4107 70.0699 12.548 69.6474 12.548 69.0981C12.548 68.7496 12.4847 68.4538 12.3685 68.1898C12.2523 67.9363 12.0833 67.7356 11.8509 67.5877C11.6291 67.4504 11.3756 67.3765 11.0904 67.3765C10.6891 67.3765 10.3511 67.5138 10.0659 67.7884C9.78073 68.063 9.63286 68.5172 9.63286 69.1509" fill="#231F20"/>
<path d="M13.5508 71.2003V66.9648H14.1317L16.3603 70.2919V66.9648H16.899V71.2003H16.3181L14.0895 67.8732V71.2003H13.5508Z" fill="#231F20"/>
<path d="M17.5547 71.2003V66.9648H20.6177V67.4613H18.1145V68.7604H20.4593V69.2568H18.1145V70.7039H20.7128V71.2003H17.5547Z" fill="#231F20"/>
<path d="M20.8496 69.8381L21.3777 69.7959C21.3988 70.0071 21.4622 70.1761 21.5573 70.3134C21.6523 70.4507 21.7896 70.5669 21.9798 70.6408C22.1699 70.7253 22.3917 70.7676 22.6346 70.7676C22.8459 70.7676 23.036 70.7359 23.205 70.6725C23.3634 70.6091 23.4902 70.5246 23.5747 70.4085C23.6592 70.3028 23.6909 70.1761 23.6909 70.0493C23.6909 69.9226 23.6486 69.8064 23.5747 69.7008C23.5007 69.6057 23.374 69.5212 23.1944 69.4473C23.0782 69.405 22.8247 69.3311 22.4445 69.2361C22.0537 69.141 21.7791 69.0565 21.6312 68.972C21.4305 68.8664 21.2827 68.7291 21.177 68.5706C21.082 68.4122 21.0292 68.2432 21.0292 68.0425C21.0292 67.8313 21.0925 67.6306 21.2087 67.4405C21.3355 67.2504 21.5045 67.113 21.7368 67.018C21.9692 66.9229 22.2333 66.8701 22.5184 66.8701C22.8353 66.8701 23.1099 66.9229 23.3529 67.018C23.5958 67.1236 23.7753 67.2715 23.9021 67.4616C24.0288 67.6623 24.0922 67.8841 24.1133 68.127L23.5747 68.1693C23.543 67.9052 23.4479 67.694 23.2789 67.5672C23.1099 67.4299 22.867 67.3665 22.5396 67.3665C22.2121 67.3665 21.9586 67.4299 21.8002 67.5567C21.6418 67.6834 21.5678 67.8313 21.5678 68.0003C21.5678 68.1587 21.6207 68.2749 21.7368 68.3805C21.8425 68.4756 22.1276 68.5812 22.5818 68.6868C23.036 68.7924 23.3529 68.8769 23.5219 68.9614C23.7648 69.0776 23.9443 69.2149 24.0711 69.3945C24.1873 69.5635 24.2506 69.7642 24.2506 69.9965C24.2506 70.2289 24.1873 70.4296 24.0605 70.6303C23.9338 70.831 23.7437 70.9894 23.5007 71.095C23.2578 71.2112 22.9832 71.264 22.6874 71.264C22.3072 71.264 21.9798 71.2112 21.7263 71.095C21.4728 70.9788 21.2615 70.8204 21.1137 70.588C20.9658 70.3662 20.8919 70.1127 20.8813 69.8275" fill="#231F20"/>
<path d="M25.2864 66.9648H24.7266V71.2003H25.2864V66.9648Z" fill="#231F20"/>
<path d="M25.5184 71.2003L27.145 66.9648H27.747L29.4792 71.2003H28.8349L28.3385 69.9223H26.564L26.0993 71.2003H25.5078H25.5184ZM26.7436 69.4575H28.1801L27.7364 68.2851C27.5991 67.926 27.5041 67.6303 27.4301 67.4085C27.3773 67.6831 27.3034 67.9471 27.1978 68.2217L26.733 69.4681L26.7436 69.4575Z" fill="#231F20"/>
<path d="M29.6699 71.2003V66.9648H30.2403L32.4689 70.2919V66.9648H33.0076V71.2003H32.4372L30.2086 67.8732V71.2003H29.6699Z" fill="#231F20"/>
<path d="M38.0347 69.7114L38.5945 69.8487C38.4783 70.3134 38.2671 70.662 37.9608 70.9049C37.6545 71.1478 37.2848 71.264 36.8412 71.264C36.3976 71.264 36.0173 71.1689 35.7321 70.9894C35.447 70.7993 35.2251 70.5352 35.0773 70.1761C34.9294 69.8275 34.8555 69.4473 34.8555 69.0354C34.8555 68.5918 34.94 68.2115 35.109 67.8735C35.278 67.5461 35.5209 67.2926 35.8272 67.1236C36.1441 66.9546 36.4821 66.8701 36.8517 66.8701C37.2742 66.8701 37.6333 66.9757 37.9185 67.1975C38.2037 67.4194 38.4044 67.7151 38.5206 68.1059L37.9713 68.2326C37.8763 67.9263 37.7284 67.694 37.5488 67.5567C37.3587 67.4194 37.1264 67.3454 36.8412 67.3454C36.5137 67.3454 36.2391 67.4194 36.0279 67.5778C35.8061 67.7362 35.6582 67.9475 35.5631 68.2115C35.4786 68.4756 35.4258 68.7502 35.4258 69.0248C35.4258 69.3839 35.4786 69.7008 35.5843 69.9754C35.6899 70.25 35.8483 70.4401 36.0701 70.5775C36.2919 70.7148 36.5349 70.7781 36.7884 70.7781C37.1052 70.7781 37.3693 70.6831 37.5911 70.5035C37.8129 70.324 37.9608 70.0599 38.0347 69.7008" fill="#231F20"/>
<path d="M41.6997 66.9648H42.2595V69.4153C42.2595 69.8378 42.2067 70.1758 42.1117 70.4293C42.0166 70.6827 41.8371 70.8834 41.5836 71.0419C41.3301 71.2003 41.0026 71.2742 40.5907 71.2742C40.1788 71.2742 39.8725 71.2109 39.619 71.0735C39.3655 70.9362 39.1859 70.7356 39.0803 70.4821C38.9747 70.2286 38.9219 69.8695 38.9219 69.4258V66.9754H39.4817V69.4258C39.4817 69.7955 39.5134 70.0701 39.5873 70.2391C39.6507 70.4081 39.7774 70.5454 39.9359 70.6405C40.1048 70.7356 40.3055 70.7884 40.5485 70.7884C40.9604 70.7884 41.2561 70.6933 41.4357 70.5032C41.6152 70.3131 41.6997 69.954 41.6997 69.4258V66.9754V66.9648Z" fill="#231F20"/>
<path d="M42.6406 69.8381L43.1687 69.7959C43.1899 70.0071 43.2532 70.1761 43.3377 70.3134C43.4328 70.4507 43.5701 70.5669 43.7602 70.6408C43.9503 70.7253 44.1721 70.7676 44.4151 70.7676C44.6263 70.7676 44.8164 70.7359 44.9854 70.6725C45.1439 70.6091 45.2706 70.5246 45.3551 70.4085C45.4291 70.3028 45.4713 70.1761 45.4713 70.0493C45.4713 69.9226 45.4291 69.8064 45.3551 69.7008C45.2812 69.6057 45.1544 69.5212 44.9749 69.4473C44.8587 69.405 44.6052 69.3311 44.225 69.2361C43.8342 69.141 43.5595 69.0565 43.4117 68.972C43.211 68.8664 43.0631 68.7291 42.9575 68.5706C42.8519 68.4122 42.8096 68.2432 42.8096 68.0425C42.8096 67.8313 42.873 67.6306 42.9892 67.4405C43.1159 67.2504 43.2849 67.113 43.5173 67.018C43.7497 66.9229 44.0137 66.8701 44.2989 66.8701C44.6158 66.8701 44.8904 66.9229 45.1333 67.018C45.3762 67.1236 45.5558 67.2715 45.6826 67.4616C45.8093 67.6623 45.8832 67.8841 45.8938 68.127L45.3551 68.1693C45.3234 67.9052 45.2284 67.694 45.0594 67.5672C44.8904 67.4299 44.6474 67.3665 44.32 67.3665C43.9926 67.3665 43.7285 67.4299 43.5807 67.5567C43.4222 67.6834 43.3483 67.8313 43.3483 68.0003C43.3483 68.1587 43.4011 68.2749 43.5173 68.3805C43.6229 68.4756 43.9081 68.5812 44.3623 68.6868C44.8164 68.7924 45.1333 68.8769 45.3023 68.9614C45.5452 69.0776 45.7354 69.2149 45.8515 69.3945C45.9677 69.5635 46.0311 69.7642 46.0311 69.9965C46.0311 70.2289 45.9677 70.4296 45.841 70.6303C45.7142 70.831 45.5241 70.9894 45.2812 71.095C45.0383 71.2112 44.7636 71.264 44.4679 71.264C44.0877 71.264 43.7602 71.2112 43.5067 71.095C43.2532 70.9788 43.042 70.8204 42.8941 70.588C42.7462 70.3662 42.6723 70.1127 42.6617 69.8275" fill="#231F20"/>
<path d="M47.445 71.2003V67.4613H46.0508V66.9648H49.4096V67.4613H48.0048V71.2003H47.445Z" fill="#231F20"/>
<path d="M49.3047 69.1298C49.3047 68.4221 49.4948 67.8729 49.875 67.4821C50.2553 67.0807 50.7412 66.8906 51.3432 66.8906C51.734 66.8906 52.0826 66.9857 52.3994 67.1758C52.7163 67.3659 52.9487 67.6194 53.1177 67.9574C53.2761 68.2954 53.3606 68.6756 53.3606 69.0981C53.3606 69.5206 53.2761 69.9114 53.1071 70.2494C52.9275 70.5874 52.6846 70.8515 52.3677 71.0205C52.0509 71.2 51.7023 71.2845 51.3432 71.2845C50.9418 71.2845 50.5827 71.1895 50.2764 70.9993C49.9595 70.8092 49.7272 70.5452 49.5582 70.2072C49.3997 69.8692 49.3152 69.5206 49.3152 69.1509M49.8962 69.1509C49.8962 69.6579 50.0335 70.0699 50.3081 70.3656C50.5827 70.6613 50.9313 70.8092 51.3432 70.8092C51.7551 70.8092 52.1142 70.6613 52.3889 70.3656C52.6635 70.0699 52.8008 69.6474 52.8008 69.0981C52.8008 68.7496 52.7374 68.4538 52.6212 68.1898C52.505 67.9363 52.336 67.7356 52.1142 67.5877C51.8924 67.4504 51.6389 67.3765 51.3538 67.3765C50.9524 67.3765 50.6144 67.5138 50.3292 67.7884C50.044 68.063 49.8962 68.5172 49.8962 69.1509Z" fill="#231F20"/>
<path d="M53.7938 71.2003V66.9648H54.6387L55.6422 69.9645C55.7372 70.2497 55.8006 70.4504 55.8428 70.5877C55.8957 70.4293 55.9696 70.2074 56.0646 69.9117L57.0786 66.9648H57.8285V71.2003H57.2899V67.6514L56.0541 71.2003H55.5471L54.3219 67.588V71.2003H53.7832H53.7938Z" fill="#231F20"/>
<path d="M58.4727 71.2003V66.9648H61.5357V67.4613H59.0325V68.7604H61.3773V69.2568H59.0325V70.7039H61.6413V71.2003H58.4727Z" fill="#231F20"/>
<path d="M62.0312 71.2003V66.9648H63.9113C64.2916 66.9648 64.5768 67.0071 64.7774 67.081C64.9781 67.155 65.126 67.2923 65.2527 67.4824C65.3689 67.6725 65.4323 67.8838 65.4323 68.1267C65.4323 68.4224 65.3372 68.6759 65.1365 68.8872C64.9464 69.0984 64.6401 69.2252 64.2388 69.278C64.3866 69.3519 64.5028 69.4153 64.5767 69.4892C64.7352 69.6371 64.8936 69.8272 65.0415 70.049L65.7808 71.2003H65.0732L64.5134 70.3131C64.3444 70.0596 64.2176 69.8695 64.112 69.7321C64.0064 69.5948 63.9113 69.4998 63.8268 69.447C63.7423 69.3942 63.6578 69.3519 63.5733 69.3308C63.51 69.3202 63.4043 69.3097 63.2565 69.3097H62.6016V71.1897H62.0418L62.0312 71.2003ZM62.591 68.8344H63.7951C64.0486 68.8344 64.2493 68.8132 64.3972 68.7604C64.5451 68.7076 64.6507 68.6231 64.7246 68.5069C64.7986 68.3907 64.8408 68.264 64.8408 68.1267C64.8408 67.926 64.7669 67.757 64.619 67.6303C64.4711 67.5035 64.2388 67.4401 63.9325 67.4401H62.591V68.8449V68.8344Z" fill="#231F20"/>
<path d="M67.1543 69.8381L67.6824 69.7959C67.7035 70.0071 67.7669 70.1761 67.862 70.3134C67.957 70.4507 68.0943 70.5669 68.2845 70.6408C68.4746 70.7253 68.6964 70.7676 68.9393 70.7676C69.1506 70.7676 69.3407 70.7359 69.5097 70.6725C69.6681 70.6091 69.7949 70.5246 69.8794 70.4085C69.9639 70.3028 69.9955 70.1761 69.9955 70.0493C69.9955 69.9226 69.9533 69.8064 69.8794 69.7008C69.8054 69.6057 69.6787 69.5212 69.4991 69.4473C69.3829 69.405 69.1294 69.3311 68.7492 69.2361C68.3584 69.141 68.0838 69.0565 67.9359 68.972C67.7352 68.8664 67.5873 68.7291 67.4817 68.5706C67.3867 68.4122 67.3339 68.2432 67.3339 68.0425C67.3339 67.8313 67.3972 67.6306 67.5134 67.4405C67.6296 67.2504 67.8092 67.113 68.0415 67.018C68.2739 66.9229 68.538 66.8701 68.8231 66.8701C69.14 66.8701 69.4146 66.9229 69.6575 67.018C69.9005 67.1236 70.08 67.2715 70.2068 67.4616C70.3335 67.6623 70.4075 67.8841 70.418 68.127L69.8794 68.1693C69.8477 67.9052 69.7526 67.694 69.5836 67.5672C69.4146 67.4299 69.1717 67.3665 68.8443 67.3665C68.5168 67.3665 68.2633 67.4299 68.1049 67.5567C67.9465 67.6834 67.8725 67.8313 67.8725 68.0003C67.8725 68.1587 67.9253 68.2749 68.0415 68.3805C68.1471 68.4756 68.4323 68.5812 68.8865 68.6868C69.3407 68.7924 69.6575 68.8769 69.8265 68.9614C70.0695 69.0776 70.2596 69.2149 70.3758 69.3945C70.492 69.5635 70.5553 69.7642 70.5553 69.9965C70.5553 70.2289 70.492 70.4296 70.3652 70.6303C70.2385 70.831 70.0483 70.9894 69.8054 71.095C69.5625 71.2112 69.2879 71.264 68.9921 71.264C68.6119 71.264 68.2845 71.2112 68.031 71.095C67.7775 70.9788 67.5662 70.8204 67.4184 70.588C67.2705 70.3662 67.1965 70.1127 67.186 69.8275" fill="#231F20"/>
<path d="M70.4813 71.2003L72.1078 66.9648H72.7099L74.4421 71.2003H73.7978L73.3014 69.9223H71.5269L71.0622 71.2003H70.4707H70.4813ZM71.7065 69.4575H73.1429L72.6993 68.2851C72.562 67.926 72.467 67.6303 72.393 67.4085C72.3402 67.6831 72.2663 67.9471 72.1607 68.2217L71.6959 69.4681L71.7065 69.4575Z" fill="#231F20"/>
<path d="M75.1716 71.2003V67.4613H73.7773V66.9648H77.1361V67.4613H75.7314V71.2003H75.1716Z" fill="#231F20"/>
<path d="M77.9914 66.9648H77.4316V71.2003H77.9914V66.9648Z" fill="#231F20"/>
<path d="M78.457 69.8381L78.9851 69.7959C79.0063 70.0071 79.0696 70.1761 79.1647 70.3134C79.2598 70.4507 79.3971 70.5669 79.5872 70.6408C79.7773 70.7253 79.9991 70.7676 80.2421 70.7676C80.4533 70.7676 80.6434 70.7359 80.8124 70.6725C80.9708 70.6091 81.0976 70.5246 81.1821 70.4085C81.2666 70.3028 81.2983 70.1761 81.2983 70.0493C81.2983 69.9226 81.256 69.8064 81.1821 69.7008C81.1082 69.6057 80.9814 69.5212 80.8018 69.4473C80.6857 69.405 80.4322 69.3311 80.0519 69.2361C79.6611 69.141 79.3865 69.0565 79.2386 68.972C79.038 68.8664 78.8901 68.7291 78.7845 68.5706C78.6894 68.4122 78.6366 68.2432 78.6366 68.0425C78.6366 67.8313 78.7 67.6306 78.8162 67.4405C78.9429 67.2504 79.1119 67.113 79.3443 67.018C79.5766 66.9229 79.8407 66.8701 80.1259 66.8701C80.4427 66.8701 80.7174 66.9229 80.9603 67.018C81.2032 67.1236 81.3828 67.2715 81.5095 67.4616C81.6363 67.6623 81.7102 67.8841 81.7208 68.127L81.1821 68.1693C81.1504 67.9052 81.0553 67.694 80.8863 67.5672C80.7174 67.4299 80.4744 67.3665 80.147 67.3665C79.8196 67.3665 79.5555 67.4299 79.4076 67.5567C79.2492 67.6834 79.1753 67.8313 79.1753 68.0003C79.1753 68.1587 79.2281 68.2749 79.3443 68.3805C79.4499 68.4756 79.7351 68.5812 80.1892 68.6868C80.6434 68.7924 80.9603 68.8769 81.1293 68.9614C81.3722 69.0776 81.5623 69.2149 81.6785 69.3945C81.7947 69.5635 81.8581 69.7642 81.8581 69.9965C81.8581 70.2289 81.7947 70.4296 81.668 70.6303C81.5412 70.831 81.3511 70.9894 81.1082 71.095C80.8652 71.2112 80.5906 71.264 80.2949 71.264C79.9146 71.264 79.5872 71.2112 79.3337 71.095C79.0802 70.9788 78.869 70.8204 78.7211 70.588C78.5732 70.3662 78.4993 70.1127 78.4887 69.8275" fill="#231F20"/>
<path d="M82.3008 71.2003V66.9648H85.1526V67.4613H82.8606V68.771H84.8463V69.278H82.8606V71.2003H82.3008Z" fill="#231F20"/>
<path d="M84.7402 71.2003L86.3668 66.9648H86.9689L88.7011 71.2003H88.0673L87.5709 69.9223H85.7965L85.3317 71.2003H84.7402ZM85.9654 69.4575H87.4019L86.9583 68.2851C86.821 67.926 86.7259 67.6303 86.6626 67.4085C86.6097 67.6831 86.5358 67.9471 86.4302 68.2217L85.9654 69.4681V69.4575Z" fill="#231F20"/>
<path d="M91.7124 69.7114L92.2722 69.8487C92.1561 70.3134 91.9448 70.662 91.6385 70.9049C91.3322 71.1478 90.9625 71.264 90.5189 71.264C90.0753 71.264 89.6951 71.1689 89.4099 70.9894C89.1247 70.7993 88.9029 70.5352 88.755 70.1761C88.6071 69.8275 88.5332 69.4473 88.5332 69.0354C88.5332 68.5918 88.6177 68.2115 88.7867 67.8735C88.9557 67.5461 89.1986 67.2926 89.5049 67.1236C89.8218 66.9546 90.1598 66.8701 90.5295 66.8701C90.952 66.8701 91.3111 66.9757 91.5963 67.1975C91.8814 67.4194 92.0821 67.7151 92.1983 68.1059L91.6491 68.2326C91.554 67.9263 91.4061 67.694 91.2266 67.5567C91.0365 67.4194 90.8041 67.3454 90.5189 67.3454C90.1915 67.3454 89.9169 67.4194 89.7056 67.5778C89.4838 67.7362 89.3359 67.9475 89.2409 68.2115C89.1564 68.4756 89.1036 68.7502 89.1036 69.0248C89.1036 69.3839 89.1564 69.7008 89.262 69.9754C89.3676 70.25 89.5261 70.4401 89.7479 70.5775C89.9697 70.7148 90.2126 70.7781 90.4661 70.7781C90.783 70.7781 91.047 70.6831 91.2688 70.5035C91.4906 70.324 91.6385 70.0599 91.7124 69.7008" fill="#231F20"/>
<path d="M93.6344 71.2003V67.4613H92.2402V66.9648H95.599V67.4613H94.1942V71.2003H93.6344Z" fill="#231F20"/>
<path d="M96.4543 66.9648H95.8945V71.2003H96.4543V66.9648Z" fill="#231F20"/>
<path d="M96.9508 69.1298C96.9508 68.4221 97.1409 67.8729 97.5212 67.4821C97.9014 67.0807 98.3873 66.8906 98.9788 66.8906C99.3696 66.8906 99.7287 66.9857 100.035 67.1758C100.352 67.3659 100.584 67.6194 100.753 67.9574C100.922 68.2954 100.996 68.6756 100.996 69.0981C100.996 69.5206 100.912 69.9114 100.732 70.2494C100.553 70.5874 100.31 70.8515 99.9927 71.0205C99.6759 71.2 99.3273 71.2845 98.9576 71.2845C98.5563 71.2845 98.2077 71.1895 97.8909 70.9993C97.574 70.8092 97.3416 70.5452 97.1726 70.2072C97.0142 69.8692 96.9297 69.5206 96.9297 69.1509M97.5106 69.1509C97.5106 69.6579 97.6479 70.0699 97.9225 70.3656C98.1972 70.6613 98.5457 70.8092 98.9576 70.8092C99.3696 70.8092 99.7287 70.6613 100.003 70.3656C100.278 70.0699 100.415 69.6474 100.415 69.0981C100.415 68.7496 100.352 68.4538 100.236 68.1898C100.119 67.9363 99.9505 67.7356 99.7181 67.5877C99.4963 67.4504 99.2428 67.3765 98.9576 67.3765C98.5563 67.3765 98.2183 67.5138 97.9331 67.7884C97.6479 68.063 97.5 68.5172 97.5 69.1509" fill="#231F20"/>
<path d="M101.43 71.2003V66.9648H102.011L104.229 70.2919V66.9648H104.767V71.2003H104.197L101.968 67.8732V71.2003H101.43Z" fill="#231F20"/>
<path d="M106.299 71.2003L107.925 66.9648H108.527L110.26 71.2003H109.626L109.13 69.9223H107.355L106.89 71.2003H106.299ZM107.524 69.4575H108.961L108.517 68.2851C108.38 67.926 108.285 67.6303 108.221 67.4085C108.168 67.6831 108.094 67.9471 107.989 68.2217L107.524 69.4681V69.4575Z" fill="#231F20"/>
<path d="M110.925 71.2003L109.795 66.9648H110.376L111.02 69.7427C111.084 70.0384 111.147 70.3236 111.2 70.6088C111.305 70.1546 111.369 69.8906 111.39 69.8272L112.193 66.9648H112.869L113.481 69.109C113.629 69.6371 113.745 70.1441 113.809 70.6088C113.861 70.3448 113.935 70.0385 114.02 69.6899L114.685 66.9648H115.256L114.094 71.2003H113.555L112.657 67.9683C112.583 67.7042 112.541 67.5352 112.531 67.4718C112.488 67.6725 112.446 67.8309 112.404 67.9683L111.506 71.2003H110.936H110.925Z" fill="#231F20"/>
<path d="M114.768 71.2003L116.395 66.9648H116.997L118.729 71.2003H118.085L117.588 69.9223H115.814L115.349 71.2003H114.758H114.768ZM115.994 69.4575H117.43L116.986 68.2851C116.849 67.926 116.754 67.6303 116.68 67.4085C116.627 67.6831 116.553 67.9471 116.458 68.2217L115.994 69.4681V69.4575Z" fill="#231F20"/>
<path d="M118.932 71.2003V66.9648H120.812C121.192 66.9648 121.477 67.0071 121.678 67.081C121.879 67.155 122.026 67.2923 122.153 67.4824C122.269 67.6725 122.333 67.8838 122.333 68.1267C122.333 68.4224 122.238 68.6759 122.037 68.8872C121.847 69.0984 121.541 69.2252 121.139 69.278C121.287 69.3519 121.403 69.4153 121.477 69.4892C121.636 69.6371 121.794 69.8272 121.942 70.049L122.681 71.2003H121.974L121.414 70.3131C121.245 70.0596 121.118 69.8695 121.012 69.7321C120.907 69.5948 120.812 69.4998 120.727 69.447C120.643 69.3942 120.558 69.3519 120.474 69.3308C120.41 69.3202 120.305 69.3097 120.157 69.3097H119.513V71.1897H118.953L118.932 71.2003ZM119.491 68.8344H120.696C120.949 68.8344 121.15 68.8132 121.298 68.7604C121.445 68.7076 121.551 68.6231 121.625 68.5069C121.699 68.3907 121.741 68.264 121.741 68.1267C121.741 67.926 121.667 67.757 121.519 67.6303C121.372 67.5035 121.139 67.4401 120.833 67.4401H119.491V68.8449V68.8344Z" fill="#231F20"/>
<path d="M122.903 71.2003V66.9648H124.361C124.688 66.9648 124.942 66.986 125.111 67.0282C125.354 67.081 125.565 67.1866 125.734 67.3345C125.956 67.5246 126.125 67.7676 126.241 68.0633C126.357 68.3591 126.41 68.697 126.41 69.0667C126.41 69.3836 126.368 69.6793 126.294 69.9223C126.22 70.1758 126.125 70.3764 126.008 70.5454C125.892 70.7039 125.766 70.8412 125.618 70.9257C125.48 71.0207 125.311 71.0841 125.111 71.1369C124.91 71.1792 124.688 71.2109 124.424 71.2109H122.893L122.903 71.2003ZM123.463 70.7039H124.371C124.656 70.7039 124.868 70.6827 125.026 70.6299C125.185 70.5771 125.311 70.5032 125.406 70.4081C125.533 70.2708 125.639 70.1018 125.713 69.8695C125.787 69.6476 125.818 69.373 125.818 69.0562C125.818 68.6125 125.744 68.2746 125.597 68.0316C125.449 67.7993 125.269 67.6303 125.068 67.5563C124.921 67.493 124.678 67.4718 124.34 67.4718H123.452V70.7144L123.463 70.7039Z" fill="#231F20"/>
<path d="M126.631 69.8381L127.159 69.7959C127.18 70.0071 127.243 70.1761 127.339 70.3134C127.434 70.4507 127.571 70.5669 127.761 70.6408C127.951 70.7253 128.173 70.7676 128.416 70.7676C128.627 70.7676 128.817 70.7359 128.986 70.6725C129.145 70.6091 129.271 70.5246 129.356 70.4085C129.44 70.3028 129.472 70.1761 129.472 70.0493C129.472 69.9226 129.43 69.8064 129.356 69.7008C129.282 69.6057 129.155 69.5212 128.976 69.4473C128.859 69.405 128.606 69.3311 128.226 69.2361C127.835 69.141 127.56 69.0565 127.412 68.972C127.212 68.8664 127.064 68.7291 126.958 68.5706C126.863 68.4122 126.81 68.2432 126.81 68.0425C126.81 67.8313 126.874 67.6306 126.99 67.4405C127.117 67.2504 127.286 67.113 127.518 67.018C127.75 66.9229 128.015 66.8701 128.3 66.8701C128.617 66.8701 128.891 66.9229 129.134 67.018C129.377 67.1236 129.557 67.2715 129.683 67.4616C129.81 67.6623 129.884 67.8841 129.895 68.127L129.356 68.1693C129.324 67.9052 129.229 67.694 129.06 67.5672C128.891 67.4299 128.648 67.3665 128.321 67.3665C127.993 67.3665 127.729 67.4299 127.581 67.5567C127.423 67.6834 127.349 67.8313 127.349 68.0003C127.349 68.1587 127.402 68.2749 127.518 68.3805C127.624 68.4756 127.909 68.5812 128.363 68.6868C128.817 68.7924 129.134 68.8769 129.303 68.9614C129.546 69.0776 129.736 69.2149 129.852 69.3945C129.969 69.5635 130.032 69.7642 130.032 69.9965C130.032 70.2289 129.969 70.4296 129.842 70.6303C129.715 70.831 129.525 70.9894 129.282 71.095C129.039 71.2112 128.764 71.264 128.469 71.264C128.088 71.264 127.761 71.2112 127.508 71.095C127.254 70.9788 127.043 70.8204 126.895 70.588C126.747 70.3662 126.673 70.1127 126.663 69.8275" fill="#231F20"/>
<path d="M6.29509 44.6895H0V65.0217H6.29509V44.6895Z" fill="#231F20"/>
<path d="M20.8926 56.6984L26.3956 58.3673C26.0259 59.9094 25.445 61.1979 24.6528 62.233C23.8606 63.2681 22.8678 64.0498 21.6954 64.5779C20.5124 65.106 19.0126 65.37 17.1958 65.37C14.9883 65.37 13.1822 65.0532 11.7774 64.4089C10.3726 63.7646 9.16855 62.6344 8.15457 61.0184C7.1406 59.4024 6.62305 57.3322 6.62305 54.8078C6.62305 51.449 7.52084 48.8613 9.30586 47.0446C11.0909 45.2384 13.6258 44.3301 16.9001 44.3301C19.4667 44.3301 21.4735 44.8476 22.9417 45.8827C24.4099 46.9178 25.4978 48.5127 26.2054 50.6568L20.6603 51.8926C20.4701 51.2695 20.2589 50.8258 20.0476 50.5407C19.6991 50.0548 19.266 49.6851 18.7591 49.4316C18.2521 49.1676 17.6817 49.0408 17.048 49.0408C15.6221 49.0408 14.5342 49.6112 13.7737 50.7625C13.2033 51.6075 12.9076 52.9489 12.9076 54.7656C12.9076 57.0259 13.2456 58.568 13.9321 59.4024C14.6187 60.2368 15.5798 60.6593 16.8156 60.6593C18.0514 60.6593 18.9281 60.3213 19.5407 59.6453C20.1533 58.9693 20.5969 57.987 20.8821 56.709" fill="#231F20"/>
<path d="M25.3184 58.2935L31.2966 57.9238C31.4233 58.8956 31.6874 59.6349 32.0888 60.1419C32.733 60.9658 33.6625 61.3777 34.8666 61.3777C35.7644 61.3777 36.451 61.1664 36.9368 60.744C37.4227 60.3215 37.6656 59.8356 37.6656 59.2864C37.6656 58.7371 37.4332 58.283 36.9685 57.871C36.5038 57.4591 35.437 57.0577 33.747 56.6881C30.9903 56.0649 29.0257 55.241 27.8533 54.2165C26.6703 53.192 26.0788 51.8823 26.0788 50.2874C26.0788 49.2417 26.3851 48.2488 26.9872 47.3299C27.5892 46.4005 28.5082 45.6717 29.7228 45.1436C30.9375 44.6154 32.6063 44.3408 34.7187 44.3408C37.3171 44.3408 39.3028 44.8267 40.6653 45.7878C42.0278 46.749 42.8411 48.2911 43.1052 50.4035L37.1798 50.7521C37.0213 49.8332 36.6939 49.1678 36.1869 48.7558C35.6799 48.3439 34.9828 48.1327 34.0956 48.1327C33.3668 48.1327 32.8175 48.2911 32.4479 48.5974C32.0782 48.9037 31.8881 49.2839 31.8881 49.7276C31.8881 50.055 32.0359 50.3402 32.3422 50.6042C32.638 50.8683 33.3457 51.1218 34.4547 51.3541C37.2009 51.9456 39.1654 52.5477 40.359 53.1497C41.542 53.7518 42.4081 54.5122 42.9573 55.41C43.496 56.3078 43.7706 57.3112 43.7706 58.4203C43.7706 59.73 43.4115 60.9341 42.6932 62.0325C41.975 63.131 40.961 63.9654 39.6724 64.5358C38.3733 65.1062 36.7467 65.3913 34.7716 65.3913C31.3177 65.3913 28.9201 64.7259 27.5892 63.3951C26.2584 62.0642 25.4979 60.3743 25.3289 58.3146" fill="#231F20"/>
<path d="M55.8422 61.6629H48.7127L47.7199 65.0217H41.3086L48.9557 44.6895H55.8105L63.4576 65.0217H56.8773L55.8634 61.6629H55.8422ZM54.5431 57.2691L52.2933 49.96L50.0752 57.2691H54.5431Z" fill="#231F20"/>
<path d="M81.5616 65.0213H64.4824C64.6831 63.3313 65.2746 61.747 66.2674 60.2683C67.2603 58.779 69.1192 57.0257 71.8443 55.0083C73.5131 53.7725 74.5799 52.8325 75.0447 52.1882C75.5094 51.5439 75.7418 50.9313 75.7418 50.3609C75.7418 49.7377 75.5094 49.1991 75.0552 48.766C74.5905 48.3224 74.0096 48.1006 73.3125 48.1006C72.6153 48.1006 71.9922 48.333 71.538 48.7871C71.0733 49.2413 70.767 50.0546 70.6085 51.2059L64.9049 50.7411C65.1267 49.1357 65.5386 47.8893 66.1301 46.9916C66.7322 46.0938 67.5666 45.4072 68.6545 44.9214C69.7424 44.4461 71.2423 44.2031 73.1646 44.2031C75.0869 44.2031 76.7241 44.4355 77.8331 44.8897C78.9421 45.3438 79.8188 46.0515 80.4631 46.9916C81.0968 47.9316 81.4137 48.9984 81.4137 50.1708C81.4137 51.4171 81.044 52.6107 80.3152 53.7514C79.5864 54.8921 78.2556 56.1384 76.3227 57.4904C75.182 58.2826 74.4109 58.8318 74.0307 59.1592C73.6399 59.4761 73.1857 59.888 72.6682 60.4056H81.551V65.0424L81.5616 65.0213Z" fill="#EF4135"/>
<path d="M82.6074 54.6911C82.6074 50.8042 83.3045 48.0791 84.7093 46.5159C86.1141 44.9632 88.2477 44.1816 91.11 44.1816C92.4937 44.1816 93.6238 44.3506 94.5005 44.6886C95.3877 45.0266 96.106 45.4702 96.6658 46.0195C97.2256 46.5687 97.6586 47.1391 97.986 47.7411C98.3029 48.3432 98.567 49.0403 98.7571 49.843C99.1373 51.3745 99.3274 52.9694 99.3274 54.6171C99.3274 58.335 98.7043 61.0495 97.4474 62.7712C96.1905 64.4928 94.0252 65.3589 90.9516 65.3589C89.2299 65.3589 87.8357 65.0843 86.7795 64.535C85.7127 63.9858 84.8466 63.1831 84.1706 62.1163C83.6742 61.3664 83.294 60.3313 83.0193 59.0216C82.7447 57.7119 82.6074 56.2648 82.6074 54.6805M88.2477 54.6911C88.2477 57.2999 88.48 59.0849 88.9342 60.0355C89.3989 60.9861 90.0644 61.4614 90.941 61.4614C91.5219 61.4614 92.0184 61.2608 92.4409 60.8594C92.8633 60.458 93.1802 59.8137 93.3809 58.9371C93.5816 58.0604 93.6872 56.6979 93.6872 54.8389C93.6872 52.1139 93.4548 50.2866 93.0007 49.3571C92.5359 48.4171 91.8494 47.9524 90.9305 47.9524C90.0115 47.9524 89.3039 48.4277 88.892 49.3888C88.4695 50.3394 88.2582 52.1139 88.2582 54.6911" fill="#EF4135"/>
<path d="M112.076 44.1924V65.0211H106.32V51.3747C105.391 52.0824 104.482 52.6527 103.616 53.0963C102.739 53.54 101.652 53.9519 100.342 54.3532V49.6847C102.275 49.0616 103.785 48.3117 104.852 47.435C105.929 46.5583 106.764 45.481 107.366 44.1924H112.076Z" fill="#EF4135"/>
<path d="M17.7969 58.3781C17.7969 58.3781 19.4868 56.6987 19.4868 54.6285C19.4868 52.5583 17.7969 50.8789 17.7969 50.8789C17.7969 50.8789 18.8425 52.9702 18.8425 54.6285C18.8425 56.4135 17.7969 58.3781 17.7969 58.3781Z" fill="#231F20"/>
<path d="M16.0544 52.368C16.0544 52.7482 15.7375 53.0651 15.3573 53.0651C14.977 53.0651 14.6602 52.7482 14.6602 52.368C14.6602 51.9878 14.9665 51.6709 15.3573 51.6709C15.7481 51.6709 16.0544 51.9878 16.0544 52.368Z" fill="#231F20"/>
<path d="M16.0544 56.6873C16.0544 57.0676 15.7375 57.3845 15.3573 57.3845C14.977 57.3845 14.6602 57.0781 14.6602 56.6873C14.6602 56.2965 14.9665 55.9902 15.3573 55.9902C15.7481 55.9902 16.0544 56.2965 16.0544 56.6873Z" fill="#231F20"/>
<path d="M113.755 49.3575L118.898 50.0124C118.898 50.0124 119.194 47.657 121.402 47.657C123.609 47.657 125.162 52.3678 120.197 52.3678V55.8533C120.197 55.8533 124.412 55.0295 124.412 58.8847C124.412 62.7399 118.846 62.9511 118.846 58.8847L113.332 59.5818C113.332 59.5818 114.388 65.2959 121.909 65.2959C129.978 65.2959 129.978 58.5784 129.978 58.5784C129.978 58.5784 129.925 54.6175 126.165 53.7092C126.165 53.7092 128.922 51.808 128.922 49.2942C128.922 46.7804 126.165 44.0342 121.402 44.0342C115.93 44.0342 113.755 47.4986 113.755 49.347" fill="#EF4135"/>
</g>
<defs>
<clipPath id="clip0_1375_16079">
<rect width="130" height="71.2739" fill="white"/>
</clipPath>
</defs>
</svg>
