<svg width="130" height="34" viewBox="0 0 130 34" fill="none" xmlns="http://www.w3.org/2000/svg">
<g clip-path="url(#clip0_1495_35579)">
<path d="M3.41831 2.80273H7.42717C10.2289 3.09168 12.5362 4.35876 14.3426 6.60184C16.1491 8.84492 17.0544 11.2935 17.0544 13.9432C17.0544 14.2835 17.0352 14.6324 16.9945 14.9877C16.956 15.3408 16.896 15.7026 16.8168 16.0686C16.7376 16.4367 16.6456 16.7984 16.5407 17.1516C16.4359 17.5047 16.3181 17.8536 16.1876 18.1939C15.3764 20.0838 14.1564 21.5992 12.534 22.74C10.9095 23.8829 9.09021 24.5957 7.07187 24.8846L3.02449 24.8461C2.26467 24.8204 1.60972 24.5507 1.05966 24.0392C0.509588 23.5277 0.156432 22.9048 -0.00195312 22.1685V5.63654C0.154292 4.90241 0.560956 4.25174 1.2159 3.68884C1.87084 3.12379 2.60498 2.84126 3.41617 2.84126V2.80273H3.41831ZM4.51845 7.08556V20.4456C4.56981 20.4712 4.62974 20.4841 4.69609 20.4841H4.95079C5.02999 20.5098 5.10704 20.5226 5.18623 20.5226H5.38314C7.2431 20.5226 8.86762 19.8612 10.2546 18.5385C11.6436 17.2158 12.3371 15.6105 12.3371 13.7249V13.1748C12.3114 13.0956 12.2986 13.0122 12.2986 12.9201V12.6654C11.9583 11.1201 11.2113 9.82947 10.0598 8.79569C8.90614 7.7619 7.54489 7.19043 5.97388 7.08556H4.52059H4.51845Z" fill="#7C0040"/>
<path d="M26.7092 10.3066C27.011 10.3601 27.3192 10.4372 27.6317 10.542C28.9416 10.9616 30.1337 11.715 31.2082 12.8022C32.2827 13.8895 32.8199 15.1138 32.8199 16.4751V16.7704C32.8199 16.8625 32.807 16.9481 32.7814 17.0251C32.7814 17.13 32.7749 17.2285 32.7621 17.3205C32.7492 17.4125 32.7278 17.511 32.7022 17.6159C32.5973 17.8513 32.4731 18.0675 32.3297 18.2644C32.1863 18.4613 32.0087 18.6368 31.7989 18.7952C31.7454 18.8209 31.6876 18.8423 31.6213 18.8551C31.5549 18.868 31.4971 18.8894 31.4436 18.9151C31.3901 18.9151 31.3388 18.9279 31.2874 18.9536C31.2339 18.9793 31.1825 18.9921 31.1311 18.9921C31.0263 19.0178 30.915 19.0456 30.7973 19.0713C30.6795 19.097 30.5682 19.1098 30.4634 19.1098C30.4099 19.0841 30.3713 19.0713 30.3456 19.0713H30.3071C30.3071 19.0456 30.3007 19.0328 30.2879 19.0328H21.9769C22.2659 19.814 22.7175 20.4582 23.3317 20.9655C23.946 21.4728 24.6095 21.7275 25.3158 21.7275C25.4464 21.7275 25.5898 21.7146 25.7482 21.6889C25.9066 21.6633 26.0628 21.6247 26.2191 21.5712C26.3753 21.5199 26.5337 21.4599 26.6899 21.3957C26.8462 21.3315 26.9917 21.2587 27.1223 21.1817C27.1737 21.1303 27.2272 21.0854 27.2785 21.0447C27.3299 21.0062 27.3834 20.9591 27.4348 20.9077C27.4605 20.882 27.4862 20.8563 27.514 20.8307C27.5397 20.805 27.5653 20.7793 27.5932 20.7536C27.6445 20.7022 27.698 20.6487 27.7494 20.5974C27.8008 20.546 27.8414 20.4925 27.8671 20.4411L32.4646 20.4026C31.8888 21.9115 30.9385 23.0566 29.6158 23.8378C28.2931 24.6191 26.8976 25.0086 25.4314 25.0086C25.2217 25.0086 25.0055 25.0022 24.7829 24.9893C24.5603 24.9765 24.3441 24.9444 24.1344 24.8909C23.6892 24.8652 23.2504 24.7732 22.8181 24.6148C22.3857 24.4585 21.9598 24.2745 21.5403 24.0647C20.5193 23.4633 19.7189 22.6649 19.1431 21.6675C18.5674 20.6723 18.2121 19.6513 18.0815 18.6026C18.0815 18.4463 18.0751 18.2944 18.0622 18.151C18.0494 18.0076 18.043 17.8706 18.043 17.7379V17.2263C18.1478 15.8651 18.5866 14.5744 19.3593 13.3566C20.1319 12.1387 21.2128 11.2548 22.6019 10.7047C22.9165 10.5742 23.2504 10.4757 23.6036 10.4093C23.9567 10.3451 24.3163 10.298 24.6844 10.2724C24.7893 10.2467 24.907 10.2338 25.0376 10.2338H25.3908L25.8231 10.1953C26.1121 10.221 26.4053 10.2617 26.7071 10.313L26.7092 10.3066ZM23.0749 14.6087C22.4713 15.0946 22.0668 15.7024 21.8571 16.4365H29.2434C28.8752 15.7088 28.353 15.0817 27.6724 14.5552C26.9917 14.0287 26.2319 13.7654 25.3929 13.7654H25.1168C24.357 13.8446 23.6763 14.125 23.0728 14.6108L23.0749 14.6087Z" fill="#7C0040"/>
<path d="M41.4911 14.0399H41.1379C41.033 14.0656 40.9153 14.0848 40.7848 14.0998C40.6542 14.1127 40.5215 14.1319 40.3909 14.1598C40.1277 14.2133 39.8665 14.2903 39.6054 14.3952C39.3443 14.5001 39.1196 14.6306 38.9376 14.789C38.9376 14.8147 38.9248 14.8425 38.8991 14.8682C38.8734 14.8939 38.8606 14.9217 38.8606 14.9474C38.8071 15.0266 38.7621 15.1122 38.7236 15.2021C38.6851 15.2941 38.6508 15.3926 38.6252 15.4975C38.6252 15.551 38.6187 15.6088 38.6059 15.6751C38.593 15.7415 38.5866 15.7993 38.5866 15.8528V24.8122H34.2246V15.2642C34.3809 13.7445 35.07 12.5524 36.2879 11.6877C37.5058 10.823 38.8349 10.3521 40.2754 10.2729H40.6285L41.4932 10.2344V14.0463L41.4911 14.0399Z" fill="#7C0040"/>
<path d="M47.6141 10.2686H48.1257C48.8855 10.2942 49.6111 10.459 50.3067 10.7587C51.0001 11.0605 51.6358 11.4457 52.2116 11.9188C52.6824 11.4993 53.194 11.1654 53.7441 10.9171C54.2941 10.6688 54.857 10.504 55.4328 10.4269C55.589 10.4013 55.741 10.382 55.8844 10.367C56.0278 10.3542 56.1648 10.3477 56.2975 10.3477C57.8171 10.3477 59.2041 10.8614 60.4626 11.8845C61.719 12.9097 62.3739 14.2881 62.4274 16.0218V24.8079H58.3415V16.2422C58.3158 15.7714 58.1318 15.3583 57.7914 15.0051C57.4511 14.652 57.0701 14.4101 56.6528 14.2774C56.5736 14.2774 56.5008 14.271 56.4366 14.2581C56.3702 14.2453 56.2996 14.2389 56.2204 14.2389C56.1412 14.2389 56.0685 14.2453 56.0043 14.2581C55.9379 14.271 55.8673 14.2903 55.7881 14.3181C55.5526 14.3716 55.33 14.4893 55.1203 14.6712C54.9105 14.8553 54.7393 15.1036 54.6087 15.4182C54.5831 15.5488 54.5488 15.6729 54.5103 15.7906C54.4718 15.9084 54.4247 16.0196 54.3733 16.1245C54.3733 16.178 54.3669 16.2358 54.354 16.3022C54.3412 16.3685 54.3219 16.4263 54.2941 16.4798V24.81H50.2874V16.4006C50.2874 15.8506 50.0905 15.3604 49.6988 14.9281C49.3071 14.4957 48.8748 14.241 48.4018 14.1618C48.3761 14.1362 48.3354 14.1233 48.284 14.1233H48.1278C47.8389 14.1233 47.5649 14.2025 47.3038 14.3587C47.0426 14.515 46.8179 14.7526 46.636 15.0651C46.6103 15.1186 46.576 15.1764 46.5375 15.2427C46.499 15.3091 46.4648 15.3668 46.4391 15.4204C46.3856 15.5509 46.3406 15.6751 46.3021 15.7928C46.2636 15.9105 46.2422 16.0218 46.2422 16.1267V24.81H42.1562V15.2363C42.3917 13.9221 43.0274 12.8006 44.0612 11.8674C45.0949 10.9363 46.2807 10.4162 47.6163 10.3114V10.2728L47.6141 10.2686Z" fill="#7C0040"/>
<path d="M70.807 10.2275C72.7975 10.2532 74.5269 10.9296 75.993 12.2502C77.4591 13.5729 78.2725 15.2295 78.4287 17.22V24.8033H74.2636V23.8208C73.9233 24.1098 73.5573 24.3388 73.1635 24.5079C72.7696 24.6791 72.378 24.8033 71.9841 24.8803C71.7209 24.9595 71.4598 25.0109 71.1986 25.0366C70.9375 25.0622 70.6743 25.0751 70.4131 25.0751C69.3644 25.0751 68.3434 24.8268 67.3482 24.3281C66.3529 23.8315 65.5139 23.1102 64.8333 22.1664C64.493 21.642 64.2104 21.0791 63.9878 20.4776C63.7652 19.8762 63.6154 19.2726 63.5362 18.6712C63.5105 18.5149 63.4891 18.3566 63.4763 18.2003C63.4635 18.0441 63.457 17.8857 63.457 17.7294C63.457 16.2633 63.8551 14.8742 64.6556 13.5643C65.454 12.2544 66.6269 11.3641 68.1722 10.8932C68.5917 10.6834 69.0241 10.5272 69.4692 10.4223C69.9144 10.3174 70.3596 10.2661 70.8048 10.2661V10.2275H70.807ZM68.5468 15.6897C67.9303 16.396 67.6243 17.1708 67.6243 18.0077C67.6243 18.1639 67.6435 18.3416 67.6821 18.5385C67.7206 18.7354 67.7805 18.9259 67.8597 19.1078C67.9111 19.2641 67.971 19.416 68.0374 19.5594C68.1016 19.7028 68.1872 19.8419 68.2921 19.9725C68.6581 20.392 69.0583 20.7131 69.4906 20.9357C69.923 21.1583 70.3618 21.2696 70.807 21.2696H71.0231C71.0873 21.2696 71.1473 21.2567 71.2008 21.231C71.8814 21.1518 72.5171 20.8586 73.1057 20.3471C73.6943 19.8355 74.0817 19.2148 74.2657 18.4807C74.2657 18.4293 74.2722 18.3822 74.285 18.3437C74.2979 18.3052 74.3043 18.2581 74.3043 18.2067C74.3043 18.181 74.3107 18.1425 74.3235 18.089C74.3364 18.0376 74.3428 17.9841 74.3428 17.9328C74.3428 17.1729 74.0346 16.4666 73.4203 15.8117C72.8039 15.1567 72.1297 14.7651 71.3977 14.6324C71.3185 14.6324 71.2414 14.6259 71.1623 14.6131C71.0831 14.6003 71.006 14.5938 70.9268 14.5938C69.9572 14.6195 69.1653 14.9877 68.5489 15.694L68.5468 15.6897Z" fill="#7C0040"/>
<path d="M85.8838 2.40918H87.4163V6.18046H86.9454C86.6051 6.20828 86.2712 6.27892 85.9438 6.39877C85.6163 6.51863 85.3209 6.6706 85.0598 6.85467C85.0063 6.93386 84.9549 7.01947 84.9036 7.11365C84.85 7.20568 84.7987 7.2913 84.7473 7.37049C84.7216 7.44968 84.6874 7.53529 84.6489 7.62733C84.6103 7.71936 84.5889 7.80498 84.5889 7.88417V10.3434H87.4185V14.0762L84.5889 14.1554V24.8036H80.4238V7.12435C80.6593 5.78878 81.3014 4.70148 82.3501 3.86247C83.3968 3.02346 84.5761 2.55258 85.886 2.44771V2.40918H85.8838Z" fill="#7C0040"/>
<path d="M93.4226 10.3456C93.5274 10.3456 93.6387 10.3392 93.7565 10.3263C93.8742 10.3135 93.9983 10.3071 94.1289 10.3071C94.2594 10.2814 94.3836 10.2686 94.5013 10.2686H94.8352C96.8514 10.2686 98.6129 11.0327 100.12 12.5609C101.626 14.0891 102.38 15.8977 102.38 17.9888V18.5774C102.354 18.7079 102.333 18.8256 102.32 18.9305C102.307 19.0354 102.286 19.1381 102.26 19.243C101.892 20.6792 101.113 21.9998 99.9228 23.2005C98.7306 24.4034 97.3501 25.0027 95.7769 25.0027H94.9122C93.9427 25.0027 93.0116 24.8336 92.1234 24.4911C91.233 24.1508 90.4068 23.6799 89.647 23.0764C89.0177 22.4492 88.5212 21.7579 88.153 21.0002C87.787 20.2425 87.5495 19.4592 87.4467 18.6501C87.4467 18.5196 87.4403 18.389 87.4275 18.2584C87.4146 18.1279 87.4082 17.9973 87.4082 17.8668V17.5543C87.4596 16.4584 87.7485 15.3882 88.2729 14.3438C88.7973 13.2993 89.5036 12.4132 90.394 11.6812C90.8392 11.3665 91.3229 11.099 91.8473 10.8764C92.3717 10.6538 92.8939 10.4912 93.4183 10.3863V10.3477L93.4226 10.3456ZM92.5193 15.277C91.9693 15.9191 91.6546 16.6318 91.5754 17.4173V17.7319C91.5754 17.8111 91.5819 17.8882 91.5947 17.9674C91.6076 18.0466 91.614 18.1236 91.614 18.2028C91.6653 18.4639 91.7381 18.7079 91.8301 18.9305C91.9222 19.1531 92.0206 19.3564 92.1255 19.5405C92.4123 19.96 92.7548 20.3003 93.1465 20.5615C93.5403 20.8226 93.932 20.9938 94.3258 21.073C94.4307 21.073 94.5227 21.0794 94.6019 21.0923C94.6811 21.1051 94.7581 21.1115 94.8373 21.1115H94.9936C95.6999 21.0858 96.3612 20.8354 96.9777 20.3645C97.5919 19.8937 98.005 19.2644 98.2148 18.4789V17.8903C98.2148 16.9999 97.8745 16.1802 97.1938 15.4353C96.5132 14.6884 95.7127 14.3159 94.7967 14.3159H94.6789C93.7886 14.3159 93.0673 14.637 92.5172 15.2791L92.5193 15.277Z" fill="#7C0040"/>
<path d="M108.969 10.3456C109.074 10.3456 109.186 10.3392 109.303 10.3263C109.421 10.3135 109.545 10.3071 109.676 10.3071C109.806 10.2814 109.93 10.2686 110.048 10.2686H110.382C112.398 10.2686 114.16 11.0327 115.667 12.5609C117.173 14.0891 117.927 15.8977 117.927 17.9888V18.5774C117.901 18.7079 117.88 18.8256 117.867 18.9305C117.854 19.0354 117.833 19.1381 117.807 19.243C117.439 20.6792 116.66 21.9998 115.47 23.2005C114.277 24.4034 112.897 25.0027 111.324 25.0027H110.459C109.49 25.0027 108.558 24.8336 107.67 24.4911C106.78 24.1508 105.954 23.6799 105.194 23.0764C104.565 22.4492 104.068 21.7579 103.7 21.0002C103.334 20.2425 103.096 19.4592 102.994 18.6501C102.994 18.5196 102.987 18.389 102.974 18.2584C102.961 18.1279 102.955 17.9973 102.955 17.8668V17.5543C103.006 16.4584 103.295 15.3882 103.82 14.3438C104.344 13.2993 105.05 12.4132 105.941 11.6812C106.386 11.3665 106.87 11.099 107.394 10.8764C107.919 10.6538 108.441 10.4912 108.965 10.3863V10.3477L108.969 10.3456ZM108.066 15.277C107.516 15.9191 107.202 16.6318 107.122 17.4173V17.7319C107.122 17.8111 107.129 17.8882 107.142 17.9674C107.154 18.0466 107.161 18.1236 107.161 18.2028C107.212 18.4639 107.285 18.7079 107.377 18.9305C107.469 19.1531 107.568 19.3564 107.672 19.5405C107.959 19.96 108.302 20.3003 108.693 20.5615C109.087 20.8226 109.479 20.9938 109.873 21.073C109.978 21.073 110.07 21.0794 110.149 21.0923C110.228 21.1051 110.305 21.1115 110.384 21.1115H110.54C111.247 21.0858 111.908 20.8354 112.525 20.3645C113.139 19.8937 113.552 19.2644 113.762 18.4789V17.8903C113.762 16.9999 113.421 16.1802 112.741 15.4353C112.06 14.6884 111.26 14.3159 110.344 14.3159H110.226C109.335 14.3159 108.614 14.637 108.064 15.2791L108.066 15.277Z" fill="#7C0040"/>
<path d="M123.247 4.29492V10.5426L126.273 10.6218V14.393H123.247V18.8728C123.247 19.2666 123.326 19.6069 123.482 19.8937C123.639 20.1827 123.848 20.4566 124.112 20.7199C124.452 20.904 124.799 21.0088 125.154 21.0345C125.507 21.0602 125.882 21.0731 126.273 21.0731V24.885C126.194 24.885 126.109 24.8914 126.019 24.9043C125.927 24.9171 125.841 24.9235 125.764 24.9235C125.659 24.9235 125.561 24.9299 125.469 24.9428C125.377 24.9556 125.291 24.962 125.214 24.962H124.978C123.51 24.9085 122.162 24.3927 120.931 23.4103C119.7 22.4279 119.084 21.1501 119.084 19.5791V4.29492H123.249H123.247Z" fill="#7C0040"/>
<path d="M92.1589 27.7287H92.3622C92.4007 27.7394 92.4457 27.7437 92.4928 27.7437H92.6383C92.6876 27.7544 92.7346 27.7587 92.7839 27.7587H92.9144V29.1863C92.8845 29.197 92.8566 29.2013 92.8267 29.2013C92.7967 29.2013 92.7689 29.197 92.7389 29.1863H92.5506C92.191 29.1863 91.8614 29.2869 91.5596 29.4859C91.2578 29.685 91.0973 29.9846 91.078 30.3827C91.078 30.8386 91.2385 31.164 91.5596 31.3587C91.8806 31.5535 92.2402 31.6498 92.6383 31.6498C92.6576 31.6498 92.6768 31.6477 92.6961 31.6434C92.7154 31.6391 92.7389 31.637 92.7689 31.637H92.7839C92.8138 31.637 92.8395 31.6348 92.8652 31.6305C92.8887 31.6263 92.9059 31.6241 92.9166 31.6241V33.1245C92.8866 33.1331 92.8566 33.1416 92.8224 33.1459C92.7881 33.1502 92.7518 33.1523 92.7132 33.1523H92.3194C91.7758 33.1331 91.2578 32.9961 90.7677 32.7435C90.2775 32.491 89.9201 32.0907 89.6975 31.5449C89.6675 31.4572 89.6376 31.3651 89.6033 31.2667C89.5691 31.1682 89.5434 31.0719 89.522 30.9735C89.5027 30.8857 89.4856 30.7937 89.4706 30.6952C89.4556 30.5968 89.4492 30.5047 89.4492 30.417C89.4492 29.9012 89.5926 29.4132 89.8794 28.9551C90.1662 28.4971 90.5772 28.1611 91.1101 27.947C91.1979 27.9171 91.2856 27.8914 91.3734 27.8657C91.4611 27.8421 91.5489 27.8207 91.6366 27.7993C91.7244 27.7908 91.8121 27.7779 91.8999 27.7629C91.9877 27.748 92.0754 27.7415 92.1632 27.7415V27.7266L92.1589 27.7287Z" fill="#7C0040"/>
<path d="M96.3959 29.1284H96.2653C96.2268 29.1391 96.1818 29.1456 96.1347 29.1498C96.0855 29.1541 96.0384 29.1627 95.9892 29.1713C95.8907 29.1905 95.7944 29.2205 95.6981 29.259C95.6018 29.2975 95.5183 29.3468 95.4498 29.4045C95.4498 29.4152 95.4456 29.4238 95.4348 29.4345C95.4241 29.4452 95.4199 29.4538 95.4199 29.4645C95.4006 29.4944 95.3835 29.5244 95.3685 29.5587C95.3535 29.5929 95.3428 29.6293 95.3321 29.6678C95.3321 29.6871 95.33 29.7085 95.3257 29.7342C95.3214 29.7577 95.3193 29.7812 95.3193 29.8005V33.1245H93.7012V29.5822C93.759 29.0193 94.0137 28.5762 94.4674 28.2552C94.9212 27.9341 95.4113 27.7586 95.9464 27.7308H96.077L96.398 27.7158V29.1306L96.3959 29.1284Z" fill="#7C0040"/>
<path d="M99.925 27.744C100.036 27.7632 100.15 27.7932 100.267 27.8317C100.753 27.988 101.194 28.2662 101.594 28.6707C101.993 29.0731 102.192 29.529 102.192 30.0341V30.1433C102.192 30.1775 102.187 30.2096 102.177 30.2375C102.177 30.276 102.174 30.3124 102.17 30.3466C102.166 30.3809 102.157 30.4173 102.149 30.4558C102.11 30.5435 102.063 30.6227 102.01 30.6955C101.956 30.7683 101.89 30.8346 101.813 30.8924C101.793 30.9031 101.772 30.9095 101.746 30.9138C101.723 30.9181 101.699 30.9267 101.68 30.9352C101.661 30.9352 101.642 30.9395 101.622 30.9502C101.603 30.9609 101.584 30.9652 101.564 30.9652C101.526 30.9759 101.483 30.9845 101.44 30.9952C101.398 31.0059 101.355 31.0101 101.316 31.0101C101.297 31.0016 101.282 30.9952 101.271 30.9952H101.256C101.256 30.9952 101.254 30.9802 101.25 30.9802H98.1678C98.2748 31.2691 98.4417 31.5088 98.6707 31.6972C98.8998 31.8855 99.1438 31.9797 99.407 31.9797C99.4562 31.9797 99.5098 31.9754 99.5675 31.9647C99.6253 31.9562 99.6831 31.9412 99.7431 31.9219C99.8008 31.9027 99.8586 31.8813 99.9186 31.8577C99.9763 31.8342 100.03 31.8063 100.079 31.7785C100.098 31.7593 100.118 31.7421 100.137 31.7272C100.156 31.7122 100.175 31.695 100.195 31.6758C100.203 31.6672 100.214 31.6565 100.225 31.6458C100.233 31.6373 100.244 31.6266 100.255 31.618C100.274 31.5987 100.293 31.5795 100.312 31.5602C100.332 31.5409 100.347 31.5217 100.357 31.5024L102.063 31.4874C101.849 32.0482 101.496 32.472 101.006 32.7609C100.516 33.0499 99.9978 33.1954 99.4541 33.1954C99.3771 33.1954 99.2957 33.1933 99.2144 33.189C99.1309 33.1847 99.0517 33.1719 98.9747 33.1526C98.8099 33.1441 98.6472 33.1098 98.4867 33.0499C98.3261 32.99 98.1678 32.9236 98.0137 32.8465C97.6348 32.624 97.3373 32.3264 97.1254 31.9583C96.9114 31.5902 96.7808 31.2092 96.7316 30.8218C96.7316 30.764 96.7295 30.7084 96.7252 30.6548C96.7209 30.6013 96.7188 30.55 96.7188 30.5007V30.3124C96.7573 29.8073 96.9199 29.3278 97.2067 28.8762C97.4936 28.4246 97.8938 28.0971 98.4096 27.8917C98.5252 27.8424 98.6493 27.806 98.782 27.7825C98.9126 27.759 99.0474 27.7418 99.1823 27.7311C99.2208 27.7226 99.2636 27.7162 99.3128 27.7162H99.4434L99.6039 27.7012C99.7109 27.7097 99.8201 27.7247 99.9314 27.744H99.925ZM98.5766 29.3407C98.354 29.5205 98.202 29.7473 98.125 30.0192H100.865C100.728 29.7495 100.535 29.5162 100.282 29.3214C100.03 29.1266 99.7473 29.0282 99.437 29.0282H99.3342C99.0517 29.0581 98.7992 29.1609 98.5766 29.3407Z" fill="#7C0040"/>
<path d="M105.299 27.7141C106.037 27.7248 106.679 27.973 107.223 28.4653C107.766 28.9555 108.068 29.5719 108.126 30.3081V33.1206H106.581V32.7567C106.454 32.8637 106.317 32.9493 106.172 33.0114C106.026 33.0735 105.881 33.1206 105.735 33.1505C105.639 33.1805 105.541 33.1997 105.444 33.2083C105.346 33.2169 105.249 33.2233 105.153 33.2233C104.764 33.2233 104.385 33.1313 104.017 32.9472C103.646 32.7631 103.336 32.4956 103.083 32.1446C102.957 31.9498 102.852 31.7422 102.771 31.5174C102.687 31.2948 102.632 31.0701 102.604 30.8475C102.593 30.7897 102.587 30.7319 102.583 30.672C102.578 30.6142 102.576 30.5564 102.576 30.4965C102.576 29.9529 102.724 29.437 103.021 28.9512C103.317 28.4653 103.753 28.1357 104.325 27.9602C104.481 27.8831 104.639 27.8232 104.806 27.7847C104.971 27.7462 105.136 27.7269 105.301 27.7269V27.7119L105.299 27.7141ZM104.46 29.741C104.231 30.0042 104.117 30.2889 104.117 30.6014C104.117 30.6592 104.124 30.7255 104.139 30.7983C104.154 30.8711 104.175 30.9417 104.205 31.0102C104.224 31.068 104.246 31.1236 104.271 31.1771C104.295 31.2306 104.327 31.282 104.365 31.3291C104.5 31.4853 104.65 31.6031 104.811 31.6865C104.971 31.77 105.134 31.8107 105.299 31.8107H105.38C105.404 31.8107 105.425 31.8064 105.446 31.7957C105.699 31.7657 105.934 31.6566 106.153 31.4682C106.371 31.2799 106.514 31.0487 106.583 30.7769C106.583 30.7576 106.583 30.7405 106.589 30.7255C106.594 30.7105 106.596 30.6934 106.596 30.6741C106.596 30.6656 106.598 30.6506 106.602 30.6313C106.606 30.6121 106.609 30.5928 106.609 30.5735C106.609 30.291 106.495 30.0299 106.266 29.7859C106.037 29.5419 105.787 29.3964 105.515 29.3493C105.485 29.3493 105.457 29.3471 105.427 29.3429C105.397 29.3386 105.369 29.3364 105.339 29.3364C104.98 29.3471 104.687 29.482 104.458 29.7452L104.46 29.741Z" fill="#7C0040"/>
<path d="M111.041 27.7285H111.229C111.511 27.7392 111.781 27.7991 112.038 27.9104C112.295 28.0217 112.53 28.1651 112.744 28.3407C112.92 28.1844 113.108 28.0624 113.314 27.9682C113.517 27.8762 113.727 27.8141 113.941 27.7863C113.999 27.7777 114.054 27.7692 114.108 27.7649C114.161 27.7606 114.213 27.7585 114.26 27.7585C114.823 27.7585 115.338 27.949 115.805 28.3278C116.272 28.7088 116.513 29.2203 116.535 29.8624V33.1222H115.019V29.9459C115.009 29.7704 114.942 29.6184 114.816 29.4857C114.69 29.3552 114.549 29.2653 114.394 29.2161C114.365 29.2161 114.339 29.2139 114.313 29.2096C114.29 29.2054 114.262 29.2032 114.232 29.2032C114.202 29.2032 114.176 29.2054 114.153 29.2096C114.129 29.2139 114.101 29.2225 114.071 29.231C113.984 29.2503 113.902 29.2952 113.823 29.3616C113.746 29.4301 113.682 29.5221 113.635 29.6377C113.624 29.6869 113.613 29.7319 113.598 29.7768C113.583 29.8196 113.566 29.8624 113.547 29.901C113.547 29.9202 113.545 29.9416 113.54 29.9673C113.536 29.9909 113.528 30.0144 113.519 30.0337V33.1243H112.032V30.0058C112.032 29.8025 111.959 29.6206 111.813 29.4601C111.668 29.2995 111.507 29.2054 111.332 29.1754C111.321 29.1668 111.308 29.1604 111.287 29.1604H111.229C111.122 29.1604 111.019 29.1904 110.923 29.2482C110.827 29.3059 110.743 29.3937 110.675 29.5114C110.664 29.5307 110.653 29.5521 110.638 29.5778C110.623 29.6013 110.613 29.6249 110.602 29.6441C110.583 29.6933 110.565 29.7383 110.55 29.7832C110.535 29.8282 110.529 29.8689 110.529 29.9074V33.1286H109.014V29.5778C109.101 29.0898 109.337 28.6745 109.72 28.3278C110.103 27.9811 110.544 27.7906 111.038 27.7499V27.7349L111.041 27.7285Z" fill="#7C0040"/>
<path d="M129.999 2.40089C129.999 3.32337 129.276 4.04681 128.334 4.04681C127.392 4.04681 126.658 3.32337 126.658 2.40089C126.658 1.4784 127.401 0.776367 128.334 0.776367C129.267 0.776367 129.999 1.4998 129.999 2.40089ZM127.076 2.40089C127.076 3.12432 127.611 3.70007 128.345 3.70007C129.079 3.70007 129.584 3.12432 129.584 2.41159C129.584 1.69885 129.058 1.10384 128.336 1.10384C127.615 1.10384 127.078 1.68815 127.078 2.40303L127.076 2.40089ZM128.077 3.25274H127.701V1.62822C127.848 1.59826 128.058 1.57899 128.326 1.57899C128.634 1.57899 128.771 1.62822 128.891 1.69885C128.98 1.76734 129.049 1.89791 129.049 2.05629C129.049 2.23394 128.91 2.37306 128.713 2.43299V2.45225C128.871 2.51218 128.961 2.6299 129.01 2.84822C129.06 3.0965 129.09 3.19495 129.13 3.25488H128.724C128.674 3.19495 128.644 3.04727 128.595 2.85892C128.565 2.68127 128.467 2.60208 128.257 2.60208H128.079V3.25702L128.077 3.25274ZM128.088 2.33025H128.266C128.473 2.33025 128.642 2.26176 128.642 2.09268C128.642 1.94499 128.533 1.8444 128.296 1.8444C128.197 1.8444 128.126 1.8551 128.088 1.86366V2.33025Z" fill="#7C0040"/>
</g>
<defs>
<clipPath id="clip0_1495_35579">
<rect width="130" height="32.4476" fill="white" transform="translate(0 0.776367)"/>
</clipPath>
</defs>
</svg>
