<svg width="130" height="22" viewBox="0 0 130 22" fill="none" xmlns="http://www.w3.org/2000/svg">
<g clip-path="url(#clip0_1495_35598)">
<path d="M6.33549 3.59473C6.45873 3.63297 6.58622 3.65847 6.71371 3.67122C6.8412 3.67972 6.96444 3.68822 7.09193 3.68822C7.21941 3.68822 7.35115 3.69247 7.48289 3.70522C7.61888 3.71372 7.75912 3.73071 7.90785 3.75196C8.15858 3.77321 8.40506 3.80296 8.64729 3.8412C8.88526 3.8837 9.12324 3.93045 9.35697 3.99419C9.58645 4.05369 9.81593 4.11743 10.0497 4.17692C10.2834 4.23642 10.5001 4.31716 10.7126 4.41915V8.01433C10.5214 7.93359 10.3301 7.84009 10.1304 7.7296C9.93067 7.61911 9.71819 7.52562 9.48446 7.44488C9.25498 7.34714 9.0255 7.26215 8.79177 7.19415C8.56229 7.12191 8.33281 7.05816 8.09908 6.99867C7.99284 6.95617 7.89085 6.93068 7.78461 6.92218C7.68262 6.91368 7.57638 6.89668 7.47014 6.87543H7.32565C7.27466 6.87543 7.22791 6.86693 7.18542 6.84568H6.90069C6.69246 6.84568 6.48423 6.86268 6.28875 6.89243C6.08902 6.92218 5.89353 6.95617 5.70655 6.99867C5.51532 7.05816 5.32834 7.13466 5.14135 7.2239C4.95012 7.31314 4.77164 7.42788 4.6059 7.56812C4.5634 7.62761 4.52941 7.68711 4.49541 7.7466C4.46566 7.81035 4.42742 7.86559 4.38492 7.92934C4.36367 7.98883 4.33817 8.04833 4.30418 8.10782C4.27018 8.17156 4.25743 8.22681 4.25743 8.2863C4.23618 8.3288 4.21494 8.37555 4.19369 8.42654C4.17244 8.47754 4.15969 8.52003 4.15969 8.56253V8.99174C4.15969 8.99174 4.16819 9.02999 4.19369 9.05123C4.21494 9.19147 4.24893 9.32321 4.30418 9.44645C4.35517 9.56544 4.42317 9.68868 4.50816 9.81192C4.6144 9.93091 4.72489 10.0414 4.85238 10.1306C4.97987 10.2241 5.12435 10.2879 5.29434 10.3304L8.4688 11.244C8.91076 11.4863 9.29748 11.7625 9.6332 12.0642C9.96892 12.3702 10.2621 12.7272 10.5129 13.1309C10.7636 13.5176 10.9633 13.917 11.1121 14.3335C11.2565 14.75 11.3415 15.1707 11.3628 15.5999V16.1481C11.3415 16.1906 11.3288 16.2246 11.3288 16.2543V16.5433C11.3075 16.5858 11.299 16.6241 11.299 16.6496V16.76C11.2565 17.0023 11.1971 17.2445 11.1248 17.4867C11.0526 17.7332 10.9633 17.9754 10.8613 18.2219C10.7551 18.4641 10.6319 18.6979 10.4831 18.9188C10.3344 19.1398 10.1771 19.3438 10.0114 19.5265C9.73944 19.7688 9.44621 19.9855 9.13174 20.164C8.81727 20.3467 8.48155 20.4997 8.12883 20.6229C7.78886 20.7462 7.44889 20.8397 7.10467 20.8949C6.76046 20.9544 6.40774 20.9927 6.05502 21.0182H5.97428C5.94028 21.0182 5.91903 21.0267 5.89353 21.0479H5.10736C5.02236 21.0479 4.95012 21.0352 4.88638 21.0182C4.80138 21.0182 4.71639 21.0139 4.63565 21.0012C4.55066 20.9884 4.46566 20.9842 4.38492 20.9842C4.32543 20.9842 4.26593 20.9799 4.21069 20.9672C4.15969 20.9587 4.1002 20.9502 4.0407 20.9502H3.70923C3.59449 20.9502 3.47975 20.9417 3.37776 20.9204C3.14828 20.8779 2.91455 20.8354 2.68507 20.7844C2.4556 20.7334 2.22612 20.6782 1.99664 20.6187C1.76716 20.5549 1.53768 20.4912 1.32095 20.4232C1.09997 20.351 0.874738 20.2745 0.645259 20.198V16.4838L3.25452 17.3975C3.36076 17.44 3.4585 17.474 3.552 17.5037C3.64549 17.5335 3.75598 17.5675 3.88347 17.61C3.98971 17.6312 4.09595 17.6525 4.21069 17.6737C4.32543 17.695 4.44866 17.6992 4.5719 17.6992C4.6399 17.7205 4.69939 17.7375 4.76314 17.746C4.82688 17.7587 4.89062 17.7629 4.95437 17.7629H5.7108C5.96153 17.7417 6.21226 17.6992 6.46723 17.627C6.71796 17.559 6.95169 17.457 7.15992 17.338C7.3894 17.219 7.56788 17.0533 7.69537 16.8493C7.82286 16.6453 7.90785 16.4031 7.9461 16.1183V15.8124C7.9461 15.8124 7.9461 15.8379 7.9461 15.8294V15.7826C7.9291 15.6424 7.8781 15.5022 7.81011 15.3704C7.73362 15.2387 7.64438 15.1112 7.53814 14.988C7.4149 14.869 7.28741 14.7627 7.15992 14.6692C7.03668 14.5757 6.90919 14.4907 6.7817 14.41C6.71796 14.3718 6.66696 14.3463 6.62447 14.3335C6.58197 14.325 6.53948 14.308 6.49698 14.2868C6.45448 14.2868 6.41199 14.2868 6.36949 14.2698C6.32699 14.2613 6.2845 14.2443 6.24625 14.223C5.65981 14.104 5.09036 13.951 4.54641 13.7683C4.00245 13.5898 3.484 13.3731 3.0038 13.1309C2.54484 12.8844 2.12413 12.5699 1.74591 12.1705C1.37194 11.7795 1.04472 11.295 0.772747 10.7256C0.755749 10.6448 0.726001 10.5641 0.696254 10.4834C0.666507 10.4026 0.636759 10.3219 0.615511 10.2369C0.594263 10.1561 0.577265 10.0711 0.551767 9.97765C0.530519 9.89266 0.509271 9.80342 0.488023 9.72267C0.466775 9.63768 0.454026 9.55694 0.441277 9.4762C0.428528 9.39545 0.424279 9.31471 0.424279 9.23397C0.40303 9.14898 0.394531 9.06823 0.394531 8.99174V8.74526C0.394531 8.40529 0.437027 8.06532 0.51777 7.7126C0.602762 7.36414 0.730251 7.02842 0.895986 6.7097C1.06597 6.36973 1.26145 6.051 1.49093 5.74928C1.72041 5.45181 1.98389 5.17133 2.27711 4.91211C2.50659 4.72937 2.75732 4.56364 3.03354 4.4064C3.30552 4.25342 3.58599 4.13868 3.88347 4.05793C4.17669 3.95594 4.47416 3.8752 4.78013 3.81571C5.08611 3.75621 5.39208 3.70522 5.7108 3.66272V3.60323H6.33974L6.33549 3.59473Z" fill="#E20177" stroke="#E20177" stroke-width="1.85"/>
<path d="M25.7435 7.11778H24.9574C24.3029 7.16027 23.674 7.24527 23.0663 7.38126C22.4586 7.51299 21.8721 7.71697 21.3069 8.0017C20.7417 8.26942 20.2573 8.62639 19.8578 9.0811C19.4584 9.54006 19.1439 10.0925 18.9144 10.7427C18.9144 10.7597 18.9102 10.7894 18.8974 10.8319C18.8847 10.8744 18.8847 10.9084 18.8847 10.9254C18.8634 10.9679 18.8464 10.9977 18.8379 11.0317C18.8252 11.0614 18.8209 11.0997 18.8209 11.1379C18.7997 11.2187 18.7827 11.2952 18.7742 11.3631C18.7614 11.4354 18.7614 11.4991 18.7614 11.5629C18.7402 11.6436 18.7232 11.7244 18.7147 11.8051C18.7019 11.8901 18.6977 11.9581 18.6977 12.0176V12.4128C18.6977 12.9228 18.7699 13.42 18.9187 13.9087C19.0631 14.3931 19.2841 14.8606 19.5773 15.3068C19.8706 15.753 20.2318 16.1355 20.661 16.4499C21.0902 16.7644 21.5917 17.0236 22.1569 17.2276C22.2631 17.2489 22.3651 17.2744 22.4713 17.2999C22.5776 17.3339 22.6838 17.3679 22.7858 17.4061C22.892 17.4274 23.0025 17.4486 23.113 17.4656C23.2278 17.4911 23.3383 17.4996 23.4445 17.4996C23.5507 17.5208 23.6527 17.5421 23.759 17.5591C23.8652 17.5803 23.9715 17.5931 24.0734 17.5931C24.1797 17.6101 24.2859 17.6228 24.4049 17.6228H24.7364L25.6458 17.5633V20.9163C25.6246 20.9545 25.6033 20.9758 25.5693 20.9758H24.2647C23.0493 20.9758 21.8976 20.7845 20.8225 20.3978C19.7431 20.0111 18.7104 19.4247 17.7245 18.6342C16.7599 17.8438 16.0289 16.9471 15.5402 15.9527C15.0473 14.9583 14.8008 13.8492 14.8008 12.6338V12.434C14.8008 12.434 14.8135 12.4086 14.8348 12.3873V12.0091C14.8348 12.0091 14.8433 11.9836 14.8688 11.9666V11.9028C14.9283 10.9679 15.1408 10.084 15.4977 9.25534C15.8504 8.42241 16.3434 7.64473 16.9766 6.90955C17.6055 6.17861 18.311 5.57517 19.1014 5.09921C19.8876 4.62325 20.763 4.27054 21.7277 4.04531C21.8339 4.04531 21.9486 4.04531 22.0761 4.03256C22.2036 4.02406 22.3269 4.00706 22.4543 3.98581C22.5818 3.98581 22.7051 3.97731 22.8326 3.96881C22.96 3.96031 23.0833 3.94332 23.2108 3.92207H23.3808C23.436 3.92207 23.4912 3.91357 23.555 3.89232H24.1202C24.1839 3.89232 24.2477 3.88382 24.3114 3.86257H24.6556L25.7605 3.79883V7.11778H25.7435Z" fill="#E20177" stroke="#E20177" stroke-width="1.85"/>
<path d="M35.6454 3.59473C36.0024 3.63297 36.3253 3.71372 36.6186 3.82421C36.9118 3.9347 37.1965 4.10043 37.4685 4.32566C37.7235 4.55089 37.936 4.79312 38.1144 5.05659C38.2929 5.32432 38.4247 5.60905 38.5054 5.91502L43.0992 20.8949L39.2618 20.9247L38.3184 17.6695H33.1934L32.2202 20.9247H28.3828L33.1636 5.66854C33.2061 5.56655 33.2614 5.44331 33.3379 5.30307C33.4101 5.16284 33.4866 5.01835 33.5758 4.87386C33.6566 4.72937 33.7458 4.60189 33.8393 4.47865C33.9371 4.35541 34.0348 4.23642 34.141 4.11318C34.1623 4.09193 34.1835 4.07493 34.2048 4.06643C34.226 4.05793 34.2558 4.04094 34.2983 4.01969C34.3195 4.01969 34.345 4.01544 34.3748 4.00269C34.4088 3.99419 34.4343 3.98144 34.4555 3.96019C34.498 3.93895 34.5448 3.9177 34.5958 3.9007C34.6467 3.87945 34.7062 3.86245 34.7657 3.83695C34.8082 3.81996 34.855 3.79871 34.906 3.79021C34.957 3.78171 35.0165 3.76896 35.0802 3.74771C35.1227 3.72646 35.1694 3.70947 35.2204 3.70097C35.2714 3.69247 35.3309 3.67972 35.3947 3.65422V3.59473H35.6497H35.6454ZM34.1028 14.4865H37.3113L35.7729 7.02842L34.107 14.4865H34.1028Z" fill="#E20177" stroke="#E20177" stroke-width="1.85"/>
<path d="M53.0045 3.79917C53.5484 3.90116 54.0669 4.07965 54.5598 4.33462C55.0528 4.5896 55.499 4.93382 55.8942 5.35878C56.3149 5.78799 56.6251 6.2342 56.8249 6.70591C57.0204 7.17337 57.1223 7.67482 57.1223 8.20602V8.32926C57.1053 8.37176 57.0926 8.40151 57.0926 8.41851V8.72448C57.0714 8.78822 57.0544 8.84347 57.0459 8.89446C57.0331 8.94546 57.0289 8.98795 57.0289 9.03045C57.0076 9.07295 56.9906 9.11119 56.9821 9.15369C56.9736 9.19194 56.9651 9.23443 56.9651 9.27693C56.8844 9.51916 56.7866 9.75288 56.6846 9.97387C56.5784 10.1991 56.4637 10.4201 56.3404 10.6453C56.1917 10.8493 56.0344 11.0448 55.8687 11.2403C55.703 11.4357 55.5245 11.61 55.3333 11.7715C55.7327 11.9712 56.0812 12.2219 56.3872 12.5151C56.6889 12.8084 56.9481 13.1356 57.1563 13.501C57.3901 13.8623 57.5643 14.2277 57.6918 14.5932C57.8193 14.9587 57.8915 15.3454 57.9128 15.7491V16.48C57.9128 16.48 57.883 16.5183 57.883 16.5395V16.599C57.8618 16.905 57.8023 17.2025 57.7088 17.4957C57.6111 17.7889 57.4921 18.0779 57.3433 18.3626C57.1988 18.6431 57.0204 18.9108 56.8121 19.1658C56.5996 19.4208 56.3702 19.6587 56.1194 19.8797C55.9325 20.02 55.7412 20.1474 55.5542 20.2579C55.363 20.3684 55.159 20.4789 54.9253 20.5767C54.7171 20.6574 54.4876 20.7339 54.2496 20.8061C54.0074 20.8741 53.7736 20.9336 53.5442 20.9719L49.1416 20.9124C48.7846 20.8911 48.4616 20.8104 48.1642 20.6702C47.8709 20.5299 47.6075 20.3259 47.378 20.0625C47.1697 19.816 46.9913 19.544 46.8595 19.2423C46.7235 18.9363 46.6343 18.6218 46.5918 18.2946L46.6513 6.2937C46.6513 5.97073 46.7235 5.66475 46.8723 5.38003C47.021 5.0953 47.2292 4.83183 47.5012 4.58535C47.7732 4.34312 48.0664 4.16039 48.3851 4.03715C48.6996 3.91816 49.0311 3.85867 49.3923 3.85867L49.4858 3.79492H53.0087L53.0045 3.79917ZM50.1105 17.8102H52.8472C53.098 17.7719 53.3317 17.6827 53.5569 17.5509C53.7736 17.4192 53.9691 17.262 54.1391 17.075C54.3091 16.8922 54.4323 16.6968 54.5131 16.48C54.5981 16.2675 54.6406 16.0381 54.6406 15.7958V15.6726C54.6406 15.6726 54.6108 15.6301 54.6108 15.5961V15.5239C54.6108 15.4814 54.6066 15.4304 54.5938 15.3709C54.5811 15.3114 54.5683 15.2519 54.5471 15.1881C54.5471 15.1669 54.5428 15.1499 54.5301 15.1286C54.5216 15.1074 54.5131 15.0862 54.5131 15.0649C54.4918 15.0649 54.4833 15.0564 54.4833 15.0352V14.9757C54.4663 14.9332 54.4451 14.8949 54.4366 14.8567C54.4238 14.8142 54.4111 14.7759 54.3898 14.7334C54.2836 14.572 54.1689 14.4232 54.0456 14.2915C53.9181 14.1597 53.7821 14.0535 53.6377 13.9728C53.4889 13.892 53.3317 13.8198 53.166 13.7603C52.996 13.7008 52.809 13.6583 52.6008 13.637L50.119 13.5775V17.8059L50.1105 17.8102ZM50.9604 7.05013C50.9392 7.07138 50.9179 7.07988 50.8967 7.07988H50.5779L50.5482 7.10962H50.391C50.3697 7.13087 50.3485 7.13937 50.3272 7.13937H50.204V10.3946H52.3415C52.5073 10.3733 52.6645 10.3266 52.8132 10.2586C52.9577 10.1863 53.0852 10.0929 53.1914 9.96962C53.2977 9.85063 53.3827 9.71464 53.4422 9.56165C53.5059 9.40867 53.5484 9.26418 53.5697 9.11969C53.5697 9.10269 53.5782 9.08145 53.5994 9.0602V8.75423C53.5994 8.75423 53.5697 8.72023 53.5697 8.70748V8.478C53.5484 8.33776 53.5059 8.20602 53.4422 8.08279C53.3784 7.9638 53.3062 7.84056 53.2212 7.71732C53.1362 7.59833 53.0385 7.49209 52.9237 7.41135C52.809 7.3306 52.6645 7.25836 52.4988 7.19887C52.435 7.19887 52.3755 7.19462 52.3075 7.18612C52.2438 7.17337 52.18 7.16062 52.1163 7.13937H52.0398C52.0058 7.13937 51.9803 7.13087 51.9591 7.10962C51.9166 7.10962 51.8868 7.10962 51.8656 7.09262C51.8443 7.08413 51.8146 7.07563 51.7721 7.07563H51.3131C51.2834 7.07563 51.2536 7.06713 51.2366 7.04588H51.0496V6.98638C51.0284 7.00763 50.9944 7.02888 50.9562 7.04588L50.9604 7.05013Z" fill="#E20177" stroke="#E20177" stroke-width="1.85"/>
<path d="M66.0842 3.84961V20.9756H62.3105V3.84961H66.0842Z" fill="#E20177" stroke="#E20177" stroke-width="1.85"/>
<path d="M86.0759 3.90036C86.3182 4.02359 86.5434 4.19358 86.7516 4.41881C86.9598 4.62279 87.1341 4.83952 87.2701 5.07325C87.4061 5.30698 87.5165 5.55771 87.6015 5.82118V20.9158H84.4228V8.77042L81.4651 19.7302C81.4013 19.9342 81.3164 20.1084 81.2144 20.2614C81.1081 20.4144 80.9976 20.5419 80.8659 20.6438C80.7214 20.7458 80.5812 20.8266 80.4409 20.8861C80.3092 20.9456 80.152 20.9796 79.9862 20.9796H79.9225C79.9012 20.9796 79.8885 20.9881 79.8885 21.0093H79.7143C79.7143 21.0093 79.6888 21.0178 79.6675 21.0391H79.4465C79.4253 21.0178 79.404 21.0093 79.3828 21.0093H79.1958C79.1745 20.9881 79.1533 20.9796 79.1321 20.9796H79.0683C78.9196 20.9796 78.7836 20.9541 78.6603 20.9031C78.5329 20.8521 78.4096 20.7883 78.2821 20.7033C78.1589 20.6183 78.0484 20.5291 77.9507 20.4271C77.8572 20.3294 77.7764 20.2061 77.7169 20.0659C77.6744 19.9809 77.6319 19.9044 77.5894 19.8194C77.5469 19.7387 77.5044 19.6579 77.4662 19.5772C77.4407 19.5347 77.428 19.4922 77.4195 19.454C77.4067 19.4115 77.394 19.3605 77.3727 19.301C77.3515 19.2585 77.3387 19.216 77.326 19.182C77.3132 19.1395 77.309 19.097 77.309 19.0587L74.228 8.88941V20.9116H71.0195V6.03366C71.0195 5.68944 71.0833 5.37072 71.2065 5.086C71.334 4.80127 71.521 4.55905 71.7717 4.35506C72.0224 4.15108 72.2944 3.9981 72.5876 3.89611C72.8851 3.79412 73.1953 3.74312 73.5311 3.74312H73.7818C73.7818 3.74312 73.786 3.77287 73.7988 3.77287H73.8455C74.0538 3.79412 74.2535 3.83236 74.4447 3.89611C74.636 3.95985 74.8187 4.03634 75.0099 4.13833C75.2012 4.24032 75.3669 4.36356 75.5114 4.5038C75.6559 4.64829 75.7919 4.80977 75.9193 4.99251L79.4423 16.56L82.4935 4.93301C82.5572 4.76728 82.6507 4.61854 82.7782 4.47405C82.9015 4.33382 83.0629 4.20208 83.2499 4.07884C83.4412 3.9811 83.6324 3.89186 83.8321 3.82386C84.0319 3.75162 84.2358 3.70487 84.4441 3.68787C84.4653 3.68787 84.4866 3.67938 84.5078 3.65813H84.7585L85.26 3.59863C85.5575 3.68363 85.8252 3.78137 86.0632 3.90461L86.0759 3.90036Z" fill="#E20177" stroke="#E20177" stroke-width="1.85"/>
<path d="M96.5295 3.84961V20.9756H92.7559V3.84961H96.5295Z" fill="#E20177" stroke="#E20177" stroke-width="1.85"/>
<path d="M110.837 3.79883V7.11778H107.535V20.9205H103.795V7.05828H100.43V3.79883H110.841H110.837Z" fill="#E20177" stroke="#E20177" stroke-width="1.85"/>
<path d="M123.918 3.74805V7.11374L118.602 7.17324V10.1777H123.633V13.5052L118.602 13.5944V17.4701L123.918 17.5041V20.9207L117.314 20.891C116.957 20.8698 116.638 20.7848 116.358 20.6275C116.073 20.4788 115.827 20.2706 115.618 20.0028C115.406 19.7394 115.245 19.4589 115.13 19.1529C115.015 18.8469 114.947 18.5325 114.926 18.2052V6.73553C114.947 6.40831 114.998 6.10658 115.083 5.82186C115.168 5.53714 115.283 5.29491 115.431 5.09093C115.597 4.8657 115.797 4.66171 116.026 4.47898C116.26 4.29625 116.541 4.12626 116.876 3.96478H116.97C116.97 3.96478 117.012 3.93503 117.034 3.93503H117.08C117.08 3.93503 117.106 3.92653 117.127 3.90528H117.221V3.87554H117.331C117.331 3.87554 117.357 3.86704 117.378 3.84579H117.518C117.518 3.84579 117.544 3.83729 117.565 3.81604H117.658V3.75655H123.918V3.74805Z" fill="#E20177" stroke="#E20177" stroke-width="1.85"/>
<path d="M126.822 4.12289V1.36914H127.923C128.148 1.36914 128.314 1.39464 128.429 1.44138C128.548 1.49238 128.637 1.58162 128.705 1.70486C128.773 1.82385 128.807 1.96834 128.807 2.12132C128.807 2.31681 128.747 2.47829 128.633 2.61003C128.518 2.74602 128.344 2.83101 128.106 2.86926C128.191 2.916 128.254 2.96275 128.305 3.00524C128.403 3.10298 128.492 3.22622 128.577 3.37071L129.007 4.12289H128.594L128.267 3.54919C128.169 3.37921 128.093 3.25172 128.029 3.16673C127.965 3.08174 127.91 3.01799 127.863 2.98399C127.812 2.95425 127.761 2.92875 127.715 2.91175C127.676 2.9075 127.617 2.899 127.536 2.899H127.154V4.12289H126.822ZM127.154 2.58453H127.859C128.008 2.58453 128.131 2.56753 128.212 2.53354C128.297 2.49954 128.361 2.44429 128.403 2.3678C128.45 2.29131 128.471 2.20632 128.471 2.11707C128.471 1.98534 128.429 1.87909 128.348 1.78985C128.259 1.70911 128.123 1.66236 127.944 1.66236H127.158V2.57603L127.154 2.58453Z" fill="#E20177" stroke="#E20177" stroke-miterlimit="10"/>
<path d="M129.546 2.7328C129.546 3.19176 129.367 3.62097 129.048 3.94394C128.725 4.27116 128.296 4.44115 127.837 4.44115C127.378 4.44115 126.953 4.26691 126.63 3.94394C126.307 3.62522 126.129 3.19176 126.129 2.7328C126.129 1.78939 126.898 1.02445 127.842 1.02445C128.785 1.02445 129.55 1.78939 129.55 2.7328H129.546ZM127.837 0.782227C126.762 0.782227 125.887 1.65765 125.887 2.7328C125.887 3.2555 126.086 3.74421 126.46 4.10968C126.826 4.47939 127.319 4.67913 127.837 4.67913C128.356 4.67913 128.849 4.47939 129.214 4.10968C129.584 3.74421 129.784 3.2555 129.784 2.7328C129.784 1.65765 128.908 0.782227 127.833 0.782227H127.837Z" fill="#E20177" stroke="#E20177" stroke-miterlimit="10"/>
</g>
<defs>
<clipPath id="clip0_1495_35598">
<rect width="130" height="20.8614" fill="white" transform="translate(0 0.569336)"/>
</clipPath>
</defs>
</svg>
