<svg width="138" height="40" viewBox="0 0 138 40" fill="none" xmlns="http://www.w3.org/2000/svg">
<g clip-path="url(#clip0_1744_13485)">
<path d="M24.1895 0.451626L25.4031 8.01926C25.4031 8.01926 22.0399 3.15211 12.3841 3.15211C6.67388 3.15211 2.93534 9.82844 13.1737 12.5337C23.4047 15.2366 30.6893 18.7342 30.0995 27.1642C29.5097 35.5893 20.7434 43.4806 3.82002 38.3888C3.82002 38.3888 2.31631 37.8453 1.35853 38.7946L0.320312 31.2608C0.320312 31.2608 2.15059 34.4806 10.6098 35.9081C19.0788 37.3381 22.6151 32.4081 23.4047 30.0265C24.1968 27.64 24.884 22.9951 13.7659 19.6932C-1.8999 15.0338 0.0181097 8.09655 1.75334 5.06032C5.66492 -1.76335 18.8741 0.451626 18.8741 0.451626C18.8741 0.451626 21.8645 0.726988 24.1895 0.451626Z" fill="#939598"/>
<path d="M44.8251 15.7996C44.618 15.7851 43.6456 15.7465 42.7317 15.7996C38.6446 16.0581 31.6744 17.9446 31.477 28.331C31.2967 38.6692 41.2109 39.7779 43.4823 39.7779C43.5773 39.7779 44.0136 39.7755 44.1013 39.7755C46.3752 39.7755 56.282 38.6692 56.0993 28.331C55.9067 17.918 48.8927 16.1668 44.8251 15.7996ZM43.9478 37.3238H43.6334C42.4782 37.3238 37.4187 36.4736 37.5138 28.5557C37.6088 20.6209 41.1695 19.1765 43.2459 18.9832C43.7236 18.9373 44.2134 18.9687 44.3207 18.9832C46.3922 19.2537 49.9699 20.6064 50.0698 28.5557C50.1576 36.4736 45.1103 37.3238 43.9478 37.3238Z" fill="#939598"/>
<path d="M63.5981 36.1981V0C63.5981 0 60.0058 1.23188 57.5979 1.66184C57.5979 1.66184 58.3071 2.55797 58.4168 4.71014C58.4168 4.71014 58.4266 33.6401 58.4266 36.2923C58.4266 38.6498 57.4785 39.7778 57.4785 39.7778H64.7631C64.7631 39.7778 63.5981 38.4807 63.5981 36.1981Z" fill="#939598"/>
<path d="M87.0504 37.3145C86.4362 35.1357 87.0504 23.5464 87.0504 22.6502C87.0504 21.7541 87.5329 16.7807 80.4433 16.3459C77.4993 16.1671 74.1824 16.8217 73.1807 17.1019C72.2327 17.3652 70.7607 17.5343 69.4519 16.6913L68.8816 21.7082C68.8816 21.7082 72.0596 19.3217 78.3157 19.1502C83.7602 18.9956 82.0591 24.0609 81.2646 24.3555C78.3937 25.3749 68.17 25.6551 66.6175 32.2952C65.8718 35.4908 67.0611 39.7758 74.4968 39.7758C79.7877 39.7758 81.5083 37.0343 81.5083 37.0343L82.7464 39.7758H88.1495C88.1495 39.7758 87.6596 39.486 87.0479 37.3145H87.0504ZM72.435 34.5319C70.127 28.8773 81.562 26.2831 81.562 26.2831C81.8227 38.4473 73.3269 36.7324 72.435 34.5319Z" fill="#939598"/>
<path d="M97.374 19.8623V16.3574C97.374 16.3574 93.0968 17.8429 90.6914 18.128C90.6914 18.128 92.1488 19.2777 92.2024 21.1811V36.2946C92.2024 39.1642 91.2666 39.7801 91.2666 39.7801H98.6608C98.6608 39.7801 97.3764 38.5144 97.3764 36.2004V25.0458C97.3764 20.0821 105.519 21.3647 105.519 21.3647V16.7197C100.247 16.6594 98.1831 18.5555 97.3764 19.8647L97.374 19.8623Z" fill="#939598"/>
<path d="M121.406 36.4007C116.79 36.3113 111.937 34.4852 112.288 28.3041L127.801 23.8476C127.801 23.8476 125.851 13.4804 114.065 16.3814C105.187 18.5601 105.784 29.2993 107.436 32.7606C109.22 36.4708 113.824 40.9514 126.019 39.4901L127.316 34.1567C127.316 34.1567 126.019 36.4997 121.403 36.4031L121.406 36.4007ZM116.553 18.7461C120.813 18.1036 122.351 22.7509 122.351 22.7509L112.052 25.8427C111.582 21.7437 113.168 19.2509 116.553 18.7461Z" fill="#939598"/>
<path d="M132.229 16.4949V11.4707H134.251C134.658 11.4707 134.973 11.5214 135.185 11.6084C135.397 11.7002 135.567 11.8572 135.692 12.0866C135.816 12.3113 135.884 12.5673 135.884 12.8427C135.884 13.2002 135.779 13.4949 135.57 13.7388C135.355 13.9852 135.031 14.1422 134.595 14.2026C134.758 14.292 134.875 14.3765 134.961 14.4562C135.141 14.635 135.309 14.8572 135.46 15.1253L136.255 16.4924H135.494L134.892 15.449C134.714 15.1446 134.571 14.9127 134.456 14.7557C134.337 14.5939 134.234 14.4804 134.149 14.4176C134.056 14.3596 133.966 14.3209 133.871 14.2847C133.805 14.2726 133.691 14.263 133.537 14.263H132.833V16.4949H132.229ZM132.833 13.6953H134.132C134.405 13.6953 134.629 13.6639 134.778 13.6011C134.934 13.5359 135.051 13.4369 135.129 13.2968C135.214 13.1591 135.253 13.0093 135.253 12.8427C135.253 12.606 135.175 12.4151 135.021 12.2509C134.863 12.1036 134.614 12.0238 134.273 12.0238H132.83V13.6953H132.833Z" fill="#939598"/>
<path d="M137.238 13.9609C137.238 14.7918 136.911 15.5792 136.314 16.1638C135.724 16.7532 134.932 17.0744 134.094 17.0744C133.255 17.0744 132.463 16.7532 131.874 16.1638C131.276 15.5817 130.95 14.7918 130.95 13.9609C130.95 12.2435 132.363 10.8449 134.094 10.8449C135.824 10.8449 137.238 12.2435 137.238 13.9609ZM134.094 10.4102C132.12 10.4102 130.514 12.0019 130.514 13.9609C130.514 14.9077 130.882 15.8039 131.562 16.4657C132.234 17.1445 133.138 17.5116 134.094 17.5116C135.049 17.5116 135.953 17.1445 136.624 16.4657C137.303 15.8039 137.679 14.9077 137.679 13.9609C137.679 12.0019 136.068 10.4102 134.094 10.4102Z" fill="#939598"/>
</g>
<defs>
<clipPath id="clip0_1744_13485">
<rect width="137.358" height="40" fill="white" transform="translate(0.320312)"/>
</clipPath>
</defs>
</svg>
