<svg width="98" height="40" viewBox="0 0 98 40" fill="none" xmlns="http://www.w3.org/2000/svg">
<path d="M25.4455 33.8571C25.2911 33.8571 25.1544 33.7866 25.0662 33.6631C24.978 33.544 24.9604 33.3853 25.0089 33.2441L25.6528 31.4007C26.1026 29.6058 26.182 29.1736 26.4819 27.8902C26.4819 27.8902 30.4113 10.8494 31.558 5.97622C32.6517 1.31029 37.4984 0.0666248 40.193 0.0666248H50.5569C50.7641 0.0666248 50.9626 0.0666248 51.1522 0.0622147L52.903 0.00488281C53.0398 0.00488281 53.1677 0.0622147 53.2559 0.168058C53.3485 0.278312 53.3838 0.419436 53.3529 0.556151L52.5238 4.82517C52.4841 5.04127 52.2944 5.20003 52.0739 5.20003H42.7553C41.075 5.20003 39.7211 6.37313 39.0331 8.42826C38.6539 9.57489 38.1247 12.2695 37.8733 13.6763H46.7641C46.9053 13.6763 47.0376 13.7381 47.1214 13.8439C47.2096 13.9586 47.2404 14.0909 47.214 14.232L46.429 18.0027C46.3849 18.2188 46.1952 18.3687 45.9747 18.3687H36.7752L33.2029 33.5087C33.1544 33.716 32.9648 33.8616 32.7531 33.8616H25.4455V33.8571Z" fill="#FAA634"/>
<path d="M26.7591 0.555678C26.7856 0.423374 26.7503 0.282249 26.6665 0.171996C26.5783 0.061742 26.446 0 26.3093 0H9.95649C9.7448 0 9.55517 0.145535 9.51107 0.361632L8.53642 4.68357C8.50114 4.82029 8.53642 4.96141 8.62022 5.07166C8.70842 5.18192 8.84072 5.24807 8.98626 5.24807H10.7194L17.4493 5.27894C17.0524 7.01654 14.6533 18.1742 14.6533 18.1742C12.7878 25.989 11.5486 29.9625 9.29938 32.4983C6.72827 35.4002 3.7867 37.5612 0.302686 39.1224C0.0998195 39.215 -0.0104341 39.4355 0.0424877 39.6516C0.0954094 39.8589 0.276225 40 0.492322 40H0.509963C5.24646 39.7619 9.10092 38.8181 11.9852 37.1951C16.779 34.505 19.8793 29.7111 20.8275 26.1522C21.1406 24.9923 21.9565 21.5877 22.8914 17.5965H22.8826C24.166 12.1367 25.6654 5.60529 26.3975 2.22712L26.7591 0.551268V0.555678Z" fill="#FAA634"/>
<path d="M25.4455 33.8571C25.2911 33.8571 25.1544 33.7866 25.0662 33.6631C24.978 33.544 24.9604 33.3853 25.0089 33.2441L25.6528 31.4007C26.1026 29.6058 26.182 29.1736 26.4819 27.8902C26.4819 27.8902 30.4113 10.8494 31.558 5.97622C32.6517 1.31029 37.4984 0.0666248 40.193 0.0666248H50.5569C50.7641 0.0666248 50.9626 0.0666248 51.1522 0.0622147L52.903 0.00488281C53.0398 0.00488281 53.1677 0.0622147 53.2559 0.168058C53.3485 0.278312 53.3838 0.419436 53.3529 0.556151L52.5238 4.82517C52.4841 5.04127 52.2944 5.20003 52.0739 5.20003H42.7553C41.075 5.20003 39.7211 6.37313 39.0331 8.42826C38.6539 9.57489 38.1247 12.2695 37.8733 13.6763H46.7641C46.9053 13.6763 47.0376 13.7381 47.1214 13.8439C47.2096 13.9586 47.2404 14.0909 47.214 14.232L46.429 18.0027C46.3849 18.2188 46.1952 18.3687 45.9747 18.3687H36.7752L33.2029 33.5087C33.1544 33.716 32.9648 33.8616 32.7531 33.8616H25.4455V33.8571Z" fill="#FAA634"/>
<path d="M26.7591 0.555678C26.7856 0.423374 26.7503 0.282249 26.6665 0.171996C26.5783 0.061742 26.446 0 26.3093 0H9.95649C9.7448 0 9.55517 0.145535 9.51107 0.361632L8.53642 4.68357C8.50114 4.82029 8.53642 4.96141 8.62022 5.07166C8.70842 5.18192 8.84072 5.24807 8.98626 5.24807H10.7194L17.4493 5.27894C17.0524 7.01654 14.6533 18.1742 14.6533 18.1742C12.7878 25.989 11.5486 29.9625 9.29938 32.4983C6.72827 35.4002 3.7867 37.5612 0.302686 39.1224C0.0998195 39.215 -0.0104341 39.4355 0.0424877 39.6516C0.0954094 39.8589 0.276225 40 0.492322 40H0.509963C5.24646 39.7619 9.10092 38.8181 11.9852 37.1951C16.779 34.505 19.8793 29.7111 20.8275 26.1522C21.1406 24.9923 21.9565 21.5877 22.8914 17.5965H22.8826C24.166 12.1367 25.6654 5.60529 26.3975 2.22712L26.7591 0.551268V0.555678Z" fill="#FAA634"/>
<path d="M25.4455 33.8571C25.2911 33.8571 25.1544 33.7866 25.0662 33.6631C24.978 33.544 24.9604 33.3853 25.0089 33.2441L25.6528 31.4007C26.1026 29.6058 26.182 29.1736 26.4819 27.8902C26.4819 27.8902 30.4113 10.8494 31.558 5.97622C32.6517 1.31029 37.4984 0.0666248 40.193 0.0666248H50.5569C50.7641 0.0666248 50.9626 0.0666248 51.1522 0.0622147L52.903 0.00488281C53.0398 0.00488281 53.1677 0.0622147 53.2559 0.168058C53.3485 0.278312 53.3838 0.419436 53.3529 0.556151L52.5238 4.82517C52.4841 5.04127 52.2944 5.20003 52.0739 5.20003H42.7553C41.075 5.20003 39.7211 6.37313 39.0331 8.42826C38.6539 9.57489 38.1247 12.2695 37.8733 13.6763H46.7641C46.9053 13.6763 47.0376 13.7381 47.1214 13.8439C47.2096 13.9586 47.2404 14.0909 47.214 14.232L46.429 18.0027C46.3849 18.2188 46.1952 18.3687 45.9747 18.3687H36.7752L33.2029 33.5087C33.1544 33.716 32.9648 33.8616 32.7531 33.8616H25.4455V33.8571Z" fill="#FAA634"/>
<path d="M26.7591 0.555678C26.7856 0.423374 26.7503 0.282249 26.6665 0.171996C26.5783 0.061742 26.446 0 26.3093 0H9.95649C9.7448 0 9.55517 0.145535 9.51107 0.361632L8.53642 4.68357C8.50114 4.82029 8.53642 4.96141 8.62022 5.07166C8.70842 5.18192 8.84072 5.24807 8.98626 5.24807H10.7194L17.4493 5.27894C17.0524 7.01654 14.6533 18.1742 14.6533 18.1742C12.7878 25.989 11.5486 29.9625 9.29938 32.4983C6.72827 35.4002 3.7867 37.5612 0.302686 39.1224C0.0998195 39.215 -0.0104341 39.4355 0.0424877 39.6516C0.0954094 39.8589 0.276225 40 0.492322 40H0.509963C5.24646 39.7619 9.10092 38.8181 11.9852 37.1951C16.779 34.505 19.8793 29.7111 20.8275 26.1522C21.1406 24.9923 21.9565 21.5877 22.8914 17.5965H22.8826C24.166 12.1367 25.6654 5.60529 26.3975 2.22712L26.7591 0.551268V0.555678Z" fill="#FAA634"/>
<path d="M53.7855 13.7773H58.6278L58.4073 14.7652H56.6344L55.4128 20.0397H54.103L55.329 14.7652H53.5605L53.7899 13.7773H53.7855Z" fill="#FAA634"/>
<path d="M59.3951 13.7773H60.652L60.0831 16.3088H62.6145L63.1878 13.7773H64.4447L63.0335 20.0397H61.7766L62.394 17.2922H59.8626L59.2408 20.0397H57.9883L59.3995 13.7773H59.3951Z" fill="#FAA634"/>
<path d="M65.883 13.7773H69.5742L69.367 14.7652H66.9149L66.5665 16.3088H68.7584L68.5467 17.2922H66.346L65.9535 19.0519H68.432L68.1983 20.0397H64.4629L65.883 13.7773Z" fill="#FAA634"/>
<path d="M76.4188 14.9768C76.0528 14.7916 75.5809 14.6593 75.1222 14.6593C74.6636 14.6593 74.0682 14.8401 74.0638 15.3737C74.0462 16.3792 76.1851 16.3175 76.1542 18.0595C76.1278 19.5942 74.9194 20.1499 73.5434 20.1499C72.9436 20.1499 72.3262 20.0088 71.7617 19.7971L72.1013 18.7298C72.5864 18.9548 73.0936 19.1576 73.6272 19.1576C74.2314 19.1576 74.8268 18.8533 74.84 18.183C74.8576 17.0496 72.7143 17.2304 72.7408 15.5589C72.7628 14.2403 73.905 13.667 75.109 13.667C75.6559 13.667 76.2204 13.7376 76.7275 13.9492L76.4144 14.9768H76.4188Z" fill="#FAA634"/>
<path d="M79.6414 13.7773L79.0681 16.2382H79.0902L81.6172 13.7773H83.368L80.1486 16.6307L82.1155 20.0442H80.6161L78.927 16.8556L78.1905 20.0397H76.9336L78.3845 13.7773H79.6414Z" fill="#FAA634"/>
<path d="M84.2155 13.7773H85.5253L84.1052 20.0442H82.791L84.2111 13.7773H84.2155Z" fill="#FAA634"/>
<path d="M86.8079 13.7773H88.3955L89.6568 18.5359H89.67L90.7726 13.7773H91.9545L90.4991 20.0442H88.885L87.6546 15.2415H87.637L86.5653 20.0442H85.3613L86.8123 13.7773H86.8079Z" fill="#FAA634"/>
<path d="M55.4125 23.9558C55.0508 23.7662 54.5745 23.6295 54.1159 23.6295C53.6572 23.6295 53.0619 23.8059 53.053 24.3483C53.0398 25.3494 55.1743 25.2921 55.1479 27.0341C55.1214 28.5688 53.9086 29.1201 52.5371 29.1201C51.9329 29.1201 51.3154 28.979 50.7598 28.7717L51.0949 27.7044C51.5756 27.9294 52.0872 28.1322 52.6253 28.1322C53.225 28.1322 53.8248 27.8279 53.838 27.1576C53.8557 26.0242 51.7168 26.2006 51.7432 24.5336C51.7653 23.2149 52.9075 22.6416 54.1071 22.6416C54.6539 22.6416 55.2228 22.7122 55.7256 22.9194L55.4125 23.9558Z" fill="#FAA634"/>
<path d="M57.0962 29.0188H55.8438L57.2726 22.752H58.3311C59.4865 22.752 61.0786 22.8137 61.0565 24.3749C61.0301 25.892 59.7732 26.6373 58.3708 26.6373H57.6431L57.1006 29.0188H57.0962ZM57.868 25.6494H58.3178C59.0102 25.6494 59.7247 25.2922 59.7335 24.5072C59.7467 23.8721 59.2351 23.7398 58.6971 23.7398H58.3002L57.8636 25.6494H57.868Z" fill="#FAA634"/>
<path d="M62.3458 22.752H66.0327L65.8299 23.7398H63.3778L63.0294 25.2834H65.2213L65.0096 26.2712H62.8089L62.412 28.0265H64.8905L64.6612 29.0188H60.9258L62.3503 22.752H62.3458Z" fill="#FAA634"/>
<path d="M71.4524 23.9999C71.1657 23.8015 70.6939 23.6295 70.0191 23.6295C68.6299 23.6295 67.6332 24.6791 67.6112 26.1521C67.5935 27.2017 68.2639 28.1366 69.3664 28.1366C69.8956 28.1366 70.3322 27.9691 70.6894 27.7485L70.4778 28.9525C70.0147 29.0804 69.5296 29.1201 69.0533 29.1201C67.1613 29.1201 66.2749 27.85 66.3014 26.1521C66.3366 24.1366 67.7302 22.6416 69.9485 22.6416C70.5792 22.6416 71.2407 22.721 71.7876 22.9459L71.4568 23.9955L71.4524 23.9999Z" fill="#FAA634"/>
<path d="M72.6871 22.752H74.0014L72.5813 29.0188H71.2715L72.6916 22.752H72.6871Z" fill="#FAA634"/>
<path d="M77.1315 22.752H78.5251L79.5615 29.0188H78.3046L78.1105 27.5811H75.4468L74.6221 29.0188H73.2285L77.1271 22.752H77.1315ZM76.0201 26.5888H77.9606L77.6078 23.8633H77.5725L76.0201 26.5888Z" fill="#FAA634"/>
<path d="M81.7277 22.752H82.9846L81.7762 28.0265H84.2371L84.0033 29.0188H80.2988L81.7321 22.752H81.7277Z" fill="#FAA634"/>
<path d="M86.1466 22.752H87.4609L86.0364 29.0188H84.7266L86.1466 22.752Z" fill="#FAA634"/>
<path d="M91.8187 23.9558C91.4527 23.7662 90.9808 23.6295 90.5221 23.6295C90.0635 23.6295 89.4725 23.8059 89.4593 24.3483C89.4461 25.3494 91.5806 25.2877 91.5541 27.0341C91.5321 28.5688 90.3193 29.1201 88.9477 29.1201C88.3479 29.1201 87.7261 28.979 87.166 28.7717L87.5056 27.7044C87.9863 27.9294 88.4979 28.1322 89.0315 28.1322C89.6313 28.1322 90.2311 27.8279 90.2443 27.1576C90.2619 26.0242 88.123 26.205 88.1451 24.5336C88.1671 23.2149 89.3093 22.6416 90.5133 22.6416C91.0602 22.6416 91.6247 22.7122 92.1318 22.9194L91.8187 23.9558Z" fill="#FAA634"/>
<path d="M93.1322 22.752H97.9701L97.7452 23.7398H95.9723L94.7507 29.0188H93.4409L94.6669 23.7398H92.8984L93.1322 22.752Z" fill="#FAA634"/>
<path d="M59.089 0C57.9247 0 56.9766 0.948181 56.9766 2.11687C56.9766 3.28556 57.9247 4.22933 59.089 4.22933C60.2533 4.22933 61.2103 3.28115 61.2103 2.11687C61.2103 0.952591 60.2621 0 59.089 0ZM59.089 3.78831C58.1717 3.78831 57.422 3.03859 57.422 2.12128C57.422 1.20397 58.1717 0.454245 59.089 0.454245C60.0063 0.454245 60.7605 1.19956 60.7605 2.12128C60.7605 3.043 60.0107 3.78831 59.089 3.78831Z" fill="#FAA634"/>
<path d="M59.4558 2.099C59.7028 2.0108 59.8571 1.80793 59.8615 1.56097C59.8615 1.36251 59.813 1.20816 59.7072 1.10231C59.522 0.917086 59.2177 0.890625 58.9354 0.890625H58.3268L58.2871 3.2721L58.7149 3.27651L58.7325 2.26218H58.8781C59.0501 2.26218 59.1294 2.26218 59.2132 2.45182L59.5616 3.2721H60.0468L59.6013 2.28864C59.5528 2.19162 59.5087 2.13429 59.4602 2.09018L59.4558 2.099ZM59.0104 1.27872C59.1647 1.27872 59.2794 1.314 59.35 1.38015C59.3941 1.42425 59.4161 1.48599 59.4161 1.56538C59.4073 1.75501 59.2397 1.86968 58.9619 1.86968H58.7369L58.7458 1.27431H59.0104V1.27872Z" fill="#FAA634"/>
<path d="M25.4455 33.8571C25.2911 33.8571 25.1544 33.7866 25.0662 33.6631C24.978 33.544 24.9604 33.3853 25.0089 33.2441L25.6528 31.4007C26.1026 29.6058 26.182 29.1736 26.4819 27.8902C26.4819 27.8902 30.4113 10.8494 31.558 5.97622C32.6517 1.31029 37.4984 0.0666248 40.193 0.0666248H50.5569C50.7641 0.0666248 50.9626 0.0666248 51.1522 0.0622147L52.903 0.00488281C53.0398 0.00488281 53.1677 0.0622147 53.2559 0.168058C53.3485 0.278312 53.3838 0.419436 53.3529 0.556151L52.5238 4.82517C52.4841 5.04127 52.2944 5.20003 52.0739 5.20003H42.7553C41.075 5.20003 39.7211 6.37313 39.0331 8.42826C38.6539 9.57489 38.1247 12.2695 37.8733 13.6763H46.7641C46.9053 13.6763 47.0376 13.7381 47.1214 13.8439C47.2096 13.9586 47.2404 14.0909 47.214 14.232L46.429 18.0027C46.3849 18.2188 46.1952 18.3687 45.9747 18.3687H36.7752L33.2029 33.5087C33.1544 33.716 32.9648 33.8616 32.7531 33.8616H25.4455V33.8571Z" fill="#FAA634"/>
<path d="M26.7591 0.555678C26.7856 0.423374 26.7503 0.282249 26.6665 0.171996C26.5783 0.061742 26.446 0 26.3093 0H9.95649C9.7448 0 9.55517 0.145535 9.51107 0.361632L8.53642 4.68357C8.50114 4.82029 8.53642 4.96141 8.62022 5.07166C8.70842 5.18192 8.84072 5.24807 8.98626 5.24807H10.7194L17.4493 5.27894C17.0524 7.01654 14.6533 18.1742 14.6533 18.1742C12.7878 25.989 11.5486 29.9625 9.29938 32.4983C6.72827 35.4002 3.7867 37.5612 0.302686 39.1224C0.0998195 39.215 -0.0104341 39.4355 0.0424877 39.6516C0.0954094 39.8589 0.276225 40 0.492322 40H0.509963C5.24646 39.7619 9.10092 38.8181 11.9852 37.1951C16.779 34.505 19.8793 29.7111 20.8275 26.1522C21.1406 24.9923 21.9565 21.5877 22.8914 17.5965H22.8826C24.166 12.1367 25.6654 5.60529 26.3975 2.22712L26.7591 0.551268V0.555678Z" fill="#FAA634"/>
</svg>
