<svg width="130" height="26" viewBox="0 0 130 26" fill="none" xmlns="http://www.w3.org/2000/svg">
<g clip-path="url(#clip0_1744_13529)">
<path d="M1.55171 18.8431C2.23577 18.9606 2.75293 19.0183 3.1032 19.0183C3.38754 19.0183 3.66982 18.9935 3.95416 18.9441C4.90607 18.7772 5.38203 18.2106 5.38203 17.2422V17.1165C5.36554 17.067 5.3573 17.0258 5.3573 16.9908C3.9727 15.7566 2.90334 14.8541 2.15335 14.2875C0.76875 13.0678 0.0743896 11.9675 0.0743896 10.9826C0.0743896 9.8803 0.558588 8.99638 1.52698 8.3288C2.37794 7.7457 3.38754 7.45312 4.5558 7.45312C5.40675 7.45312 6.14026 7.65299 6.75838 8.05477C7.45893 8.52248 7.8092 9.16533 7.8092 9.98332C7.15811 9.98332 6.57913 9.7711 6.07021 9.34459C5.56128 8.91808 5.12241 8.70586 4.75566 8.70586C4.33739 8.70586 3.95416 8.86863 3.60389 9.19418C3.25361 9.51972 3.07848 9.8906 3.07848 10.3089C3.07848 10.927 3.37106 11.5266 3.95416 12.1117C4.27146 12.429 4.82159 12.8473 5.60661 13.3645C7.29203 14.4668 8.13474 15.6598 8.13474 16.9434C8.13474 17.5615 7.99257 18.0952 7.70824 18.5464C6.85728 19.8486 5.42942 20.4997 3.42669 20.4997C2.25843 20.4997 1.4899 20.4399 1.12314 20.3246C0.37315 20.0917 -0.00390625 19.5395 -0.00390625 18.6721C0.346365 18.6721 0.86353 18.7298 1.54759 18.8472L1.55171 18.8431Z" fill="#055EAA"/>
<path d="M11.3217 9.35496C12.6569 8.28766 14.367 7.75195 16.4542 7.75195C18.5414 7.75195 20.4185 8.23615 21.836 9.20455C23.439 10.3234 24.2385 11.9428 24.2385 14.061C24.2385 14.1784 24.2302 14.3453 24.2138 14.5616C24.1973 14.778 24.189 14.9366 24.189 15.0376C24.189 15.0541 24.1643 15.1303 24.1149 15.2622C23.814 15.9462 23.5895 16.4552 23.439 16.7889C23.2227 17.2402 23.0558 17.574 22.9384 17.7903C22.8724 17.8748 22.7467 18.0067 22.5634 18.19C21.595 19.1584 21.0531 19.6921 20.9356 19.793C20.1506 20.4606 18.7578 20.7944 16.755 20.7944C14.468 20.7944 12.6569 20.2607 11.3217 19.1914C9.85265 18.0396 9.11914 16.3624 9.11914 14.1599C9.11914 12.1406 9.85265 10.5376 11.3217 9.3529V9.35496ZM12.9247 17.0403C12.9742 17.1248 13.0834 17.2484 13.2503 17.4153L14.3011 18.4661C14.4515 18.6165 14.5772 18.7257 14.6761 18.7917C15.0758 19.1419 15.5353 19.3171 16.0524 19.3171H16.6026C18.1376 19.3171 19.3306 18.7257 20.1815 17.5389C20.3319 17.3226 20.5277 16.96 20.7687 16.449C21.0098 15.9401 21.1479 15.6351 21.1808 15.5362C21.1808 15.5857 21.1973 15.4105 21.2303 15.0108L21.255 14.6111V14.2855C21.255 12.9669 20.8285 11.8069 19.9775 10.8055C19.0771 9.75468 17.9748 9.22927 16.6726 9.22927H16.0978C15.5971 9.22927 15.1211 9.41265 14.6699 9.7794C12.9845 11.164 12.1418 12.5919 12.1418 14.061C12.1418 15.4126 12.3993 16.4057 12.9186 17.0403H12.9247Z" fill="#055EAA"/>
<path d="M28.2461 3.04591L28.3965 2.99646C28.7138 2.93053 29.0805 2.86254 29.4988 2.7966C30.733 2.61323 31.4171 2.52051 31.551 2.52051C32.4019 2.52051 32.8284 2.76364 32.8284 3.24577C31.8765 3.24577 31.0173 3.55484 30.2509 4.17296C29.4164 4.82406 29.0002 5.61732 29.0002 6.55069L29.2495 7.05137C29.3154 7.15233 29.3999 7.40164 29.5009 7.80342H32.505C32.6883 7.80342 32.7811 7.97856 32.7811 8.32883C32.7811 8.49572 32.6883 8.60492 32.505 8.65437C31.8044 8.77182 31.2687 8.82951 30.9019 8.82951C29.6327 8.86247 29.0002 9.2725 29.0002 10.0555V19.5684C29.0002 19.7518 28.7406 19.9269 28.2234 20.0938C27.7722 20.2442 27.4466 20.3184 27.2468 20.3184C27.0469 20.3184 26.8038 20.2854 26.5215 20.2174C26.1712 20.135 25.9961 20.0011 25.9961 19.8177V5.30001L28.2481 3.04591H28.2461Z" fill="#055EAA"/>
<path d="M35.681 4.79883C35.8808 4.81531 36.0312 4.82355 36.1322 4.82355C36.2826 4.92451 36.4083 5.13262 36.5072 5.44992C36.5566 5.60033 36.6246 5.8414 36.7071 6.17519C36.841 6.85925 36.9832 7.20128 37.1336 7.20128H40.1377C40.4879 7.20128 40.6631 7.49385 40.6631 8.07695C40.6631 8.66005 40.4879 8.95263 40.1377 8.95263H37.1336L36.7586 9.32763V19.3413C36.7586 19.4257 36.6082 19.6009 36.3073 19.8667C36.0065 20.1345 35.7819 20.2932 35.6315 20.3426C35.5821 20.3426 35.5058 20.3509 35.4069 20.3673H35.1824C34.8815 20.3673 34.5807 20.3097 34.282 20.1922C33.8472 20.0253 33.6309 19.8255 33.6309 19.5906V5.32423C33.6309 4.97396 34.0574 4.79883 34.9083 4.79883H35.6851H35.681Z" fill="#055EAA"/>
<path d="M83.4179 2.09375C83.6837 2.09375 83.9845 2.15144 84.3183 2.26889C84.7181 2.4193 84.92 2.61091 84.92 2.84374V18.3669C84.92 18.7852 84.4605 19.1684 83.5436 19.5187C82.3754 19.9535 81.0732 20.2275 79.6391 20.3449C79.2889 20.3614 79.0457 20.3697 78.9139 20.3697C76.8617 20.3697 75.0918 19.6568 73.6062 18.2289C72.1207 16.8031 71.3789 15.0703 71.3789 13.0346C71.3789 10.9989 72.2216 9.58749 73.907 8.50371C75.3432 7.5518 77.0698 7.07584 79.089 7.07584C79.7731 7.07584 80.181 7.08408 80.3149 7.10057C80.7662 7.1665 81.1329 7.33545 81.4173 7.60125L81.7923 7.35194V2.8458C81.7923 2.64594 82.0251 2.46256 82.4928 2.29567C82.8596 2.16174 83.1686 2.09581 83.42 2.09581L83.4179 2.09375ZM81.9406 13.8587C81.9406 13.2921 81.9489 12.707 81.9653 12.1074C82.0313 9.92128 81.1803 8.8272 79.4125 8.8272C78.0444 8.8272 76.9091 9.21868 76.0087 10.0037C75.0732 10.8382 74.6076 11.9158 74.6076 13.2324C74.6076 14.6335 75.0155 15.8615 75.8335 16.9123C76.701 18.0641 77.8115 18.6389 79.1632 18.6389C80.6322 18.6389 81.5079 18.1794 81.7923 17.2625C81.9262 16.8463 81.9839 16.3457 81.9674 15.7605C81.9509 15.1753 81.9427 14.5428 81.9427 13.8587H81.9406Z" fill="#055EAA"/>
<path d="M87.4837 10.9061C88.5181 8.87039 90.5702 7.85254 93.6423 7.85254C94.1595 7.85254 94.7343 7.89375 95.3689 7.97822C96.3868 8.12864 97.2213 8.44594 97.8724 8.93014C98.6903 9.49675 99.0983 10.2488 99.0983 11.1842C99.0983 12.5359 98.1464 13.63 96.2446 14.4644C94.6416 15.165 93.0984 15.5152 91.6128 15.5152C91.3449 15.5152 91.1657 15.4823 91.075 15.4143C90.9823 15.3483 90.937 15.1897 90.937 14.9383C90.937 14.4376 91.5963 14.0029 92.915 13.6361C93.8504 13.3868 94.483 13.1519 94.8167 12.9356C95.4349 12.5524 95.7439 11.9919 95.7439 11.2584C95.7439 10.9741 95.678 10.733 95.5441 10.5331C95.1773 9.98301 94.5427 9.70692 93.6423 9.70692C92.7914 9.70692 91.9569 10.0407 91.1389 10.7083C90.255 11.4418 89.812 12.2268 89.812 13.0613C89.812 14.1286 90.0778 15.165 90.6135 16.1663C91.2316 17.3181 91.9816 18.0599 92.8655 18.3936C93.3662 18.577 94.0915 18.6697 95.0434 18.6697C95.6265 18.6697 96.1952 18.4616 96.7453 18.0434C97.1965 17.7096 97.6127 17.5427 97.996 17.5427C97.996 18.577 97.6952 19.3043 97.0956 19.7205C96.5784 20.0708 95.7522 20.246 94.6169 20.246H94.3676C93.9163 20.246 93.5166 20.2377 93.1664 20.2212C92.7316 20.2047 92.198 20.0955 91.5634 19.8957C91.1966 19.7947 90.6712 19.6196 89.9871 19.3703C89.6533 19.2034 89.4452 19.0695 89.3608 18.9706C88.6087 18.27 88.0503 17.7013 87.6836 17.2686C87.1829 16.6856 86.9336 15.7172 86.9336 14.3655V13.4136C86.9336 12.4452 87.117 11.6107 87.4837 10.9102V10.9061Z" fill="#055EAA"/>
<path d="M100.752 11.081C100.752 10.263 101.302 9.49651 102.405 8.77742C103.39 8.12633 104.333 7.80078 105.234 7.80078C106.019 7.80078 106.593 7.84199 106.96 7.92647C107.677 8.10984 108.036 8.48484 108.036 9.05352C108.036 9.33785 107.943 9.51299 107.76 9.57892C107.642 9.57892 107.475 9.58716 107.259 9.60365H106.482C106.414 9.60365 106.315 9.59541 106.181 9.57892H105.755C105.722 9.57892 105.637 9.53771 105.506 9.45324C105.372 9.37082 105.289 9.32755 105.254 9.32755C105.104 9.36052 104.836 9.53977 104.453 9.86532C104.069 10.1909 103.878 10.4278 103.878 10.5782V19.5905L103.503 20.0912L103.377 20.2169C103.309 20.2849 103.268 20.3178 103.251 20.3178H101.249L100.748 19.8419V11.081H100.752Z" fill="#055EAA"/>
<path d="M117.984 7.87766C118.033 7.89414 118.142 7.93535 118.309 8.00334C119.094 8.3701 119.57 8.5782 119.737 8.62971C119.77 8.62971 119.828 8.63795 119.912 8.65444H120.112C120.162 8.65444 120.229 8.64619 120.312 8.62971H120.487C121.204 8.39688 121.915 8.17024 122.615 7.95389C123.417 7.72107 124.167 7.60362 124.868 7.60362C125.97 7.60362 126.895 7.77464 127.647 8.11667C128.399 8.4587 129.1 9.04798 129.751 9.88245C129.918 10.0988 130 10.3502 130 10.6324V19.6447C130 20.1619 129.499 20.4215 128.498 20.4215H128.071C127.27 20.372 126.87 20.1124 126.87 19.6447V11.1311C126.87 10.7149 126.512 10.2966 125.795 9.88038C125.177 9.53011 124.635 9.35498 124.167 9.35498C123.732 9.35498 123.1 9.51363 122.265 9.83094C121.33 10.1977 120.864 10.548 120.864 10.8817V19.3933C120.864 19.4943 120.722 19.6612 120.438 19.894C120.087 20.1619 119.852 20.3205 119.737 20.37C119.704 20.4029 119.494 20.4194 119.111 20.4194C119.01 20.4194 118.878 20.4112 118.711 20.3947C117.975 20.3288 117.609 20.0774 117.609 19.6447V10.8817C117.609 10.3975 117.225 9.96486 116.457 9.57956C115.806 9.26226 115.221 9.10361 114.706 9.10361C114.19 9.10361 113.562 9.25402 112.878 9.55484C112.027 9.92159 111.6 10.3646 111.6 10.8817V19.6426C111.6 20.1598 111.059 20.4194 109.973 20.4194C108.971 20.4194 108.471 20.1619 108.471 19.6426V10.8817C108.471 10.7313 108.553 10.5644 108.72 10.3811C110.356 8.52875 112.526 7.60156 115.229 7.60156C116.531 7.60156 117.448 7.69428 117.984 7.87766Z" fill="#055EAA"/>
<path d="M63.9664 22.258C63.1401 22.258 62.4746 21.5884 62.4746 20.7621C62.4746 19.938 63.1401 19.2725 63.9664 19.2725C64.7926 19.2725 65.4602 19.938 65.4602 20.7621C65.4602 21.5863 64.7967 22.258 63.9664 22.258Z" fill="#A7A9AC"/>
<path d="M48.4411 6.73066C47.6148 6.7286 46.9473 6.06103 46.9473 5.23892C46.9473 4.41681 47.6128 3.74512 48.4411 3.74512C49.2694 3.74512 49.9307 4.41269 49.9307 5.23892C49.9307 6.06515 49.2632 6.7286 48.4411 6.73066Z" fill="#A7A9AC"/>
<path d="M55.1428 25.054C54.5618 24.473 54.5618 23.5273 55.1428 22.9462C55.7259 22.3611 56.6716 22.3611 57.2547 22.9421C57.8378 23.5252 57.8378 24.4709 57.2547 25.054C56.6716 25.6392 55.7259 25.6351 55.1407 25.054H55.1428Z" fill="#A7A9AC"/>
<path d="M55.1428 3.05881C54.5618 2.47778 54.5618 1.52998 55.1428 0.946886C55.728 0.361727 56.6758 0.363788 57.2589 0.946886C57.8399 1.52998 57.8399 2.47366 57.2589 3.05675C56.6758 3.64191 55.728 3.63985 55.1428 3.05675V3.05881Z" fill="#A7A9AC"/>
<path d="M68.2562 14.0536C67.6751 14.6388 66.7315 14.6367 66.1463 14.0536C65.5632 13.4705 65.5632 12.5269 66.1463 11.9438C66.7315 11.3586 67.6772 11.3586 68.2582 11.9438C68.8413 12.5248 68.8413 13.4705 68.2562 14.0536Z" fill="#A7A9AC"/>
<path d="M46.2608 14.0534C45.6757 14.6365 44.7299 14.6365 44.1448 14.0534C43.5637 13.4703 43.5637 12.5245 44.1448 11.9414C44.7299 11.3604 45.6757 11.3583 46.2588 11.9414C46.8419 12.5245 46.8419 13.4723 46.2588 14.0554L46.2608 14.0534Z" fill="#A7A9AC"/>
<path d="M46.9453 20.7622C46.9412 19.9401 47.6108 19.2705 48.435 19.2705C49.2592 19.2705 49.9309 19.9381 49.9309 20.7622C49.9309 21.5864 49.2612 22.2581 48.435 22.2581C47.6088 22.2581 46.9453 21.5885 46.9453 20.7622Z" fill="#A7A9AC"/>
<path d="M62.4727 5.23621C62.4727 4.40998 63.1402 3.73828 63.9665 3.73828C64.7927 3.73828 65.4582 4.40792 65.4582 5.23621C65.4582 6.06449 64.7906 6.72589 63.9665 6.72589C63.1423 6.72589 62.4727 6.05625 62.4727 5.23621Z" fill="#A7A9AC"/>
<path d="M59.9295 24.4932C59.1651 24.1821 58.7942 23.3126 59.1074 22.5481C59.4144 21.7796 60.2839 21.4128 61.0504 21.724C61.8148 22.033 62.1836 22.9025 61.8745 23.669C61.5655 24.4314 60.6939 24.8022 59.9295 24.4932Z" fill="#A7A9AC"/>
<path d="M51.3562 4.27622C50.5918 3.96716 50.2209 3.0956 50.532 2.33119C50.8411 1.56471 51.7106 1.19796 52.4729 1.50702C53.2415 1.81402 53.6082 2.68558 53.2992 3.45C52.9922 4.21647 52.1206 4.58323 51.3582 4.27622H51.3562Z" fill="#A7A9AC"/>
<path d="M50.7034 23.7805C50.3799 23.0202 50.7364 22.1445 51.4967 21.8251C52.2549 21.4996 53.1306 21.854 53.4541 22.6101C53.7796 23.3704 53.4232 24.2482 52.6608 24.5675C51.9026 24.891 51.0331 24.5346 50.7034 23.7784V23.7805Z" fill="#A7A9AC"/>
<path d="M58.9493 3.38839C58.6278 2.6281 58.9781 1.75036 59.7405 1.42894C60.4987 1.10339 61.3764 1.4619 61.6999 2.22014C62.0172 2.98043 61.667 3.85611 60.9067 4.17959C60.1464 4.50102 59.2707 4.14663 58.9493 3.38839Z" fill="#A7A9AC"/>
<path d="M66.9856 18.4952C66.2294 18.8167 65.3517 18.4623 65.0302 17.704C64.7068 16.9437 65.0591 16.0701 65.8194 15.7446C66.5817 15.4232 67.4574 15.7775 67.7788 16.5358C68.1003 17.2961 67.7459 18.1718 66.9856 18.4952Z" fill="#A7A9AC"/>
<path d="M46.5909 10.2491C45.8286 10.5685 44.9529 10.2162 44.6315 9.45588C44.308 8.69765 44.6624 7.81991 45.4227 7.49849C46.1809 7.17706 47.0587 7.53145 47.3801 8.28969C47.7015 9.04998 47.3471 9.92566 46.5909 10.2512V10.2491Z" fill="#A7A9AC"/>
<path d="M44.7103 16.7274C45.0173 15.963 45.8868 15.5942 46.6533 15.9032C47.4177 16.2123 47.7886 17.0797 47.4754 17.8462C47.1705 18.6127 46.2968 18.9836 45.5324 18.6704C44.766 18.3634 44.3992 17.4918 44.7103 16.7274Z" fill="#A7A9AC"/>
<path d="M64.9274 8.15006C65.2364 7.38565 66.1059 7.01477 66.8724 7.32384C67.6368 7.6329 68.0056 8.50239 67.6945 9.26887C67.3875 10.0312 66.518 10.4021 65.7536 10.093C64.9892 9.78397 64.6183 8.91036 64.9274 8.148V8.15006Z" fill="#A7A9AC"/>
<path d="M51.9156 7.46191C52.066 7.46191 52.2247 7.4784 52.3915 7.51136C52.7748 7.59584 52.9664 7.76067 52.9664 8.01205V16.2723C52.9664 16.8574 53.4341 17.3581 54.3675 17.7743C55.1195 18.1246 55.8366 18.2997 56.5206 18.2997C57.2047 18.2997 57.8146 18.2173 58.3977 18.0504C59.2816 17.8011 59.7246 17.3746 59.7246 16.7729V8.01205C59.7246 7.64529 60.0748 7.46191 60.7754 7.46191H61.1009C62.1023 7.46191 62.603 7.81218 62.603 8.51273V16.023C62.603 17.558 61.8777 18.6603 60.4251 19.3279C59.4402 19.7956 58.0804 20.0284 56.3455 20.0284C55.7109 20.0284 55.0351 19.979 54.318 19.878C53.1168 19.7111 52.1402 19.3361 51.3881 18.7509C50.5207 18.0669 50.0859 17.1582 50.0859 16.023V8.7641C50.0859 7.89666 50.5866 7.46191 51.588 7.46191H51.9135H51.9156Z" fill="#055EAA"/>
</g>
<defs>
<clipPath id="clip0_1744_13529">
<rect width="130" height="24.9805" fill="white" transform="translate(0 0.509766)"/>
</clipPath>
</defs>
</svg>
