<svg width="132" height="40" viewBox="0 0 132 40" fill="none" xmlns="http://www.w3.org/2000/svg">
<path d="M14.1465 32.2616H16.312C16.9663 32.2616 18.0491 32.344 18.0491 34.1007C18.0491 35.6252 17.535 36.3181 16.1796 36.3181H14.8476V39.8503H14.1465V32.2578V32.2616ZM14.8476 35.7525H16.1484C16.8807 35.7525 17.3519 35.4154 17.3519 34.2243C17.3519 32.932 16.7716 32.8272 16.1367 32.8272H14.8476V35.7525Z" fill="#231F20"/>
<path d="M19.9922 35.2578H20.0156C20.2882 34.7521 20.8685 34.4375 21.5346 34.4375V35.0818C20.6037 35.0068 19.9922 35.5425 19.9922 36.4377V39.8537H19.334V34.5461H19.9922V35.2615V35.2578Z" fill="#231F20"/>
<path d="M22.4551 37.7711V36.625C22.4551 35.2466 23.0666 34.4375 24.3558 34.4375C25.645 34.4375 26.2603 35.2466 26.2603 36.625V37.7711C26.2603 39.1458 25.6488 39.9549 24.3558 39.9549C23.0627 39.9549 22.4551 39.1458 22.4551 37.7711ZM23.1133 37.1906C23.1133 38.5802 23.2769 39.4529 24.3597 39.4529C25.4424 39.4529 25.606 38.5802 25.606 37.1906C25.606 35.8009 25.4424 34.9432 24.3597 34.9432C23.2769 34.9432 23.1133 35.8159 23.1133 37.1906Z" fill="#231F20"/>
<path d="M27.1699 35.0488V34.5469H28.054V33.4531L28.7123 33.1797V34.5469H29.8262V35.0488H28.7123V38.4536C28.7123 39.1578 28.7902 39.3263 29.3121 39.3263C29.5302 39.3263 29.6821 39.3151 29.8262 39.2964V39.8432C29.6276 39.8619 29.4095 39.8732 29.203 39.8732C28.3189 39.8732 28.054 39.4949 28.054 38.8431V35.0488H27.1699Z" fill="#231F20"/>
<path d="M31.4747 37.329V37.7373C31.4747 38.4714 31.685 39.4528 32.721 39.4528C33.5389 39.4528 33.944 38.9471 33.9362 38.2317H34.6256C34.5477 39.5127 33.8271 39.9547 32.7249 39.9547C31.7746 39.9547 30.8242 39.5876 30.8242 37.977V36.6735C30.8242 35.1378 31.4902 34.4336 32.7249 34.4336C34.6256 34.4336 34.6256 35.7483 34.6256 37.3252H31.4786L31.4747 37.329ZM33.9674 36.8271C33.9674 35.6472 33.7687 34.9468 32.721 34.9468C31.6733 34.9468 31.4747 35.6509 31.4747 36.8271H33.9674Z" fill="#231F20"/>
<path d="M38.5428 36.0669C38.574 35.4039 38.3247 34.9432 37.5691 34.9432C37.1641 34.9432 36.8252 35.1642 36.685 35.5537C36.5954 35.7934 36.5331 36.5201 36.5331 37.2243C36.5331 38.1794 36.5331 39.4529 37.5497 39.4529C38.4143 39.4529 38.5234 38.9248 38.5545 38.2843H39.2089C39.2634 39.7151 38.2157 39.9549 37.7016 39.9549C35.832 39.9549 35.832 38.5353 35.832 37.2243C35.832 36.6961 35.8554 35.8683 35.9956 35.4676C36.2799 34.7109 36.9031 34.4375 37.6587 34.4375C38.6091 34.4375 39.2556 34.9544 39.2011 36.0669H38.5428Z" fill="#231F20"/>
<path d="M40.1797 35.0488V34.5469H41.0638V33.4531L41.7181 33.1797V34.5469H42.8321V35.0488H41.7181V38.4536C41.7181 39.1578 41.796 39.3263 42.3179 39.3263C42.5361 39.3263 42.688 39.3151 42.8321 39.2964V39.8432C42.6334 39.8619 42.4153 39.8732 42.2089 39.8732C41.3248 39.8732 41.0599 39.4949 41.0599 38.8431V35.0488H40.1758H40.1797Z" fill="#231F20"/>
<path d="M45.5071 39.9586C44.3153 39.9586 43.844 39.4005 43.8557 38.2768H44.5217C44.5217 39.0035 44.697 39.4866 45.5383 39.4866C46.1731 39.4866 46.4769 39.142 46.4769 38.5502C46.4769 37.1643 43.9959 37.5202 43.9959 35.7635C43.9959 34.7858 44.697 34.4375 45.659 34.4375C46.7534 34.4375 47.104 35.1642 47.104 35.9732H46.4574C46.4263 35.299 46.2393 34.9432 45.4954 34.9432C45.0241 34.9432 44.6541 35.2353 44.6541 35.7073C44.6541 37.0332 47.1351 36.6737 47.1351 38.4528C47.1351 39.4529 46.5353 39.9549 45.5071 39.9549V39.9586Z" fill="#231F20"/>
<path d="M52.4212 36.7005L50.1934 32.2656H50.9801L52.7834 36.0413L54.6763 32.2656H55.3774L53.1262 36.7005V39.8543H52.4251V36.7005H52.4212Z" fill="#231F20"/>
<path d="M55.7207 37.7711V36.625C55.7207 35.2466 56.3322 34.4375 57.6214 34.4375C58.9106 34.4375 59.5221 35.2466 59.5221 36.625V37.7711C59.5221 39.1458 58.9106 39.9549 57.6214 39.9549C56.3322 39.9549 55.7207 39.1458 55.7207 37.7711ZM56.375 37.1906C56.375 38.5802 56.5386 39.4529 57.6214 39.4529C58.7042 39.4529 58.8677 38.5802 58.8677 37.1906C58.8677 35.8009 58.7042 34.9432 57.6214 34.9432C56.5386 34.9432 56.375 35.8159 56.375 37.1906Z" fill="#231F20"/>
<path d="M64.3591 34.5469V39.8545H63.7904V39.2664H63.7671C63.3854 39.7196 62.992 39.9594 62.3805 39.9594C61.2432 39.9594 60.9277 39.1615 60.9277 38.3V34.5469H61.586V38.1951C61.586 38.3412 61.5548 39.4574 62.5051 39.4574C63.3893 39.4574 63.7086 38.6559 63.7086 38.2888V34.5469H64.363H64.3591Z" fill="#231F20"/>
<path d="M66.5703 35.2578H66.5937C66.8664 34.7521 67.4467 34.4375 68.1127 34.4375V35.0818C67.1818 35.0068 66.5703 35.5425 66.5703 36.4377V39.8537H65.916V34.5461H66.5703V35.2615V35.2578Z" fill="#231F20"/>
<path d="M74.7967 34.1869C74.7773 33.2505 74.5358 32.6811 73.4647 32.6811C72.6117 32.6811 72.0781 32.9658 72.0781 33.861C72.0781 34.9847 72.6702 35.0184 73.566 35.6365C74.5397 36.3107 75.5329 36.5092 75.5329 37.9813C75.5329 39.3372 74.8084 40.0002 73.4336 40.0002C71.8912 40.0002 71.2018 39.2023 71.268 37.7191H71.9886C71.9886 38.5618 72.0548 39.4346 73.4647 39.4346C74.3839 39.4346 74.8318 38.9626 74.8318 38.0899C74.8318 37.0598 74.119 36.7677 72.9817 36.0934C71.4511 35.187 71.3849 34.7375 71.3771 33.9809C71.3654 32.6662 72.23 32.123 73.5192 32.123C75.159 32.123 75.5095 33.1007 75.5095 34.1944H74.7967V34.1869Z" fill="#231F20"/>
<path d="M77.0059 32.2616H77.6602V36.8874H77.6836L79.5842 34.5427H80.3476L78.3924 36.9062L80.48 39.8503H79.6466L77.6797 36.9586H77.6563V39.8503H77.002V32.2578L77.0059 32.2616Z" fill="#231F20"/>
<path d="M81.6328 33.0633V32.2617H82.4429V33.0633H81.6328ZM81.7107 39.8542V34.5466H82.3689V39.8542H81.7107Z" fill="#231F20"/>
<path d="M84.6387 39.8539H83.9844V34.5463H84.6387V35.198H84.6582C84.9776 34.756 85.4021 34.4414 85.9902 34.4414C87.3573 34.4414 87.5014 35.419 87.5014 36.112V39.8539H86.8432V36.1419C86.8432 35.5202 86.5939 34.9433 85.8266 34.9433C85.2385 34.9433 84.6348 35.3329 84.6348 36.5202V39.8539H84.6387Z" fill="#231F20"/>
<path d="M91.334 39.8542V32.2617H93.5307C94.7653 32.2617 95.4002 32.7449 95.4002 34.0821C95.4002 34.9961 95.2483 35.6291 94.2551 35.8913V35.91C95.295 36.1198 95.5677 36.7827 95.5677 37.7379C95.5677 39.105 94.89 39.8504 93.5657 39.8504H91.334V39.8542ZM93.3788 35.6366C94.3836 35.6366 94.6991 34.9736 94.6991 34.1121C94.6991 32.8498 93.9786 32.8311 93.4216 32.8311H92.0312V35.6403H93.3749L93.3788 35.6366ZM92.0351 39.2848H93.1529C94.3135 39.2848 94.8705 38.9065 94.8705 37.7941C94.8705 37.1198 94.6641 36.2059 93.4606 36.2059H92.0389V39.2848H92.0351Z" fill="#231F20"/>
<path d="M99.9265 39.202H99.907C99.5564 39.7076 99.0229 39.9586 98.3413 39.9586C97.3559 39.9586 96.8223 39.3181 96.8223 38.3929C96.8223 36.5313 98.7697 36.7186 99.8836 36.6362V36.1942C99.8836 35.4189 99.6421 34.9432 98.7697 34.9432C98.1699 34.9432 97.6869 35.2278 97.6869 35.8571H96.9858C97.0404 34.8383 97.8622 34.4375 98.8203 34.4375C99.3773 34.4375 100.538 34.4899 100.538 35.8459V38.5165C100.538 38.8948 100.538 39.2319 100.604 39.8537H99.9265V39.202ZM99.8836 37.1419C98.945 37.1718 97.5233 37.067 97.5233 38.363C97.5233 38.9623 97.8388 39.4567 98.5165 39.4567C99.2721 39.4567 99.8836 38.8049 99.8836 38.112V37.1456V37.1419Z" fill="#231F20"/>
<path d="M102.754 35.2578H102.773C103.046 34.7521 103.626 34.4375 104.292 34.4375V35.0818C103.365 35.0068 102.75 35.5425 102.75 36.4377V39.8537H102.096V34.5461H102.75V35.2615L102.754 35.2578Z" fill="#231F20"/>
<path d="M106.107 35.2578H106.131C106.403 34.7521 106.984 34.4375 107.65 34.4375V35.0818C106.723 35.0068 106.107 35.5425 106.107 36.4377V39.8537H105.453V34.5461H106.107V35.2615V35.2578Z" fill="#231F20"/>
<path d="M108.822 33.0633V32.2617H109.632V33.0633H108.822ZM108.896 39.8542V34.5466H109.554V39.8542H108.896Z" fill="#231F20"/>
<path d="M111.693 37.329V37.7373C111.693 38.4714 111.9 39.4528 112.94 39.4528C113.758 39.4528 114.163 38.9471 114.151 38.2317H114.84C114.763 39.5127 114.042 39.9547 112.94 39.9547C111.989 39.9547 111.039 39.5876 111.039 37.977V36.6735C111.039 35.1378 111.705 34.4336 112.94 34.4336C114.84 34.4336 114.84 35.7483 114.84 37.3252H111.693V37.329ZM114.186 36.8271C114.186 35.6472 113.991 34.9468 112.94 34.9468C111.888 34.9468 111.693 35.6509 111.693 36.8271H114.186Z" fill="#231F20"/>
<path d="M116.889 35.2578H116.908C117.181 34.7521 117.761 34.4375 118.427 34.4375V35.0818C117.5 35.0068 116.885 35.5425 116.885 36.4377V39.8537H116.23V34.5461H116.885V35.2615L116.889 35.2578Z" fill="#231F20"/>
<path d="M11.4351 0.483398L19.4429 25.1973H17.0592L14.995 18.6911H4.92293L2.89372 25.1973H0.615234L8.72818 0.483398H11.4312H11.4351ZM14.3874 16.8444L10.0096 2.87688H9.93948L5.59673 16.8444H14.3874Z" fill="#231F20"/>
<path d="M25.0129 2.33001H18.75V0.483398H33.5543V2.33001H27.2875V25.1973H25.0129V2.33001Z" fill="#231F20"/>
<path d="M43.8132 0C51.5016 0 51.5678 6.16161 51.5678 12.8401C51.5678 19.5186 51.4977 25.6765 43.8132 25.6765C36.1287 25.6765 36.0508 19.5149 36.0508 12.8401C36.0508 6.16536 36.1248 0 43.8132 0ZM43.8132 23.8262C49.2231 23.8262 49.2932 19.4138 49.2932 12.8401C49.2932 6.26649 49.2192 1.85036 43.8132 1.85036C38.4072 1.85036 38.3293 6.26649 38.3293 12.8401C38.3293 19.4138 38.3994 23.8262 43.8132 23.8262Z" fill="#231F20"/>
<path d="M55.6367 12.8401C55.6367 6.16536 55.7107 0 63.3991 0C69.627 0 69.7321 4.92929 69.7321 7.15421H67.4576C67.4576 4.41613 66.6747 1.84661 63.3991 1.84661C57.9892 1.84661 57.9191 6.26275 57.9191 12.8364C57.9191 19.41 57.9892 23.8224 63.3991 23.8224C66.3553 23.8224 67.4576 21.2903 67.4926 18.1065H69.9152C69.9152 19.8857 69.4907 25.6728 63.3991 25.6728C55.7107 25.6728 55.6367 19.5111 55.6367 12.8364V12.8401Z" fill="#231F20"/>
<path d="M82.937 0.483398L90.9448 25.1973H88.5573L86.4969 18.6911H76.421L74.3957 25.1973H72.1133L80.2301 0.483398H82.9331H82.937ZM85.8932 16.8444L81.5154 2.88062H81.4414L77.1026 16.8444H85.8932Z" fill="#231F20"/>
<path d="M94.3828 25.1973V0.483398H96.6652V23.3469H105.172V25.1973H94.3828Z" fill="#231F20"/>
<path d="M108.744 25.1973V0.483398H112.623L120.203 22.8H120.281L127.751 0.483398H131.385V25.1973H129.102V2.60344H129.032L121.488 25.1973H118.851L111.093 2.60344H111.023V25.1973H108.744Z" fill="#231F20"/>
</svg>
