<svg width="90" height="40" viewBox="0 0 90 40" fill="none" xmlns="http://www.w3.org/2000/svg">
<g clip-path="url(#clip0_1744_13559)">
<path d="M3.47821 31.3721H4.81508L7.83754 39.6615H6.59293L5.69811 37.2485H2.58231L1.77976 39.6615H0.535156L3.47821 31.3721ZM5.34619 36.2754L4.19278 32.8001L2.84518 36.2754H5.34619Z" fill="#F16477"/>
<path d="M9.1548 34.2778C9.60436 33.8132 10.2074 33.5579 10.9627 33.5117C11.0979 33.5117 11.2449 33.5246 11.4037 33.5461C11.5625 33.5707 11.7266 33.6115 11.9004 33.6705C12.2341 33.7928 12.5453 34.0106 12.836 34.3293C13.1257 34.6458 13.3028 35.1168 13.3628 35.7434H12.3886C12.336 35.3142 12.1815 34.9924 11.9251 34.781C11.6676 34.5696 11.3833 34.4634 11.0754 34.4634C11.0367 34.4634 10.997 34.4677 10.9563 34.4698C10.9133 34.4741 10.8758 34.4795 10.8372 34.4881C10.4284 34.5568 10.0604 34.7907 9.72668 35.1952C9.39514 35.5986 9.23957 36.1672 9.26424 36.8979C9.2857 37.6532 9.45844 38.2015 9.77711 38.5416C10.0979 38.8796 10.4477 39.0534 10.8243 39.0631H10.8597C11.2374 39.0631 11.5807 38.93 11.8897 38.6661C12.1987 38.4021 12.3639 38.0502 12.3886 37.6135H13.3628C13.3628 38.3238 13.1268 38.8893 12.6547 39.3109C12.1837 39.7326 11.5882 39.9654 10.8704 40.0008C10.7878 39.9944 10.7009 39.9869 10.6108 39.9794C10.5196 39.9718 10.4284 39.9579 10.3382 39.9343C9.78676 39.827 9.28677 39.5223 8.83829 39.0159C8.3898 38.5105 8.20204 37.5674 8.27822 36.1865C8.41233 35.3786 8.70525 34.7434 9.15373 34.2789L9.1548 34.2778Z" fill="#F16477"/>
<path d="M14.4386 33.6825H15.4128V34.4872C15.4815 34.2372 15.7025 34.0194 16.0791 33.8295C16.4578 33.6407 16.8655 33.5377 17.3022 33.5237H17.416C17.8838 33.5162 18.3033 33.645 18.6734 33.9079C19.0425 34.1729 19.2035 34.6321 19.1606 35.2898V39.6609H18.1853V35.4711C18.1853 35.1235 18.0758 34.8649 17.8569 34.6954C17.6402 34.5248 17.3859 34.44 17.0984 34.44C17.0544 34.44 17.0061 34.4411 16.9567 34.4475C16.9074 34.4508 16.8613 34.4551 16.8151 34.4615C16.46 34.5302 16.1381 34.7158 15.8473 35.0183C15.5566 35.3188 15.4117 35.7383 15.4117 36.2747V39.6609H14.4375V33.6825H14.4386Z" fill="#F16477"/>
<path d="M21.186 34.3679C21.6173 33.7971 22.2771 33.5117 23.1677 33.5117C24.0582 33.5117 24.7331 33.7832 25.1043 34.3207C25.4734 34.8615 25.7052 35.4527 25.7953 36.0932C25.8167 36.2606 25.8328 36.4269 25.8414 36.5921C25.8479 36.7563 25.8511 36.9204 25.8511 37.0792H21.481C21.5036 37.7584 21.6688 38.2498 21.9746 38.5502C22.2782 38.8528 22.6173 39.0041 22.9863 39.0041H23.0883C23.4198 38.9794 23.7363 38.8614 24.0346 38.6521C24.3329 38.4418 24.5507 38.1532 24.6859 37.7895H25.6708C25.6247 38.4097 25.3768 38.8925 24.9241 39.239C24.4702 39.5867 23.8855 39.783 23.1677 39.8281C22.3072 39.7991 21.6731 39.5631 21.2664 39.1199C20.8576 38.68 20.598 38.194 20.4832 37.6672C20.4392 37.4859 20.4102 37.3056 20.3984 37.1296C20.3888 36.9515 20.3909 36.7842 20.4059 36.6254C20.4961 35.6908 20.7557 34.9355 21.186 34.3658V34.3679ZM24.776 36.1855C24.7299 35.5803 24.5539 35.1222 24.2438 34.8089C23.9337 34.4956 23.5904 34.3411 23.2127 34.3411H23.1215C22.7685 34.3647 22.4316 34.5267 22.1141 34.8314C21.7965 35.1394 21.5851 35.5911 21.4799 36.1865H24.7749L24.776 36.1855Z" fill="#F16477"/>
<path d="M30.2207 31.3721H31.3763V38.6755H35.3955V39.6615H30.2207V31.3721Z" fill="#F16477"/>
<path d="M36.7667 34.611C37.1508 33.9393 37.8793 33.6035 38.9512 33.6035C39.0188 33.6035 39.0864 33.6046 39.155 33.61C39.2237 33.6132 39.2913 33.6196 39.36 33.625C39.9265 33.7087 40.4458 33.9951 40.9211 34.4876C41.3975 34.9779 41.6357 35.7826 41.6357 36.8974C41.6357 37.0648 41.6185 37.2568 41.5852 37.4768C41.5509 37.6957 41.4876 37.9221 41.3975 38.1549C41.2312 38.5626 40.9597 38.9381 40.5831 39.2761C40.2054 39.6152 39.6615 39.8018 38.9523 39.8308C38.1068 39.877 37.4341 39.6677 36.9384 39.2032C36.4394 38.7386 36.1895 37.9725 36.1895 36.8974C36.1895 36.0466 36.3815 35.2837 36.7678 34.6121L36.7667 34.611ZM37.7398 38.4939C38.08 38.8502 38.4458 39.0272 38.8396 39.0272H38.8739C39.3181 39.0197 39.7248 38.804 40.0906 38.3802C40.4565 37.9585 40.6121 37.3727 40.5606 36.627C40.538 35.9017 40.3503 35.3556 40.0005 34.9908C39.6497 34.6249 39.2613 34.4404 38.8396 34.4404C38.4179 34.4404 38.0177 34.6389 37.668 35.0294C37.3171 35.4221 37.1519 36.0144 37.1744 36.8062C37.212 37.5766 37.4008 38.1399 37.7398 38.4929V38.4939Z" fill="#F16477"/>
<path d="M42.9727 34.6673H42.168V33.6824H42.9727V32.0869H43.9447V33.6824H44.9297V34.6673H43.9447V38.4151C43.9759 38.649 44.0327 38.8045 44.1153 38.8786C44.198 38.9558 44.2977 38.9934 44.4104 38.9934C44.4479 38.9934 44.4887 38.9923 44.5295 38.9891C44.5724 38.9827 44.6143 38.9784 44.6604 38.9687C44.7044 38.9623 44.7505 38.958 44.7956 38.9548C44.8396 38.9483 44.8857 38.9472 44.9297 38.9472V39.8399C44.8095 39.8496 44.6915 39.8603 44.5746 39.871C44.4565 39.8818 44.346 39.8882 44.2387 39.8882C43.8696 39.8882 43.5746 39.8185 43.3568 39.679C43.139 39.5395 43.0091 39.2949 42.9727 38.9472V34.6673Z" fill="#F16477"/>
<path d="M45.916 31.3721H46.901V32.6167H45.916V31.3721ZM45.916 33.6821H46.901V39.6605H45.916V33.6821Z" fill="#F16477"/>
<path d="M48.7129 34.611C49.097 33.9393 49.8266 33.6035 50.8974 33.6035C50.966 33.6035 51.0336 33.6046 51.1023 33.61C51.171 33.6132 51.2364 33.6196 51.3051 33.625C51.8716 33.7087 52.392 33.9951 52.8684 34.4876C53.3426 34.9779 53.5808 35.7826 53.5808 36.8974C53.5808 37.0648 53.5647 37.2568 53.5303 37.4768C53.496 37.6957 53.4359 37.9221 53.3447 38.1549C53.1784 38.5626 52.907 38.9381 52.5282 39.2761C52.1516 39.6152 51.6077 39.8018 50.8984 39.8308C50.053 39.877 49.3824 39.6677 48.8835 39.2032C48.3846 38.7386 48.1367 37.9725 48.1367 36.8974C48.1367 36.0466 48.3288 35.2837 48.714 34.6121L48.7129 34.611ZM49.6871 38.4939C50.0262 38.8502 50.3931 39.0272 50.7836 39.0272H50.8191C51.2643 39.0197 51.6688 38.804 52.0358 38.3802C52.4027 37.9585 52.5583 37.3727 52.5057 36.627C52.4832 35.9017 52.2976 35.3556 51.9456 34.9908C51.5937 34.6249 51.2075 34.4404 50.7836 34.4404C50.3598 34.4404 49.9639 34.6389 49.612 35.0294C49.2612 35.4221 49.0991 36.0144 49.1206 36.8062C49.1582 37.5766 49.3459 38.1399 49.686 38.4929L49.6871 38.4939Z" fill="#F16477"/>
<path d="M54.8262 33.6825H55.7993V34.4872C55.868 34.2372 56.0901 34.0194 56.4688 33.8295C56.8465 33.6407 57.2531 33.5377 57.692 33.5237H57.8046C58.2724 33.5162 58.693 33.645 59.0621 33.9079C59.4323 34.1729 59.5943 34.6321 59.5481 35.2898V39.6609H58.575V35.4711C58.575 35.1235 58.4666 34.8649 58.2467 34.6954C58.0267 34.5248 57.7735 34.44 57.487 34.44C57.4409 34.44 57.3937 34.4411 57.3465 34.4475C57.2971 34.4508 57.2489 34.4551 57.2049 34.4615C56.8497 34.5302 56.5278 34.7158 56.236 35.0183C55.9474 35.3188 55.8004 35.7383 55.8004 36.2747V39.6609H54.8272V33.6825H54.8262Z" fill="#F16477"/>
<g style="mix-blend-mode:multiply" opacity="0.5">
<path d="M2.05776 23.8685H1.44727V1.34766H10.3923C14.8203 1.34766 17.0456 3.27142 17.0638 7.12003C17.0638 10.1908 15.5027 12.1178 12.3762 12.9096V12.9707C13.3085 13.1059 14.0574 13.3269 14.6218 13.6349C15.1958 13.9525 15.6218 14.3827 15.8986 14.9256C16.4265 15.9835 16.6775 17.4159 16.6582 19.2216C16.6582 19.9598 16.7022 20.8235 16.7923 21.8085C16.8717 22.7934 17.0016 23.4758 17.1797 23.8546H16.5102C16.3492 23.3331 16.2409 22.6078 16.1808 21.6829C16.0907 20.7581 16.0467 19.9051 16.0467 19.1251C16.0982 17.255 15.7741 15.8119 15.0778 14.7936C14.3214 13.8066 12.7163 13.3055 10.27 13.2819H2.05776V23.8707V23.8685ZM2.05776 12.6703H10.2217C11.8976 12.6703 13.3461 12.2175 14.5724 11.3131C15.7977 10.4086 16.4222 8.98264 16.4426 7.03849C16.5445 3.71991 14.5735 2.02682 10.5361 1.96352H2.05776V12.6714V12.6703Z" fill="#B8337B"/>
<path d="M2.0548 24.303H1.00977V0.913086H10.3904C12.664 0.913086 14.4397 1.40342 15.666 2.4624C16.8945 3.52031 17.4932 5.11684 17.4975 7.12107C17.5254 9.84525 16.2583 11.8345 13.8968 12.8623C14.239 12.9718 14.5502 13.1005 14.8291 13.2529C15.4708 13.6059 15.9686 14.1048 16.2862 14.7314C16.8387 15.8408 17.0909 17.2721 17.092 19.0285C17.092 19.0993 17.0909 19.1594 17.092 19.2216C17.092 19.9426 17.1349 20.7935 17.2239 21.773C17.3001 22.7333 17.4374 23.3942 17.5726 23.6668L17.8645 24.2891H16.1864L16.0931 23.9801C15.916 23.4039 15.8066 22.655 15.7454 21.7226C15.6553 20.7849 15.6092 19.9201 15.6092 19.1122C15.6135 18.9877 15.6145 18.8665 15.6145 18.7452C15.6145 17.109 15.2959 15.8816 14.7304 15.0554C14.1339 14.2529 12.664 13.7314 10.2692 13.7153L2.49363 13.7132V24.3019H2.05695L2.0548 24.303ZM11.9387 12.9482V12.9407C11.9311 12.9417 11.9236 12.9439 11.9151 12.946C11.9236 12.946 11.9311 12.9482 11.9387 12.9492V12.9482ZM10.2209 12.2347C11.8185 12.2325 13.1607 11.8098 14.3131 10.9622C15.4085 10.1467 15.9793 8.89463 16.0051 7.02666C16.0061 6.94833 16.0094 6.87215 16.0094 6.79598C15.9611 3.86472 14.3699 2.51927 10.5353 2.3991H2.49149V12.2347H10.2209Z" fill="#B8337B"/>
<path d="M22.0108 15.8845C22.029 18.1215 22.5183 19.9573 23.4764 21.3897C24.4421 22.8757 26.0289 23.6278 28.236 23.6482C31.6468 23.6278 33.6983 21.8274 34.3882 18.2503H34.9997C34.7605 20.1322 34.048 21.5978 32.8603 22.6461C31.6522 23.7051 30.1308 24.2437 28.296 24.2651C25.8819 24.2437 24.1363 23.4304 23.058 21.8231C21.9303 20.2373 21.3756 18.2116 21.3971 15.7493C21.4368 12.9983 22.1546 10.8975 23.5515 9.44257C24.8777 7.97158 26.4592 7.2334 28.295 7.2334C30.7477 7.27632 32.5341 8.15183 33.6521 9.8653C34.7819 11.5573 35.2948 13.5648 35.1929 15.8855H22.0097L22.0108 15.8845ZM34.5824 15.274C34.6027 13.1882 34.0888 11.4339 33.0416 10.0134C31.9837 8.59066 30.4215 7.86965 28.3561 7.84926C26.6394 7.86965 25.1867 8.5295 24.0011 9.8256C22.8434 11.1239 22.1793 12.9393 22.0108 15.274H34.5824Z" fill="#B8337B"/>
<path d="M22.7036 22.0744C21.5331 20.4307 20.9612 18.3524 20.9612 15.8868C20.9612 15.846 20.9601 15.7934 20.9623 15.7419C21.002 12.9244 21.7444 10.6959 23.2294 9.15092C24.6167 7.60375 26.342 6.79154 28.3033 6.7969C30.8504 6.83231 32.8235 7.78078 34.0167 9.62408C35.1025 11.2517 35.6421 13.1605 35.6411 15.3128C35.6411 15.5102 35.6357 15.7033 35.6303 15.8964L35.6164 16.3213H22.4569C22.5331 18.2955 23.0009 19.8953 23.8431 21.1538C24.7261 22.5003 26.1242 23.1838 28.2346 23.2128C31.4802 23.157 33.2581 21.6087 33.9619 18.1689L34.0306 17.8148H35.4941L35.434 18.3052C35.1861 20.2644 34.4265 21.848 33.1497 22.9735C31.8601 24.1065 30.2185 24.6805 28.2947 24.7009C25.7915 24.6859 23.8603 23.8082 22.7058 22.0755L22.7036 22.0744ZM34.1422 14.8385C34.0907 13.0199 33.6025 11.5114 32.6916 10.2732C31.712 8.96744 30.3236 8.31188 28.3623 8.28506C26.754 8.30974 25.4428 8.90307 24.327 10.1166C23.3238 11.2388 22.7004 12.7978 22.4869 14.8385H34.1411H34.1422Z" fill="#B8337B"/>
<path d="M49.8944 12.396C49.8761 10.7726 49.4073 9.60207 48.4867 8.8832C47.5758 8.19545 46.3644 7.85104 44.8505 7.85104C43.7722 7.85104 42.9214 7.98409 42.298 8.25232C41.6661 8.55167 41.195 8.91432 40.8882 9.33598C40.592 9.7394 40.4032 10.1203 40.3249 10.4808C40.2165 10.8628 40.1618 11.1364 40.1618 11.3016C40.1618 12.0838 40.3249 12.6996 40.6532 13.1427C40.9611 13.6063 41.3796 13.941 41.9064 14.1481C42.9686 14.53 44.3108 14.9324 45.9299 15.3541C46.5651 15.4989 47.1766 15.6684 47.7635 15.8637C48.3601 16.03 48.9019 16.2725 49.3901 16.5922C49.8761 16.8894 50.2645 17.2928 50.551 17.7982C50.8289 18.3036 50.9673 18.9484 50.9673 19.7327C50.9287 21.3324 50.3257 22.4923 49.1626 23.2133C48.0285 23.9139 46.7357 24.2658 45.2818 24.2658C41.0652 24.2873 38.9451 22.3131 38.9258 18.3465H39.5384C39.5792 21.9022 41.4933 23.6693 45.2829 23.6489C46.4889 23.6489 47.6219 23.3496 48.6852 22.7509C49.7592 22.164 50.316 21.1844 50.3579 19.811C50.3579 19.0879 50.2184 18.4967 49.9394 18.0321C49.6315 17.5901 49.2141 17.2338 48.6862 16.9656C48.1991 16.6866 47.6273 16.4495 46.9717 16.2543C46.6627 16.1512 46.3333 16.0579 45.9868 15.9753C45.6477 15.9141 45.3044 15.8519 44.9557 15.7897C43.4847 15.4292 42.3109 15.0558 41.4343 14.676C40.1704 14.1492 39.5395 13.0312 39.5395 11.3177C39.5191 10.3499 39.9258 9.44113 40.7594 8.59673C41.1854 8.17292 41.7347 7.8328 42.4107 7.57423C43.0737 7.34784 43.887 7.23411 44.8494 7.23411C48.5371 7.19333 50.4276 8.91539 50.5156 12.3971H49.8933L49.8944 12.396Z" fill="#B8337B"/>
<path d="M45.2832 24.7013H45.2145C43.0643 24.7013 41.3723 24.1895 40.2146 23.1026C39.0537 22.0115 38.4979 20.3903 38.4915 18.3485L38.4883 17.9107H39.9689L39.9743 18.342C40.073 21.7035 41.6094 23.1477 45.2199 23.2132C45.2199 23.2132 45.2445 23.2099 45.2885 23.2132C46.4205 23.2121 47.4698 22.9342 48.4762 22.3688C49.414 21.8419 49.87 21.0641 49.9225 19.812C49.9225 19.1424 49.7927 18.6328 49.5824 18.2809C49.3174 17.9021 48.9612 17.5931 48.4698 17.3431C48.017 17.0846 47.4762 16.8582 46.8336 16.6683C46.5363 16.5685 46.2198 16.4794 45.9098 16.4043C45.5696 16.3421 45.2274 16.2799 44.8518 16.2144C43.3648 15.8496 42.1717 15.4719 41.265 15.0782C39.823 14.4945 39.0827 13.1254 39.1031 11.3326C39.102 11.3111 39.102 11.2821 39.102 11.251C39.0977 10.177 39.5741 9.16954 40.4517 8.28759C40.9281 7.81442 41.5343 7.44319 42.2704 7.16208C42.9946 6.91423 43.8529 6.79836 44.8411 6.79836C44.884 6.79728 44.9302 6.79728 44.9763 6.79728C48.7198 6.73505 50.9182 8.77148 50.9515 12.3862L50.9622 12.8336H49.8936H49.4612L49.4569 12.4023C49.4333 10.8519 49.003 9.84334 48.2209 9.23177C47.4065 8.61591 46.2992 8.28759 44.8497 8.28759C43.8057 8.28651 43.0064 8.41956 42.4828 8.64595C41.897 8.92384 41.4893 9.24786 41.2382 9.59442C40.9657 9.96351 40.809 10.2918 40.7436 10.6008C40.6363 10.9646 40.5944 11.2253 40.5955 11.3025C40.5955 12.0268 40.7479 12.5428 41.014 12.9033C41.2779 13.2928 41.6137 13.5643 42.0526 13.7381C43.0976 14.1136 44.4291 14.5149 46.0267 14.9312C46.6748 15.0793 47.3003 15.252 47.8797 15.4451C48.5181 15.6232 49.1017 15.8829 49.6178 16.2219C50.1639 16.5567 50.6092 17.0202 50.9332 17.5899C51.2562 18.1811 51.4042 18.9 51.4042 19.7444C51.3721 21.4428 50.6875 22.7926 49.3914 23.5844C48.1887 24.329 46.8132 24.7035 45.2928 24.7035H45.2821L45.2832 24.7013Z" fill="#B8337B"/>
<path d="M66.0847 12.396C66.0643 10.7726 65.5944 9.60207 64.6749 8.8832C63.764 8.19545 62.5526 7.85104 61.0398 7.85104C59.9604 7.85104 59.1106 7.98409 58.4883 8.25232C57.8553 8.55167 57.3832 8.91432 57.0774 9.33598C56.7813 9.7394 56.5935 10.1203 56.5141 10.4808C56.4058 10.8628 56.35 11.1364 56.35 11.3016C56.35 12.0838 56.5141 12.6996 56.8414 13.1427C57.1493 13.6063 57.5678 13.941 58.0946 14.1481C59.1568 14.53 60.4979 14.9324 62.1202 15.3541C62.7554 15.4989 63.3648 15.6684 63.9539 15.8637C64.5493 16.03 65.0901 16.2725 65.5783 16.5922C66.0654 16.8894 66.4527 17.2928 66.7392 17.7982C67.0182 18.3036 67.1587 18.9484 67.1587 19.7327C67.1179 21.3324 66.515 22.4923 65.3508 23.2133C64.2178 23.9139 62.9239 24.2658 61.4732 24.2658C57.2545 24.2873 55.1344 22.3131 55.1172 18.3465H55.7277C55.7685 21.9022 57.6826 23.6693 61.4743 23.6489C62.6771 23.6489 63.8122 23.3496 64.8766 22.7509C65.9506 22.164 66.5064 21.1844 66.5471 19.811C66.5471 19.0879 66.4087 18.4967 66.1287 18.0321C65.8197 17.5901 65.4023 17.2338 64.8755 16.9656C64.3884 16.6866 63.8155 16.4495 63.1588 16.2543C62.8498 16.1512 62.5226 16.0579 62.1739 15.9753C61.8359 15.9141 61.4926 15.8519 61.1428 15.7897C59.6718 15.4292 58.498 15.0558 57.6214 14.676C56.3575 14.1492 55.7266 13.0312 55.7266 11.3177C55.7062 10.3499 56.1129 9.44113 56.9487 8.59673C57.3736 8.17292 57.9229 7.8328 58.5989 7.57423C59.2619 7.34784 60.0752 7.23411 61.0387 7.23411C64.7264 7.19333 66.6158 8.91539 66.707 12.3971H66.0847V12.396Z" fill="#B8337B"/>
<path d="M61.4733 24.6994H61.4036C59.2534 24.6994 57.5614 24.1908 56.4016 23.1007C55.2439 22.0106 54.687 20.3905 54.6816 18.3487V17.912H55.1173H56.158L56.1623 18.3422C56.261 21.7027 57.7974 23.1479 61.4089 23.2123H61.4229C61.4368 23.2112 61.4626 23.2101 61.4969 23.2133C62.6171 23.2069 63.6642 22.9312 64.6653 22.3689C65.6019 21.8421 66.0569 21.0621 66.1084 19.81C66.1084 19.1405 65.9796 18.6319 65.7693 18.2811C65.5032 17.9013 65.146 17.5933 64.6556 17.3423C64.2061 17.0837 63.6642 16.8584 63.0194 16.6674C62.7222 16.5676 62.4089 16.4785 62.0945 16.4034C61.7576 16.3412 61.4132 16.2801 61.0388 16.2125C59.5517 15.8487 58.3575 15.47 57.453 15.0773C56.0099 14.4915 55.2696 13.1246 55.29 11.3317C55.2889 11.3081 55.2889 11.2813 55.2889 11.248C55.2846 10.1772 55.7621 9.16866 56.6397 8.28671C57.1151 7.81247 57.7202 7.44231 58.4573 7.1612C59.1815 6.91443 60.0399 6.7964 61.0291 6.7964C61.072 6.7964 61.1182 6.79533 61.1643 6.79533C64.9078 6.7331 67.103 8.7706 67.1405 12.3842L67.1502 12.8306H66.0815H65.6502L65.6459 12.4003C65.6223 10.851 65.1889 9.84139 64.4089 9.23089C63.5913 8.61502 62.4872 8.28671 61.0356 8.28456C59.9916 8.28456 59.1944 8.41653 58.6697 8.64292C58.0828 8.92081 57.6762 9.24484 57.4241 9.59247C57.1526 9.96048 56.9981 10.2909 56.9305 10.5967C56.8254 10.9615 56.7803 11.2233 56.7824 11.2995C56.7824 12.0227 56.9348 12.5398 57.2009 12.8982C57.4638 13.2887 57.8007 13.5602 58.2395 13.7351C59.2835 14.1095 60.6139 14.5097 62.2136 14.9271C62.8617 15.0752 63.4861 15.2479 64.0677 15.441C64.7028 15.6191 65.2865 15.8799 65.8026 16.2189C66.3519 16.5526 66.794 17.015 67.1169 17.5837C67.4431 18.1749 67.5912 18.8948 67.5912 19.7413C67.5579 21.4387 66.8745 22.7874 65.5762 23.5792C64.3745 24.3238 62.9979 24.6961 61.4808 24.6961H61.4701L61.4733 24.6994Z" fill="#B8337B"/>
<path d="M72.0963 12.6336C72.1757 11.0478 72.7122 9.75062 73.7025 8.74206C74.6735 7.75711 76.1284 7.2539 78.0608 7.23137C79.4985 7.21099 80.7077 7.53608 81.6894 8.20559C82.6411 8.90622 83.1561 10.1326 83.2344 11.8858V22.2438C83.2548 22.8125 83.4898 23.1365 83.9372 23.2202C84.1261 23.2588 84.3428 23.2803 84.581 23.2803C84.8117 23.2588 85.0252 23.2492 85.2247 23.2492V23.8661C84.9469 23.8661 84.6604 23.8565 84.3739 23.8361C84.0638 23.8361 83.7784 23.7964 83.5209 23.7116C82.9426 23.5378 82.6422 23.0646 82.6229 22.2943V20.1699H82.5607C82.2323 21.2503 81.5317 22.1913 80.4577 22.996C79.3354 23.82 77.9578 24.2406 76.328 24.262C74.7476 24.262 73.4836 23.8822 72.5395 23.1247C71.5856 22.3855 71.0974 21.3072 71.0781 19.8823C71.0781 18.8802 71.2423 18.0605 71.5717 17.4242C71.8807 16.8202 72.297 16.3492 72.8238 16.0123C73.3495 15.6721 73.9311 15.4318 74.5684 15.2902C75.195 15.1464 75.8355 15.0649 76.4921 15.0445C77.5833 14.9715 78.52 14.9039 79.2936 14.8385C80.0704 14.7795 80.7023 14.6754 81.1905 14.5295C81.6766 14.3739 82.0435 14.1282 82.2924 13.7956C82.5102 13.4533 82.6207 12.9855 82.6207 12.39C82.6207 11.8493 82.5907 11.3257 82.5328 10.815C82.4319 10.2839 82.2291 9.79353 81.9233 9.34719C81.6358 8.8794 81.1905 8.51567 80.5865 8.2528C79.9534 7.98242 79.1122 7.84831 78.0651 7.84831C74.7572 7.89122 72.9772 9.49848 72.7176 12.6733L72.0953 12.6325L72.0963 12.6336ZM82.6229 14.376H82.5607C82.3825 14.641 82.0896 14.861 81.683 15.0316C81.2549 15.1947 80.7528 15.3073 80.1755 15.3685C79.0425 15.4908 77.8129 15.5874 76.4932 15.6582C75.8763 15.6796 75.2937 15.7515 74.7476 15.8738C74.1703 16.0176 73.6489 16.2397 73.1832 16.5369C72.7143 16.8041 72.3614 17.215 72.1232 17.7708C71.8367 18.2955 71.6897 18.9993 71.6897 19.8845C71.6897 20.3265 71.7798 20.7793 71.9579 21.2417C72.1071 21.6816 72.3678 22.084 72.7358 22.4423C73.401 23.2234 74.578 23.6269 76.269 23.6462C78.3269 23.6258 79.9084 22.9724 81.0124 21.687C82.0853 20.4435 82.6229 18.9982 82.6229 17.3523V14.3739V14.376Z" fill="#B8337B"/>
<path d="M72.2715 23.4714C71.205 22.6517 70.6535 21.4082 70.6406 19.8857C70.6406 18.8353 70.8102 17.948 71.1825 17.2291C71.5215 16.565 71.9914 16.0274 72.5859 15.6497C73.1567 15.2807 73.7886 15.0199 74.4699 14.8676C75.1244 14.7195 75.7928 14.6326 76.4634 14.6122C77.5525 14.5403 78.487 14.4727 79.2616 14.4062C80.017 14.3494 80.6232 14.2474 81.0577 14.1165C81.4794 13.9813 81.7584 13.7861 81.9247 13.564C82.0824 13.3204 82.1865 12.9363 82.1865 12.3923C82.1865 11.8687 82.1564 11.3602 82.106 10.8988C82.0148 10.4246 81.8378 9.99325 81.5534 9.57802C81.3174 9.19713 80.9558 8.89135 80.415 8.65423C79.8646 8.41818 79.0749 8.28621 78.0696 8.28621C74.9045 8.37956 73.4463 9.70356 73.1513 12.711L73.1159 13.138L72.6899 13.109L72.0666 13.0683L71.6374 13.0393L71.6588 12.6123C71.7415 10.9428 72.3198 9.52438 73.3906 8.43642C74.4678 7.34525 76.0546 6.81951 78.0503 6.79805C78.0943 6.79591 78.1394 6.79591 78.1844 6.79591C79.6318 6.79376 80.8968 7.13925 81.944 7.85704C83.0405 8.66603 83.5888 10.049 83.6671 11.888V22.2311C83.7186 22.7021 83.7723 22.7214 84.0212 22.7966C84.1789 22.8287 84.3667 22.8481 84.5362 22.8502C84.7819 22.8266 85.0093 22.8169 85.2239 22.8169H85.6585V24.3051H85.2239C84.9353 24.3051 84.6392 24.2954 84.372 24.274C84.0233 24.274 83.6918 24.23 83.3935 24.1324C82.6167 23.9188 82.18 23.1732 82.1854 22.2987V21.8824C81.7981 22.4178 81.3056 22.9081 80.7133 23.3513C79.5106 24.2364 78.031 24.6795 76.3261 24.7021C74.6791 24.7032 73.3036 24.3029 72.2704 23.4736L72.2715 23.4714ZM81.8378 15.4384C81.3657 15.6186 80.8271 15.7377 80.2219 15.801C79.0782 15.9244 77.8421 16.021 76.5074 16.0929C75.913 16.1143 75.3594 16.1819 74.853 16.2967C74.3176 16.4308 73.8401 16.6326 73.3959 16.9158C73.015 17.1336 72.7307 17.4576 72.5032 17.9802C72.265 18.4147 72.1223 19.0467 72.1234 19.8857C72.1234 20.2666 72.2007 20.6657 72.3691 21.1024C72.4936 21.4726 72.7125 21.8148 73.0644 22.1614C73.6019 22.7987 74.6394 23.1935 76.2617 23.2118C78.2359 23.1871 79.6629 22.582 80.679 21.405C81.6875 20.229 82.1811 18.904 82.1854 17.3546V15.2689C82.0759 15.33 81.9601 15.3869 81.8367 15.4384H81.8378ZM82.797 19.7376V19.2999C82.7551 19.4479 82.709 19.5928 82.6575 19.7376H82.797ZM82.797 13.9395V13.7743C82.7712 13.8301 82.7433 13.8858 82.7133 13.9395H82.797Z" fill="#B8337B"/>
<path d="M88.8555 1.34766H89.467V23.8685H88.8555V1.34766Z" fill="#B8337B"/>
<path d="M89.4671 24.3031H88.4199V1.34772V0.912109H88.8555H89.9016V24.3031H89.4671Z" fill="#B8337B"/>
</g>
<path d="M1.14458 22.9564H0.535156V0.435547H9.47912C13.9071 0.435547 16.1324 2.35932 16.1506 6.20792C16.1506 9.27866 14.5895 11.2056 11.463 11.9975V12.0586C12.3954 12.1938 13.1443 12.4148 13.7086 12.7228C14.2826 13.0404 14.7086 13.4706 14.9854 14.0135C15.5133 15.0714 15.7644 16.5038 15.745 18.3095C15.745 19.0477 15.789 19.9114 15.8792 20.8964C15.9586 21.8813 16.0884 22.5637 16.2665 22.9425H15.597C15.436 22.421 15.3277 21.6957 15.2676 20.7708C15.1775 19.846 15.1335 18.993 15.1335 18.213C15.185 16.3428 14.861 14.8998 14.1646 13.8815C13.4082 12.8944 11.8031 12.3934 9.35681 12.3698H1.14458V22.9585V22.9564ZM1.14458 11.7582H9.3096C10.9855 11.7582 12.434 11.3054 13.6603 10.4009C14.8856 9.49646 15.5101 8.07053 15.5305 6.12638C15.6324 2.8078 13.6614 1.11471 9.62397 1.05141H1.14458V11.7582Z" fill="#F16477"/>
<path d="M1.14269 23.3899H0.0976562V0H9.47723C11.7508 0 13.5265 0.491403 14.7528 1.54931C15.9814 2.60723 16.58 4.20375 16.5843 6.20799C16.6122 8.93216 15.3451 10.9214 12.9836 11.9493C13.3258 12.0587 13.637 12.1874 13.916 12.3398C14.5576 12.6928 15.0554 13.1917 15.373 13.8183C15.9256 14.9277 16.1777 16.359 16.1788 18.1154C16.1788 18.1862 16.1777 18.2463 16.1788 18.3085C16.1788 19.0295 16.2217 19.8804 16.3107 20.86C16.3869 21.8202 16.5243 22.4812 16.6594 22.7537L16.9513 23.376H15.2732L15.1799 23.067C15.0028 22.4908 14.8934 21.7419 14.8322 20.8095C14.7421 19.8718 14.696 19.007 14.696 18.1991C14.7003 18.0746 14.7013 17.9534 14.7013 17.8321C14.7013 16.1959 14.3827 14.9685 13.8172 14.1423C13.2207 13.3398 11.7508 12.8183 9.35599 12.8022L1.58045 12.8001V23.3889H1.14377L1.14269 23.3899ZM11.0255 12.0362V12.0286C11.018 12.0297 11.0105 12.0319 11.0019 12.034C11.0105 12.034 11.018 12.0362 11.0255 12.0372V12.0362ZM9.30771 11.3227C10.9053 11.3205 12.2475 10.8978 13.3999 10.0502C14.4953 9.23473 15.0661 7.98262 15.0919 6.11464C15.093 6.03632 15.0962 5.96014 15.0962 5.88396C15.0479 2.95271 13.4567 1.60725 9.62208 1.48708H1.57938V11.3227H9.30878H9.30771Z" fill="#F16477"/>
<path d="M21.0987 14.9714C21.1169 17.2084 21.6062 19.0442 22.5643 20.4766C23.53 21.9626 25.1168 22.7147 27.3238 22.7351C30.7347 22.7147 32.7861 20.9143 33.476 17.3372H34.0876C33.8483 19.2191 33.1359 20.6847 31.9482 21.733C30.7401 22.792 29.2186 23.3306 27.3839 23.352C24.9698 23.3306 23.2242 22.5173 22.1459 20.91C21.0182 19.3243 20.4635 17.2986 20.485 14.8362C20.5247 12.0852 21.2425 9.98438 22.6394 8.52948C23.9656 7.05849 25.5471 6.32031 27.3829 6.32031C29.8356 6.36323 31.622 7.23874 32.74 8.95222C33.8698 10.6442 34.3827 12.6517 34.2807 14.9724H21.0976L21.0987 14.9714ZM33.6702 14.3609C33.6906 12.2751 33.1767 10.5208 32.1295 9.10028C31.0716 7.67757 29.5094 6.95656 27.444 6.93618C25.7273 6.95656 24.2746 7.61642 23.089 8.91252C21.9313 10.2108 21.2671 12.0262 21.0987 14.3609H33.6702Z" fill="#F16477"/>
<path d="M21.7896 21.1623C20.619 19.5185 20.0471 17.4403 20.0471 14.9747C20.0471 14.9339 20.0461 14.8813 20.0482 14.8298C20.0879 12.0123 20.8304 9.78383 22.3153 8.23881C23.7026 6.69164 25.4279 5.87943 27.3892 5.88479C29.9364 5.9202 31.9095 6.86867 33.1026 8.71197C34.1884 10.3396 34.7281 12.2484 34.727 14.4007C34.727 14.5981 34.7216 14.7912 34.7163 14.9843L34.7023 15.4092H21.5428C21.619 17.3834 22.0868 18.9832 22.929 20.2417C23.8121 21.5882 25.2101 22.2717 27.3206 22.3007C30.5662 22.2449 32.344 20.6966 33.0479 17.2568L33.1165 16.9027H34.58L34.5199 17.3931C34.2721 19.3522 33.5124 20.9359 32.2357 22.0614C30.946 23.1944 29.3044 23.7684 27.3806 23.7888C24.8775 23.7738 22.9462 22.8961 21.7917 21.1634L21.7896 21.1623ZM33.2281 13.9264C33.1766 12.1078 32.6884 10.5993 31.7775 9.36109C30.7979 8.05534 29.4096 7.39977 27.4482 7.37295C25.8399 7.39763 24.5288 7.99096 23.4129 9.20445C22.4097 10.3267 21.7864 11.8857 21.5729 13.9264H33.227H33.2281Z" fill="#F16477"/>
<path d="M48.9803 11.4839C48.9621 9.86053 48.4932 8.68996 47.5726 7.97109C46.6617 7.28334 45.4504 6.93893 43.9365 6.93893C42.8582 6.93893 42.0073 7.07198 41.3839 7.34021C40.752 7.63956 40.281 8.00221 39.9741 8.42387C39.678 8.82729 39.4891 9.20819 39.4108 9.56869C39.3025 9.95065 39.2477 10.2243 39.2477 10.3895C39.2477 11.1717 39.4108 11.7875 39.7391 12.2306C40.0471 12.6941 40.4655 13.0289 40.9923 13.236C42.0545 13.6179 43.3968 14.0203 45.0158 14.442C45.651 14.5868 46.2626 14.7563 46.8495 14.9516C47.446 15.1179 47.9878 15.3604 48.476 15.6801C48.9621 15.9773 49.3505 16.3807 49.6369 16.8861C49.9148 17.3914 50.0532 18.0363 50.0532 18.8206C50.0146 20.4203 49.4116 21.5802 48.2486 22.3012C47.1145 23.0018 45.8216 23.3537 44.3678 23.3537C40.1511 23.3752 38.031 21.401 38.0117 17.4344H38.6244C38.6651 20.9901 40.5792 22.7572 44.3688 22.7368C45.5748 22.7368 46.7078 22.4374 47.7711 21.8387C48.8451 21.2519 49.402 20.2723 49.4438 18.8989C49.4438 18.1758 49.3043 17.5846 49.0254 17.12C48.7174 16.6779 48.3001 16.3217 47.7722 16.0535C47.2851 15.7745 46.7132 15.5374 46.0576 15.3421C45.7486 15.2391 45.4192 15.1458 45.0727 15.0632C44.7336 15.002 44.3903 14.9398 44.0416 14.8776C42.5706 14.5171 41.3968 14.1437 40.5202 13.7639C39.2563 13.237 38.6254 12.1191 38.6254 10.4056C38.6051 9.43779 39.0117 8.52902 39.8454 7.68462C40.2713 7.26081 40.8207 6.92069 41.4966 6.66212C42.1597 6.43573 42.973 6.322 43.9354 6.322C47.623 6.28122 49.5136 8.00328 49.6015 11.4849H48.9792L48.9803 11.4839Z" fill="#F16477"/>
<path d="M44.3691 23.7882H44.3004C42.1503 23.7882 40.4583 23.2764 39.3006 22.1896C38.1397 21.0984 37.5839 19.4772 37.5774 17.4354L37.5742 16.9976H39.0549L39.0602 17.429C39.1589 20.7905 40.6954 22.2346 44.3058 22.3001C44.3058 22.3001 44.3305 22.2968 44.3745 22.3001C45.5064 22.299 46.5557 22.0211 47.5622 21.4557C48.4999 20.9289 48.9559 20.151 49.0085 18.8989C49.0085 18.2294 48.8786 17.7197 48.6683 17.3678C48.4033 16.989 48.0471 16.68 47.5557 16.4301C47.1029 16.1715 46.5622 15.9451 45.9195 15.7552C45.6223 15.6554 45.3058 15.5663 44.9957 15.4912C44.6556 15.429 44.3133 15.3668 43.9378 15.3013C42.4507 14.9365 41.2576 14.5589 40.351 14.1651C38.9089 13.5814 38.1686 12.2124 38.189 10.4195C38.1879 10.398 38.1879 10.3691 38.1879 10.3379C38.1836 9.26394 38.66 8.25645 39.5377 7.3745C40.0141 6.90134 40.6203 6.5301 41.3563 6.249C42.0805 6.00115 42.9389 5.88527 43.9271 5.88527C43.97 5.8842 44.0161 5.8842 44.0622 5.8842C47.8057 5.82197 50.0041 7.85839 50.0374 11.4731L50.0481 11.9205H48.9795H48.5471L48.5428 11.4892C48.5192 9.93881 48.089 8.93025 47.3068 8.31868C46.4924 7.70282 45.3852 7.3745 43.9356 7.3745C42.8917 7.37343 42.0923 7.50647 41.5687 7.73286C40.9829 8.01075 40.5752 8.33478 40.3241 8.68133C40.0516 9.05042 39.895 9.37874 39.8295 9.68774C39.7222 10.0515 39.6804 10.3122 39.6815 10.3894C39.6815 11.1137 39.8338 11.6298 40.0999 11.9903C40.3638 12.3797 40.6997 12.6512 41.1385 12.825C42.1835 13.2005 43.515 13.6018 45.1126 14.0181C45.7607 14.1662 46.3862 14.3389 46.9656 14.532C47.604 14.7101 48.1877 14.9698 48.7037 15.3088C49.2499 15.6436 49.6951 16.1071 50.0192 16.6768C50.3421 17.268 50.4902 17.9869 50.4902 18.8313C50.458 20.5297 49.7735 21.8795 48.4774 22.6713C47.2746 23.4159 45.8991 23.7904 44.3788 23.7904H44.368L44.3691 23.7882Z" fill="#F16477"/>
<path d="M65.1706 11.4839C65.1503 9.86053 64.6803 8.68996 63.7608 7.97109C62.8499 7.28334 61.6385 6.93893 60.1257 6.93893C59.0463 6.93893 58.1966 7.07198 57.5743 7.34021C56.9413 7.63956 56.4692 8.00221 56.1634 8.42387C55.8672 8.82729 55.6795 9.20819 55.6001 9.56869C55.4917 9.95065 55.4359 10.2243 55.4359 10.3895C55.4359 11.1717 55.6001 11.7875 55.9273 12.2306C56.2353 12.6941 56.6537 13.0289 57.1805 13.236C58.2427 13.6179 59.5839 14.0203 61.2062 14.442C61.8413 14.5868 62.4508 14.7563 63.0398 14.9516C63.6353 15.1179 64.176 15.3604 64.6642 15.6801C65.1513 15.9773 65.5387 16.3807 65.8251 16.8861C66.1041 17.3914 66.2446 18.0363 66.2446 18.8206C66.2039 20.4203 65.6009 21.5802 64.4368 22.3012C63.3037 23.0018 62.0098 23.3537 60.5592 23.3537C56.3404 23.3752 54.2203 21.401 54.2031 17.4344H54.8136C54.8544 20.9901 56.7685 22.7572 60.5602 22.7368C61.763 22.7368 62.8982 22.4374 63.9625 21.8387C65.0365 21.2519 65.5923 20.2723 65.6331 18.8989C65.6331 18.1758 65.4947 17.5846 65.2146 17.12C64.9056 16.6779 64.4883 16.3217 63.9614 16.0535C63.4743 15.7745 62.9014 15.5374 62.2448 15.3421C61.9357 15.2391 61.6085 15.1458 61.2598 15.0632C60.9218 15.002 60.5785 14.9398 60.2287 14.8776C58.7577 14.5171 57.5839 14.1437 56.7073 13.7639C55.4434 13.237 54.8125 12.1191 54.8125 10.4056C54.7922 9.43779 55.1988 8.52902 56.0346 7.68462C56.4595 7.26081 57.0088 6.92069 57.6848 6.66212C58.3479 6.43573 59.1611 6.322 60.1246 6.322C63.8123 6.28122 65.7017 8.00328 65.7929 11.4849H65.1706V11.4839Z" fill="#F16477"/>
<path d="M60.5612 23.7872H60.4915C58.3413 23.7872 56.6493 23.2787 55.4894 22.1886C54.3318 21.0985 53.7749 19.4783 53.7695 17.4366V16.9999H54.2051H55.2459L55.2502 17.4301C55.3489 20.7905 56.8853 22.2358 60.4968 22.3002H60.5108C60.5247 22.2991 60.5505 22.298 60.5848 22.3012C61.7049 22.2948 62.7521 22.0191 63.7532 21.4568C64.6898 20.93 65.1448 20.15 65.1963 18.8979C65.1963 18.2284 65.0675 17.7198 64.8572 17.369C64.5911 16.9891 64.2338 16.6812 63.7435 16.4301C63.294 16.1716 62.7521 15.9463 62.1073 15.7553C61.8101 15.6555 61.4968 15.5664 61.1824 15.4913C60.8455 15.4291 60.5011 15.3679 60.1267 15.3004C58.6396 14.9366 57.4454 14.5579 56.5409 14.1652C55.0978 13.5794 54.3575 12.2125 54.3779 10.4196C54.3768 10.396 54.3768 10.3692 54.3768 10.3359C54.3725 9.2651 54.85 8.25655 55.7276 7.3746C56.2029 6.90036 56.8081 6.5302 57.5452 6.24909C58.2694 6.00232 59.1278 5.88429 60.117 5.88429C60.1599 5.88429 60.2061 5.88322 60.2522 5.88322C63.9957 5.82099 66.1909 7.85849 66.2284 11.4721L66.2381 11.9185H65.1694H64.7381L64.7338 11.4882C64.7102 9.93891 64.2768 8.92928 63.4967 8.31878C62.6792 7.70291 61.5751 7.3746 60.1234 7.37245C59.0795 7.37245 58.2823 7.50442 57.7576 7.73081C57.1707 8.0087 56.7641 8.33273 56.5119 8.68036C56.2405 9.04837 56.086 9.37884 56.0184 9.68462C55.9133 10.0494 55.8682 10.3112 55.8703 10.3874C55.8703 11.1105 56.0227 11.6277 56.2888 11.9861C56.5516 12.3766 56.8886 12.6481 57.3274 12.8229C58.3713 13.1974 59.7018 13.5976 61.3015 14.015C61.9496 14.163 62.574 14.3358 63.1555 14.5289C63.7907 14.707 64.3744 14.9677 64.8905 15.3068C65.4398 15.6405 65.8819 16.1029 66.2048 16.6716C66.531 17.2627 66.6791 17.9827 66.6791 18.8292C66.6458 20.5266 65.9623 21.8753 64.6641 22.6671C63.4624 23.4117 62.0858 23.784 60.5687 23.784H60.558L60.5612 23.7872Z" fill="#F16477"/>
<path d="M71.1842 11.7215C71.2636 10.1357 71.8001 8.83851 72.7904 7.82995C73.7614 6.845 75.2163 6.34179 77.1487 6.31926C78.5864 6.29888 79.7956 6.62397 80.7773 7.29348C81.729 7.99411 82.244 9.22047 82.3223 10.9736V21.3317C82.3427 21.9004 82.5777 22.2244 83.0251 22.3081C83.214 22.3467 83.4307 22.3682 83.6689 22.3682C83.8996 22.3467 84.1131 22.3371 84.3126 22.3371V22.954C84.0347 22.954 83.7483 22.9444 83.4618 22.924C83.1517 22.924 82.8663 22.8843 82.6088 22.7995C82.0305 22.6257 81.7301 22.1525 81.7108 21.3822V19.2578H81.6485C81.3202 20.3382 80.6196 21.2792 79.5456 22.0839C78.4233 22.9079 77.0457 23.3285 75.4159 23.3499C73.8354 23.3499 72.5715 22.9701 71.6273 22.2126C70.6735 21.4734 70.1853 20.3951 70.166 18.9702C70.166 17.9681 70.3302 17.1484 70.6596 16.5121C70.9686 15.9081 71.3849 15.437 71.9117 15.1001C72.4374 14.76 73.0189 14.5197 73.6563 14.3781C74.2829 14.2343 74.9234 14.1527 75.58 14.1324C76.6712 14.0594 77.6079 13.9918 78.3815 13.9264C79.1583 13.8673 79.7902 13.7633 80.2784 13.6173C80.7644 13.4618 81.1314 13.2161 81.3803 12.8835C81.5981 12.5412 81.7086 12.0734 81.7086 11.4779C81.7086 10.9372 81.6786 10.4136 81.6206 9.90286C81.5198 9.37175 81.317 8.88142 81.0112 8.43508C80.7237 7.96729 80.2784 7.60356 79.6743 7.34069C79.0413 7.07031 78.2001 6.9362 77.153 6.9362C73.8451 6.97912 72.0651 8.58637 71.8055 11.7612L71.1832 11.7204L71.1842 11.7215ZM81.7108 13.4639H81.6485C81.4704 13.7289 81.1775 13.9489 80.7709 14.1195C80.3428 14.2826 79.8407 14.3952 79.2634 14.4564C78.1304 14.5787 76.9008 14.6753 75.5811 14.7461C74.9642 14.7675 74.3816 14.8394 73.8354 14.9617C73.2582 15.1055 72.7368 15.3276 72.2711 15.6248C71.8022 15.892 71.4492 16.3029 71.2111 16.8587C70.9246 17.3833 70.7776 18.0872 70.7776 18.9724C70.7776 19.4144 70.8677 19.8672 71.0458 20.3296C71.195 20.7695 71.4557 21.1719 71.8237 21.5302C72.4889 22.3113 73.6659 22.7147 75.3569 22.7341C77.4147 22.7137 78.9963 22.0603 80.1003 20.7749C81.1732 19.5314 81.7108 18.0861 81.7108 16.4402V13.4618V13.4639Z" fill="#F16477"/>
<path d="M71.3594 22.5593C70.2929 21.7396 69.7414 20.4961 69.7285 18.9736C69.7285 17.9232 69.898 17.0359 70.2704 16.317C70.6094 15.6529 71.0793 15.1153 71.6737 14.7376C72.2445 14.3686 72.8765 14.1078 73.5578 13.9555C74.2123 13.8074 74.8807 13.7205 75.5513 13.7001C76.6403 13.6282 77.5749 13.5606 78.3495 13.4941C79.1049 13.4372 79.7111 13.3353 80.1456 13.2044C80.5673 13.0692 80.8462 12.874 81.0126 12.6519C81.1703 12.4083 81.2743 12.0242 81.2743 11.4802C81.2743 10.9566 81.2443 10.4481 81.1939 9.98669C81.1027 9.51246 80.9256 9.08114 80.6413 8.66591C80.4053 8.28502 80.0437 7.97924 79.5029 7.74212C78.9525 7.50607 78.1628 7.3741 77.1575 7.3741C73.9923 7.46745 72.5342 8.79145 72.2392 11.7989L72.2038 12.2259L71.7778 12.1969L71.1544 12.1562L70.7253 12.1272L70.7467 11.7002C70.8293 10.0307 71.4077 8.61227 72.4784 7.52431C73.5557 6.43314 75.1425 5.9074 77.1382 5.88594C77.1822 5.8838 77.2272 5.8838 77.2723 5.8838C78.7197 5.88165 79.9847 6.22714 81.0319 6.94493C82.1284 7.75392 82.6767 9.13693 82.755 10.9759V21.319C82.8065 21.79 82.8601 21.8093 83.1091 21.8844C83.2668 21.9166 83.4545 21.9359 83.6241 21.9381C83.8698 21.9145 84.0972 21.9048 84.3118 21.9048H84.7464V23.393H84.3118C84.0232 23.393 83.7271 23.3833 83.4599 23.3619C83.1112 23.3619 82.7797 23.3179 82.4814 23.2202C81.7046 23.0067 81.2679 22.261 81.2733 21.3866V20.9703C80.8859 21.5057 80.3935 21.996 79.8012 22.4391C78.5985 23.3243 77.1189 23.7674 75.414 23.79C73.767 23.791 72.3915 23.3908 71.3583 22.5615L71.3594 22.5593ZM80.9256 14.5263C80.4536 14.7065 79.9149 14.8256 79.3098 14.8889C78.1661 15.0123 76.93 15.1089 75.5953 15.1808C75.0009 15.2022 74.4473 15.2698 73.9409 15.3846C73.4055 15.5187 72.928 15.7204 72.4838 16.0037C72.1029 16.2215 71.8186 16.5455 71.5911 17.068C71.3529 17.5026 71.2102 18.1345 71.2113 18.9736C71.2113 19.3545 71.2886 19.7536 71.457 20.1903C71.5815 20.5604 71.8004 20.9027 72.1523 21.2493C72.6898 21.8866 73.7273 22.2814 75.3496 22.2997C77.3238 22.275 78.7508 21.6699 79.7669 20.4928C80.7754 19.3169 81.269 17.9918 81.2733 16.4425V14.3567C81.1638 14.4179 81.048 14.4748 80.9246 14.5263H80.9256ZM81.8848 18.8255V18.3878C81.843 18.5358 81.7969 18.6807 81.7454 18.8255H81.8848ZM81.8848 13.0274V12.8622C81.8591 12.9179 81.8312 12.9737 81.8012 13.0274H81.8848Z" fill="#F16477"/>
<path d="M87.9453 0.435547H88.5569V22.9564H87.9453V0.435547Z" fill="#F16477"/>
<path d="M88.5561 23.3899H87.5078V0.434538V0H87.9445H88.9906V23.3899H88.5561Z" fill="#F16477"/>
</g>
<defs>
<clipPath id="clip0_1744_13559">
<rect width="89.8045" height="40" fill="white" transform="translate(0.0976562)"/>
</clipPath>
</defs>
</svg>
