<svg width="102" height="40" viewBox="0 0 102 40" fill="none" xmlns="http://www.w3.org/2000/svg">
<path d="M100.292 5.68275V4.45605H100.836C100.945 4.45605 101.026 4.46621 101.085 4.48907C101.14 4.51193 101.186 4.55003 101.219 4.6059C101.255 4.66177 101.273 4.72273 101.273 4.7913C101.273 4.87765 101.242 4.95131 101.186 5.01226C101.13 5.07067 101.044 5.10877 100.925 5.12401C100.968 5.14433 101.001 5.16464 101.024 5.1875C101.072 5.23068 101.115 5.28655 101.158 5.35005L101.369 5.68529H101.166L101.003 5.42878C100.955 5.35513 100.917 5.29671 100.884 5.25861C100.853 5.21798 100.826 5.19258 100.803 5.17734C100.777 5.1621 100.752 5.14941 100.729 5.14433C100.711 5.14179 100.683 5.13671 100.638 5.13671H100.452V5.68275H100.287H100.292ZM100.457 4.99702H100.803C100.879 4.99702 100.937 4.9894 100.978 4.97416C101.021 4.95892 101.052 4.93353 101.074 4.90051C101.095 4.86749 101.107 4.83194 101.107 4.7913C101.107 4.73289 101.085 4.68463 101.044 4.64908C101.001 4.61098 100.935 4.5932 100.846 4.5932H100.457V4.99956V4.99702Z" fill="#00ADBB"/>
<path d="M100.815 3.95312C101.432 3.95312 101.932 4.45599 101.932 5.07061C101.932 5.68523 101.432 6.1881 100.815 6.1881C100.198 6.1881 99.6973 5.68777 99.6973 5.07061C99.6973 4.45345 100.2 3.95312 100.815 3.95312ZM100.815 6.02048C101.333 6.02048 101.762 5.5938 101.76 5.07315C101.76 4.54997 101.335 4.12583 100.815 4.12583C100.294 4.12583 99.8649 4.54997 99.8649 5.07315C99.8649 5.59634 100.289 6.02048 100.815 6.02048Z" fill="#00ADBB"/>
<path d="M7.13594 12.5758C7.91564 9.6373 7.63881 6.66072 12.1799 4.00923C15.9946 1.78695 20.5356 3.62572 22.0366 7.0874C23.5427 10.5491 23.6722 17.2159 21.2544 20.9443C18.8366 24.6675 14.8644 26.3311 11.1818 25.4548C8.9798 24.9291 6.60259 22.1786 5.41145 19.2502C3.65649 14.92 3.25775 8.96427 6.61021 3.62572C6.61275 3.62572 -0.18107 8.26584 0.0754447 15.9791C0.339578 23.6872 6.67879 28.1317 12.952 28.0048C19.2277 27.8752 23.3929 25.0155 25.8945 21.2059C26.6463 20.0579 29.4044 14.1504 27.939 8.72554C27.1771 5.9115 25.2443 2.4676 21.2239 0.936132C11.7278 -2.68555 5.83559 5.02766 5.87369 9.98525C5.894 12.2812 6.80323 13.8304 7.13848 12.5783L7.13594 12.5758Z" fill="#00ADBB"/>
<path d="M31.0891 10.455L27.9093 27.3215C27.9093 27.3215 27.6452 28.3348 29.2148 28.0605C30.6015 27.8218 32.8542 27.7304 33.4409 24.2382L36.2372 8.83466C36.2372 8.83466 36.6308 7.15081 34.6219 7.68161C32.6104 8.20988 31.3126 9.27911 31.0891 10.455Z" fill="#00ADBB"/>
<path d="M32.4136 7.31355C32.8479 7.49387 35.1311 7.59546 36.5077 5.84811C37.8868 4.10331 37.7293 2.46263 37.201 2.14516C36.6728 1.82515 34.6054 1.77182 32.7565 3.88997C30.9024 6.00812 31.8117 7.06211 32.4136 7.31355Z" fill="#00ADBB"/>
<path d="M45.6859 0.159395C45.6859 0.159395 42.2623 0.667344 41.574 2.57723L36.2406 27.5252C36.2406 27.5252 36.1567 28.028 37.0076 28.0839C37.8558 28.1372 41.4394 27.6852 41.9982 24.0483L46.6129 1.98293C46.6129 1.98293 47.1919 -0.211408 45.6859 0.159395Z" fill="#00ADBB"/>
<path d="M48.1505 8.24845L45.4025 22.7631C45.4025 22.7631 44.8158 26.6972 48.8819 28.089C52.9531 29.4757 56.2827 27.4108 57.5069 26.334V27.4642C57.5069 27.4642 57.3621 28.2693 58.8327 28.089C60.2981 27.9061 62.4924 26.753 62.7794 25.4984L66.2106 7.88273C66.2106 7.88273 65.1642 6.86429 62.6702 8.12908C60.2295 9.3634 60.3032 12.5635 60.1559 12.9089C60.0111 13.2492 58.9901 23.1669 54.8427 24.579C50.6928 25.9937 50.4032 23.5961 50.4489 22.2704L52.4553 12.0733C52.4553 12.0733 52.9963 10.3793 51.7976 9.46499C50.7893 8.69799 49.5651 7.80908 49.5651 7.80908C49.5651 7.80908 48.3943 6.94556 48.1479 8.24845H48.1505Z" fill="#00ADBB"/>
<path d="M68.2454 10.8135C68.9337 10.5342 71.1382 9.91446 70.9858 11.9234C70.8435 13.9323 67.166 26.9739 67.166 26.9739C67.166 26.9739 66.5793 28.0711 67.7019 28.0863C68.8295 28.1016 70.935 28.0863 70.935 28.0863C70.935 28.0863 71.8798 28.2413 72.1617 26.6793L75.2017 14.1355C75.2017 14.1355 76.1516 11.3342 79.7123 10.4884C82.5162 9.82049 83.3899 11.6796 83.1943 12.9037C82.9962 14.1304 79.4203 26.6793 79.4203 26.6793C79.4203 26.6793 78.9758 27.8552 80.2051 27.8552H82.6102C82.6102 27.8552 83.8699 27.9644 84.1747 26.6336L87.4916 14.2016C87.4916 14.2016 88.1468 12.185 90.6612 11.1081C92.7844 10.1964 94.6156 11.677 94.5673 13.1501C94.5165 14.6181 91.8041 22.1865 91.6238 24.7669C91.5095 26.438 92.3628 27.8552 94.5673 28.3454C96.7718 28.833 100.693 27.807 101.574 25.7955C101.574 25.7955 102.311 24.3732 100.79 24.8152C100.79 24.8152 97.8487 26.1409 97.3102 24.8152C97.3102 24.8152 96.7286 24.0228 97.8944 20.3579C99.149 16.434 100.457 11.7837 99.4182 9.73414C98.4785 7.88012 95.6289 5.94483 91.3622 7.69472C90.359 8.10616 89.0332 8.85284 87.6541 9.96525C87.6541 9.96525 86.0262 7.06486 82.0641 7.31376C80.4362 7.41535 78.2748 7.82679 76.0526 10.2599C76.0526 10.2599 75.1408 7.65154 72.1972 7.54995C70.5083 7.489 69.2257 7.81409 67.5596 9.02047C66.4498 9.82811 65.2409 12.0402 68.2454 10.8186V10.8135Z" fill="#00ADBB"/>
<path d="M5.50996 34.6337H4.07501V39.4541C4.07501 39.7335 3.85913 39.9494 3.57721 39.9494C3.30546 39.9494 3.07942 39.7335 3.07942 39.4516V34.6311H1.65209C1.37271 34.6311 1.1543 34.3949 1.1543 34.1257C1.1543 33.8565 1.37018 33.6279 1.65209 33.6279H5.50742C5.77918 33.6279 6.00521 33.8463 6.00521 34.1257C6.00521 34.4051 5.77918 34.6311 5.50742 34.6311L5.50996 34.6337Z" fill="#00ADBB"/>
<path d="M7.36328 39.4565V34.1281C7.36328 33.8487 7.57916 33.6328 7.86107 33.6328C8.14044 33.6328 8.36648 33.8487 8.36648 34.1306V36.297H10.7056V34.1306C10.7056 33.8512 10.9215 33.6328 11.2034 33.6354C11.4828 33.6354 11.7088 33.8512 11.7088 34.1331V39.4615C11.7088 39.7409 11.4828 39.9568 11.2034 39.9568C10.924 39.9568 10.7056 39.7409 10.7056 39.459V37.2926H8.36648V39.459C8.36648 39.7384 8.14044 39.9568 7.86107 39.9542C7.5817 39.9542 7.36328 39.7384 7.36328 39.4565Z" fill="#00ADBB"/>
<path d="M13.7344 39.4594V34.131C13.7344 33.8516 13.9503 33.6357 14.2322 33.6357H17.1859C17.4475 33.6357 17.6837 33.8542 17.6837 34.1335C17.6837 34.4129 17.45 34.6389 17.1859 34.6389H14.7401V36.2898H16.843C17.1148 36.2898 17.3408 36.526 17.3408 36.7876C17.3408 37.0669 17.1148 37.293 16.843 37.293H14.7401V38.954H17.1859C17.4475 38.954 17.6837 39.1825 17.6837 39.4619C17.6837 39.7413 17.45 39.9597 17.1859 39.9572H14.2601C14.2423 39.9572 14.2423 39.947 14.2423 39.947L14.2322 39.9572C13.9528 39.9572 13.7344 39.7311 13.7344 39.4594Z" fill="#00ADBB"/>
<path d="M21.7969 39.4643V34.1359C21.7969 33.8565 22.0128 33.6406 22.2947 33.6406H23.3588C25.1011 33.6406 26.5106 35.0603 26.5106 36.795C26.5106 38.5474 25.1011 39.9646 23.3588 39.9621H22.2947C22.0153 39.9621 21.7969 39.736 21.7969 39.4643ZM22.8001 38.9589H23.3588C24.55 38.9512 25.5074 37.9937 25.5074 36.7924C25.5074 35.6089 24.55 34.6438 23.3588 34.6413H22.8001V38.9563V38.9589Z" fill="#00ADBB"/>
<path d="M32.4408 39.2173C32.5322 39.4789 32.3875 39.7583 32.1259 39.8497C32.0903 39.8574 32.0167 39.8777 31.9278 39.8777H31.9176C31.8262 39.8777 31.6916 39.8599 31.5646 39.7786C31.4478 39.705 31.3487 39.5881 31.2751 39.4612C31.1481 39.1996 31.0846 38.8745 31.0846 38.3767C31.0744 38.204 31.0389 38.0872 30.9754 37.9881C30.922 37.8891 30.8128 37.7976 30.7036 37.7265C30.5131 37.5995 30.2795 37.5284 30.1982 37.5106H29.1341V39.4688C29.1341 39.7405 28.908 39.964 28.6286 39.964C28.3493 39.964 28.1309 39.738 28.1309 39.4662V34.1378C28.1309 33.8585 28.3467 33.6401 28.6286 33.6426H30.2439C31.3182 33.6426 32.1767 34.5112 32.1767 35.5855C32.1767 36.1823 31.9049 36.7055 31.4732 37.0662C31.59 37.1576 31.6992 37.2643 31.7881 37.4014C31.9684 37.663 32.0852 37.9983 32.0852 38.3767C32.0751 38.6484 32.103 38.8186 32.1208 38.91C32.2656 38.9558 32.3824 39.0624 32.4357 39.2173H32.4408ZM31.176 35.588C31.176 35.0649 30.7595 34.6483 30.2465 34.6483H29.1366V36.5074H30.2465C30.762 36.5074 31.176 36.0935 31.176 35.588Z" fill="#00ADBB"/>
<path d="M38.0747 34.499L36.2232 37.0362V39.4744C36.2232 39.7537 36.0074 39.9722 35.7254 39.9696C35.4639 39.9696 35.2277 39.7538 35.2277 39.4718V37.0337L33.394 34.4965C33.2213 34.2806 33.267 33.9733 33.493 33.8107C33.7191 33.6482 34.0264 33.6939 34.1787 33.92L35.7229 36.033L37.2671 33.92C37.4398 33.6939 37.7446 33.6482 37.963 33.8107C38.1788 33.9733 38.2246 34.2806 38.0722 34.4965L38.0747 34.499Z" fill="#00ADBB"/>
<path d="M41.6424 38.4C41.8049 38.2019 42.1021 38.1739 42.3027 38.3365C42.6989 38.6616 43.3872 39.0425 44.0272 39.0324C44.4793 39.0324 44.8857 38.8978 45.1549 38.6997C45.4266 38.5016 45.5434 38.2755 45.5434 38.0495C45.5434 37.9327 45.5155 37.8514 45.4622 37.7599C45.4088 37.6711 45.3276 37.5796 45.1904 37.4882C44.9288 37.3155 44.4869 37.1631 43.9536 37.0641H43.9358C43.5117 36.9828 43.1129 36.8736 42.77 36.711C42.4272 36.5485 42.13 36.3225 41.9294 36.005C41.7948 35.7891 41.7211 35.5351 41.7211 35.2634C41.7211 34.7224 42.0284 34.2526 42.4424 33.9452C42.8666 33.6379 43.4177 33.4678 44.0044 33.4678C44.8704 33.4678 45.513 33.8919 45.9727 34.1916C46.1809 34.3364 46.2444 34.6259 46.0997 34.8316C45.965 35.0475 45.6755 35.111 45.4596 34.9662C44.9999 34.6589 44.5555 34.3872 44.0069 34.3872C43.6005 34.3872 43.2399 34.5141 42.9961 34.6945C42.7523 34.8748 42.6532 35.0729 42.6532 35.2634C42.6532 35.3726 42.671 35.4437 42.7167 35.5174C42.7624 35.5885 42.8437 35.6697 42.9605 35.751C43.1942 35.9136 43.6005 36.0583 44.0882 36.1497H44.106C44.5656 36.2412 44.9898 36.358 45.353 36.5307C45.7238 36.711 46.0489 36.9472 46.2571 37.2799C46.3917 37.4958 46.473 37.7676 46.473 38.0469C46.473 38.626 46.1479 39.1213 45.6958 39.4463C45.2539 39.7714 44.6672 39.9594 44.0247 39.9594C43.0494 39.9492 42.2291 39.4616 41.7135 39.0552C41.5154 38.8927 41.4875 38.5955 41.6424 38.3949V38.4Z" fill="#00ADBB"/>
<path d="M47.9537 39.4791V34.1964C47.9537 33.9348 48.1696 33.6987 48.4515 33.7012C48.7309 33.7012 48.9493 33.9349 48.9493 34.199V36.7895L51.8751 33.8561C52.0732 33.658 52.3805 33.658 52.5786 33.8561C52.7691 34.0466 52.7691 34.3615 52.5786 34.5596L50.5925 36.5356L52.5964 39.1642C52.7767 39.3724 52.7411 39.6874 52.5253 39.8601C52.4338 39.9413 52.3272 39.9769 52.2078 39.9769C52.0732 39.9769 51.936 39.9134 51.837 39.7966L49.8865 37.2391L48.9468 38.1965V39.4791C48.9468 39.7509 48.7309 39.9769 48.449 39.9744C48.1696 39.9744 47.9512 39.7483 47.9512 39.4766L47.9537 39.4791Z" fill="#00ADBB"/>
<path d="M54.2578 34.1564C54.2578 33.877 54.4737 33.6611 54.7556 33.6611C55.0274 33.6611 55.261 33.877 55.261 34.1589V39.4873C55.261 39.7667 55.0274 39.9851 54.7556 39.9851C54.4762 39.9851 54.2578 39.7692 54.2578 39.4873V34.1589V34.1564Z" fill="#00ADBB"/>
<path d="M58.0821 39.4848C58.0821 39.7565 57.856 39.98 57.5944 39.98C57.315 39.98 57.0966 39.754 57.0966 39.4823V34.2275C57.0865 34.0751 57.1601 33.91 57.2947 33.811C57.5208 33.6586 57.8281 33.7018 57.9805 33.9202L60.8961 37.9584V34.2377C60.8961 33.9761 61.112 33.75 61.3837 33.75C61.6555 33.75 61.8815 33.9761 61.8815 34.2377V39.4848C61.8815 39.7565 61.6555 39.9826 61.3837 39.98C61.239 39.98 61.1044 39.9089 61.0129 39.7997C60.9951 39.7819 60.9774 39.7642 60.9672 39.7464L58.077 35.7361V39.4823L58.0821 39.4848Z" fill="#00ADBB"/>
<path d="M66.7604 39.4897V34.1613C66.7604 33.8819 66.9762 33.6635 67.2581 33.666H70.2093C70.4709 33.666 70.7046 33.8845 70.7046 34.1638C70.7046 34.4432 70.4709 34.6692 70.2093 34.6692H67.7636V36.3201H69.8665C70.1382 36.3201 70.3643 36.5563 70.3643 36.8179C70.3643 37.0972 70.1382 37.3233 69.8665 37.3233H67.7636V38.9843H70.2093C70.4709 38.9843 70.7046 39.2128 70.7046 39.4922C70.7046 39.7716 70.4709 39.9875 70.2093 39.9875H67.2835C67.2658 39.9875 67.2658 39.9773 67.2658 39.9773L67.2556 39.9875C66.9762 39.9875 66.7578 39.7614 66.7578 39.4897H66.7604Z" fill="#00ADBB"/>
<path d="M76.6611 34.5298L74.9443 36.8587L76.6611 39.208C76.8135 39.4239 76.7779 39.7413 76.5519 39.8937C76.463 39.9572 76.3614 39.9928 76.2624 39.9928C76.0998 39.9928 75.9551 39.9115 75.856 39.7845L74.3398 37.6969L72.8134 39.782C72.7144 39.909 72.5696 39.9902 72.4172 39.9902C72.308 39.9902 72.2089 39.9547 72.1277 39.8912C71.9016 39.7363 71.8559 39.4213 72.0108 39.2055L73.7277 36.8587L72.0108 34.5272C71.8585 34.3012 71.9042 33.9939 72.1277 33.8415C72.3436 33.6688 72.661 33.7145 72.8134 33.9507L74.3398 36.0282L75.856 33.9533C76.0287 33.7196 76.3259 33.6739 76.5519 33.8466C76.7779 33.999 76.8135 34.3063 76.6611 34.5323V34.5298Z" fill="#00ADBB"/>
<path d="M80.5291 37.536H79.4192V39.4942C79.4192 39.7659 79.1932 39.9894 78.9138 39.9894C78.6421 39.9894 78.416 39.7634 78.416 39.4916V34.1632C78.416 33.8839 78.6421 33.6655 78.9138 33.668H80.5291C81.6034 33.668 82.4695 34.5366 82.4695 35.6109C82.4695 36.6852 81.6034 37.5335 80.5291 37.5335V37.536ZM79.4192 36.5328H80.5291C81.0523 36.5328 81.4586 36.1188 81.4688 35.6134C81.4586 35.0902 81.0548 34.6737 80.5291 34.6737H79.4192V36.5328Z" fill="#00ADBB"/>
<path d="M83.6914 39.4994V34.1711C83.6914 33.8917 83.9073 33.6733 84.1892 33.6758H87.1404C87.402 33.6758 87.6382 33.8942 87.6382 34.1736C87.6382 34.453 87.4045 34.679 87.1404 34.679H84.6946V36.3298H86.7975C87.0693 36.3298 87.2953 36.566 87.2953 36.8276C87.2953 37.107 87.0693 37.333 86.7975 37.333H84.6946V38.994H87.1404C87.402 38.994 87.6382 39.2226 87.6382 39.502C87.6382 39.7814 87.4045 39.9972 87.1404 39.9972H84.2146C84.1968 39.9972 84.1968 39.9871 84.1968 39.9871L84.1892 39.9972C83.9098 39.9972 83.6914 39.7712 83.6914 39.4994Z" fill="#00ADBB"/>
<path d="M93.3476 39.2505C93.4391 39.5121 93.2943 39.7915 93.0327 39.8829C92.9972 39.8931 92.9235 39.9109 92.8346 39.9109H92.8245C92.733 39.9109 92.5984 39.8931 92.4714 39.8118C92.3546 39.7382 92.2556 39.6213 92.1819 39.4944C92.0549 39.2328 91.9914 38.9077 91.9914 38.4099C91.9813 38.2372 91.9457 38.1204 91.8822 38.0213C91.8289 37.9223 91.7197 37.8308 91.6105 37.7597C91.42 37.6327 91.1863 37.5616 91.1051 37.5438H90.0384V39.502C90.0384 39.7737 89.8123 39.9972 89.533 39.9972C89.2536 39.9972 89.0352 39.7712 89.0352 39.4994V34.1711C89.0352 33.8917 89.251 33.6733 89.533 33.6758H91.1482C92.2225 33.6758 93.081 34.5444 93.081 35.6187C93.081 36.2155 92.8092 36.7387 92.3775 37.0994C92.4943 37.1908 92.6035 37.2975 92.6949 37.4346C92.8753 37.6962 92.9921 38.0315 92.9921 38.4099C92.9819 38.6816 93.0099 38.8518 93.0276 38.9432C93.1724 38.989 93.2892 39.0956 93.3426 39.2505H93.3476ZM92.0829 35.6212C92.0829 35.0981 91.6663 34.6815 91.1533 34.6815H90.0434V36.5406H91.1533C91.6689 36.5406 92.0829 36.1267 92.0829 35.6212Z" fill="#00ADBB"/>
<path d="M98.4893 34.6845H97.0543V39.5049C97.0543 39.7843 96.8384 40.0027 96.5565 40.0001C96.2848 40.0001 96.0613 39.7843 96.0613 39.5023V34.6819H94.6339C94.3546 34.6819 94.1387 34.4457 94.1387 34.174C94.1387 33.9022 94.3546 33.6787 94.6339 33.6787H98.4893C98.761 33.6787 98.9845 33.8971 98.9845 34.1765C98.9845 34.4559 98.7585 34.6819 98.4893 34.6819V34.6845Z" fill="#00ADBB"/>
</svg>
