<svg width="144" height="32" viewBox="0 0 144 32" fill="none" xmlns="http://www.w3.org/2000/svg">
<g clip-path="url(#clip0_1744_10198)">
<path d="M140.052 6.3916H140.365C140.735 6.3916 141.004 6.4252 141.172 6.4588C141.474 6.54839 141.676 6.71637 141.776 6.96275C141.821 7.08594 141.844 7.20913 141.844 7.34352C141.844 7.58989 141.776 7.79148 141.62 7.93706C141.508 8.06025 141.317 8.14984 141.037 8.22824C141.384 8.27303 141.586 8.41862 141.653 8.6762C141.687 8.81059 141.72 8.94497 141.732 9.11296C141.765 9.34814 141.799 9.53852 141.821 9.69531C141.844 9.7961 141.866 9.88569 141.888 9.95288L141.933 10.0649H141.116L141.093 9.95288C141.06 9.82969 141.026 9.63931 141.004 9.39293C140.959 8.97857 140.881 8.73219 140.791 8.665C140.724 8.609 140.601 8.57541 140.421 8.57541H140.153H139.772V10.0761H139.021V6.3916H140.018H140.052ZM139.805 8.00426H140.433C140.869 7.95946 141.105 7.79148 141.105 7.45551C141.105 7.41071 141.104 7.35472 141.082 7.30992C141.015 7.08594 140.791 6.96275 140.433 6.96275H139.817V8.00426H139.805Z" fill="#C60651"/>
<path d="M143.232 8.19461C143.232 9.78487 141.944 11.0728 140.365 11.0728C138.786 11.0728 137.498 9.78487 137.498 8.19461C137.498 6.60436 138.786 5.31647 140.365 5.31647C141.127 5.31647 141.855 5.60764 142.392 6.1564C142.93 6.69395 143.232 7.42188 143.232 8.19461ZM140.365 4.64453C138.416 4.64453 136.826 6.23479 136.826 8.19461C136.826 10.1544 138.416 11.7447 140.365 11.7447C142.314 11.7447 143.904 10.1432 143.904 8.19461C143.904 7.2427 143.534 6.35798 142.862 5.67484C142.202 5.0029 141.317 4.64453 140.365 4.64453Z" fill="#C60651"/>
<path d="M54.6484 13.0553L50.124 13.5592V13.4696C50.124 12.6969 49.8888 12.1258 49.4297 11.745C48.9705 11.3642 48.4554 11.1739 47.8954 11.1739C47.1787 11.1739 46.4732 11.4426 45.7788 11.9802C45.0957 12.5177 44.5357 13.3353 44.1214 14.4216C43.707 15.5191 43.4942 16.5942 43.4942 17.6245C43.4942 18.4196 43.707 19.0803 44.1326 19.6067C44.5581 20.1443 45.1853 20.413 46.0028 20.413C46.7643 20.413 47.4027 20.1778 47.9178 19.6963C48.433 19.2147 48.8921 18.4756 49.2841 17.4789L53.8869 18.1956C53.4165 19.8419 52.487 21.2306 51.1095 22.3505C49.7433 23.4816 47.9514 24.0415 45.7452 24.0415C43.539 24.0415 41.6912 23.4368 40.4705 22.2049C39.261 20.973 38.6562 19.3379 38.6562 17.2997C38.6562 15.743 39.0146 14.1752 39.7314 12.5961C40.4593 11.0171 41.5008 9.78518 42.8895 8.88926C44.2781 7.99334 45.9356 7.53418 47.873 7.53418C49.8104 7.53418 51.4679 8.02694 52.6214 9.04604C53.7861 10.054 54.458 11.3754 54.6484 13.0329V13.0553Z" fill="#C60651"/>
<path d="M68.0321 20.8276C67.3825 21.9699 66.5426 22.7986 65.5011 23.3026C64.4596 23.8065 63.1605 24.0529 61.5927 24.0529C59.3193 24.0529 57.6954 23.5378 56.7435 22.5075C55.7804 21.4884 55.2988 20.2229 55.2988 18.7334C55.2988 17.6919 55.5228 16.7288 55.9708 15.8105C56.4187 14.9033 57.0347 14.1418 57.8074 13.5147C58.5801 12.9099 59.3305 12.4956 60.0808 12.2716C60.8311 12.07 61.7047 11.958 62.7014 11.958C64.8516 11.958 66.397 12.4284 67.3377 13.3691C68.2673 14.3098 68.7376 15.4521 68.7376 16.8184C68.7376 17.2663 68.6368 18.0391 68.4464 19.1478H59.6216C59.7448 20.6932 60.4392 21.466 61.7159 21.466C62.5782 21.466 63.2725 21.1188 63.7877 20.4133L68.0433 20.8276H68.0321ZM64.3364 16.9976C64.3924 16.8408 64.4148 16.6168 64.4148 16.3368C64.4148 15.7545 64.2356 15.3177 63.8885 15.0041C63.5301 14.713 63.0933 14.5562 62.5782 14.5562C62.063 14.5562 61.5255 14.7578 61.0663 15.1721C60.6071 15.5753 60.2488 16.1912 60.0136 16.9976H64.3364Z" fill="#C60651"/>
<path d="M79.3533 12.2267L78.6926 15.396H76.3968L75.5345 19.4949C75.4785 19.6629 75.4561 19.842 75.4561 20.0324C75.4561 20.5588 75.792 20.8275 76.4752 20.8275C76.688 20.8275 77.1471 20.7604 77.8303 20.626L77.1695 23.7841C75.8368 23.9633 74.8625 24.0529 74.2578 24.0529C73.0259 24.0529 72.1524 23.7617 71.6372 23.1681C71.1221 22.5634 70.8645 21.925 70.8645 21.2083C70.8645 20.9731 70.9653 20.3572 71.1781 19.3605L72.018 15.3848H70.4277L71.0773 12.2155H72.6899L73.0707 10.4125L78.0207 7.9375L77.1135 12.2155H79.3757L79.3533 12.2267Z" fill="#C60651"/>
<path d="M93.7439 12.2266L86.431 25.2622C85.7142 26.5277 85.0311 27.3788 84.3815 27.8156C83.7208 28.2523 82.9145 28.4651 81.9626 28.4651C80.8651 28.4651 79.7787 28.3195 78.7148 28.0172L79.0732 25.0382C79.5324 25.2286 80.0251 25.3294 80.5067 25.3294C81.3802 25.3294 82.0521 24.8142 82.5561 23.7951L80.3275 12.2266H84.6727L85.3111 20.2674H85.3558L89.2755 12.2266H93.7327H93.7439Z" fill="#C60651"/>
<path d="M106.545 13.9173C107.374 13.167 108.135 12.6518 108.829 12.3719C109.524 12.1031 110.252 11.9575 111.024 11.9575C112.077 11.9575 112.85 12.2375 113.376 12.7974C113.903 13.3462 114.16 14.0181 114.16 14.8132C114.16 15.2836 114.115 15.7539 114.015 16.1907L112.379 23.7948H107.945L109.009 18.8449C109.277 17.5906 109.423 16.8403 109.457 16.5939C109.49 16.3587 109.501 16.1795 109.501 16.0899C109.501 15.4852 109.21 15.1828 108.65 15.1828C107.989 15.1828 107.452 15.4628 107.015 16.0115C106.59 16.5715 106.242 17.445 105.985 18.6321L104.887 23.7836H100.441L101.483 18.9233C101.763 17.6242 101.908 16.8514 101.942 16.6051C101.976 16.3587 101.987 16.1795 101.987 16.0563C101.987 15.4628 101.684 15.1716 101.102 15.1716C100.654 15.1716 100.173 15.4068 99.691 15.8659C99.1871 16.3251 98.8175 17.109 98.5935 18.2177L97.4064 23.7836H92.9492L95.4242 12.2151H99.5454L99.1871 13.8725L99.2318 13.9173C100.497 12.6182 101.908 11.9463 103.487 11.9463C104.204 11.9463 104.843 12.1143 105.402 12.4502C105.962 12.7974 106.343 13.2678 106.556 13.9061L106.545 13.9173Z" fill="#C60651"/>
<path d="M122.19 12.2269L119.737 23.7954H115.291L117.755 12.2269H122.201H122.19ZM123.13 7.81445L122.481 10.8718H118.068L118.684 7.81445H123.13Z" fill="#C60651"/>
<path d="M128.853 14.0074C130.062 12.6411 131.552 11.958 133.299 11.958C134.34 11.958 135.124 12.2268 135.639 12.7643C136.154 13.2907 136.423 13.9402 136.423 14.7242C136.423 15.1945 136.277 16.1128 135.998 17.4791L134.665 23.7953H130.23L131.372 18.4198C131.652 17.1095 131.787 16.3592 131.787 16.1576C131.787 15.5081 131.507 15.1833 130.924 15.1833C130.275 15.1833 129.704 15.4969 129.222 16.1128C128.741 16.7288 128.371 17.6135 128.136 18.7782L127.061 23.7953H122.604L125.078 12.2268H129.211L128.83 13.9626L128.875 14.0074H128.853Z" fill="#C60651"/>
<path d="M15.6867 31.6455L0.0976562 16.0005L15.6867 0.355469L31.2645 16.0005L15.6867 31.6455Z" fill="#C60651"/>
<path d="M15.6867 21.8687L9.72879 15.8773L15.6867 9.89702V0.355469L0.0976562 16.0005L15.6867 31.6455V21.8687Z" fill="#F8AFAE"/>
</g>
<defs>
<clipPath id="clip0_1744_10198">
<rect width="143.806" height="31.29" fill="white" transform="translate(0.0976562 0.355469)"/>
</clipPath>
</defs>
</svg>
