<svg width="130" height="24" viewBox="0 0 130 24" fill="none" xmlns="http://www.w3.org/2000/svg">
<g clip-path="url(#clip0_1744_10109)">
<path d="M40.9672 14.7808L34.9519 21.7374C34.9519 21.7374 33.7889 23.0356 35.3306 23.0356H38.3436C39.9448 23.0356 40.8807 21.9213 40.8969 21.8996L43.3582 19.0543L40.9672 14.7754V14.7808Z" fill="#00853F"/>
<path d="M114.859 23.706C113.431 23.706 112.16 23.5167 111.024 23.1488C109.899 22.781 108.958 22.213 108.206 21.434C107.465 20.6659 106.935 19.6922 106.637 18.5237C106.329 17.3553 106.302 15.9813 106.54 14.3909C106.805 12.6923 107.281 11.2426 107.989 10.0417C108.693 8.84621 109.547 7.8671 110.559 7.09896C111.533 6.35245 112.625 5.81151 113.842 5.45448C115.06 5.10287 116.298 4.91895 117.564 4.91895C118.511 4.91895 119.452 5.03254 120.372 5.25974C121.286 5.48694 122.195 5.84937 123.082 6.34163L122.362 11.0749H121.67C121.486 10.8693 121.253 10.6313 120.983 10.3825C120.707 10.1337 120.404 9.90105 120.069 9.69008C119.706 9.47371 119.295 9.28978 118.83 9.13291C118.365 8.98145 117.829 8.90571 117.223 8.90571C115.849 8.90571 114.713 9.40338 113.81 10.3933C112.912 11.3832 112.333 12.7086 112.084 14.3855C111.809 16.176 112.009 17.5067 112.674 18.3885C113.345 19.2648 114.346 19.703 115.682 19.703C116.358 19.703 116.964 19.6218 117.499 19.465C118.035 19.3081 118.505 19.1242 118.911 18.897C119.301 18.6806 119.641 18.448 119.934 18.21C120.226 17.972 120.474 17.761 120.696 17.5717H121.389L120.669 22.3212C120.345 22.4564 119.961 22.6133 119.528 22.7918C119.095 22.9703 118.662 23.1164 118.219 23.2354C117.678 23.3814 117.175 23.495 116.699 23.5707C116.233 23.6519 115.628 23.6952 114.876 23.6952L114.859 23.706Z" fill="#00853F"/>
<path d="M86.6069 5.94159C86.5474 5.94159 86.2661 5.92536 86.1092 5.92536C85.6494 5.92536 85.1517 6.01732 84.6054 6.19042C84.0644 6.36352 83.5776 6.57449 83.1502 6.81792C82.7607 7.02348 82.3226 7.31018 81.8303 7.66179C81.3435 8.01341 80.9594 8.30552 80.6727 8.53812L80.8891 6.67727C80.8783 6.35271 80.6348 5.57915 78.5846 5.57915C78.5846 5.57915 75.7285 5.40064 75.5067 6.86119H75.5013L73.1211 22.6027C73.1319 22.9273 73.4132 23.6954 75.4688 23.6954C75.4688 23.6954 78.3196 23.8902 78.5414 22.4134H78.5522L80.175 11.8703C80.7917 11.6432 81.4192 11.443 82.0629 11.2699C82.7066 11.1022 83.3125 11.0157 83.8751 11.0157C84.3457 11.0157 84.7785 11.0373 85.1625 11.0752C85.3519 11.0914 85.5196 11.1184 85.6656 11.1455C86.3688 11.3186 86.542 10.8047 86.5906 10.4801C86.6393 10.1556 87.1857 6.58531 87.1857 6.58531C87.1857 6.58531 87.2993 5.94159 86.6177 5.94159H86.6069Z" fill="#00853F"/>
<path d="M101.184 19.6815C100.08 19.8168 98.7333 19.8384 97.8408 19.8655C93.7079 19.7573 92.3502 16.9227 92.6477 14.9591C92.7775 14.0882 92.9668 12.8169 93.0426 12.4491V12.4383C93.0642 12.3301 93.6755 8.21349 97.9273 8.21349C100.518 8.21349 100.589 9.40357 100.399 10.6423C100.134 12.3842 99.4852 12.4491 98.6251 12.4491C97.765 12.4491 95.2983 12.4275 95.2983 12.4275C94.6221 12.4275 93.8107 12.7899 93.6647 13.7474C93.3996 15.4892 94.6654 15.6569 94.6654 15.6569C94.6654 15.6569 98.782 15.9869 101.157 15.9869C103.261 15.9869 104.543 13.0495 104.597 10.9885C104.619 10.004 104.57 7.21815 101.649 5.79547C100.475 5.22747 98.1816 5.16797 96.8184 5.16797C94.5302 5.16797 92.48 6.1579 90.8193 7.80237C89.1424 9.44144 88.0983 11.6539 87.6818 14.429C87.4708 15.8354 87.4871 19.806 89.6563 21.8453C91.8309 23.8901 94.7466 23.7819 97.6244 23.625C99.6637 23.5872 101.059 22.5594 101.638 21.1421C102.217 19.7248 101.481 19.6815 101.189 19.6815H101.184Z" fill="#00853F"/>
<path d="M13.1621 23.0407C13.1621 23.0407 14.3576 22.8568 14.6768 20.7363C14.9256 19.0756 14.2061 18.7618 13.8816 18.6969H8.40721C5.81067 18.6969 6.05951 17.0092 6.27048 15.6676C6.47063 14.3315 8.43426 1.40288 8.43426 1.40288C8.43426 1.40288 8.56409 0.380497 6.09197 0.293945H5.52938C2.99776 0.380497 2.85711 1.50566 2.85711 1.50566C2.85711 1.50566 0.238936 18.751 0.0982907 19.6868C-0.139725 21.2934 -0.183001 23.0515 3.20332 23.0515H13.1621V23.0407Z" fill="#00853F"/>
<path d="M47.4196 14.3588L53.7108 7.0777C53.8514 6.9046 54.6196 5.89844 53.0995 5.89844H50.1351C48.6746 5.89844 47.7712 6.91541 47.7712 6.91541L44.6662 10.5181L42.6485 6.91541C42.6485 6.91541 42.0642 5.89844 40.5983 5.89844H37.6285C35.984 5.89844 36.6656 7.08311 36.6764 7.11016L40.8147 14.4941L43.3679 19.0596L47.4304 14.3588H47.4196Z" fill="#C1D82F"/>
<path d="M51.6285 19.5627C51.1308 19.0271 49.5621 19.2706 48.4099 17.2096C47.2522 15.1432 47.0521 14.7861 47.0521 14.7861L43.3574 19.065L43.5413 19.3842L44.9532 21.8996C44.9532 21.8996 46.1162 23.6522 47.712 23.6522C48.3287 23.6522 49.0103 23.5008 49.746 23.187C50.195 22.9977 51.0605 22.5649 51.6068 21.4668C51.6826 21.2829 51.7583 21.099 51.8178 20.9205C52.1911 19.7953 51.6393 19.5627 51.6285 19.5627Z" fill="#00853F"/>
<path d="M33.2195 19.5626C32.6948 19.5626 32.473 19.33 32.5434 18.8593L33.6847 11.3564C33.9931 9.32788 33.5657 7.82406 32.4027 6.83954C31.2397 5.86042 29.2274 5.36816 26.3603 5.36816C25.1865 5.36816 24.0181 5.47094 22.8334 5.68191C22.3411 5.76846 21.9246 5.84961 21.5405 5.92534C20.556 6.2445 20.1611 7.20738 20.0151 7.81324L19.8798 8.70039C19.7608 10.1501 20.3991 10.2096 20.8643 10.069C20.9509 10.0365 21.0429 9.99325 21.1294 9.97161C21.2376 9.91751 21.2971 9.87424 21.2971 9.87424V9.9067C21.7244 9.75523 22.1572 9.62 22.5954 9.50099C23.4501 9.27379 24.1803 9.16019 24.797 9.16019C26.144 9.16019 27.1285 9.3387 27.7506 9.70114C28.351 10.0528 28.589 10.6857 28.47 11.5944H28.4646C28.4646 11.5944 28.47 11.6377 28.4646 11.6648L28.4538 11.7567H28.443L27.9183 14.9808H27.9345L27.3827 18.5672C26.95 18.9621 26.4631 19.2596 25.9655 19.476C25.4624 19.687 24.9863 19.7952 24.5319 19.7952C23.7205 19.7952 23.1201 19.6491 22.7522 19.3462C22.3844 19.0433 22.26 18.4915 22.379 17.6801C22.4601 17.1283 22.6549 16.6847 22.9578 16.3548C23.2553 16.0248 23.6448 15.7705 24.1208 15.6083C24.6131 15.4352 25.1162 15.3161 25.6138 15.2404C25.6138 15.2404 26.5659 15.1214 26.9446 13.7204C27.2529 11.3132 22.4655 12.5249 22.2762 12.579C21.7028 12.7358 21.1673 12.936 20.675 13.1632C19.6743 13.623 18.8737 14.2451 18.2624 15.0349C17.6457 15.8192 17.2454 16.8524 17.0507 18.1237C16.8181 19.6762 17.1048 20.9636 17.9216 21.986C18.7384 23.0084 19.8798 23.5223 21.3512 23.5223C22.1464 23.5223 22.7685 23.4628 23.2229 23.333C23.6827 23.2085 24.1587 23.0246 24.6618 22.7866C25.1703 22.5486 25.5868 22.2998 25.9005 22.0563C26.2197 21.8183 26.5821 21.537 26.9824 21.2341C26.9824 21.2341 26.647 22.3863 27.7884 23.2194C28.9352 24.0578 30.7474 23.6575 31.5047 23.1815C31.9267 22.9218 32.8192 22.5594 33.3656 21.4613C33.4413 21.2774 33.5171 21.0934 33.5711 20.9149C34.0526 19.476 33.5116 19.5572 33.2141 19.5572L33.2195 19.5626Z" fill="#00853F"/>
<path d="M70.2417 19.5626C69.7224 19.5626 69.4952 19.33 69.5655 18.8593L70.7069 11.3564C71.0153 9.32788 70.5879 7.82406 69.4249 6.83954C68.2673 5.86042 66.2495 5.36816 63.3825 5.36816C62.2141 5.36816 61.0456 5.47094 59.861 5.68191C59.3795 5.76846 58.9522 5.84961 58.5735 5.92534C57.5836 6.2445 57.1941 7.20738 57.048 7.81324L56.9128 8.70039C56.7938 10.1501 57.4321 10.2096 57.8919 10.069C57.9785 10.0365 58.0704 9.99325 58.1678 9.97161C58.2652 9.91751 58.3301 9.87424 58.3301 9.87424V9.9067C58.7574 9.75523 59.1902 9.62 59.6229 9.50099C60.483 9.27379 61.2133 9.16019 61.8192 9.16019C63.1661 9.16019 64.1561 9.3387 64.7727 9.70114C65.3732 10.0528 65.6112 10.6857 65.4922 11.5944C65.4922 11.5944 65.4922 11.6377 65.4922 11.6648L65.476 11.7567H65.4652L64.9404 14.9808H64.9567L64.4103 18.5672C63.9667 18.9621 63.4907 19.2596 62.993 19.476C62.49 19.687 62.0085 19.7952 61.5595 19.7952C60.7427 19.7952 60.1477 19.6491 59.7798 19.3462C59.412 19.0433 59.2821 18.4915 59.4066 17.6801C59.4931 17.1283 59.6824 16.6847 59.9854 16.3548C60.2883 16.0248 60.6778 15.7705 61.1538 15.6083C61.6461 15.4352 62.1438 15.3161 62.6414 15.2404C62.6414 15.2404 63.5935 15.1214 63.9667 13.7204C64.2805 11.3132 59.4931 12.5249 59.3038 12.579C58.725 12.7358 58.1949 12.936 57.6972 13.1632C56.7018 13.623 55.8958 14.2451 55.2846 15.0349C54.6679 15.8138 54.2676 16.8524 54.0783 18.1237C53.8402 19.6762 54.1324 20.9636 54.9492 21.986C55.7606 23.0084 56.9074 23.5223 58.3734 23.5223C59.1631 23.5223 59.7852 23.4628 60.2396 23.3384C60.7048 23.214 61.1755 23.03 61.6785 22.792C62.187 22.554 62.6036 22.3052 62.9227 22.0617C63.2365 21.8237 63.5989 21.5424 63.9992 21.2395C63.9992 21.2395 63.6638 22.3917 64.8106 23.2248C65.952 24.0632 67.7696 23.6629 68.5269 23.1869C68.9434 22.9273 69.8414 22.5648 70.3878 21.4667C70.4635 21.2828 70.5338 21.0989 70.5933 20.9203C71.0748 19.4814 70.5338 19.5626 70.2363 19.5626H70.2417Z" fill="#00853F"/>
<path d="M127.301 3.43691C127.441 3.40445 127.658 3.38281 127.853 3.38281C128.161 3.38281 128.361 3.44773 128.502 3.57214C128.61 3.6641 128.68 3.82098 128.68 3.99949C128.68 4.28619 128.491 4.48634 128.258 4.55666V4.57289C128.426 4.6324 128.529 4.79468 128.583 5.02188C128.659 5.33022 128.713 5.54659 128.756 5.63315H128.458C128.421 5.56282 128.377 5.37349 128.318 5.09761C128.253 4.79468 128.123 4.67567 127.869 4.66485H127.598V5.63315H127.312V3.43691H127.301ZM127.587 4.44307H127.88C128.188 4.44307 128.383 4.27537 128.383 4.02113C128.383 3.73443 128.177 3.61542 127.869 3.61542C127.728 3.61542 127.636 3.62083 127.587 3.63165V4.44307Z" fill="#00853F"/>
<path d="M129.713 4.50765C129.713 4.95664 129.534 5.37858 129.215 5.69773C128.896 6.01689 128.474 6.18999 128.02 6.18999C127.565 6.18999 127.149 6.01689 126.824 5.69773C126.511 5.37858 126.337 4.95664 126.337 4.50765C126.337 3.57723 127.095 2.8199 128.02 2.8199C128.945 2.8199 129.708 3.57723 129.708 4.50765H129.713ZM128.025 2.5332C126.938 2.5332 126.051 3.42035 126.051 4.50765C126.051 5.03778 126.262 5.52463 126.63 5.90329C126.997 6.27655 127.501 6.48211 128.025 6.48211C128.55 6.48211 129.053 6.27655 129.426 5.90329C129.794 5.52463 130 5.03778 130 4.50765C130 3.41494 129.113 2.5332 128.025 2.5332Z" fill="#00853F"/>
</g>
<defs>
<clipPath id="clip0_1744_10109">
<rect width="130" height="23.4121" fill="white" transform="translate(0 0.293945)"/>
</clipPath>
</defs>
</svg>
