<svg width="130" height="32" viewBox="0 0 130 32" fill="none" xmlns="http://www.w3.org/2000/svg">
<g clip-path="url(#clip0_1744_10160)">
<path d="M110.215 25.2401H111.275V27.3295H111.288C111.393 27.1458 111.506 26.9774 111.617 26.809L112.685 25.2382H114.001L112.438 27.2491L114.08 29.9622H112.838L111.673 27.9207L111.275 28.4181V29.9603H110.215V25.2344V25.2401Z" fill="#005984"/>
<path d="M117.346 29.1377C117.346 29.461 117.36 29.7767 117.402 29.9661H116.443L116.38 29.6217H116.359C116.135 29.8953 115.783 30.0427 115.375 30.0427C114.681 30.0427 114.27 29.5375 114.27 28.9922C114.27 28.1026 115.067 27.6797 116.282 27.6797V27.6376C116.282 27.4559 116.183 27.1956 115.657 27.1956C115.307 27.1956 114.935 27.3143 114.71 27.4482L114.514 26.769C114.754 26.635 115.222 26.4609 115.846 26.4609C116.988 26.4609 117.346 27.1325 117.346 27.9399V29.1377ZM116.315 28.3456C115.754 28.3456 115.32 28.4795 115.32 28.887C115.32 29.1587 115.502 29.2926 115.741 29.2926C116.001 29.2926 116.225 29.1185 116.294 28.9004C116.309 28.843 116.315 28.7799 116.315 28.7167V28.3456Z" fill="#005984"/>
<path d="M118.191 27.6854C118.191 27.2358 118.177 26.8589 118.164 26.5355H119.088L119.138 27.0119H119.151C119.404 26.6541 119.796 26.459 120.295 26.459C121.046 26.459 121.719 27.1095 121.719 28.2039C121.719 29.4514 120.927 30.0407 120.163 30.0407C119.748 30.0407 119.425 29.8723 119.272 29.6485H119.258V31.3513H118.191V27.6835V27.6854ZM119.258 28.4909C119.258 28.5751 119.266 28.644 119.28 28.7148C119.35 29.0018 119.595 29.2199 119.903 29.2199C120.366 29.2199 120.64 28.8334 120.64 28.2537C120.64 27.7065 120.395 27.2932 119.919 27.2932C119.616 27.2932 119.35 27.517 119.28 27.8327C119.266 27.8882 119.258 27.959 119.258 28.0222V28.4909Z" fill="#005984"/>
<path d="M122.385 24.9854H123.45V29.9638H122.385V24.9854Z" fill="#005984"/>
<path d="M125.127 28.5845C125.162 29.0322 125.598 29.2427 126.095 29.2427C126.461 29.2427 126.756 29.1949 127.041 29.0954L127.182 29.8167C126.832 29.964 126.403 30.0348 125.942 30.0348C124.777 30.0348 124.111 29.3613 124.111 28.2822C124.111 27.4136 124.659 26.4512 125.845 26.4512C126.951 26.4512 127.372 27.3141 127.372 28.1617C127.372 28.3434 127.351 28.5061 127.337 28.5903L125.129 28.5845H125.127ZM126.381 27.8536C126.381 27.6011 126.27 27.1591 125.785 27.1591C125.33 27.1591 125.148 27.5724 125.12 27.8536H126.381Z" fill="#005984"/>
<path d="M129.201 25.6035V26.5353H129.966V27.3198H129.201V28.5691C129.201 28.9824 129.306 29.1718 129.622 29.1718C129.769 29.1718 129.838 29.1661 129.938 29.1431L129.944 29.9486C129.81 29.9984 129.551 30.0405 129.257 30.0405C128.914 30.0405 128.625 29.9219 128.449 29.7458C128.254 29.543 128.157 29.2139 128.157 28.7299V27.3198H127.699V26.5353H128.157V25.8905L129.199 25.6035H129.201Z" fill="#005984"/>
<path d="M15.9984 21.1115H13.7483V12.1094H2.4942V21.1115H0.244141V0.891602H2.4942V9.8593H13.7483V0.891602H15.9984V21.1115Z" fill="#005984"/>
<path d="M15.9991 20.8664H13.7491L13.9959 21.1113V11.8642H2.25006V21.1113L2.49496 20.8664H0.244904L0.491721 21.1113V0.891388L0.244904 1.13821H2.49496L2.25006 0.891388V10.104H13.9959V0.891388L13.7491 1.13821H15.9991L15.7523 0.891388V21.1113L15.9991 20.8664ZM15.9991 0.646484H13.5022V9.85908L13.7491 9.61226H2.49496L2.74178 9.85908V0.646484H0V21.3581H2.74178V12.1091L2.49496 12.356H13.7491L13.5022 12.1091V21.3581H16.2459V0.646484H15.9991Z" fill="#005984"/>
<path d="M31.7327 21.1113H29.4827V19.0832C28.4456 20.0724 27.6038 20.7134 26.9628 21.0099C26.2052 21.3677 25.1739 21.5476 23.8633 21.5476C22.1566 21.5476 20.8211 21.1687 19.853 20.4149C18.7719 19.573 18.2305 18.3045 18.2305 16.6112C18.2305 15.3733 18.6705 14.3153 19.5507 13.4332C20.4289 12.5512 21.4888 12.1092 22.7287 12.1092H29.4827V9.86681C29.4827 8.53897 29.0024 7.66459 28.0438 7.24175C27.4545 6.97771 26.4348 6.84569 24.9825 6.84569C23.1439 6.84569 21.6419 7.10399 20.4824 7.62058V5.36861C21.6783 5.07014 23.1783 4.9209 24.9806 4.9209C27.1178 4.9209 28.6791 5.18876 29.6644 5.72449C31.0439 6.48025 31.7365 7.86357 31.7365 9.87446V21.1113H31.7327ZM29.4827 14.3593H22.7248C22.0992 14.3593 21.5711 14.5793 21.1349 15.0174C20.6986 15.4556 20.4824 15.9856 20.4824 16.6093C20.4824 17.7745 20.7771 18.5915 21.3664 19.0564C21.8772 19.4602 22.7095 19.6611 23.8613 19.6611C25.6216 19.6611 26.98 19.2363 27.9405 18.3868C28.9699 17.4761 29.4846 16.1329 29.4846 14.3631L29.4827 14.3593Z" fill="#005984"/>
<path d="M31.7334 20.8662H29.4833L29.7282 21.1111V18.509L29.3131 18.9031C28.3009 19.8674 27.4744 20.5007 26.8602 20.7858C26.1389 21.1283 25.1306 21.3005 23.862 21.3005C22.2204 21.3005 20.9213 20.937 20.0029 20.2214C18.9888 19.4331 18.4741 18.2182 18.4741 16.611C18.4741 15.4477 18.8951 14.4355 19.7216 13.6052C20.5501 12.7748 21.5603 12.3558 22.7274 12.3558H29.7282V9.86656C29.7282 8.43731 29.1963 7.47874 28.1421 7.01572C27.5165 6.73447 26.4814 6.59862 24.9813 6.59862C23.1178 6.59862 21.568 6.86648 20.3798 7.39456L20.7261 7.61842V5.36645L20.5405 5.60561C21.7115 5.31287 23.2039 5.16555 24.9794 5.16555C27.0649 5.16555 28.6013 5.42576 29.5465 5.93853C30.8533 6.65411 31.4885 7.93985 31.4885 9.8723V21.1092L31.7334 20.8643V20.8662ZM31.9783 9.87421C31.9783 7.77722 31.2398 6.3078 29.7799 5.50803C28.762 4.95509 27.1472 4.67383 24.9775 4.67383C23.1637 4.67383 21.6292 4.82689 20.42 5.1292L20.2344 5.17703V7.99725L20.5807 7.84419C21.7057 7.34481 23.1866 7.09034 24.9813 7.09034C26.3914 7.09034 27.3883 7.21471 27.9431 7.46535C28.8137 7.84801 29.2365 8.63438 29.2365 9.86656V12.109L29.4814 11.8641H22.7274C21.4245 11.8641 20.2975 12.3347 19.3734 13.2589C18.4493 14.1849 17.9824 15.3118 17.9824 16.611C17.9824 18.377 18.5602 19.722 19.7006 20.6098C20.707 21.3943 22.1075 21.7941 23.862 21.7941C25.2033 21.7941 26.2805 21.6047 27.0668 21.2335C27.7384 20.9236 28.5841 20.2788 29.6498 19.2628L29.2346 19.0849V21.3598H31.9764V9.87421H31.9783Z" fill="#005984"/>
<path d="M29.4814 14.1143H22.7236C22.0348 14.1143 21.4398 14.3611 20.9595 14.8451C20.4793 15.3292 20.2344 15.9223 20.2344 16.6092C20.2344 17.849 20.5635 18.7368 21.2121 19.2477C21.7708 19.6916 22.6375 19.9059 23.8601 19.9059C25.6739 19.9059 27.1013 19.4562 28.1019 18.5684C29.181 17.6118 29.7282 16.1959 29.7282 14.3611V14.1143H29.4833H29.4814ZM27.7728 18.1992C26.864 19.0047 25.5476 19.4141 23.8582 19.4141C22.7657 19.4141 21.9793 19.2285 21.5163 18.8612C20.992 18.4479 20.7261 17.6902 20.7261 16.6092C20.7261 16.0486 20.9174 15.5856 21.3077 15.1915C21.7 14.7973 22.163 14.606 22.7236 14.606H29.4814L29.2365 14.3611C29.2365 16.0505 28.7429 17.342 27.7747 18.2011L27.7728 18.1992Z" fill="#005984"/>
<path d="M47.4634 21.1018C46.4455 21.3983 44.9474 21.5476 42.9709 21.5476C39.8427 21.5476 37.6003 20.9774 36.238 19.8352C34.7265 18.5628 33.9707 16.3644 33.9707 13.24C33.9707 7.69329 36.5919 4.9209 41.8363 4.9209C44.3313 4.9209 45.9691 5.88521 46.7497 7.81574C47.2242 9.00008 47.4615 11.1813 47.4615 14.3574H36.2208C36.2208 16.4237 36.8885 17.8664 38.224 18.6834C39.2419 19.309 40.8242 19.6209 42.9671 19.6209C44.8383 19.6209 46.3364 19.3664 47.4596 18.8556V21.098L47.4634 21.1018ZM45.2114 12.1092C45.2114 10.2323 45.066 8.97712 44.7771 8.33807C44.3294 7.34315 43.3498 6.84569 41.8382 6.84569C38.0958 6.84569 36.2246 8.6002 36.2246 12.1092H45.2114Z" fill="#005984"/>
<path d="M47.3972 20.8662C46.4042 21.1551 44.9157 21.3024 42.9736 21.3024C39.92 21.3024 37.7082 20.7457 36.3976 19.6493C34.953 18.4325 34.2202 16.2762 34.2202 13.2436C34.2202 10.5477 34.8593 8.50619 36.1182 7.17261C37.3753 5.84286 39.2982 5.16938 41.839 5.16938C44.2441 5.16938 45.7786 6.06672 46.5247 7.91115C46.9839 9.06105 47.2174 11.2307 47.2174 14.3609L47.4623 14.1141H35.9767V14.3609C35.9767 16.5096 36.6903 18.0364 38.0966 18.8974C39.1508 19.5422 40.7906 19.8694 42.9698 19.8694C44.8678 19.8694 46.4138 19.6053 47.5656 19.083L47.2174 18.8591V21.1015L47.3953 20.8662H47.3972ZM47.3647 18.6353C46.276 19.1289 44.8009 19.3776 42.9717 19.3776C40.8843 19.3776 39.3307 19.0753 38.3568 18.4765C37.0883 17.6997 36.4722 16.3527 36.4722 14.359L36.2254 14.6039H47.7129V14.359C47.7129 11.1198 47.4738 8.95008 46.9839 7.72556C46.165 5.70128 44.4335 4.67383 41.841 4.67383C39.2484 4.67383 37.117 5.39897 35.7624 6.83013C34.4135 8.25746 33.7285 10.4138 33.7285 13.2378C33.7285 16.4235 34.5206 18.7061 36.0819 20.0205C37.4805 21.1953 39.7995 21.7884 42.9736 21.7884C44.9635 21.7884 46.498 21.6353 47.535 21.333L47.711 21.2814V18.4726L47.3628 18.6314L47.3647 18.6353Z" fill="#005984"/>
<path d="M45.459 12.109C45.459 10.1804 45.3097 8.91374 45.0017 8.23643C44.5119 7.15158 43.4481 6.59863 41.839 6.59863C39.9123 6.59863 38.439 7.06357 37.4594 7.98196C36.4779 8.90226 35.9785 10.2932 35.9785 12.109V12.3558H45.459V12.109ZM36.4722 12.109C36.4722 10.4348 36.918 9.1663 37.7981 8.34166C38.682 7.51128 40.0424 7.09227 41.839 7.09227C43.2568 7.09227 44.1445 7.53233 44.554 8.43924C44.8295 9.04193 44.9673 10.276 44.9673 12.109L45.2122 11.8641H36.2253L36.4722 12.109Z" fill="#005984"/>
<path d="M74.8723 21.1116H72.6223V9.88808C72.6223 8.72096 72.3295 7.90206 71.7422 7.42756C71.2332 7.0162 70.4067 6.80956 69.2606 6.80956C67.5176 6.80956 66.1668 7.23623 65.2044 8.08574C64.1712 8.98117 63.6546 10.3014 63.6546 12.0463V21.1116H61.4045V9.88808C61.4045 8.72096 61.1099 7.90206 60.5206 7.42756C60.0097 7.0162 59.1774 6.80956 58.0256 6.80956C56.2654 6.80956 54.9012 7.24005 53.9331 8.09913C52.9113 9.00221 52.4024 10.3454 52.4024 12.1247V21.1116H50.1523V5.35735H52.4024V7.37016C54.1225 5.71323 55.9937 4.88477 58.0141 4.88477C60.5952 4.88477 62.3 5.71323 63.1246 7.37016C63.7847 6.40202 64.6438 5.73236 65.7057 5.36118C66.5839 5.04357 67.7682 4.88477 69.2625 4.88477C70.9654 4.88477 72.3008 5.26743 73.2671 6.03084C74.3385 6.88418 74.8742 8.16227 74.8742 9.86703V21.1097L74.8723 21.1116Z" fill="#005984"/>
<path d="M74.8731 20.8665H72.623L72.8698 21.1114V9.8879C72.8698 8.64999 72.5426 7.75647 71.8979 7.23605C71.3411 6.7826 70.4782 6.56257 69.2632 6.56257C67.4685 6.56257 66.047 7.0122 65.0425 7.89997C63.9614 8.8375 63.4104 10.2342 63.4104 12.0461V21.1114L63.6553 20.8665H61.4053L61.6521 21.1114V9.8879C61.6521 8.64999 61.323 7.75647 60.6763 7.23605C60.1157 6.7826 59.247 6.56448 58.0263 6.56448C56.2125 6.56448 54.7814 7.01794 53.7711 7.91719C52.6997 8.86428 52.1563 10.282 52.1563 12.1265V21.1133L52.4012 20.8684H50.1512L50.398 21.1133V5.35718L50.1512 5.604H52.4012L52.1563 5.35718V7.94781L52.5734 7.54601C54.2399 5.94265 56.069 5.1295 58.013 5.1295C60.4811 5.1295 62.1266 5.91969 62.9034 7.47904L63.0909 7.85405L63.3281 7.50583C63.9538 6.58744 64.7803 5.94265 65.7867 5.5906C66.6382 5.28256 67.8053 5.12758 69.2613 5.12758C70.901 5.12758 72.1963 5.49494 73.1128 6.222C74.1173 7.02176 74.6262 8.2482 74.6262 9.86494V21.1076L74.8731 20.8627V20.8665ZM75.118 9.86877C75.118 8.09322 74.5459 6.73859 73.4189 5.84125C72.4125 5.04531 71.0139 4.6416 69.2613 4.6416C67.7479 4.6416 66.5234 4.80615 65.6222 5.13141C64.5163 5.5179 63.6075 6.22391 62.9206 7.23414L63.3434 7.26284C62.4767 5.52364 60.6839 4.6416 58.013 4.6416C55.937 4.6416 53.9931 5.50068 52.2328 7.19587L52.648 7.3719V5.11228H49.9062V21.3582H52.648V12.1246C52.648 10.4255 53.1359 9.13406 54.0964 8.28263C55.0129 7.46948 56.335 7.0562 58.0244 7.0562C59.115 7.0562 59.9014 7.24562 60.3663 7.62063C60.8925 8.04347 61.1584 8.80688 61.1584 9.88982V21.3601H63.9002V12.0461C63.9002 10.3835 64.3939 9.11301 65.3639 8.27115C66.2766 7.46374 67.5872 7.05429 69.2594 7.05429C70.3404 7.05429 71.1249 7.24371 71.586 7.6168C72.1102 8.04156 72.3743 8.80497 72.3743 9.88599V21.3563H75.1161V9.86877H75.118Z" fill="#005984"/>
<path d="M92.9026 13.2458C92.9026 15.5456 92.1335 17.5105 90.5952 19.1407C89.0569 20.7708 87.1991 21.584 85.0179 21.584C82.8367 21.584 80.9827 20.7708 79.4482 19.1407C77.9138 17.5124 77.1484 15.5475 77.1484 13.2458C77.1484 10.944 77.9157 8.9829 79.4559 7.3585C80.9942 5.7341 82.8482 4.92285 85.0198 4.92285C87.1914 4.92285 89.0588 5.7341 90.5971 7.3585C92.1354 8.9829 92.9046 10.946 92.9046 13.2458H92.9026ZM90.6526 13.2458C90.6526 11.4798 90.1035 9.97208 89.0033 8.72078C87.9051 7.47138 86.5753 6.84573 85.0198 6.84573C83.4643 6.84573 82.1384 7.47138 81.042 8.72078C79.9457 9.97017 79.3985 11.4798 79.3985 13.2458C79.3985 15.0117 79.9457 16.5347 81.042 17.7841C82.1364 19.0335 83.4624 19.6592 85.0198 19.6592C86.5772 19.6592 87.9051 19.0354 89.0033 17.7841C90.1035 16.5347 90.6526 15.0194 90.6526 13.2458Z" fill="#005984"/>
<path d="M92.6566 13.2455C92.6566 15.4706 91.9027 17.3974 90.4161 18.972C88.9333 20.5409 87.1175 21.3388 85.0186 21.3388C82.9197 21.3388 81.1059 20.5428 79.6288 18.9739C78.146 17.3993 77.396 15.4726 77.396 13.2474C77.396 11.0222 78.1479 9.09741 79.6365 7.52849C81.1193 5.96149 82.9312 5.16938 85.0205 5.16938C87.1099 5.16938 88.9371 5.9634 90.418 7.52849C91.9046 9.09741 92.6585 11.0222 92.6585 13.2474L92.6566 13.2455ZM90.7739 7.18792C89.1935 5.51951 87.2572 4.67383 85.0186 4.67383C82.78 4.67383 80.8552 5.51951 79.2768 7.18792C77.7021 8.8525 76.9023 10.8883 76.9023 13.2455C76.9023 15.6027 77.6983 17.6403 79.2691 19.3088C80.8438 20.981 82.7781 21.8286 85.0186 21.8286C87.2591 21.8286 89.1954 20.981 90.7739 19.3088C92.3485 17.6403 93.1483 15.6008 93.1483 13.2455C93.1483 10.8902 92.3504 8.8525 90.7739 7.18792Z" fill="#005984"/>
<path d="M90.8982 13.2455C90.8982 11.4259 90.3223 9.84935 89.1877 8.55786C88.0435 7.25873 86.643 6.59863 85.0186 6.59863C83.3942 6.59863 81.9955 7.25873 80.8571 8.55786C79.7263 9.84935 79.1523 11.4259 79.1523 13.2455C79.1523 15.065 79.7263 16.6569 80.8571 17.9465C81.9955 19.2456 83.3961 19.9057 85.0186 19.9057C86.6411 19.9057 88.0435 19.2456 89.1877 17.9465C90.3223 16.655 90.8982 15.0746 90.8982 13.2455ZM88.8184 17.6212C87.7737 18.8113 86.4956 19.414 85.0186 19.414C83.5415 19.414 82.2672 18.8113 81.2264 17.6231C80.1779 16.4254 79.646 14.9522 79.646 13.2474C79.646 11.5426 80.1779 10.0828 81.2264 8.88504C82.2672 7.69687 83.5434 7.09418 85.0186 7.09418C86.4937 7.09418 87.7718 7.69687 88.8184 8.88695C89.8726 10.0847 90.4065 11.5522 90.4065 13.2493C90.4065 14.9464 89.8726 16.4273 88.8184 17.625V17.6212Z" fill="#005984"/>
<path d="M108.635 20.6391C108.635 22.5371 107.975 24.2074 106.655 25.65C105.31 27.1271 103.716 27.8657 101.879 27.8657C100.042 27.8657 98.5767 27.7164 97.3809 27.416V25.1583C98.5423 25.6807 100.042 25.9409 101.881 25.9409C103.121 25.9409 104.183 25.4224 105.063 24.3892C105.943 23.3541 106.383 22.1047 106.383 20.6429V19.0836C104.667 20.7271 102.794 21.5479 100.764 21.5479C98.7336 21.5479 97.2011 21.0428 96.3305 20.0326C95.5307 19.1008 95.1309 17.5816 95.1309 15.4751C95.1309 12.8136 95.7642 10.5349 97.0308 8.63879C98.4811 6.45188 100.471 5.35938 103.004 5.35938H108.635V20.6391ZM106.385 14.3271V7.60943H103.006C101.141 7.60943 99.6922 8.49147 98.6647 10.2575C97.8114 11.725 97.3847 13.4623 97.3847 15.4712C97.3847 18.2647 98.5117 19.6595 100.764 19.6595C102.541 19.6595 103.913 19.2213 104.883 18.3431C105.886 17.4209 106.387 16.0816 106.387 14.3252L106.385 14.3271Z" fill="#005984"/>
<path d="M108.391 20.6388C108.391 22.466 107.746 24.0943 106.476 25.4833C105.184 26.8992 103.638 27.6186 101.882 27.6186C100.125 27.6186 98.6139 27.4694 97.4429 27.1766L97.6285 27.4158V25.1581L97.2822 25.3819C98.4704 25.9157 100.02 26.1874 101.884 26.1874C103.194 26.1874 104.327 25.6364 105.253 24.5477C106.168 23.4724 106.631 22.158 106.631 20.6446V18.5093L106.215 18.9073C104.557 20.4972 102.722 21.3028 100.766 21.3028C98.8109 21.3028 97.3377 20.8225 96.5207 19.8735C95.7649 18.9934 95.3784 17.5144 95.3784 15.4767C95.3784 12.8784 96.0041 10.6246 97.2363 8.7763C98.6311 6.67357 100.573 5.60594 103.005 5.60594H108.636L108.391 5.35912V20.6388ZM108.636 5.1123H103.005C100.397 5.1123 98.3173 6.25264 96.8268 8.50269C95.5392 10.4313 94.8867 12.7789 94.8867 15.4767C94.8867 17.6349 95.3115 19.223 96.1476 20.1949C97.0602 21.2568 98.6158 21.7945 100.764 21.7945C102.913 21.7945 104.8 20.9431 106.554 19.2632L106.139 19.0852V20.6446C106.139 22.0394 105.714 23.2467 104.876 24.2301C104.038 25.2174 103.058 25.6957 101.884 25.6957C100.089 25.6957 98.6081 25.4393 97.4831 24.9342L97.1368 24.7773V27.6071L97.3224 27.653C98.5316 27.9553 100.066 28.1103 101.88 28.1103C103.694 28.1103 105.45 27.3373 106.837 25.8143C108.194 24.3334 108.881 22.5904 108.881 20.6388V5.1123H108.636Z" fill="#005984"/>
<path d="M106.631 14.3248V7.3623H103.007C101.057 7.3623 99.5246 8.29409 98.4531 10.1309C97.5806 11.629 97.1387 13.4256 97.1387 15.4709C97.1387 18.4136 98.3575 19.906 100.762 19.906C102.594 19.906 104.036 19.441 105.044 18.5246C106.097 17.5583 106.629 16.1463 106.629 14.3248H106.631ZM104.715 18.1591C103.799 18.9914 102.469 19.4123 100.762 19.4123C98.654 19.4123 97.6304 18.1228 97.6304 15.469C97.6304 13.5117 98.0513 11.7993 98.8779 10.3777C99.869 8.67866 101.22 7.85211 103.007 7.85211H106.386L106.141 7.60721V14.3248C106.141 16.0009 105.661 17.2924 104.717 18.1591H104.715Z" fill="#005984"/>
<path d="M124.826 21.1113H122.576V19.0832C121.538 20.0724 120.699 20.7134 120.059 21.0099C119.301 21.3677 118.268 21.5476 116.959 21.5476C115.252 21.5476 113.915 21.1687 112.949 20.4149C111.868 19.573 111.326 18.3045 111.326 16.6112C111.326 15.3733 111.766 14.3153 112.644 13.4332C113.523 12.5512 114.585 12.1092 115.824 12.1092H122.578V9.86681C122.578 8.53897 122.1 7.66459 121.141 7.24175C120.55 6.97771 119.53 6.84569 118.078 6.84569C116.24 6.84569 114.74 7.10399 113.576 7.62058V5.36861C114.772 5.07014 116.272 4.9209 118.076 4.9209C120.214 4.9209 121.775 5.18876 122.76 5.72449C124.14 6.48025 124.83 7.86357 124.83 9.87446V21.1113H124.826ZM122.576 14.3593H115.819C115.193 14.3593 114.665 14.5793 114.229 15.0174C113.792 15.4556 113.576 15.9856 113.576 16.6093C113.576 17.7745 113.871 18.5915 114.46 19.0564C114.971 19.4602 115.801 19.6611 116.955 19.6611C118.715 19.6611 120.074 19.2363 121.034 18.3868C122.064 17.4761 122.578 16.1329 122.578 14.3631L122.576 14.3593Z" fill="#005984"/>
<path d="M124.827 20.8662H122.577L122.824 21.1111V18.509L122.409 18.9031C121.397 19.8674 120.57 20.5007 119.954 20.7858C119.233 21.1283 118.224 21.3005 116.958 21.3005C115.316 21.3005 114.017 20.937 113.099 20.2214C112.085 19.4331 111.57 18.2182 111.57 16.611C111.57 15.4477 111.989 14.4355 112.817 13.6052C113.644 12.7748 114.656 12.3558 115.823 12.3558H122.824V9.86656C122.824 8.43731 122.29 7.47874 121.238 7.01572C120.61 6.73447 119.577 6.59862 118.077 6.59862C116.213 6.59862 114.666 6.86648 113.476 7.39456L113.822 7.61842V5.36645L113.636 5.60561C114.807 5.31287 116.3 5.16555 118.075 5.16555C120.159 5.16555 121.695 5.42576 122.64 5.93853C123.947 6.65411 124.582 7.93985 124.582 9.8723V21.1092L124.827 20.8643V20.8662ZM125.074 9.87421C125.074 7.77722 124.334 6.3078 122.874 5.50803C121.856 4.95509 120.241 4.67383 118.073 4.67383C116.258 4.67383 114.725 4.82689 113.516 5.1292L113.328 5.17703V7.99725L113.675 7.84419C114.8 7.34481 116.28 7.09034 118.075 7.09034C119.485 7.09034 120.482 7.21471 121.037 7.46535C121.908 7.84801 122.33 8.63438 122.33 9.86656V12.109L122.577 11.8641H115.823C114.522 11.8641 113.393 12.3347 112.471 13.2589C111.547 14.1849 111.08 15.3118 111.08 16.611C111.08 18.377 111.658 19.722 112.796 20.6098C113.803 21.3943 115.205 21.7941 116.958 21.7941C118.297 21.7941 119.376 21.6047 120.163 21.2335C120.832 20.9236 121.678 20.2788 122.747 19.2628L122.33 19.0849V21.3598H125.074V9.87421Z" fill="#005984"/>
<path d="M122.577 14.1143H115.819C115.131 14.1143 114.535 14.3611 114.055 14.8451C113.575 15.3292 113.33 15.9223 113.33 16.6092C113.33 17.849 113.659 18.7368 114.308 19.2477C114.866 19.6916 115.733 19.9059 116.954 19.9059C118.768 19.9059 120.195 19.4562 121.196 18.5684C122.275 17.6118 122.822 16.1959 122.822 14.3611V14.1143H122.575H122.577ZM120.87 18.1992C119.962 19.0047 118.645 19.4141 116.954 19.4141C115.863 19.4141 115.075 19.2285 114.612 18.8612C114.088 18.4479 113.82 17.6902 113.82 16.6092C113.82 16.0486 114.011 15.5856 114.402 15.1915C114.792 14.7973 115.255 14.606 115.817 14.606H122.575L122.328 14.3611C122.328 16.0505 121.837 17.342 120.869 18.2011L120.87 18.1992Z" fill="#005984"/>
<path d="M129.752 21.1115H127.502V0.891602H129.752V21.1115Z" fill="#005984"/>
<path d="M129.753 20.8664H127.503L127.749 21.1113V0.891388L127.503 1.13821H129.753L129.508 0.891388V21.1113L129.753 20.8664ZM129.753 0.646484H127.256V21.3581H129.998V0.646484H129.753Z" fill="#005984"/>
</g>
<defs>
<clipPath id="clip0_1744_10160">
<rect width="130" height="30.7067" fill="white" transform="translate(0 0.646484)"/>
</clipPath>
</defs>
</svg>
