<svg width="130" height="24" viewBox="0 0 130 24" fill="none" xmlns="http://www.w3.org/2000/svg">
<g clip-path="url(#clip0_1508_42976)">
<path d="M0.468343 22.8425C0.33227 20.6748 0.174046 18.9438 0 17.6432C1.14871 18.1527 2.17083 18.504 3.06955 18.7002C3.96509 18.8995 4.75305 18.9976 5.43025 19.0008C6.3163 19.0008 7.02831 18.8647 7.55045 18.6021C8.08208 18.3394 8.34157 17.947 8.34157 17.4344C8.34157 17.2603 8.30993 17.0926 8.26246 16.9344C8.21499 16.7761 8.11373 16.6021 7.96816 16.3996C7.82576 16.2034 7.62323 15.985 7.35425 15.7509L4.46192 13.2351C3.78472 12.6623 3.31321 12.2509 3.05056 11.9978C2.50627 11.4756 2.08223 10.9915 1.7816 10.539C1.47465 10.0896 1.25313 9.63708 1.1139 9.16558C0.977824 8.70356 0.905041 8.20674 0.91137 7.68776C0.905041 7.06436 1.0158 6.45045 1.23098 5.85237C1.44933 5.25112 1.77844 4.69417 2.2183 4.17203C2.655 3.64989 3.24043 3.19737 3.96193 2.81763C4.68659 2.44106 5.46189 2.18157 6.29099 2.03917C7.11375 1.9031 7.96816 1.82715 8.84789 1.82715C10.5725 1.82715 12.4554 2.02018 14.487 2.41258C14.5186 3.11193 14.5566 3.76065 14.5977 4.34924C14.6357 4.93783 14.7401 5.96312 14.8952 7.42828C13.9554 7.0612 13.0978 6.80171 12.3257 6.65614C11.5472 6.51374 10.8763 6.44729 10.3162 6.44096C9.52192 6.44096 8.86054 6.59285 8.3384 6.89032C7.80994 7.19094 7.55045 7.56119 7.55361 8.00105C7.55361 8.20357 7.59159 8.4061 7.67386 8.6023C7.75614 8.79533 7.9112 9.02317 8.13588 9.28266C8.36372 9.54215 8.66118 9.82695 9.02826 10.1434C9.39534 10.4535 9.97128 10.9124 10.7592 11.5263L11.87 12.3997C12.1959 12.6687 12.5472 12.9914 12.9237 13.3648C13.3066 13.7446 13.6294 14.1117 13.9079 14.4819C14.18 14.8521 14.3952 15.1844 14.5471 15.4945C14.6927 15.8015 14.8003 16.1084 14.8762 16.4186C14.949 16.735 14.9838 17.0704 14.9838 17.4249C14.9838 18.3457 14.7686 19.2223 14.3288 20.0577C13.8889 20.89 13.2687 21.5735 12.4617 22.1146C11.6516 22.6526 10.7687 23.0323 9.80039 23.2475C8.83206 23.4627 7.81627 23.5766 6.74351 23.5735C5.08532 23.5798 2.9936 23.333 0.468343 22.8456" fill="#B95915"/>
<path d="M18.5176 23.1464C18.6568 21.8363 18.7517 20.773 18.8119 19.9566C18.8942 18.8459 18.9701 17.4503 19.046 15.7668L19.2106 12.134C19.2739 10.4916 19.3214 8.91256 19.3498 7.41576C19.3878 5.61201 19.4036 3.88104 19.4005 2.21336C20.834 2.23551 21.9067 2.245 22.6282 2.245C23.4573 2.24184 24.4352 2.22918 25.5712 2.20703C25.3497 4.88735 25.144 8.21321 24.9605 12.1878C24.7769 16.1656 24.6883 19.8142 24.6946 23.1401C23.5048 23.1211 22.5048 23.1116 21.6884 23.1116C20.7422 23.1147 19.6884 23.1242 18.5207 23.1464M25.2611 14.3333L27.8971 10.5264L29.8749 7.47589C31.2926 7.49488 32.3622 7.50437 33.09 7.50437C34.0931 7.50437 35.2767 7.49171 36.6532 7.46956L33.6027 11.4473C32.8843 12.3587 32.1565 13.3397 31.4128 14.3998C32.1312 15.7162 33.8653 18.6212 36.6057 23.1211C35.4064 23.0989 34.3273 23.0926 33.359 23.0926C32.3907 23.0926 31.2483 23.1053 29.9762 23.1306L29.0205 21.2161C28.6819 20.5515 28.3876 19.9914 28.1376 19.5421C28.0458 19.3617 27.3433 18.1117 26.0269 15.789L25.2548 14.3333H25.2611Z" fill="#B95915"/>
<path d="M38.8789 23.112C39.0181 21.8684 39.1226 20.8431 39.1922 20.033C39.2618 19.226 39.3251 18.1944 39.3852 16.9381C39.4517 15.685 39.5086 14.2894 39.5529 12.7673C39.6036 11.2452 39.6415 9.47625 39.6669 7.46048C40.9959 7.48263 42.0592 7.48579 42.8567 7.48896C43.5813 7.48263 44.6256 7.47314 45.9832 7.45415C45.8218 9.38448 45.711 11.0775 45.6382 12.5426C45.5718 14.0015 45.5243 15.5521 45.5117 17.1881C45.4769 20.0836 45.4642 22.0614 45.4642 23.1025C44.2427 23.0835 43.1953 23.074 42.3124 23.074C41.4421 23.0803 40.2998 23.0898 38.8821 23.1088M39.7839 5.50166C39.8377 4.28334 39.8694 3.31501 39.8694 2.60617C39.8694 2.40364 39.8631 2.12833 39.8504 1.77391C41.0877 1.79606 42.132 1.80239 42.9674 1.80239C44.1256 1.79922 45.1382 1.78973 46.0085 1.76758C45.9768 2.08719 45.961 2.35617 45.9547 2.57136L45.8597 4.47954C45.8408 4.77067 45.8313 5.1061 45.8313 5.4985C44.8186 5.47951 43.844 5.47002 42.9073 5.47002C41.9453 5.47635 40.9073 5.48268 39.7839 5.50166Z" fill="#B95915"/>
<path d="M49.3887 23.099C49.6766 20.7763 49.895 18.213 50.0532 15.4061C50.2019 12.5993 50.2937 9.95058 50.3159 7.44748C51.55 7.46646 52.6133 7.46963 53.5057 7.46646C54.5404 7.46646 55.5373 7.45697 56.4866 7.43482L56.3474 9.52338C56.686 9.14364 56.9771 8.84301 57.2208 8.61834C57.4644 8.40315 57.7682 8.18797 58.129 7.97911C58.4929 7.76709 58.8789 7.59304 59.284 7.4633C59.6922 7.32723 60.1352 7.21963 60.6194 7.14052C61.1067 7.06458 61.6131 7.02344 62.1447 7.02344C62.8788 7.02344 63.5909 7.09938 64.2965 7.25444C64.9959 7.41583 65.5781 7.64051 66.0497 7.93481C66.5212 8.22594 66.9136 8.58669 67.23 9.01706C67.5433 9.45692 67.7553 9.9221 67.8566 10.4253C67.9642 10.9284 68.0148 11.4442 68.0148 11.9695C68.0148 12.3619 67.9705 13.2005 67.8914 14.4853L67.6382 20.0389C67.5876 21.1307 67.5623 22.1433 67.5623 23.0737C66.5307 23.0515 65.5687 23.042 64.6668 23.042C63.4548 23.0484 62.3472 23.061 61.3504 23.08C61.4422 22.1528 61.5371 20.7699 61.6415 18.9345C61.7428 17.1023 61.7934 15.808 61.7903 15.0644C61.7903 13.9093 61.5656 13.1087 61.1194 12.653C60.67 12.1974 60.1068 11.9727 59.4359 11.9758C58.841 11.979 58.2809 12.1689 57.7556 12.5613C57.2271 12.9505 56.822 13.5138 56.5341 14.2511C56.2524 14.9979 56.0499 16.2163 55.9391 17.9092C55.8221 19.6054 55.7524 21.3332 55.7176 23.0927C54.6892 23.0705 53.6924 23.061 52.7209 23.0642C51.6987 23.0642 50.5912 23.08 49.3918 23.099" fill="#B95915"/>
<path d="M83.0993 18.5455C82.9157 19.4125 82.7607 20.2574 82.6278 21.0834L82.2955 22.9789C81.286 23.1846 80.4886 23.3175 79.9221 23.3744C79.3589 23.4314 78.8051 23.4599 78.2766 23.4631C77.4064 23.4631 76.6311 23.3934 75.9539 23.2447C75.2767 23.0991 74.7197 22.827 74.2704 22.4314C73.8179 22.039 73.5141 21.5834 73.3432 21.0707C73.1818 20.5612 73.0995 20.0169 73.0995 19.4442C73.0995 19.3429 73.1058 19.1625 73.1122 18.903C73.1217 18.6467 73.1565 18.0613 73.2166 17.1562L73.5394 11.8431H71.166C71.2135 11.1437 71.2578 10.2165 71.2989 9.06151L71.3432 7.63749H73.8748C73.9286 7.16282 74.0046 6.12487 74.0932 4.53314L76.7228 3.99201C77.2007 3.89075 78.226 3.65657 79.7956 3.27051C79.7259 4.61858 79.6785 6.07107 79.65 7.62167H83.1562C83.0803 9.74187 83.0392 11.1437 83.0423 11.8241L79.5076 11.8304L79.3367 15.6689C79.3177 16.2449 79.3082 16.612 79.3082 16.7765C79.3146 17.267 79.362 17.6721 79.4696 18.0043C79.5772 18.3271 79.7734 18.5613 80.0361 18.7037C80.305 18.8461 80.6057 18.9157 80.9348 18.9157C81.1784 18.9157 81.4316 18.903 81.6974 18.8651C81.9569 18.8303 82.4284 18.7258 83.0993 18.5455Z" fill="#B95915"/>
<path d="M101.013 18.4062C100.883 19.0169 100.627 20.4979 100.247 22.8364C99.0607 23.0769 98.0639 23.2352 97.2538 23.3143C96.4469 23.3934 95.6367 23.4314 94.8045 23.4314C93.5862 23.4314 92.4691 23.3491 91.447 23.1814C90.428 23.0168 89.5451 22.7225 88.8046 22.2921C88.0578 21.8649 87.4439 21.3301 86.9408 20.6909C86.4376 20.0549 86.0547 19.2954 85.792 18.4188C85.5294 17.5423 85.3996 16.6404 85.3965 15.7069C85.3965 14.3968 85.6496 13.1183 86.175 11.8652C86.6876 10.612 87.3616 9.63422 88.1876 8.92854C89.0072 8.22286 89.9533 7.71971 91.0261 7.41908C92.102 7.12162 93.1969 6.97289 94.3267 6.96973C95.4943 6.96973 96.6019 7.09947 97.6652 7.37478C98.7221 7.6406 99.6208 8.11843 100.358 8.7893C101.099 9.46334 101.618 10.226 101.934 11.0741C102.247 11.9253 102.406 12.843 102.406 13.8272C102.406 14.4126 102.349 15.0645 102.222 15.7796L91.4596 15.8113C91.4533 15.9727 91.447 16.1214 91.447 16.2511C91.4501 17.3492 91.8394 18.1562 92.6273 18.672C93.4153 19.1878 94.3741 19.4441 95.5102 19.4441C96.1842 19.4409 96.9532 19.3618 97.8139 19.2004C98.6778 19.0454 99.7442 18.7764 101.007 18.3998M91.5767 13.4664H96.6431C96.6557 13.286 96.6557 13.1373 96.6589 13.0107C96.6589 12.4759 96.5639 12.0202 96.3741 11.6405C96.1874 11.2544 95.9089 10.9823 95.5608 10.8082C95.2032 10.6342 94.8045 10.5456 94.3646 10.5456C94.0577 10.5456 93.7602 10.5962 93.4722 10.6975C93.1906 10.7956 92.9311 10.9411 92.7064 11.131C92.4691 11.3177 92.2792 11.5392 92.1273 11.7892C91.9723 12.0329 91.8647 12.2734 91.7919 12.5044C91.7191 12.7354 91.6463 13.0582 91.5767 13.4696" fill="#B95915"/>
<path d="M103.557 23.0106L107.047 18.3683L109.629 14.8019L104.791 7.36223C106.281 7.38122 107.566 7.38755 108.642 7.38755C109.996 7.38438 111.104 7.37805 111.971 7.35274L113.61 10.859C113.715 11.0773 113.86 11.4096 114.056 11.8558C114.844 10.5077 115.772 9.0046 116.841 7.34324C117.746 7.36539 118.838 7.37489 120.107 7.37172C121.281 7.37172 122.401 7.35907 123.464 7.33691L121.012 10.5615C120.54 11.1944 119.512 12.5868 117.942 14.7355C118.889 16.3588 120.616 19.1119 123.119 22.9884C121.964 22.9694 120.816 22.9663 119.695 22.9663C118.319 22.9663 117.091 22.9789 116.006 23.0011C115.341 21.5739 114.829 20.5201 114.474 19.8303C114.12 19.1468 113.822 18.517 113.579 17.9442L113.088 18.7892C112.933 19.0423 112.699 19.4252 112.386 19.9252L110.443 23.0106C109.341 22.9884 108.265 22.9789 107.224 22.9789C106.019 22.9853 104.794 22.9979 103.557 23.0137" fill="#B95915"/>
<path d="M129.395 3.61543C129.402 5.04261 128.247 6.2103 126.813 6.2198C125.386 6.22296 124.218 5.06793 124.209 3.64075C124.202 2.2104 125.364 1.03955 126.788 1.03638C127.481 1.03005 128.133 1.29903 128.626 1.78636C129.117 2.27369 129.389 2.92241 129.392 3.61543M126.785 0.428801C125.028 0.43513 123.598 1.87813 123.607 3.63758C123.614 5.39703 125.057 6.82421 126.816 6.81788C128.579 6.80523 130.006 5.36539 130 3.6091C129.993 2.75153 129.658 1.95408 129.054 1.35283C128.446 0.751578 127.642 0.422472 126.785 0.428801Z" fill="#B95915"/>
<path d="M126.513 1.99559H126.795C127.13 1.99559 127.374 2.0209 127.526 2.05571C127.791 2.13799 127.975 2.28672 128.064 2.51456C128.111 2.62215 128.133 2.73291 128.133 2.84683C128.133 3.07151 128.067 3.24872 127.937 3.39112C127.839 3.49555 127.665 3.58732 127.421 3.64745C127.734 3.68858 127.918 3.82149 127.975 4.04617C128.007 4.16009 128.029 4.293 128.051 4.44173C128.083 4.64426 128.108 4.82147 128.136 4.96703C128.152 5.06513 128.174 5.14424 128.2 5.20753L128.244 5.30247H127.513L127.488 5.20753C127.456 5.09678 127.431 4.93222 127.405 4.70122C127.364 4.31831 127.301 4.10313 127.215 4.03984C127.152 3.98921 127.041 3.96073 126.886 3.96073L126.643 3.9544H126.295L126.301 5.3088H125.621L125.602 1.99559L126.51 1.98926L126.513 1.99559ZM126.295 3.45441H126.703L126.858 3.43859C127.257 3.40694 127.459 3.24556 127.459 2.95126C127.459 2.90379 127.453 2.85316 127.437 2.81202C127.374 2.6095 127.177 2.50507 126.845 2.50823H126.617H126.285L126.291 3.45441H126.295Z" fill="#B95915"/>
</g>
<defs>
<clipPath id="clip0_1508_42976">
<rect width="130" height="23.1418" fill="white" transform="translate(0 0.428711)"/>
</clipPath>
</defs>
</svg>
