<svg width="100" height="46" viewBox="0 0 100 46" fill="none" xmlns="http://www.w3.org/2000/svg">
<g clip-path="url(#clip0_1508_42864)">
<path d="M29.5268 33.0261C29.1053 34.203 28.6839 35.3775 28.2647 36.5544C27.2813 39.3158 26.2956 42.0772 25.3213 44.8455C25.1947 45.2025 24.9828 45.4305 24.6166 45.4397C23.9948 45.4558 23.3683 45.4443 22.7465 45.4075C22.4079 45.3867 22.2007 45.1795 22.0855 44.8363C20.7751 40.9994 19.4531 37.167 18.1334 33.3347C18.0989 33.2311 18.0574 33.1297 17.9607 33.0261C17.9607 33.1343 17.9607 33.2449 17.9607 33.3531C17.9607 37.1578 17.9607 40.9625 17.9607 44.7672C17.9607 45.2416 17.9008 45.3683 17.4356 45.4006C16.8068 45.4466 16.1712 45.442 15.5447 45.396C15.1371 45.366 15.0703 45.2301 15.0703 44.8294C15.0703 40.4812 15.0703 36.1329 15.0703 31.7847C15.0703 31.05 15.3144 30.6631 15.8511 30.5157C15.8948 30.5042 15.9409 30.4881 15.9846 30.4881C16.9335 30.4904 17.8824 30.4627 18.8289 30.5111C19.6811 30.5526 20.1832 31.0823 20.4618 31.863C21.1343 33.7492 21.8184 35.6332 22.5001 37.5171C22.9261 38.6917 23.3545 39.8662 23.8059 41.1053C23.8635 40.9763 23.9003 40.9003 23.9303 40.822C24.9943 38.0007 26.0583 35.1795 27.1247 32.3582C27.2513 32.0242 27.3734 31.6857 27.5254 31.3632C27.7903 30.8036 28.2578 30.5111 28.8658 30.4927C29.7318 30.4673 30.5977 30.4697 31.4637 30.4858C32.0325 30.4973 32.378 30.8358 32.4609 31.4024C32.4816 31.5475 32.4955 31.6949 32.4955 31.8423C32.4955 36.1537 32.4955 40.465 32.4955 44.7764C32.4955 45.2278 32.4218 45.3729 31.9842 45.4029C31.3554 45.4489 30.7198 45.4466 30.091 45.4029C29.6696 45.3729 29.5844 45.2163 29.5844 44.7972C29.5844 40.9832 29.5844 37.1693 29.5844 33.3554V33.033C29.5636 33.033 29.5429 33.0307 29.5222 33.0284L29.5268 33.0261Z" fill="#231F20"/>
<path d="M14.0727 21.2941C13.3817 21.2941 12.7069 21.3471 12.0413 21.2803C11.1546 21.1928 10.4914 20.6838 10.0169 19.9422C7.91651 16.6649 5.8207 13.383 3.72259 10.1034C3.64429 9.98134 3.56368 9.86158 3.42319 9.74642V10.0573C3.42319 13.2172 3.42319 16.377 3.42319 19.5368C3.42319 20.6239 2.79214 21.2803 1.70969 21.3079C1.21453 21.3194 0.717063 21.3079 0.201172 21.3079V3.93804C0.201172 3.93804 0.219597 3.9104 0.233415 3.9104C1.0418 3.92192 1.85709 3.88507 2.65856 3.96107C3.52913 4.04398 4.19933 4.52072 4.67146 5.26692C6.6429 8.37609 8.61434 11.4853 10.5858 14.5944C10.6434 14.6865 10.7055 14.7764 10.8368 14.8616C10.8368 14.7625 10.8368 14.6612 10.8368 14.5622C10.8368 11.5958 10.8506 8.62943 10.8299 5.66305C10.823 4.728 11.3412 3.96568 12.502 3.9081C13.0155 3.88277 13.5337 3.90349 14.0727 3.90349V21.2941Z" fill="#860038"/>
<path d="M60.3243 10.0353V3.49219C61.1327 3.52673 61.918 3.49449 62.685 3.60734C63.4312 3.71789 63.8572 4.31439 63.9033 5.07671C63.9079 5.15962 63.9102 5.24253 63.9102 5.32544C63.9102 10.5465 63.9102 15.7676 63.9102 20.9887C63.9102 21.0809 63.9102 21.1707 63.9102 21.3043C63.3736 21.3043 62.8531 21.3204 62.3326 21.2973C62.0332 21.2835 61.7246 21.2467 61.439 21.1569C60.8264 20.9657 60.5523 20.5627 60.5316 19.9247C60.5316 19.8717 60.5224 19.8165 60.5154 19.7266C60.4464 19.7704 60.3934 19.7957 60.3519 19.8326C60.1124 20.0353 59.8775 20.2425 59.638 20.4429C58.6269 21.2881 57.4385 21.5415 56.1557 21.4862C53.7536 21.3826 52.4408 19.8809 51.9272 17.9371C51.4183 16.0072 51.4136 14.0541 51.9364 12.1242C52.5813 9.74046 54.3501 8.51292 56.8996 8.58431C58.1064 8.61886 59.129 9.07257 60.0341 9.8441C60.1032 9.90398 60.1746 9.96386 60.246 10.0191C60.2575 10.0283 60.2782 10.0237 60.3266 10.0306L60.3243 10.0353ZM60.3266 15.0306C60.3266 14.1739 60.3335 13.3172 60.3174 12.4604C60.3174 12.3383 60.2345 12.1771 60.1377 12.1011C59.6472 11.7165 59.0967 11.4517 58.4795 11.3227C56.9825 11.0072 55.8148 11.7142 55.451 13.1974C55.3427 13.6419 55.2851 14.1025 55.2644 14.5608C55.2183 15.5028 55.2483 16.4424 55.6168 17.3314C55.9784 18.2066 56.6186 18.7133 57.5859 18.7801C58.5486 18.8469 59.3662 18.4876 60.1331 17.9579C60.2759 17.8588 60.3335 17.7506 60.3312 17.5733C60.322 16.7257 60.3266 15.8782 60.3266 15.0306Z" fill="#860038"/>
<path d="M0.172899 37.9161C0.172899 35.788 0.172899 33.66 0.172899 31.5319C0.172899 30.742 0.444663 30.4725 1.23692 30.4725C2.67405 30.4725 4.11118 30.4633 5.5483 30.4863C6.60311 30.5025 7.6395 30.6637 8.62753 31.0506C10.6174 31.8313 11.8288 33.303 12.3148 35.3528C12.7547 37.2137 12.7063 39.0884 12.1489 40.9193C11.4442 43.2339 9.83895 44.6112 7.49671 45.1063C6.65609 45.2837 5.78552 45.3597 4.92416 45.3919C3.66438 45.438 2.39998 45.4057 1.13789 45.4034C0.483815 45.4034 0.172899 45.0971 0.172899 44.4361C0.170596 42.262 0.172899 40.0879 0.172899 37.9138V37.9161ZM3.24061 32.8125V43.0151C4.15263 42.9806 5.05083 43.0105 5.93061 42.9C7.50592 42.6996 8.58147 41.8175 9.06972 40.2906C9.54646 38.7982 9.581 37.2781 9.15493 35.7742C8.71274 34.2035 7.66484 33.2201 6.04116 32.9783C5.12684 32.8424 4.19178 32.8654 3.23831 32.8148L3.24061 32.8125Z" fill="#231F20"/>
<path d="M45.6251 13.5198C45.6528 13.0062 45.6597 12.5225 45.4639 12.0596C45.2129 11.47 44.7016 11.2627 44.1212 11.1867C42.8246 11.0163 41.574 11.2374 40.3533 11.6681C40.001 11.7925 39.6555 11.9445 39.2916 12.0896C39.0383 11.5575 38.755 11.0509 38.7642 10.4451C38.7711 9.92926 38.9623 9.64137 39.4413 9.45482C41.6177 8.60729 43.8633 8.36546 46.164 8.7708C47.3294 8.97578 48.2714 9.52852 48.755 10.6801C48.9899 11.2397 49.0959 11.827 49.0959 12.4304C49.0982 15.3139 49.0959 18.1973 49.0959 21.0808C49.0959 21.1453 49.089 21.2075 49.082 21.3134C48.3105 21.2789 47.5344 21.4355 46.7859 21.1775C46.2585 20.9956 45.9337 20.6156 45.8808 20.0375C45.8738 19.9569 45.8531 19.8763 45.8301 19.7427C45.6804 19.8648 45.556 19.9615 45.4363 20.0651C43.9047 21.3687 42.1451 21.7694 40.199 21.3595C38.6882 21.0393 37.7578 19.8763 37.6449 18.3286C37.4929 16.2075 38.5915 15.0421 40.0678 14.4111C40.5468 14.2061 41.0512 14.0472 41.5579 13.9205C42.7347 13.6303 43.9369 13.5451 45.1438 13.5267C45.2981 13.5244 45.4524 13.5267 45.6274 13.5267L45.6251 13.5198ZM45.6389 15.2148C44.8098 15.3093 44.0268 15.3807 43.2483 15.4912C42.7163 15.5672 42.2142 15.7492 41.7767 16.0716C41.0972 16.5714 40.9176 17.2623 41.0811 18.0522C41.2124 18.6856 41.6592 19.0126 42.2649 19.1347C42.4975 19.1808 42.7393 19.1969 42.9766 19.1992C43.9531 19.213 44.7638 18.7708 45.5445 18.2526C45.5952 18.2204 45.6343 18.1329 45.6343 18.0707C45.6412 17.1517 45.6389 16.2351 45.6389 15.2125V15.2148Z" fill="#860038"/>
<path d="M88.9723 8.77467C88.7858 9.28365 88.6084 9.77421 88.4265 10.2625C87.0308 14.0188 85.6374 17.7751 84.2303 21.5269C84.0368 22.0404 83.7973 22.5425 83.5278 23.0216C82.7609 24.3896 81.5495 25.122 80.0202 25.3223C79.4398 25.3983 78.8433 25.4237 78.263 25.3799C77.5329 25.3223 77.1367 24.8364 77.116 24.1017C77.1045 23.7079 77.116 23.3141 77.116 22.9202C77.602 22.9456 78.0672 22.9824 78.5324 22.9916C79.5435 23.0123 80.292 22.5609 80.8194 21.7065C80.923 21.5384 80.9253 21.4025 80.8562 21.2228C79.3109 17.1786 77.7724 13.1321 76.2316 9.08558C76.1971 8.99346 76.1649 8.89903 76.1211 8.77927C76.2201 8.77467 76.2984 8.76546 76.3767 8.76546C77.1598 8.76546 77.9428 8.76546 78.7259 8.76546C79.5204 8.76546 79.958 9.08328 80.2022 9.83409C81.0013 12.2984 81.7982 14.765 82.5974 17.2316C82.6365 17.3514 82.6826 17.4688 82.7517 17.6692C82.8116 17.5126 82.8484 17.4274 82.876 17.3398C83.6982 14.8341 84.5274 12.3306 85.3403 9.82027C85.5476 9.18231 85.9783 8.81843 86.6232 8.78388C87.3947 8.74012 88.1685 8.77467 88.9746 8.77467H88.9723Z" fill="#860038"/>
<path d="M20.2516 15.9694C20.1457 17.4204 21.2558 18.7907 22.7274 19.0464C24.3926 19.3365 25.9218 18.9588 27.3405 18.0722C27.4027 18.033 27.4649 17.9938 27.5294 17.957C27.5455 17.9478 27.5639 17.9478 27.6261 17.934C27.8126 18.2725 28.043 18.6065 28.1927 18.9727C28.4137 19.5185 28.2065 19.9791 27.7873 20.3545C27.3129 20.7783 26.7233 20.974 26.1337 21.1468C24.1438 21.7318 22.154 21.7778 20.2148 20.9671C18.2986 20.1634 17.1908 18.6756 16.8338 16.6465C16.5736 15.1772 16.6058 13.7055 17.1494 12.2937C18.013 10.0482 19.6712 8.80684 22.0595 8.53968C23.1443 8.41992 24.2152 8.4821 25.2447 8.85059C27.1056 9.51619 28.1443 10.9142 28.621 12.7728C28.7385 13.2334 28.8122 13.7124 28.8467 14.1868C28.9158 15.1564 28.3377 15.8197 27.3658 15.9326C27.1747 15.9556 26.9812 15.9648 26.7878 15.9648C24.7334 15.9648 22.6814 15.9648 20.627 15.9648H20.2539L20.2516 15.9694ZM20.2079 14.1178C20.3437 14.1178 20.4428 14.1178 20.5418 14.1178C21.6381 14.1178 22.7343 14.1178 23.8306 14.1178C24.0333 14.1178 24.236 14.1016 24.4363 14.0763C25.2079 13.9727 25.5487 13.4982 25.3783 12.7428C25.2125 12.015 24.9246 11.3356 24.2313 10.9671C23.2617 10.4535 22.2599 10.4535 21.3617 11.103C20.3529 11.8331 20.2286 12.9455 20.2079 14.1201V14.1178Z" fill="#860038"/>
<path d="M38.7641 40.24C38.7641 40.3805 38.7641 40.4795 38.7641 40.5786C38.7641 41.9973 38.7641 43.4137 38.7641 44.8324C38.7641 45.2032 38.6927 45.3183 38.3335 45.3897C37.6057 45.5348 36.871 45.5371 36.1409 45.3897C35.7885 45.3183 35.7171 45.2078 35.7148 44.8577C35.7148 40.4473 35.7148 36.0369 35.7148 31.6265C35.7148 30.8273 36.0626 30.4749 36.8549 30.4772C38.1907 30.4772 39.5241 30.4657 40.8599 30.491C41.7743 30.5072 42.6725 30.6569 43.5177 31.0369C44.8627 31.6403 45.6757 32.6628 45.8945 34.1276C46.0741 35.3275 45.9636 36.4998 45.4131 37.5961C44.713 38.9986 43.5039 39.7425 42.0207 40.0281C41.233 40.1801 40.4131 40.1801 39.6094 40.2377C39.3445 40.2561 39.0773 40.24 38.7641 40.24ZM38.7803 37.9162C39.5126 37.877 40.2312 37.8886 40.9336 37.7849C41.8111 37.6559 42.3938 37.1032 42.6241 36.2441C42.7323 35.8411 42.7784 35.4104 42.7692 34.9936C42.7462 33.9641 42.198 33.2225 41.286 32.9669C40.4684 32.7365 39.6278 32.8563 38.7779 32.8356V37.9162H38.7803Z" fill="#231F20"/>
<path d="M35.1002 21.2625C34.4 21.2625 33.7299 21.3316 33.0804 21.2463C31.9979 21.1036 31.4268 20.3182 31.4913 19.2219C31.5005 19.0469 31.5097 18.8719 31.5097 18.6991C31.5097 13.7728 31.5097 8.84422 31.5097 3.91792C31.5097 3.80047 31.5097 3.6807 31.5097 3.51949C32.3273 3.57016 33.1287 3.41355 33.9141 3.63695C34.6211 3.83731 35.0403 4.41078 35.091 5.20074C35.0979 5.3205 35.0979 5.44026 35.0979 5.56002C35.0979 10.6982 35.0979 15.8364 35.0979 20.9769V21.2648L35.1002 21.2625Z" fill="#860038"/>
<path d="M93.9676 21.3379C93.2467 21.308 92.5604 21.3333 91.8902 21.2366C90.863 21.0892 90.2804 20.2785 90.3633 19.2421C90.3771 19.0763 90.3863 18.9104 90.3863 18.7469C90.3863 13.8022 90.3863 8.85747 90.3863 3.91275V3.48438C91.167 3.52353 91.934 3.49819 92.6779 3.62026C93.4678 3.74923 93.8962 4.35034 93.9584 5.17254C93.9676 5.28309 93.9676 5.39363 93.9676 5.50418C93.9676 10.6608 93.9676 15.8174 93.9676 20.9717V21.3356V21.3379Z" fill="#860038"/>
<path d="M66.9984 8.82373C67.6755 8.82373 68.3158 8.76385 68.9399 8.83755C69.8542 8.9481 70.3954 9.62751 70.4231 10.5487C70.4277 10.7123 70.4553 10.8758 70.4784 11.0946C70.6511 10.908 70.7893 10.756 70.9275 10.6063C71.4641 10.0328 72.026 9.48932 72.7308 9.12083C72.9565 9.00337 73.2052 8.91585 73.4516 8.86288C74.3614 8.67173 74.9717 9.12083 75.0477 10.0559C75.0891 10.5603 75.0592 11.0692 75.0615 11.5736C75.0615 11.6726 75.0615 11.774 75.0615 11.8822C74.5502 11.9283 74.0573 11.9536 73.5691 12.0181C72.5626 12.1517 71.6161 12.4511 70.7962 13.0867C70.635 13.2111 70.5705 13.3424 70.5728 13.5497C70.5797 16.0186 70.5774 18.4852 70.5774 20.9541C70.5774 21.0623 70.5774 21.1706 70.5774 21.3456C69.8059 21.3111 69.0574 21.3387 68.3296 21.2258C67.5811 21.1107 67.0859 20.3944 67.0099 19.517C66.9984 19.388 66.9961 19.259 66.9961 19.13C66.9961 15.779 66.9961 12.4258 66.9961 9.07476C66.9961 8.98494 66.9961 8.89282 66.9961 8.82603L66.9984 8.82373Z" fill="#860038"/>
<path d="M95.1332 2.83303C95.1355 1.52257 96.1696 0.5 97.4892 0.5C98.7905 0.5 99.8292 1.55021 99.8269 2.85836C99.8246 4.1573 98.7697 5.1983 97.4639 5.19139C96.1534 5.18448 95.1286 4.14579 95.1309 2.83303H95.1332ZM99.5159 2.85836C99.5228 1.73676 98.6085 0.810917 97.4892 0.804007C96.3699 0.797098 95.4464 1.71142 95.4372 2.83303C95.428 3.95233 96.3423 4.87817 97.4639 4.88738C98.5809 4.89659 99.509 3.97766 99.5159 2.85836Z" fill="#860038"/>
<path d="M98.7428 4.12077C98.4388 4.21289 98.2545 4.15301 98.1394 3.89506C98.0726 3.74536 97.9528 3.621 97.8768 3.4736C97.6511 3.03832 97.3011 2.91165 96.8013 3.03371V4.12077H96.4766V1.51367C97.0063 1.53901 97.5199 1.54361 98.0288 1.59428C98.3144 1.62192 98.4687 1.83841 98.5148 2.12169C98.5655 2.43491 98.4618 2.69516 98.2154 2.83564C98.121 2.88861 98.015 2.92546 97.9344 2.96001C98.197 3.33772 98.4595 3.71542 98.7428 4.12307V4.12077ZM96.8358 2.68134C97.1629 2.68134 97.4669 2.69976 97.7686 2.67673C98.0288 2.656 98.1993 2.46254 98.1785 2.24375C98.1555 1.99732 98.0012 1.85913 97.7617 1.84762C97.46 1.8338 97.1583 1.84532 96.8381 1.84532V2.68364L96.8358 2.68134Z" fill="#860038"/>
</g>
<defs>
<clipPath id="clip0_1508_42864">
<rect width="99.6522" height="45" fill="white" transform="translate(0.173828 0.5)"/>
</clipPath>
</defs>
</svg>
