<svg width="130" height="38" viewBox="0 0 130 38" fill="none" xmlns="http://www.w3.org/2000/svg">
<g clip-path="url(#clip0_1508_42963)">
<path d="M101.487 7.33407C101.487 11.1549 98.4259 14.2536 94.6535 14.2536C90.8811 14.2536 87.8203 11.1549 87.8203 7.33407C87.8203 3.51329 90.8811 0.417969 94.6535 0.417969C98.4259 0.417969 101.487 3.51329 101.487 7.33407Z" fill="#005DAA"/>
<path d="M101.487 7.33408C101.487 11.1549 98.4259 14.2536 94.6535 14.2536C90.8811 14.2536 87.8203 11.1549 87.8203 7.33408C87.8203 3.51329 90.8811 0.417969 94.6535 0.417969C98.4259 0.417969 101.487 3.51329 101.487 7.33408Z" stroke="#231F20" stroke-width="0.83"/>
<path d="M16.24 21.242C17.1797 20.3957 18.0295 19.8188 18.8033 19.5078C19.5772 19.2004 20.4028 19.0449 21.2734 19.0449C22.4445 19.0449 23.3219 19.3558 23.9092 19.9811C24.4965 20.6029 24.7901 21.3595 24.7901 22.2473C24.7901 22.7759 24.7383 23.2872 24.6312 23.7846L22.7899 32.2933H17.7946L18.9899 26.7625C19.2904 25.353 19.4597 24.517 19.4942 24.2441C19.5253 23.9746 19.5426 23.7915 19.5426 23.6844C19.5426 23.0073 19.2248 22.6688 18.5891 22.6688C17.8464 22.6688 17.2384 22.9797 16.7513 23.5981C16.2677 24.2165 15.8807 25.1941 15.5975 26.5276L14.3642 32.2899H9.36882L10.5399 26.8558C10.8474 25.4014 11.0236 24.5377 11.0616 24.2683C11.0961 23.9988 11.1134 23.7984 11.1134 23.6568C11.1134 22.997 10.7783 22.6688 10.1116 22.6688C9.60719 22.6688 9.07518 22.9279 8.51899 23.4426C7.9628 23.9608 7.54825 24.8348 7.27879 26.075L5.93495 32.2899H0.925781L3.71364 19.3386H8.33935L7.93516 21.1971L7.98698 21.242C9.41028 19.7773 11.0098 19.0449 12.7854 19.0449C13.5972 19.0449 14.3227 19.2384 14.948 19.6218C15.5767 20.0018 16.0051 20.5442 16.24 21.242Z" fill="#231F20"/>
<path d="M42.7133 19.3389L34.4948 33.9415C33.6864 35.3717 32.8297 36.2111 32.1768 36.8157C31.5238 37.4202 30.6637 37.7242 29.5893 37.7242H23.5645L24.3452 34.0175H27.8378C28.8051 34.0175 29.572 33.444 30.1316 32.2971L27.6409 19.3423H32.536L33.2339 28.3415H33.2822L37.6903 19.3423H42.7098L42.7133 19.3389Z" fill="#231F20"/>
<path d="M57.758 23.8434L53.2636 24.0886C53.0494 22.959 52.2894 22.3924 50.9766 22.3924C49.7641 22.3924 48.8313 22.883 48.1819 23.8641C47.529 24.8417 47.2008 25.9127 47.2008 27.0665C47.2008 27.7678 47.4357 28.3067 47.9021 28.6798C48.365 29.0563 48.8659 29.2394 49.4013 29.2394C50.7279 29.2394 51.7125 28.5071 52.3585 27.0423L57.0084 27.5432C55.8614 30.9149 53.2636 32.5973 49.2079 32.5973C44.6375 32.5973 42.3574 30.7318 42.3574 26.994C42.3574 24.821 43.1105 22.9521 44.6167 21.3906C46.1229 19.8291 48.2406 19.0449 50.9766 19.0449C52.9354 19.0449 54.5038 19.4457 55.6749 20.2471C56.8495 21.0486 57.5404 22.2473 57.7546 23.8399" fill="#231F20"/>
<path d="M67.7933 19.0449C70.1114 19.0449 71.8041 19.6322 72.8681 20.8033C73.9287 21.9744 74.4607 23.3459 74.4607 24.9143C74.4607 26.1165 74.1532 27.3325 73.5452 28.5693C72.9372 29.806 72.0183 30.7871 70.7919 31.5126C69.5655 32.238 68.0593 32.5973 66.2664 32.5973C63.9967 32.5973 62.3178 32.0411 61.233 30.9218C60.1552 29.8025 59.6094 28.4069 59.6094 26.7383C59.6094 25.429 59.9341 24.1612 60.5836 22.9417C61.2261 21.7222 62.1658 20.7688 63.3991 20.0778C64.6255 19.3904 66.0902 19.0449 67.7933 19.0449ZM66.5842 29.2394C67.51 29.2394 68.2493 28.7662 68.7952 27.8196C69.341 26.873 69.6139 25.8194 69.6139 24.6621C69.6139 23.8226 69.4066 23.2354 68.9921 22.8968C68.5775 22.5582 68.1146 22.3924 67.6102 22.3924C66.56 22.3924 65.7689 22.8692 65.2473 23.8192C64.7222 24.7692 64.4631 25.7434 64.4631 26.7383C64.4631 27.4569 64.6669 28.0511 65.078 28.5278C65.4856 29.0045 65.99 29.2429 66.5842 29.2429" fill="#231F20"/>
<path d="M88.7495 19.4387L86.9151 23.2733C86.5351 23.1835 86.1896 23.1385 85.8925 23.1385C84.939 23.1385 84.1652 23.4806 83.5745 24.1646C82.9768 24.8486 82.5174 25.9437 82.1926 27.4499L81.1666 32.2967H76.1816L78.9419 19.3419H83.5952L83.0252 21.8949L83.0701 21.9433C83.8439 20.7963 84.5245 20.0294 85.1118 19.639C85.6956 19.2487 86.3416 19.0518 87.0394 19.0518C87.568 19.0518 88.138 19.183 88.7495 19.4421" fill="#231F20"/>
<path d="M95.8208 19.3389L93.0364 32.2971H88.041L90.8151 19.3389H95.8208Z" fill="#231F20"/>
<path d="M103.915 21.3461C105.283 19.8157 106.952 19.0488 108.928 19.0488C110.099 19.0488 110.976 19.3494 111.56 19.947C112.147 20.5447 112.441 21.2805 112.441 22.1511C112.441 22.6727 112.279 23.6987 111.954 25.2291L110.455 32.3007H105.47L106.751 26.2793C107.059 24.8076 107.214 23.9647 107.214 23.7505C107.214 23.0354 106.89 22.6762 106.237 22.6762C105.504 22.6762 104.865 23.0216 104.319 23.7091C103.774 24.4 103.362 25.388 103.083 26.6835L101.86 32.3007H96.8574L99.6384 19.3459H104.292L103.863 21.2978L103.912 21.3496L103.915 21.3461Z" fill="#231F20"/>
<path d="M129.22 28.9734C128.495 30.2585 127.551 31.1844 126.38 31.7509C125.213 32.3175 123.748 32.5973 121.993 32.5973C119.437 32.5973 117.616 32.0204 116.538 30.87C115.46 29.7196 114.918 28.3067 114.918 26.6381C114.918 25.4843 115.17 24.3926 115.675 23.3735C116.179 22.351 116.863 21.4942 117.727 20.8033C118.59 20.1124 119.44 19.646 120.28 19.4042C121.119 19.1658 122.097 19.0449 123.223 19.0449C125.641 19.0449 127.375 19.5735 128.422 20.6202C129.476 21.667 130.001 22.959 130.001 24.4894C130.001 24.9972 129.89 25.8643 129.669 27.0941H119.789C119.927 28.8249 120.704 29.6955 122.124 29.6955C123.081 29.6955 123.848 29.3051 124.418 28.5209L129.217 28.9734H129.22ZM125.068 24.6863C125.126 24.5066 125.154 24.2579 125.154 23.9435C125.154 23.2837 124.954 22.7863 124.556 22.4477C124.166 22.1092 123.679 21.9399 123.098 21.9399C122.487 21.9399 121.924 22.1713 121.413 22.6342C120.898 23.0937 120.508 23.7777 120.242 24.6897H125.064L125.068 24.6863Z" fill="#231F20"/>
<path d="M0.504371 34.249L0 36.6016H21.8642L22.3685 34.249H0.504371Z" fill="#8CD2F4"/>
<path d="M35.8861 34.249L35.3887 36.5774V36.6016H130V34.249H35.8861Z" fill="#8CD2F4"/>
</g>
<defs>
<clipPath id="clip0_1508_42963">
<rect width="130" height="37.4478" fill="white" transform="translate(0 0.276367)"/>
</clipPath>
</defs>
</svg>
