<svg width="130" height="22" viewBox="0 0 130 22" fill="none" xmlns="http://www.w3.org/2000/svg">
<g clip-path="url(#clip0_1744_10077)">
<path d="M47.1589 7.10485C47.2849 6.95523 47.97 6.07324 46.6352 6.07324H44.0405C42.7608 6.07324 41.9635 6.95916 41.9635 6.95916H41.9576L39.1955 10.1052L37.4748 6.95916C37.4748 6.95916 36.9787 6.07324 35.6951 6.07324H33.0984C31.6553 6.07324 32.238 7.11469 32.2459 7.13241L35.7699 13.5898L38.3745 17.5804L41.5599 13.4658L47.1589 7.10288V7.10485Z" fill="#8DC63F"/>
<path d="M31.1706 19.931C31.1706 19.931 30.3005 21.0611 31.6943 21.0611H34.4013C35.8463 21.0611 36.5374 20.0905 36.5492 20.0669L38.3742 17.5824L35.933 13.8398L31.1706 19.9291V19.931Z" fill="#00853F"/>
<path d="M45.8876 18.0233C45.3679 17.5548 43.9937 17.7674 42.6668 15.9601C41.3419 14.1529 41.271 13.8418 41.271 13.8418L38.375 17.5843L38.5837 17.8619L40.2 20.0649C40.2 20.0649 41.4856 21.5966 42.9208 21.5966C43.4759 21.5966 44.0685 21.4647 44.6946 21.193C45.0686 21.0276 45.7911 20.6476 46.1337 19.6889C46.177 19.5314 46.2164 19.3699 46.2459 19.2164C46.429 18.2222 45.9034 18.0273 45.8896 18.0273L45.8876 18.0233Z" fill="#00853F"/>
<path d="M29.0698 18.0231C28.615 18.0231 28.4201 17.8144 28.489 17.4108V17.403L29.5836 10.8432C29.8809 9.0753 29.5265 7.7602 28.5244 6.89791C27.5204 6.04152 25.7663 5.6084 23.2601 5.6084C22.2364 5.6084 21.2107 5.70093 20.1771 5.88008C19.746 5.95883 19.3739 6.03167 19.0392 6.09664C18.1769 6.37029 17.8206 7.21684 17.6867 7.74445L17.5528 8.52012C17.4327 9.78798 17.9899 9.83719 18.3934 9.71907C18.4683 9.68757 18.547 9.6541 18.6297 9.62851C18.7183 9.5852 18.7754 9.54779 18.7754 9.54779V9.57536C19.1553 9.44148 19.5353 9.32336 19.9172 9.22099C20.6673 9.02018 21.3091 8.9178 21.8446 8.9178C23.0239 8.9178 23.8803 9.07924 24.4197 9.39423C24.9414 9.70135 25.1383 10.2605 25.0241 11.0519V11.0558C25.0201 11.0716 25.0241 11.0913 25.0201 11.1129L25.0024 11.1936H24.9985L24.4984 14.0148H24.5102L23.9866 17.1529C23.5908 17.4994 23.1735 17.7613 22.7325 17.9483C22.2895 18.1373 21.8682 18.2278 21.4784 18.2278C20.7657 18.2278 20.246 18.0979 19.9271 17.8321C19.6042 17.5723 19.5058 17.084 19.6239 16.3753C19.7026 15.8949 19.8759 15.5071 20.1436 15.2157C20.4114 14.9263 20.7559 14.7058 21.1752 14.5641C21.6084 14.4085 22.0474 14.3081 22.4844 14.2471V14.2432C22.4844 14.2432 23.3231 14.1408 23.6676 12.9143C23.9708 10.8137 19.7735 11.8689 19.6042 11.9122C19.0982 12.054 18.6277 12.2252 18.1907 12.4261C17.3166 12.8316 16.6039 13.373 16.0526 14.064C15.5113 14.7511 15.1411 15.6528 14.96 16.771C14.7297 18.1274 14.9679 19.2555 15.6687 20.1473C16.3676 21.0431 17.3579 21.4861 18.6454 21.4861C19.3306 21.4861 19.8798 21.4329 20.2834 21.3227C20.6831 21.2144 21.1024 21.0549 21.5454 20.8462C21.9962 20.6336 22.3624 20.423 22.6419 20.2123C22.9215 19.9938 23.2404 19.7556 23.5968 19.4859C23.5968 19.4859 23.2857 20.4938 24.2779 21.2242C25.2682 21.9586 26.8609 21.6101 27.5342 21.1947C27.9004 20.9644 28.6898 20.6494 29.184 19.6906C29.2489 19.5331 29.3198 19.3717 29.371 19.2181C29.8061 17.9542 29.3316 18.029 29.0757 18.029L29.0698 18.0231Z" fill="#00853F"/>
<path d="M61.4488 18.0231C60.996 18.0231 60.8011 17.8144 60.8661 17.4108V17.403L61.9607 10.8432C62.2599 9.0753 61.9036 7.7602 60.9015 6.89791C59.8975 6.04152 58.1453 5.6084 55.6352 5.6084C54.6135 5.6084 53.5878 5.70093 52.5561 5.88008C52.125 5.95883 51.7529 6.03167 51.4222 6.09664C50.554 6.37029 50.1976 7.21684 50.0618 7.74445L49.9338 8.52012C49.8118 9.78798 50.3728 9.83719 50.7725 9.71907C50.8532 9.68757 50.932 9.6541 51.0087 9.62851C51.1013 9.5852 51.1564 9.54779 51.1564 9.54779L51.1525 9.57536C51.5324 9.44148 51.9124 9.32336 52.2963 9.22099C53.0483 9.02018 53.6901 8.9178 54.2197 8.9178C55.4009 8.9178 56.2632 9.07924 56.7968 9.39423C57.3204 9.70135 57.5193 10.2605 57.3992 11.0519V11.0558C57.3952 11.0716 57.4012 11.0913 57.3952 11.1129L57.3834 11.1936H57.3697L56.8735 14.0148H56.8834L56.3558 17.1529C55.964 17.4994 55.5447 17.7613 55.1037 17.9483C54.6607 18.1373 54.2414 18.2278 53.8496 18.2278C53.1369 18.2278 52.6192 18.0979 52.3002 17.8321C51.9774 17.5723 51.8769 17.084 51.9911 16.3753C52.0718 15.8949 52.2471 15.5071 52.5128 15.2157C52.7826 14.9263 53.1271 14.7058 53.5444 14.5641C53.9795 14.4085 54.4166 14.3081 54.8536 14.2471V14.2432C54.8536 14.2432 55.6903 14.1408 56.0329 12.9143C56.342 10.8137 52.1408 11.8689 51.9714 11.9122C51.4694 12.054 51.0009 12.2252 50.5618 12.4261C49.6858 12.8316 48.9711 13.373 48.4238 14.064C47.8785 14.7511 47.5123 15.6528 47.3253 16.771C47.0989 18.1274 47.3351 19.2555 48.034 20.1473C48.7329 21.0431 49.7271 21.4861 51.0147 21.4861C51.7017 21.4861 52.2471 21.4329 52.6507 21.3227C53.0523 21.2144 53.4716 21.0549 53.9165 20.8462C54.3615 20.6336 54.7316 20.4249 55.0072 20.2123C55.2868 19.9938 55.6096 19.7556 55.964 19.4859C55.964 19.4859 55.6529 20.4938 56.6452 21.2242C57.6374 21.9586 59.2301 21.6101 59.8995 21.1947C60.2676 20.9644 61.0551 20.6494 61.5492 19.6906C61.6201 19.5331 61.6831 19.3717 61.7382 19.2181C62.1773 17.9542 61.6989 18.029 61.441 18.029L61.4488 18.0231Z" fill="#00853F"/>
<path d="M12.1707 17.2691H7.38471C5.10888 17.2691 5.35497 15.7886 5.54988 14.6172C5.74872 13.4458 7.63671 2.13949 7.63671 2.13949H7.63277C7.63277 2.13949 7.75877 1.24176 5.59319 1.17285H5.09904C2.89211 1.24176 2.7543 2.22611 2.7543 2.22611C2.7543 2.22611 0.228445 17.3124 0.092604 18.1333C-0.141673 19.537 -0.194828 21.0726 2.76415 21.0726H11.4875V21.0647C11.4875 21.0647 12.5329 20.9013 12.84 19.0488C13.0861 17.5998 12.4581 17.3202 12.1707 17.2671V17.2691Z" fill="#00853F"/>
<path d="M105.859 18.0233C105.808 18.0233 105.04 17.9623 105.225 16.8676C105.253 16.6924 106.253 10.5737 106.253 10.5737C106.253 10.5737 106.385 9.54994 106.172 8.85498C105.131 5.41171 101.3 5.20893 98.9096 6.03185C98.8741 6.04563 98.8387 6.05941 98.8072 6.07122C98.6182 6.13816 98.4509 6.211 98.3012 6.27203C98.2973 6.27597 98.2914 6.27794 98.2914 6.27794C98.2815 6.27794 98.2776 6.28188 98.2737 6.28581C97.8898 6.45709 97.6575 6.59884 97.6575 6.59884C97.0964 6.91974 96.5097 7.31348 95.9014 7.79188L96.0726 6.75437L96.0628 6.74846C96.1632 6.14407 95.2103 6.0791 95.0095 6.07713H92.9955C91.9817 6.08107 91.7336 6.5575 91.6824 6.71499L89.446 20.0865C89.2845 21.0413 90.5209 21.0433 91.519 21.0433C91.519 21.0433 93.6649 21.1004 93.8618 19.9014C93.8618 19.9014 94.9328 13.5582 95.2025 11.9656C95.4604 10.3729 96.7204 8.70339 98.9115 8.70339C101.839 8.70339 101.849 10.6327 101.682 11.6328L100.524 18.5706L100.54 18.5785L100.38 19.6002C100.394 19.5904 100.406 19.5805 100.406 19.5805C100.406 19.5805 100.469 21.6122 102.758 21.565C104.542 21.5335 105.625 20.4468 106.154 19.2104C106.682 17.9701 106.119 18.0213 105.859 18.0213V18.0233Z" fill="#00853F"/>
<path d="M79.6348 18.0234C79.5837 18.0234 78.8178 17.9624 78.9989 16.8678C79.1801 15.7712 81.6666 0.948753 81.6666 0.948753H81.6567C81.7571 0.338452 80.8062 0.275453 80.6035 0.267578H78.5895C77.5756 0.273484 77.3295 0.749913 77.2783 0.905441L76.2998 6.75646H76.2939L75.9455 8.84132C75.9455 8.84132 75.9474 8.84132 75.9474 8.84329L74.6363 16.7103C73.9807 17.2182 73.2976 17.6218 72.5987 17.923C71.8899 18.2262 71.2225 18.3797 70.5807 18.3797C69.3719 18.3797 68.5726 17.9112 68.1809 16.9839C67.7911 16.0567 67.6178 15.4424 67.9092 13.6922C68.2183 11.8751 68.6238 11.0069 69.4999 10.0422C70.372 9.07757 71.443 9.12679 72.701 9.12679C73.144 9.12679 74.7898 9.63865 75.1363 7.58135C75.3509 6.30759 73.2267 5.74454 70.8209 5.74454C69.996 5.74454 69.181 5.92763 68.3659 6.30168C67.5529 6.66983 66.8303 7.17776 66.1905 7.82941C65.4916 8.54011 64.8912 9.37288 64.4029 10.3336C63.9147 11.2884 63.5583 12.4185 63.3398 13.7296C63.1292 14.9837 63.078 16.096 63.1725 17.0607C63.2729 18.0254 63.5052 18.8404 63.8714 19.498C64.2356 20.1457 64.7199 20.6398 65.3361 20.9804C65.9543 21.319 68.6809 22.1479 71.9608 20.9548C72.3762 20.8072 72.7227 20.5768 73.0357 20.3642C73.3527 20.1516 74.1874 19.5866 74.1874 19.5866C74.1874 19.5866 74.2484 21.6183 76.5381 21.571C78.3237 21.5395 79.4084 20.4528 79.9321 19.2164C80.4637 17.9762 79.8967 18.0273 79.6407 18.0273L79.6348 18.0234Z" fill="#00853F"/>
<path d="M119.8 17.9286C118.833 18.0527 117.65 18.0645 116.87 18.0901C113.258 17.9916 112.104 15.515 112.392 13.7943C112.523 13.0324 112.701 11.926 112.772 11.6032V11.5953C112.789 11.4988 113.382 7.89608 117.101 7.89608C119.365 7.89608 119.406 8.93752 119.227 10.0243C118.973 11.5421 118.408 11.6032 117.654 11.6032C116.9 11.6032 114.744 11.5815 114.744 11.5815C114.152 11.5815 113.437 11.9024 113.297 12.7352C113.043 14.2668 114.144 14.4125 114.144 14.4125C114.144 14.4125 117.741 14.6999 119.818 14.6999C121.656 14.6999 122.818 12.1308 122.891 10.3294C122.926 9.46514 122.914 7.03181 120.388 5.78955C119.367 5.2895 117.361 5.23438 116.166 5.23438C114.163 5.23438 112.356 6.10258 110.88 7.53777C109.403 8.97887 108.458 10.9062 108.052 13.3337C107.846 14.5621 107.814 18.0369 109.679 19.8186C111.557 21.6121 114.11 21.5137 116.626 21.3778C118.41 21.3463 119.644 20.4447 120.17 19.2083C120.701 17.968 120.056 17.9247 119.802 17.9247L119.8 17.9286Z" fill="#00853F"/>
<path d="M88.6638 0.777359H86.6537C85.6378 0.781297 85.3898 1.25969 85.3386 1.41719L85.1319 2.66929C84.9705 3.62609 86.1694 3.63396 87.199 3.63396C88.2287 3.63396 89.3469 3.68909 89.5497 2.4862L89.7328 1.45853L89.719 1.45263C89.8214 0.848233 88.8705 0.781297 88.6657 0.775391L88.6638 0.777359Z" fill="#00853F"/>
<path d="M87.7661 18.0233C87.7168 18.0233 86.949 17.9623 87.1341 16.8677C87.3152 15.7711 88.8351 6.75637 88.8351 6.75637L88.8213 6.75046C88.9217 6.14607 87.9728 6.0811 87.7661 6.0752H85.754C84.7421 6.0811 84.4901 6.5595 84.4429 6.71503L82.2852 19.6042C82.3048 19.5904 82.3206 19.5806 82.3206 19.5806C82.3206 19.5806 82.3816 21.6123 84.6693 21.565C86.4529 21.5335 87.5377 20.4468 88.0633 19.2104C88.5929 17.9702 88.0279 18.0213 87.768 18.0213L87.7661 18.0233Z" fill="#00853F"/>
<path d="M127.066 4.88911C127.224 4.85564 127.456 4.83398 127.665 4.83398C128 4.83398 128.218 4.90092 128.37 5.03676C128.488 5.1411 128.561 5.30451 128.561 5.49744C128.561 5.81243 128.354 6.02506 128.104 6.11168V6.12152C128.287 6.18649 128.397 6.35974 128.46 6.60976C128.539 6.94641 128.596 7.18069 128.641 7.27519H128.32C128.279 7.20431 128.226 6.9976 128.161 6.69639C128.09 6.36171 127.956 6.23768 127.675 6.22586H127.379V7.27519H127.066V4.88714V4.88911ZM127.379 5.98962H127.698C128.033 5.98962 128.244 5.80653 128.244 5.52894C128.244 5.21788 128.019 5.08007 127.687 5.08007C127.535 5.08007 127.433 5.09385 127.379 5.1096V5.98962Z" fill="#00853F"/>
<path d="M129.69 6.0541C129.69 6.54431 129.499 7.00499 129.152 7.35148C128.804 7.69994 128.345 7.88894 127.855 7.88894C127.365 7.88894 126.906 7.69994 126.559 7.35148C126.213 7.00499 126.024 6.54431 126.024 6.0541C126.024 5.04415 126.847 4.22123 127.857 4.22123C128.867 4.22123 129.69 5.04415 129.69 6.0541ZM127.857 3.9082C126.672 3.9082 125.709 4.8709 125.709 6.0541C125.709 6.62896 125.933 7.16839 126.339 7.57198C126.743 7.97556 127.284 8.19803 127.857 8.19803C128.43 8.19803 128.969 7.97556 129.375 7.57198C129.778 7.16839 130.003 6.627 130.003 6.0541C130.003 4.87287 129.042 3.9082 127.859 3.9082H127.857Z" fill="#00853F"/>
</g>
<defs>
<clipPath id="clip0_1744_10077">
<rect width="130" height="21.4649" fill="white" transform="translate(0 0.267578)"/>
</clipPath>
</defs>
</svg>
