<svg width="124" height="46" viewBox="0 0 124 46" fill="none" xmlns="http://www.w3.org/2000/svg">
<g clip-path="url(#clip0_1744_10138)">
<path d="M4.61923 11.8241C4.61923 12.0398 4.61923 12.159 4.61923 12.2811C4.61923 16.1723 4.61923 20.0663 4.61923 23.9575C4.61923 25.3738 3.82169 26.177 2.41393 26.177C1.91441 26.177 1.41488 26.1628 0.915354 26.1827C0.668429 26.1912 0.591797 26.1373 0.594635 25.8733C0.608826 24.2044 0.600312 22.5384 0.600312 20.8695C0.600312 15.6018 0.600312 10.3369 0.591797 5.06915C0.591797 4.77397 0.654238 4.68883 0.957927 4.69734C1.73844 4.72289 2.52463 4.66896 3.3023 4.71721C4.54544 4.79384 5.51043 5.37 6.18593 6.43717C8.6268 10.2972 11.0762 14.1486 13.5227 18.0029C13.5653 18.0682 13.6107 18.1335 13.6675 18.2186C13.764 18.0881 13.7242 17.9632 13.7242 17.8497C13.7242 14.2309 13.7242 10.6094 13.7242 6.99063C13.7242 5.48637 14.4962 4.71153 16.009 4.70586C16.5199 4.70586 17.0308 4.71437 17.5417 4.70018C17.7517 4.6945 17.834 4.76262 17.8056 4.96981C17.7971 5.02658 17.8056 5.08334 17.8056 5.1401C17.8056 12.0171 17.8056 18.8941 17.8141 25.7711C17.8141 26.0919 17.7517 26.2025 17.4111 26.1827C16.8803 26.1515 16.3439 26.16 15.8103 26.177C14.4423 26.2167 13.4319 25.5895 12.7167 24.4769C10.168 20.5148 7.63342 16.5384 5.09322 12.5706C4.9513 12.3463 4.80656 12.125 4.61072 11.8241H4.61923Z" fill="#006D68"/>
<path d="M74.7741 12.3384V11.5153C74.7741 9.19932 74.7798 6.88333 74.7684 4.57018C74.7684 4.29771 74.8422 4.23243 75.1033 4.24095C75.7731 4.26081 76.443 4.24662 77.1128 4.24662C78.3389 4.24946 79.1393 5.00727 79.2102 6.23054C79.2159 6.32136 79.2159 6.41219 79.2159 6.50301C79.2159 12.9373 79.2159 19.3743 79.2216 25.8086C79.2216 26.0896 79.179 26.2059 78.8611 26.1832C78.126 26.1321 77.3852 26.2485 76.653 26.1236C75.5234 25.9306 75.1487 25.5191 75.0238 24.3952C75.0182 24.3526 74.9955 24.3128 74.9671 24.2334C74.6804 24.4831 74.4165 24.7244 74.1383 24.9486C72.0011 26.6856 69.6483 26.8758 67.1989 25.7689C65.7457 25.1132 64.968 23.819 64.4969 22.346C64.003 20.8048 63.9122 19.2154 63.9888 17.6061C64.0456 16.3743 64.2273 15.1709 64.7041 14.0271C65.8252 11.3393 68.0872 10.3005 70.7438 10.4708C72.302 10.573 73.5849 11.2457 74.7741 12.3356V12.3384ZM74.7741 18.4321C74.7741 17.3762 74.7684 16.3233 74.7798 15.2674C74.7798 15.0631 74.7145 14.9354 74.5527 14.819C73.9396 14.3762 73.2812 14.0413 72.5376 13.8767C70.7325 13.4794 69.3474 14.2826 68.8081 16.0479C68.6464 16.5815 68.5726 17.1321 68.5385 17.6856C68.4647 18.9628 68.513 20.2258 69.0494 21.415C69.5347 22.4907 70.3862 23.0243 71.5697 23.0498C72.6852 23.0725 73.6416 22.6582 74.5328 22.0309C74.7088 21.9089 74.7798 21.7812 74.7769 21.5598C74.7627 20.5153 74.7712 19.4737 74.7712 18.4292L74.7741 18.4321Z" fill="#006D68"/>
<path d="M56.8933 24.2675C56.5754 24.5144 56.2661 24.7585 55.9539 24.9969C54.1658 26.3535 52.1535 26.7027 49.9993 26.2457C48.0438 25.8313 46.8744 24.3838 46.7864 22.3914C46.6786 19.9789 47.794 18.3725 50.2036 17.4699C51.4979 16.9846 52.8489 16.7689 54.2169 16.6497C54.952 16.5844 55.6899 16.5645 56.425 16.5617C56.5357 16.5617 56.6549 16.5872 56.6549 16.4056C56.6578 15.8947 56.6634 15.3838 56.4875 14.8928C56.2632 14.2684 55.7978 13.925 55.1734 13.7859C53.8678 13.4936 52.5792 13.661 51.2992 13.9505C50.5244 14.1265 49.7807 14.4018 49.0598 14.7339C48.969 14.7764 48.8555 14.8985 48.7789 14.7225C48.4894 14.0726 48.1374 13.4482 48.1885 12.6932C48.2254 12.1426 48.4496 11.7566 48.986 11.5522C51.7136 10.5106 54.5149 10.1445 57.39 10.7206C59.6805 11.1804 60.8867 12.6478 60.9293 15.0035C60.9718 17.3763 60.9435 19.7462 60.9435 22.1189C60.9435 23.3791 60.9378 24.6393 60.9491 25.8994C60.9491 26.1123 60.9094 26.1946 60.6738 26.1861C60.1743 26.1662 59.6748 26.1804 59.1753 26.1804C57.7193 26.1804 57.1403 25.7036 56.8877 24.2703L56.8933 24.2675ZM56.6578 20.5579C56.6578 20.047 56.6492 19.5361 56.6634 19.0253C56.6691 18.8096 56.6209 18.7358 56.3881 18.7414C55.5594 18.7613 54.7334 18.8096 53.9189 18.96C53.1128 19.1104 52.3266 19.3261 51.6965 19.8994C51.0409 20.4955 50.8082 21.5002 51.1261 22.3715C51.4298 23.206 52.1194 23.4501 52.917 23.5352C54.2878 23.6828 55.4402 23.1492 56.5329 22.4113C56.6634 22.3233 56.6606 22.2126 56.6578 22.0905C56.6578 21.5797 56.6578 21.0688 56.6578 20.5579Z" fill="#006D68"/>
<path d="M95.4822 28.0927C96.1889 28.2488 96.8786 28.2744 97.5655 28.2318C98.7462 28.1552 99.5579 27.5166 100.126 26.5118C100.211 26.3614 100.151 26.2536 100.103 26.1287C98.556 22.0615 97.0063 17.9915 95.4595 13.9243C95.0849 12.9423 94.7159 11.9574 94.3299 10.9782C94.2419 10.7569 94.2646 10.6916 94.5172 10.6944C95.5276 10.7058 96.538 10.6916 97.5484 10.7001C98.468 10.7086 98.9988 11.1145 99.2826 11.9858C100.302 15.1135 101.32 18.2413 102.339 21.3718C102.368 21.4541 102.359 21.5563 102.476 21.6131C102.916 20.2706 103.353 18.9338 103.79 17.5941C104.406 15.7039 105.021 13.8108 105.64 11.9205C105.862 11.2422 106.347 10.7909 107.039 10.7455C108.053 10.6774 109.074 10.7285 110.122 10.7285C109.688 11.895 109.262 13.0473 108.83 14.1996C107.284 18.3519 105.742 22.5071 104.19 26.6594C103.705 27.9593 103.04 29.1514 101.908 30.017C100.92 30.772 99.7736 31.0927 98.5617 31.2091C97.9883 31.263 97.4122 31.3283 96.8332 31.2204C95.9761 31.0643 95.4822 30.4825 95.4794 29.614C95.4794 29.1173 95.4794 28.6178 95.4794 28.0927H95.4822Z" fill="#006D68"/>
<path d="M29.7569 19.5845C28.3718 19.5845 26.9868 19.5873 25.6046 19.5817C25.3889 19.5817 25.3179 19.6101 25.3548 19.8598C25.5052 20.8447 25.7947 21.7614 26.544 22.4625C27.3614 23.2288 28.3775 23.4445 29.456 23.4757C31.1391 23.5268 32.6831 23.084 34.0823 22.1588C34.386 21.9573 34.5109 22.014 34.6386 22.3149C34.7181 22.4994 34.8402 22.6668 34.9537 22.8371C35.439 23.5722 35.3482 24.347 34.7039 24.9516C34.1051 25.5136 33.3472 25.7605 32.5894 25.9875C30.3274 26.6602 28.0454 26.7312 25.8061 25.9535C23.1438 25.0282 21.5828 23.1067 21.1174 20.3366C20.7881 18.3839 20.8704 16.4426 21.7049 14.6063C22.8146 12.1597 24.7332 10.7747 27.3983 10.4369C28.8089 10.2581 30.2082 10.3177 31.5563 10.8087C33.6793 11.5836 34.9395 13.1588 35.598 15.2647C35.825 15.9913 35.9329 16.7435 35.9953 17.4984C36.0833 18.5798 35.2262 19.5107 34.0114 19.5533C32.5951 19.6015 31.176 19.5646 29.7569 19.5646C29.7569 19.5703 29.7569 19.576 29.7569 19.5788V19.5845ZM27.9376 17.2742C28.6755 17.2742 29.4106 17.2827 30.1486 17.2742C31.457 17.2543 31.9537 16.5873 31.6017 15.3357C31.5961 15.313 31.5961 15.2903 31.5876 15.2704C31.2612 14.1777 30.6367 13.3546 29.4674 13.1134C28.2328 12.8608 27.0861 13.0396 26.2233 14.0698C25.4854 14.9525 25.3463 16.0311 25.3179 17.1323C25.3122 17.348 25.4825 17.277 25.5876 17.277C26.3709 17.2827 27.1514 17.277 27.9348 17.277L27.9376 17.2742Z" fill="#006D68"/>
<path d="M43.6614 16.0879C43.6614 19.3093 43.6529 22.5336 43.67 25.7549C43.67 26.1239 43.5621 26.2062 43.2215 26.1835C42.5205 26.1353 41.8138 26.2459 41.1156 26.1154C39.9036 25.8883 39.2168 25.0652 39.2168 23.8335C39.2168 17.4106 39.2225 10.9905 39.2168 4.56761C39.2168 4.32636 39.2537 4.22702 39.5262 4.24405C40.3521 4.29514 41.1837 4.15607 42.0039 4.32068C42.9774 4.51368 43.5877 5.22608 43.6444 6.22229C43.6756 6.7871 43.6586 7.35758 43.6586 7.92239C43.6586 10.6442 43.6586 13.3689 43.6586 16.0908L43.6614 16.0879Z" fill="#006D68"/>
<path d="M116.272 16.0591C116.272 19.3145 116.27 22.5699 116.278 25.8254C116.278 26.0978 116.23 26.2 115.935 26.1801C115.211 26.1319 114.481 26.2454 113.763 26.1149C112.5 25.8878 111.816 25.0647 111.816 23.7705C111.819 18.3268 111.825 12.8802 111.831 7.43654C111.831 6.49425 111.842 5.55196 111.825 4.6125C111.819 4.33436 111.862 4.21799 112.183 4.23502C112.781 4.26624 113.386 4.24354 113.985 4.24354C115.412 4.24354 116.27 5.09784 116.272 6.5283C116.275 8.41005 116.272 10.2946 116.272 12.1764C116.272 13.4706 116.272 14.762 116.272 16.0562V16.0591Z" fill="#006D68"/>
<path d="M87.3159 13.5643C87.8381 12.974 88.3149 12.429 88.874 11.9721C89.4616 11.4896 90.0576 11.0184 90.8239 10.8396C92.0954 10.5416 92.8986 11.132 92.9582 12.4319C92.9895 13.0761 92.9582 13.7261 92.981 14.3704C92.9895 14.6287 92.8476 14.5946 92.6858 14.6003C91.5618 14.6315 90.4493 14.7564 89.3821 15.1367C88.7577 15.3581 88.1844 15.6703 87.6593 16.0733C87.4918 16.201 87.4266 16.3401 87.4294 16.5586C87.4379 19.6438 87.4294 22.7289 87.4436 25.8169C87.4436 26.1178 87.3726 26.2029 87.0718 26.1859C86.3253 26.1433 85.5704 26.2625 84.8324 26.1291C83.7766 25.9361 83.1238 25.1357 83.0216 24.0005C83.0074 23.8529 83.0046 23.7053 83.0046 23.5577C83.0046 19.394 83.0046 15.2304 82.9961 11.0667C82.9961 10.7715 83.0585 10.675 83.3651 10.6949C84.086 10.7431 84.8182 10.6268 85.5335 10.7914C86.5836 11.0326 87.2052 11.7961 87.2449 12.8746C87.2534 13.0847 87.2875 13.2919 87.3187 13.5672L87.3159 13.5643Z" fill="#006D68"/>
<path d="M84.7816 42.3386C84.7617 40.1645 84.81 37.9989 84.7986 35.8334C84.7958 35.3622 84.8951 35.2515 85.3691 35.2317C85.6643 35.2175 85.9595 35.2232 86.2518 35.2402C86.5328 35.2544 86.6662 35.3991 86.6662 35.7C86.6605 38.6489 86.6662 41.6006 86.6605 44.5496C86.6605 45.0661 86.3994 45.3102 85.8743 45.313C85.5678 45.313 85.2613 45.3045 84.9547 45.313C84.4609 45.3301 84.1061 45.1172 83.8592 44.7C83.2178 43.6186 82.6643 42.489 82.0768 41.3793C81.4325 40.1588 80.7457 38.9639 80.2206 37.6896C80.2206 38.1125 80.2206 38.5297 80.2206 38.9469C80.2206 40.9223 80.2178 42.8949 80.2234 44.8703C80.2234 45.1569 80.1014 45.279 79.8346 45.3216C79.46 45.384 79.091 45.384 78.7192 45.3216C78.4808 45.2818 78.3644 45.1768 78.3672 44.9185C78.3729 41.9242 78.3672 38.927 78.3729 35.9327C78.3729 35.5354 78.5886 35.2828 78.9917 35.2601C79.4883 35.2317 79.9907 35.243 80.4874 35.2657C80.9642 35.2884 81.2736 35.5779 81.4864 35.9838C82.5252 37.9706 83.6378 39.9176 84.5886 41.9497C84.6511 42.0803 84.7163 42.2109 84.7788 42.3414L84.7816 42.3386Z" fill="#7CC244"/>
<path d="M48.5473 40.5274C48.5501 39.5795 48.6324 38.8302 48.8765 38.1008C49.4839 36.2758 50.7923 35.3307 52.657 35.1036C53.4035 35.0128 54.1471 35.0553 54.8879 35.2171C56.3893 35.5435 57.3742 36.4489 57.7886 37.9106C58.2143 39.412 58.2228 40.9361 57.7488 42.4347C57.1812 44.237 55.8983 45.1963 54.0563 45.4404C53.3098 45.5397 52.5605 45.5142 51.8226 45.3581C50.0487 44.9806 48.9986 43.8482 48.6864 42.0005C48.5927 41.4527 48.5416 40.8992 48.5473 40.5274ZM55.9068 40.1925C55.9324 39.869 55.8869 39.4716 55.8273 39.0799C55.7081 38.2881 55.4612 37.5501 54.7176 37.1074C53.2446 36.2304 51.4054 36.9399 50.9371 38.5804C50.6192 39.693 50.6277 40.8283 50.8973 41.9465C51.1982 43.1954 51.9503 43.7602 53.2105 43.7772C54.4792 43.7942 55.3534 43.1698 55.6939 41.9834C55.8557 41.4243 55.9153 40.851 55.9068 40.1925Z" fill="#7CC244"/>
<path d="M64.8368 40.641C65.5521 41.0412 65.9068 41.6911 66.1992 42.3894C66.5 43.1103 66.8207 43.8227 67.1131 44.5464C67.3742 45.1964 67.2947 45.3042 66.5908 45.3581C66.2162 45.3865 65.8444 45.3837 65.4697 45.3354C65.2313 45.3042 65.0894 45.1907 65.0014 44.9579C64.7034 44.1859 64.3912 43.4225 64.079 42.6561C63.9541 42.3525 63.8122 42.0544 63.6164 41.7876C63.2616 41.2995 62.5095 41.0497 61.9362 41.2172C61.763 41.2683 61.834 41.3988 61.834 41.4953C61.8283 42.5852 61.8311 43.6751 61.8311 44.7649C61.8311 45.2247 61.8028 45.2474 61.3487 45.3269C60.9513 45.3979 60.5596 45.3752 60.1651 45.3156C59.9012 45.2758 59.7734 45.1595 59.7734 44.87C59.7791 41.8955 59.7734 38.9239 59.7791 35.9494C59.7791 35.4669 59.975 35.2427 60.412 35.2484C61.6268 35.2626 62.8416 35.1746 64.0506 35.3051C65.0327 35.4102 65.9154 35.7366 66.4206 36.6732C67.2096 38.1377 66.5965 39.8832 65.0781 40.536C65.0071 40.5672 64.9333 40.5984 64.8368 40.641ZM61.8311 38.237C61.8311 38.6457 61.8311 39.0516 61.8311 39.4603C61.8311 39.5568 61.8056 39.676 61.9702 39.6703C62.6117 39.6505 63.2645 39.7583 63.8747 39.4575C64.3628 39.2162 64.6609 38.677 64.6098 38.1122C64.553 37.4764 64.2522 37.0932 63.6675 36.9286C63.1112 36.7725 62.5407 36.8605 61.9787 36.8406C61.8198 36.835 61.8311 36.9428 61.8311 37.0478C61.8311 37.4452 61.8311 37.8397 61.8311 38.237Z" fill="#7CC244"/>
<path d="M72.4327 35.1973C74.0448 35.1973 73.7099 35.2058 74.1384 36.4035C75.0864 39.0572 75.9946 41.7223 76.9199 44.3846C77.2321 45.2786 77.164 45.3723 76.2075 45.3723C75.9237 45.3723 75.6427 45.3496 75.3589 45.3411C75.0977 45.3326 74.9473 45.202 74.8707 44.9522C74.7032 44.4016 74.5102 43.8567 74.3428 43.3032C74.2775 43.0904 74.1867 42.9995 73.9426 43.0052C72.8868 43.0222 71.831 43.0166 70.7751 43.0081C70.5651 43.0081 70.4573 43.0478 70.392 43.2748C70.2387 43.8198 70.0344 44.3505 69.8754 44.8926C69.7931 45.1679 69.6484 45.3127 69.356 45.3411C68.9927 45.3751 68.6323 45.3922 68.269 45.3524C67.8205 45.3013 67.7354 45.1708 67.8773 44.7479C68.1498 43.9333 68.4336 43.1216 68.7146 42.307C69.4468 40.1897 70.1819 38.0724 70.917 35.9551C71.164 35.2427 71.2236 35.2001 71.9899 35.2001C72.1375 35.2001 72.2851 35.2001 72.4327 35.2001V35.1973ZM70.9454 41.4186H73.7439C73.2813 40.0222 72.8243 38.6485 72.3418 37.1982C71.8622 38.6485 71.4052 40.0279 70.9454 41.4186Z" fill="#7CC244"/>
<path d="M11.7381 38.8186C12.2859 37.7457 12.8195 36.7353 13.3219 35.7079C13.478 35.3872 13.6766 35.2083 14.0428 35.2055C14.4515 35.2055 14.8573 35.1771 15.266 35.2282C15.5158 35.2594 15.5924 35.3928 15.5215 35.6312C15.3881 36.0825 15.127 36.4685 14.9056 36.8772C14.3635 37.8848 13.8186 38.8895 13.2566 39.8857C13.1516 40.0731 13.1714 40.2065 13.2679 40.3796C14.0002 41.7192 14.7296 43.0645 15.4534 44.4099C15.8848 45.2131 15.8053 45.338 14.8886 45.3692C14.0598 45.3957 13.4524 45.0456 13.0664 44.319C12.601 43.4392 12.1468 42.5508 11.6842 41.6681C11.6558 41.6114 11.6502 41.5347 11.5338 41.5007C11.1847 42.1733 10.8327 42.8517 10.4808 43.53C10.2481 43.9841 10.0068 44.4326 9.78828 44.8924C9.65204 45.179 9.45053 45.3238 9.13265 45.3408C8.76936 45.3635 8.4089 45.3834 8.04561 45.3465C7.48932 45.2897 7.41552 45.162 7.68232 44.6511C8.00304 44.0381 8.34078 43.4363 8.67002 42.829C9.11562 42.0144 9.54987 41.1942 10.0125 40.3881C10.126 40.1866 10.1033 40.0503 10.004 39.8659C9.31146 38.6057 8.62745 37.3398 7.94911 36.0712C7.54608 35.319 7.62839 35.1885 8.48837 35.1885C8.80625 35.1885 9.12413 35.214 9.43918 35.2112C9.75422 35.2083 9.92735 35.3673 10.0664 35.6369C10.6057 36.6842 11.162 37.7202 11.7381 38.8129V38.8186Z" fill="#7CC244"/>
<path d="M17.1133 40.4078C17.1133 38.9773 17.1133 37.5497 17.1133 36.1192C17.1133 35.4465 17.3148 35.2365 17.9818 35.245C19.0121 35.2621 20.0452 35.1854 21.0754 35.299C21.5721 35.3529 22.0575 35.4607 22.5088 35.6906C23.5958 36.2498 24.1152 37.3084 24.0158 38.6452C23.8683 40.5922 22.5911 41.5459 20.9222 41.7758C20.4255 41.8439 19.926 41.8467 19.4293 41.8354C19.2334 41.8297 19.1824 41.895 19.1824 42.0851C19.1909 42.9934 19.1767 43.8988 19.1909 44.807C19.1965 45.1334 19.0632 45.2781 18.7481 45.3236C18.3394 45.3803 17.9364 45.3775 17.5277 45.3236C17.2211 45.2838 17.1019 45.1419 17.1076 44.8325C17.1218 44.0946 17.1133 43.3595 17.1133 42.6216C17.1133 41.8836 17.1133 41.1485 17.1133 40.4106V40.4078ZM19.1852 38.543C19.1852 39.0312 19.1909 39.5166 19.1824 40.0047C19.1795 40.1807 19.2334 40.2488 19.4123 40.2403C19.6961 40.2261 19.9799 40.2403 20.2609 40.2204C21.5835 40.1239 22.3158 38.7474 21.6686 37.5809C21.4813 37.2431 21.206 37.0331 20.837 36.9338C20.3687 36.8089 19.8891 36.8855 19.4179 36.8571C19.2079 36.843 19.1795 36.9394 19.1824 37.1154C19.1909 37.5922 19.1852 38.0662 19.1852 38.543Z" fill="#7CC244"/>
<path d="M0.597656 40.2744C0.597656 38.8553 0.597656 37.4362 0.597656 36.02C0.597656 35.4324 0.784979 35.2451 1.36965 35.2451C2.91364 35.2451 4.45764 35.2451 5.99879 35.2451C6.38479 35.2451 6.47561 35.3303 6.51535 35.7106C6.62036 36.7607 6.52386 36.8686 5.49643 36.8686C4.64496 36.8686 3.79349 36.8771 2.94203 36.8629C2.69794 36.8572 2.63834 36.9339 2.64401 37.1694C2.66104 37.7711 2.66388 38.3728 2.64401 38.9745C2.6355 39.2442 2.73767 39.2924 2.97609 39.2896C3.79349 39.2754 4.6109 39.2811 5.42831 39.2867C5.83134 39.2867 5.925 39.3804 5.96757 39.7749C6.07259 40.7569 5.96189 40.879 4.9969 40.879C4.31573 40.879 3.63455 40.8875 2.95338 40.8733C2.72632 40.8676 2.63834 40.9216 2.64401 41.1685C2.66104 41.9178 2.6582 42.6671 2.64401 43.4164C2.63834 43.6491 2.72065 43.6973 2.93635 43.6973C3.96946 43.686 5.00258 43.703 6.03569 43.6888C6.36776 43.6831 6.52102 43.8194 6.54657 44.1344C6.54657 44.1685 6.55508 44.2025 6.56076 44.2366C6.65442 45.1817 6.54373 45.3066 5.61847 45.3066C4.18801 45.3066 2.75754 45.3066 1.32992 45.3066C0.782141 45.3066 0.600494 45.1221 0.600494 44.5687C0.600494 43.1382 0.600494 41.7077 0.600494 40.2801L0.597656 40.2744Z" fill="#7CC244"/>
<path d="M25.5859 40.2751C25.5859 38.8447 25.5859 37.4171 25.5859 35.9866C25.5859 35.4246 25.7591 35.2458 26.3068 35.243C27.8735 35.243 29.4374 35.2487 31.0041 35.2373C31.3078 35.2373 31.444 35.3593 31.4752 35.6403C31.4838 35.7312 31.498 35.8191 31.5036 35.91C31.5689 36.733 31.4469 36.8664 30.6436 36.8664C29.7354 36.8664 28.8272 36.8721 27.9218 36.8608C27.7033 36.8608 27.6323 36.9119 27.638 37.1389C27.655 37.752 27.6607 38.365 27.638 38.9752C27.6266 39.2534 27.7373 39.2846 27.97 39.2818C28.7761 39.2704 29.5822 39.2761 30.3854 39.2789C30.8026 39.2789 30.9019 39.3726 30.9473 39.7841C30.9473 39.7955 30.9473 39.8068 30.9502 39.8182C31.0296 40.7775 30.9417 40.874 29.9909 40.874C29.3097 40.874 28.6285 40.8825 27.9502 40.8683C27.726 40.8627 27.6323 40.9024 27.638 41.1578C27.655 41.8958 27.655 42.6337 27.638 43.3688C27.6323 43.6157 27.6862 43.698 27.9502 43.6924C28.9606 43.6753 29.9682 43.6839 30.9786 43.6867C31.4156 43.6867 31.5121 43.7832 31.5263 44.2259C31.5632 45.5486 31.4242 45.2903 30.4932 45.296C29.0968 45.3045 27.7033 45.2988 26.3068 45.296C25.7619 45.296 25.5916 45.1257 25.5916 44.5921C25.5916 43.1503 25.5916 41.7113 25.5916 40.2695L25.5859 40.2751Z" fill="#7CC244"/>
<path d="M34.8294 40.32C34.8521 40.7827 34.8777 41.2453 34.9855 41.7022C35.4482 43.6493 37.0376 43.9444 38.346 43.5811C38.766 43.4648 39.1378 43.2519 39.5011 43.0192C39.8502 42.795 40.0177 42.8886 40.0432 43.3058C40.0518 43.4421 40.0773 43.5783 40.0688 43.7117C40.0234 44.3673 40.1256 44.6086 39.311 44.9974C37.5853 45.8205 35.3119 45.5736 34.0035 44.3815C33.24 43.6862 32.8881 42.7723 32.7263 41.776C32.5163 40.4676 32.5645 39.1762 33.0328 37.9217C34.1312 34.9842 37.293 34.5925 39.2968 35.5376C39.9893 35.864 40.2845 36.8035 39.9553 37.513C39.873 37.6918 39.7396 37.7401 39.5664 37.6464C39.4586 37.5868 39.3592 37.5074 39.2542 37.4392C38.7831 37.1355 38.2892 36.8971 37.7159 36.8489C36.4699 36.7439 35.5844 37.286 35.136 38.4525C35.0508 38.6739 34.9884 38.9038 34.9344 39.1365C34.8465 39.5253 34.8408 39.9227 34.8266 40.32H34.8294Z" fill="#7CC244"/>
<path d="M90.6462 41.0237C90.6462 39.7636 90.6377 38.5034 90.6518 37.2461C90.6547 36.9849 90.5809 36.9253 90.3311 36.9339C89.6613 36.9509 88.9915 36.9282 88.3217 36.9452C87.9981 36.9537 87.8732 36.8061 87.8448 36.5081C87.8165 36.213 87.8165 35.9206 87.8505 35.6283C87.8817 35.3785 88.0009 35.2451 88.2734 35.2451C90.544 35.2508 92.8146 35.248 95.0823 35.2451C95.3264 35.2451 95.4626 35.3359 95.4967 35.5885C95.5449 35.9291 95.5478 36.264 95.4967 36.6046C95.457 36.8572 95.3264 36.9481 95.0795 36.9452C94.3983 36.9367 93.7171 36.9566 93.0359 36.9367C92.7777 36.9282 92.7181 37.0048 92.7181 37.2574C92.7266 39.7437 92.7237 42.2271 92.7237 44.7134C92.7237 45.2271 92.6925 45.2527 92.1816 45.3378C91.8184 45.3974 91.4607 45.3776 91.0974 45.3322C90.7739 45.2924 90.6263 45.1647 90.632 44.8071C90.6518 43.5469 90.6405 42.2867 90.6405 41.0294L90.6462 41.0237Z" fill="#7CC244"/>
<path d="M45.4758 41.0585C45.4758 42.296 45.4758 43.5306 45.4758 44.7681C45.4758 45.2137 45.4333 45.2562 44.982 45.3272C44.6187 45.3839 44.2611 45.3868 43.8978 45.3272C43.4352 45.2534 43.3841 45.2023 43.3841 44.7425C43.3841 42.2704 43.3756 39.7955 43.3926 37.3234C43.3926 36.98 43.2961 36.9147 42.9782 36.926C42.3453 36.9516 41.7067 36.9204 41.0738 36.9402C40.7701 36.9488 40.631 36.8182 40.6026 36.5372C40.5714 36.2193 40.5657 35.9043 40.6111 35.5864C40.6452 35.348 40.7701 35.2373 41.0255 35.2373C43.2961 35.243 45.5638 35.243 47.8344 35.2373C48.1069 35.2373 48.2261 35.3707 48.2715 35.6119C48.2772 35.646 48.28 35.6801 48.2828 35.7141C48.3879 36.8551 48.3141 36.9346 47.1901 36.9346C46.7247 36.9346 46.2592 36.9488 45.7937 36.9289C45.5411 36.9175 45.4702 36.9828 45.473 37.2439C45.4872 38.5155 45.4787 39.7841 45.4787 41.0557L45.4758 41.0585Z" fill="#7CC244"/>
<path d="M120.532 6.3043C118.906 6.32133 117.577 5.01291 117.58 3.39229C117.58 1.83126 118.869 0.517169 120.415 0.497301C122.056 0.477433 123.393 1.74328 123.41 3.32701C123.427 4.98737 122.175 6.2816 120.535 6.30146L120.532 6.3043ZM120.461 5.90127C121.82 5.92682 122.978 4.83694 122.998 3.51149C123.024 2.07819 121.954 0.925872 120.572 0.900328C119.167 0.874784 118.023 1.95898 118.003 3.32985C117.983 4.76315 119.045 5.87573 120.458 5.90127H120.461Z" fill="#006D68"/>
<path d="M122.062 4.99831C121.693 5.11184 121.469 5.02953 121.307 4.70881C121.165 4.42782 120.975 4.16955 120.788 3.91411C120.586 3.64164 120.087 3.51108 119.775 3.61042C119.647 3.65299 119.678 3.74665 119.678 3.8318C119.675 4.16103 119.667 4.49027 119.678 4.81666C119.687 4.99831 119.596 5.0125 119.451 5.01534C119.298 5.01817 119.23 4.97844 119.233 4.80815C119.244 3.86869 119.25 2.92924 119.25 1.98695C119.25 1.84504 119.284 1.78828 119.44 1.79112C119.928 1.80247 120.413 1.78544 120.901 1.80247C121.438 1.8195 121.736 2.06926 121.81 2.54041C121.883 2.99168 121.659 3.32376 121.16 3.51108C121.12 3.52527 121.08 3.55081 121.029 3.57636C121.506 3.96519 121.719 4.51581 122.062 4.99831ZM120.28 3.21023C120.493 3.20455 120.708 3.21874 120.921 3.17333C121.211 3.11089 121.367 2.92924 121.353 2.6511C121.338 2.38714 121.16 2.21685 120.89 2.19414C120.564 2.1686 120.237 2.1686 119.911 2.14873C119.769 2.14022 119.698 2.18847 119.706 2.33889C119.712 2.44107 119.706 2.54325 119.706 2.64258C119.706 3.01912 119.898 3.20739 120.28 3.20739V3.21023Z" fill="#006D68"/>
</g>
<defs>
<clipPath id="clip0_1744_10138">
<rect width="122.816" height="45" fill="white" transform="translate(0.591797 0.5)"/>
</clipPath>
</defs>
</svg>
