<svg width="130" height="22" viewBox="0 0 130 22" fill="none" xmlns="http://www.w3.org/2000/svg">
<g clip-path="url(#clip0_1744_10094)">
<path d="M11.1259 20.8713C11.1259 20.8713 12.1524 20.7113 12.5334 18.9054C12.83 17.4863 12.2309 17.2216 11.9576 17.1606H7.29011C5.07125 17.1606 5.38241 15.7182 5.62378 14.5753C5.87097 13.4324 8.22651 2.38751 8.22651 2.38751C8.22651 2.38751 8.38937 1.51799 6.29555 1.44238H5.81571C3.67537 1.51799 3.48925 2.47475 3.48925 2.47475C3.48343 2.47766 0.319439 17.2071 0.142046 18.0068C-0.145855 19.3794 -0.27381 20.88 2.61392 20.88H11.1201L11.1259 20.8684V20.8713Z" fill="#00853F"/>
<path d="M40.7364 13.4561L46.3984 7.23571C46.5235 7.09612 47.2214 6.23242 45.9244 6.23242H43.4089C42.1613 6.23242 41.3558 7.09612 41.3558 7.09612H41.3529L38.5553 10.1729L36.9966 7.09612C36.9966 7.09612 36.5429 6.23242 35.3012 6.23242H32.7799C31.3753 6.23242 31.9016 7.25025 31.9103 7.26479L35.1005 13.5782L37.078 17.4693L40.7364 13.459V13.4561Z" fill="#A4D265"/>
<path d="M35.2225 13.8164L29.7844 19.7605C29.7844 19.7605 28.7346 20.8685 30.0548 20.8685H32.6198C33.9924 20.8685 34.8386 19.9147 34.8503 19.8972L37.0749 17.466L35.2196 13.8164H35.2225Z" fill="#00853F"/>
<path d="M87.8563 1.72166C87.9668 1.12841 87.0421 1.06443 86.8472 1.06152H84.8959C83.913 1.06443 83.6629 1.53263 83.6105 1.68385L83.3808 2.90234C83.2063 3.83583 84.3695 3.84165 85.3699 3.84165C86.3703 3.84165 87.455 3.89981 87.6731 2.73076L87.8709 1.72166H87.8592H87.8563Z" fill="#00853F"/>
<path d="M116.919 21.282C115.738 21.282 114.688 21.1279 113.758 20.8254C112.83 20.5172 112.062 20.0432 111.455 19.4034C110.856 18.7665 110.443 17.9668 110.213 16.9984C109.986 16.03 109.989 14.8929 110.222 13.5785C110.469 12.1681 110.896 10.9729 111.501 9.97829C112.106 8.99245 112.833 8.18109 113.679 7.54131C114.497 6.92771 115.41 6.47405 116.416 6.18324C117.428 5.88952 118.451 5.74121 119.49 5.74121C120.278 5.74121 121.043 5.83427 121.799 6.0233C122.22 6.13089 122.721 6.32283 123.116 6.5293C123.698 6.82593 123.939 7.33775 123.843 7.89028C123.747 8.44282 123.337 10.8333 123.337 10.8333H122.767C122.622 10.6675 122.436 10.4756 122.212 10.2633C121.988 10.0597 121.738 9.87069 121.467 9.69039C121.179 9.51299 120.842 9.35887 120.458 9.23382C120.077 9.10586 119.638 9.04188 119.141 9.04188C118.009 9.04188 117.061 9.45192 116.297 10.272C115.535 11.0892 115.032 12.1913 114.787 13.5756C114.528 15.0587 114.668 16.1551 115.206 16.8879C115.744 17.6149 116.561 17.9813 117.66 17.9813C118.219 17.9813 118.725 17.9174 119.17 17.7865C119.615 17.6527 120.004 17.4986 120.345 17.3154C120.665 17.1293 120.955 16.9461 121.2 16.7483C121.447 16.5506 121.659 16.379 121.842 16.219H122.412C122.412 16.219 122.04 18.3768 121.927 19.0282C121.813 19.6797 121.735 20.0344 120.784 20.5346C120.432 20.7178 120.057 20.808 119.693 20.8981C119.24 21.0261 118.821 21.1192 118.431 21.1831C118.039 21.25 117.538 21.282 116.919 21.282Z" fill="#00853F"/>
<path d="M44.106 17.9023C43.7076 17.4428 42.3611 17.6522 41.4596 15.887C40.561 14.1247 40.4069 13.8193 40.4069 13.8193L37.0742 17.469L37.2167 17.7452L38.3131 19.8972C38.3131 19.8972 39.2291 21.3949 40.5959 21.3949C41.1252 21.3949 41.7155 21.264 42.3582 20.9965C42.7479 20.8307 43.5069 20.4643 44.0158 19.5221C44.0914 19.3738 44.1583 19.2138 44.2136 19.0597C44.58 18.0942 44.1205 17.9023 44.106 17.9023Z" fill="#00853F"/>
<path d="M77.7266 17.8995C77.6743 17.8995 76.9269 17.8384 77.1276 16.7712C77.3311 15.6981 80.0647 1.22166 80.0647 1.22166H80.0531C80.1607 0.631317 79.2388 0.570248 79.0411 0.561523H77.0898C76.1097 0.570248 75.8596 1.03263 75.8073 1.18967L74.7197 6.89824H74.7139L74.33 8.9368H74.3329L72.8789 16.617C72.2245 17.1172 71.5528 17.5098 70.8636 17.8065C70.1685 18.1002 69.5084 18.2456 68.8861 18.2456C67.7141 18.2456 66.9406 17.7977 66.5799 16.8875C66.2193 15.9802 66.0681 15.384 66.3938 13.6712C66.7399 11.8943 67.1558 11.0481 68.0311 10.1059C68.9006 9.16363 69.9446 9.21889 71.1689 9.21889C71.5935 9.21889 73.1871 9.71326 73.571 7.70377C73.8065 6.45911 71.7592 5.90949 69.4299 5.90949C68.6243 5.90949 67.8217 6.08979 67.022 6.45039C66.2252 6.8139 65.5069 7.31118 64.87 7.94515C64.1721 8.64018 63.5701 9.45444 63.0641 10.3879C62.5639 11.3243 62.1917 12.4207 61.9445 13.7061C61.7031 14.9333 61.6246 16.0151 61.6944 16.9631C61.7642 17.9053 61.9765 18.6963 62.3109 19.339C62.6453 19.973 63.1106 20.4586 63.7097 20.7872C64.2971 21.1188 66.9435 21.9272 70.1743 20.7552C70.5757 20.6157 70.9246 20.3917 71.2416 20.1853C71.5499 19.9788 72.3758 19.4263 72.3758 19.4263C72.3758 19.4263 72.3932 21.4067 74.6266 21.363C76.3686 21.331 77.4504 20.2754 77.9913 19.0598C78.5293 17.8501 77.9796 17.8995 77.7266 17.8995Z" fill="#00853F"/>
<path d="M28.4099 17.8992C27.9679 17.8992 27.7876 17.7014 27.8661 17.2972L29.1806 10.8907C29.5353 9.16038 29.2416 7.87791 28.2994 7.03457C27.3601 6.19413 25.6676 5.77246 23.2364 5.77246C22.2448 5.77246 21.2415 5.86261 20.2266 6.04291C19.8078 6.11852 19.4472 6.18541 19.1215 6.25229C18.2665 6.52565 17.8827 7.34573 17.7314 7.85756L17.5686 8.61947C17.3999 9.85541 17.9321 9.90775 18.3363 9.79143C18.4119 9.76235 18.4875 9.72745 18.569 9.70128C18.662 9.65766 18.7144 9.62567 18.7144 9.62567V9.64603C19.0895 9.52098 19.4618 9.40466 19.8398 9.30578C20.5814 9.11094 21.2008 9.01206 21.7242 9.01206C22.8729 9.01206 23.6988 9.16619 24.2136 9.47445C24.7079 9.77398 24.8737 10.3149 24.7312 11.0943C24.7254 11.1146 24.7312 11.1321 24.7254 11.1524L24.7108 11.2309H24.705L24.106 13.9849H24.1118L23.4807 17.0529C23.0823 17.3815 22.6636 17.6433 22.2273 17.8265C21.7853 18.0097 21.3753 18.1056 20.9885 18.1056C20.2964 18.1056 19.7933 17.9748 19.4937 17.713C19.1971 17.4542 19.1157 16.9831 19.2553 16.291C19.3542 15.8199 19.5403 15.4447 19.8107 15.1598C20.0841 14.8777 20.4272 14.6625 20.8402 14.5258C21.2735 14.3775 21.7039 14.2757 22.1285 14.2088C22.1285 14.2088 22.9515 14.107 23.3353 12.9089C23.7134 10.8558 19.5839 11.8911 19.4181 11.9376C18.9208 12.0714 18.4585 12.24 18.0252 12.4349C17.1556 12.8275 16.4344 13.3626 15.8703 14.0343C15.3148 14.7032 14.9193 15.5843 14.6896 16.6749C14.4133 18.0009 14.5936 19.1002 15.2392 19.9726C15.8848 20.8451 16.8387 21.2813 18.092 21.2813C18.7638 21.2813 19.3018 21.226 19.6973 21.1213C20.0928 21.0137 20.5116 20.8538 20.9478 20.6589C21.3956 20.4496 21.7591 20.2402 22.0441 20.0337C22.3291 19.8243 22.6461 19.5859 23.0038 19.327C23.0038 19.327 22.6665 20.3129 23.597 21.0254C24.5393 21.7378 26.1096 21.4005 26.7756 20.9963C27.1478 20.7694 27.9301 20.4641 28.4448 19.5219C28.5175 19.3707 28.5873 19.2136 28.6426 19.0595C29.1195 17.8323 28.6542 17.8992 28.4012 17.8992" fill="#00853F"/>
<path d="M59.9937 17.8992C59.5458 17.8992 59.3655 17.7014 59.4412 17.2972L60.68 10.8907C61.0173 9.16038 60.7091 7.87791 59.7581 7.03457C58.8101 6.19413 57.1176 5.77246 54.6806 5.77246C53.6919 5.77246 52.6886 5.86261 51.6766 6.04291C51.2549 6.11852 50.8972 6.18541 50.5715 6.25229C49.7223 6.52565 49.3472 7.34573 49.1989 7.85756L49.0477 8.61947C48.8906 9.85541 49.4315 9.90775 49.8241 9.79143C49.8997 9.76235 49.9812 9.72745 50.0597 9.70128C50.1498 9.65766 50.208 9.62567 50.208 9.62567L50.2022 9.64603C50.5773 9.52098 50.9496 9.40466 51.3276 9.30578C52.0663 9.11094 52.6886 9.01206 53.2091 9.01206C54.3578 9.01206 55.1837 9.16619 55.6985 9.47445C56.1986 9.77398 56.3731 10.3149 56.2394 11.0943C56.2306 11.1146 56.2394 11.1321 56.2306 11.1524L56.2219 11.2309H56.2074L55.6432 13.9849H55.6519L55.05 17.0529C54.6632 17.3815 54.2444 17.6433 53.8082 17.8265C53.372 18.0097 52.959 18.1056 52.5723 18.1056C51.8772 18.1056 51.377 17.9748 51.0717 17.713C50.7663 17.4542 50.682 16.9831 50.8187 16.291C50.9118 15.8199 51.095 15.4447 51.3625 15.1568C51.633 14.8748 51.9732 14.6596 52.3891 14.5229C52.8165 14.3746 53.2469 14.2728 53.6715 14.2059C53.6715 14.2059 54.4887 14.1041 54.8667 12.906C55.2244 10.8529 51.1008 11.8882 50.9379 11.9347C50.4436 12.0685 49.9753 12.2371 49.5479 12.432C48.6813 12.8275 47.9717 13.3596 47.4162 14.0314C46.8666 14.7003 46.474 15.5843 46.2646 16.672C46 17.998 46.1948 19.0973 46.8521 19.9697C47.5093 20.8421 48.4573 21.2784 49.7165 21.2784C50.3912 21.2784 50.9263 21.2231 51.3218 21.1184C51.7144 21.0108 52.1361 20.8509 52.5664 20.656C53.0172 20.4466 53.3836 20.2373 53.657 20.0308C53.9391 19.8214 54.256 19.5829 54.6079 19.3241C54.6079 19.3241 54.2764 20.31 55.2273 21.0224C56.1754 21.7349 57.7399 21.3976 58.403 20.9934C58.7723 20.7665 59.5488 20.4612 60.0577 19.519C60.1275 19.3707 60.1914 19.2107 60.2525 19.0566C60.712 17.8294 60.2467 17.8963 59.9966 17.8963" fill="#00853F"/>
<path d="M107.535 17.8992C107.087 17.8992 106.907 17.7014 106.971 17.2972H106.968L108.108 10.8907C108.416 9.16038 108.082 7.87791 107.116 7.03457C106.157 6.19413 104.455 5.77246 102.018 5.77246C101.03 5.77246 100.026 5.86261 99.0232 6.04291C98.6015 6.11852 98.2438 6.18541 97.9181 6.25229C97.0689 6.52565 96.7112 7.34573 96.5745 7.85756L96.4379 8.61947C96.2983 9.85541 96.8392 9.90775 97.2376 9.79143C97.3103 9.76235 97.3917 9.72745 97.4673 9.70128C97.5575 9.65766 97.6098 9.62567 97.6098 9.62567V9.64603C97.9821 9.52098 98.3572 9.40466 98.7265 9.30578C99.4594 9.11094 100.085 9.01206 100.605 9.01206C101.751 9.01206 102.588 9.16619 103.103 9.47445C103.603 9.77398 103.792 10.3149 103.673 11.0943C103.67 11.1146 103.673 11.1321 103.67 11.1524L103.653 11.2309H103.644L103.124 13.9849C103.124 13.9849 103.129 13.9849 103.135 13.9849L102.586 17.0558C102.202 17.3844 101.789 17.6462 101.355 17.8294C100.919 18.0126 100.509 18.1085 100.125 18.1085C99.4303 18.1085 98.9272 17.9777 98.616 17.716C98.3049 17.4571 98.2176 16.986 98.3368 16.2939C98.427 15.8228 98.5957 15.4477 98.8632 15.1598C99.1308 14.8777 99.4652 14.6625 99.8752 14.5258C100.306 14.3775 100.73 14.2757 101.158 14.2088C101.158 14.2088 101.972 14.107 102.327 12.9089C102.652 10.8558 98.5433 11.8911 98.3805 11.9376C97.889 12.0714 97.4295 12.24 96.9991 12.4349C96.1412 12.8304 95.4346 13.3626 94.8966 14.0343C94.3557 14.7032 93.9834 15.5872 93.7857 16.6749C93.5385 18.0009 93.7595 19.1002 94.4313 19.9726C95.0972 20.8451 96.0627 21.2813 97.319 21.2813C97.9937 21.2813 98.523 21.226 98.9214 21.1213C99.314 21.0137 99.7269 20.8538 100.166 20.6589C100.605 20.4496 100.966 20.2402 101.239 20.0337C101.515 19.8243 101.829 19.5859 102.181 19.327C102.181 19.327 101.867 20.3129 102.827 21.0254C103.787 21.7378 105.345 21.4005 106.003 20.9963C106.363 20.7694 107.14 20.4641 107.631 19.5219C107.698 19.3736 107.765 19.2136 107.814 19.0595C108.256 17.8323 107.794 17.8992 107.544 17.8992" fill="#00853F"/>
<path d="M85.7919 17.283C85.7454 17.283 84.9747 17.2248 85.1783 16.1198C85.3848 15.0205 86.8941 6.89824 86.8941 6.89824H86.8824C86.9958 6.28755 86.0449 6.22357 85.8384 6.21484H83.8231C82.8111 6.22357 82.5552 6.69759 82.4941 6.86044L80.2578 18.8795C80.2724 18.865 80.2898 18.8592 80.2898 18.8592C80.2898 18.8592 80.3131 20.8978 82.6163 20.8541C84.4164 20.825 85.5185 19.7258 86.074 18.484C86.6265 17.2365 86.0507 17.283 85.7948 17.283" fill="#00853F"/>
<path d="M92.5956 17.2832C92.5403 17.2832 91.7726 17.225 91.9732 16.1199C92.1768 15.0207 94.6283 1.66387 94.6283 1.66387H94.6138C94.7272 1.05317 93.7763 0.989193 93.5698 0.980469H91.5603C90.5512 0.986285 90.2924 1.46903 90.2371 1.62606L87.0586 18.8768C87.079 18.8623 87.0935 18.8565 87.0935 18.8565C87.0935 18.8565 87.1197 20.895 89.4229 20.8514C91.2201 20.8223 92.3251 19.7231 92.8748 18.4813C93.4273 17.2337 92.8544 17.2803 92.5956 17.2803" fill="#00853F"/>
<path d="M126.943 4.34529C127.109 4.3104 127.348 4.29004 127.569 4.29004C127.915 4.29004 128.147 4.35692 128.301 4.49651C128.426 4.60702 128.502 4.77569 128.502 4.97635C128.502 5.30496 128.287 5.52307 128.025 5.61903V5.62776C128.214 5.69464 128.333 5.87494 128.395 6.13376C128.476 6.49146 128.537 6.73283 128.584 6.82879H128.249C128.208 6.759 128.153 6.54089 128.086 6.22391C128.011 5.87494 127.871 5.74699 127.574 5.73536H127.272V6.82879H126.943V4.34529ZM127.272 5.48526H127.606C127.952 5.48526 128.173 5.29624 128.173 5.00834C128.173 4.67972 127.938 4.54013 127.595 4.54013C127.438 4.54013 127.33 4.55467 127.275 4.56921V5.48526H127.272Z" fill="#00853F"/>
<path d="M129.672 5.5576C129.672 6.06652 129.478 6.54635 129.117 6.91277C128.756 7.26756 128.274 7.47112 127.765 7.47112C127.256 7.47112 126.776 7.27047 126.412 6.91277C126.055 6.54635 125.857 6.06943 125.857 5.5576C125.857 4.50488 126.709 3.6499 127.765 3.6499C128.82 3.6499 129.672 4.50488 129.672 5.5576ZM127.765 3.32129C126.532 3.32129 125.531 4.32167 125.531 5.5576C125.531 6.15667 125.764 6.71793 126.183 7.13379C126.604 7.56127 127.171 7.7881 127.765 7.7881C128.358 7.7881 128.925 7.55837 129.344 7.13379C129.768 6.71793 130.001 6.15376 130.001 5.5576C130.001 4.32167 129.003 3.32129 127.765 3.32129Z" fill="#00853F"/>
</g>
<defs>
<clipPath id="clip0_1744_10094">
<rect width="130" height="20.8771" fill="white" transform="translate(0 0.561523)"/>
</clipPath>
</defs>
</svg>
