<svg width="81" height="130" viewBox="0 0 81 130" fill="none" xmlns="http://www.w3.org/2000/svg">
<g clip-path="url(#clip0_1370_14396)">
<path d="M17.4816 101.128C16.6844 101.551 14.5794 102.037 11.945 102.037C3.66197 102.037 0 96.874 0 90.9949C0 83.1914 5.74207 79.218 12.3436 79.218C14.8721 79.218 16.946 79.7162 17.8739 80.1709L16.7093 84.8729C15.7689 84.4743 14.3739 84.082 12.6176 84.082C9.20475 84.082 6.24653 86.0687 6.24653 90.5901C6.24653 94.607 8.65047 97.1044 12.7297 97.1044C14.1434 97.1044 15.7689 96.8553 16.6782 96.4816L17.4753 101.128H17.4816Z" fill="#0076C0"/>
<path d="M20.2778 79.8658C21.8659 79.6104 24.2201 79.3738 27.5893 79.3738C30.778 79.3738 33.0698 79.953 34.6081 81.1549C36.1277 82.2635 37.1491 84.2128 37.1491 86.486C37.1491 88.7591 36.4017 90.6586 34.9693 91.9416C33.2131 93.5234 30.6036 94.2396 27.608 94.2396C27.0288 94.2396 26.5244 94.1898 26.1631 94.1898V101.701H20.2778V79.8658ZM26.1631 89.631C26.4932 89.6809 26.8793 89.712 27.5084 89.712C29.8002 89.712 31.2513 88.5038 31.2513 86.623C31.2513 84.9788 30.1676 83.8578 27.9132 83.8578C27.06 83.8578 26.4559 83.9139 26.1694 83.9886V89.631H26.1631Z" fill="#0076C0"/>
<path d="M49.393 102.068C42.5299 102.068 38.7434 96.8989 38.7434 90.7582C38.7434 84.3 42.9472 79.1682 49.7605 79.1682C56.5737 79.1682 60.5159 84.4681 60.5159 90.3908C60.5159 97.5279 56.2499 102.062 49.4428 102.062H49.393V102.068ZM49.7106 97.3535C52.563 97.3535 54.2321 94.6008 54.2321 90.5838C54.2321 86.5669 52.5319 83.8702 49.6297 83.8702C46.7275 83.8702 45.0273 86.7724 45.0273 90.6212C44.9962 94.5946 46.7649 97.3473 49.6297 97.3473H49.7106V97.3535Z" fill="#0076C0"/>
<path d="M63.4305 79.8658C64.7882 79.6104 67.6966 79.3738 70.4369 79.3738C73.5944 79.3738 75.5126 79.6104 77.2252 80.4512C78.9503 81.2795 80.2146 82.8676 80.2146 85.0349C80.2146 86.8721 79.1932 88.6844 76.59 89.6809V89.7245C79.2866 90.4905 80.9432 92.4958 80.9432 95.1364C80.9432 97.2415 79.897 98.8669 78.4272 99.9942C76.7893 101.246 74.0179 101.956 69.2723 101.956C66.5632 101.956 64.5952 101.8 63.4243 101.576V79.8658H63.4305ZM69.3283 88.0492H70.4991C73.0339 88.0492 74.2359 87.1773 74.2359 85.7511C74.2359 84.4682 73.2581 83.6461 71.2652 83.6461C70.2749 83.6461 69.7144 83.7146 69.3283 83.7831V88.0492ZM69.3283 97.5591C69.7518 97.6151 70.2749 97.6151 71.0285 97.6151C73.009 97.6151 74.678 96.8429 74.678 94.8687C74.678 92.8944 72.9654 92.2716 70.7358 92.2716H69.3221V97.5591H69.3283Z" fill="#0076C0"/>
<path d="M18.2102 129.041C17.3508 129.489 15.1523 130 12.4308 130C3.80521 130 0 124.638 0 118.522C0 110.401 5.95382 106.26 12.8169 106.26C15.4637 106.26 17.631 106.776 18.5777 107.25L17.3881 112.145C16.3855 111.74 14.953 111.329 13.0972 111.329C9.57219 111.329 6.49564 113.403 6.49564 118.092C6.49564 122.271 8.993 124.881 13.2404 124.881C14.7039 124.881 16.3855 124.613 17.3445 124.214L18.204 129.047L18.2102 129.041Z" fill="#FAA634"/>
<path d="M21.0938 106.944C22.7628 106.677 25.1979 106.427 28.6793 106.427C32.1606 106.427 34.3902 107.044 36.0094 108.29C37.5851 109.454 38.6438 111.472 38.6438 113.82C38.6438 116.168 37.8591 118.173 36.3893 119.506C34.5459 121.15 31.8368 121.897 28.7229 121.897C28.0938 121.897 27.5956 121.835 27.2157 121.835V129.664H21.1V106.944H21.0938ZM27.2095 117.108C27.5582 117.158 27.9631 117.189 28.6232 117.189C31.0085 117.189 32.5156 115.944 32.5156 113.963C32.5156 112.251 31.3821 111.067 29.0342 111.067C28.1561 111.067 27.5209 111.161 27.2157 111.21V117.102L27.2095 117.108Z" fill="#FAA634"/>
<path d="M40.9044 106.614H47.0451V116.392H47.0949C47.5869 115.533 48.1038 114.673 48.5709 113.863L53.0176 106.62H60.628L53.2916 116.429L60.8896 129.664H53.7338L48.8823 120.328L47.0388 122.701V129.664H40.8982V106.62L40.9044 106.614Z" fill="#FAA634"/>
<path d="M62.7206 106.938C64.1218 106.671 67.1859 106.421 70.0134 106.421C73.2892 106.421 75.2821 106.67 77.0508 107.555C78.8756 108.408 80.1648 110.065 80.1648 112.307C80.1648 114.225 79.1185 116.118 76.4218 117.152V117.208C79.2181 117.993 80.937 120.073 80.937 122.826C80.937 125.011 79.8534 126.724 78.3151 127.883C76.6211 129.178 73.7439 129.931 68.8052 129.931C66.0151 129.931 63.935 129.757 62.7144 129.52V106.938H62.7206ZM68.8426 115.464H70.0881C72.71 115.464 73.9868 114.53 73.9868 113.073C73.9868 111.74 72.9592 110.881 70.8604 110.881C69.839 110.881 69.2598 110.955 68.8426 111.018V115.47V115.464ZM68.8426 125.348C69.2785 125.435 69.839 125.435 70.6299 125.435C72.6851 125.435 74.4289 124.607 74.4289 122.558C74.4289 120.509 72.6478 119.842 70.331 119.842H68.8426V125.348Z" fill="#FAA634"/>
<path d="M14.4673 34.6391C14.4673 34.6391 19.4184 41.222 25.8954 41.222C32.3723 41.222 40.7239 35.7975 47.8361 12.0943L53.8584 7.45459C53.8584 7.45459 54.612 49.5174 32.9079 60.5034C32.9079 60.5034 18.4656 48.4712 14.4673 34.6391Z" fill="#0076C0"/>
<path d="M55.3779 6.19041L59.6378 3.21973C59.6378 3.21973 59.0648 37.5601 39.8831 55.49C39.8831 55.49 55.8014 40.2692 55.3779 6.19041Z" fill="#0076C0"/>
<path d="M61.4688 2.0365L63.4741 0C63.4741 0 60.5034 41.5459 39.8831 55.4901C39.8831 55.4901 58.6849 42.6545 61.4688 2.0365Z" fill="#0076C0"/>
<path d="M0 65.1246C0.610328 65 1.9244 64.9004 3.12638 64.9004C4.53387 64.9004 5.38708 65 6.14688 65.3862C6.93159 65.7411 7.49209 66.4574 7.49209 67.4102C7.49209 68.2447 7.04369 69.0419 5.85417 69.4779V69.5214C7.07483 69.8453 7.81594 70.7359 7.81594 71.9254C7.81594 72.8658 7.34885 73.5945 6.70116 74.0927C5.96004 74.6407 4.73939 74.9708 2.60947 74.9708C1.42618 74.9708 0.535594 74.8899 0.00622784 74.784V65.1184L0 65.1246ZM2.62815 68.7617H3.15752C4.28476 68.7617 4.82035 68.3755 4.82035 67.7465C4.82035 67.1673 4.37817 66.8061 3.48136 66.8061C3.03919 66.8061 2.7963 66.8186 2.62192 66.8622V68.7554L2.62815 68.7617ZM2.62815 72.9966C2.82121 73.034 3.03919 73.034 3.39417 73.034C4.2723 73.034 5.01341 72.679 5.01341 71.7946C5.01341 70.9725 4.26607 70.6425 3.25716 70.6425H2.63438V72.9966H2.62815Z" fill="#0076C0"/>
<path d="M11.3969 72.5667L10.8427 74.8523H8.11487L10.9859 64.9688H14.5046L17.4504 74.8523H14.5794L13.9441 72.5667H11.3969ZM13.5954 70.6112L13.1345 68.8425C12.985 68.282 12.8044 67.4599 12.6487 66.8869H12.6238C12.4681 67.4599 12.3311 68.2757 12.163 68.8425L11.7644 70.6112H13.5891H13.5954Z" fill="#0076C0"/>
<path d="M18.316 65.1246C19.1755 64.9689 20.3089 64.9004 21.4736 64.9004C23.373 64.9004 24.575 65.2118 25.5279 65.8906C26.624 66.6193 27.3215 67.8586 27.3215 69.6896C27.3215 71.695 26.5617 73.0028 25.6213 73.7439C24.5252 74.5971 22.8997 74.9708 20.9816 74.9708C19.6986 74.9708 18.8392 74.8836 18.3223 74.784V65.1184L18.316 65.1246ZM20.9816 72.8907C21.1061 72.9156 21.3615 72.9156 21.5358 72.9156C23.2672 72.953 24.5252 71.9877 24.5252 69.7643C24.5252 67.8399 23.373 66.912 21.7849 66.912C21.3801 66.912 21.1123 66.9431 20.9878 66.9867V72.8907H20.9816Z" fill="#0076C0"/>
<path d="M30.6908 72.5667L30.1427 74.8523H27.3962L30.2673 64.9688H33.7922L36.7318 74.8523H33.8857L33.2504 72.5667H30.6908ZM32.8767 70.6112L32.4283 68.8425C32.2851 68.282 32.092 67.4599 31.9488 66.8869H31.9301C31.7806 67.4599 31.6249 68.2757 31.4942 68.8425L31.0582 70.6112H32.883H32.8767Z" fill="#0076C0"/>
<path d="M37.61 74.8523V64.9688H40.755L42.3245 68.0079C42.8538 68.9857 43.433 70.2936 43.869 71.4644H43.9126C43.7569 70.1628 43.7008 68.7864 43.7008 67.3166V64.9688H46.1172V74.8523H43.3209L41.6519 71.564C41.1163 70.5178 40.4686 69.1975 39.9828 68.0017H39.933C40.0264 69.3407 40.0264 70.8229 40.0264 72.411V74.8461H37.61V74.8523Z" fill="#0076C0"/>
<path d="M50.869 65.1246C51.5603 65 52.6128 64.9004 54.1137 64.9004C55.5337 64.9004 56.5613 65.1682 57.2463 65.6851C57.9376 66.1771 58.386 67.0552 58.386 68.0704C58.386 69.0855 58.0373 69.9387 57.402 70.493C56.6049 71.203 55.4652 71.5268 54.1324 71.5268C53.8584 71.5268 53.6529 71.4957 53.4785 71.4957V74.8525H50.8628V65.1246H50.869ZM53.4847 69.4716C53.6342 69.4779 53.8148 69.5028 54.0888 69.5028C55.1226 69.5028 55.7641 68.9672 55.7641 68.1202C55.7641 67.3915 55.2846 66.8933 54.2507 66.8933C53.8771 66.8933 53.6217 66.912 53.4847 66.9431V69.4716Z" fill="#0076C0"/>
<path d="M63.7793 75.0019C60.709 75.0019 59.0461 72.71 59.0461 69.976C59.0461 67.0987 60.8834 64.8069 63.9412 64.8069C66.9991 64.8069 68.7242 67.1672 68.7242 69.8078C68.7242 72.9903 66.8247 75.0019 63.798 75.0019H63.7731H63.7793ZM63.9163 72.9155C65.1743 72.9155 65.9341 71.6762 65.9341 69.8888C65.9341 68.2011 65.1743 66.9119 63.8789 66.9119C62.5836 66.9119 61.8238 68.2073 61.8238 69.9262C61.8051 71.6762 62.5836 72.9155 63.8789 72.9155H63.9101H63.9163Z" fill="#0076C0"/>
<path d="M78.2529 71.3025C78.1968 70.1815 78.1968 68.8736 78.1968 67.3416H78.147C77.8418 68.6432 77.4059 70.1192 77.1132 71.2028L76.1167 74.6406H74.0615L73.2395 71.2028C72.9717 70.1379 72.6789 68.6868 72.4361 67.3416H72.4111C72.3426 68.7241 72.3115 70.1877 72.2617 71.3025L72.1122 74.8523H69.6771L70.2999 64.9688H73.8498L74.485 67.6343C74.7902 68.7241 75.0829 70.0382 75.2822 71.234H75.3258C75.606 70.0382 75.9174 68.6494 76.2101 67.6218L76.9699 64.9688H80.4388L80.9495 74.8523H78.3587L78.2591 71.3025H78.2529Z" fill="#0076C0"/>
</g>
<defs>
<clipPath id="clip0_1370_14396">
<rect width="80.9433" height="130" fill="white"/>
</clipPath>
</defs>
</svg>
