<svg width="131" height="72" viewBox="0 0 131 72" fill="none" xmlns="http://www.w3.org/2000/svg">
<g clip-path="url(#clip0_1375_15842)">
<path d="M6.80344 1.06885H0.540039V21.2744H6.80344V1.06885Z" fill="#231F20"/>
<path d="M21.2949 13.0148L26.7661 14.6731C26.3964 16.2046 25.8155 17.4932 25.0339 18.5177C24.2417 19.5528 23.2595 20.3239 22.0871 20.8414C20.9146 21.3695 19.4254 21.623 17.6192 21.623C15.4223 21.623 13.6267 21.3062 12.2325 20.6619C10.8383 20.0281 9.63417 18.898 8.63076 17.2925C7.61679 15.6871 7.12036 13.6274 7.12036 11.1242C7.12036 7.77596 8.00759 5.20934 9.79261 3.41376C11.5565 1.62875 14.0703 0.730957 17.3235 0.730957C19.869 0.730957 21.8652 1.24851 23.3228 2.27304C24.7804 3.29758 25.8578 4.88191 26.5654 7.01548L21.052 8.2407C20.8618 7.62809 20.6611 7.17391 20.4499 6.88873C20.1014 6.41343 19.6789 6.04376 19.1719 5.79026C18.6649 5.53677 18.1051 5.39946 17.4819 5.39946C16.0666 5.39946 14.9787 5.96982 14.2287 7.11054C13.6584 7.95552 13.3732 9.2758 13.3732 11.0925C13.3732 13.3317 13.7112 14.8632 14.3977 15.6976C15.0737 16.532 16.0349 16.944 17.2601 16.944C18.4853 16.944 19.3514 16.606 19.964 15.9406C20.5767 15.2751 21.0203 14.2929 21.2949 13.0148Z" fill="#231F20"/>
<path d="M25.6993 14.5991L31.6353 14.2294C31.762 15.1906 32.0261 15.9299 32.4169 16.4369C33.0612 17.2502 33.9801 17.6621 35.1736 17.6621C36.0608 17.6621 36.7474 17.4509 37.2333 17.039C37.7191 16.6165 37.9515 16.1306 37.9515 15.5814C37.9515 15.0321 37.7191 14.5885 37.2649 14.1766C36.8108 13.7647 35.744 13.3739 34.0646 13.0042C31.329 12.3916 29.3749 11.5677 28.2025 10.5538C27.0301 9.52923 26.4386 8.23007 26.4386 6.6563C26.4386 5.6212 26.7449 4.63892 27.347 3.70944C27.949 2.77996 28.8574 2.06173 30.0615 1.53362C31.2656 1.00551 32.9239 0.741455 35.0257 0.741455C37.6135 0.741455 39.5781 1.21676 40.93 2.17792C42.282 3.13908 43.0953 4.66004 43.3488 6.76192L37.4656 7.11048C37.3072 6.20213 36.9798 5.53671 36.4833 5.12478C35.9763 4.71285 35.2898 4.50161 34.4026 4.50161C33.6738 4.50161 33.1351 4.66004 32.7654 4.96635C32.3957 5.27265 32.2162 5.65289 32.2162 6.08594C32.2162 6.40281 32.3641 6.69855 32.6704 6.95204C32.9661 7.2161 33.6632 7.46959 34.7722 7.70196C37.4973 8.29345 39.4513 8.88493 40.6343 9.48698C41.8173 10.089 42.6728 10.8389 43.2115 11.7262C43.7501 12.6134 44.0142 13.6168 44.0142 14.7153C44.0142 16.0144 43.6551 17.208 42.9369 18.2959C42.2186 19.3943 41.2152 20.2182 39.9266 20.7886C38.638 21.3589 37.0114 21.6335 35.0574 21.6335C31.6247 21.6335 29.2376 20.9681 27.9174 19.6478C26.5971 18.3276 25.8472 16.6376 25.6676 14.5991" fill="#231F20"/>
<path d="M56.0235 17.9475H48.9362L47.9539 21.2851H41.5743L49.1686 1.07959H55.9812L63.5755 21.2851H57.0375L56.0235 17.9475ZM54.7243 13.5747L52.4957 6.30789L50.2882 13.5747H54.7243Z" fill="#231F20"/>
<path d="M81.5841 21.285H64.6211C64.8218 19.6056 65.4027 18.0319 66.3955 16.5532C67.3778 15.0744 69.2262 13.3317 71.9407 11.3249C73.599 10.0891 74.6552 9.1596 75.12 8.52587C75.5847 7.88157 75.8171 7.27952 75.8171 6.70916C75.8171 6.08599 75.5847 5.55788 75.1305 5.11427C74.6763 4.67065 74.0954 4.45941 73.3983 4.45941C72.7012 4.45941 72.0886 4.68122 71.6344 5.13539C71.1802 5.58957 70.8634 6.3923 70.7155 7.53302L65.0541 7.07884C65.276 5.48394 65.6879 4.24816 66.2794 3.35037C66.8709 2.45259 67.7053 1.7766 68.7826 1.29074C69.86 0.815441 71.3492 0.57251 73.261 0.57251C75.1728 0.57251 76.7994 0.794316 77.9084 1.24849C79.0174 1.70267 79.8835 2.39977 80.5173 3.33981C81.151 4.27985 81.4679 5.33607 81.4679 6.49792C81.4679 7.7337 81.1087 8.92723 80.3799 10.0468C79.6512 11.177 78.3309 12.4128 76.4191 13.7647C75.2784 14.5463 74.5179 15.1061 74.1377 15.4124C73.7574 15.7293 73.3033 16.1412 72.7857 16.6482H81.6157V21.2533L81.5841 21.285Z" fill="#EF4135"/>
<path d="M82.0171 11.0185C82.0171 7.15271 82.7142 4.43822 84.1084 2.89614C85.4921 1.35405 87.6151 0.583008 90.4669 0.583008C91.84 0.583008 92.9596 0.752003 93.8468 1.08999C94.7235 1.42799 95.4417 1.8716 96.0015 2.41027C96.5507 2.94895 96.9943 3.51931 97.3112 4.12135C97.6281 4.7234 97.8921 5.42051 98.0822 6.21267C98.4625 7.73363 98.6526 9.30741 98.6526 10.9551C98.6526 14.6519 98.0294 17.3453 96.7831 19.0669C95.5368 20.778 93.3821 21.6335 90.3296 21.6335C88.6185 21.6335 87.2348 21.3589 86.1786 20.8202C85.1224 20.271 84.2563 19.4788 83.5803 18.4226C83.0944 17.6727 82.7036 16.6482 82.4396 15.349C82.165 14.0498 82.0277 12.6134 82.0277 11.0396M87.6362 11.0502C87.6362 13.6379 87.858 15.4124 88.3227 16.363C88.7769 17.3136 89.4423 17.7889 90.319 17.7889C90.8894 17.7889 91.3858 17.5882 91.8083 17.1868C92.2308 16.7855 92.5371 16.1517 92.7378 15.2751C92.9384 14.409 93.0335 13.0464 93.0335 11.2086C93.0335 8.50468 92.8011 6.68797 92.347 5.7585C91.8928 4.82902 91.2062 4.36428 90.2873 4.36428C89.3684 4.36428 88.6713 4.83958 88.2594 5.79018C87.8369 6.74079 87.6362 8.49411 87.6362 11.0607" fill="#EF4135"/>
<path d="M111.116 0.583008V21.285H105.391V7.72307C104.462 8.43074 103.564 8.99054 102.708 9.43415C101.842 9.8672 100.754 10.2897 99.4553 10.6805V6.04368C101.378 5.42051 102.877 4.68115 103.934 3.80449C105 2.93838 105.835 1.86104 106.426 0.583008H111.105L111.116 0.583008Z" fill="#EF4135"/>
<path d="M130.128 21.285H113.165C113.355 19.6056 113.947 18.0319 114.929 16.5532C115.911 15.0744 117.76 13.3317 120.474 11.3249C122.132 10.0891 123.189 9.1596 123.653 8.52587C124.118 7.88157 124.34 7.27952 124.34 6.70916C124.34 6.08599 124.118 5.55788 123.653 5.11427C123.199 4.67065 122.618 4.45941 121.921 4.45941C121.224 4.45941 120.611 4.68122 120.147 5.13539C119.693 5.58957 119.386 6.3923 119.228 7.53302L113.566 7.07884C113.788 5.48394 114.2 4.24816 114.792 3.35037C115.383 2.45259 116.218 1.7766 117.295 1.29074C118.372 0.815441 119.861 0.57251 121.773 0.57251C123.685 0.57251 125.312 0.794316 126.41 1.24849C127.519 1.70267 128.385 2.39977 129.019 3.33981C129.653 4.27985 129.97 5.33607 129.97 6.49792C129.97 7.7337 129.6 8.92723 128.882 10.0468C128.153 11.177 126.833 12.4128 124.921 13.7647C123.78 14.5463 123.02 15.1061 122.639 15.4124C122.259 15.7293 121.805 16.1412 121.287 16.6482H130.117V21.2533L130.128 21.285Z" fill="#EF4135"/>
<path d="M1.16319 23.218H0.603394V27.4535H1.16319V23.218Z" fill="#231F20"/>
<path d="M1.82861 27.4535V23.218H2.40954L4.63817 26.5451V23.218H5.16628V27.4535H4.59592L2.36729 24.1264V27.4535H1.82861Z" fill="#231F20"/>
<path d="M5.82111 27.4535V23.218H7.2787C7.60613 23.218 7.85962 23.2391 8.02862 23.2814C8.27155 23.3342 8.48279 23.4398 8.65179 23.5877C8.8736 23.7778 9.04259 24.0207 9.15878 24.3165C9.2644 24.6122 9.32777 24.9502 9.32777 25.3199C9.32777 25.6368 9.28552 25.9325 9.21159 26.1754C9.13765 26.4289 9.04259 26.6296 8.92641 26.788C8.81022 26.9465 8.68348 27.0838 8.5356 27.1683C8.3983 27.2633 8.2293 27.3267 8.02862 27.3795C7.82793 27.4323 7.60613 27.4535 7.34207 27.4535H5.81055H5.82111ZM6.38091 26.957H7.28926C7.57444 26.957 7.78569 26.9359 7.94412 26.8725C8.10255 26.8197 8.2293 26.7458 8.32436 26.6507C8.45111 26.5134 8.55673 26.3339 8.63066 26.1121C8.7046 25.8903 8.74685 25.6156 8.74685 25.2988C8.74685 24.8552 8.67291 24.5172 8.52504 24.2742C8.37717 24.0313 8.19761 23.8729 7.99693 23.7989C7.84906 23.7356 7.60613 23.7144 7.26814 23.7144H6.38091V26.957Z" fill="#231F20"/>
<path d="M9.61298 25.3938C9.61298 24.6861 9.8031 24.1369 10.1833 23.7461C10.5636 23.3447 11.0494 23.144 11.6515 23.144C12.0423 23.144 12.3908 23.2391 12.7077 23.4292C13.0246 23.6193 13.257 23.8728 13.4259 24.2108C13.5949 24.5488 13.6689 24.9291 13.6689 25.3515C13.6689 25.774 13.5844 26.1648 13.4048 26.5028C13.2253 26.8408 12.9823 27.1049 12.6655 27.2739C12.3486 27.4534 12.0106 27.5379 11.6304 27.5379C11.229 27.5379 10.8804 27.4429 10.5636 27.2527C10.2467 27.0626 10.0143 26.7986 9.84535 26.4606C9.68692 26.1226 9.60242 25.774 9.60242 25.4044M10.1833 25.4044C10.1833 25.9113 10.3206 26.3127 10.5953 26.6085C10.8699 26.9042 11.2184 27.0521 11.6304 27.0521C12.0423 27.0521 12.4014 26.9042 12.676 26.6085C12.9506 26.3127 13.088 25.8902 13.088 25.341C13.088 24.9924 13.0246 24.6967 12.9084 24.4326C12.7922 24.1791 12.6232 23.9785 12.3908 23.8306C12.169 23.6933 11.9155 23.6193 11.6304 23.6193C11.229 23.6193 10.891 23.7567 10.6058 24.0313C10.3206 24.3059 10.1728 24.7601 10.1728 25.3938" fill="#231F20"/>
<path d="M14.0914 27.4535V23.218H14.6724L16.901 26.5451V23.218H17.4397V27.4535H16.8587L14.6301 24.1264V27.4535H14.0914Z" fill="#231F20"/>
<path d="M18.0945 27.4535V23.218H21.1575V23.7144H18.6543V25.0136H20.9991V25.51H18.6543V26.957H21.2526V27.4535H18.0945Z" fill="#231F20"/>
<path d="M21.3899 26.0908L21.918 26.0485C21.9391 26.2598 22.0025 26.4288 22.0976 26.5661C22.1926 26.7034 22.3299 26.809 22.5201 26.8935C22.7102 26.978 22.932 27.0203 23.1749 27.0203C23.3862 27.0203 23.5763 26.9886 23.7453 26.9252C23.9037 26.8618 24.0305 26.7773 24.1149 26.6611C24.1994 26.545 24.2311 26.4288 24.2311 26.302C24.2311 26.1753 24.1889 26.0591 24.1149 25.9535C24.041 25.8584 23.9143 25.7739 23.7347 25.7C23.6185 25.6577 23.365 25.5838 22.9848 25.4887C22.594 25.3937 22.3194 25.3092 22.1715 25.2247C21.9708 25.1191 21.8229 24.9818 21.7173 24.8233C21.6223 24.6649 21.5695 24.4959 21.5695 24.2952C21.5695 24.084 21.6328 23.8833 21.749 23.6932C21.8758 23.503 22.0448 23.3657 22.2771 23.2707C22.5095 23.1756 22.7735 23.1228 23.0587 23.1228C23.3756 23.1228 23.6502 23.1756 23.8931 23.2707C24.1361 23.3763 24.3156 23.5242 24.4424 23.7143C24.5691 23.915 24.6325 24.1368 24.6536 24.3797L24.1149 24.422C24.0833 24.1579 23.9882 23.9467 23.8192 23.8093C23.6502 23.672 23.4073 23.6087 23.0799 23.6087C22.7524 23.6087 22.4989 23.672 22.3405 23.7988C22.1821 23.9255 22.1081 24.0734 22.1081 24.253C22.1081 24.4008 22.1609 24.5276 22.2771 24.6332C22.3827 24.7283 22.6679 24.8339 23.1221 24.9395C23.5763 25.0451 23.8931 25.1296 24.0621 25.2141C24.3051 25.3303 24.4846 25.4676 24.6114 25.6472C24.7276 25.8267 24.7909 26.0274 24.7909 26.2492C24.7909 26.471 24.7276 26.6823 24.6008 26.883C24.4741 27.0836 24.2839 27.2421 24.041 27.3477C23.7981 27.4639 23.5235 27.5167 23.2277 27.5167C22.8475 27.5167 22.5201 27.4639 22.2666 27.3477C22.0131 27.2315 21.8018 27.0625 21.6539 26.8407C21.5061 26.6189 21.4321 26.3654 21.4216 26.0802" fill="#231F20"/>
<path d="M25.826 23.218H25.2662V27.4535H25.826V23.218Z" fill="#231F20"/>
<path d="M26.0584 27.4535L27.685 23.218H28.287L30.0193 27.4535H29.375L28.8785 26.1754H27.1041L26.6393 27.4535H26.0479H26.0584ZM27.2836 25.7107H28.7201L28.2765 24.5383C28.1392 24.1792 28.0441 23.8834 27.9702 23.6616C27.9174 23.9362 27.8434 24.2003 27.7378 24.4749L27.2731 25.7213L27.2836 25.7107Z" fill="#231F20"/>
<path d="M30.2094 27.4535V23.218H30.7797L33.0083 26.5451V23.218H33.547V27.4535H32.9767L30.748 24.1264V27.4535H30.2094Z" fill="#231F20"/>
<path d="M38.5746 25.9748L39.1344 26.1121C39.0182 26.5768 38.807 26.9254 38.5007 27.1683C38.1944 27.4112 37.8247 27.5274 37.3811 27.5274C36.9375 27.5274 36.5572 27.4324 36.2721 27.2528C35.9869 27.0627 35.7651 26.7986 35.6172 26.4395C35.4693 26.091 35.3954 25.7107 35.3954 25.2988C35.3954 24.8552 35.4799 24.4749 35.6489 24.137C35.8179 23.8095 36.0608 23.556 36.3671 23.387C36.684 23.218 37.022 23.1335 37.3916 23.1335C37.8141 23.1335 38.1733 23.2392 38.4584 23.461C38.7436 23.6722 38.9443 23.9785 39.0605 24.3693L38.5112 24.4961C38.4162 24.1898 38.2683 23.9574 38.0888 23.8201C37.8986 23.6828 37.6663 23.6088 37.3811 23.6088C37.0537 23.6088 36.779 23.6828 36.5678 23.8412C36.346 23.9996 36.1981 24.2109 36.1031 24.4749C36.0186 24.739 35.9657 25.0136 35.9657 25.2882C35.9657 25.6474 36.0186 25.9642 36.1242 26.2283C36.2298 26.5029 36.3882 26.7036 36.61 26.8303C36.8319 26.9676 37.0748 27.031 37.3283 27.031C37.6451 27.031 37.9092 26.9359 38.131 26.7564C38.3528 26.5768 38.5007 26.3128 38.5746 25.9537" fill="#231F20"/>
<path d="M42.2398 23.218H42.7996V25.6685C42.7996 26.0909 42.7468 26.4289 42.6517 26.6824C42.5566 26.9359 42.3771 27.1366 42.1236 27.295C41.8701 27.4535 41.5427 27.5274 41.1307 27.5274C40.7188 27.5274 40.4125 27.464 40.159 27.3267C39.9055 27.1894 39.726 26.9887 39.6203 26.7352C39.5147 26.4712 39.4619 26.1226 39.4619 25.6685V23.218H40.0217V25.6685C40.0217 26.0381 40.0534 26.3127 40.1273 26.4817C40.1907 26.6613 40.3175 26.788 40.4759 26.8831C40.6449 26.9782 40.8456 27.031 41.0885 27.031C41.5004 27.031 41.7962 26.9359 41.9757 26.7458C42.1553 26.5557 42.2398 26.1966 42.2398 25.6685V23.218Z" fill="#231F20"/>
<path d="M43.1798 26.0908L43.7079 26.0485C43.729 26.2598 43.7924 26.4288 43.8769 26.5661C43.972 26.7034 44.1093 26.809 44.2994 26.8935C44.4895 26.978 44.7113 27.0203 44.9543 27.0203C45.1655 27.0203 45.3556 26.9886 45.5246 26.9252C45.6831 26.8618 45.8098 26.7773 45.8943 26.6611C45.9682 26.545 46.0105 26.4288 46.0105 26.302C46.0105 26.1753 45.9682 26.0591 45.8943 25.9535C45.8204 25.8584 45.6936 25.7739 45.5141 25.7C45.3979 25.6577 45.1444 25.5838 44.7641 25.4887C44.3733 25.3937 44.0987 25.3092 43.9509 25.2247C43.7502 25.1191 43.6023 24.9818 43.4967 24.8233C43.3911 24.6649 43.3488 24.4959 43.3488 24.2952C43.3488 24.084 43.4122 23.8833 43.5284 23.6932C43.6551 23.503 43.8241 23.3657 44.0565 23.2707C44.2888 23.1756 44.5529 23.1228 44.8381 23.1228C45.1549 23.1228 45.4296 23.1756 45.6725 23.2707C45.9154 23.3763 46.095 23.5242 46.2217 23.7143C46.3485 23.915 46.4224 24.1368 46.433 24.3797L45.8943 24.422C45.8626 24.1579 45.7676 23.9467 45.5986 23.8093C45.4296 23.672 45.1866 23.6087 44.8592 23.6087C44.5318 23.6087 44.2677 23.672 44.1198 23.7988C43.9614 23.9255 43.8875 24.0734 43.8875 24.253C43.8875 24.4008 43.9403 24.5276 44.0565 24.6332C44.1621 24.7283 44.4473 24.8339 44.9015 24.9395C45.3556 25.0451 45.6725 25.1296 45.8415 25.2141C46.0844 25.3303 46.2745 25.4676 46.3907 25.6472C46.5069 25.8267 46.5703 26.0274 46.5703 26.2492C46.5703 26.471 46.5069 26.6823 46.3802 26.883C46.2534 27.0836 46.0633 27.2421 45.8204 27.3477C45.5774 27.4639 45.3028 27.5167 45.0071 27.5167C44.6268 27.5167 44.2994 27.4639 44.0459 27.3477C43.7924 27.2315 43.5812 27.0625 43.4333 26.8407C43.2854 26.6189 43.2115 26.3654 43.2009 26.0802" fill="#231F20"/>
<path d="M47.9856 27.4535V23.7144H46.5914V23.218H49.9502V23.7144H48.5454V27.4535H47.9856Z" fill="#231F20"/>
<path d="M49.8446 25.3938C49.8446 24.6861 50.0347 24.1369 50.415 23.7461C50.7952 23.3447 51.2811 23.144 51.8831 23.144C52.2739 23.144 52.6225 23.2391 52.9393 23.4292C53.2562 23.6193 53.4886 23.8728 53.6576 24.2108C53.816 24.5488 53.9005 24.9291 53.9005 25.3515C53.9005 25.774 53.816 26.1648 53.647 26.5028C53.4674 26.8408 53.2245 27.1049 52.9077 27.2739C52.5908 27.4534 52.2422 27.5379 51.8831 27.5379C51.4818 27.5379 51.1226 27.4429 50.8163 27.2527C50.4995 27.0626 50.2671 26.7986 50.0981 26.4606C49.9397 26.1226 49.8552 25.774 49.8552 25.4044M50.4361 25.4044C50.4361 25.9113 50.5734 26.3127 50.848 26.6085C51.1226 26.9042 51.4712 27.0521 51.8831 27.0521C52.295 27.0521 52.6542 26.9042 52.9288 26.6085C53.2034 26.3127 53.3407 25.8902 53.3407 25.341C53.3407 24.9924 53.2773 24.6967 53.1611 24.4326C53.045 24.1791 52.876 23.9785 52.6542 23.8306C52.4324 23.6933 52.1789 23.6193 51.8937 23.6193C51.4923 23.6193 51.1543 23.7567 50.8691 24.0313C50.584 24.3059 50.4361 24.7601 50.4361 25.3938" fill="#231F20"/>
<path d="M54.3336 27.4535V23.218H55.1785L56.182 26.2177C56.277 26.5029 56.3404 26.7036 56.3826 26.8409C56.4354 26.6824 56.5094 26.4606 56.6044 26.1649L57.6184 23.218H58.3683V27.4535H57.8297V23.9046L56.5939 27.4535H56.0869L54.8617 23.8412V27.4535H54.323H54.3336Z" fill="#231F20"/>
<path d="M59.0126 27.4535V23.218H62.0756V23.7144H59.5724V25.0136H61.9172V25.51H59.5724V26.957H62.1812V27.4535H59.0126Z" fill="#231F20"/>
<path d="M62.572 27.4535V23.218H64.4521C64.8323 23.218 65.1175 23.2603 65.3182 23.3342C65.5189 23.4081 65.6668 23.5454 65.7935 23.7356C65.9097 23.9257 65.9731 24.1369 65.9731 24.3799C65.9731 24.6756 65.878 24.9291 65.6773 25.1403C65.4872 25.3516 65.1809 25.4783 64.7795 25.5311C64.9274 25.6051 65.0436 25.679 65.1175 25.7424C65.276 25.8903 65.4344 26.0804 65.5823 26.3022L66.3216 27.4535H65.6139L65.0541 26.5662C64.8852 26.3127 64.7584 26.1226 64.6528 25.9853C64.5472 25.848 64.4521 25.753 64.3676 25.7001C64.2831 25.6473 64.1986 25.6051 64.1141 25.584C64.0507 25.5734 63.9451 25.5628 63.7972 25.5628H63.1424V27.4429H62.5826L62.572 27.4535ZM63.1318 25.0875H64.3359C64.5894 25.0875 64.7901 25.0664 64.938 25.003C65.0858 24.9502 65.1915 24.8657 65.2654 24.7495C65.3393 24.6334 65.3816 24.5066 65.3816 24.3693C65.3816 24.1686 65.3076 23.9996 65.1598 23.8729C65.0119 23.7461 64.7795 23.6828 64.4732 23.6828H63.1318V25.0875Z" fill="#231F20"/>
<path d="M67.6947 26.0908L68.2228 26.0485C68.2439 26.2598 68.3073 26.4288 68.4024 26.5661C68.4974 26.7034 68.6347 26.809 68.8249 26.8935C69.015 26.978 69.2368 27.0203 69.4797 27.0203C69.691 27.0203 69.8811 26.9886 70.0501 26.9252C70.2085 26.8618 70.3353 26.7773 70.4198 26.6611C70.5043 26.545 70.5359 26.4288 70.5359 26.302C70.5359 26.1753 70.4937 26.0591 70.4198 25.9535C70.3458 25.8584 70.2191 25.7739 70.0395 25.7C69.9233 25.6577 69.6698 25.5838 69.2896 25.4887C68.8988 25.3937 68.6242 25.3092 68.4763 25.2247C68.2756 25.1191 68.1278 24.9818 68.0221 24.8233C67.9271 24.6649 67.8743 24.4959 67.8743 24.2952C67.8743 24.084 67.9376 23.8833 68.0538 23.6932C68.17 23.503 68.3496 23.3657 68.5819 23.2707C68.8143 23.1756 69.0784 23.1228 69.3635 23.1228C69.6804 23.1228 69.955 23.1756 70.1979 23.2707C70.4409 23.3763 70.6204 23.5242 70.7472 23.7143C70.8739 23.915 70.9479 24.1368 70.9584 24.3797L70.4198 24.422C70.3881 24.1579 70.293 23.9467 70.124 23.8093C69.955 23.672 69.7121 23.6087 69.3847 23.6087C69.0572 23.6087 68.8037 23.672 68.6453 23.7988C68.4869 23.9255 68.4129 24.0734 68.4129 24.253C68.4129 24.4008 68.4657 24.5276 68.5819 24.6332C68.6875 24.7283 68.9727 24.8339 69.4269 24.9395C69.8811 25.0451 70.198 25.1296 70.3669 25.2141C70.6099 25.3303 70.8 25.4676 70.9162 25.6472C71.0324 25.8267 71.0957 26.0274 71.0957 26.2492C71.0957 26.471 71.0324 26.6823 70.9056 26.883C70.7789 27.0836 70.5887 27.2421 70.3458 27.3477C70.1029 27.4639 69.8283 27.5167 69.5325 27.5167C69.1523 27.5167 68.8249 27.4639 68.5714 27.3477C68.3179 27.2315 68.1066 27.0625 67.9588 26.8407C67.8109 26.6189 67.7369 26.3654 67.7264 26.0802" fill="#231F20"/>
<path d="M71.0218 27.4535L72.6484 23.218H73.2504L74.9826 27.4535H74.3383L73.8419 26.1754H72.0675L71.6027 27.4535H71.0112H71.0218ZM72.247 25.7107H73.6835L73.2399 24.5383C73.1026 24.1792 73.0075 23.8834 72.9336 23.6616C72.8807 23.9362 72.8068 24.2003 72.7012 24.4749L72.2364 25.7213L72.247 25.7107Z" fill="#231F20"/>
<path d="M75.7115 27.4535V23.7144H74.3173V23.218H77.6761V23.7144H76.2713V27.4535H75.7115Z" fill="#231F20"/>
<path d="M78.5315 23.218H77.9717V27.4535H78.5315V23.218Z" fill="#231F20"/>
<path d="M78.9963 26.0908L79.5244 26.0485C79.5456 26.2598 79.6089 26.4288 79.704 26.5661C79.7991 26.7034 79.9364 26.809 80.1265 26.8935C80.3166 26.978 80.5384 27.0203 80.7814 27.0203C80.9926 27.0203 81.1827 26.9886 81.3517 26.9252C81.5102 26.8618 81.6369 26.7773 81.7214 26.6611C81.8059 26.545 81.8376 26.4288 81.8376 26.302C81.8376 26.1753 81.7953 26.0591 81.7214 25.9535C81.6475 25.8584 81.5207 25.7739 81.3412 25.7C81.225 25.6577 80.9715 25.5838 80.5912 25.4887C80.2004 25.3937 79.9258 25.3092 79.7779 25.2247C79.5773 25.1191 79.4294 24.9818 79.3238 24.8233C79.2287 24.6649 79.1759 24.4959 79.1759 24.2952C79.1759 24.084 79.2393 23.8833 79.3555 23.6932C79.4822 23.503 79.6512 23.3657 79.8836 23.2707C80.1159 23.1756 80.38 23.1228 80.6652 23.1228C80.982 23.1228 81.2567 23.1756 81.4996 23.2707C81.7425 23.3763 81.9221 23.5242 82.0488 23.7143C82.1756 23.915 82.2495 24.1368 82.2601 24.3797L81.7214 24.422C81.6897 24.1579 81.5947 23.9467 81.4257 23.8093C81.2567 23.672 81.0137 23.6087 80.6863 23.6087C80.3589 23.6087 80.0948 23.672 79.9469 23.7988C79.7885 23.9255 79.7146 24.0734 79.7146 24.253C79.7146 24.4008 79.7674 24.5276 79.8836 24.6332C79.9892 24.7283 80.2744 24.8339 80.7285 24.9395C81.1827 25.0451 81.4996 25.1296 81.6686 25.2141C81.9115 25.3303 82.1016 25.4676 82.2178 25.6472C82.334 25.8267 82.3974 26.0274 82.3974 26.2492C82.3974 26.471 82.334 26.6823 82.2073 26.883C82.0805 27.0836 81.8904 27.2421 81.6475 27.3477C81.4045 27.4639 81.1299 27.5167 80.8342 27.5167C80.4539 27.5167 80.1265 27.4639 79.873 27.3477C79.6195 27.2315 79.4083 27.0625 79.2604 26.8407C79.1125 26.6189 79.0386 26.3654 79.028 26.0802" fill="#231F20"/>
<path d="M82.8411 27.4535V23.218H85.6929V23.7144H83.4009V25.0347H85.3866V25.5311H83.4009V27.4535H82.8411Z" fill="#231F20"/>
<path d="M85.2808 27.4535L86.9073 23.218H87.5094L89.2416 27.4535H88.6079L88.1114 26.1754H86.337L85.8722 27.4535H85.2808ZM86.506 25.7107H87.9424L87.4988 24.5383C87.3615 24.1792 87.2665 23.8834 87.2031 23.6616C87.1503 23.9362 87.0763 24.2003 86.9707 24.4749L86.506 25.7213V25.7107Z" fill="#231F20"/>
<path d="M92.252 25.9748L92.8118 26.1121C92.6956 26.5768 92.4844 26.9254 92.1781 27.1683C91.8717 27.4112 91.5021 27.5274 91.0585 27.5274C90.6148 27.5274 90.2346 27.4324 89.9494 27.2528C89.6642 27.0627 89.4424 26.7986 89.2946 26.4395C89.1467 26.091 89.0728 25.7107 89.0728 25.2988C89.0728 24.8552 89.1572 24.4749 89.3262 24.137C89.4952 23.8095 89.7382 23.556 90.0445 23.387C90.3613 23.218 90.6993 23.1335 91.069 23.1335C91.4915 23.1335 91.8506 23.2392 92.1358 23.461C92.421 23.6722 92.6217 23.9785 92.7379 24.3693L92.1886 24.4961C92.0936 24.1898 91.9457 23.9574 91.7661 23.8201C91.576 23.6828 91.3436 23.6088 91.0585 23.6088C90.731 23.6088 90.4564 23.6828 90.2452 23.8412C90.0234 23.9996 89.8755 24.2109 89.7804 24.4749C89.6959 24.739 89.6431 25.0136 89.6431 25.2882C89.6431 25.6474 89.6959 25.9642 89.8016 26.2283C89.9072 26.5029 90.0656 26.7036 90.2874 26.8303C90.5092 26.9676 90.7522 27.031 91.0056 27.031C91.3225 27.031 91.5866 26.9359 91.8084 26.7564C92.0302 26.5768 92.1781 26.3128 92.252 25.9537" fill="#231F20"/>
<path d="M94.1742 27.4535V23.7144H92.78V23.218H96.1388V23.7144H94.734V27.4535H94.1742Z" fill="#231F20"/>
<path d="M96.9944 23.218H96.4346V27.4535H96.9944V23.218Z" fill="#231F20"/>
<path d="M97.4909 25.3938C97.4909 24.6861 97.681 24.1369 98.0612 23.7461C98.4415 23.3447 98.9273 23.144 99.5188 23.144C99.9096 23.144 100.269 23.2391 100.575 23.4292C100.892 23.6193 101.124 23.8728 101.293 24.2108C101.462 24.5488 101.536 24.9291 101.536 25.3515C101.536 25.774 101.452 26.1648 101.272 26.5028C101.093 26.8408 100.85 27.1049 100.533 27.2739C100.216 27.4534 99.8674 27.5379 99.4977 27.5379C99.0963 27.5379 98.7478 27.4429 98.4309 27.2527C98.114 27.0626 97.8817 26.7986 97.7127 26.4606C97.5542 26.1226 97.4697 25.774 97.4697 25.4044M98.0507 25.4044C98.0507 25.9113 98.188 26.3127 98.4626 26.6085C98.7372 26.9042 99.0858 27.0521 99.4977 27.0521C99.9096 27.0521 100.269 26.9042 100.543 26.6085C100.818 26.3127 100.955 25.8902 100.955 25.341C100.955 24.9924 100.892 24.6967 100.776 24.4326C100.66 24.1791 100.491 23.9785 100.258 23.8306C100.036 23.6933 99.7829 23.6193 99.4977 23.6193C99.0963 23.6193 98.7583 23.7567 98.4731 24.0313C98.188 24.3059 98.0401 24.7601 98.0401 25.3938" fill="#231F20"/>
<path d="M101.969 27.4535V23.218H102.55L104.768 26.5451V23.218H105.307V27.4535H104.737L102.508 24.1264V27.4535H101.969Z" fill="#231F20"/>
<path d="M106.838 27.4535L108.465 23.218H109.067L110.799 27.4535H110.165L109.669 26.1754H107.895L107.43 27.4535H106.838ZM108.064 25.7107H109.5L109.056 24.5383C108.919 24.1792 108.824 23.8834 108.761 23.6616C108.708 23.9362 108.634 24.2003 108.528 24.4749L108.064 25.7213V25.7107Z" fill="#231F20"/>
<path d="M111.465 27.4535L110.334 23.218H110.915L111.56 25.9959C111.623 26.2916 111.686 26.5768 111.739 26.862C111.845 26.4078 111.908 26.1438 111.929 26.0804L112.732 23.218H113.408L114.021 25.3621C114.169 25.8903 114.285 26.3972 114.348 26.862C114.401 26.5979 114.475 26.2916 114.559 25.9431L115.225 23.218H115.795L114.633 27.4535H114.095L113.197 24.2214C113.123 23.9574 113.081 23.7884 113.07 23.725C113.028 23.9151 112.986 24.0841 112.943 24.2214L112.046 27.4535H111.475H111.465Z" fill="#231F20"/>
<path d="M115.309 27.4535L116.936 23.218H117.538L119.27 27.4535H118.626L118.13 26.1754H116.355L115.89 27.4535H115.299H115.309ZM116.535 25.7107H117.971L117.527 24.5383C117.39 24.1792 117.295 23.8834 117.221 23.6616C117.168 23.9362 117.094 24.2003 116.999 24.4749L116.535 25.7213V25.7107Z" fill="#231F20"/>
<path d="M119.471 27.4535V23.218H121.351C121.731 23.218 122.016 23.2603 122.217 23.3342C122.418 23.4081 122.565 23.5454 122.692 23.7356C122.808 23.9257 122.872 24.1369 122.872 24.3799C122.872 24.6756 122.777 24.9291 122.576 25.1403C122.386 25.3516 122.08 25.4783 121.678 25.5311C121.826 25.6051 121.942 25.679 122.016 25.7424C122.175 25.8903 122.333 26.0804 122.481 26.3022L123.22 27.4535H122.513L121.953 26.5662C121.784 26.3127 121.657 26.1226 121.551 25.9853C121.446 25.848 121.351 25.753 121.266 25.7001C121.182 25.6473 121.097 25.6051 121.013 25.584C120.949 25.5734 120.844 25.5628 120.696 25.5628H120.052V27.4429H119.492L119.471 27.4535ZM120.031 25.0875H121.235C121.488 25.0875 121.689 25.0664 121.837 25.003C121.985 24.9502 122.09 24.8657 122.164 24.7495C122.238 24.6334 122.28 24.5066 122.28 24.3693C122.28 24.1686 122.206 23.9996 122.058 23.8729C121.911 23.7461 121.678 23.6828 121.372 23.6828H120.031V25.0875Z" fill="#231F20"/>
<path d="M123.442 27.4535V23.218H124.9C125.227 23.218 125.481 23.2391 125.65 23.2814C125.893 23.3342 126.104 23.4398 126.273 23.5877C126.495 23.7778 126.664 24.0207 126.78 24.3165C126.896 24.6122 126.949 24.9502 126.949 25.3199C126.949 25.6368 126.907 25.9325 126.833 26.1754C126.759 26.4289 126.664 26.6296 126.548 26.788C126.431 26.9465 126.305 27.0838 126.157 27.1683C126.019 27.2633 125.85 27.3267 125.65 27.3795C125.449 27.4323 125.227 27.4535 124.963 27.4535H123.432H123.442ZM124.002 26.957H124.91C125.196 26.957 125.407 26.9359 125.565 26.8725C125.724 26.8197 125.85 26.7458 125.945 26.6507C126.072 26.5134 126.178 26.3339 126.252 26.1121C126.326 25.8903 126.357 25.6156 126.357 25.2988C126.357 24.8552 126.283 24.5172 126.136 24.2742C125.988 24.0313 125.808 23.8729 125.607 23.7989C125.46 23.7356 125.217 23.7144 124.879 23.7144H123.991V26.957H124.002Z" fill="#231F20"/>
<path d="M127.171 26.0908L127.699 26.0485C127.72 26.2598 127.783 26.4288 127.878 26.5661C127.973 26.7034 128.111 26.809 128.301 26.8935C128.491 26.978 128.713 27.0203 128.956 27.0203C129.167 27.0203 129.357 26.9886 129.526 26.9252C129.684 26.8618 129.811 26.7773 129.896 26.6611C129.98 26.545 130.012 26.4288 130.012 26.302C130.012 26.1753 129.97 26.0591 129.896 25.9535C129.822 25.8584 129.695 25.7739 129.515 25.7C129.399 25.6577 129.146 25.5838 128.766 25.4887C128.375 25.3937 128.1 25.3092 127.952 25.2247C127.752 25.1191 127.604 24.9818 127.498 24.8233C127.403 24.6649 127.35 24.4959 127.35 24.2952C127.35 24.084 127.414 23.8833 127.53 23.6932C127.657 23.503 127.826 23.3657 128.058 23.2707C128.29 23.1756 128.554 23.1228 128.839 23.1228C129.156 23.1228 129.431 23.1756 129.674 23.2707C129.917 23.3763 130.096 23.5242 130.223 23.7143C130.35 23.915 130.424 24.1368 130.434 24.3797L129.896 24.422C129.864 24.1579 129.769 23.9467 129.6 23.8093C129.431 23.672 129.188 23.6087 128.861 23.6087C128.533 23.6087 128.269 23.672 128.121 23.7988C127.963 23.9255 127.889 24.0734 127.889 24.253C127.889 24.4008 127.942 24.5276 128.058 24.6332C128.164 24.7283 128.449 24.8339 128.903 24.9395C129.357 25.0451 129.674 25.1296 129.843 25.2141C130.086 25.3303 130.276 25.4676 130.392 25.6472C130.508 25.8267 130.572 26.0274 130.572 26.2492C130.572 26.471 130.508 26.6823 130.382 26.883C130.255 27.0836 130.065 27.2421 129.822 27.3477C129.579 27.4639 129.304 27.5167 129.008 27.5167C128.628 27.5167 128.301 27.4639 128.047 27.3477C127.794 27.2315 127.583 27.0625 127.435 26.8407C127.287 26.6189 127.213 26.3654 127.202 26.0802" fill="#231F20"/>
<path d="M18.2212 14.6732C18.2212 14.6732 19.9006 13.0043 19.9006 10.9553C19.9006 8.9062 18.2212 7.22681 18.2212 7.22681C18.2212 7.22681 19.2563 9.297 19.2563 10.9553C19.2563 12.7297 18.2212 14.6732 18.2212 14.6732Z" fill="#231F20"/>
<path d="M16.4996 8.70534C16.4996 9.08558 16.1933 9.39189 15.813 9.39189C15.4328 9.39189 15.1265 9.08558 15.1265 8.70534C15.1265 8.3251 15.4328 8.0188 15.813 8.0188C16.1933 8.0188 16.4996 8.3251 16.4996 8.70534Z" fill="#231F20"/>
<path d="M16.4996 13.0042C16.4996 13.3844 16.1933 13.6907 15.813 13.6907C15.4328 13.6907 15.1265 13.3844 15.1265 13.0042C15.1265 12.6239 15.4328 12.3176 15.813 12.3176C16.1933 12.3176 16.4996 12.6239 16.4996 13.0042Z" fill="#231F20"/>
<path d="M1.16319 67.5476H0.603394V71.7831H1.16319V67.5476Z" fill="#231F20"/>
<path d="M1.82861 71.7831V67.5476H2.40954L4.63817 70.8747V67.5476H5.16628V71.7831H4.59592L2.36729 68.456V71.7831H1.82861Z" fill="#231F20"/>
<path d="M5.82111 71.7831V67.5476H7.2787C7.60613 67.5476 7.85962 67.5687 8.02862 67.611C8.27155 67.6638 8.48279 67.7694 8.65179 67.9173C8.8736 68.1074 9.04259 68.3503 9.15878 68.6461C9.2644 68.9418 9.32777 69.2798 9.32777 69.6495C9.32777 69.9664 9.28552 70.2621 9.21159 70.505C9.13765 70.7585 9.04259 70.9592 8.92641 71.1282C8.81022 71.2866 8.68348 71.4239 8.5356 71.5084C8.3983 71.6035 8.2293 71.6669 8.02862 71.7197C7.82793 71.7619 7.60613 71.7936 7.34207 71.7936H5.81055L5.82111 71.7831ZM6.38091 71.2866H7.28926C7.57444 71.2866 7.78569 71.2655 7.94412 71.2127C8.10255 71.1599 8.2293 71.086 8.32436 70.9909C8.45111 70.8536 8.55673 70.6846 8.63066 70.4522C8.7046 70.2304 8.74685 69.9558 8.74685 69.6389C8.74685 69.1953 8.67291 68.8573 8.52504 68.6144C8.37717 68.382 8.19761 68.213 7.99693 68.1391C7.84906 68.0757 7.60613 68.0546 7.26814 68.0546H6.38091V71.2972V71.2866Z" fill="#231F20"/>
<path d="M9.61298 69.7128C9.61298 69.0052 9.8031 68.4559 10.1833 68.0651C10.5636 67.6638 11.0494 67.4736 11.6515 67.4736C12.0423 67.4736 12.3908 67.5687 12.7077 67.7588C13.0246 67.9489 13.257 68.2024 13.4259 68.5404C13.5949 68.8784 13.6689 69.2586 13.6689 69.6811C13.6689 70.1036 13.5844 70.4944 13.4048 70.8324C13.2253 71.1704 12.9823 71.4345 12.6655 71.6035C12.3486 71.783 12.0106 71.8675 11.6304 71.8675C11.229 71.8675 10.8804 71.7725 10.5636 71.5823C10.2467 71.3922 10.0143 71.1282 9.84535 70.7902C9.68692 70.4522 9.60242 70.1036 9.60242 69.7339M10.1833 69.7339C10.1833 70.2409 10.3206 70.6529 10.5953 70.9486C10.8699 71.2443 11.2184 71.3922 11.6304 71.3922C12.0423 71.3922 12.4014 71.2443 12.676 70.9486C12.9506 70.6529 13.088 70.2304 13.088 69.6811C13.088 69.3326 13.0246 69.0368 12.9084 68.7728C12.7922 68.5193 12.6232 68.3186 12.3908 68.1707C12.169 68.0334 11.9155 67.9595 11.6304 67.9595C11.229 67.9595 10.891 68.0968 10.6058 68.3714C10.3206 68.646 10.1728 69.1002 10.1728 69.7339" fill="#231F20"/>
<path d="M14.0914 71.7831V67.5476H14.6724L16.901 70.8747V67.5476H17.4397V71.7831H16.8587L14.6301 68.456V71.7831H14.0914Z" fill="#231F20"/>
<path d="M18.0945 71.7831V67.5476H21.1575V68.044H18.6543V69.3432H20.9991V69.8396H18.6543V71.2866H21.2526V71.7831H18.0945Z" fill="#231F20"/>
<path d="M21.3899 70.4204L21.918 70.3781C21.9391 70.5894 22.0025 70.7584 22.0976 70.8957C22.1926 71.033 22.3299 71.1492 22.5201 71.2231C22.7102 71.3076 22.932 71.3499 23.1749 71.3499C23.3862 71.3499 23.5763 71.3182 23.7453 71.2548C23.9037 71.1914 24.0305 71.1069 24.1149 70.9907C24.1994 70.8851 24.2311 70.7584 24.2311 70.6316C24.2311 70.5049 24.1889 70.3887 24.1149 70.2831C24.041 70.188 23.9143 70.1035 23.7347 70.0296C23.6185 69.9873 23.365 69.9134 22.9848 69.8183C22.594 69.7233 22.3194 69.6388 22.1715 69.5543C21.9708 69.4487 21.8229 69.3113 21.7173 69.1529C21.6223 68.9945 21.5695 68.8255 21.5695 68.6248C21.5695 68.4136 21.6328 68.2129 21.749 68.0227C21.8758 67.8326 22.0448 67.6953 22.2771 67.6003C22.5095 67.5052 22.7735 67.4524 23.0587 67.4524C23.3756 67.4524 23.6502 67.5052 23.8931 67.6003C24.1361 67.7059 24.3156 67.8538 24.4424 68.0439C24.5691 68.2446 24.6325 68.4664 24.6536 68.7093L24.1149 68.7515C24.0833 68.4875 23.9882 68.2762 23.8192 68.1495C23.6502 68.0122 23.4073 67.9488 23.0799 67.9488C22.7524 67.9488 22.4989 68.0122 22.3405 68.1389C22.1821 68.2657 22.1081 68.4136 22.1081 68.5825C22.1081 68.741 22.1609 68.8572 22.2771 68.9628C22.3827 69.0578 22.6679 69.1635 23.1221 69.2691C23.5763 69.3747 23.8931 69.4592 24.0621 69.5437C24.3051 69.6599 24.4846 69.7972 24.6114 69.9768C24.7276 70.1458 24.7909 70.3464 24.7909 70.5788C24.7909 70.8112 24.7276 71.0119 24.6008 71.2125C24.4741 71.4132 24.2839 71.5717 24.041 71.6773C23.7981 71.7935 23.5235 71.8463 23.2277 71.8463C22.8475 71.8463 22.5201 71.7935 22.2666 71.6773C22.0131 71.5611 21.8018 71.4027 21.6539 71.1703C21.5061 70.9485 21.4321 70.695 21.4216 70.4098" fill="#231F20"/>
<path d="M25.826 67.5476H25.2662V71.7831H25.826V67.5476Z" fill="#231F20"/>
<path d="M26.0584 71.7831L27.685 67.5476H28.287L30.0193 71.7831H29.375L28.8785 70.505H27.1041L26.6393 71.7831H26.0479H26.0584ZM27.2836 70.0403H28.7201L28.2765 68.8679C28.1392 68.5088 28.0441 68.213 27.9702 67.9912C27.9174 68.2658 27.8434 68.5299 27.7378 68.8045L27.2731 70.0508L27.2836 70.0403Z" fill="#231F20"/>
<path d="M30.2094 71.7831V67.5476H30.7797L33.0083 70.8747V67.5476H33.547V71.7831H32.9767L30.748 68.456V71.7831H30.2094Z" fill="#231F20"/>
<path d="M38.5746 70.2936L39.1344 70.4309C39.0182 70.8957 38.807 71.2442 38.5007 71.4872C38.1944 71.7301 37.8247 71.8463 37.3811 71.8463C36.9375 71.8463 36.5572 71.7512 36.2721 71.5717C35.9869 71.3815 35.7651 71.1175 35.6172 70.7584C35.4693 70.4098 35.3954 70.0296 35.3954 69.6176C35.3954 69.174 35.4799 68.7938 35.6489 68.4558C35.8179 68.1284 36.0608 67.8749 36.3671 67.7059C36.684 67.5369 37.022 67.4524 37.3916 67.4524C37.8141 67.4524 38.1733 67.558 38.4584 67.7798C38.7436 68.0016 38.9443 68.2974 39.0605 68.6882L38.5112 68.8149C38.4162 68.5086 38.2683 68.2762 38.0888 68.1389C37.8986 68.0016 37.6663 67.9277 37.3811 67.9277C37.0537 67.9277 36.779 68.0016 36.5678 68.1601C36.346 68.3185 36.1981 68.5297 36.1031 68.7938C36.0186 69.0579 35.9657 69.3325 35.9657 69.6071C35.9657 69.9662 36.0186 70.2831 36.1242 70.5577C36.2298 70.8323 36.3882 71.0224 36.61 71.1597C36.8319 71.297 37.0748 71.3604 37.3283 71.3604C37.6451 71.3604 37.9092 71.2654 38.131 71.0858C38.3528 70.9062 38.5007 70.6422 38.5746 70.2831" fill="#231F20"/>
<path d="M42.2398 67.5476H42.7996V69.998C42.7996 70.4205 42.7468 70.7585 42.6517 71.012C42.5566 71.2655 42.3771 71.4662 42.1236 71.6246C41.8701 71.7831 41.5427 71.857 41.1307 71.857C40.7188 71.857 40.4125 71.7936 40.159 71.6563C39.9055 71.519 39.726 71.3183 39.6203 71.0648C39.5147 70.8113 39.4619 70.4522 39.4619 70.0086V67.5582H40.0217V70.0086C40.0217 70.3783 40.0534 70.6529 40.1273 70.8219C40.1907 70.9909 40.3175 71.1282 40.4759 71.2233C40.6449 71.3183 40.8456 71.3711 41.0885 71.3711C41.5004 71.3711 41.7962 71.2761 41.9757 71.086C42.1553 70.8958 42.2398 70.5367 42.2398 70.0086V67.5582V67.5476Z" fill="#231F20"/>
<path d="M43.1798 70.4204L43.7079 70.3781C43.729 70.5894 43.7924 70.7584 43.8769 70.8957C43.972 71.033 44.1093 71.1492 44.2994 71.2231C44.4895 71.3076 44.7113 71.3499 44.9543 71.3499C45.1655 71.3499 45.3556 71.3182 45.5246 71.2548C45.6831 71.1914 45.8098 71.1069 45.8943 70.9907C45.9682 70.8851 46.0105 70.7584 46.0105 70.6316C46.0105 70.5049 45.9682 70.3887 45.8943 70.2831C45.8204 70.188 45.6936 70.1035 45.5141 70.0296C45.3979 69.9873 45.1444 69.9134 44.7641 69.8183C44.3733 69.7233 44.0987 69.6388 43.9509 69.5543C43.7502 69.4487 43.6023 69.3113 43.4967 69.1529C43.3911 68.9945 43.3488 68.8255 43.3488 68.6248C43.3488 68.4136 43.4122 68.2129 43.5284 68.0227C43.6551 67.8326 43.8241 67.6953 44.0565 67.6003C44.2888 67.5052 44.5529 67.4524 44.8381 67.4524C45.1549 67.4524 45.4296 67.5052 45.6725 67.6003C45.9154 67.7059 46.095 67.8538 46.2217 68.0439C46.3485 68.2446 46.4224 68.4664 46.433 68.7093L45.8943 68.7515C45.8626 68.4875 45.7676 68.2762 45.5986 68.1495C45.4296 68.0122 45.1866 67.9488 44.8592 67.9488C44.5318 67.9488 44.2677 68.0122 44.1198 68.1389C43.9614 68.2657 43.8875 68.4136 43.8875 68.5825C43.8875 68.741 43.9403 68.8572 44.0565 68.9628C44.1621 69.0578 44.4473 69.1635 44.9015 69.2691C45.3556 69.3747 45.6725 69.4592 45.8415 69.5437C46.0844 69.6599 46.2745 69.7972 46.3907 69.9768C46.5069 70.1458 46.5703 70.3464 46.5703 70.5788C46.5703 70.8112 46.5069 71.0119 46.3802 71.2125C46.2534 71.4132 46.0633 71.5717 45.8204 71.6773C45.5774 71.7935 45.3028 71.8463 45.0071 71.8463C44.6268 71.8463 44.2994 71.7935 44.0459 71.6773C43.7924 71.5611 43.5812 71.4027 43.4333 71.1703C43.2854 70.9485 43.2115 70.695 43.2009 70.4098" fill="#231F20"/>
<path d="M47.9856 71.7831V68.044H46.5914V67.5476H49.9502V68.044H48.5454V71.7831H47.9856Z" fill="#231F20"/>
<path d="M49.8446 69.7128C49.8446 69.0052 50.0347 68.4559 50.415 68.0651C50.7952 67.6638 51.2811 67.4736 51.8831 67.4736C52.2739 67.4736 52.6225 67.5687 52.9393 67.7588C53.2562 67.9489 53.4886 68.2024 53.6576 68.5404C53.816 68.8784 53.9005 69.2586 53.9005 69.6811C53.9005 70.1036 53.816 70.4944 53.647 70.8324C53.4674 71.1704 53.2245 71.4345 52.9077 71.6035C52.5908 71.783 52.2422 71.8675 51.8831 71.8675C51.4818 71.8675 51.1226 71.7725 50.8163 71.5823C50.4995 71.3922 50.2671 71.1282 50.0981 70.7902C49.9397 70.4522 49.8552 70.1036 49.8552 69.7339M50.4361 69.7339C50.4361 70.2409 50.5734 70.6529 50.848 70.9486C51.1226 71.2443 51.4712 71.3922 51.8831 71.3922C52.295 71.3922 52.6542 71.2443 52.9288 70.9486C53.2034 70.6529 53.3407 70.2304 53.3407 69.6811C53.3407 69.3326 53.2773 69.0368 53.1611 68.7728C53.045 68.5193 52.876 68.3186 52.6542 68.1707C52.4324 68.0334 52.1789 67.9595 51.8937 67.9595C51.4923 67.9595 51.1543 68.0968 50.8691 68.3714C50.584 68.646 50.4361 69.1002 50.4361 69.7339Z" fill="#231F20"/>
<path d="M54.3336 71.7831V67.5476H55.1785L56.182 70.5473C56.277 70.8325 56.3404 71.0331 56.3826 71.1705C56.4354 71.012 56.5094 70.7902 56.6044 70.4945L57.6184 67.5476H58.3683V71.7831H57.8297V68.2342L56.5939 71.7831H56.0869L54.8617 68.1708V71.7831H54.323H54.3336Z" fill="#231F20"/>
<path d="M59.0126 71.7831V67.5476H62.0756V68.044H59.5724V69.3432H61.9172V69.8396H59.5724V71.2866H62.1812V71.7831H59.0126Z" fill="#231F20"/>
<path d="M62.572 71.7831V67.5476H64.4521C64.8323 67.5476 65.1175 67.5899 65.3182 67.6638C65.5189 67.7377 65.6668 67.875 65.7935 68.0652C65.9097 68.2553 65.9731 68.4665 65.9731 68.7095C65.9731 69.0052 65.878 69.2587 65.6773 69.4699C65.4872 69.6812 65.1809 69.8079 64.7795 69.8607C64.9274 69.9347 65.0436 69.998 65.1175 70.072C65.276 70.2198 65.4344 70.41 65.5823 70.6318L66.3216 71.7831H65.6139L65.0541 70.8958C64.8852 70.6423 64.7584 70.4522 64.6528 70.3149C64.5472 70.1776 64.4521 70.0825 64.3676 70.0297C64.2831 69.9769 64.1986 69.9347 64.1141 69.9135C64.0507 69.903 63.9451 69.8924 63.7972 69.8924H63.1424V71.7725H62.5826L62.572 71.7831ZM63.1318 69.4171H64.3359C64.5894 69.4171 64.7901 69.396 64.938 69.3432C65.0858 69.2904 65.1915 69.2059 65.2654 69.0897C65.3393 68.9735 65.3816 68.8468 65.3816 68.7095C65.3816 68.5088 65.3076 68.3398 65.1598 68.213C65.0119 68.0863 64.7795 68.0229 64.4732 68.0229H63.1318V69.4277V69.4171Z" fill="#231F20"/>
<path d="M67.6947 70.4204L68.2228 70.3781C68.2439 70.5894 68.3073 70.7584 68.4024 70.8957C68.4974 71.033 68.6347 71.1492 68.8249 71.2231C69.015 71.3076 69.2368 71.3499 69.4797 71.3499C69.691 71.3499 69.8811 71.3182 70.0501 71.2548C70.2085 71.1914 70.3353 71.1069 70.4198 70.9907C70.5043 70.8851 70.5359 70.7584 70.5359 70.6316C70.5359 70.5049 70.4937 70.3887 70.4198 70.2831C70.3458 70.188 70.2191 70.1035 70.0395 70.0296C69.9233 69.9873 69.6698 69.9134 69.2896 69.8183C68.8988 69.7233 68.6242 69.6388 68.4763 69.5543C68.2756 69.4487 68.1278 69.3113 68.0221 69.1529C67.9271 68.9945 67.8743 68.8255 67.8743 68.6248C67.8743 68.4136 67.9376 68.2129 68.0538 68.0227C68.17 67.8326 68.3496 67.6953 68.5819 67.6003C68.8143 67.5052 69.0784 67.4524 69.3635 67.4524C69.6804 67.4524 69.955 67.5052 70.1979 67.6003C70.4409 67.7059 70.6204 67.8538 70.7472 68.0439C70.8739 68.2446 70.9479 68.4664 70.9584 68.7093L70.4198 68.7515C70.3881 68.4875 70.293 68.2762 70.124 68.1495C69.955 68.0122 69.7121 67.9488 69.3847 67.9488C69.0572 67.9488 68.8037 68.0122 68.6453 68.1389C68.4869 68.2657 68.4129 68.4136 68.4129 68.5825C68.4129 68.741 68.4657 68.8572 68.5819 68.9628C68.6875 69.0578 68.9727 69.1635 69.4269 69.2691C69.8811 69.3747 70.198 69.4592 70.3669 69.5437C70.6099 69.6599 70.8 69.7972 70.9162 69.9768C71.0324 70.1458 71.0957 70.3464 71.0957 70.5788C71.0957 70.8112 71.0324 71.0119 70.9056 71.2125C70.7789 71.4132 70.5887 71.5717 70.3458 71.6773C70.1029 71.7935 69.8283 71.8463 69.5325 71.8463C69.1523 71.8463 68.8249 71.7935 68.5714 71.6773C68.3179 71.5611 68.1066 71.4027 67.9588 71.1703C67.8109 70.9485 67.7369 70.695 67.7264 70.4098" fill="#231F20"/>
<path d="M71.0218 71.7831L72.6484 67.5476H73.2504L74.9826 71.7831H74.3383L73.8419 70.505H72.0675L71.6027 71.7831H71.0112H71.0218ZM72.247 70.0403H73.6835L73.2399 68.8679C73.1026 68.5088 73.0075 68.213 72.9336 67.9912C72.8807 68.2658 72.8068 68.5299 72.7012 68.8045L72.2364 70.0508L72.247 70.0403Z" fill="#231F20"/>
<path d="M75.7115 71.7831V68.044H74.3173V67.5476H77.6761V68.044H76.2713V71.7831H75.7115Z" fill="#231F20"/>
<path d="M78.5315 67.5476H77.9717V71.7831H78.5315V67.5476Z" fill="#231F20"/>
<path d="M78.9963 70.4204L79.5244 70.3781C79.5456 70.5894 79.6089 70.7584 79.704 70.8957C79.7991 71.033 79.9364 71.1492 80.1265 71.2231C80.3166 71.3076 80.5384 71.3499 80.7814 71.3499C80.9926 71.3499 81.1827 71.3182 81.3517 71.2548C81.5102 71.1914 81.6369 71.1069 81.7214 70.9907C81.8059 70.8851 81.8376 70.7584 81.8376 70.6316C81.8376 70.5049 81.7953 70.3887 81.7214 70.2831C81.6475 70.188 81.5207 70.1035 81.3412 70.0296C81.225 69.9873 80.9715 69.9134 80.5912 69.8183C80.2004 69.7233 79.9258 69.6388 79.7779 69.5543C79.5773 69.4487 79.4294 69.3113 79.3238 69.1529C79.2287 68.9945 79.1759 68.8255 79.1759 68.6248C79.1759 68.4136 79.2393 68.2129 79.3555 68.0227C79.4822 67.8326 79.6512 67.6953 79.8836 67.6003C80.1159 67.5052 80.38 67.4524 80.6652 67.4524C80.982 67.4524 81.2567 67.5052 81.4996 67.6003C81.7425 67.7059 81.9221 67.8538 82.0488 68.0439C82.1756 68.2446 82.2495 68.4664 82.2601 68.7093L81.7214 68.7515C81.6897 68.4875 81.5947 68.2762 81.4257 68.1495C81.2567 68.0122 81.0137 67.9488 80.6863 67.9488C80.3589 67.9488 80.0948 68.0122 79.9469 68.1389C79.7885 68.2657 79.7146 68.4136 79.7146 68.5825C79.7146 68.741 79.7674 68.8572 79.8836 68.9628C79.9892 69.0578 80.2744 69.1635 80.7285 69.2691C81.1827 69.3747 81.4996 69.4592 81.6686 69.5437C81.9115 69.6599 82.1016 69.7972 82.2178 69.9768C82.334 70.1458 82.3974 70.3464 82.3974 70.5788C82.3974 70.8112 82.334 71.0119 82.2073 71.2125C82.0805 71.4132 81.8904 71.5717 81.6475 71.6773C81.4045 71.7935 81.1299 71.8463 80.8342 71.8463C80.4539 71.8463 80.1265 71.7935 79.873 71.6773C79.6195 71.5611 79.4083 71.4027 79.2604 71.1703C79.1125 70.9485 79.0386 70.695 79.028 70.4098" fill="#231F20"/>
<path d="M82.8411 71.7831V67.5476H85.6929V68.044H83.4009V69.3537H85.3866V69.8607H83.4009V71.7831H82.8411Z" fill="#231F20"/>
<path d="M85.2808 71.7831L86.9073 67.5476H87.5094L89.2416 71.7831H88.6079L88.1114 70.505H86.337L85.8722 71.7831H85.2808ZM86.506 70.0403H87.9424L87.4988 68.8679C87.3615 68.5088 87.2665 68.213 87.2031 67.9912C87.1503 68.2658 87.0763 68.5299 86.9707 68.8045L86.506 70.0508V70.0403Z" fill="#231F20"/>
<path d="M92.252 70.2936L92.8118 70.4309C92.6956 70.8957 92.4844 71.2442 92.1781 71.4872C91.8717 71.7301 91.5021 71.8463 91.0585 71.8463C90.6148 71.8463 90.2346 71.7512 89.9494 71.5717C89.6642 71.3815 89.4424 71.1175 89.2946 70.7584C89.1467 70.4098 89.0728 70.0296 89.0728 69.6176C89.0728 69.174 89.1572 68.7938 89.3262 68.4558C89.4952 68.1284 89.7382 67.8749 90.0445 67.7059C90.3613 67.5369 90.6993 67.4524 91.069 67.4524C91.4915 67.4524 91.8506 67.558 92.1358 67.7798C92.421 68.0016 92.6217 68.2974 92.7379 68.6882L92.1886 68.8149C92.0936 68.5086 91.9457 68.2762 91.7661 68.1389C91.576 68.0016 91.3436 67.9277 91.0585 67.9277C90.731 67.9277 90.4564 68.0016 90.2452 68.1601C90.0234 68.3185 89.8755 68.5297 89.7804 68.7938C89.6959 69.0579 89.6431 69.3325 89.6431 69.6071C89.6431 69.9662 89.6959 70.2831 89.8016 70.5577C89.9072 70.8323 90.0656 71.0224 90.2874 71.1597C90.5092 71.297 90.7522 71.3604 91.0056 71.3604C91.3225 71.3604 91.5866 71.2654 91.8084 71.0858C92.0302 70.9062 92.1781 70.6422 92.252 70.2831" fill="#231F20"/>
<path d="M94.1742 71.7831V68.044H92.78V67.5476H96.1388V68.044H94.734V71.7831H94.1742Z" fill="#231F20"/>
<path d="M96.9944 67.5476H96.4346V71.7831H96.9944V67.5476Z" fill="#231F20"/>
<path d="M97.4909 69.7128C97.4909 69.0052 97.681 68.4559 98.0612 68.0651C98.4415 67.6638 98.9273 67.4736 99.5188 67.4736C99.9096 67.4736 100.269 67.5687 100.575 67.7588C100.892 67.9489 101.124 68.2024 101.293 68.5404C101.462 68.8784 101.536 69.2586 101.536 69.6811C101.536 70.1036 101.452 70.4944 101.272 70.8324C101.093 71.1704 100.85 71.4345 100.533 71.6035C100.216 71.783 99.8674 71.8675 99.4977 71.8675C99.0963 71.8675 98.7478 71.7725 98.4309 71.5823C98.114 71.3922 97.8817 71.1282 97.7127 70.7902C97.5542 70.4522 97.4697 70.1036 97.4697 69.7339M98.0507 69.7339C98.0507 70.2409 98.188 70.6529 98.4626 70.9486C98.7372 71.2443 99.0858 71.3922 99.4977 71.3922C99.9096 71.3922 100.269 71.2443 100.543 70.9486C100.818 70.6529 100.955 70.2304 100.955 69.6811C100.955 69.3326 100.892 69.0368 100.776 68.7728C100.66 68.5193 100.491 68.3186 100.258 68.1707C100.036 68.0334 99.7829 67.9595 99.4977 67.9595C99.0963 67.9595 98.7583 68.0968 98.4731 68.3714C98.188 68.646 98.0401 69.1002 98.0401 69.7339" fill="#231F20"/>
<path d="M101.969 71.7831V67.5476H102.55L104.768 70.8747V67.5476H105.307V71.7831H104.737L102.508 68.456V71.7831H101.969Z" fill="#231F20"/>
<path d="M106.838 71.7831L108.465 67.5476H109.067L110.799 71.7831H110.165L109.669 70.505H107.895L107.43 71.7831H106.838ZM108.064 70.0403H109.5L109.056 68.8679C108.919 68.5088 108.824 68.213 108.761 67.9912C108.708 68.2658 108.634 68.5299 108.528 68.8045L108.064 70.0508V70.0403Z" fill="#231F20"/>
<path d="M111.465 71.7831L110.334 67.5476H110.915L111.56 70.3255C111.623 70.6212 111.686 70.9064 111.739 71.1916C111.845 70.7374 111.908 70.4733 111.929 70.41L112.732 67.5476H113.408L114.021 69.6917C114.169 70.2198 114.285 70.7268 114.348 71.1916C114.401 70.9275 114.475 70.6212 114.559 70.2727L115.225 67.5476H115.795L114.633 71.7831H114.095L113.197 68.551C113.123 68.287 113.081 68.118 113.07 68.0546C113.028 68.2553 112.986 68.4137 112.943 68.551L112.046 71.7831H111.475H111.465Z" fill="#231F20"/>
<path d="M115.309 71.7831L116.936 67.5476H117.538L119.27 71.7831H118.626L118.13 70.505H116.355L115.89 71.7831H115.299H115.309ZM116.535 70.0403H117.971L117.527 68.8679C117.39 68.5088 117.295 68.213 117.221 67.9912C117.168 68.2658 117.094 68.5299 116.999 68.8045L116.535 70.0508V70.0403Z" fill="#231F20"/>
<path d="M119.471 71.7831V67.5476H121.351C121.731 67.5476 122.016 67.5899 122.217 67.6638C122.418 67.7377 122.565 67.875 122.692 68.0652C122.808 68.2553 122.872 68.4665 122.872 68.7095C122.872 69.0052 122.777 69.2587 122.576 69.4699C122.386 69.6812 122.08 69.8079 121.678 69.8607C121.826 69.9347 121.942 69.998 122.016 70.072C122.175 70.2198 122.333 70.41 122.481 70.6318L123.22 71.7831H122.513L121.953 70.8958C121.784 70.6423 121.657 70.4522 121.551 70.3149C121.446 70.1776 121.351 70.0825 121.266 70.0297C121.182 69.9769 121.097 69.9347 121.013 69.9135C120.949 69.903 120.844 69.8924 120.696 69.8924H120.052V71.7725H119.492L119.471 71.7831ZM120.031 69.4171H121.235C121.488 69.4171 121.689 69.396 121.837 69.3432C121.985 69.2904 122.09 69.2059 122.164 69.0897C122.238 68.9735 122.28 68.8468 122.28 68.7095C122.28 68.5088 122.206 68.3398 122.058 68.213C121.911 68.0863 121.678 68.0229 121.372 68.0229H120.031V69.4277V69.4171Z" fill="#231F20"/>
<path d="M123.442 71.7831V67.5476H124.9C125.227 67.5476 125.481 67.5687 125.65 67.611C125.893 67.6638 126.104 67.7694 126.273 67.9173C126.495 68.1074 126.664 68.3503 126.78 68.6461C126.896 68.9418 126.949 69.2798 126.949 69.6495C126.949 69.9664 126.907 70.2621 126.833 70.505C126.759 70.7585 126.664 70.9592 126.548 71.1282C126.431 71.2866 126.305 71.4239 126.157 71.5084C126.019 71.6035 125.85 71.6669 125.65 71.7197C125.449 71.7619 125.227 71.7936 124.963 71.7936H123.432L123.442 71.7831ZM124.002 71.2866H124.91C125.196 71.2866 125.407 71.2655 125.565 71.2127C125.724 71.1599 125.85 71.086 125.945 70.9909C126.072 70.8536 126.178 70.6846 126.252 70.4522C126.326 70.2304 126.357 69.9558 126.357 69.6389C126.357 69.1953 126.283 68.8573 126.136 68.6144C125.988 68.382 125.808 68.213 125.607 68.1391C125.46 68.0757 125.217 68.0546 124.879 68.0546H123.991V71.2972L124.002 71.2866Z" fill="#231F20"/>
<path d="M127.171 70.4204L127.699 70.3781C127.72 70.5894 127.783 70.7584 127.878 70.8957C127.973 71.033 128.111 71.1492 128.301 71.2231C128.491 71.3076 128.713 71.3499 128.956 71.3499C129.167 71.3499 129.357 71.3182 129.526 71.2548C129.684 71.1914 129.811 71.1069 129.896 70.9907C129.98 70.8851 130.012 70.7584 130.012 70.6316C130.012 70.5049 129.97 70.3887 129.896 70.2831C129.822 70.188 129.695 70.1035 129.515 70.0296C129.399 69.9873 129.146 69.9134 128.766 69.8183C128.375 69.7233 128.1 69.6388 127.952 69.5543C127.752 69.4487 127.604 69.3113 127.498 69.1529C127.403 68.9945 127.35 68.8255 127.35 68.6248C127.35 68.4136 127.414 68.2129 127.53 68.0227C127.657 67.8326 127.826 67.6953 128.058 67.6003C128.29 67.5052 128.554 67.4524 128.839 67.4524C129.156 67.4524 129.431 67.5052 129.674 67.6003C129.917 67.7059 130.096 67.8538 130.223 68.0439C130.35 68.2446 130.424 68.4664 130.434 68.7093L129.896 68.7515C129.864 68.4875 129.769 68.2762 129.6 68.1495C129.431 68.0122 129.188 67.9488 128.861 67.9488C128.533 67.9488 128.269 68.0122 128.121 68.1389C127.963 68.2657 127.889 68.4136 127.889 68.5825C127.889 68.741 127.942 68.8572 128.058 68.9628C128.164 69.0578 128.449 69.1635 128.903 69.2691C129.357 69.3747 129.674 69.4592 129.843 69.5437C130.086 69.6599 130.276 69.7972 130.392 69.9768C130.508 70.1458 130.572 70.3464 130.572 70.5788C130.572 70.8112 130.508 71.0119 130.382 71.2125C130.255 71.4132 130.065 71.5717 129.822 71.6773C129.579 71.7935 129.304 71.8463 129.008 71.8463C128.628 71.8463 128.301 71.7935 128.047 71.6773C127.794 71.5611 127.583 71.4027 127.435 71.1703C127.287 70.9485 127.213 70.695 127.202 70.4098" fill="#231F20"/>
<path d="M6.83513 45.2717H0.540039V65.604H6.83513V45.2717Z" fill="#231F20"/>
<path d="M21.4322 57.281L26.9351 58.9498C26.5654 60.4919 25.9845 61.7805 25.1923 62.8156C24.4002 63.8507 23.4073 64.6323 22.2349 65.1604C21.0519 65.6885 19.5521 65.9525 17.7354 65.9525C15.5279 65.9525 13.7217 65.6357 12.317 64.9914C10.9122 64.3471 9.7081 63.2169 8.69412 61.6009C7.68015 59.9849 7.1626 57.9147 7.1626 55.3903C7.1626 52.0315 8.06039 49.4438 9.84541 47.6271C11.6304 45.8209 14.1654 44.9126 17.4397 44.9126C20.0063 44.9126 22.0131 45.4301 23.4813 46.4652C24.9494 47.5003 26.0373 49.0952 26.745 51.2394L21.1998 52.4752C21.0097 51.852 20.7984 51.4084 20.5872 51.1232C20.2386 50.6373 19.8056 50.2676 19.2986 50.0142C18.7916 49.7501 18.2213 49.6233 17.5875 49.6233C16.1616 49.6233 15.0737 50.1937 14.3132 51.345C13.7429 52.19 13.4471 53.5314 13.4471 55.3481C13.4471 57.6084 13.7851 59.1505 14.4717 59.9849C15.1582 60.8193 16.1194 61.2418 17.3552 61.2418C18.5909 61.2418 19.4676 60.9038 20.0802 60.2278C20.6928 59.5518 21.1364 58.5696 21.4216 57.2915" fill="#231F20"/>
<path d="M25.8577 58.876L31.8359 58.5064C31.9626 59.4781 32.2267 60.2174 32.6281 60.7244C33.2724 61.5483 34.2018 61.9602 35.4059 61.9602C36.3037 61.9602 36.9903 61.749 37.4761 61.3265C37.962 60.904 38.2049 60.4181 38.2049 59.8689C38.2049 59.3197 37.9726 58.8655 37.5078 58.4536C37.0431 58.0416 35.9763 57.6403 34.2863 57.2706C31.5296 56.6474 29.565 55.8236 28.3926 54.799C27.2096 53.7745 26.6181 52.4648 26.6181 50.8699C26.6181 49.8242 26.9245 48.8314 27.5265 47.9125C28.1285 46.983 29.0475 46.2542 30.2621 45.7261C31.4768 45.198 33.1456 44.9233 35.2581 44.9233C37.8564 44.9233 39.8421 45.4092 41.2046 46.3704C42.5671 47.3315 43.3804 48.8736 43.6445 50.9861L37.7191 51.3346C37.5606 50.4157 37.2332 49.7503 36.7262 49.3384C36.2192 48.9264 35.5221 48.7152 34.6349 48.7152C33.9061 48.7152 33.3569 48.8736 32.9872 49.1799C32.6175 49.4862 32.4274 49.8665 32.4274 50.3101C32.4274 50.6375 32.5752 50.9227 32.8816 51.1867C33.1773 51.4508 33.885 51.7043 34.994 51.9367C37.7402 52.5281 39.7048 53.1302 40.8983 53.7322C42.0813 54.3343 42.9474 55.0948 43.4966 55.9926C44.0353 56.8903 44.3099 57.8938 44.3099 59.0028C44.3099 60.3125 43.9508 61.5166 43.2325 62.6151C42.5143 63.7135 41.5003 64.548 40.2117 65.1183C38.9126 65.6887 37.286 65.9739 35.3109 65.9739C31.857 65.9739 29.4594 65.3084 28.1285 63.9776C26.7977 62.6468 26.0372 60.9568 25.8682 58.8972" fill="#231F20"/>
<path d="M56.3826 62.2452H49.2531L48.2603 65.604H41.849L49.4961 45.2717H56.3509L63.998 65.604H57.4177L56.4038 62.2452H56.3826ZM55.0835 57.8513L52.8337 50.5423L50.6157 57.8513H55.0835Z" fill="#231F20"/>
<path d="M82.1016 65.604H65.0225C65.2231 63.9141 65.8146 62.3297 66.8075 60.851C67.8003 59.3618 69.6593 57.6084 72.3843 55.591C74.0532 54.3553 75.12 53.4152 75.5847 52.7709C76.0494 52.1266 76.2818 51.514 76.2818 50.9437C76.2818 50.3205 76.0494 49.7818 75.5953 49.3488C75.1305 48.9052 74.5496 48.6834 73.8525 48.6834C73.1554 48.6834 72.5322 48.9157 72.078 49.3699C71.6133 49.8241 71.307 50.6374 71.1486 51.7886L65.445 51.3239C65.6668 49.7185 66.0787 48.4721 66.6702 47.5743C67.2722 46.6765 68.1066 45.99 69.1945 45.5041C70.2825 45.0288 71.7823 44.7859 73.7046 44.7859C75.6269 44.7859 77.2641 45.0183 78.3731 45.4724C79.4822 45.9266 80.3588 46.6343 81.0031 47.5743C81.6369 48.5144 81.9537 49.5811 81.9537 50.7535C81.9537 51.9999 81.584 53.1934 80.8553 54.3341C80.1265 55.4749 78.7956 56.7212 76.8627 58.0732C75.722 58.8653 74.951 59.4146 74.5707 59.742C74.1799 60.0589 73.7257 60.4708 73.2082 60.9883H82.091V65.6252L82.1016 65.604Z" fill="#EF4135"/>
<path d="M83.1472 55.2743C83.1472 51.3874 83.8443 48.6624 85.2491 47.0991C86.6539 45.5465 88.7875 44.7649 91.6498 44.7649C93.0335 44.7649 94.1636 44.9339 95.0403 45.2719C95.9275 45.6099 96.6458 46.0535 97.2055 46.6027C97.7653 47.152 98.1984 47.7223 98.5258 48.3244C98.8427 48.9264 99.1068 49.6235 99.2969 50.4262C99.6771 51.9578 99.8672 53.5527 99.8672 55.2004C99.8672 58.9183 99.2441 61.6328 97.9872 63.3544C96.7303 65.076 94.565 65.9422 91.4914 65.9422C89.7697 65.9422 88.3755 65.6675 87.3193 65.1183C86.2525 64.5691 85.3864 63.7663 84.7104 62.6996C84.214 61.9496 83.8338 60.9145 83.5591 59.6048C83.2845 58.2951 83.1472 56.8481 83.1472 55.2637M88.7875 55.2743C88.7875 57.8832 89.0198 59.6682 89.474 60.6188C89.9387 61.5694 90.6042 62.0447 91.4808 62.0447C92.0617 62.0447 92.5582 61.844 92.9807 61.4426C93.4031 61.0413 93.72 60.397 93.9207 59.5203C94.1214 58.6437 94.227 57.2811 94.227 55.4222C94.227 52.6971 93.9946 50.8699 93.5405 49.9404C93.0757 49.0003 92.3892 48.5356 91.4703 48.5356C90.5513 48.5356 89.8437 49.0109 89.4318 49.9721C89.0093 50.9227 88.798 52.6971 88.798 55.2743" fill="#EF4135"/>
<path d="M112.616 44.7754V65.6041H106.86V51.9577C105.93 52.6654 105.022 53.2357 104.156 53.6793C103.279 54.123 102.191 54.5349 100.881 54.9363V50.2677C102.814 49.6446 104.325 48.8947 105.391 48.018C106.469 47.1413 107.303 46.064 107.905 44.7754H112.616Z" fill="#EF4135"/>
<path d="M18.3374 58.9604C18.3374 58.9604 20.0274 57.281 20.0274 55.2108C20.0274 53.1406 18.3374 51.4612 18.3374 51.4612C18.3374 51.4612 19.3831 53.5525 19.3831 55.2108C19.3831 56.9958 18.3374 58.9604 18.3374 58.9604Z" fill="#231F20"/>
<path d="M16.5947 52.9505C16.5947 53.3308 16.2778 53.6476 15.8975 53.6476C15.5173 53.6476 15.2004 53.3308 15.2004 52.9505C15.2004 52.5703 15.5067 52.2534 15.8975 52.2534C16.2883 52.2534 16.5947 52.5703 16.5947 52.9505Z" fill="#231F20"/>
<path d="M16.5947 57.2706C16.5947 57.6508 16.2778 57.9677 15.8975 57.9677C15.5173 57.9677 15.2004 57.6614 15.2004 57.2706C15.2004 56.8798 15.5067 56.5735 15.8975 56.5735C16.2883 56.5735 16.5947 56.8798 16.5947 57.2706Z" fill="#231F20"/>
<path d="M114.295 49.9403L119.439 50.5952C119.439 50.5952 119.735 48.2398 121.942 48.2398C124.15 48.2398 125.703 52.9505 120.738 52.9505V56.4361C120.738 56.4361 124.953 55.6122 124.953 59.4674C124.953 63.3226 119.386 63.5339 119.386 59.4674L113.873 60.1645C113.873 60.1645 114.929 65.8787 122.449 65.8787C130.519 65.8787 130.519 59.1611 130.519 59.1611C130.519 59.1611 130.466 55.2003 126.706 54.2919C126.706 54.2919 129.463 52.3907 129.463 49.8769C129.463 47.3631 126.706 44.6169 121.942 44.6169C116.471 44.6169 114.295 48.0814 114.295 49.9297" fill="#EF4135"/>
</g>
<defs>
<clipPath id="clip0_1375_15842">
<rect width="130" height="71.2739" fill="white" transform="translate(0.540039 0.583008)"/>
</clipPath>
</defs>
</svg>
