<svg width="130" height="55" viewBox="0 0 130 55" fill="none" xmlns="http://www.w3.org/2000/svg">
<g clip-path="url(#clip0_1372_14899)">
<path d="M10.1321 15.5149V1.15407H9.68694L9.13582 2.16092C9.13582 2.16092 7.82162 0.507568 5.40518 0.507568C3.16892 0.507568 1.00685 2.72264 0.720691 5.51002C0.445133 8.308 0.392141 14.7942 0.392141 15.5679C0.392141 16.3416 0.52992 19.8709 1.346 21.4818C2.16207 23.0928 4.06979 25.2549 4.6421 26.1345C5.21441 27.0142 7.11153 29.3564 7.11153 32.5042V49.1755C7.11153 51.6131 5.09783 52.09 4.34534 52.09C3.59286 52.09 1.346 51.3164 1.346 48.0626V36.2454H0V52.3126H0.710093L1.15523 51.6873C1.15523 51.6873 2.94636 53.2453 4.52552 53.2453C6.87836 53.2453 10.344 51.9629 10.344 47.4479V32.2074C10.344 30.7766 10.2275 27.8833 8.52111 25.6152C6.81477 23.3577 4.47253 20.5068 4.09098 18.9064C3.69884 17.2955 3.78363 6.66525 3.78363 5.81737C3.78363 4.9695 4.05919 0.740733 6.49682 1.33424C8.93445 1.93835 8.84966 4.2912 8.84966 5.05429V15.5043L10.1321 15.5255V15.5149Z" fill="#B18535"/>
<path d="M12.1564 10.364H16.4063V40.4105C16.4063 42.4348 17.7523 42.5938 18.1762 42.5938C18.8333 42.5938 20.0416 41.7883 20.0416 40.9934V10.9893H18.5684V10.4064H22.7442V42.615H24.2703V43.2933H20.0628V42.191C20.0628 42.191 19.0559 43.7596 17.0952 43.7596C15.1345 43.7596 13.5447 41.8731 13.5447 39.5308V10.9893H12.1458L12.1669 10.364H12.1564Z" fill="#B18535"/>
<path d="M25.1288 10.364H29.3576V11.4662C29.3576 11.4662 30.4174 9.87646 31.9224 9.87646C33.4274 9.87646 35.1549 10.9363 35.5258 13.4587C35.9074 15.9917 35.759 24.4069 35.759 28.1481C35.759 31.8894 35.8332 39.0433 35.5576 40.5165C35.2927 41.9897 33.6075 43.6112 31.9436 43.6112C30.2796 43.6112 29.2198 41.6823 29.2198 41.6823V52.7047H30.428V53.3088H24.8427V52.6729H26.496V10.9893H25.097V10.364H25.1288ZM29.3576 14.7411C29.3576 14.7411 29.2728 38.1 29.2728 39.8382C29.2728 41.5763 30.5552 42.5196 31.3501 42.5196C32.1449 42.5196 33.0458 41.7989 33.0458 40.2833V13.4905C33.0458 12.5791 32.855 10.7349 31.615 10.7349C30.0253 10.7349 29.3576 13.4163 29.3576 14.7305" fill="#B18535"/>
<path d="M47.6186 25.1171H41.2384V40.3576C41.2384 41.9473 42.595 42.9648 43.9939 42.9648C45.3929 42.9648 46.4528 41.3856 46.4528 39.7217V30.2467H47.3218V39.6793C47.3218 40.4 46.9721 43.6749 43.358 43.6749C39.744 43.6749 38.5676 41.0359 38.5676 38.9586V15.4195C38.5676 10.735 42.4572 9.79175 43.2097 9.79175C43.9622 9.79175 47.6292 10.1733 47.6292 15.3771V25.1065L47.6186 25.1171ZM45.1704 24.4811V15.1227C45.1704 10.894 44.1105 10.4171 43.2097 10.4171C42.3088 10.4171 41.2808 10.9576 41.2808 15.0486V24.5235L45.1704 24.4811Z" fill="#B18535"/>
<path d="M49.7171 10.417H53.7233V12.1021C53.7233 12.1021 54.9209 10.2898 56.0973 10.2898C57.2737 10.2898 58.0262 13.1196 58.0262 16.2037C58.0262 18.9169 57.0088 19.5316 56.7438 19.5316C56.4789 19.5316 55.2706 18.6201 55.2706 14.6987C55.2706 12.2081 56.1397 11.1483 56.1397 11.1483C56.1397 11.1483 56.2563 10.9045 55.6522 10.9893C55.0481 11.0741 53.7233 12.5049 53.7233 17.147V42.509H55.6098V43.2933H49.166V42.4666H51.0843V10.9893H49.7277V10.4064L49.7171 10.417Z" fill="#B18535"/>
<path d="M58.6197 0.125977H62.7531V12.1552C62.7531 12.1552 63.9083 10.0355 65.9538 10.0355C67.9993 10.0355 69.1651 12.3565 69.1651 15.2499V37.178C69.1651 41.3114 68.1583 43.6749 65.3603 43.6749C63.5586 43.6749 62.7955 42.1911 62.7955 42.1911V43.3145H58.3442V42.562H59.9869V0.846669H58.6197V0.125977ZM62.7849 13.5224C62.7849 13.5224 62.8273 39.0222 62.8273 40.3788C62.8273 41.7353 63.6328 42.668 65.0742 42.668C66.5155 42.668 66.6745 39.5733 66.6745 37.4112V14.9532C66.6745 14.5504 66.8759 11.2649 65.1484 11.2649C63.4208 11.2649 62.7849 13.5118 62.7849 13.5118" fill="#B18535"/>
<path d="M77.2199 43.2616V42.4562H75.2592V16.967C75.2592 14.6459 75.7044 12.5156 76.1495 11.8797C76.584 11.2332 77.2729 10.5973 77.6757 11.2332C77.6757 11.2332 76.7536 12.1129 76.7536 15.0805C76.7536 18.048 77.9512 19.4894 78.2692 19.4894C78.5871 19.4894 79.5198 18.7369 79.5198 14.9639C79.5198 12.8442 79.2442 10.6185 77.5485 10.1946C76.584 9.95083 75.2168 11.8373 75.2168 11.8373V10.4172H71.1682V11.0001H72.493V42.4774H71.0941V43.3146L77.2199 43.2828V43.2616Z" fill="#B18535"/>
<path d="M91.496 43.2298L87.2036 43.304V42.064C87.2036 42.064 86.3557 43.7809 84.4056 43.7809C81.5123 43.7809 81.0353 41.2161 81.0353 39.8489V29.4624C81.0353 28.339 81.0777 27.5759 81.5971 25.7318C82.1164 23.8877 87.458 20.475 87.458 20.475V14.2219C87.458 12.0916 86.6207 10.5337 85.2111 10.5337C83.8015 10.5337 83.155 12.2188 83.155 12.2188C83.155 12.2188 83.9181 13.7026 83.9181 15.4619C83.9181 18.5885 83.0702 19.5105 82.7947 19.5105C82.5191 19.5105 81.2685 19.3092 81.2685 15.7481C81.2685 10.6609 84.9144 9.81299 85.635 9.81299C86.3557 9.81299 90.044 10.2157 90.044 14.9108V42.4561H91.4854V43.2192L91.496 43.2298ZM87.4156 38.7785V21.5348C87.4156 21.5348 86.8115 22.0118 85.9742 22.6583C85.1369 23.2942 83.6108 25.1807 83.6108 27.4699V39.6157C83.6108 40.9829 83.5684 42.4667 85.4125 42.4667C87.2566 42.4667 87.4262 39.1388 87.4262 38.7785" fill="#B18535"/>
<path d="M92.3756 10.4277H96.5408V11.4663C96.5408 11.4663 97.3039 10.0991 99.8263 10.0991C102.349 10.0991 103.08 12.2612 103.08 13.745V42.4455H104.638V43.2934H99.0632V42.4455H100.377V13.5966C100.377 11.106 99.1056 11.1484 98.7771 11.1484C98.4485 11.1484 96.6044 11.4663 96.6044 14.1901V42.4561H97.7278V43.304H92.2697V42.4561H93.7534V10.9894H92.3438V10.4277H92.3756Z" fill="#B18535"/>
<path d="M117.271 43.2297L112.82 43.3145V42.0321C112.82 42.0321 112.544 43.802 110.011 43.802C107.478 43.802 106.482 41.3114 106.482 38.312V15.2817C106.482 11.7948 108.369 10.1096 110.329 10.1096C112.29 10.1096 112.979 12.0386 112.979 12.0386V0.889022H111.336V0.284912H115.788V42.456H117.271V43.2191V43.2297ZM112.703 39.2235C112.703 39.2235 112.746 16.1613 112.746 14.2006C112.746 12.2399 111.188 11.2755 110.584 11.2755C109.98 11.2755 108.983 11.7948 108.983 13.4799V38.8101C108.983 41.7777 109.227 42.8587 110.743 42.8587C112.258 42.8587 112.703 40.6543 112.703 39.2129" fill="#B18535"/>
<path d="M118.321 30.6812H119.359C119.359 30.6812 119.561 39.7853 119.995 41.0677C120.44 42.3501 120.716 42.8694 121.956 42.9012C123.206 42.9436 123.8 41.6188 123.8 40.0185V30.7554C123.8 29.8334 123.397 29.1127 122.56 28.074C121.712 27.0354 119.592 24.6719 119.232 24.142C118.872 23.6227 118.427 22.4569 118.427 21.0897V14.0735C118.427 11.6359 120.355 9.86597 122.242 9.86597C124.128 9.86597 124.807 11.1908 124.807 11.1908L125.252 10.4171H125.814V22.1813H124.934C124.934 22.1813 124.775 12.8759 124.415 11.8797C124.054 10.8728 123.535 10.7986 123.016 10.7986C122.496 10.7986 121.214 11.1272 121.214 13.1621V20.0616C121.214 21.1427 121.458 22.3403 122.253 23.3048C123.058 24.2692 124.574 26.0709 125.093 26.675C125.612 27.2792 126.46 28.1588 126.46 30.003V39.9443C126.46 43.4311 123.058 43.8763 122.253 43.8763C121.447 43.8763 120.44 43.5159 119.486 42.4773L118.691 43.3252H118.331V30.6918L118.321 30.6812Z" fill="#B18535"/>
<path d="M128.453 10.4169H128.707C128.834 10.4169 128.919 10.4063 128.961 10.364C129.004 10.3322 129.036 10.2792 129.036 10.2156C129.036 10.1732 129.025 10.1414 129.004 10.1096C128.983 10.0778 128.951 10.0566 128.908 10.0354C128.877 10.0142 128.802 10.0142 128.696 10.0142H128.453V10.4063V10.4169ZM128.241 11.1588V9.84463H128.696C128.855 9.84463 128.961 9.85523 129.036 9.88703C129.11 9.90822 129.163 9.95062 129.205 10.0142C129.248 10.0778 129.258 10.1414 129.258 10.205C129.258 10.3004 129.226 10.3852 129.152 10.4593C129.089 10.5335 129.004 10.5759 128.877 10.5759C128.93 10.5971 128.961 10.6183 128.993 10.6501C129.046 10.7031 129.12 10.7879 129.195 10.9151L129.354 11.1694H129.099L128.983 10.9681C128.887 10.7985 128.813 10.7031 128.771 10.6607C128.728 10.6289 128.665 10.6183 128.59 10.6183H128.474V11.18H128.262L128.241 11.1588ZM128.781 9.46309C128.612 9.46309 128.442 9.50548 128.283 9.59027C128.114 9.67506 127.997 9.80224 127.902 9.97181C127.817 10.1308 127.764 10.3004 127.764 10.4805C127.764 10.6607 127.817 10.8303 127.902 10.9893C127.986 11.1482 128.114 11.2754 128.283 11.3708C128.442 11.4556 128.622 11.498 128.792 11.498C128.972 11.498 129.142 11.4556 129.301 11.3708C129.46 11.2754 129.587 11.1482 129.682 10.9893C129.767 10.8303 129.82 10.6607 129.82 10.4805C129.82 10.3004 129.767 10.1308 129.682 9.97181C129.587 9.80224 129.46 9.67506 129.301 9.59027C129.142 9.49488 128.972 9.46309 128.802 9.46309M128.802 9.26172C129.014 9.26172 129.216 9.31471 129.407 9.4207C129.608 9.52668 129.756 9.67506 129.862 9.87643C129.979 10.0672 130.032 10.2792 130.032 10.4911C130.032 10.7031 129.979 10.9045 129.873 11.1058C129.767 11.2966 129.608 11.4556 129.417 11.5616C129.226 11.6676 129.014 11.7206 128.802 11.7206C128.59 11.7206 128.389 11.6676 128.188 11.5616C127.997 11.4556 127.849 11.2966 127.732 11.1058C127.626 10.9045 127.573 10.7031 127.573 10.4911C127.573 10.2792 127.626 10.0778 127.743 9.87643C127.849 9.67506 128.008 9.52668 128.198 9.4207C128.389 9.31471 128.601 9.26172 128.802 9.26172Z" fill="#B18535"/>
<path d="M124.34 47.1618C124.054 46.8438 123.673 46.6849 123.196 46.6849C122.91 46.6849 122.645 46.7379 122.401 46.8332C122.157 46.9286 121.913 47.1088 121.67 47.342L121.977 47.6705C122.2 47.4585 122.411 47.3102 122.592 47.236C122.772 47.1618 122.984 47.1194 123.206 47.1194C123.546 47.1194 123.81 47.236 124.001 47.4797C124.192 47.7129 124.277 48.0521 124.277 48.4654C124.277 48.9529 124.15 49.3451 123.874 49.6418C123.609 49.9386 123.27 50.087 122.835 50.087H122.433V50.5427H122.804C123.312 50.5427 123.705 50.6805 123.969 50.956C124.234 51.2316 124.362 51.6131 124.362 52.1007C124.362 52.5882 124.256 53.0227 124.022 53.3089C123.8 53.6056 123.482 53.754 123.079 53.754C122.581 53.754 122.115 53.6374 121.701 53.3937V53.9342C122.062 54.1144 122.517 54.1991 123.079 54.1991C123.641 54.1991 124.075 54.019 124.393 53.6374C124.711 53.2559 124.87 52.7578 124.87 52.1219C124.87 51.6343 124.764 51.2422 124.531 50.9242C124.298 50.6063 123.98 50.3943 123.577 50.3095V50.2671C123.969 50.1188 124.266 49.8962 124.468 49.5782C124.658 49.2603 124.764 48.8787 124.764 48.4124C124.764 47.8931 124.616 47.4797 124.34 47.1618ZM119.243 46.7908H118.84L117.43 48.0839L117.685 48.4018L118.31 47.8295C118.564 47.5751 118.734 47.4056 118.797 47.3102C118.766 47.8189 118.755 48.2958 118.755 48.7304V54.1038H119.243V46.8014V46.7908ZM113.286 47.9673C113.456 47.4268 113.731 47.1618 114.113 47.1618C114.844 47.1618 115.205 48.2534 115.205 50.4367C115.205 52.62 114.844 53.7328 114.113 53.7328C113.731 53.7328 113.456 53.4573 113.286 52.9167C113.106 52.3762 113.021 51.5495 113.021 50.4473C113.021 49.3451 113.106 48.5184 113.286 47.9779M115.332 47.6281C115.077 47.0028 114.664 46.6955 114.113 46.6955C113.053 46.6955 112.513 47.9461 112.513 50.4367C112.513 51.7721 112.64 52.726 112.894 53.3195C113.148 53.9024 113.551 54.1991 114.113 54.1991C114.643 54.1991 115.046 53.8812 115.311 53.2453C115.576 52.6094 115.713 51.6661 115.713 50.4367C115.713 49.2073 115.576 48.2428 115.332 47.6175M111.114 53.6586H108.39V53.6162L109.736 51.6237C110.075 51.1362 110.329 50.7229 110.478 50.4155C110.626 50.1082 110.743 49.7902 110.827 49.4722C110.902 49.1437 110.944 48.8045 110.944 48.4336C110.944 47.9037 110.806 47.4797 110.52 47.1618C110.245 46.8544 109.842 46.6955 109.344 46.6955C109.068 46.6955 108.814 46.7273 108.602 46.8014C108.39 46.8756 108.157 47.0028 107.923 47.1724L108.188 47.5433C108.369 47.4056 108.538 47.2996 108.708 47.236C108.888 47.1724 109.079 47.13 109.312 47.13C109.662 47.13 109.937 47.2466 110.139 47.4797C110.34 47.7129 110.446 48.0309 110.446 48.423C110.446 48.9423 110.372 49.4087 110.213 49.822C110.054 50.2353 109.757 50.7865 109.301 51.4753L107.817 53.7116V54.1038H111.103V53.6586H111.114ZM103.292 49.5358C103.472 49.8856 103.568 50.3625 103.568 50.956H101.48C101.543 49.6524 101.893 49.0059 102.561 49.0059C102.868 49.0059 103.112 49.1861 103.292 49.5358ZM103.864 53.8812V53.4149C103.483 53.6374 103.122 53.754 102.794 53.754C102.349 53.754 102.031 53.5632 101.808 53.1711C101.596 52.7684 101.48 52.1854 101.469 51.3906H104.034V50.956C104.034 50.2247 103.907 49.6524 103.642 49.2179C103.377 48.7834 103.027 48.5714 102.582 48.5714C102.063 48.5714 101.67 48.8151 101.384 49.3027C101.119 49.7902 100.971 50.5003 100.971 51.4224C100.971 52.2914 101.13 52.9697 101.437 53.4679C101.745 53.9554 102.19 54.1991 102.762 54.1991C103.144 54.1991 103.504 54.0932 103.854 53.8812M99.3388 54.1567C99.4978 54.125 99.6355 54.072 99.7415 54.019V53.6162C99.466 53.7222 99.2116 53.7752 98.9784 53.7752C98.1835 53.7752 97.7808 52.9803 97.7808 51.4012C97.7808 49.822 98.1835 49.0165 98.9784 49.0165C99.1692 49.0165 99.3706 49.0695 99.5931 49.1755L99.7733 48.7622C99.5507 48.635 99.2752 48.582 98.936 48.582C98.3849 48.582 97.9822 48.8257 97.696 49.3027C97.4205 49.7902 97.2721 50.4897 97.2721 51.4224C97.2721 52.355 97.4099 53.0227 97.6854 53.4996C97.961 53.966 98.3743 54.1991 98.9148 54.1991C99.0314 54.1991 99.1692 54.1885 99.3282 54.1461M95.0994 47.5115C95.1736 47.5857 95.2478 47.6387 95.3432 47.6387C95.428 47.6387 95.5022 47.5963 95.5551 47.5115C95.6081 47.4162 95.6399 47.3102 95.6399 47.1618C95.6399 47.0134 95.6081 46.8862 95.5551 46.812C95.5022 46.7273 95.428 46.6849 95.3432 46.6849C95.2478 46.6849 95.1736 46.7273 95.0994 46.812C95.0464 46.8862 95.0146 47.0134 95.0146 47.1618C95.0146 47.3102 95.0464 47.4162 95.0994 47.5115ZM95.5551 48.6668H95.0888V54.0932H95.5551V48.6668ZM90.8389 49.5994C91.019 49.2073 91.3052 49.0059 91.7185 49.0059C92.4922 49.0059 92.8843 49.7902 92.8843 51.3588C92.8843 52.9273 92.4922 53.7328 91.7185 53.7328C91.3264 53.7328 91.0296 53.5314 90.8389 53.1393C90.6481 52.7366 90.5527 52.1536 90.5527 51.3588C90.5527 50.5639 90.6481 49.9916 90.8283 49.5994M92.9373 49.2921C92.6512 48.8045 92.2484 48.5608 91.7185 48.5608C90.6163 48.5608 90.0652 49.4934 90.0652 51.3588C90.0652 52.2702 90.2029 52.9697 90.4891 53.4573C90.7753 53.9448 91.178 54.1779 91.7079 54.1779C92.2378 54.1779 92.6618 53.9342 92.9479 53.4573C93.2447 52.9697 93.3825 52.2702 93.3825 51.3588C93.3825 50.4473 93.2341 49.7796 92.9479 49.2921M88.38 54.0826V50.3413C88.38 49.7478 88.2846 49.3027 88.0939 48.9953C87.8925 48.6986 87.5745 48.5502 87.1188 48.5502C86.8857 48.5502 86.6631 48.6244 86.4405 48.7728C86.2285 48.9211 86.0696 49.1331 85.953 49.3981H85.9212C85.9318 49.2497 85.9424 49.0483 85.9424 48.8257V46.3033H85.4655V54.0826H85.9424V51.115C85.9424 50.3731 86.0378 49.8432 86.2286 49.504C86.4299 49.1649 86.7161 48.9953 87.0976 48.9953C87.3944 48.9953 87.5957 49.1013 87.7229 49.3027C87.8501 49.504 87.9137 49.8538 87.9137 50.3413V54.0826H88.38ZM83.7485 47.4056L83.9711 46.971C83.6425 46.7591 83.2504 46.6637 82.8053 46.6637C82.0846 46.6637 81.5229 46.9922 81.1095 47.6599C80.6856 48.3276 80.4842 49.2497 80.4842 50.4155C80.4842 51.1998 80.5796 51.8675 80.7704 52.4398C80.9611 53.0121 81.2261 53.4361 81.5759 53.7434C81.9256 54.0508 82.3283 54.1991 82.7947 54.1991C83.2186 54.1991 83.5578 54.125 83.8227 53.9766V53.5314C83.5472 53.6586 83.2186 53.7328 82.8477 53.7328C82.4767 53.7328 82.1482 53.6056 81.8726 53.3407C81.5971 53.0757 81.3851 52.6942 81.2261 52.196C81.0777 51.6979 81.0035 51.115 81.0035 50.4473C81.0035 49.4193 81.1625 48.6138 81.4911 48.0309C81.809 47.448 82.2436 47.1512 82.8053 47.1512C83.155 47.1512 83.4836 47.2466 83.7591 47.4268M76.5204 52.1536C76.4674 51.9841 76.3614 51.8251 76.2237 51.6873C76.0859 51.5495 75.8421 51.3588 75.4818 51.115C75.1108 50.8818 74.8777 50.6911 74.7611 50.5321C74.6445 50.3731 74.5915 50.1717 74.5915 49.928C74.5915 49.663 74.6763 49.4405 74.8459 49.2709C75.0048 49.1013 75.238 49.0271 75.5136 49.0271C75.8209 49.0271 76.1071 49.1225 76.3826 49.3027L76.6264 48.8893C76.3297 48.6774 75.9587 48.582 75.5242 48.582C75.1214 48.582 74.7823 48.7092 74.5173 48.9635C74.2524 49.2179 74.1146 49.5464 74.1146 49.928C74.1146 50.1717 74.157 50.3731 74.2312 50.5427C74.3054 50.7123 74.4113 50.8712 74.5385 51.009C74.6763 51.1574 74.9201 51.3376 75.291 51.5707C75.609 51.7721 75.8315 51.9629 75.9481 52.1324C76.0647 52.302 76.1177 52.5034 76.1177 52.7366C76.1177 53.0439 76.0329 53.2877 75.8845 53.4784C75.7255 53.6586 75.503 53.7434 75.2168 53.7434C75.0154 53.7434 74.8035 53.7116 74.6021 53.6374C74.3901 53.5632 74.2312 53.4573 74.1146 53.3301V53.8812C74.2206 53.9554 74.3689 54.0296 74.5491 54.0932C74.7293 54.1567 74.9519 54.1885 75.1956 54.1885C75.6513 54.1885 75.9905 54.0614 76.2343 53.807C76.478 53.542 76.5946 53.1817 76.5946 52.726C76.5946 52.5034 76.5628 52.302 76.4886 52.1324M72.9382 46.7803H72.3658C72.2811 47.4903 72.1115 48.2746 71.8571 49.1225H72.1751C72.5142 48.3594 72.7898 47.6175 73.0123 46.8862L72.9382 46.7803ZM68.3173 53.5102C68.1795 53.3301 68.1053 53.0333 68.1053 52.6412C68.1053 52.2278 68.2113 51.9099 68.4232 51.6873C68.6352 51.4648 68.9638 51.3482 69.3983 51.3164L69.96 51.2846V51.8463C69.96 52.461 69.8646 52.9379 69.6739 53.2771C69.4831 53.6162 69.2181 53.7858 68.8896 53.7858C68.6458 53.7858 68.455 53.6904 68.3173 53.5102ZM70.4369 54.0826V50.3837C70.4369 49.7266 70.331 49.2603 70.1402 48.9741C69.9494 48.688 69.6209 48.5502 69.1757 48.5502C68.7624 48.5502 68.3597 48.6668 67.9887 48.8999L68.2007 49.2709C68.5292 49.0695 68.8366 48.9635 69.1439 48.9635C69.4513 48.9635 69.6527 49.0801 69.7798 49.3133C69.907 49.5464 69.9706 49.9174 69.9706 50.4155V50.8712L69.3877 50.8924C68.826 50.9242 68.3914 51.0832 68.0841 51.38C67.7767 51.6873 67.6284 52.0901 67.6284 52.6094C67.6284 53.0863 67.7343 53.4573 67.9463 53.7434C68.1583 54.0296 68.4444 54.1673 68.7942 54.1673C69.3135 54.1673 69.7056 53.8812 69.9706 53.3089H69.9918L70.0554 54.072H70.4475L70.4369 54.0826ZM65.5299 47.5009C65.5935 47.5857 65.6783 47.6281 65.7736 47.6281C65.8584 47.6281 65.9326 47.5857 65.9856 47.5009C66.0386 47.4162 66.0598 47.2996 66.0598 47.1512C66.0598 47.0028 66.0386 46.8862 65.9856 46.8014C65.9326 46.7167 65.8584 46.6743 65.7736 46.6743C65.6783 46.6743 65.5935 46.7061 65.5299 46.8014C65.4769 46.8756 65.4451 47.0028 65.4451 47.1512C65.4451 47.2996 65.4663 47.4056 65.5299 47.5009ZM65.9856 48.6668H65.5087V54.0932H65.9856V48.6668ZM63.8023 52.1324C63.7387 51.9629 63.6328 51.8039 63.5056 51.6661C63.3784 51.5283 63.124 51.327 62.7637 51.0938C62.3928 50.8606 62.1596 50.6699 62.043 50.5003C61.937 50.3413 61.884 50.1399 61.884 49.8962C61.884 49.6206 61.9582 49.4087 62.1278 49.2497C62.2974 49.0801 62.5199 49.0059 62.7955 49.0059C63.1028 49.0059 63.389 49.0907 63.6646 49.2815L63.9083 48.8681C63.6222 48.6668 63.2512 48.5608 62.8167 48.5608C62.4139 48.5608 62.0748 48.688 61.8098 48.9423C61.5449 49.1967 61.4177 49.5146 61.4177 49.9068C61.4177 50.1505 61.4601 50.3519 61.5343 50.5321C61.6085 50.7017 61.7145 50.8606 61.8522 50.9984C61.9794 51.1468 62.2444 51.327 62.6047 51.5601C62.9333 51.7721 63.1452 51.9629 63.2618 52.1324C63.3784 52.302 63.4314 52.5034 63.4314 52.7366C63.4314 53.0439 63.3466 53.2877 63.1876 53.4784C63.0287 53.6586 62.8061 53.7434 62.5305 53.7434C62.3186 53.7434 62.1066 53.7116 61.9052 53.6374C61.7039 53.5632 61.5449 53.4573 61.4177 53.3301V53.8812C61.5237 53.9554 61.6615 54.0296 61.8522 54.0932C62.043 54.1567 62.255 54.1885 62.4987 54.1885C62.9545 54.1885 63.2936 54.0614 63.5374 53.807C63.7811 53.542 63.8977 53.1817 63.8977 52.726C63.8977 52.5034 63.8659 52.302 63.8023 52.1324ZM59.3086 49.5146C59.4888 49.8644 59.5842 50.3413 59.5842 50.9348H57.4963C57.5599 49.6312 57.9202 48.9741 58.5667 48.9741C58.8741 48.9741 59.1284 49.1543 59.3086 49.504M59.8809 53.8494V53.3831C59.4994 53.6056 59.1496 53.7222 58.8105 53.7222C58.3654 53.7222 58.0368 53.5208 57.8248 53.1287C57.6023 52.7366 57.4963 52.143 57.4857 51.3588H60.0611V50.9242C60.0611 50.2035 59.9339 49.6206 59.669 49.1861C59.404 48.7622 59.0543 48.5502 58.6091 48.5502C58.0898 48.5502 57.6977 48.794 57.4221 49.2815C57.1465 49.769 57.0088 50.4791 57.0088 51.4012C57.0088 52.2702 57.1571 52.9485 57.4645 53.4361C57.7718 53.9342 58.217 54.1673 58.7893 54.1673C59.1708 54.1673 59.5418 54.0614 59.8915 53.8494M55.313 54.072V50.3201C55.313 49.6948 55.207 49.2497 54.9951 48.9635C54.7831 48.6774 54.4651 48.5396 54.0518 48.5396C53.808 48.5396 53.5749 48.6138 53.3629 48.7622C53.1509 48.9105 52.9814 49.1225 52.8754 49.3981H52.833L52.7906 48.6456H52.3879V54.072H52.8648V51.0938C52.8648 50.3625 52.9602 49.822 53.1509 49.4828C53.3417 49.1437 53.6385 48.9847 54.0412 48.9847C54.5711 48.9847 54.8467 49.4299 54.8467 50.3307V54.072H55.3236H55.313ZM48.1379 49.5888C48.3181 49.1861 48.6148 48.9953 49.0176 48.9953C49.8019 48.9953 50.1834 49.7796 50.1834 51.3482C50.1834 52.9167 49.8019 53.7222 49.0176 53.7222C48.6254 53.7222 48.3287 53.5208 48.1485 53.1287C47.9577 52.726 47.8623 52.1325 47.8623 51.3482C47.8623 50.5639 47.9577 49.981 48.1379 49.5888ZM50.247 49.2815C49.9502 48.7834 49.5475 48.5502 49.0282 48.5502C47.9153 48.5502 47.3642 49.4828 47.3642 51.3482C47.3642 52.2596 47.502 52.9591 47.7882 53.4467C48.0743 53.9236 48.4771 54.1673 49.007 54.1673C49.5369 54.1673 49.9502 53.9236 50.247 53.4467C50.5331 52.9591 50.6815 52.2596 50.6815 51.3482C50.6815 50.4367 50.5331 49.769 50.247 49.2815ZM43.1461 53.1605C42.9765 52.7578 42.8811 52.1642 42.8811 51.38C42.8811 50.5957 42.9659 50.0128 43.1355 49.61C43.305 49.2073 43.5912 48.9953 43.9833 48.9953C44.3755 48.9953 44.6828 49.1861 44.8842 49.5676C45.0856 49.9492 45.1809 50.5533 45.1809 51.3694V51.6767C45.1809 52.355 45.075 52.8743 44.8736 53.2347C44.6722 53.5844 44.3755 53.7646 43.9939 53.7646C43.6124 53.7646 43.3156 53.5632 43.1461 53.1605ZM44.6828 53.9554C44.8842 53.807 45.0538 53.595 45.1809 53.3089H45.2339L45.2763 54.072H45.6685V46.2927H45.1915V48.7304L45.2127 49.3345H45.1703C45.0432 49.0907 44.863 48.8999 44.651 48.7622C44.4285 48.6138 44.1953 48.5502 43.9515 48.5502C43.4322 48.5502 43.0507 48.7833 42.7857 49.2709C42.5207 49.7478 42.383 50.4579 42.383 51.38C42.383 53.2453 42.9129 54.1779 43.9621 54.1779C44.2271 54.1779 44.4709 54.1038 44.6722 53.966M40.6978 54.0826V50.3307C40.6978 49.7054 40.5918 49.2603 40.3799 48.9741C40.1679 48.688 39.8605 48.5502 39.4366 48.5502C39.1929 48.5502 38.9703 48.6244 38.7583 48.7728C38.5463 48.9211 38.3768 49.1331 38.2708 49.4087H38.2284L38.186 48.6562H37.7833V54.0826H38.2496V51.1044C38.2496 50.3731 38.345 49.8326 38.5358 49.4934C38.7265 49.1543 39.0233 48.9953 39.426 48.9953C39.9559 48.9953 40.2209 49.4405 40.2209 50.3413V54.0826H40.6978ZM35.7378 46.7697H35.2502V54.0826H35.7378V46.7697Z" fill="#231F20"/>
<path d="M124.34 47.1618C124.054 46.8439 123.673 46.6849 123.196 46.6849C122.91 46.6849 122.645 46.7379 122.401 46.8333C122.157 46.9287 121.913 47.1088 121.67 47.342L121.977 47.6706C122.2 47.4586 122.412 47.3102 122.592 47.236C122.772 47.1618 122.984 47.1194 123.206 47.1194C123.546 47.1194 123.811 47.236 124.001 47.4798C124.192 47.713 124.277 48.0521 124.277 48.4654C124.277 48.953 124.15 49.3451 123.874 49.6419C123.609 49.9386 123.27 50.087 122.835 50.087H122.433V50.5427H122.804C123.312 50.5427 123.705 50.6805 123.969 50.9561C124.234 51.2316 124.362 51.6132 124.362 52.1007C124.362 52.5882 124.256 53.0228 124.022 53.3089C123.8 53.6057 123.482 53.754 123.079 53.754C122.581 53.754 122.115 53.6375 121.701 53.3937V53.9342C122.062 54.1144 122.518 54.1992 123.079 54.1992C123.641 54.1992 124.075 54.019 124.393 53.6375C124.711 53.2559 124.87 52.7578 124.87 52.1219C124.87 51.6344 124.764 51.2422 124.531 50.9243C124.298 50.6063 123.98 50.3944 123.577 50.3096V50.2672C123.969 50.1188 124.266 49.8962 124.468 49.5783C124.658 49.2603 124.764 48.8788 124.764 48.4125C124.764 47.8931 124.616 47.4798 124.34 47.1618ZM119.243 46.7909H118.84L117.43 48.0839L117.685 48.4018L118.31 47.8295C118.564 47.5752 118.734 47.4056 118.797 47.3102C118.766 47.8189 118.755 48.2959 118.755 48.7304V54.1038H119.243V46.8015V46.7909ZM113.286 47.9673C113.456 47.4268 113.731 47.1618 114.113 47.1618C114.844 47.1618 115.205 48.2535 115.205 50.4367C115.205 52.62 114.844 53.7329 114.113 53.7329C113.731 53.7329 113.456 53.4573 113.286 52.9168C113.106 52.3763 113.021 51.5496 113.021 50.4473C113.021 49.3451 113.106 48.5184 113.286 47.9779V47.9673ZM115.332 47.6176C115.077 46.9923 114.664 46.6849 114.113 46.6849C113.053 46.6849 112.513 47.9355 112.513 50.4261C112.513 51.7615 112.64 52.7154 112.894 53.3089C113.149 53.8918 113.551 54.1886 114.113 54.1886C114.643 54.1886 115.046 53.8706 115.311 53.2347C115.576 52.5988 115.713 51.6556 115.713 50.4261C115.713 49.1967 115.576 48.2323 115.332 47.607V47.6176ZM111.114 53.6587H108.39V53.6163L109.736 51.6238C110.075 51.1362 110.329 50.7229 110.478 50.4155C110.626 50.1082 110.743 49.7902 110.827 49.4723C110.902 49.1437 110.944 48.8046 110.944 48.4336C110.944 47.9037 110.806 47.4798 110.52 47.1618C110.245 46.8545 109.842 46.6955 109.344 46.6955C109.068 46.6955 108.814 46.7273 108.602 46.8015C108.39 46.8757 108.157 47.0029 107.924 47.1724L108.188 47.5434C108.369 47.4056 108.538 47.2996 108.708 47.236C108.888 47.1724 109.079 47.13 109.312 47.13C109.662 47.13 109.937 47.2466 110.139 47.4798C110.34 47.713 110.446 48.0309 110.446 48.423C110.446 48.9424 110.372 49.4087 110.213 49.822C110.054 50.2354 109.757 50.7865 109.301 51.4754L107.818 53.7117V54.1038H111.103V53.6587H111.114ZM103.292 49.5359C103.472 49.8856 103.568 50.3626 103.568 50.9561H101.48C101.543 49.6525 101.893 49.006 102.561 49.006C102.868 49.006 103.112 49.1861 103.292 49.5359ZM103.864 53.8812V53.4149C103.483 53.6375 103.122 53.754 102.794 53.754C102.349 53.754 102.031 53.5633 101.808 53.1711C101.596 52.7684 101.48 52.1855 101.469 51.3906H104.034V50.9561C104.034 50.2248 103.907 49.6525 103.642 49.2179C103.377 48.7834 103.027 48.5714 102.582 48.5714C102.063 48.5714 101.67 48.8152 101.384 49.3027C101.119 49.7902 100.971 50.5003 100.971 51.4224C100.971 52.2915 101.13 52.9698 101.437 53.4679C101.745 53.9554 102.19 54.1992 102.762 54.1992C103.144 54.1992 103.504 54.0932 103.854 53.8812H103.864ZM99.3494 54.1568C99.5084 54.125 99.6462 54.072 99.7521 54.019V53.6163C99.4766 53.7223 99.2222 53.7752 98.9891 53.7752C98.1942 53.7752 97.7914 52.9804 97.7914 51.4012C97.7914 49.822 98.1942 49.0166 98.9891 49.0166C99.1798 49.0166 99.3812 49.0695 99.6038 49.1755L99.7839 48.7622C99.5614 48.635 99.2858 48.582 98.9467 48.582C98.3956 48.582 97.9928 48.8258 97.7067 49.3027C97.4311 49.7902 97.2827 50.4897 97.2827 51.4224C97.2827 52.3551 97.4205 53.0228 97.6961 53.4997C97.9716 53.966 98.3849 54.1992 98.9255 54.1992C99.042 54.1992 99.1798 54.1886 99.3388 54.1462L99.3494 54.1568ZM95.1206 47.5222C95.1948 47.5964 95.269 47.6494 95.3644 47.6494C95.4492 47.6494 95.5234 47.607 95.5764 47.5222C95.6294 47.4268 95.6612 47.3208 95.6612 47.1724C95.6612 47.0241 95.6294 46.8969 95.5764 46.8227C95.5234 46.7379 95.4492 46.6955 95.3644 46.6955C95.269 46.6955 95.1948 46.7379 95.1206 46.8227C95.0677 46.8969 95.0359 47.0241 95.0359 47.1724C95.0359 47.3208 95.0677 47.4268 95.1206 47.5222ZM95.5764 48.6774H95.11V54.1038H95.5764V48.6774ZM90.8601 49.6101C91.0403 49.2179 91.3264 49.0166 91.7398 49.0166C92.5134 49.0166 92.9056 49.8008 92.9056 51.3694C92.9056 52.938 92.5134 53.7435 91.7398 53.7435C91.3476 53.7435 91.0509 53.5421 90.8601 53.1499C90.6693 52.7472 90.5739 52.1643 90.5739 51.3694C90.5739 50.5745 90.6693 50.0022 90.8495 49.6101H90.8601ZM92.9692 49.3027C92.683 48.8152 92.2803 48.5714 91.7504 48.5714C90.6481 48.5714 90.097 49.5041 90.097 51.3694C90.097 52.2809 90.2348 52.9804 90.5209 53.4679C90.8071 53.9554 91.2098 54.1886 91.7398 54.1886C92.2697 54.1886 92.6936 53.9448 92.9798 53.4679C93.2765 52.9804 93.4143 52.2809 93.4143 51.3694C93.4143 50.4579 93.2659 49.7902 92.9798 49.3027H92.9692ZM88.4013 54.0932V50.352C88.4013 49.7584 88.3059 49.3133 88.1151 49.006C87.9137 48.7092 87.5958 48.5608 87.14 48.5608C86.9069 48.5608 86.6843 48.635 86.4618 48.7834C86.2498 48.9318 86.0908 49.1437 85.9742 49.4087H85.9424C85.953 49.2603 85.9636 49.059 85.9636 48.8364V46.314H85.4867V54.0932H85.9636V51.1256C85.9636 50.3838 86.059 49.8538 86.2498 49.5147C86.4511 49.1755 86.7373 49.006 87.1188 49.006C87.4156 49.006 87.617 49.1119 87.7442 49.3133C87.8713 49.5147 87.9349 49.8644 87.9349 50.352V54.0932H88.4013ZM83.7698 47.4162L83.9923 46.9817C83.6638 46.7697 83.2716 46.6743 82.8265 46.6743C82.1058 46.6743 81.5441 47.0029 81.1308 47.6706C80.7068 48.3383 80.5054 49.2603 80.5054 50.4261C80.5054 51.2104 80.6008 51.8781 80.7916 52.4504C80.9824 53.0228 81.2473 53.4467 81.5971 53.754C81.9468 54.0614 82.3496 54.2098 82.8159 54.2098C83.2398 54.2098 83.579 54.1356 83.8439 53.9872V53.5421C83.5684 53.6693 83.2398 53.7435 82.8689 53.7435C82.4979 53.7435 82.1694 53.6163 81.8938 53.3513C81.6183 53.0864 81.4063 52.7048 81.2473 52.2067C81.099 51.7086 81.0248 51.1256 81.0248 50.4579C81.0248 49.4299 81.1837 48.6244 81.5123 48.0415C81.8303 47.4586 82.2648 47.1618 82.8265 47.1618C83.1762 47.1618 83.5048 47.2572 83.7804 47.4374L83.7698 47.4162ZM76.531 52.1431C76.4781 51.9735 76.3721 51.8145 76.2343 51.6768C76.0965 51.539 75.8528 51.3482 75.4924 51.1044C75.1215 50.8713 74.8883 50.6805 74.7717 50.5215C74.6551 50.3626 74.6021 50.1612 74.6021 49.9174C74.6021 49.6525 74.6869 49.4299 74.8565 49.2603C75.0155 49.0907 75.2486 49.0166 75.5242 49.0166C75.8316 49.0166 76.1177 49.1119 76.3933 49.2921L76.637 48.8788C76.3403 48.6668 75.9693 48.5714 75.5348 48.5714C75.1321 48.5714 74.7929 48.6986 74.5279 48.953C74.263 49.2073 74.1252 49.5359 74.1252 49.9174C74.1252 50.1612 74.1676 50.3626 74.2418 50.5321C74.316 50.7017 74.422 50.8607 74.5491 50.9985C74.6869 51.1468 74.9307 51.327 75.3016 51.5602C75.6196 51.7615 75.8421 51.9523 75.9587 52.1219C76.0753 52.2915 76.1283 52.4928 76.1283 52.726C76.1283 53.0334 76.0435 53.2771 75.8951 53.4679C75.7362 53.6481 75.5136 53.7329 75.2274 53.7329C75.0261 53.7329 74.8141 53.7011 74.6127 53.6269C74.4008 53.5527 74.2418 53.4467 74.1252 53.3195V53.8706C74.2312 53.9448 74.3796 54.019 74.5597 54.0826C74.7399 54.1462 74.9625 54.178 75.2062 54.178C75.662 54.178 76.0011 54.0508 76.2449 53.7964C76.4887 53.5315 76.6052 53.1711 76.6052 52.7154C76.6052 52.4928 76.5734 52.2915 76.4993 52.1219L76.531 52.1431ZM72.9806 46.7909H72.4083C72.3235 47.501 72.1539 48.2853 71.8995 49.1331H72.2175C72.5566 48.3701 72.8322 47.6282 73.0548 46.8969L72.9806 46.7909ZM68.3597 53.5209C68.2219 53.3407 68.1477 53.044 68.1477 52.6518C68.1477 52.2385 68.2537 51.9205 68.4657 51.698C68.6776 51.4754 69.0062 51.3588 69.4407 51.327L70.0024 51.2952V51.8569C70.0024 52.4716 69.907 52.9486 69.7163 53.2877C69.5255 53.6269 69.2605 53.7964 68.932 53.7964C68.6882 53.7964 68.4975 53.7011 68.3597 53.5209ZM70.4794 54.0932V50.3944C70.4794 49.7373 70.3734 49.2709 70.1826 48.9848C69.9918 48.6986 69.6633 48.5608 69.2181 48.5608C68.8048 48.5608 68.4021 48.6774 68.0311 48.9106L68.2431 49.2815C68.5716 49.0802 68.879 48.9742 69.1864 48.9742C69.4937 48.9742 69.6951 49.0907 69.8223 49.3239C69.9494 49.5571 70.013 49.928 70.013 50.4261V50.8819L69.4301 50.9031C68.8684 50.9349 68.4339 51.0938 68.1265 51.3906C67.8192 51.698 67.6708 52.1007 67.6708 52.62C67.6708 53.0969 67.7768 53.4679 67.9887 53.754C68.2007 54.0402 68.4869 54.178 68.8366 54.178C69.3559 54.178 69.7481 53.8918 70.013 53.3195H70.0342L70.0978 54.0826H70.49L70.4794 54.0932ZM65.5723 47.5116C65.6359 47.5964 65.7207 47.6388 65.8161 47.6388C65.9008 47.6388 65.975 47.5964 66.028 47.5116C66.081 47.4268 66.1022 47.3102 66.1022 47.1618C66.1022 47.0135 66.081 46.8969 66.028 46.8121C65.975 46.7273 65.9008 46.6849 65.8161 46.6849C65.7207 46.6849 65.6359 46.7167 65.5723 46.8121C65.5193 46.8863 65.4875 47.0135 65.4875 47.1618C65.4875 47.3102 65.5087 47.4162 65.5723 47.5116ZM66.028 48.6774H65.5511V54.1038H66.028V48.6774ZM63.8448 52.1431C63.7812 51.9735 63.6752 51.8145 63.548 51.6768C63.4208 51.539 63.1665 51.3376 62.8061 51.1044C62.4352 50.8713 62.202 50.6805 62.0854 50.5109C61.9794 50.352 61.9264 50.1506 61.9264 49.9068C61.9264 49.6313 62.0006 49.4193 62.1702 49.2603C62.3398 49.0907 62.5624 49.0166 62.8379 49.0166C63.1453 49.0166 63.4314 49.1013 63.707 49.2921L63.9507 48.8788C63.6646 48.6774 63.2936 48.5714 62.8591 48.5714C62.4564 48.5714 62.1172 48.6986 61.8523 48.953C61.5873 49.2073 61.4601 49.5253 61.4601 49.9174C61.4601 50.1612 61.5025 50.3626 61.5767 50.5427C61.6509 50.7123 61.7569 50.8713 61.8947 51.0091C62.0218 51.1574 62.2868 51.3376 62.6471 51.5708C62.9757 51.7827 63.1877 51.9735 63.3042 52.1431C63.4208 52.3127 63.4738 52.514 63.4738 52.7472C63.4738 53.0546 63.389 53.2983 63.2301 53.4891C63.0711 53.6693 62.8485 53.754 62.573 53.754C62.361 53.754 62.149 53.7223 61.9476 53.6481C61.7463 53.5739 61.5873 53.4679 61.4601 53.3407V53.8918C61.5661 53.966 61.7039 54.0402 61.8947 54.1038C62.0854 54.1674 62.2974 54.1992 62.5412 54.1992C62.9969 54.1992 63.336 54.072 63.5798 53.8176C63.8236 53.5527 63.9401 53.1923 63.9401 52.7366C63.9401 52.514 63.9084 52.3127 63.8448 52.1431ZM59.351 49.5253C59.5312 49.875 59.6266 50.352 59.6266 50.9455H57.5387C57.6023 49.6419 57.9626 48.9848 58.6091 48.9848C58.9165 48.9848 59.1709 49.1649 59.351 49.5147V49.5253ZM59.9234 53.8706V53.4043C59.5418 53.6269 59.1921 53.7435 58.8529 53.7435C58.4078 53.7435 58.0792 53.5421 57.8673 53.1499C57.6447 52.7578 57.5387 52.1643 57.5281 51.38H60.1035V50.9455C60.1035 50.2248 59.9763 49.6419 59.7114 49.2073C59.4464 48.7834 59.0967 48.5714 58.6515 48.5714C58.1322 48.5714 57.7401 48.8152 57.4645 49.3027C57.189 49.7902 57.0512 50.5003 57.0512 51.4224C57.0512 52.2915 57.1996 52.9698 57.5069 53.4573C57.8143 53.9554 58.2594 54.1886 58.8317 54.1886C59.2133 54.1886 59.5842 54.0826 59.9339 53.8706H59.9234ZM55.3448 54.0932V50.3414C55.3448 49.7161 55.2389 49.2709 55.0269 48.9848C54.8149 48.6986 54.497 48.5608 54.0836 48.5608C53.8399 48.5608 53.6067 48.635 53.3947 48.7834C53.1828 48.9318 53.0132 49.1437 52.9072 49.4193H52.8648L52.8224 48.6668H52.4197V54.0932H52.8966V51.115C52.8966 50.3838 52.992 49.8432 53.1828 49.5041C53.3735 49.1649 53.6703 49.006 54.073 49.006C54.603 49.006 54.8785 49.4511 54.8785 50.352V54.0932H55.3554H55.3448ZM48.1697 49.6101C48.3499 49.2073 48.6466 49.0166 49.0494 49.0166C49.8337 49.0166 50.2152 49.8008 50.2152 51.3694C50.2152 52.938 49.8337 53.7435 49.0494 53.7435C48.6572 53.7435 48.3605 53.5421 48.1803 53.1499C47.9895 52.7472 47.8942 52.1537 47.8942 51.3694C47.8942 50.5851 47.9896 50.0022 48.1697 49.6101ZM50.2788 49.3027C49.982 48.8046 49.5793 48.5714 49.06 48.5714C47.9472 48.5714 47.396 49.5041 47.396 51.3694C47.396 52.2809 47.5338 52.9804 47.82 53.4679C48.1061 53.9448 48.5089 54.1886 49.0388 54.1886C49.5687 54.1886 49.982 53.9448 50.2788 53.4679C50.565 52.9804 50.7133 52.2809 50.7133 51.3694C50.7133 50.4579 50.565 49.7902 50.2788 49.3027ZM43.1779 53.1817C43.0083 52.779 42.9129 52.1855 42.9129 51.4012C42.9129 50.6169 42.9977 50.034 43.1673 49.6313C43.3369 49.2285 43.623 49.0166 44.0151 49.0166C44.4073 49.0166 44.7146 49.2073 44.916 49.5889C45.1174 49.9704 45.2128 50.5745 45.2128 51.3906V51.698C45.2128 52.3763 45.1068 52.8956 44.9054 53.2559C44.704 53.6057 44.4073 53.7858 44.0257 53.7858C43.6442 53.7858 43.3475 53.5845 43.1779 53.1817ZM44.7146 53.9766C44.916 53.8282 45.0856 53.6163 45.2128 53.3301H45.2658L45.3082 54.0932H45.7003V46.314H45.2234V48.7516L45.2446 49.3557H45.2022C45.075 49.1119 44.8948 48.9212 44.6828 48.7834C44.4603 48.635 44.2271 48.5714 43.9834 48.5714C43.464 48.5714 43.0825 48.8046 42.8175 49.2921C42.5526 49.769 42.4148 50.4791 42.4148 51.4012C42.4148 53.2665 42.9447 54.1992 43.994 54.1992C44.2589 54.1992 44.5027 54.125 44.704 53.9872L44.7146 53.9766ZM40.7402 54.0932V50.3414C40.7402 49.7161 40.6343 49.2709 40.4223 48.9848C40.2103 48.6986 39.903 48.5608 39.479 48.5608C39.2353 48.5608 39.0127 48.635 38.8007 48.7834C38.5888 48.9318 38.4192 49.1437 38.3132 49.4193H38.2708L38.2284 48.6668H37.8257V54.0932H38.292V51.115C38.292 50.3838 38.3874 49.8432 38.5782 49.5041C38.7689 49.1649 39.0657 49.006 39.4684 49.006C39.9984 49.006 40.2633 49.4511 40.2633 50.352V54.0932H40.7402ZM35.7802 46.7803H35.2927V54.0932H35.7802V46.7803Z" stroke="#231F20" stroke-width="0.0953857" stroke-miterlimit="5.49"/>
</g>
<defs>
<clipPath id="clip0_1372_14899">
<rect width="130" height="54.1261" fill="white" transform="translate(0 0.125977)"/>
</clipPath>
</defs>
</svg>
