<svg width="130" height="130" viewBox="0 0 130 130" fill="none" xmlns="http://www.w3.org/2000/svg">
<g clip-path="url(#clip0_1370_14255)">
<path d="M130 65.0034C130 100.903 100.896 130 64.9966 130C29.0972 130 0 100.896 0 65.0034C0 29.1107 29.104 0 64.9966 0V31.0668C64.7733 31.0668 64.5567 31.0668 64.3333 31.0736C45.9031 31.4255 31.0668 46.4784 31.0668 64.9966C31.0668 83.5149 46.2618 98.9264 64.9966 98.9264C83.7314 98.9264 98.9264 83.7314 98.9264 64.9966H129.993L130 65.0034Z" fill="#005596"/>
<path d="M28.333 89.1953L21.6511 93.8601L22.5887 95.2031L29.2706 90.5383L28.333 89.1953Z" fill="white"/>
<path d="M26.6132 95.8738C26.3492 96.2122 25.6318 97.1259 26.6132 98.2359C27.3712 99.1023 28.1225 99.0481 28.5151 98.7029C29.0295 98.2562 28.7655 97.7283 28.0481 96.3543C27.669 95.6098 26.823 93.9651 28.1767 92.7806C28.8467 92.1985 30.2749 91.718 31.8451 93.5184C32.8942 94.7164 33.3815 96.2257 32.0414 97.4914L30.9043 96.2934C31.1751 95.9617 31.6692 95.3661 30.8163 94.3915C30.4915 94.026 29.8011 93.4507 29.3002 93.8906C28.9077 94.2358 29.0701 94.7705 29.6996 95.9617C30.2952 97.0921 31.1006 98.6217 29.598 99.9415C28.8535 100.591 27.818 100.666 27.114 100.348C26.3763 100.023 25.8213 99.4204 25.5709 99.1361C24.9955 98.4796 23.6283 96.7943 25.4626 94.7705L26.62 95.8738H26.6132Z" fill="white"/>
<path d="M37.1786 98.6761C39.243 100.361 39.0738 102.602 37.5712 104.449C36.2243 106.101 34.0855 107.028 31.8722 105.221C29.4965 103.285 30.2478 100.943 31.4391 99.4883C33.0838 97.4645 35.2226 97.0855 37.1854 98.6761M31.9805 102.155C31.8926 102.696 31.9941 103.488 32.7589 104.118C33.429 104.666 34.7894 105.174 36.2785 103.346C36.8605 102.636 37.8487 101.045 36.2988 99.7793C34.8503 98.6016 33.5373 99.5966 32.7792 100.524C32.1971 101.241 32.0347 101.783 31.9738 102.155" fill="white"/>
<path d="M41.8217 109.16C41.754 109.343 41.5374 110.02 42.2413 110.372C43.2228 110.852 43.9334 109.627 44.3598 108.896V108.869C43.6289 109.201 43.04 108.977 42.776 108.849C41.6187 108.28 41.0975 106.859 41.8082 105.41C42.5256 103.948 43.974 103.4 45.3683 104.09C46.0113 104.409 46.9995 105.18 46.8032 106.886C46.7152 107.637 46.431 108.341 46.0993 109.025C45.7744 109.688 44.2448 112.808 41.578 111.502C40.9215 111.184 40.4139 110.629 40.2853 109.877C40.1973 109.356 40.3259 108.896 40.4003 108.666L41.8217 109.174V109.16ZM44.7321 105.214C43.8319 104.774 43.2904 105.877 43.1889 106.08C43.1009 106.256 42.5188 107.448 43.4867 107.928C43.6695 108.016 44.4817 108.327 45.057 107.15C45.4157 106.426 45.4022 105.546 44.7253 105.214" fill="white"/>
<path d="M52.536 108.639C52.5631 109.607 52.2517 110.595 52.0758 111.137C51.9133 111.631 51.5749 112.612 50.959 113.37C50.3566 114.128 49.4835 114.656 48.2584 114.243C47.013 113.831 46.6205 112.897 46.5934 111.935C46.5596 110.961 46.8844 109.979 47.0672 109.438C47.2432 108.923 47.5816 107.942 48.1772 107.191C48.7863 106.446 49.6527 105.932 50.8845 106.345C52.1164 106.758 52.5022 107.678 52.5428 108.639M48.6171 109.979C47.9335 112.03 47.9606 112.775 48.6645 113.005C49.3752 113.242 49.849 112.653 50.5326 110.616C51.2162 108.565 51.1891 107.813 50.4784 107.577C49.7745 107.34 49.3075 107.915 48.6239 109.979" fill="white"/>
<path d="M58.4515 109.871C58.6072 110.825 58.4312 111.847 58.3297 112.409C58.2349 112.923 58.0251 113.938 57.5243 114.771C57.0302 115.603 56.2383 116.24 54.9591 115.996C53.6731 115.752 53.1587 114.879 53.003 113.932C52.8406 112.971 53.0301 111.955 53.1384 111.394C53.2399 110.859 53.4497 109.844 53.937 109.018C54.4379 108.199 55.2298 107.576 56.509 107.813C57.7815 108.057 58.2891 108.916 58.4583 109.864M54.7425 111.718C54.3364 113.844 54.465 114.575 55.1892 114.71C55.9269 114.852 56.3127 114.209 56.7188 112.097C57.1249 109.972 56.9963 109.228 56.2586 109.092C55.5344 108.95 55.1418 109.586 54.7357 111.718" fill="white"/>
<path d="M61.1522 116.653L61.5312 110.778C61.1725 111.076 60.4618 111.563 59.4465 111.827L59.5413 110.419C59.7037 110.372 61.4026 109.844 61.9779 108.504L63.2504 108.585L62.7224 116.754L61.1522 116.653Z" fill="white"/>
<path d="M69.0374 110.703L70.5873 110.534L70.7565 112.084L69.2066 112.253L69.0374 110.703ZM69.5044 115.015L71.0543 114.846L71.2235 116.396L69.6736 116.565L69.5044 115.015Z" fill="white"/>
<path d="M81.8768 113.979L76.6246 115.516C76.408 114.324 76.7464 113.336 77.8361 111.495C78.6009 110.216 78.9664 109.6 78.7566 108.842C78.4656 107.894 77.7143 108.023 77.4368 108.098C76.7396 108.301 76.5434 108.822 76.7261 109.634L75.1829 109.918C75.1152 109.532 74.9866 108.686 75.4537 107.962C75.8598 107.36 76.5704 106.994 77.1051 106.839C78.9191 106.311 79.9343 107.319 80.2254 108.301C80.6247 109.668 79.9005 110.873 79.3387 111.8C78.7837 112.734 78.5942 113.038 78.4927 113.445L81.4775 112.571L81.8836 113.972L81.8768 113.979Z" fill="white"/>
<path d="M85.1799 105.492C85.8499 106.196 86.2899 107.13 86.52 107.651C86.7298 108.131 87.1359 109.079 87.1901 110.054C87.2578 111.021 86.9667 111.996 85.7755 112.517C84.5775 113.045 83.657 112.619 82.9937 111.928C82.3169 111.231 81.8972 110.284 81.6671 109.762C81.4437 109.262 81.0376 108.307 80.9767 107.353C80.9293 106.392 81.2204 105.431 82.4116 104.903C83.5961 104.382 84.503 104.801 85.1799 105.485M83.1764 109.119C84.0496 111.096 84.5707 111.631 85.2476 111.333C85.9312 111.028 85.8906 110.277 85.0242 108.307C84.1511 106.331 83.6299 105.789 82.9395 106.087C82.2627 106.385 82.3033 107.13 83.1764 109.119Z" fill="white"/>
<path d="M91.2578 109.546L88.2324 104.497C88.1038 104.943 87.7992 105.749 87.1156 106.547L86.3914 105.336C86.4997 105.207 87.5961 103.806 87.3119 102.371L88.4083 101.715L92.6115 108.734L91.2646 109.539L91.2578 109.546Z" fill="white"/>
<path d="M94.2495 104.849C94.8316 105.417 95.4272 105.349 95.8401 105.031C96.2936 104.686 96.5034 103.975 95.7927 103.055C95.3189 102.439 94.6624 102.087 93.9382 102.642C93.6607 102.859 93.4035 103.197 93.3493 103.854L92.2393 104.483L90.2765 100.632L93.5524 98.114L94.439 99.2714L92.1039 101.072L92.7605 102.317C92.8552 102.101 93.0177 101.789 93.4373 101.464C94.527 100.625 96.077 100.808 97.0719 102.101C97.8638 103.129 98.121 104.916 96.6117 106.074C95.4678 106.953 94.1209 106.947 93.0989 105.931L94.236 104.855L94.2495 104.849Z" fill="white"/>
<path d="M86.7976 30.2071C89.5049 24.5961 95.2512 20.7246 101.898 20.7246C111.157 20.7246 118.656 28.2307 118.656 37.4898C118.656 41.5712 117.194 45.3141 114.771 48.2245C114.568 48.4681 114.967 48.8336 115.211 48.5561C117.939 45.4901 119.59 41.4493 119.59 37.0228C119.59 27.4253 111.813 19.6484 102.216 19.6484C95.055 19.6484 88.9093 23.9734 86.2493 30.1597C86.2493 30.1597 86.2019 30.4169 86.4253 30.4169C86.6487 30.4169 86.7637 30.268 86.7908 30.2139" fill="#005596"/>
<path d="M78.2626 40.4341H81.2745L82.6485 45.551L83.8465 40.4341H86.811L84.3338 50.2279H81.3963L79.9817 45.1855L78.777 50.2279H75.7921" fill="#005596"/>
<path d="M62.8916 43.3986L58.4854 43.4257L56.8204 50.2279H53.4904L55.0809 43.3986L52.8812 43.4257L53.5919 40.4341H63.6294L62.8916 43.3986Z" fill="#005596"/>
<path d="M64.8273 40.4341H69.7209L70.2623 45.7743L72.5365 40.4341H75.9884L71.1693 50.2279H68.0829L66.8308 43.3783L64.0896 43.3919L64.8273 40.4341Z" fill="#005596"/>
<path d="M106.906 40.4341H103.529L101.322 49.1247L100.097 46.4782C102.175 46.0112 102.25 43.9333 102.25 43.9333C102.52 40.9485 99.6574 40.4341 99.6574 40.4341H95.813L93.3154 50.2279H96.4966L97.2817 46.6068L98.5068 50.2279H104.625C108.03 50.2279 109.817 47.8048 109.986 43.6694C110.108 40.7319 106.9 40.4408 106.9 40.4408M99.2377 43.6694C99.1159 44.3056 98.4526 44.4545 98.4526 44.4545H97.8435L98.1142 43.0331H98.8723C98.8723 43.0331 99.3596 43.0331 99.2377 43.6694ZM106.433 46.6068C106.013 47.8048 104.747 47.6627 104.747 47.6627L105.898 43.0331C106.9 43.0331 106.974 43.5475 107.021 43.9401C107.069 44.3327 106.852 45.4088 106.433 46.6068Z" fill="#005596"/>
<path d="M91.3594 40.2378C87.0479 40.2378 85.9515 45.1855 85.9515 45.1855C85.9515 45.1855 84.7061 50.4242 88.8145 50.4242C93.2951 50.4242 94.2224 45.3818 94.2224 45.3818C94.2224 45.3818 95.6641 40.2378 91.3594 40.2378ZM91.3865 45.0366C91.1902 46.309 90.4592 47.974 89.5725 47.974C88.6859 47.974 88.5911 46.749 88.9363 45.1313C89.2883 43.4663 89.9177 42.6812 90.7502 42.6812C91.5827 42.6812 91.5827 43.7573 91.3865 45.0298" fill="#005596"/>
<path d="M59.9947 43.9402H62.7833L61.9779 47.453C61.9779 47.453 61.9169 47.8929 62.4313 47.8929C62.9457 47.8929 63.1082 47.4733 63.1082 47.4733L63.961 43.9402H66.7496L65.8291 48.2381C65.8291 48.2381 65.2808 50.7356 61.9373 50.7356C58.5937 50.7356 59.0336 47.9809 59.0336 47.9809L59.988 43.9402H59.9947Z" fill="#005596"/>
<path d="M80.354 54.2551H81.0444L79.9546 59.4938H79.2507L80.354 54.2551Z" fill="#010101"/>
<path d="M81.755 55.7035H82.3439L82.2017 56.3465L82.2153 56.36C82.4319 56.1231 82.9327 55.6155 83.5893 55.6155C83.8668 55.6155 84.5774 55.7238 84.5774 56.5292C84.5774 56.7323 84.5165 57.0098 84.4827 57.1925L84.0089 59.4938H83.3591L83.8668 57.0842C83.9209 56.8473 83.9412 56.6917 83.9412 56.5698C83.9412 56.2246 83.6502 56.1366 83.4336 56.1366C83.0139 56.1366 82.6552 56.36 82.4454 56.6037C82.2559 56.8067 82.0867 57.2128 81.9784 57.7204L81.6129 59.487H80.9631L81.7618 55.6967L81.755 55.7035Z" fill="#010101"/>
<path d="M88.3339 54.2551H88.9769L87.8872 59.4938H87.2848L87.3999 58.9591L87.3863 58.9456C87.0953 59.2976 86.723 59.5818 86.2357 59.5818C85.7078 59.5818 84.9768 59.2366 84.9768 58.0251C84.9768 56.6985 85.8499 55.6156 86.8381 55.6156C87.2171 55.6156 87.6232 55.7645 87.9007 56.2992H87.9143L88.3339 54.2551ZM86.432 59.0607C87.1359 59.0607 87.7045 58.1131 87.7045 57.1114C87.7045 56.4075 87.2645 56.1435 86.8787 56.1435C85.965 56.1435 85.6266 57.4904 85.6266 57.91C85.6266 58.1334 85.6266 59.0607 86.432 59.0607Z" fill="#010101"/>
<path d="M90.9195 55.6155C91.8264 55.6155 92.4491 56.2179 92.4491 57.206C92.4491 58.6206 91.5286 59.5817 90.4051 59.5817C89.5861 59.5817 88.8551 59.0741 88.8551 58.0521C88.8551 56.7593 89.5996 55.6155 90.9195 55.6155ZM90.4118 59.0877C91.2917 59.0877 91.7993 58.0115 91.7993 57.1993C91.7993 56.6307 91.5151 56.1163 90.8924 56.1163C89.9516 56.1163 89.4913 57.1857 89.4913 57.9912C89.4913 58.9997 90.1952 59.0877 90.4051 59.0877" fill="#010101"/>
<path d="M93.4373 55.7035H94.0261L93.884 56.3465L93.8975 56.36C94.1141 56.1231 94.615 55.6155 95.2715 55.6155C95.549 55.6155 96.2597 55.7238 96.2597 56.5292C96.2597 56.7323 96.1988 57.0098 96.1649 57.1925L95.6912 59.4938H95.0414L95.549 57.0842C95.5964 56.8473 95.6235 56.6917 95.6235 56.5698C95.6235 56.2246 95.3324 56.1366 95.1158 56.1366C94.6962 56.1366 94.3375 56.36 94.1277 56.6037C93.9381 56.8067 93.7689 57.2128 93.6606 57.7204L93.2951 59.487H92.6454L93.444 55.6967L93.4373 55.7035Z" fill="#010101"/>
<path d="M99.9281 58.2755C99.7724 58.7967 99.1294 59.5886 98.1413 59.5886C97.3223 59.5886 96.6522 59.0336 96.6522 57.9777C96.6522 57.0098 97.2614 55.6223 98.6624 55.6223C99.8266 55.6223 100.158 56.536 100.158 57.1926C100.158 57.4768 100.131 57.6257 100.104 57.7679H97.3088C97.302 57.8423 97.2952 57.8829 97.2952 57.9642C97.2952 58.6952 97.6878 59.0606 98.1345 59.0606C98.412 59.0606 98.9941 58.905 99.2919 58.2146L99.9213 58.2823L99.9281 58.2755ZM99.5491 57.267C99.5558 57.1655 99.5558 57.0843 99.5491 56.976C99.5017 56.3601 99.0888 56.1232 98.6827 56.1232C97.9382 56.1232 97.5659 56.7865 97.417 57.2738H99.5491V57.267Z" fill="#010101"/>
<path d="M101.031 58.1536C101.031 58.3567 101.045 59.0809 101.965 59.0809C102.432 59.0809 102.818 58.8711 102.818 58.5056C102.818 58.1672 102.487 58.0047 102.033 57.8084C101.383 57.5242 100.903 57.3279 100.903 56.7052C100.903 56.2517 101.248 55.6155 102.256 55.6155C102.811 55.6155 103.705 55.8185 103.732 56.8135L103.089 56.8473C103.062 56.1231 102.331 56.1096 102.209 56.1096C101.742 56.1096 101.498 56.3735 101.498 56.5901C101.498 56.8879 101.742 56.9895 102.216 57.1993C102.913 57.4971 103.461 57.734 103.461 58.4244C103.461 58.9726 102.981 59.5817 101.918 59.5817C101.559 59.5817 100.321 59.4938 100.368 58.1942L101.018 58.1536H101.031Z" fill="#010101"/>
<path d="M104.652 55.7036H105.302L104.504 59.4938H103.861L104.652 55.7036ZM104.95 54.2551H105.6L105.444 54.9861H104.795L104.95 54.2551Z" fill="#010101"/>
<path d="M105.762 56.7796C105.81 56.6578 105.864 56.5021 106.006 56.3059C106.426 55.7102 107.069 55.6155 107.502 55.6155C108.287 55.6155 108.937 55.9674 108.937 56.5969C108.937 56.6307 108.93 56.9015 108.842 57.3076L108.632 58.2416C108.578 58.4853 108.537 58.7289 108.537 58.9794C108.537 59.1418 108.558 59.2501 108.598 59.4396C108.605 59.4464 108.612 59.487 108.612 59.4938H107.962C107.901 59.311 107.888 59.1012 107.881 59.02C107.678 59.2027 107.238 59.5817 106.575 59.5817C105.911 59.5817 105.404 59.1892 105.404 58.4853C105.404 57.3279 106.69 57.267 107.123 57.2534C107.678 57.2331 107.949 57.2196 108.213 57.1113C108.267 56.9421 108.294 56.7458 108.294 56.6713C108.294 56.1637 107.651 56.1366 107.475 56.1366C107.055 56.1366 106.622 56.2855 106.426 56.8338L105.769 56.7729L105.762 56.7796ZM107.116 57.734C106.696 57.7678 106.04 57.849 106.04 58.4582C106.04 58.7357 106.209 59.0877 106.757 59.0877C107.15 59.0877 107.549 58.8846 107.786 58.5326C107.969 58.2687 108.043 57.9573 108.111 57.5715C107.867 57.6663 107.698 57.6798 107.116 57.734Z" fill="#010101"/>
</g>
<defs>
<clipPath id="clip0_1370_14255">
<rect width="130" height="130" fill="white"/>
</clipPath>
</defs>
</svg>
