<svg width="105" height="115" viewBox="0 0 105 115" fill="none" xmlns="http://www.w3.org/2000/svg">
<g clip-path="url(#clip0_1798_21113)">
<path d="M56.3822 30.4097V16.8672H32.3975V34.8205C32.3975 38.7804 31.4111 42.6698 29.5086 46.1364L3.70606 93.4999C-0.972506 102.096 5.2421 112.566 15.022 112.566H73.7577C82.3116 112.566 88.1457 104.562 86.3419 96.8115" stroke="#17539E" stroke-width="4.22762" stroke-linecap="round" stroke-linejoin="round"/>
<path d="M56.1993 3.09961H32.5669C30.3877 3.09961 28.6211 4.86619 28.6211 7.04539V12.9218C28.6211 15.101 30.3877 16.8676 32.5669 16.8676H56.1993C58.3785 16.8676 60.1451 15.101 60.1451 12.9218V7.04539C60.1451 4.86619 58.3785 3.09961 56.1993 3.09961Z" stroke="#17539E" stroke-width="4.22762" stroke-linecap="round" stroke-linejoin="round"/>
<path d="M74.688 90.541C90.2614 90.541 102.886 77.9162 102.886 62.3428C102.886 46.7693 90.2614 34.1445 74.688 34.1445C59.1145 34.1445 46.4897 46.7693 46.4897 62.3428C46.4897 77.9162 59.1145 90.541 74.688 90.541Z" stroke="#17539E" stroke-width="4.22762" stroke-linecap="round" stroke-linejoin="round"/>
<path d="M14.8955 72.9678H36.2591" stroke="#17539E" stroke-width="4.22762" stroke-linecap="round" stroke-linejoin="round"/>
<path d="M32.4824 86.1436H36.2591" stroke="#17539E" stroke-width="4.22762" stroke-linecap="round" stroke-linejoin="round"/>
<path d="M19.9683 99.0244H23.7308" stroke="#17539E" stroke-width="4.22762" stroke-linecap="round" stroke-linejoin="round"/>
<path d="M46.4897 99.0244H50.2664" stroke="#17539E" stroke-width="4.22762" stroke-linecap="round" stroke-linejoin="round"/>
<path d="M60.1592 62.3422L69.0372 71.2625L87.681 52.8301" stroke="#17539E" stroke-width="4.22762" stroke-linecap="round" stroke-linejoin="round"/>
</g>
<defs>
<clipPath id="clip0_1798_21113">
<rect width="105" height="113.695" fill="white" transform="translate(0 0.985352)"/>
</clipPath>
</defs>
</svg>
