<svg width="84" height="107" viewBox="0 0 84 107" fill="none" xmlns="http://www.w3.org/2000/svg">
<g clip-path="url(#clip0_1798_21124)">
<path d="M41.5695 71.4282C60.7052 71.4282 76.2177 55.9156 76.2177 36.78C76.2177 17.6443 60.7052 2.13184 41.5695 2.13184C22.4339 2.13184 6.92139 17.6443 6.92139 36.78C6.92139 55.9156 22.4339 71.4282 41.5695 71.4282Z" stroke="#17539E" stroke-width="4.26351" stroke-linecap="round" stroke-linejoin="round"/>
<path d="M41.5692 16.7129L48.0924 29.9298L62.6594 32.0473L52.1143 42.3224L54.6013 56.8326L41.5692 49.9825L28.537 56.8326L31.0241 42.3224L20.479 32.0473L35.046 29.9298L41.5692 16.7129Z" stroke="#17539E" stroke-width="4.26351" stroke-linecap="round" stroke-linejoin="round"/>
<path d="M67.5342 59.7607L81.0069 95.8159L65.3314 90.8276L56.7902 104.869L44.2412 71.3149" stroke="#17539E" stroke-width="4.26351" stroke-linecap="round" stroke-linejoin="round"/>
<path d="M15.6045 59.7607L2.13184 95.8159L17.7931 90.8276L26.3486 104.869L38.8833 71.3149" stroke="#17539E" stroke-width="4.26351" stroke-linecap="round" stroke-linejoin="round"/>
</g>
<defs>
<clipPath id="clip0_1798_21124">
<rect width="83.1385" height="107" fill="white"/>
</clipPath>
</defs>
</svg>
