<svg width="105" height="108" viewBox="0 0 105 108" fill="none" xmlns="http://www.w3.org/2000/svg">
<g clip-path="url(#clip0_1798_21133)">
<path d="M98.6298 53.9933C98.6298 48.7063 103.334 42.7371 101.785 37.9617C100.236 33.1864 92.817 30.955 89.8182 26.8476C86.8193 22.7402 87.0894 15.0656 82.9394 12.0383C78.8178 9.0395 71.6689 11.6688 66.723 10.0628C61.7771 8.45679 57.7266 2.14648 52.4396 2.14648C47.1525 2.14648 42.9315 8.51364 38.1561 10.0628C33.3807 11.6119 26.0614 9.05371 21.9398 12.0383C17.8182 15.0229 18.074 22.6976 15.061 26.8476C12.0479 30.9976 4.70012 33.0158 3.09412 37.9617C1.48812 42.9076 6.24927 48.7063 6.24927 53.9933C6.24927 59.2803 1.54497 65.2495 3.09412 70.0249C4.64327 74.8003 12.0621 77.0316 15.061 81.139C18.0598 85.2464 17.7897 92.9211 21.9398 95.9483C26.0898 98.9755 33.2102 96.3178 38.1561 97.9238C43.102 99.5298 47.1525 105.84 52.4396 105.84C57.7266 105.84 61.9477 99.473 66.723 97.9238C71.4984 96.3747 78.8178 98.9329 82.9394 95.9483C87.061 92.9637 86.8051 85.289 89.8182 81.139C92.8312 76.989 100.179 74.9708 101.785 70.0249C103.391 65.079 98.6298 59.2803 98.6298 53.9933Z" stroke="#17539E" stroke-width="4.26372" stroke-linecap="round" stroke-linejoin="round"/>
<path d="M36.3942 44.5566H30.8798C28.9803 44.5566 27.4404 46.0965 27.4404 47.996V74.8717C27.4404 76.7712 28.9803 78.3111 30.8798 78.3111H36.3942C38.2938 78.3111 39.8336 76.7712 39.8336 74.8717V47.996C39.8336 46.0965 38.2938 44.5566 36.3942 44.5566Z" stroke="#17539E" stroke-width="4.26372" stroke-linecap="round" stroke-linejoin="round"/>
<path d="M40.573 46.0059L48.4893 33.9823V22.8682H51.1044C54.1458 22.8682 56.6188 25.3411 56.6188 28.3826V42.4813C56.6188 43.6325 57.5426 44.5563 58.6938 44.5563H73.3894C75.635 44.5563 77.4541 46.3755 77.4541 48.621C77.4541 50.8666 75.635 52.6858 73.3894 52.6858H67.8324H73.0625C75.4786 52.6858 77.4399 54.6471 77.4399 57.0632C77.4399 59.4793 75.4786 61.4406 73.0625 61.4406H66.6527H71.5702C73.8158 61.4406 75.635 63.2598 75.635 65.5054C75.635 67.7509 73.8158 69.5701 71.5702 69.5701H64.194H66.8659C69.282 69.5701 71.2433 71.5314 71.2433 73.9475C71.2433 76.3636 69.282 78.3249 66.8659 78.3249H44.3108C41.8379 78.3249 39.8481 76.321 39.8481 73.8622V48.4789C39.8481 47.6119 40.104 46.745 40.5872 46.0202L40.573 46.0059Z" stroke="#17539E" stroke-width="4.26372" stroke-linecap="round" stroke-linejoin="round"/>
</g>
<defs>
<clipPath id="clip0_1798_21133">
<rect width="103.58" height="108" fill="white" transform="translate(0.649902)"/>
</clipPath>
</defs>
</svg>
