<svg width="130" height="36" viewBox="0 0 130 36" fill="none" xmlns="http://www.w3.org/2000/svg">
<g clip-path="url(#clip0_1492_28863)">
<path d="M100.822 34.9007C106.143 37.528 115.164 34.1509 115.164 34.1509L113.399 29.1357C109.312 31.2098 102.794 29.7517 105.543 21.8019C108.717 12.6301 115.729 16.648 115.729 16.648L118.044 12.3312C109.875 7.84774 101.86 12.9901 98.7592 17.396C94.5894 23.3294 95.5043 32.275 100.82 34.9023L100.822 34.9007ZM92.5417 35.4968L96.7561 11.6145L88.3935 11.5997L84.1824 35.4853L92.5417 35.4968ZM46.3757 12.8745C42.2539 9.5916 39.2566 12.5789 38.2575 14.5705C37.2551 16.5637 36.2148 17.2325 36.2148 17.2325L37.3443 11.5799L28.5705 11.5667C29.1469 7.86426 25.5964 2.30406 17.0422 2.29415L6.50149 2.27929L0.193212 34.4697L0 35.6669L8.68791 35.6801L14.0433 7.98481C14.0433 7.98481 20.0857 6.72811 19.7043 12.8481C19.3773 18.0929 14.1688 17.9608 14.1688 17.9608L13.1681 23.4434C26.4171 23.4615 28.1379 14.7043 28.1379 14.7043L24.6931 35.7297L32.9566 35.7429L35.11 23.8282C37.1329 16.7041 42.3777 19.992 42.3777 19.992L46.3724 12.8729L46.3757 12.8745ZM93.597 9.5239C96.1896 9.52885 98.4867 7.41838 98.7278 4.81746C98.9672 2.21158 97.0483 0.0928602 94.4524 0.0879061C91.8597 0.0813006 89.5593 2.19011 89.3215 4.7993C89.0854 7.40352 91.001 9.52224 93.597 9.52555V9.5239ZM56.4954 11.1109C49.5001 11.0993 43.1275 16.643 42.2654 23.4929C41.4001 30.3428 46.3675 35.9014 53.3627 35.913C60.3629 35.9229 66.7323 30.3775 67.5993 23.5326C68.458 16.6793 63.4939 11.1208 56.4954 11.1125V11.1109ZM58.766 23.9619C58.0675 28.5808 55.7308 32.3212 53.5378 32.3179C51.3563 32.3179 50.1508 28.5709 50.851 23.9471C51.5512 19.3281 53.8912 15.5828 56.0776 15.5861C58.2624 15.5861 59.4662 19.3364 58.766 23.9603V23.9619ZM80.3182 22.4113C78.827 20.6988 77.2582 19.4933 77.7107 17.0344C78.1632 14.5705 82.9356 16.8164 82.9356 16.8164L85.4028 13.0876C78.9938 8.82371 72.3437 11.352 69.8732 15.454C67.4044 19.5593 72.9085 25.174 74.3386 27.0318C76.3499 29.6476 73.4072 30.612 71.8417 30.3065C70.2696 30.0076 67.2195 29.1473 67.2195 29.1473L65.7464 33.8487C65.7464 33.8487 68.9782 34.9403 72.1158 35.4654C75.2501 35.9972 80.5246 36.1508 82.6186 31.8985C84.7125 27.6445 81.8094 24.132 80.3182 22.4113ZM125.393 5.3426C122.846 5.33599 120.774 7.40352 120.767 9.94665C120.761 12.4947 122.831 14.5672 125.378 14.5722C127.921 14.5788 129.995 12.5145 130 9.96646C130.007 7.42334 127.939 5.34755 125.393 5.3426ZM125.378 13.9545C123.173 13.9496 121.383 12.1545 121.386 9.9483C121.393 7.74536 123.188 5.95526 125.394 5.95856C127.599 5.96187 129.389 7.76352 129.389 9.96481C129.379 12.1711 127.581 13.9595 125.378 13.9545ZM126.22 10.3892C126.137 10.3149 126.017 10.2389 125.86 10.163C126.291 10.1052 126.613 9.96481 126.819 9.74518C127.029 9.5305 127.133 9.25802 127.133 8.93766C127.133 8.6916 127.069 8.46041 126.948 8.25564C126.823 8.05252 126.656 7.90884 126.446 7.82793C126.233 7.74536 125.933 7.70407 125.53 7.70407L123.53 7.69912L123.518 12.2123L124.118 12.2156L124.121 10.2109H124.813C124.967 10.2142 125.077 10.2224 125.145 10.2356C125.237 10.2571 125.33 10.2967 125.419 10.3545C125.508 10.4123 125.609 10.5147 125.721 10.66C125.832 10.8004 125.974 11.0085 126.146 11.2826L126.742 12.2189L127.49 12.2223L126.715 10.992C126.559 10.7542 126.395 10.556 126.22 10.3925V10.3892ZM125.408 9.69234H124.121L124.128 8.19949H125.554C125.886 8.20444 126.132 8.26719 126.286 8.41086C126.44 8.54628 126.517 8.72298 126.517 8.93766C126.517 9.07802 126.478 9.21839 126.4 9.33894C126.314 9.46445 126.197 9.55692 126.043 9.60977C125.893 9.66757 125.677 9.69564 125.408 9.69069V9.69234Z" fill="#005596"/>
</g>
<defs>
<clipPath id="clip0_1492_28863">
<rect width="130" height="35.8251" fill="white" transform="translate(0 0.0878906)"/>
</clipPath>
</defs>
</svg>
